%TF.GenerationSoftware,KiCad,Pcbnew,8.0.1-rc1*%
%TF.CreationDate,2024-06-07T10:26:59-05:00*%
%TF.ProjectId,Cutdown,43757464-6f77-46e2-9e6b-696361645f70,2.0.0*%
%TF.SameCoordinates,Original*%
%TF.FileFunction,Paste,Top*%
%TF.FilePolarity,Positive*%
%FSLAX46Y46*%
G04 Gerber Fmt 4.6, Leading zero omitted, Abs format (unit mm)*
G04 Created by KiCad (PCBNEW 8.0.1-rc1) date 2024-06-07 10:26:59*
%MOMM*%
%LPD*%
G01*
G04 APERTURE LIST*
G04 Aperture macros list*
%AMRoundRect*
0 Rectangle with rounded corners*
0 $1 Rounding radius*
0 $2 $3 $4 $5 $6 $7 $8 $9 X,Y pos of 4 corners*
0 Add a 4 corners polygon primitive as box body*
4,1,4,$2,$3,$4,$5,$6,$7,$8,$9,$2,$3,0*
0 Add four circle primitives for the rounded corners*
1,1,$1+$1,$2,$3*
1,1,$1+$1,$4,$5*
1,1,$1+$1,$6,$7*
1,1,$1+$1,$8,$9*
0 Add four rect primitives between the rounded corners*
20,1,$1+$1,$2,$3,$4,$5,0*
20,1,$1+$1,$4,$5,$6,$7,0*
20,1,$1+$1,$6,$7,$8,$9,0*
20,1,$1+$1,$8,$9,$2,$3,0*%
G04 Aperture macros list end*
%ADD10C,0.010000*%
%ADD11RoundRect,0.218750X0.218750X0.256250X-0.218750X0.256250X-0.218750X-0.256250X0.218750X-0.256250X0*%
%ADD12RoundRect,0.218750X-0.256250X0.218750X-0.256250X-0.218750X0.256250X-0.218750X0.256250X0.218750X0*%
%ADD13R,1.800000X1.200000*%
%ADD14R,1.550000X0.600000*%
%ADD15R,3.500000X1.000000*%
%ADD16R,3.400000X1.500000*%
%ADD17RoundRect,0.218750X-0.218750X-0.256250X0.218750X-0.256250X0.218750X0.256250X-0.218750X0.256250X0*%
%ADD18RoundRect,0.218750X0.256250X-0.218750X0.256250X0.218750X-0.256250X0.218750X-0.256250X-0.218750X0*%
%ADD19R,0.800000X0.900000*%
%ADD20R,2.616200X1.752600*%
%ADD21R,1.000000X1.500000*%
%ADD22RoundRect,0.243750X-0.243750X-0.456250X0.243750X-0.456250X0.243750X0.456250X-0.243750X0.456250X0*%
%ADD23RoundRect,0.243750X0.243750X0.456250X-0.243750X0.456250X-0.243750X-0.456250X0.243750X-0.456250X0*%
%ADD24R,0.580000X0.720000*%
%ADD25R,0.720000X0.580000*%
%ADD26RoundRect,0.150000X-0.825000X-0.150000X0.825000X-0.150000X0.825000X0.150000X-0.825000X0.150000X0*%
%ADD27R,0.900000X1.700000*%
%ADD28R,0.882000X1.700000*%
%ADD29R,2.300000X4.500000*%
%ADD30R,0.400000X0.400000*%
%ADD31O,1.100000X1.800000*%
%ADD32O,1.050000X1.450000*%
%ADD33R,1.574800X1.574800*%
%ADD34C,1.574800*%
%ADD35RoundRect,0.450000X-0.300000X-0.300000X0.300000X-0.300000X0.300000X0.300000X-0.300000X0.300000X0*%
%ADD36R,2.184400X1.701800*%
%ADD37RoundRect,0.243750X0.456250X-0.243750X0.456250X0.243750X-0.456250X0.243750X-0.456250X-0.243750X0*%
%ADD38R,1.060000X0.650000*%
%ADD39R,1.701800X2.184400*%
G04 APERTURE END LIST*
D10*
%TO.C,U5*%
X74972000Y-46191000D02*
X75014000Y-46194000D01*
X75055000Y-46200000D01*
X75096000Y-46207000D01*
X75137000Y-46217000D01*
X75177000Y-46229000D01*
X75217000Y-46243000D01*
X75255000Y-46259000D01*
X75293000Y-46277000D01*
X75330000Y-46297000D01*
X75366000Y-46319000D01*
X75400000Y-46343000D01*
X75433000Y-46368000D01*
X75465000Y-46395000D01*
X75496000Y-46424000D01*
X75525000Y-46455000D01*
X75552000Y-46487000D01*
X75577000Y-46520000D01*
X75601000Y-46554000D01*
X75623000Y-46590000D01*
X75643000Y-46627000D01*
X75661000Y-46665000D01*
X75677000Y-46703000D01*
X75691000Y-46743000D01*
X75703000Y-46783000D01*
X75713000Y-46824000D01*
X75720000Y-46865000D01*
X75726000Y-46906000D01*
X75729000Y-46948000D01*
X75730000Y-46990000D01*
X75729000Y-47032000D01*
X75726000Y-47074000D01*
X75720000Y-47115000D01*
X75713000Y-47156000D01*
X75703000Y-47197000D01*
X75691000Y-47237000D01*
X75677000Y-47277000D01*
X75661000Y-47315000D01*
X75643000Y-47353000D01*
X75623000Y-47390000D01*
X75601000Y-47426000D01*
X75577000Y-47460000D01*
X75552000Y-47493000D01*
X75525000Y-47525000D01*
X75496000Y-47556000D01*
X75465000Y-47585000D01*
X75433000Y-47612000D01*
X75400000Y-47637000D01*
X75366000Y-47661000D01*
X75330000Y-47683000D01*
X75293000Y-47703000D01*
X75255000Y-47721000D01*
X75217000Y-47737000D01*
X75177000Y-47751000D01*
X75137000Y-47763000D01*
X75096000Y-47773000D01*
X75055000Y-47780000D01*
X75014000Y-47786000D01*
X74972000Y-47789000D01*
X74930000Y-47790000D01*
X72530000Y-47790000D01*
X72530000Y-46190000D01*
X74930000Y-46190000D01*
X74972000Y-46191000D01*
G36*
X74972000Y-46191000D02*
G01*
X75014000Y-46194000D01*
X75055000Y-46200000D01*
X75096000Y-46207000D01*
X75137000Y-46217000D01*
X75177000Y-46229000D01*
X75217000Y-46243000D01*
X75255000Y-46259000D01*
X75293000Y-46277000D01*
X75330000Y-46297000D01*
X75366000Y-46319000D01*
X75400000Y-46343000D01*
X75433000Y-46368000D01*
X75465000Y-46395000D01*
X75496000Y-46424000D01*
X75525000Y-46455000D01*
X75552000Y-46487000D01*
X75577000Y-46520000D01*
X75601000Y-46554000D01*
X75623000Y-46590000D01*
X75643000Y-46627000D01*
X75661000Y-46665000D01*
X75677000Y-46703000D01*
X75691000Y-46743000D01*
X75703000Y-46783000D01*
X75713000Y-46824000D01*
X75720000Y-46865000D01*
X75726000Y-46906000D01*
X75729000Y-46948000D01*
X75730000Y-46990000D01*
X75729000Y-47032000D01*
X75726000Y-47074000D01*
X75720000Y-47115000D01*
X75713000Y-47156000D01*
X75703000Y-47197000D01*
X75691000Y-47237000D01*
X75677000Y-47277000D01*
X75661000Y-47315000D01*
X75643000Y-47353000D01*
X75623000Y-47390000D01*
X75601000Y-47426000D01*
X75577000Y-47460000D01*
X75552000Y-47493000D01*
X75525000Y-47525000D01*
X75496000Y-47556000D01*
X75465000Y-47585000D01*
X75433000Y-47612000D01*
X75400000Y-47637000D01*
X75366000Y-47661000D01*
X75330000Y-47683000D01*
X75293000Y-47703000D01*
X75255000Y-47721000D01*
X75217000Y-47737000D01*
X75177000Y-47751000D01*
X75137000Y-47763000D01*
X75096000Y-47773000D01*
X75055000Y-47780000D01*
X75014000Y-47786000D01*
X74972000Y-47789000D01*
X74930000Y-47790000D01*
X72530000Y-47790000D01*
X72530000Y-46190000D01*
X74930000Y-46190000D01*
X74972000Y-46191000D01*
G37*
X74972000Y-48731000D02*
X75014000Y-48734000D01*
X75055000Y-48740000D01*
X75096000Y-48747000D01*
X75137000Y-48757000D01*
X75177000Y-48769000D01*
X75217000Y-48783000D01*
X75255000Y-48799000D01*
X75293000Y-48817000D01*
X75330000Y-48837000D01*
X75366000Y-48859000D01*
X75400000Y-48883000D01*
X75433000Y-48908000D01*
X75465000Y-48935000D01*
X75496000Y-48964000D01*
X75525000Y-48995000D01*
X75552000Y-49027000D01*
X75577000Y-49060000D01*
X75601000Y-49094000D01*
X75623000Y-49130000D01*
X75643000Y-49167000D01*
X75661000Y-49205000D01*
X75677000Y-49243000D01*
X75691000Y-49283000D01*
X75703000Y-49323000D01*
X75713000Y-49364000D01*
X75720000Y-49405000D01*
X75726000Y-49446000D01*
X75729000Y-49488000D01*
X75730000Y-49530000D01*
X75729000Y-49572000D01*
X75726000Y-49614000D01*
X75720000Y-49655000D01*
X75713000Y-49696000D01*
X75703000Y-49737000D01*
X75691000Y-49777000D01*
X75677000Y-49817000D01*
X75661000Y-49855000D01*
X75643000Y-49893000D01*
X75623000Y-49930000D01*
X75601000Y-49966000D01*
X75577000Y-50000000D01*
X75552000Y-50033000D01*
X75525000Y-50065000D01*
X75496000Y-50096000D01*
X75465000Y-50125000D01*
X75433000Y-50152000D01*
X75400000Y-50177000D01*
X75366000Y-50201000D01*
X75330000Y-50223000D01*
X75293000Y-50243000D01*
X75255000Y-50261000D01*
X75217000Y-50277000D01*
X75177000Y-50291000D01*
X75137000Y-50303000D01*
X75096000Y-50313000D01*
X75055000Y-50320000D01*
X75014000Y-50326000D01*
X74972000Y-50329000D01*
X74930000Y-50330000D01*
X72530000Y-50330000D01*
X72530000Y-48730000D01*
X74930000Y-48730000D01*
X74972000Y-48731000D01*
G36*
X74972000Y-48731000D02*
G01*
X75014000Y-48734000D01*
X75055000Y-48740000D01*
X75096000Y-48747000D01*
X75137000Y-48757000D01*
X75177000Y-48769000D01*
X75217000Y-48783000D01*
X75255000Y-48799000D01*
X75293000Y-48817000D01*
X75330000Y-48837000D01*
X75366000Y-48859000D01*
X75400000Y-48883000D01*
X75433000Y-48908000D01*
X75465000Y-48935000D01*
X75496000Y-48964000D01*
X75525000Y-48995000D01*
X75552000Y-49027000D01*
X75577000Y-49060000D01*
X75601000Y-49094000D01*
X75623000Y-49130000D01*
X75643000Y-49167000D01*
X75661000Y-49205000D01*
X75677000Y-49243000D01*
X75691000Y-49283000D01*
X75703000Y-49323000D01*
X75713000Y-49364000D01*
X75720000Y-49405000D01*
X75726000Y-49446000D01*
X75729000Y-49488000D01*
X75730000Y-49530000D01*
X75729000Y-49572000D01*
X75726000Y-49614000D01*
X75720000Y-49655000D01*
X75713000Y-49696000D01*
X75703000Y-49737000D01*
X75691000Y-49777000D01*
X75677000Y-49817000D01*
X75661000Y-49855000D01*
X75643000Y-49893000D01*
X75623000Y-49930000D01*
X75601000Y-49966000D01*
X75577000Y-50000000D01*
X75552000Y-50033000D01*
X75525000Y-50065000D01*
X75496000Y-50096000D01*
X75465000Y-50125000D01*
X75433000Y-50152000D01*
X75400000Y-50177000D01*
X75366000Y-50201000D01*
X75330000Y-50223000D01*
X75293000Y-50243000D01*
X75255000Y-50261000D01*
X75217000Y-50277000D01*
X75177000Y-50291000D01*
X75137000Y-50303000D01*
X75096000Y-50313000D01*
X75055000Y-50320000D01*
X75014000Y-50326000D01*
X74972000Y-50329000D01*
X74930000Y-50330000D01*
X72530000Y-50330000D01*
X72530000Y-48730000D01*
X74930000Y-48730000D01*
X74972000Y-48731000D01*
G37*
X74972000Y-53811000D02*
X75014000Y-53814000D01*
X75055000Y-53820000D01*
X75096000Y-53827000D01*
X75137000Y-53837000D01*
X75177000Y-53849000D01*
X75217000Y-53863000D01*
X75255000Y-53879000D01*
X75293000Y-53897000D01*
X75330000Y-53917000D01*
X75366000Y-53939000D01*
X75400000Y-53963000D01*
X75433000Y-53988000D01*
X75465000Y-54015000D01*
X75496000Y-54044000D01*
X75525000Y-54075000D01*
X75552000Y-54107000D01*
X75577000Y-54140000D01*
X75601000Y-54174000D01*
X75623000Y-54210000D01*
X75643000Y-54247000D01*
X75661000Y-54285000D01*
X75677000Y-54323000D01*
X75691000Y-54363000D01*
X75703000Y-54403000D01*
X75713000Y-54444000D01*
X75720000Y-54485000D01*
X75726000Y-54526000D01*
X75729000Y-54568000D01*
X75730000Y-54610000D01*
X75729000Y-54652000D01*
X75726000Y-54694000D01*
X75720000Y-54735000D01*
X75713000Y-54776000D01*
X75703000Y-54817000D01*
X75691000Y-54857000D01*
X75677000Y-54897000D01*
X75661000Y-54935000D01*
X75643000Y-54973000D01*
X75623000Y-55010000D01*
X75601000Y-55046000D01*
X75577000Y-55080000D01*
X75552000Y-55113000D01*
X75525000Y-55145000D01*
X75496000Y-55176000D01*
X75465000Y-55205000D01*
X75433000Y-55232000D01*
X75400000Y-55257000D01*
X75366000Y-55281000D01*
X75330000Y-55303000D01*
X75293000Y-55323000D01*
X75255000Y-55341000D01*
X75217000Y-55357000D01*
X75177000Y-55371000D01*
X75137000Y-55383000D01*
X75096000Y-55393000D01*
X75055000Y-55400000D01*
X75014000Y-55406000D01*
X74972000Y-55409000D01*
X74930000Y-55410000D01*
X72530000Y-55410000D01*
X72530000Y-53810000D01*
X74930000Y-53810000D01*
X74972000Y-53811000D01*
G36*
X74972000Y-53811000D02*
G01*
X75014000Y-53814000D01*
X75055000Y-53820000D01*
X75096000Y-53827000D01*
X75137000Y-53837000D01*
X75177000Y-53849000D01*
X75217000Y-53863000D01*
X75255000Y-53879000D01*
X75293000Y-53897000D01*
X75330000Y-53917000D01*
X75366000Y-53939000D01*
X75400000Y-53963000D01*
X75433000Y-53988000D01*
X75465000Y-54015000D01*
X75496000Y-54044000D01*
X75525000Y-54075000D01*
X75552000Y-54107000D01*
X75577000Y-54140000D01*
X75601000Y-54174000D01*
X75623000Y-54210000D01*
X75643000Y-54247000D01*
X75661000Y-54285000D01*
X75677000Y-54323000D01*
X75691000Y-54363000D01*
X75703000Y-54403000D01*
X75713000Y-54444000D01*
X75720000Y-54485000D01*
X75726000Y-54526000D01*
X75729000Y-54568000D01*
X75730000Y-54610000D01*
X75729000Y-54652000D01*
X75726000Y-54694000D01*
X75720000Y-54735000D01*
X75713000Y-54776000D01*
X75703000Y-54817000D01*
X75691000Y-54857000D01*
X75677000Y-54897000D01*
X75661000Y-54935000D01*
X75643000Y-54973000D01*
X75623000Y-55010000D01*
X75601000Y-55046000D01*
X75577000Y-55080000D01*
X75552000Y-55113000D01*
X75525000Y-55145000D01*
X75496000Y-55176000D01*
X75465000Y-55205000D01*
X75433000Y-55232000D01*
X75400000Y-55257000D01*
X75366000Y-55281000D01*
X75330000Y-55303000D01*
X75293000Y-55323000D01*
X75255000Y-55341000D01*
X75217000Y-55357000D01*
X75177000Y-55371000D01*
X75137000Y-55383000D01*
X75096000Y-55393000D01*
X75055000Y-55400000D01*
X75014000Y-55406000D01*
X74972000Y-55409000D01*
X74930000Y-55410000D01*
X72530000Y-55410000D01*
X72530000Y-53810000D01*
X74930000Y-53810000D01*
X74972000Y-53811000D01*
G37*
X74972000Y-56351000D02*
X75014000Y-56354000D01*
X75055000Y-56360000D01*
X75096000Y-56367000D01*
X75137000Y-56377000D01*
X75177000Y-56389000D01*
X75217000Y-56403000D01*
X75255000Y-56419000D01*
X75293000Y-56437000D01*
X75330000Y-56457000D01*
X75366000Y-56479000D01*
X75400000Y-56503000D01*
X75433000Y-56528000D01*
X75465000Y-56555000D01*
X75496000Y-56584000D01*
X75525000Y-56615000D01*
X75552000Y-56647000D01*
X75577000Y-56680000D01*
X75601000Y-56714000D01*
X75623000Y-56750000D01*
X75643000Y-56787000D01*
X75661000Y-56825000D01*
X75677000Y-56863000D01*
X75691000Y-56903000D01*
X75703000Y-56943000D01*
X75713000Y-56984000D01*
X75720000Y-57025000D01*
X75726000Y-57066000D01*
X75729000Y-57108000D01*
X75730000Y-57150000D01*
X75729000Y-57192000D01*
X75726000Y-57234000D01*
X75720000Y-57275000D01*
X75713000Y-57316000D01*
X75703000Y-57357000D01*
X75691000Y-57397000D01*
X75677000Y-57437000D01*
X75661000Y-57475000D01*
X75643000Y-57513000D01*
X75623000Y-57550000D01*
X75601000Y-57586000D01*
X75577000Y-57620000D01*
X75552000Y-57653000D01*
X75525000Y-57685000D01*
X75496000Y-57716000D01*
X75465000Y-57745000D01*
X75433000Y-57772000D01*
X75400000Y-57797000D01*
X75366000Y-57821000D01*
X75330000Y-57843000D01*
X75293000Y-57863000D01*
X75255000Y-57881000D01*
X75217000Y-57897000D01*
X75177000Y-57911000D01*
X75137000Y-57923000D01*
X75096000Y-57933000D01*
X75055000Y-57940000D01*
X75014000Y-57946000D01*
X74972000Y-57949000D01*
X74930000Y-57950000D01*
X72530000Y-57950000D01*
X72530000Y-56350000D01*
X74930000Y-56350000D01*
X74972000Y-56351000D01*
G36*
X74972000Y-56351000D02*
G01*
X75014000Y-56354000D01*
X75055000Y-56360000D01*
X75096000Y-56367000D01*
X75137000Y-56377000D01*
X75177000Y-56389000D01*
X75217000Y-56403000D01*
X75255000Y-56419000D01*
X75293000Y-56437000D01*
X75330000Y-56457000D01*
X75366000Y-56479000D01*
X75400000Y-56503000D01*
X75433000Y-56528000D01*
X75465000Y-56555000D01*
X75496000Y-56584000D01*
X75525000Y-56615000D01*
X75552000Y-56647000D01*
X75577000Y-56680000D01*
X75601000Y-56714000D01*
X75623000Y-56750000D01*
X75643000Y-56787000D01*
X75661000Y-56825000D01*
X75677000Y-56863000D01*
X75691000Y-56903000D01*
X75703000Y-56943000D01*
X75713000Y-56984000D01*
X75720000Y-57025000D01*
X75726000Y-57066000D01*
X75729000Y-57108000D01*
X75730000Y-57150000D01*
X75729000Y-57192000D01*
X75726000Y-57234000D01*
X75720000Y-57275000D01*
X75713000Y-57316000D01*
X75703000Y-57357000D01*
X75691000Y-57397000D01*
X75677000Y-57437000D01*
X75661000Y-57475000D01*
X75643000Y-57513000D01*
X75623000Y-57550000D01*
X75601000Y-57586000D01*
X75577000Y-57620000D01*
X75552000Y-57653000D01*
X75525000Y-57685000D01*
X75496000Y-57716000D01*
X75465000Y-57745000D01*
X75433000Y-57772000D01*
X75400000Y-57797000D01*
X75366000Y-57821000D01*
X75330000Y-57843000D01*
X75293000Y-57863000D01*
X75255000Y-57881000D01*
X75217000Y-57897000D01*
X75177000Y-57911000D01*
X75137000Y-57923000D01*
X75096000Y-57933000D01*
X75055000Y-57940000D01*
X75014000Y-57946000D01*
X74972000Y-57949000D01*
X74930000Y-57950000D01*
X72530000Y-57950000D01*
X72530000Y-56350000D01*
X74930000Y-56350000D01*
X74972000Y-56351000D01*
G37*
X74972000Y-58891000D02*
X75014000Y-58894000D01*
X75055000Y-58900000D01*
X75096000Y-58907000D01*
X75137000Y-58917000D01*
X75177000Y-58929000D01*
X75217000Y-58943000D01*
X75255000Y-58959000D01*
X75293000Y-58977000D01*
X75330000Y-58997000D01*
X75366000Y-59019000D01*
X75400000Y-59043000D01*
X75433000Y-59068000D01*
X75465000Y-59095000D01*
X75496000Y-59124000D01*
X75525000Y-59155000D01*
X75552000Y-59187000D01*
X75577000Y-59220000D01*
X75601000Y-59254000D01*
X75623000Y-59290000D01*
X75643000Y-59327000D01*
X75661000Y-59365000D01*
X75677000Y-59403000D01*
X75691000Y-59443000D01*
X75703000Y-59483000D01*
X75713000Y-59524000D01*
X75720000Y-59565000D01*
X75726000Y-59606000D01*
X75729000Y-59648000D01*
X75730000Y-59690000D01*
X75729000Y-59732000D01*
X75726000Y-59774000D01*
X75720000Y-59815000D01*
X75713000Y-59856000D01*
X75703000Y-59897000D01*
X75691000Y-59937000D01*
X75677000Y-59977000D01*
X75661000Y-60015000D01*
X75643000Y-60053000D01*
X75623000Y-60090000D01*
X75601000Y-60126000D01*
X75577000Y-60160000D01*
X75552000Y-60193000D01*
X75525000Y-60225000D01*
X75496000Y-60256000D01*
X75465000Y-60285000D01*
X75433000Y-60312000D01*
X75400000Y-60337000D01*
X75366000Y-60361000D01*
X75330000Y-60383000D01*
X75293000Y-60403000D01*
X75255000Y-60421000D01*
X75217000Y-60437000D01*
X75177000Y-60451000D01*
X75137000Y-60463000D01*
X75096000Y-60473000D01*
X75055000Y-60480000D01*
X75014000Y-60486000D01*
X74972000Y-60489000D01*
X74930000Y-60490000D01*
X72530000Y-60490000D01*
X72530000Y-58890000D01*
X74930000Y-58890000D01*
X74972000Y-58891000D01*
G36*
X74972000Y-58891000D02*
G01*
X75014000Y-58894000D01*
X75055000Y-58900000D01*
X75096000Y-58907000D01*
X75137000Y-58917000D01*
X75177000Y-58929000D01*
X75217000Y-58943000D01*
X75255000Y-58959000D01*
X75293000Y-58977000D01*
X75330000Y-58997000D01*
X75366000Y-59019000D01*
X75400000Y-59043000D01*
X75433000Y-59068000D01*
X75465000Y-59095000D01*
X75496000Y-59124000D01*
X75525000Y-59155000D01*
X75552000Y-59187000D01*
X75577000Y-59220000D01*
X75601000Y-59254000D01*
X75623000Y-59290000D01*
X75643000Y-59327000D01*
X75661000Y-59365000D01*
X75677000Y-59403000D01*
X75691000Y-59443000D01*
X75703000Y-59483000D01*
X75713000Y-59524000D01*
X75720000Y-59565000D01*
X75726000Y-59606000D01*
X75729000Y-59648000D01*
X75730000Y-59690000D01*
X75729000Y-59732000D01*
X75726000Y-59774000D01*
X75720000Y-59815000D01*
X75713000Y-59856000D01*
X75703000Y-59897000D01*
X75691000Y-59937000D01*
X75677000Y-59977000D01*
X75661000Y-60015000D01*
X75643000Y-60053000D01*
X75623000Y-60090000D01*
X75601000Y-60126000D01*
X75577000Y-60160000D01*
X75552000Y-60193000D01*
X75525000Y-60225000D01*
X75496000Y-60256000D01*
X75465000Y-60285000D01*
X75433000Y-60312000D01*
X75400000Y-60337000D01*
X75366000Y-60361000D01*
X75330000Y-60383000D01*
X75293000Y-60403000D01*
X75255000Y-60421000D01*
X75217000Y-60437000D01*
X75177000Y-60451000D01*
X75137000Y-60463000D01*
X75096000Y-60473000D01*
X75055000Y-60480000D01*
X75014000Y-60486000D01*
X74972000Y-60489000D01*
X74930000Y-60490000D01*
X72530000Y-60490000D01*
X72530000Y-58890000D01*
X74930000Y-58890000D01*
X74972000Y-58891000D01*
G37*
X74972000Y-61431000D02*
X75014000Y-61434000D01*
X75055000Y-61440000D01*
X75096000Y-61447000D01*
X75137000Y-61457000D01*
X75177000Y-61469000D01*
X75217000Y-61483000D01*
X75255000Y-61499000D01*
X75293000Y-61517000D01*
X75330000Y-61537000D01*
X75366000Y-61559000D01*
X75400000Y-61583000D01*
X75433000Y-61608000D01*
X75465000Y-61635000D01*
X75496000Y-61664000D01*
X75525000Y-61695000D01*
X75552000Y-61727000D01*
X75577000Y-61760000D01*
X75601000Y-61794000D01*
X75623000Y-61830000D01*
X75643000Y-61867000D01*
X75661000Y-61905000D01*
X75677000Y-61943000D01*
X75691000Y-61983000D01*
X75703000Y-62023000D01*
X75713000Y-62064000D01*
X75720000Y-62105000D01*
X75726000Y-62146000D01*
X75729000Y-62188000D01*
X75730000Y-62230000D01*
X75729000Y-62272000D01*
X75726000Y-62314000D01*
X75720000Y-62355000D01*
X75713000Y-62396000D01*
X75703000Y-62437000D01*
X75691000Y-62477000D01*
X75677000Y-62517000D01*
X75661000Y-62555000D01*
X75643000Y-62593000D01*
X75623000Y-62630000D01*
X75601000Y-62666000D01*
X75577000Y-62700000D01*
X75552000Y-62733000D01*
X75525000Y-62765000D01*
X75496000Y-62796000D01*
X75465000Y-62825000D01*
X75433000Y-62852000D01*
X75400000Y-62877000D01*
X75366000Y-62901000D01*
X75330000Y-62923000D01*
X75293000Y-62943000D01*
X75255000Y-62961000D01*
X75217000Y-62977000D01*
X75177000Y-62991000D01*
X75137000Y-63003000D01*
X75096000Y-63013000D01*
X75055000Y-63020000D01*
X75014000Y-63026000D01*
X74972000Y-63029000D01*
X74930000Y-63030000D01*
X72530000Y-63030000D01*
X72530000Y-61430000D01*
X74930000Y-61430000D01*
X74972000Y-61431000D01*
G36*
X74972000Y-61431000D02*
G01*
X75014000Y-61434000D01*
X75055000Y-61440000D01*
X75096000Y-61447000D01*
X75137000Y-61457000D01*
X75177000Y-61469000D01*
X75217000Y-61483000D01*
X75255000Y-61499000D01*
X75293000Y-61517000D01*
X75330000Y-61537000D01*
X75366000Y-61559000D01*
X75400000Y-61583000D01*
X75433000Y-61608000D01*
X75465000Y-61635000D01*
X75496000Y-61664000D01*
X75525000Y-61695000D01*
X75552000Y-61727000D01*
X75577000Y-61760000D01*
X75601000Y-61794000D01*
X75623000Y-61830000D01*
X75643000Y-61867000D01*
X75661000Y-61905000D01*
X75677000Y-61943000D01*
X75691000Y-61983000D01*
X75703000Y-62023000D01*
X75713000Y-62064000D01*
X75720000Y-62105000D01*
X75726000Y-62146000D01*
X75729000Y-62188000D01*
X75730000Y-62230000D01*
X75729000Y-62272000D01*
X75726000Y-62314000D01*
X75720000Y-62355000D01*
X75713000Y-62396000D01*
X75703000Y-62437000D01*
X75691000Y-62477000D01*
X75677000Y-62517000D01*
X75661000Y-62555000D01*
X75643000Y-62593000D01*
X75623000Y-62630000D01*
X75601000Y-62666000D01*
X75577000Y-62700000D01*
X75552000Y-62733000D01*
X75525000Y-62765000D01*
X75496000Y-62796000D01*
X75465000Y-62825000D01*
X75433000Y-62852000D01*
X75400000Y-62877000D01*
X75366000Y-62901000D01*
X75330000Y-62923000D01*
X75293000Y-62943000D01*
X75255000Y-62961000D01*
X75217000Y-62977000D01*
X75177000Y-62991000D01*
X75137000Y-63003000D01*
X75096000Y-63013000D01*
X75055000Y-63020000D01*
X75014000Y-63026000D01*
X74972000Y-63029000D01*
X74930000Y-63030000D01*
X72530000Y-63030000D01*
X72530000Y-61430000D01*
X74930000Y-61430000D01*
X74972000Y-61431000D01*
G37*
X74972000Y-66511000D02*
X75014000Y-66514000D01*
X75055000Y-66520000D01*
X75096000Y-66527000D01*
X75137000Y-66537000D01*
X75177000Y-66549000D01*
X75217000Y-66563000D01*
X75255000Y-66579000D01*
X75293000Y-66597000D01*
X75330000Y-66617000D01*
X75366000Y-66639000D01*
X75400000Y-66663000D01*
X75433000Y-66688000D01*
X75465000Y-66715000D01*
X75496000Y-66744000D01*
X75525000Y-66775000D01*
X75552000Y-66807000D01*
X75577000Y-66840000D01*
X75601000Y-66874000D01*
X75623000Y-66910000D01*
X75643000Y-66947000D01*
X75661000Y-66985000D01*
X75677000Y-67023000D01*
X75691000Y-67063000D01*
X75703000Y-67103000D01*
X75713000Y-67144000D01*
X75720000Y-67185000D01*
X75726000Y-67226000D01*
X75729000Y-67268000D01*
X75730000Y-67310000D01*
X75729000Y-67352000D01*
X75726000Y-67394000D01*
X75720000Y-67435000D01*
X75713000Y-67476000D01*
X75703000Y-67517000D01*
X75691000Y-67557000D01*
X75677000Y-67597000D01*
X75661000Y-67635000D01*
X75643000Y-67673000D01*
X75623000Y-67710000D01*
X75601000Y-67746000D01*
X75577000Y-67780000D01*
X75552000Y-67813000D01*
X75525000Y-67845000D01*
X75496000Y-67876000D01*
X75465000Y-67905000D01*
X75433000Y-67932000D01*
X75400000Y-67957000D01*
X75366000Y-67981000D01*
X75330000Y-68003000D01*
X75293000Y-68023000D01*
X75255000Y-68041000D01*
X75217000Y-68057000D01*
X75177000Y-68071000D01*
X75137000Y-68083000D01*
X75096000Y-68093000D01*
X75055000Y-68100000D01*
X75014000Y-68106000D01*
X74972000Y-68109000D01*
X74930000Y-68110000D01*
X72530000Y-68110000D01*
X72530000Y-66510000D01*
X74930000Y-66510000D01*
X74972000Y-66511000D01*
G36*
X74972000Y-66511000D02*
G01*
X75014000Y-66514000D01*
X75055000Y-66520000D01*
X75096000Y-66527000D01*
X75137000Y-66537000D01*
X75177000Y-66549000D01*
X75217000Y-66563000D01*
X75255000Y-66579000D01*
X75293000Y-66597000D01*
X75330000Y-66617000D01*
X75366000Y-66639000D01*
X75400000Y-66663000D01*
X75433000Y-66688000D01*
X75465000Y-66715000D01*
X75496000Y-66744000D01*
X75525000Y-66775000D01*
X75552000Y-66807000D01*
X75577000Y-66840000D01*
X75601000Y-66874000D01*
X75623000Y-66910000D01*
X75643000Y-66947000D01*
X75661000Y-66985000D01*
X75677000Y-67023000D01*
X75691000Y-67063000D01*
X75703000Y-67103000D01*
X75713000Y-67144000D01*
X75720000Y-67185000D01*
X75726000Y-67226000D01*
X75729000Y-67268000D01*
X75730000Y-67310000D01*
X75729000Y-67352000D01*
X75726000Y-67394000D01*
X75720000Y-67435000D01*
X75713000Y-67476000D01*
X75703000Y-67517000D01*
X75691000Y-67557000D01*
X75677000Y-67597000D01*
X75661000Y-67635000D01*
X75643000Y-67673000D01*
X75623000Y-67710000D01*
X75601000Y-67746000D01*
X75577000Y-67780000D01*
X75552000Y-67813000D01*
X75525000Y-67845000D01*
X75496000Y-67876000D01*
X75465000Y-67905000D01*
X75433000Y-67932000D01*
X75400000Y-67957000D01*
X75366000Y-67981000D01*
X75330000Y-68003000D01*
X75293000Y-68023000D01*
X75255000Y-68041000D01*
X75217000Y-68057000D01*
X75177000Y-68071000D01*
X75137000Y-68083000D01*
X75096000Y-68093000D01*
X75055000Y-68100000D01*
X75014000Y-68106000D01*
X74972000Y-68109000D01*
X74930000Y-68110000D01*
X72530000Y-68110000D01*
X72530000Y-66510000D01*
X74930000Y-66510000D01*
X74972000Y-66511000D01*
G37*
X74972000Y-69051000D02*
X75014000Y-69054000D01*
X75055000Y-69060000D01*
X75096000Y-69067000D01*
X75137000Y-69077000D01*
X75177000Y-69089000D01*
X75217000Y-69103000D01*
X75255000Y-69119000D01*
X75293000Y-69137000D01*
X75330000Y-69157000D01*
X75366000Y-69179000D01*
X75400000Y-69203000D01*
X75433000Y-69228000D01*
X75465000Y-69255000D01*
X75496000Y-69284000D01*
X75525000Y-69315000D01*
X75552000Y-69347000D01*
X75577000Y-69380000D01*
X75601000Y-69414000D01*
X75623000Y-69450000D01*
X75643000Y-69487000D01*
X75661000Y-69525000D01*
X75677000Y-69563000D01*
X75691000Y-69603000D01*
X75703000Y-69643000D01*
X75713000Y-69684000D01*
X75720000Y-69725000D01*
X75726000Y-69766000D01*
X75729000Y-69808000D01*
X75730000Y-69850000D01*
X75729000Y-69892000D01*
X75726000Y-69934000D01*
X75720000Y-69975000D01*
X75713000Y-70016000D01*
X75703000Y-70057000D01*
X75691000Y-70097000D01*
X75677000Y-70137000D01*
X75661000Y-70175000D01*
X75643000Y-70213000D01*
X75623000Y-70250000D01*
X75601000Y-70286000D01*
X75577000Y-70320000D01*
X75552000Y-70353000D01*
X75525000Y-70385000D01*
X75496000Y-70416000D01*
X75465000Y-70445000D01*
X75433000Y-70472000D01*
X75400000Y-70497000D01*
X75366000Y-70521000D01*
X75330000Y-70543000D01*
X75293000Y-70563000D01*
X75255000Y-70581000D01*
X75217000Y-70597000D01*
X75177000Y-70611000D01*
X75137000Y-70623000D01*
X75096000Y-70633000D01*
X75055000Y-70640000D01*
X75014000Y-70646000D01*
X74972000Y-70649000D01*
X74930000Y-70650000D01*
X72530000Y-70650000D01*
X72530000Y-69050000D01*
X74930000Y-69050000D01*
X74972000Y-69051000D01*
G36*
X74972000Y-69051000D02*
G01*
X75014000Y-69054000D01*
X75055000Y-69060000D01*
X75096000Y-69067000D01*
X75137000Y-69077000D01*
X75177000Y-69089000D01*
X75217000Y-69103000D01*
X75255000Y-69119000D01*
X75293000Y-69137000D01*
X75330000Y-69157000D01*
X75366000Y-69179000D01*
X75400000Y-69203000D01*
X75433000Y-69228000D01*
X75465000Y-69255000D01*
X75496000Y-69284000D01*
X75525000Y-69315000D01*
X75552000Y-69347000D01*
X75577000Y-69380000D01*
X75601000Y-69414000D01*
X75623000Y-69450000D01*
X75643000Y-69487000D01*
X75661000Y-69525000D01*
X75677000Y-69563000D01*
X75691000Y-69603000D01*
X75703000Y-69643000D01*
X75713000Y-69684000D01*
X75720000Y-69725000D01*
X75726000Y-69766000D01*
X75729000Y-69808000D01*
X75730000Y-69850000D01*
X75729000Y-69892000D01*
X75726000Y-69934000D01*
X75720000Y-69975000D01*
X75713000Y-70016000D01*
X75703000Y-70057000D01*
X75691000Y-70097000D01*
X75677000Y-70137000D01*
X75661000Y-70175000D01*
X75643000Y-70213000D01*
X75623000Y-70250000D01*
X75601000Y-70286000D01*
X75577000Y-70320000D01*
X75552000Y-70353000D01*
X75525000Y-70385000D01*
X75496000Y-70416000D01*
X75465000Y-70445000D01*
X75433000Y-70472000D01*
X75400000Y-70497000D01*
X75366000Y-70521000D01*
X75330000Y-70543000D01*
X75293000Y-70563000D01*
X75255000Y-70581000D01*
X75217000Y-70597000D01*
X75177000Y-70611000D01*
X75137000Y-70623000D01*
X75096000Y-70633000D01*
X75055000Y-70640000D01*
X75014000Y-70646000D01*
X74972000Y-70649000D01*
X74930000Y-70650000D01*
X72530000Y-70650000D01*
X72530000Y-69050000D01*
X74930000Y-69050000D01*
X74972000Y-69051000D01*
G37*
X74972000Y-71591000D02*
X75014000Y-71594000D01*
X75055000Y-71600000D01*
X75096000Y-71607000D01*
X75137000Y-71617000D01*
X75177000Y-71629000D01*
X75217000Y-71643000D01*
X75255000Y-71659000D01*
X75293000Y-71677000D01*
X75330000Y-71697000D01*
X75366000Y-71719000D01*
X75400000Y-71743000D01*
X75433000Y-71768000D01*
X75465000Y-71795000D01*
X75496000Y-71824000D01*
X75525000Y-71855000D01*
X75552000Y-71887000D01*
X75577000Y-71920000D01*
X75601000Y-71954000D01*
X75623000Y-71990000D01*
X75643000Y-72027000D01*
X75661000Y-72065000D01*
X75677000Y-72103000D01*
X75691000Y-72143000D01*
X75703000Y-72183000D01*
X75713000Y-72224000D01*
X75720000Y-72265000D01*
X75726000Y-72306000D01*
X75729000Y-72348000D01*
X75730000Y-72390000D01*
X75729000Y-72432000D01*
X75726000Y-72474000D01*
X75720000Y-72515000D01*
X75713000Y-72556000D01*
X75703000Y-72597000D01*
X75691000Y-72637000D01*
X75677000Y-72677000D01*
X75661000Y-72715000D01*
X75643000Y-72753000D01*
X75623000Y-72790000D01*
X75601000Y-72826000D01*
X75577000Y-72860000D01*
X75552000Y-72893000D01*
X75525000Y-72925000D01*
X75496000Y-72956000D01*
X75465000Y-72985000D01*
X75433000Y-73012000D01*
X75400000Y-73037000D01*
X75366000Y-73061000D01*
X75330000Y-73083000D01*
X75293000Y-73103000D01*
X75255000Y-73121000D01*
X75217000Y-73137000D01*
X75177000Y-73151000D01*
X75137000Y-73163000D01*
X75096000Y-73173000D01*
X75055000Y-73180000D01*
X75014000Y-73186000D01*
X74972000Y-73189000D01*
X74930000Y-73190000D01*
X72530000Y-73190000D01*
X72530000Y-71590000D01*
X74930000Y-71590000D01*
X74972000Y-71591000D01*
G36*
X74972000Y-71591000D02*
G01*
X75014000Y-71594000D01*
X75055000Y-71600000D01*
X75096000Y-71607000D01*
X75137000Y-71617000D01*
X75177000Y-71629000D01*
X75217000Y-71643000D01*
X75255000Y-71659000D01*
X75293000Y-71677000D01*
X75330000Y-71697000D01*
X75366000Y-71719000D01*
X75400000Y-71743000D01*
X75433000Y-71768000D01*
X75465000Y-71795000D01*
X75496000Y-71824000D01*
X75525000Y-71855000D01*
X75552000Y-71887000D01*
X75577000Y-71920000D01*
X75601000Y-71954000D01*
X75623000Y-71990000D01*
X75643000Y-72027000D01*
X75661000Y-72065000D01*
X75677000Y-72103000D01*
X75691000Y-72143000D01*
X75703000Y-72183000D01*
X75713000Y-72224000D01*
X75720000Y-72265000D01*
X75726000Y-72306000D01*
X75729000Y-72348000D01*
X75730000Y-72390000D01*
X75729000Y-72432000D01*
X75726000Y-72474000D01*
X75720000Y-72515000D01*
X75713000Y-72556000D01*
X75703000Y-72597000D01*
X75691000Y-72637000D01*
X75677000Y-72677000D01*
X75661000Y-72715000D01*
X75643000Y-72753000D01*
X75623000Y-72790000D01*
X75601000Y-72826000D01*
X75577000Y-72860000D01*
X75552000Y-72893000D01*
X75525000Y-72925000D01*
X75496000Y-72956000D01*
X75465000Y-72985000D01*
X75433000Y-73012000D01*
X75400000Y-73037000D01*
X75366000Y-73061000D01*
X75330000Y-73083000D01*
X75293000Y-73103000D01*
X75255000Y-73121000D01*
X75217000Y-73137000D01*
X75177000Y-73151000D01*
X75137000Y-73163000D01*
X75096000Y-73173000D01*
X75055000Y-73180000D01*
X75014000Y-73186000D01*
X74972000Y-73189000D01*
X74930000Y-73190000D01*
X72530000Y-73190000D01*
X72530000Y-71590000D01*
X74930000Y-71590000D01*
X74972000Y-71591000D01*
G37*
X74972000Y-74131000D02*
X75014000Y-74134000D01*
X75055000Y-74140000D01*
X75096000Y-74147000D01*
X75137000Y-74157000D01*
X75177000Y-74169000D01*
X75217000Y-74183000D01*
X75255000Y-74199000D01*
X75293000Y-74217000D01*
X75330000Y-74237000D01*
X75366000Y-74259000D01*
X75400000Y-74283000D01*
X75433000Y-74308000D01*
X75465000Y-74335000D01*
X75496000Y-74364000D01*
X75525000Y-74395000D01*
X75552000Y-74427000D01*
X75577000Y-74460000D01*
X75601000Y-74494000D01*
X75623000Y-74530000D01*
X75643000Y-74567000D01*
X75661000Y-74605000D01*
X75677000Y-74643000D01*
X75691000Y-74683000D01*
X75703000Y-74723000D01*
X75713000Y-74764000D01*
X75720000Y-74805000D01*
X75726000Y-74846000D01*
X75729000Y-74888000D01*
X75730000Y-74930000D01*
X75729000Y-74972000D01*
X75726000Y-75014000D01*
X75720000Y-75055000D01*
X75713000Y-75096000D01*
X75703000Y-75137000D01*
X75691000Y-75177000D01*
X75677000Y-75217000D01*
X75661000Y-75255000D01*
X75643000Y-75293000D01*
X75623000Y-75330000D01*
X75601000Y-75366000D01*
X75577000Y-75400000D01*
X75552000Y-75433000D01*
X75525000Y-75465000D01*
X75496000Y-75496000D01*
X75465000Y-75525000D01*
X75433000Y-75552000D01*
X75400000Y-75577000D01*
X75366000Y-75601000D01*
X75330000Y-75623000D01*
X75293000Y-75643000D01*
X75255000Y-75661000D01*
X75217000Y-75677000D01*
X75177000Y-75691000D01*
X75137000Y-75703000D01*
X75096000Y-75713000D01*
X75055000Y-75720000D01*
X75014000Y-75726000D01*
X74972000Y-75729000D01*
X74930000Y-75730000D01*
X72530000Y-75730000D01*
X72530000Y-74130000D01*
X74930000Y-74130000D01*
X74972000Y-74131000D01*
G36*
X74972000Y-74131000D02*
G01*
X75014000Y-74134000D01*
X75055000Y-74140000D01*
X75096000Y-74147000D01*
X75137000Y-74157000D01*
X75177000Y-74169000D01*
X75217000Y-74183000D01*
X75255000Y-74199000D01*
X75293000Y-74217000D01*
X75330000Y-74237000D01*
X75366000Y-74259000D01*
X75400000Y-74283000D01*
X75433000Y-74308000D01*
X75465000Y-74335000D01*
X75496000Y-74364000D01*
X75525000Y-74395000D01*
X75552000Y-74427000D01*
X75577000Y-74460000D01*
X75601000Y-74494000D01*
X75623000Y-74530000D01*
X75643000Y-74567000D01*
X75661000Y-74605000D01*
X75677000Y-74643000D01*
X75691000Y-74683000D01*
X75703000Y-74723000D01*
X75713000Y-74764000D01*
X75720000Y-74805000D01*
X75726000Y-74846000D01*
X75729000Y-74888000D01*
X75730000Y-74930000D01*
X75729000Y-74972000D01*
X75726000Y-75014000D01*
X75720000Y-75055000D01*
X75713000Y-75096000D01*
X75703000Y-75137000D01*
X75691000Y-75177000D01*
X75677000Y-75217000D01*
X75661000Y-75255000D01*
X75643000Y-75293000D01*
X75623000Y-75330000D01*
X75601000Y-75366000D01*
X75577000Y-75400000D01*
X75552000Y-75433000D01*
X75525000Y-75465000D01*
X75496000Y-75496000D01*
X75465000Y-75525000D01*
X75433000Y-75552000D01*
X75400000Y-75577000D01*
X75366000Y-75601000D01*
X75330000Y-75623000D01*
X75293000Y-75643000D01*
X75255000Y-75661000D01*
X75217000Y-75677000D01*
X75177000Y-75691000D01*
X75137000Y-75703000D01*
X75096000Y-75713000D01*
X75055000Y-75720000D01*
X75014000Y-75726000D01*
X74972000Y-75729000D01*
X74930000Y-75730000D01*
X72530000Y-75730000D01*
X72530000Y-74130000D01*
X74930000Y-74130000D01*
X74972000Y-74131000D01*
G37*
X74972000Y-79211000D02*
X75014000Y-79214000D01*
X75055000Y-79220000D01*
X75096000Y-79227000D01*
X75137000Y-79237000D01*
X75177000Y-79249000D01*
X75217000Y-79263000D01*
X75255000Y-79279000D01*
X75293000Y-79297000D01*
X75330000Y-79317000D01*
X75366000Y-79339000D01*
X75400000Y-79363000D01*
X75433000Y-79388000D01*
X75465000Y-79415000D01*
X75496000Y-79444000D01*
X75525000Y-79475000D01*
X75552000Y-79507000D01*
X75577000Y-79540000D01*
X75601000Y-79574000D01*
X75623000Y-79610000D01*
X75643000Y-79647000D01*
X75661000Y-79685000D01*
X75677000Y-79723000D01*
X75691000Y-79763000D01*
X75703000Y-79803000D01*
X75713000Y-79844000D01*
X75720000Y-79885000D01*
X75726000Y-79926000D01*
X75729000Y-79968000D01*
X75730000Y-80010000D01*
X75729000Y-80052000D01*
X75726000Y-80094000D01*
X75720000Y-80135000D01*
X75713000Y-80176000D01*
X75703000Y-80217000D01*
X75691000Y-80257000D01*
X75677000Y-80297000D01*
X75661000Y-80335000D01*
X75643000Y-80373000D01*
X75623000Y-80410000D01*
X75601000Y-80446000D01*
X75577000Y-80480000D01*
X75552000Y-80513000D01*
X75525000Y-80545000D01*
X75496000Y-80576000D01*
X75465000Y-80605000D01*
X75433000Y-80632000D01*
X75400000Y-80657000D01*
X75366000Y-80681000D01*
X75330000Y-80703000D01*
X75293000Y-80723000D01*
X75255000Y-80741000D01*
X75217000Y-80757000D01*
X75177000Y-80771000D01*
X75137000Y-80783000D01*
X75096000Y-80793000D01*
X75055000Y-80800000D01*
X75014000Y-80806000D01*
X74972000Y-80809000D01*
X74930000Y-80810000D01*
X72530000Y-80810000D01*
X72530000Y-79210000D01*
X74930000Y-79210000D01*
X74972000Y-79211000D01*
G36*
X74972000Y-79211000D02*
G01*
X75014000Y-79214000D01*
X75055000Y-79220000D01*
X75096000Y-79227000D01*
X75137000Y-79237000D01*
X75177000Y-79249000D01*
X75217000Y-79263000D01*
X75255000Y-79279000D01*
X75293000Y-79297000D01*
X75330000Y-79317000D01*
X75366000Y-79339000D01*
X75400000Y-79363000D01*
X75433000Y-79388000D01*
X75465000Y-79415000D01*
X75496000Y-79444000D01*
X75525000Y-79475000D01*
X75552000Y-79507000D01*
X75577000Y-79540000D01*
X75601000Y-79574000D01*
X75623000Y-79610000D01*
X75643000Y-79647000D01*
X75661000Y-79685000D01*
X75677000Y-79723000D01*
X75691000Y-79763000D01*
X75703000Y-79803000D01*
X75713000Y-79844000D01*
X75720000Y-79885000D01*
X75726000Y-79926000D01*
X75729000Y-79968000D01*
X75730000Y-80010000D01*
X75729000Y-80052000D01*
X75726000Y-80094000D01*
X75720000Y-80135000D01*
X75713000Y-80176000D01*
X75703000Y-80217000D01*
X75691000Y-80257000D01*
X75677000Y-80297000D01*
X75661000Y-80335000D01*
X75643000Y-80373000D01*
X75623000Y-80410000D01*
X75601000Y-80446000D01*
X75577000Y-80480000D01*
X75552000Y-80513000D01*
X75525000Y-80545000D01*
X75496000Y-80576000D01*
X75465000Y-80605000D01*
X75433000Y-80632000D01*
X75400000Y-80657000D01*
X75366000Y-80681000D01*
X75330000Y-80703000D01*
X75293000Y-80723000D01*
X75255000Y-80741000D01*
X75217000Y-80757000D01*
X75177000Y-80771000D01*
X75137000Y-80783000D01*
X75096000Y-80793000D01*
X75055000Y-80800000D01*
X75014000Y-80806000D01*
X74972000Y-80809000D01*
X74930000Y-80810000D01*
X72530000Y-80810000D01*
X72530000Y-79210000D01*
X74930000Y-79210000D01*
X74972000Y-79211000D01*
G37*
X74972000Y-81751000D02*
X75014000Y-81754000D01*
X75055000Y-81760000D01*
X75096000Y-81767000D01*
X75137000Y-81777000D01*
X75177000Y-81789000D01*
X75217000Y-81803000D01*
X75255000Y-81819000D01*
X75293000Y-81837000D01*
X75330000Y-81857000D01*
X75366000Y-81879000D01*
X75400000Y-81903000D01*
X75433000Y-81928000D01*
X75465000Y-81955000D01*
X75496000Y-81984000D01*
X75525000Y-82015000D01*
X75552000Y-82047000D01*
X75577000Y-82080000D01*
X75601000Y-82114000D01*
X75623000Y-82150000D01*
X75643000Y-82187000D01*
X75661000Y-82225000D01*
X75677000Y-82263000D01*
X75691000Y-82303000D01*
X75703000Y-82343000D01*
X75713000Y-82384000D01*
X75720000Y-82425000D01*
X75726000Y-82466000D01*
X75729000Y-82508000D01*
X75730000Y-82550000D01*
X75729000Y-82592000D01*
X75726000Y-82634000D01*
X75720000Y-82675000D01*
X75713000Y-82716000D01*
X75703000Y-82757000D01*
X75691000Y-82797000D01*
X75677000Y-82837000D01*
X75661000Y-82875000D01*
X75643000Y-82913000D01*
X75623000Y-82950000D01*
X75601000Y-82986000D01*
X75577000Y-83020000D01*
X75552000Y-83053000D01*
X75525000Y-83085000D01*
X75496000Y-83116000D01*
X75465000Y-83145000D01*
X75433000Y-83172000D01*
X75400000Y-83197000D01*
X75366000Y-83221000D01*
X75330000Y-83243000D01*
X75293000Y-83263000D01*
X75255000Y-83281000D01*
X75217000Y-83297000D01*
X75177000Y-83311000D01*
X75137000Y-83323000D01*
X75096000Y-83333000D01*
X75055000Y-83340000D01*
X75014000Y-83346000D01*
X74972000Y-83349000D01*
X74930000Y-83350000D01*
X72530000Y-83350000D01*
X72530000Y-81750000D01*
X74930000Y-81750000D01*
X74972000Y-81751000D01*
G36*
X74972000Y-81751000D02*
G01*
X75014000Y-81754000D01*
X75055000Y-81760000D01*
X75096000Y-81767000D01*
X75137000Y-81777000D01*
X75177000Y-81789000D01*
X75217000Y-81803000D01*
X75255000Y-81819000D01*
X75293000Y-81837000D01*
X75330000Y-81857000D01*
X75366000Y-81879000D01*
X75400000Y-81903000D01*
X75433000Y-81928000D01*
X75465000Y-81955000D01*
X75496000Y-81984000D01*
X75525000Y-82015000D01*
X75552000Y-82047000D01*
X75577000Y-82080000D01*
X75601000Y-82114000D01*
X75623000Y-82150000D01*
X75643000Y-82187000D01*
X75661000Y-82225000D01*
X75677000Y-82263000D01*
X75691000Y-82303000D01*
X75703000Y-82343000D01*
X75713000Y-82384000D01*
X75720000Y-82425000D01*
X75726000Y-82466000D01*
X75729000Y-82508000D01*
X75730000Y-82550000D01*
X75729000Y-82592000D01*
X75726000Y-82634000D01*
X75720000Y-82675000D01*
X75713000Y-82716000D01*
X75703000Y-82757000D01*
X75691000Y-82797000D01*
X75677000Y-82837000D01*
X75661000Y-82875000D01*
X75643000Y-82913000D01*
X75623000Y-82950000D01*
X75601000Y-82986000D01*
X75577000Y-83020000D01*
X75552000Y-83053000D01*
X75525000Y-83085000D01*
X75496000Y-83116000D01*
X75465000Y-83145000D01*
X75433000Y-83172000D01*
X75400000Y-83197000D01*
X75366000Y-83221000D01*
X75330000Y-83243000D01*
X75293000Y-83263000D01*
X75255000Y-83281000D01*
X75217000Y-83297000D01*
X75177000Y-83311000D01*
X75137000Y-83323000D01*
X75096000Y-83333000D01*
X75055000Y-83340000D01*
X75014000Y-83346000D01*
X74972000Y-83349000D01*
X74930000Y-83350000D01*
X72530000Y-83350000D01*
X72530000Y-81750000D01*
X74930000Y-81750000D01*
X74972000Y-81751000D01*
G37*
X74972000Y-84291000D02*
X75014000Y-84294000D01*
X75055000Y-84300000D01*
X75096000Y-84307000D01*
X75137000Y-84317000D01*
X75177000Y-84329000D01*
X75217000Y-84343000D01*
X75255000Y-84359000D01*
X75293000Y-84377000D01*
X75330000Y-84397000D01*
X75366000Y-84419000D01*
X75400000Y-84443000D01*
X75433000Y-84468000D01*
X75465000Y-84495000D01*
X75496000Y-84524000D01*
X75525000Y-84555000D01*
X75552000Y-84587000D01*
X75577000Y-84620000D01*
X75601000Y-84654000D01*
X75623000Y-84690000D01*
X75643000Y-84727000D01*
X75661000Y-84765000D01*
X75677000Y-84803000D01*
X75691000Y-84843000D01*
X75703000Y-84883000D01*
X75713000Y-84924000D01*
X75720000Y-84965000D01*
X75726000Y-85006000D01*
X75729000Y-85048000D01*
X75730000Y-85090000D01*
X75729000Y-85132000D01*
X75726000Y-85174000D01*
X75720000Y-85215000D01*
X75713000Y-85256000D01*
X75703000Y-85297000D01*
X75691000Y-85337000D01*
X75677000Y-85377000D01*
X75661000Y-85415000D01*
X75643000Y-85453000D01*
X75623000Y-85490000D01*
X75601000Y-85526000D01*
X75577000Y-85560000D01*
X75552000Y-85593000D01*
X75525000Y-85625000D01*
X75496000Y-85656000D01*
X75465000Y-85685000D01*
X75433000Y-85712000D01*
X75400000Y-85737000D01*
X75366000Y-85761000D01*
X75330000Y-85783000D01*
X75293000Y-85803000D01*
X75255000Y-85821000D01*
X75217000Y-85837000D01*
X75177000Y-85851000D01*
X75137000Y-85863000D01*
X75096000Y-85873000D01*
X75055000Y-85880000D01*
X75014000Y-85886000D01*
X74972000Y-85889000D01*
X74930000Y-85890000D01*
X72530000Y-85890000D01*
X72530000Y-84290000D01*
X74930000Y-84290000D01*
X74972000Y-84291000D01*
G36*
X74972000Y-84291000D02*
G01*
X75014000Y-84294000D01*
X75055000Y-84300000D01*
X75096000Y-84307000D01*
X75137000Y-84317000D01*
X75177000Y-84329000D01*
X75217000Y-84343000D01*
X75255000Y-84359000D01*
X75293000Y-84377000D01*
X75330000Y-84397000D01*
X75366000Y-84419000D01*
X75400000Y-84443000D01*
X75433000Y-84468000D01*
X75465000Y-84495000D01*
X75496000Y-84524000D01*
X75525000Y-84555000D01*
X75552000Y-84587000D01*
X75577000Y-84620000D01*
X75601000Y-84654000D01*
X75623000Y-84690000D01*
X75643000Y-84727000D01*
X75661000Y-84765000D01*
X75677000Y-84803000D01*
X75691000Y-84843000D01*
X75703000Y-84883000D01*
X75713000Y-84924000D01*
X75720000Y-84965000D01*
X75726000Y-85006000D01*
X75729000Y-85048000D01*
X75730000Y-85090000D01*
X75729000Y-85132000D01*
X75726000Y-85174000D01*
X75720000Y-85215000D01*
X75713000Y-85256000D01*
X75703000Y-85297000D01*
X75691000Y-85337000D01*
X75677000Y-85377000D01*
X75661000Y-85415000D01*
X75643000Y-85453000D01*
X75623000Y-85490000D01*
X75601000Y-85526000D01*
X75577000Y-85560000D01*
X75552000Y-85593000D01*
X75525000Y-85625000D01*
X75496000Y-85656000D01*
X75465000Y-85685000D01*
X75433000Y-85712000D01*
X75400000Y-85737000D01*
X75366000Y-85761000D01*
X75330000Y-85783000D01*
X75293000Y-85803000D01*
X75255000Y-85821000D01*
X75217000Y-85837000D01*
X75177000Y-85851000D01*
X75137000Y-85863000D01*
X75096000Y-85873000D01*
X75055000Y-85880000D01*
X75014000Y-85886000D01*
X74972000Y-85889000D01*
X74930000Y-85890000D01*
X72530000Y-85890000D01*
X72530000Y-84290000D01*
X74930000Y-84290000D01*
X74972000Y-84291000D01*
G37*
X74972000Y-86831000D02*
X75014000Y-86834000D01*
X75055000Y-86840000D01*
X75096000Y-86847000D01*
X75137000Y-86857000D01*
X75177000Y-86869000D01*
X75217000Y-86883000D01*
X75255000Y-86899000D01*
X75293000Y-86917000D01*
X75330000Y-86937000D01*
X75366000Y-86959000D01*
X75400000Y-86983000D01*
X75433000Y-87008000D01*
X75465000Y-87035000D01*
X75496000Y-87064000D01*
X75525000Y-87095000D01*
X75552000Y-87127000D01*
X75577000Y-87160000D01*
X75601000Y-87194000D01*
X75623000Y-87230000D01*
X75643000Y-87267000D01*
X75661000Y-87305000D01*
X75677000Y-87343000D01*
X75691000Y-87383000D01*
X75703000Y-87423000D01*
X75713000Y-87464000D01*
X75720000Y-87505000D01*
X75726000Y-87546000D01*
X75729000Y-87588000D01*
X75730000Y-87630000D01*
X75729000Y-87672000D01*
X75726000Y-87714000D01*
X75720000Y-87755000D01*
X75713000Y-87796000D01*
X75703000Y-87837000D01*
X75691000Y-87877000D01*
X75677000Y-87917000D01*
X75661000Y-87955000D01*
X75643000Y-87993000D01*
X75623000Y-88030000D01*
X75601000Y-88066000D01*
X75577000Y-88100000D01*
X75552000Y-88133000D01*
X75525000Y-88165000D01*
X75496000Y-88196000D01*
X75465000Y-88225000D01*
X75433000Y-88252000D01*
X75400000Y-88277000D01*
X75366000Y-88301000D01*
X75330000Y-88323000D01*
X75293000Y-88343000D01*
X75255000Y-88361000D01*
X75217000Y-88377000D01*
X75177000Y-88391000D01*
X75137000Y-88403000D01*
X75096000Y-88413000D01*
X75055000Y-88420000D01*
X75014000Y-88426000D01*
X74972000Y-88429000D01*
X74930000Y-88430000D01*
X72530000Y-88430000D01*
X72530000Y-86830000D01*
X74930000Y-86830000D01*
X74972000Y-86831000D01*
G36*
X74972000Y-86831000D02*
G01*
X75014000Y-86834000D01*
X75055000Y-86840000D01*
X75096000Y-86847000D01*
X75137000Y-86857000D01*
X75177000Y-86869000D01*
X75217000Y-86883000D01*
X75255000Y-86899000D01*
X75293000Y-86917000D01*
X75330000Y-86937000D01*
X75366000Y-86959000D01*
X75400000Y-86983000D01*
X75433000Y-87008000D01*
X75465000Y-87035000D01*
X75496000Y-87064000D01*
X75525000Y-87095000D01*
X75552000Y-87127000D01*
X75577000Y-87160000D01*
X75601000Y-87194000D01*
X75623000Y-87230000D01*
X75643000Y-87267000D01*
X75661000Y-87305000D01*
X75677000Y-87343000D01*
X75691000Y-87383000D01*
X75703000Y-87423000D01*
X75713000Y-87464000D01*
X75720000Y-87505000D01*
X75726000Y-87546000D01*
X75729000Y-87588000D01*
X75730000Y-87630000D01*
X75729000Y-87672000D01*
X75726000Y-87714000D01*
X75720000Y-87755000D01*
X75713000Y-87796000D01*
X75703000Y-87837000D01*
X75691000Y-87877000D01*
X75677000Y-87917000D01*
X75661000Y-87955000D01*
X75643000Y-87993000D01*
X75623000Y-88030000D01*
X75601000Y-88066000D01*
X75577000Y-88100000D01*
X75552000Y-88133000D01*
X75525000Y-88165000D01*
X75496000Y-88196000D01*
X75465000Y-88225000D01*
X75433000Y-88252000D01*
X75400000Y-88277000D01*
X75366000Y-88301000D01*
X75330000Y-88323000D01*
X75293000Y-88343000D01*
X75255000Y-88361000D01*
X75217000Y-88377000D01*
X75177000Y-88391000D01*
X75137000Y-88403000D01*
X75096000Y-88413000D01*
X75055000Y-88420000D01*
X75014000Y-88426000D01*
X74972000Y-88429000D01*
X74930000Y-88430000D01*
X72530000Y-88430000D01*
X72530000Y-86830000D01*
X74930000Y-86830000D01*
X74972000Y-86831000D01*
G37*
X74972000Y-91911000D02*
X75014000Y-91914000D01*
X75055000Y-91920000D01*
X75096000Y-91927000D01*
X75137000Y-91937000D01*
X75177000Y-91949000D01*
X75217000Y-91963000D01*
X75255000Y-91979000D01*
X75293000Y-91997000D01*
X75330000Y-92017000D01*
X75366000Y-92039000D01*
X75400000Y-92063000D01*
X75433000Y-92088000D01*
X75465000Y-92115000D01*
X75496000Y-92144000D01*
X75525000Y-92175000D01*
X75552000Y-92207000D01*
X75577000Y-92240000D01*
X75601000Y-92274000D01*
X75623000Y-92310000D01*
X75643000Y-92347000D01*
X75661000Y-92385000D01*
X75677000Y-92423000D01*
X75691000Y-92463000D01*
X75703000Y-92503000D01*
X75713000Y-92544000D01*
X75720000Y-92585000D01*
X75726000Y-92626000D01*
X75729000Y-92668000D01*
X75730000Y-92710000D01*
X75729000Y-92752000D01*
X75726000Y-92794000D01*
X75720000Y-92835000D01*
X75713000Y-92876000D01*
X75703000Y-92917000D01*
X75691000Y-92957000D01*
X75677000Y-92997000D01*
X75661000Y-93035000D01*
X75643000Y-93073000D01*
X75623000Y-93110000D01*
X75601000Y-93146000D01*
X75577000Y-93180000D01*
X75552000Y-93213000D01*
X75525000Y-93245000D01*
X75496000Y-93276000D01*
X75465000Y-93305000D01*
X75433000Y-93332000D01*
X75400000Y-93357000D01*
X75366000Y-93381000D01*
X75330000Y-93403000D01*
X75293000Y-93423000D01*
X75255000Y-93441000D01*
X75217000Y-93457000D01*
X75177000Y-93471000D01*
X75137000Y-93483000D01*
X75096000Y-93493000D01*
X75055000Y-93500000D01*
X75014000Y-93506000D01*
X74972000Y-93509000D01*
X74930000Y-93510000D01*
X72530000Y-93510000D01*
X72530000Y-91910000D01*
X74930000Y-91910000D01*
X74972000Y-91911000D01*
G36*
X74972000Y-91911000D02*
G01*
X75014000Y-91914000D01*
X75055000Y-91920000D01*
X75096000Y-91927000D01*
X75137000Y-91937000D01*
X75177000Y-91949000D01*
X75217000Y-91963000D01*
X75255000Y-91979000D01*
X75293000Y-91997000D01*
X75330000Y-92017000D01*
X75366000Y-92039000D01*
X75400000Y-92063000D01*
X75433000Y-92088000D01*
X75465000Y-92115000D01*
X75496000Y-92144000D01*
X75525000Y-92175000D01*
X75552000Y-92207000D01*
X75577000Y-92240000D01*
X75601000Y-92274000D01*
X75623000Y-92310000D01*
X75643000Y-92347000D01*
X75661000Y-92385000D01*
X75677000Y-92423000D01*
X75691000Y-92463000D01*
X75703000Y-92503000D01*
X75713000Y-92544000D01*
X75720000Y-92585000D01*
X75726000Y-92626000D01*
X75729000Y-92668000D01*
X75730000Y-92710000D01*
X75729000Y-92752000D01*
X75726000Y-92794000D01*
X75720000Y-92835000D01*
X75713000Y-92876000D01*
X75703000Y-92917000D01*
X75691000Y-92957000D01*
X75677000Y-92997000D01*
X75661000Y-93035000D01*
X75643000Y-93073000D01*
X75623000Y-93110000D01*
X75601000Y-93146000D01*
X75577000Y-93180000D01*
X75552000Y-93213000D01*
X75525000Y-93245000D01*
X75496000Y-93276000D01*
X75465000Y-93305000D01*
X75433000Y-93332000D01*
X75400000Y-93357000D01*
X75366000Y-93381000D01*
X75330000Y-93403000D01*
X75293000Y-93423000D01*
X75255000Y-93441000D01*
X75217000Y-93457000D01*
X75177000Y-93471000D01*
X75137000Y-93483000D01*
X75096000Y-93493000D01*
X75055000Y-93500000D01*
X75014000Y-93506000D01*
X74972000Y-93509000D01*
X74930000Y-93510000D01*
X72530000Y-93510000D01*
X72530000Y-91910000D01*
X74930000Y-91910000D01*
X74972000Y-91911000D01*
G37*
X74972000Y-94451000D02*
X75014000Y-94454000D01*
X75055000Y-94460000D01*
X75096000Y-94467000D01*
X75137000Y-94477000D01*
X75177000Y-94489000D01*
X75217000Y-94503000D01*
X75255000Y-94519000D01*
X75293000Y-94537000D01*
X75330000Y-94557000D01*
X75366000Y-94579000D01*
X75400000Y-94603000D01*
X75433000Y-94628000D01*
X75465000Y-94655000D01*
X75496000Y-94684000D01*
X75525000Y-94715000D01*
X75552000Y-94747000D01*
X75577000Y-94780000D01*
X75601000Y-94814000D01*
X75623000Y-94850000D01*
X75643000Y-94887000D01*
X75661000Y-94925000D01*
X75677000Y-94963000D01*
X75691000Y-95003000D01*
X75703000Y-95043000D01*
X75713000Y-95084000D01*
X75720000Y-95125000D01*
X75726000Y-95166000D01*
X75729000Y-95208000D01*
X75730000Y-95250000D01*
X75729000Y-95292000D01*
X75726000Y-95334000D01*
X75720000Y-95375000D01*
X75713000Y-95416000D01*
X75703000Y-95457000D01*
X75691000Y-95497000D01*
X75677000Y-95537000D01*
X75661000Y-95575000D01*
X75643000Y-95613000D01*
X75623000Y-95650000D01*
X75601000Y-95686000D01*
X75577000Y-95720000D01*
X75552000Y-95753000D01*
X75525000Y-95785000D01*
X75496000Y-95816000D01*
X75465000Y-95845000D01*
X75433000Y-95872000D01*
X75400000Y-95897000D01*
X75366000Y-95921000D01*
X75330000Y-95943000D01*
X75293000Y-95963000D01*
X75255000Y-95981000D01*
X75217000Y-95997000D01*
X75177000Y-96011000D01*
X75137000Y-96023000D01*
X75096000Y-96033000D01*
X75055000Y-96040000D01*
X75014000Y-96046000D01*
X74972000Y-96049000D01*
X74930000Y-96050000D01*
X72530000Y-96050000D01*
X72530000Y-94450000D01*
X74930000Y-94450000D01*
X74972000Y-94451000D01*
G36*
X74972000Y-94451000D02*
G01*
X75014000Y-94454000D01*
X75055000Y-94460000D01*
X75096000Y-94467000D01*
X75137000Y-94477000D01*
X75177000Y-94489000D01*
X75217000Y-94503000D01*
X75255000Y-94519000D01*
X75293000Y-94537000D01*
X75330000Y-94557000D01*
X75366000Y-94579000D01*
X75400000Y-94603000D01*
X75433000Y-94628000D01*
X75465000Y-94655000D01*
X75496000Y-94684000D01*
X75525000Y-94715000D01*
X75552000Y-94747000D01*
X75577000Y-94780000D01*
X75601000Y-94814000D01*
X75623000Y-94850000D01*
X75643000Y-94887000D01*
X75661000Y-94925000D01*
X75677000Y-94963000D01*
X75691000Y-95003000D01*
X75703000Y-95043000D01*
X75713000Y-95084000D01*
X75720000Y-95125000D01*
X75726000Y-95166000D01*
X75729000Y-95208000D01*
X75730000Y-95250000D01*
X75729000Y-95292000D01*
X75726000Y-95334000D01*
X75720000Y-95375000D01*
X75713000Y-95416000D01*
X75703000Y-95457000D01*
X75691000Y-95497000D01*
X75677000Y-95537000D01*
X75661000Y-95575000D01*
X75643000Y-95613000D01*
X75623000Y-95650000D01*
X75601000Y-95686000D01*
X75577000Y-95720000D01*
X75552000Y-95753000D01*
X75525000Y-95785000D01*
X75496000Y-95816000D01*
X75465000Y-95845000D01*
X75433000Y-95872000D01*
X75400000Y-95897000D01*
X75366000Y-95921000D01*
X75330000Y-95943000D01*
X75293000Y-95963000D01*
X75255000Y-95981000D01*
X75217000Y-95997000D01*
X75177000Y-96011000D01*
X75137000Y-96023000D01*
X75096000Y-96033000D01*
X75055000Y-96040000D01*
X75014000Y-96046000D01*
X74972000Y-96049000D01*
X74930000Y-96050000D01*
X72530000Y-96050000D01*
X72530000Y-94450000D01*
X74930000Y-94450000D01*
X74972000Y-94451000D01*
G37*
X95110000Y-47790000D02*
X92710000Y-47790000D01*
X92668000Y-47789000D01*
X92626000Y-47786000D01*
X92585000Y-47780000D01*
X92544000Y-47773000D01*
X92503000Y-47763000D01*
X92463000Y-47751000D01*
X92423000Y-47737000D01*
X92385000Y-47721000D01*
X92347000Y-47703000D01*
X92310000Y-47683000D01*
X92274000Y-47661000D01*
X92240000Y-47637000D01*
X92207000Y-47612000D01*
X92175000Y-47585000D01*
X92144000Y-47556000D01*
X92115000Y-47525000D01*
X92088000Y-47493000D01*
X92063000Y-47460000D01*
X92039000Y-47426000D01*
X92017000Y-47390000D01*
X91997000Y-47353000D01*
X91979000Y-47315000D01*
X91963000Y-47277000D01*
X91949000Y-47237000D01*
X91937000Y-47197000D01*
X91927000Y-47156000D01*
X91920000Y-47115000D01*
X91914000Y-47074000D01*
X91911000Y-47032000D01*
X91910000Y-46990000D01*
X91911000Y-46948000D01*
X91914000Y-46906000D01*
X91920000Y-46865000D01*
X91927000Y-46824000D01*
X91937000Y-46783000D01*
X91949000Y-46743000D01*
X91963000Y-46703000D01*
X91979000Y-46665000D01*
X91997000Y-46627000D01*
X92017000Y-46590000D01*
X92039000Y-46554000D01*
X92063000Y-46520000D01*
X92088000Y-46487000D01*
X92115000Y-46455000D01*
X92144000Y-46424000D01*
X92175000Y-46395000D01*
X92207000Y-46368000D01*
X92240000Y-46343000D01*
X92274000Y-46319000D01*
X92310000Y-46297000D01*
X92347000Y-46277000D01*
X92385000Y-46259000D01*
X92423000Y-46243000D01*
X92463000Y-46229000D01*
X92503000Y-46217000D01*
X92544000Y-46207000D01*
X92585000Y-46200000D01*
X92626000Y-46194000D01*
X92668000Y-46191000D01*
X92710000Y-46190000D01*
X95110000Y-46190000D01*
X95110000Y-47790000D01*
G36*
X95110000Y-47790000D02*
G01*
X92710000Y-47790000D01*
X92668000Y-47789000D01*
X92626000Y-47786000D01*
X92585000Y-47780000D01*
X92544000Y-47773000D01*
X92503000Y-47763000D01*
X92463000Y-47751000D01*
X92423000Y-47737000D01*
X92385000Y-47721000D01*
X92347000Y-47703000D01*
X92310000Y-47683000D01*
X92274000Y-47661000D01*
X92240000Y-47637000D01*
X92207000Y-47612000D01*
X92175000Y-47585000D01*
X92144000Y-47556000D01*
X92115000Y-47525000D01*
X92088000Y-47493000D01*
X92063000Y-47460000D01*
X92039000Y-47426000D01*
X92017000Y-47390000D01*
X91997000Y-47353000D01*
X91979000Y-47315000D01*
X91963000Y-47277000D01*
X91949000Y-47237000D01*
X91937000Y-47197000D01*
X91927000Y-47156000D01*
X91920000Y-47115000D01*
X91914000Y-47074000D01*
X91911000Y-47032000D01*
X91910000Y-46990000D01*
X91911000Y-46948000D01*
X91914000Y-46906000D01*
X91920000Y-46865000D01*
X91927000Y-46824000D01*
X91937000Y-46783000D01*
X91949000Y-46743000D01*
X91963000Y-46703000D01*
X91979000Y-46665000D01*
X91997000Y-46627000D01*
X92017000Y-46590000D01*
X92039000Y-46554000D01*
X92063000Y-46520000D01*
X92088000Y-46487000D01*
X92115000Y-46455000D01*
X92144000Y-46424000D01*
X92175000Y-46395000D01*
X92207000Y-46368000D01*
X92240000Y-46343000D01*
X92274000Y-46319000D01*
X92310000Y-46297000D01*
X92347000Y-46277000D01*
X92385000Y-46259000D01*
X92423000Y-46243000D01*
X92463000Y-46229000D01*
X92503000Y-46217000D01*
X92544000Y-46207000D01*
X92585000Y-46200000D01*
X92626000Y-46194000D01*
X92668000Y-46191000D01*
X92710000Y-46190000D01*
X95110000Y-46190000D01*
X95110000Y-47790000D01*
G37*
X95110000Y-50330000D02*
X92710000Y-50330000D01*
X92668000Y-50329000D01*
X92626000Y-50326000D01*
X92585000Y-50320000D01*
X92544000Y-50313000D01*
X92503000Y-50303000D01*
X92463000Y-50291000D01*
X92423000Y-50277000D01*
X92385000Y-50261000D01*
X92347000Y-50243000D01*
X92310000Y-50223000D01*
X92274000Y-50201000D01*
X92240000Y-50177000D01*
X92207000Y-50152000D01*
X92175000Y-50125000D01*
X92144000Y-50096000D01*
X92115000Y-50065000D01*
X92088000Y-50033000D01*
X92063000Y-50000000D01*
X92039000Y-49966000D01*
X92017000Y-49930000D01*
X91997000Y-49893000D01*
X91979000Y-49855000D01*
X91963000Y-49817000D01*
X91949000Y-49777000D01*
X91937000Y-49737000D01*
X91927000Y-49696000D01*
X91920000Y-49655000D01*
X91914000Y-49614000D01*
X91911000Y-49572000D01*
X91910000Y-49530000D01*
X91911000Y-49488000D01*
X91914000Y-49446000D01*
X91920000Y-49405000D01*
X91927000Y-49364000D01*
X91937000Y-49323000D01*
X91949000Y-49283000D01*
X91963000Y-49243000D01*
X91979000Y-49205000D01*
X91997000Y-49167000D01*
X92017000Y-49130000D01*
X92039000Y-49094000D01*
X92063000Y-49060000D01*
X92088000Y-49027000D01*
X92115000Y-48995000D01*
X92144000Y-48964000D01*
X92175000Y-48935000D01*
X92207000Y-48908000D01*
X92240000Y-48883000D01*
X92274000Y-48859000D01*
X92310000Y-48837000D01*
X92347000Y-48817000D01*
X92385000Y-48799000D01*
X92423000Y-48783000D01*
X92463000Y-48769000D01*
X92503000Y-48757000D01*
X92544000Y-48747000D01*
X92585000Y-48740000D01*
X92626000Y-48734000D01*
X92668000Y-48731000D01*
X92710000Y-48730000D01*
X95110000Y-48730000D01*
X95110000Y-50330000D01*
G36*
X95110000Y-50330000D02*
G01*
X92710000Y-50330000D01*
X92668000Y-50329000D01*
X92626000Y-50326000D01*
X92585000Y-50320000D01*
X92544000Y-50313000D01*
X92503000Y-50303000D01*
X92463000Y-50291000D01*
X92423000Y-50277000D01*
X92385000Y-50261000D01*
X92347000Y-50243000D01*
X92310000Y-50223000D01*
X92274000Y-50201000D01*
X92240000Y-50177000D01*
X92207000Y-50152000D01*
X92175000Y-50125000D01*
X92144000Y-50096000D01*
X92115000Y-50065000D01*
X92088000Y-50033000D01*
X92063000Y-50000000D01*
X92039000Y-49966000D01*
X92017000Y-49930000D01*
X91997000Y-49893000D01*
X91979000Y-49855000D01*
X91963000Y-49817000D01*
X91949000Y-49777000D01*
X91937000Y-49737000D01*
X91927000Y-49696000D01*
X91920000Y-49655000D01*
X91914000Y-49614000D01*
X91911000Y-49572000D01*
X91910000Y-49530000D01*
X91911000Y-49488000D01*
X91914000Y-49446000D01*
X91920000Y-49405000D01*
X91927000Y-49364000D01*
X91937000Y-49323000D01*
X91949000Y-49283000D01*
X91963000Y-49243000D01*
X91979000Y-49205000D01*
X91997000Y-49167000D01*
X92017000Y-49130000D01*
X92039000Y-49094000D01*
X92063000Y-49060000D01*
X92088000Y-49027000D01*
X92115000Y-48995000D01*
X92144000Y-48964000D01*
X92175000Y-48935000D01*
X92207000Y-48908000D01*
X92240000Y-48883000D01*
X92274000Y-48859000D01*
X92310000Y-48837000D01*
X92347000Y-48817000D01*
X92385000Y-48799000D01*
X92423000Y-48783000D01*
X92463000Y-48769000D01*
X92503000Y-48757000D01*
X92544000Y-48747000D01*
X92585000Y-48740000D01*
X92626000Y-48734000D01*
X92668000Y-48731000D01*
X92710000Y-48730000D01*
X95110000Y-48730000D01*
X95110000Y-50330000D01*
G37*
X95110000Y-55410000D02*
X92710000Y-55410000D01*
X92668000Y-55409000D01*
X92626000Y-55406000D01*
X92585000Y-55400000D01*
X92544000Y-55393000D01*
X92503000Y-55383000D01*
X92463000Y-55371000D01*
X92423000Y-55357000D01*
X92385000Y-55341000D01*
X92347000Y-55323000D01*
X92310000Y-55303000D01*
X92274000Y-55281000D01*
X92240000Y-55257000D01*
X92207000Y-55232000D01*
X92175000Y-55205000D01*
X92144000Y-55176000D01*
X92115000Y-55145000D01*
X92088000Y-55113000D01*
X92063000Y-55080000D01*
X92039000Y-55046000D01*
X92017000Y-55010000D01*
X91997000Y-54973000D01*
X91979000Y-54935000D01*
X91963000Y-54897000D01*
X91949000Y-54857000D01*
X91937000Y-54817000D01*
X91927000Y-54776000D01*
X91920000Y-54735000D01*
X91914000Y-54694000D01*
X91911000Y-54652000D01*
X91910000Y-54610000D01*
X91911000Y-54568000D01*
X91914000Y-54526000D01*
X91920000Y-54485000D01*
X91927000Y-54444000D01*
X91937000Y-54403000D01*
X91949000Y-54363000D01*
X91963000Y-54323000D01*
X91979000Y-54285000D01*
X91997000Y-54247000D01*
X92017000Y-54210000D01*
X92039000Y-54174000D01*
X92063000Y-54140000D01*
X92088000Y-54107000D01*
X92115000Y-54075000D01*
X92144000Y-54044000D01*
X92175000Y-54015000D01*
X92207000Y-53988000D01*
X92240000Y-53963000D01*
X92274000Y-53939000D01*
X92310000Y-53917000D01*
X92347000Y-53897000D01*
X92385000Y-53879000D01*
X92423000Y-53863000D01*
X92463000Y-53849000D01*
X92503000Y-53837000D01*
X92544000Y-53827000D01*
X92585000Y-53820000D01*
X92626000Y-53814000D01*
X92668000Y-53811000D01*
X92710000Y-53810000D01*
X95110000Y-53810000D01*
X95110000Y-55410000D01*
G36*
X95110000Y-55410000D02*
G01*
X92710000Y-55410000D01*
X92668000Y-55409000D01*
X92626000Y-55406000D01*
X92585000Y-55400000D01*
X92544000Y-55393000D01*
X92503000Y-55383000D01*
X92463000Y-55371000D01*
X92423000Y-55357000D01*
X92385000Y-55341000D01*
X92347000Y-55323000D01*
X92310000Y-55303000D01*
X92274000Y-55281000D01*
X92240000Y-55257000D01*
X92207000Y-55232000D01*
X92175000Y-55205000D01*
X92144000Y-55176000D01*
X92115000Y-55145000D01*
X92088000Y-55113000D01*
X92063000Y-55080000D01*
X92039000Y-55046000D01*
X92017000Y-55010000D01*
X91997000Y-54973000D01*
X91979000Y-54935000D01*
X91963000Y-54897000D01*
X91949000Y-54857000D01*
X91937000Y-54817000D01*
X91927000Y-54776000D01*
X91920000Y-54735000D01*
X91914000Y-54694000D01*
X91911000Y-54652000D01*
X91910000Y-54610000D01*
X91911000Y-54568000D01*
X91914000Y-54526000D01*
X91920000Y-54485000D01*
X91927000Y-54444000D01*
X91937000Y-54403000D01*
X91949000Y-54363000D01*
X91963000Y-54323000D01*
X91979000Y-54285000D01*
X91997000Y-54247000D01*
X92017000Y-54210000D01*
X92039000Y-54174000D01*
X92063000Y-54140000D01*
X92088000Y-54107000D01*
X92115000Y-54075000D01*
X92144000Y-54044000D01*
X92175000Y-54015000D01*
X92207000Y-53988000D01*
X92240000Y-53963000D01*
X92274000Y-53939000D01*
X92310000Y-53917000D01*
X92347000Y-53897000D01*
X92385000Y-53879000D01*
X92423000Y-53863000D01*
X92463000Y-53849000D01*
X92503000Y-53837000D01*
X92544000Y-53827000D01*
X92585000Y-53820000D01*
X92626000Y-53814000D01*
X92668000Y-53811000D01*
X92710000Y-53810000D01*
X95110000Y-53810000D01*
X95110000Y-55410000D01*
G37*
X95110000Y-57950000D02*
X92710000Y-57950000D01*
X92668000Y-57949000D01*
X92626000Y-57946000D01*
X92585000Y-57940000D01*
X92544000Y-57933000D01*
X92503000Y-57923000D01*
X92463000Y-57911000D01*
X92423000Y-57897000D01*
X92385000Y-57881000D01*
X92347000Y-57863000D01*
X92310000Y-57843000D01*
X92274000Y-57821000D01*
X92240000Y-57797000D01*
X92207000Y-57772000D01*
X92175000Y-57745000D01*
X92144000Y-57716000D01*
X92115000Y-57685000D01*
X92088000Y-57653000D01*
X92063000Y-57620000D01*
X92039000Y-57586000D01*
X92017000Y-57550000D01*
X91997000Y-57513000D01*
X91979000Y-57475000D01*
X91963000Y-57437000D01*
X91949000Y-57397000D01*
X91937000Y-57357000D01*
X91927000Y-57316000D01*
X91920000Y-57275000D01*
X91914000Y-57234000D01*
X91911000Y-57192000D01*
X91910000Y-57150000D01*
X91911000Y-57108000D01*
X91914000Y-57066000D01*
X91920000Y-57025000D01*
X91927000Y-56984000D01*
X91937000Y-56943000D01*
X91949000Y-56903000D01*
X91963000Y-56863000D01*
X91979000Y-56825000D01*
X91997000Y-56787000D01*
X92017000Y-56750000D01*
X92039000Y-56714000D01*
X92063000Y-56680000D01*
X92088000Y-56647000D01*
X92115000Y-56615000D01*
X92144000Y-56584000D01*
X92175000Y-56555000D01*
X92207000Y-56528000D01*
X92240000Y-56503000D01*
X92274000Y-56479000D01*
X92310000Y-56457000D01*
X92347000Y-56437000D01*
X92385000Y-56419000D01*
X92423000Y-56403000D01*
X92463000Y-56389000D01*
X92503000Y-56377000D01*
X92544000Y-56367000D01*
X92585000Y-56360000D01*
X92626000Y-56354000D01*
X92668000Y-56351000D01*
X92710000Y-56350000D01*
X95110000Y-56350000D01*
X95110000Y-57950000D01*
G36*
X95110000Y-57950000D02*
G01*
X92710000Y-57950000D01*
X92668000Y-57949000D01*
X92626000Y-57946000D01*
X92585000Y-57940000D01*
X92544000Y-57933000D01*
X92503000Y-57923000D01*
X92463000Y-57911000D01*
X92423000Y-57897000D01*
X92385000Y-57881000D01*
X92347000Y-57863000D01*
X92310000Y-57843000D01*
X92274000Y-57821000D01*
X92240000Y-57797000D01*
X92207000Y-57772000D01*
X92175000Y-57745000D01*
X92144000Y-57716000D01*
X92115000Y-57685000D01*
X92088000Y-57653000D01*
X92063000Y-57620000D01*
X92039000Y-57586000D01*
X92017000Y-57550000D01*
X91997000Y-57513000D01*
X91979000Y-57475000D01*
X91963000Y-57437000D01*
X91949000Y-57397000D01*
X91937000Y-57357000D01*
X91927000Y-57316000D01*
X91920000Y-57275000D01*
X91914000Y-57234000D01*
X91911000Y-57192000D01*
X91910000Y-57150000D01*
X91911000Y-57108000D01*
X91914000Y-57066000D01*
X91920000Y-57025000D01*
X91927000Y-56984000D01*
X91937000Y-56943000D01*
X91949000Y-56903000D01*
X91963000Y-56863000D01*
X91979000Y-56825000D01*
X91997000Y-56787000D01*
X92017000Y-56750000D01*
X92039000Y-56714000D01*
X92063000Y-56680000D01*
X92088000Y-56647000D01*
X92115000Y-56615000D01*
X92144000Y-56584000D01*
X92175000Y-56555000D01*
X92207000Y-56528000D01*
X92240000Y-56503000D01*
X92274000Y-56479000D01*
X92310000Y-56457000D01*
X92347000Y-56437000D01*
X92385000Y-56419000D01*
X92423000Y-56403000D01*
X92463000Y-56389000D01*
X92503000Y-56377000D01*
X92544000Y-56367000D01*
X92585000Y-56360000D01*
X92626000Y-56354000D01*
X92668000Y-56351000D01*
X92710000Y-56350000D01*
X95110000Y-56350000D01*
X95110000Y-57950000D01*
G37*
X95110000Y-60490000D02*
X92710000Y-60490000D01*
X92668000Y-60489000D01*
X92626000Y-60486000D01*
X92585000Y-60480000D01*
X92544000Y-60473000D01*
X92503000Y-60463000D01*
X92463000Y-60451000D01*
X92423000Y-60437000D01*
X92385000Y-60421000D01*
X92347000Y-60403000D01*
X92310000Y-60383000D01*
X92274000Y-60361000D01*
X92240000Y-60337000D01*
X92207000Y-60312000D01*
X92175000Y-60285000D01*
X92144000Y-60256000D01*
X92115000Y-60225000D01*
X92088000Y-60193000D01*
X92063000Y-60160000D01*
X92039000Y-60126000D01*
X92017000Y-60090000D01*
X91997000Y-60053000D01*
X91979000Y-60015000D01*
X91963000Y-59977000D01*
X91949000Y-59937000D01*
X91937000Y-59897000D01*
X91927000Y-59856000D01*
X91920000Y-59815000D01*
X91914000Y-59774000D01*
X91911000Y-59732000D01*
X91910000Y-59690000D01*
X91911000Y-59648000D01*
X91914000Y-59606000D01*
X91920000Y-59565000D01*
X91927000Y-59524000D01*
X91937000Y-59483000D01*
X91949000Y-59443000D01*
X91963000Y-59403000D01*
X91979000Y-59365000D01*
X91997000Y-59327000D01*
X92017000Y-59290000D01*
X92039000Y-59254000D01*
X92063000Y-59220000D01*
X92088000Y-59187000D01*
X92115000Y-59155000D01*
X92144000Y-59124000D01*
X92175000Y-59095000D01*
X92207000Y-59068000D01*
X92240000Y-59043000D01*
X92274000Y-59019000D01*
X92310000Y-58997000D01*
X92347000Y-58977000D01*
X92385000Y-58959000D01*
X92423000Y-58943000D01*
X92463000Y-58929000D01*
X92503000Y-58917000D01*
X92544000Y-58907000D01*
X92585000Y-58900000D01*
X92626000Y-58894000D01*
X92668000Y-58891000D01*
X92710000Y-58890000D01*
X95110000Y-58890000D01*
X95110000Y-60490000D01*
G36*
X95110000Y-60490000D02*
G01*
X92710000Y-60490000D01*
X92668000Y-60489000D01*
X92626000Y-60486000D01*
X92585000Y-60480000D01*
X92544000Y-60473000D01*
X92503000Y-60463000D01*
X92463000Y-60451000D01*
X92423000Y-60437000D01*
X92385000Y-60421000D01*
X92347000Y-60403000D01*
X92310000Y-60383000D01*
X92274000Y-60361000D01*
X92240000Y-60337000D01*
X92207000Y-60312000D01*
X92175000Y-60285000D01*
X92144000Y-60256000D01*
X92115000Y-60225000D01*
X92088000Y-60193000D01*
X92063000Y-60160000D01*
X92039000Y-60126000D01*
X92017000Y-60090000D01*
X91997000Y-60053000D01*
X91979000Y-60015000D01*
X91963000Y-59977000D01*
X91949000Y-59937000D01*
X91937000Y-59897000D01*
X91927000Y-59856000D01*
X91920000Y-59815000D01*
X91914000Y-59774000D01*
X91911000Y-59732000D01*
X91910000Y-59690000D01*
X91911000Y-59648000D01*
X91914000Y-59606000D01*
X91920000Y-59565000D01*
X91927000Y-59524000D01*
X91937000Y-59483000D01*
X91949000Y-59443000D01*
X91963000Y-59403000D01*
X91979000Y-59365000D01*
X91997000Y-59327000D01*
X92017000Y-59290000D01*
X92039000Y-59254000D01*
X92063000Y-59220000D01*
X92088000Y-59187000D01*
X92115000Y-59155000D01*
X92144000Y-59124000D01*
X92175000Y-59095000D01*
X92207000Y-59068000D01*
X92240000Y-59043000D01*
X92274000Y-59019000D01*
X92310000Y-58997000D01*
X92347000Y-58977000D01*
X92385000Y-58959000D01*
X92423000Y-58943000D01*
X92463000Y-58929000D01*
X92503000Y-58917000D01*
X92544000Y-58907000D01*
X92585000Y-58900000D01*
X92626000Y-58894000D01*
X92668000Y-58891000D01*
X92710000Y-58890000D01*
X95110000Y-58890000D01*
X95110000Y-60490000D01*
G37*
X95110000Y-63030000D02*
X92710000Y-63030000D01*
X92668000Y-63029000D01*
X92626000Y-63026000D01*
X92585000Y-63020000D01*
X92544000Y-63013000D01*
X92503000Y-63003000D01*
X92463000Y-62991000D01*
X92423000Y-62977000D01*
X92385000Y-62961000D01*
X92347000Y-62943000D01*
X92310000Y-62923000D01*
X92274000Y-62901000D01*
X92240000Y-62877000D01*
X92207000Y-62852000D01*
X92175000Y-62825000D01*
X92144000Y-62796000D01*
X92115000Y-62765000D01*
X92088000Y-62733000D01*
X92063000Y-62700000D01*
X92039000Y-62666000D01*
X92017000Y-62630000D01*
X91997000Y-62593000D01*
X91979000Y-62555000D01*
X91963000Y-62517000D01*
X91949000Y-62477000D01*
X91937000Y-62437000D01*
X91927000Y-62396000D01*
X91920000Y-62355000D01*
X91914000Y-62314000D01*
X91911000Y-62272000D01*
X91910000Y-62230000D01*
X91911000Y-62188000D01*
X91914000Y-62146000D01*
X91920000Y-62105000D01*
X91927000Y-62064000D01*
X91937000Y-62023000D01*
X91949000Y-61983000D01*
X91963000Y-61943000D01*
X91979000Y-61905000D01*
X91997000Y-61867000D01*
X92017000Y-61830000D01*
X92039000Y-61794000D01*
X92063000Y-61760000D01*
X92088000Y-61727000D01*
X92115000Y-61695000D01*
X92144000Y-61664000D01*
X92175000Y-61635000D01*
X92207000Y-61608000D01*
X92240000Y-61583000D01*
X92274000Y-61559000D01*
X92310000Y-61537000D01*
X92347000Y-61517000D01*
X92385000Y-61499000D01*
X92423000Y-61483000D01*
X92463000Y-61469000D01*
X92503000Y-61457000D01*
X92544000Y-61447000D01*
X92585000Y-61440000D01*
X92626000Y-61434000D01*
X92668000Y-61431000D01*
X92710000Y-61430000D01*
X95110000Y-61430000D01*
X95110000Y-63030000D01*
G36*
X95110000Y-63030000D02*
G01*
X92710000Y-63030000D01*
X92668000Y-63029000D01*
X92626000Y-63026000D01*
X92585000Y-63020000D01*
X92544000Y-63013000D01*
X92503000Y-63003000D01*
X92463000Y-62991000D01*
X92423000Y-62977000D01*
X92385000Y-62961000D01*
X92347000Y-62943000D01*
X92310000Y-62923000D01*
X92274000Y-62901000D01*
X92240000Y-62877000D01*
X92207000Y-62852000D01*
X92175000Y-62825000D01*
X92144000Y-62796000D01*
X92115000Y-62765000D01*
X92088000Y-62733000D01*
X92063000Y-62700000D01*
X92039000Y-62666000D01*
X92017000Y-62630000D01*
X91997000Y-62593000D01*
X91979000Y-62555000D01*
X91963000Y-62517000D01*
X91949000Y-62477000D01*
X91937000Y-62437000D01*
X91927000Y-62396000D01*
X91920000Y-62355000D01*
X91914000Y-62314000D01*
X91911000Y-62272000D01*
X91910000Y-62230000D01*
X91911000Y-62188000D01*
X91914000Y-62146000D01*
X91920000Y-62105000D01*
X91927000Y-62064000D01*
X91937000Y-62023000D01*
X91949000Y-61983000D01*
X91963000Y-61943000D01*
X91979000Y-61905000D01*
X91997000Y-61867000D01*
X92017000Y-61830000D01*
X92039000Y-61794000D01*
X92063000Y-61760000D01*
X92088000Y-61727000D01*
X92115000Y-61695000D01*
X92144000Y-61664000D01*
X92175000Y-61635000D01*
X92207000Y-61608000D01*
X92240000Y-61583000D01*
X92274000Y-61559000D01*
X92310000Y-61537000D01*
X92347000Y-61517000D01*
X92385000Y-61499000D01*
X92423000Y-61483000D01*
X92463000Y-61469000D01*
X92503000Y-61457000D01*
X92544000Y-61447000D01*
X92585000Y-61440000D01*
X92626000Y-61434000D01*
X92668000Y-61431000D01*
X92710000Y-61430000D01*
X95110000Y-61430000D01*
X95110000Y-63030000D01*
G37*
X95110000Y-68110000D02*
X92710000Y-68110000D01*
X92668000Y-68109000D01*
X92626000Y-68106000D01*
X92585000Y-68100000D01*
X92544000Y-68093000D01*
X92503000Y-68083000D01*
X92463000Y-68071000D01*
X92423000Y-68057000D01*
X92385000Y-68041000D01*
X92347000Y-68023000D01*
X92310000Y-68003000D01*
X92274000Y-67981000D01*
X92240000Y-67957000D01*
X92207000Y-67932000D01*
X92175000Y-67905000D01*
X92144000Y-67876000D01*
X92115000Y-67845000D01*
X92088000Y-67813000D01*
X92063000Y-67780000D01*
X92039000Y-67746000D01*
X92017000Y-67710000D01*
X91997000Y-67673000D01*
X91979000Y-67635000D01*
X91963000Y-67597000D01*
X91949000Y-67557000D01*
X91937000Y-67517000D01*
X91927000Y-67476000D01*
X91920000Y-67435000D01*
X91914000Y-67394000D01*
X91911000Y-67352000D01*
X91910000Y-67310000D01*
X91911000Y-67268000D01*
X91914000Y-67226000D01*
X91920000Y-67185000D01*
X91927000Y-67144000D01*
X91937000Y-67103000D01*
X91949000Y-67063000D01*
X91963000Y-67023000D01*
X91979000Y-66985000D01*
X91997000Y-66947000D01*
X92017000Y-66910000D01*
X92039000Y-66874000D01*
X92063000Y-66840000D01*
X92088000Y-66807000D01*
X92115000Y-66775000D01*
X92144000Y-66744000D01*
X92175000Y-66715000D01*
X92207000Y-66688000D01*
X92240000Y-66663000D01*
X92274000Y-66639000D01*
X92310000Y-66617000D01*
X92347000Y-66597000D01*
X92385000Y-66579000D01*
X92423000Y-66563000D01*
X92463000Y-66549000D01*
X92503000Y-66537000D01*
X92544000Y-66527000D01*
X92585000Y-66520000D01*
X92626000Y-66514000D01*
X92668000Y-66511000D01*
X92710000Y-66510000D01*
X95110000Y-66510000D01*
X95110000Y-68110000D01*
G36*
X95110000Y-68110000D02*
G01*
X92710000Y-68110000D01*
X92668000Y-68109000D01*
X92626000Y-68106000D01*
X92585000Y-68100000D01*
X92544000Y-68093000D01*
X92503000Y-68083000D01*
X92463000Y-68071000D01*
X92423000Y-68057000D01*
X92385000Y-68041000D01*
X92347000Y-68023000D01*
X92310000Y-68003000D01*
X92274000Y-67981000D01*
X92240000Y-67957000D01*
X92207000Y-67932000D01*
X92175000Y-67905000D01*
X92144000Y-67876000D01*
X92115000Y-67845000D01*
X92088000Y-67813000D01*
X92063000Y-67780000D01*
X92039000Y-67746000D01*
X92017000Y-67710000D01*
X91997000Y-67673000D01*
X91979000Y-67635000D01*
X91963000Y-67597000D01*
X91949000Y-67557000D01*
X91937000Y-67517000D01*
X91927000Y-67476000D01*
X91920000Y-67435000D01*
X91914000Y-67394000D01*
X91911000Y-67352000D01*
X91910000Y-67310000D01*
X91911000Y-67268000D01*
X91914000Y-67226000D01*
X91920000Y-67185000D01*
X91927000Y-67144000D01*
X91937000Y-67103000D01*
X91949000Y-67063000D01*
X91963000Y-67023000D01*
X91979000Y-66985000D01*
X91997000Y-66947000D01*
X92017000Y-66910000D01*
X92039000Y-66874000D01*
X92063000Y-66840000D01*
X92088000Y-66807000D01*
X92115000Y-66775000D01*
X92144000Y-66744000D01*
X92175000Y-66715000D01*
X92207000Y-66688000D01*
X92240000Y-66663000D01*
X92274000Y-66639000D01*
X92310000Y-66617000D01*
X92347000Y-66597000D01*
X92385000Y-66579000D01*
X92423000Y-66563000D01*
X92463000Y-66549000D01*
X92503000Y-66537000D01*
X92544000Y-66527000D01*
X92585000Y-66520000D01*
X92626000Y-66514000D01*
X92668000Y-66511000D01*
X92710000Y-66510000D01*
X95110000Y-66510000D01*
X95110000Y-68110000D01*
G37*
X95110000Y-70650000D02*
X92710000Y-70650000D01*
X92668000Y-70649000D01*
X92626000Y-70646000D01*
X92585000Y-70640000D01*
X92544000Y-70633000D01*
X92503000Y-70623000D01*
X92463000Y-70611000D01*
X92423000Y-70597000D01*
X92385000Y-70581000D01*
X92347000Y-70563000D01*
X92310000Y-70543000D01*
X92274000Y-70521000D01*
X92240000Y-70497000D01*
X92207000Y-70472000D01*
X92175000Y-70445000D01*
X92144000Y-70416000D01*
X92115000Y-70385000D01*
X92088000Y-70353000D01*
X92063000Y-70320000D01*
X92039000Y-70286000D01*
X92017000Y-70250000D01*
X91997000Y-70213000D01*
X91979000Y-70175000D01*
X91963000Y-70137000D01*
X91949000Y-70097000D01*
X91937000Y-70057000D01*
X91927000Y-70016000D01*
X91920000Y-69975000D01*
X91914000Y-69934000D01*
X91911000Y-69892000D01*
X91910000Y-69850000D01*
X91911000Y-69808000D01*
X91914000Y-69766000D01*
X91920000Y-69725000D01*
X91927000Y-69684000D01*
X91937000Y-69643000D01*
X91949000Y-69603000D01*
X91963000Y-69563000D01*
X91979000Y-69525000D01*
X91997000Y-69487000D01*
X92017000Y-69450000D01*
X92039000Y-69414000D01*
X92063000Y-69380000D01*
X92088000Y-69347000D01*
X92115000Y-69315000D01*
X92144000Y-69284000D01*
X92175000Y-69255000D01*
X92207000Y-69228000D01*
X92240000Y-69203000D01*
X92274000Y-69179000D01*
X92310000Y-69157000D01*
X92347000Y-69137000D01*
X92385000Y-69119000D01*
X92423000Y-69103000D01*
X92463000Y-69089000D01*
X92503000Y-69077000D01*
X92544000Y-69067000D01*
X92585000Y-69060000D01*
X92626000Y-69054000D01*
X92668000Y-69051000D01*
X92710000Y-69050000D01*
X95110000Y-69050000D01*
X95110000Y-70650000D01*
G36*
X95110000Y-70650000D02*
G01*
X92710000Y-70650000D01*
X92668000Y-70649000D01*
X92626000Y-70646000D01*
X92585000Y-70640000D01*
X92544000Y-70633000D01*
X92503000Y-70623000D01*
X92463000Y-70611000D01*
X92423000Y-70597000D01*
X92385000Y-70581000D01*
X92347000Y-70563000D01*
X92310000Y-70543000D01*
X92274000Y-70521000D01*
X92240000Y-70497000D01*
X92207000Y-70472000D01*
X92175000Y-70445000D01*
X92144000Y-70416000D01*
X92115000Y-70385000D01*
X92088000Y-70353000D01*
X92063000Y-70320000D01*
X92039000Y-70286000D01*
X92017000Y-70250000D01*
X91997000Y-70213000D01*
X91979000Y-70175000D01*
X91963000Y-70137000D01*
X91949000Y-70097000D01*
X91937000Y-70057000D01*
X91927000Y-70016000D01*
X91920000Y-69975000D01*
X91914000Y-69934000D01*
X91911000Y-69892000D01*
X91910000Y-69850000D01*
X91911000Y-69808000D01*
X91914000Y-69766000D01*
X91920000Y-69725000D01*
X91927000Y-69684000D01*
X91937000Y-69643000D01*
X91949000Y-69603000D01*
X91963000Y-69563000D01*
X91979000Y-69525000D01*
X91997000Y-69487000D01*
X92017000Y-69450000D01*
X92039000Y-69414000D01*
X92063000Y-69380000D01*
X92088000Y-69347000D01*
X92115000Y-69315000D01*
X92144000Y-69284000D01*
X92175000Y-69255000D01*
X92207000Y-69228000D01*
X92240000Y-69203000D01*
X92274000Y-69179000D01*
X92310000Y-69157000D01*
X92347000Y-69137000D01*
X92385000Y-69119000D01*
X92423000Y-69103000D01*
X92463000Y-69089000D01*
X92503000Y-69077000D01*
X92544000Y-69067000D01*
X92585000Y-69060000D01*
X92626000Y-69054000D01*
X92668000Y-69051000D01*
X92710000Y-69050000D01*
X95110000Y-69050000D01*
X95110000Y-70650000D01*
G37*
X95110000Y-73190000D02*
X92710000Y-73190000D01*
X92668000Y-73189000D01*
X92626000Y-73186000D01*
X92585000Y-73180000D01*
X92544000Y-73173000D01*
X92503000Y-73163000D01*
X92463000Y-73151000D01*
X92423000Y-73137000D01*
X92385000Y-73121000D01*
X92347000Y-73103000D01*
X92310000Y-73083000D01*
X92274000Y-73061000D01*
X92240000Y-73037000D01*
X92207000Y-73012000D01*
X92175000Y-72985000D01*
X92144000Y-72956000D01*
X92115000Y-72925000D01*
X92088000Y-72893000D01*
X92063000Y-72860000D01*
X92039000Y-72826000D01*
X92017000Y-72790000D01*
X91997000Y-72753000D01*
X91979000Y-72715000D01*
X91963000Y-72677000D01*
X91949000Y-72637000D01*
X91937000Y-72597000D01*
X91927000Y-72556000D01*
X91920000Y-72515000D01*
X91914000Y-72474000D01*
X91911000Y-72432000D01*
X91910000Y-72390000D01*
X91911000Y-72348000D01*
X91914000Y-72306000D01*
X91920000Y-72265000D01*
X91927000Y-72224000D01*
X91937000Y-72183000D01*
X91949000Y-72143000D01*
X91963000Y-72103000D01*
X91979000Y-72065000D01*
X91997000Y-72027000D01*
X92017000Y-71990000D01*
X92039000Y-71954000D01*
X92063000Y-71920000D01*
X92088000Y-71887000D01*
X92115000Y-71855000D01*
X92144000Y-71824000D01*
X92175000Y-71795000D01*
X92207000Y-71768000D01*
X92240000Y-71743000D01*
X92274000Y-71719000D01*
X92310000Y-71697000D01*
X92347000Y-71677000D01*
X92385000Y-71659000D01*
X92423000Y-71643000D01*
X92463000Y-71629000D01*
X92503000Y-71617000D01*
X92544000Y-71607000D01*
X92585000Y-71600000D01*
X92626000Y-71594000D01*
X92668000Y-71591000D01*
X92710000Y-71590000D01*
X95110000Y-71590000D01*
X95110000Y-73190000D01*
G36*
X95110000Y-73190000D02*
G01*
X92710000Y-73190000D01*
X92668000Y-73189000D01*
X92626000Y-73186000D01*
X92585000Y-73180000D01*
X92544000Y-73173000D01*
X92503000Y-73163000D01*
X92463000Y-73151000D01*
X92423000Y-73137000D01*
X92385000Y-73121000D01*
X92347000Y-73103000D01*
X92310000Y-73083000D01*
X92274000Y-73061000D01*
X92240000Y-73037000D01*
X92207000Y-73012000D01*
X92175000Y-72985000D01*
X92144000Y-72956000D01*
X92115000Y-72925000D01*
X92088000Y-72893000D01*
X92063000Y-72860000D01*
X92039000Y-72826000D01*
X92017000Y-72790000D01*
X91997000Y-72753000D01*
X91979000Y-72715000D01*
X91963000Y-72677000D01*
X91949000Y-72637000D01*
X91937000Y-72597000D01*
X91927000Y-72556000D01*
X91920000Y-72515000D01*
X91914000Y-72474000D01*
X91911000Y-72432000D01*
X91910000Y-72390000D01*
X91911000Y-72348000D01*
X91914000Y-72306000D01*
X91920000Y-72265000D01*
X91927000Y-72224000D01*
X91937000Y-72183000D01*
X91949000Y-72143000D01*
X91963000Y-72103000D01*
X91979000Y-72065000D01*
X91997000Y-72027000D01*
X92017000Y-71990000D01*
X92039000Y-71954000D01*
X92063000Y-71920000D01*
X92088000Y-71887000D01*
X92115000Y-71855000D01*
X92144000Y-71824000D01*
X92175000Y-71795000D01*
X92207000Y-71768000D01*
X92240000Y-71743000D01*
X92274000Y-71719000D01*
X92310000Y-71697000D01*
X92347000Y-71677000D01*
X92385000Y-71659000D01*
X92423000Y-71643000D01*
X92463000Y-71629000D01*
X92503000Y-71617000D01*
X92544000Y-71607000D01*
X92585000Y-71600000D01*
X92626000Y-71594000D01*
X92668000Y-71591000D01*
X92710000Y-71590000D01*
X95110000Y-71590000D01*
X95110000Y-73190000D01*
G37*
X95110000Y-75730000D02*
X92710000Y-75730000D01*
X92668000Y-75729000D01*
X92626000Y-75726000D01*
X92585000Y-75720000D01*
X92544000Y-75713000D01*
X92503000Y-75703000D01*
X92463000Y-75691000D01*
X92423000Y-75677000D01*
X92385000Y-75661000D01*
X92347000Y-75643000D01*
X92310000Y-75623000D01*
X92274000Y-75601000D01*
X92240000Y-75577000D01*
X92207000Y-75552000D01*
X92175000Y-75525000D01*
X92144000Y-75496000D01*
X92115000Y-75465000D01*
X92088000Y-75433000D01*
X92063000Y-75400000D01*
X92039000Y-75366000D01*
X92017000Y-75330000D01*
X91997000Y-75293000D01*
X91979000Y-75255000D01*
X91963000Y-75217000D01*
X91949000Y-75177000D01*
X91937000Y-75137000D01*
X91927000Y-75096000D01*
X91920000Y-75055000D01*
X91914000Y-75014000D01*
X91911000Y-74972000D01*
X91910000Y-74930000D01*
X91911000Y-74888000D01*
X91914000Y-74846000D01*
X91920000Y-74805000D01*
X91927000Y-74764000D01*
X91937000Y-74723000D01*
X91949000Y-74683000D01*
X91963000Y-74643000D01*
X91979000Y-74605000D01*
X91997000Y-74567000D01*
X92017000Y-74530000D01*
X92039000Y-74494000D01*
X92063000Y-74460000D01*
X92088000Y-74427000D01*
X92115000Y-74395000D01*
X92144000Y-74364000D01*
X92175000Y-74335000D01*
X92207000Y-74308000D01*
X92240000Y-74283000D01*
X92274000Y-74259000D01*
X92310000Y-74237000D01*
X92347000Y-74217000D01*
X92385000Y-74199000D01*
X92423000Y-74183000D01*
X92463000Y-74169000D01*
X92503000Y-74157000D01*
X92544000Y-74147000D01*
X92585000Y-74140000D01*
X92626000Y-74134000D01*
X92668000Y-74131000D01*
X92710000Y-74130000D01*
X95110000Y-74130000D01*
X95110000Y-75730000D01*
G36*
X95110000Y-75730000D02*
G01*
X92710000Y-75730000D01*
X92668000Y-75729000D01*
X92626000Y-75726000D01*
X92585000Y-75720000D01*
X92544000Y-75713000D01*
X92503000Y-75703000D01*
X92463000Y-75691000D01*
X92423000Y-75677000D01*
X92385000Y-75661000D01*
X92347000Y-75643000D01*
X92310000Y-75623000D01*
X92274000Y-75601000D01*
X92240000Y-75577000D01*
X92207000Y-75552000D01*
X92175000Y-75525000D01*
X92144000Y-75496000D01*
X92115000Y-75465000D01*
X92088000Y-75433000D01*
X92063000Y-75400000D01*
X92039000Y-75366000D01*
X92017000Y-75330000D01*
X91997000Y-75293000D01*
X91979000Y-75255000D01*
X91963000Y-75217000D01*
X91949000Y-75177000D01*
X91937000Y-75137000D01*
X91927000Y-75096000D01*
X91920000Y-75055000D01*
X91914000Y-75014000D01*
X91911000Y-74972000D01*
X91910000Y-74930000D01*
X91911000Y-74888000D01*
X91914000Y-74846000D01*
X91920000Y-74805000D01*
X91927000Y-74764000D01*
X91937000Y-74723000D01*
X91949000Y-74683000D01*
X91963000Y-74643000D01*
X91979000Y-74605000D01*
X91997000Y-74567000D01*
X92017000Y-74530000D01*
X92039000Y-74494000D01*
X92063000Y-74460000D01*
X92088000Y-74427000D01*
X92115000Y-74395000D01*
X92144000Y-74364000D01*
X92175000Y-74335000D01*
X92207000Y-74308000D01*
X92240000Y-74283000D01*
X92274000Y-74259000D01*
X92310000Y-74237000D01*
X92347000Y-74217000D01*
X92385000Y-74199000D01*
X92423000Y-74183000D01*
X92463000Y-74169000D01*
X92503000Y-74157000D01*
X92544000Y-74147000D01*
X92585000Y-74140000D01*
X92626000Y-74134000D01*
X92668000Y-74131000D01*
X92710000Y-74130000D01*
X95110000Y-74130000D01*
X95110000Y-75730000D01*
G37*
X95110000Y-80810000D02*
X92710000Y-80810000D01*
X92668000Y-80809000D01*
X92626000Y-80806000D01*
X92585000Y-80800000D01*
X92544000Y-80793000D01*
X92503000Y-80783000D01*
X92463000Y-80771000D01*
X92423000Y-80757000D01*
X92385000Y-80741000D01*
X92347000Y-80723000D01*
X92310000Y-80703000D01*
X92274000Y-80681000D01*
X92240000Y-80657000D01*
X92207000Y-80632000D01*
X92175000Y-80605000D01*
X92144000Y-80576000D01*
X92115000Y-80545000D01*
X92088000Y-80513000D01*
X92063000Y-80480000D01*
X92039000Y-80446000D01*
X92017000Y-80410000D01*
X91997000Y-80373000D01*
X91979000Y-80335000D01*
X91963000Y-80297000D01*
X91949000Y-80257000D01*
X91937000Y-80217000D01*
X91927000Y-80176000D01*
X91920000Y-80135000D01*
X91914000Y-80094000D01*
X91911000Y-80052000D01*
X91910000Y-80010000D01*
X91911000Y-79968000D01*
X91914000Y-79926000D01*
X91920000Y-79885000D01*
X91927000Y-79844000D01*
X91937000Y-79803000D01*
X91949000Y-79763000D01*
X91963000Y-79723000D01*
X91979000Y-79685000D01*
X91997000Y-79647000D01*
X92017000Y-79610000D01*
X92039000Y-79574000D01*
X92063000Y-79540000D01*
X92088000Y-79507000D01*
X92115000Y-79475000D01*
X92144000Y-79444000D01*
X92175000Y-79415000D01*
X92207000Y-79388000D01*
X92240000Y-79363000D01*
X92274000Y-79339000D01*
X92310000Y-79317000D01*
X92347000Y-79297000D01*
X92385000Y-79279000D01*
X92423000Y-79263000D01*
X92463000Y-79249000D01*
X92503000Y-79237000D01*
X92544000Y-79227000D01*
X92585000Y-79220000D01*
X92626000Y-79214000D01*
X92668000Y-79211000D01*
X92710000Y-79210000D01*
X95110000Y-79210000D01*
X95110000Y-80810000D01*
G36*
X95110000Y-80810000D02*
G01*
X92710000Y-80810000D01*
X92668000Y-80809000D01*
X92626000Y-80806000D01*
X92585000Y-80800000D01*
X92544000Y-80793000D01*
X92503000Y-80783000D01*
X92463000Y-80771000D01*
X92423000Y-80757000D01*
X92385000Y-80741000D01*
X92347000Y-80723000D01*
X92310000Y-80703000D01*
X92274000Y-80681000D01*
X92240000Y-80657000D01*
X92207000Y-80632000D01*
X92175000Y-80605000D01*
X92144000Y-80576000D01*
X92115000Y-80545000D01*
X92088000Y-80513000D01*
X92063000Y-80480000D01*
X92039000Y-80446000D01*
X92017000Y-80410000D01*
X91997000Y-80373000D01*
X91979000Y-80335000D01*
X91963000Y-80297000D01*
X91949000Y-80257000D01*
X91937000Y-80217000D01*
X91927000Y-80176000D01*
X91920000Y-80135000D01*
X91914000Y-80094000D01*
X91911000Y-80052000D01*
X91910000Y-80010000D01*
X91911000Y-79968000D01*
X91914000Y-79926000D01*
X91920000Y-79885000D01*
X91927000Y-79844000D01*
X91937000Y-79803000D01*
X91949000Y-79763000D01*
X91963000Y-79723000D01*
X91979000Y-79685000D01*
X91997000Y-79647000D01*
X92017000Y-79610000D01*
X92039000Y-79574000D01*
X92063000Y-79540000D01*
X92088000Y-79507000D01*
X92115000Y-79475000D01*
X92144000Y-79444000D01*
X92175000Y-79415000D01*
X92207000Y-79388000D01*
X92240000Y-79363000D01*
X92274000Y-79339000D01*
X92310000Y-79317000D01*
X92347000Y-79297000D01*
X92385000Y-79279000D01*
X92423000Y-79263000D01*
X92463000Y-79249000D01*
X92503000Y-79237000D01*
X92544000Y-79227000D01*
X92585000Y-79220000D01*
X92626000Y-79214000D01*
X92668000Y-79211000D01*
X92710000Y-79210000D01*
X95110000Y-79210000D01*
X95110000Y-80810000D01*
G37*
X95110000Y-83350000D02*
X92710000Y-83350000D01*
X92668000Y-83349000D01*
X92626000Y-83346000D01*
X92585000Y-83340000D01*
X92544000Y-83333000D01*
X92503000Y-83323000D01*
X92463000Y-83311000D01*
X92423000Y-83297000D01*
X92385000Y-83281000D01*
X92347000Y-83263000D01*
X92310000Y-83243000D01*
X92274000Y-83221000D01*
X92240000Y-83197000D01*
X92207000Y-83172000D01*
X92175000Y-83145000D01*
X92144000Y-83116000D01*
X92115000Y-83085000D01*
X92088000Y-83053000D01*
X92063000Y-83020000D01*
X92039000Y-82986000D01*
X92017000Y-82950000D01*
X91997000Y-82913000D01*
X91979000Y-82875000D01*
X91963000Y-82837000D01*
X91949000Y-82797000D01*
X91937000Y-82757000D01*
X91927000Y-82716000D01*
X91920000Y-82675000D01*
X91914000Y-82634000D01*
X91911000Y-82592000D01*
X91910000Y-82550000D01*
X91911000Y-82508000D01*
X91914000Y-82466000D01*
X91920000Y-82425000D01*
X91927000Y-82384000D01*
X91937000Y-82343000D01*
X91949000Y-82303000D01*
X91963000Y-82263000D01*
X91979000Y-82225000D01*
X91997000Y-82187000D01*
X92017000Y-82150000D01*
X92039000Y-82114000D01*
X92063000Y-82080000D01*
X92088000Y-82047000D01*
X92115000Y-82015000D01*
X92144000Y-81984000D01*
X92175000Y-81955000D01*
X92207000Y-81928000D01*
X92240000Y-81903000D01*
X92274000Y-81879000D01*
X92310000Y-81857000D01*
X92347000Y-81837000D01*
X92385000Y-81819000D01*
X92423000Y-81803000D01*
X92463000Y-81789000D01*
X92503000Y-81777000D01*
X92544000Y-81767000D01*
X92585000Y-81760000D01*
X92626000Y-81754000D01*
X92668000Y-81751000D01*
X92710000Y-81750000D01*
X95110000Y-81750000D01*
X95110000Y-83350000D01*
G36*
X95110000Y-83350000D02*
G01*
X92710000Y-83350000D01*
X92668000Y-83349000D01*
X92626000Y-83346000D01*
X92585000Y-83340000D01*
X92544000Y-83333000D01*
X92503000Y-83323000D01*
X92463000Y-83311000D01*
X92423000Y-83297000D01*
X92385000Y-83281000D01*
X92347000Y-83263000D01*
X92310000Y-83243000D01*
X92274000Y-83221000D01*
X92240000Y-83197000D01*
X92207000Y-83172000D01*
X92175000Y-83145000D01*
X92144000Y-83116000D01*
X92115000Y-83085000D01*
X92088000Y-83053000D01*
X92063000Y-83020000D01*
X92039000Y-82986000D01*
X92017000Y-82950000D01*
X91997000Y-82913000D01*
X91979000Y-82875000D01*
X91963000Y-82837000D01*
X91949000Y-82797000D01*
X91937000Y-82757000D01*
X91927000Y-82716000D01*
X91920000Y-82675000D01*
X91914000Y-82634000D01*
X91911000Y-82592000D01*
X91910000Y-82550000D01*
X91911000Y-82508000D01*
X91914000Y-82466000D01*
X91920000Y-82425000D01*
X91927000Y-82384000D01*
X91937000Y-82343000D01*
X91949000Y-82303000D01*
X91963000Y-82263000D01*
X91979000Y-82225000D01*
X91997000Y-82187000D01*
X92017000Y-82150000D01*
X92039000Y-82114000D01*
X92063000Y-82080000D01*
X92088000Y-82047000D01*
X92115000Y-82015000D01*
X92144000Y-81984000D01*
X92175000Y-81955000D01*
X92207000Y-81928000D01*
X92240000Y-81903000D01*
X92274000Y-81879000D01*
X92310000Y-81857000D01*
X92347000Y-81837000D01*
X92385000Y-81819000D01*
X92423000Y-81803000D01*
X92463000Y-81789000D01*
X92503000Y-81777000D01*
X92544000Y-81767000D01*
X92585000Y-81760000D01*
X92626000Y-81754000D01*
X92668000Y-81751000D01*
X92710000Y-81750000D01*
X95110000Y-81750000D01*
X95110000Y-83350000D01*
G37*
X95110000Y-85890000D02*
X92710000Y-85890000D01*
X92668000Y-85889000D01*
X92626000Y-85886000D01*
X92585000Y-85880000D01*
X92544000Y-85873000D01*
X92503000Y-85863000D01*
X92463000Y-85851000D01*
X92423000Y-85837000D01*
X92385000Y-85821000D01*
X92347000Y-85803000D01*
X92310000Y-85783000D01*
X92274000Y-85761000D01*
X92240000Y-85737000D01*
X92207000Y-85712000D01*
X92175000Y-85685000D01*
X92144000Y-85656000D01*
X92115000Y-85625000D01*
X92088000Y-85593000D01*
X92063000Y-85560000D01*
X92039000Y-85526000D01*
X92017000Y-85490000D01*
X91997000Y-85453000D01*
X91979000Y-85415000D01*
X91963000Y-85377000D01*
X91949000Y-85337000D01*
X91937000Y-85297000D01*
X91927000Y-85256000D01*
X91920000Y-85215000D01*
X91914000Y-85174000D01*
X91911000Y-85132000D01*
X91910000Y-85090000D01*
X91911000Y-85048000D01*
X91914000Y-85006000D01*
X91920000Y-84965000D01*
X91927000Y-84924000D01*
X91937000Y-84883000D01*
X91949000Y-84843000D01*
X91963000Y-84803000D01*
X91979000Y-84765000D01*
X91997000Y-84727000D01*
X92017000Y-84690000D01*
X92039000Y-84654000D01*
X92063000Y-84620000D01*
X92088000Y-84587000D01*
X92115000Y-84555000D01*
X92144000Y-84524000D01*
X92175000Y-84495000D01*
X92207000Y-84468000D01*
X92240000Y-84443000D01*
X92274000Y-84419000D01*
X92310000Y-84397000D01*
X92347000Y-84377000D01*
X92385000Y-84359000D01*
X92423000Y-84343000D01*
X92463000Y-84329000D01*
X92503000Y-84317000D01*
X92544000Y-84307000D01*
X92585000Y-84300000D01*
X92626000Y-84294000D01*
X92668000Y-84291000D01*
X92710000Y-84290000D01*
X95110000Y-84290000D01*
X95110000Y-85890000D01*
G36*
X95110000Y-85890000D02*
G01*
X92710000Y-85890000D01*
X92668000Y-85889000D01*
X92626000Y-85886000D01*
X92585000Y-85880000D01*
X92544000Y-85873000D01*
X92503000Y-85863000D01*
X92463000Y-85851000D01*
X92423000Y-85837000D01*
X92385000Y-85821000D01*
X92347000Y-85803000D01*
X92310000Y-85783000D01*
X92274000Y-85761000D01*
X92240000Y-85737000D01*
X92207000Y-85712000D01*
X92175000Y-85685000D01*
X92144000Y-85656000D01*
X92115000Y-85625000D01*
X92088000Y-85593000D01*
X92063000Y-85560000D01*
X92039000Y-85526000D01*
X92017000Y-85490000D01*
X91997000Y-85453000D01*
X91979000Y-85415000D01*
X91963000Y-85377000D01*
X91949000Y-85337000D01*
X91937000Y-85297000D01*
X91927000Y-85256000D01*
X91920000Y-85215000D01*
X91914000Y-85174000D01*
X91911000Y-85132000D01*
X91910000Y-85090000D01*
X91911000Y-85048000D01*
X91914000Y-85006000D01*
X91920000Y-84965000D01*
X91927000Y-84924000D01*
X91937000Y-84883000D01*
X91949000Y-84843000D01*
X91963000Y-84803000D01*
X91979000Y-84765000D01*
X91997000Y-84727000D01*
X92017000Y-84690000D01*
X92039000Y-84654000D01*
X92063000Y-84620000D01*
X92088000Y-84587000D01*
X92115000Y-84555000D01*
X92144000Y-84524000D01*
X92175000Y-84495000D01*
X92207000Y-84468000D01*
X92240000Y-84443000D01*
X92274000Y-84419000D01*
X92310000Y-84397000D01*
X92347000Y-84377000D01*
X92385000Y-84359000D01*
X92423000Y-84343000D01*
X92463000Y-84329000D01*
X92503000Y-84317000D01*
X92544000Y-84307000D01*
X92585000Y-84300000D01*
X92626000Y-84294000D01*
X92668000Y-84291000D01*
X92710000Y-84290000D01*
X95110000Y-84290000D01*
X95110000Y-85890000D01*
G37*
X95110000Y-88430000D02*
X92710000Y-88430000D01*
X92668000Y-88429000D01*
X92626000Y-88426000D01*
X92585000Y-88420000D01*
X92544000Y-88413000D01*
X92503000Y-88403000D01*
X92463000Y-88391000D01*
X92423000Y-88377000D01*
X92385000Y-88361000D01*
X92347000Y-88343000D01*
X92310000Y-88323000D01*
X92274000Y-88301000D01*
X92240000Y-88277000D01*
X92207000Y-88252000D01*
X92175000Y-88225000D01*
X92144000Y-88196000D01*
X92115000Y-88165000D01*
X92088000Y-88133000D01*
X92063000Y-88100000D01*
X92039000Y-88066000D01*
X92017000Y-88030000D01*
X91997000Y-87993000D01*
X91979000Y-87955000D01*
X91963000Y-87917000D01*
X91949000Y-87877000D01*
X91937000Y-87837000D01*
X91927000Y-87796000D01*
X91920000Y-87755000D01*
X91914000Y-87714000D01*
X91911000Y-87672000D01*
X91910000Y-87630000D01*
X91911000Y-87588000D01*
X91914000Y-87546000D01*
X91920000Y-87505000D01*
X91927000Y-87464000D01*
X91937000Y-87423000D01*
X91949000Y-87383000D01*
X91963000Y-87343000D01*
X91979000Y-87305000D01*
X91997000Y-87267000D01*
X92017000Y-87230000D01*
X92039000Y-87194000D01*
X92063000Y-87160000D01*
X92088000Y-87127000D01*
X92115000Y-87095000D01*
X92144000Y-87064000D01*
X92175000Y-87035000D01*
X92207000Y-87008000D01*
X92240000Y-86983000D01*
X92274000Y-86959000D01*
X92310000Y-86937000D01*
X92347000Y-86917000D01*
X92385000Y-86899000D01*
X92423000Y-86883000D01*
X92463000Y-86869000D01*
X92503000Y-86857000D01*
X92544000Y-86847000D01*
X92585000Y-86840000D01*
X92626000Y-86834000D01*
X92668000Y-86831000D01*
X92710000Y-86830000D01*
X95110000Y-86830000D01*
X95110000Y-88430000D01*
G36*
X95110000Y-88430000D02*
G01*
X92710000Y-88430000D01*
X92668000Y-88429000D01*
X92626000Y-88426000D01*
X92585000Y-88420000D01*
X92544000Y-88413000D01*
X92503000Y-88403000D01*
X92463000Y-88391000D01*
X92423000Y-88377000D01*
X92385000Y-88361000D01*
X92347000Y-88343000D01*
X92310000Y-88323000D01*
X92274000Y-88301000D01*
X92240000Y-88277000D01*
X92207000Y-88252000D01*
X92175000Y-88225000D01*
X92144000Y-88196000D01*
X92115000Y-88165000D01*
X92088000Y-88133000D01*
X92063000Y-88100000D01*
X92039000Y-88066000D01*
X92017000Y-88030000D01*
X91997000Y-87993000D01*
X91979000Y-87955000D01*
X91963000Y-87917000D01*
X91949000Y-87877000D01*
X91937000Y-87837000D01*
X91927000Y-87796000D01*
X91920000Y-87755000D01*
X91914000Y-87714000D01*
X91911000Y-87672000D01*
X91910000Y-87630000D01*
X91911000Y-87588000D01*
X91914000Y-87546000D01*
X91920000Y-87505000D01*
X91927000Y-87464000D01*
X91937000Y-87423000D01*
X91949000Y-87383000D01*
X91963000Y-87343000D01*
X91979000Y-87305000D01*
X91997000Y-87267000D01*
X92017000Y-87230000D01*
X92039000Y-87194000D01*
X92063000Y-87160000D01*
X92088000Y-87127000D01*
X92115000Y-87095000D01*
X92144000Y-87064000D01*
X92175000Y-87035000D01*
X92207000Y-87008000D01*
X92240000Y-86983000D01*
X92274000Y-86959000D01*
X92310000Y-86937000D01*
X92347000Y-86917000D01*
X92385000Y-86899000D01*
X92423000Y-86883000D01*
X92463000Y-86869000D01*
X92503000Y-86857000D01*
X92544000Y-86847000D01*
X92585000Y-86840000D01*
X92626000Y-86834000D01*
X92668000Y-86831000D01*
X92710000Y-86830000D01*
X95110000Y-86830000D01*
X95110000Y-88430000D01*
G37*
X95110000Y-93510000D02*
X92710000Y-93510000D01*
X92668000Y-93509000D01*
X92626000Y-93506000D01*
X92585000Y-93500000D01*
X92544000Y-93493000D01*
X92503000Y-93483000D01*
X92463000Y-93471000D01*
X92423000Y-93457000D01*
X92385000Y-93441000D01*
X92347000Y-93423000D01*
X92310000Y-93403000D01*
X92274000Y-93381000D01*
X92240000Y-93357000D01*
X92207000Y-93332000D01*
X92175000Y-93305000D01*
X92144000Y-93276000D01*
X92115000Y-93245000D01*
X92088000Y-93213000D01*
X92063000Y-93180000D01*
X92039000Y-93146000D01*
X92017000Y-93110000D01*
X91997000Y-93073000D01*
X91979000Y-93035000D01*
X91963000Y-92997000D01*
X91949000Y-92957000D01*
X91937000Y-92917000D01*
X91927000Y-92876000D01*
X91920000Y-92835000D01*
X91914000Y-92794000D01*
X91911000Y-92752000D01*
X91910000Y-92710000D01*
X91911000Y-92668000D01*
X91914000Y-92626000D01*
X91920000Y-92585000D01*
X91927000Y-92544000D01*
X91937000Y-92503000D01*
X91949000Y-92463000D01*
X91963000Y-92423000D01*
X91979000Y-92385000D01*
X91997000Y-92347000D01*
X92017000Y-92310000D01*
X92039000Y-92274000D01*
X92063000Y-92240000D01*
X92088000Y-92207000D01*
X92115000Y-92175000D01*
X92144000Y-92144000D01*
X92175000Y-92115000D01*
X92207000Y-92088000D01*
X92240000Y-92063000D01*
X92274000Y-92039000D01*
X92310000Y-92017000D01*
X92347000Y-91997000D01*
X92385000Y-91979000D01*
X92423000Y-91963000D01*
X92463000Y-91949000D01*
X92503000Y-91937000D01*
X92544000Y-91927000D01*
X92585000Y-91920000D01*
X92626000Y-91914000D01*
X92668000Y-91911000D01*
X92710000Y-91910000D01*
X95110000Y-91910000D01*
X95110000Y-93510000D01*
G36*
X95110000Y-93510000D02*
G01*
X92710000Y-93510000D01*
X92668000Y-93509000D01*
X92626000Y-93506000D01*
X92585000Y-93500000D01*
X92544000Y-93493000D01*
X92503000Y-93483000D01*
X92463000Y-93471000D01*
X92423000Y-93457000D01*
X92385000Y-93441000D01*
X92347000Y-93423000D01*
X92310000Y-93403000D01*
X92274000Y-93381000D01*
X92240000Y-93357000D01*
X92207000Y-93332000D01*
X92175000Y-93305000D01*
X92144000Y-93276000D01*
X92115000Y-93245000D01*
X92088000Y-93213000D01*
X92063000Y-93180000D01*
X92039000Y-93146000D01*
X92017000Y-93110000D01*
X91997000Y-93073000D01*
X91979000Y-93035000D01*
X91963000Y-92997000D01*
X91949000Y-92957000D01*
X91937000Y-92917000D01*
X91927000Y-92876000D01*
X91920000Y-92835000D01*
X91914000Y-92794000D01*
X91911000Y-92752000D01*
X91910000Y-92710000D01*
X91911000Y-92668000D01*
X91914000Y-92626000D01*
X91920000Y-92585000D01*
X91927000Y-92544000D01*
X91937000Y-92503000D01*
X91949000Y-92463000D01*
X91963000Y-92423000D01*
X91979000Y-92385000D01*
X91997000Y-92347000D01*
X92017000Y-92310000D01*
X92039000Y-92274000D01*
X92063000Y-92240000D01*
X92088000Y-92207000D01*
X92115000Y-92175000D01*
X92144000Y-92144000D01*
X92175000Y-92115000D01*
X92207000Y-92088000D01*
X92240000Y-92063000D01*
X92274000Y-92039000D01*
X92310000Y-92017000D01*
X92347000Y-91997000D01*
X92385000Y-91979000D01*
X92423000Y-91963000D01*
X92463000Y-91949000D01*
X92503000Y-91937000D01*
X92544000Y-91927000D01*
X92585000Y-91920000D01*
X92626000Y-91914000D01*
X92668000Y-91911000D01*
X92710000Y-91910000D01*
X95110000Y-91910000D01*
X95110000Y-93510000D01*
G37*
X95110000Y-96050000D02*
X92710000Y-96050000D01*
X92668000Y-96049000D01*
X92626000Y-96046000D01*
X92585000Y-96040000D01*
X92544000Y-96033000D01*
X92503000Y-96023000D01*
X92463000Y-96011000D01*
X92423000Y-95997000D01*
X92385000Y-95981000D01*
X92347000Y-95963000D01*
X92310000Y-95943000D01*
X92274000Y-95921000D01*
X92240000Y-95897000D01*
X92207000Y-95872000D01*
X92175000Y-95845000D01*
X92144000Y-95816000D01*
X92115000Y-95785000D01*
X92088000Y-95753000D01*
X92063000Y-95720000D01*
X92039000Y-95686000D01*
X92017000Y-95650000D01*
X91997000Y-95613000D01*
X91979000Y-95575000D01*
X91963000Y-95537000D01*
X91949000Y-95497000D01*
X91937000Y-95457000D01*
X91927000Y-95416000D01*
X91920000Y-95375000D01*
X91914000Y-95334000D01*
X91911000Y-95292000D01*
X91910000Y-95250000D01*
X91911000Y-95208000D01*
X91914000Y-95166000D01*
X91920000Y-95125000D01*
X91927000Y-95084000D01*
X91937000Y-95043000D01*
X91949000Y-95003000D01*
X91963000Y-94963000D01*
X91979000Y-94925000D01*
X91997000Y-94887000D01*
X92017000Y-94850000D01*
X92039000Y-94814000D01*
X92063000Y-94780000D01*
X92088000Y-94747000D01*
X92115000Y-94715000D01*
X92144000Y-94684000D01*
X92175000Y-94655000D01*
X92207000Y-94628000D01*
X92240000Y-94603000D01*
X92274000Y-94579000D01*
X92310000Y-94557000D01*
X92347000Y-94537000D01*
X92385000Y-94519000D01*
X92423000Y-94503000D01*
X92463000Y-94489000D01*
X92503000Y-94477000D01*
X92544000Y-94467000D01*
X92585000Y-94460000D01*
X92626000Y-94454000D01*
X92668000Y-94451000D01*
X92710000Y-94450000D01*
X95110000Y-94450000D01*
X95110000Y-96050000D01*
G36*
X95110000Y-96050000D02*
G01*
X92710000Y-96050000D01*
X92668000Y-96049000D01*
X92626000Y-96046000D01*
X92585000Y-96040000D01*
X92544000Y-96033000D01*
X92503000Y-96023000D01*
X92463000Y-96011000D01*
X92423000Y-95997000D01*
X92385000Y-95981000D01*
X92347000Y-95963000D01*
X92310000Y-95943000D01*
X92274000Y-95921000D01*
X92240000Y-95897000D01*
X92207000Y-95872000D01*
X92175000Y-95845000D01*
X92144000Y-95816000D01*
X92115000Y-95785000D01*
X92088000Y-95753000D01*
X92063000Y-95720000D01*
X92039000Y-95686000D01*
X92017000Y-95650000D01*
X91997000Y-95613000D01*
X91979000Y-95575000D01*
X91963000Y-95537000D01*
X91949000Y-95497000D01*
X91937000Y-95457000D01*
X91927000Y-95416000D01*
X91920000Y-95375000D01*
X91914000Y-95334000D01*
X91911000Y-95292000D01*
X91910000Y-95250000D01*
X91911000Y-95208000D01*
X91914000Y-95166000D01*
X91920000Y-95125000D01*
X91927000Y-95084000D01*
X91937000Y-95043000D01*
X91949000Y-95003000D01*
X91963000Y-94963000D01*
X91979000Y-94925000D01*
X91997000Y-94887000D01*
X92017000Y-94850000D01*
X92039000Y-94814000D01*
X92063000Y-94780000D01*
X92088000Y-94747000D01*
X92115000Y-94715000D01*
X92144000Y-94684000D01*
X92175000Y-94655000D01*
X92207000Y-94628000D01*
X92240000Y-94603000D01*
X92274000Y-94579000D01*
X92310000Y-94557000D01*
X92347000Y-94537000D01*
X92385000Y-94519000D01*
X92423000Y-94503000D01*
X92463000Y-94489000D01*
X92503000Y-94477000D01*
X92544000Y-94467000D01*
X92585000Y-94460000D01*
X92626000Y-94454000D01*
X92668000Y-94451000D01*
X92710000Y-94450000D01*
X95110000Y-94450000D01*
X95110000Y-96050000D01*
G37*
X75551000Y-51271000D02*
X75561000Y-51272000D01*
X75572000Y-51274000D01*
X75582000Y-51277000D01*
X75592000Y-51280000D01*
X75602000Y-51283000D01*
X75611000Y-51287000D01*
X75621000Y-51292000D01*
X75630000Y-51297000D01*
X75639000Y-51302000D01*
X75648000Y-51308000D01*
X75656000Y-51315000D01*
X75664000Y-51321000D01*
X75671000Y-51329000D01*
X75679000Y-51336000D01*
X75685000Y-51344000D01*
X75692000Y-51352000D01*
X75698000Y-51361000D01*
X75703000Y-51370000D01*
X75708000Y-51379000D01*
X75713000Y-51389000D01*
X75717000Y-51398000D01*
X75720000Y-51408000D01*
X75723000Y-51418000D01*
X75726000Y-51428000D01*
X75728000Y-51439000D01*
X75729000Y-51449000D01*
X75730000Y-51460000D01*
X75730000Y-51470000D01*
X75730000Y-52670000D01*
X75730000Y-52680000D01*
X75729000Y-52691000D01*
X75728000Y-52701000D01*
X75726000Y-52712000D01*
X75723000Y-52722000D01*
X75720000Y-52732000D01*
X75717000Y-52742000D01*
X75713000Y-52751000D01*
X75708000Y-52761000D01*
X75703000Y-52770000D01*
X75698000Y-52779000D01*
X75692000Y-52788000D01*
X75685000Y-52796000D01*
X75679000Y-52804000D01*
X75671000Y-52811000D01*
X75664000Y-52819000D01*
X75656000Y-52825000D01*
X75648000Y-52832000D01*
X75639000Y-52838000D01*
X75630000Y-52843000D01*
X75621000Y-52848000D01*
X75611000Y-52853000D01*
X75602000Y-52857000D01*
X75592000Y-52860000D01*
X75582000Y-52863000D01*
X75572000Y-52866000D01*
X75561000Y-52868000D01*
X75551000Y-52869000D01*
X75540000Y-52870000D01*
X75530000Y-52870000D01*
X72530000Y-52870000D01*
X72530000Y-51270000D01*
X75530000Y-51270000D01*
X75540000Y-51270000D01*
X75551000Y-51271000D01*
G36*
X75551000Y-51271000D02*
G01*
X75561000Y-51272000D01*
X75572000Y-51274000D01*
X75582000Y-51277000D01*
X75592000Y-51280000D01*
X75602000Y-51283000D01*
X75611000Y-51287000D01*
X75621000Y-51292000D01*
X75630000Y-51297000D01*
X75639000Y-51302000D01*
X75648000Y-51308000D01*
X75656000Y-51315000D01*
X75664000Y-51321000D01*
X75671000Y-51329000D01*
X75679000Y-51336000D01*
X75685000Y-51344000D01*
X75692000Y-51352000D01*
X75698000Y-51361000D01*
X75703000Y-51370000D01*
X75708000Y-51379000D01*
X75713000Y-51389000D01*
X75717000Y-51398000D01*
X75720000Y-51408000D01*
X75723000Y-51418000D01*
X75726000Y-51428000D01*
X75728000Y-51439000D01*
X75729000Y-51449000D01*
X75730000Y-51460000D01*
X75730000Y-51470000D01*
X75730000Y-52670000D01*
X75730000Y-52680000D01*
X75729000Y-52691000D01*
X75728000Y-52701000D01*
X75726000Y-52712000D01*
X75723000Y-52722000D01*
X75720000Y-52732000D01*
X75717000Y-52742000D01*
X75713000Y-52751000D01*
X75708000Y-52761000D01*
X75703000Y-52770000D01*
X75698000Y-52779000D01*
X75692000Y-52788000D01*
X75685000Y-52796000D01*
X75679000Y-52804000D01*
X75671000Y-52811000D01*
X75664000Y-52819000D01*
X75656000Y-52825000D01*
X75648000Y-52832000D01*
X75639000Y-52838000D01*
X75630000Y-52843000D01*
X75621000Y-52848000D01*
X75611000Y-52853000D01*
X75602000Y-52857000D01*
X75592000Y-52860000D01*
X75582000Y-52863000D01*
X75572000Y-52866000D01*
X75561000Y-52868000D01*
X75551000Y-52869000D01*
X75540000Y-52870000D01*
X75530000Y-52870000D01*
X72530000Y-52870000D01*
X72530000Y-51270000D01*
X75530000Y-51270000D01*
X75540000Y-51270000D01*
X75551000Y-51271000D01*
G37*
X75551000Y-63971000D02*
X75561000Y-63972000D01*
X75572000Y-63974000D01*
X75582000Y-63977000D01*
X75592000Y-63980000D01*
X75602000Y-63983000D01*
X75611000Y-63987000D01*
X75621000Y-63992000D01*
X75630000Y-63997000D01*
X75639000Y-64002000D01*
X75648000Y-64008000D01*
X75656000Y-64015000D01*
X75664000Y-64021000D01*
X75671000Y-64029000D01*
X75679000Y-64036000D01*
X75685000Y-64044000D01*
X75692000Y-64052000D01*
X75698000Y-64061000D01*
X75703000Y-64070000D01*
X75708000Y-64079000D01*
X75713000Y-64089000D01*
X75717000Y-64098000D01*
X75720000Y-64108000D01*
X75723000Y-64118000D01*
X75726000Y-64128000D01*
X75728000Y-64139000D01*
X75729000Y-64149000D01*
X75730000Y-64160000D01*
X75730000Y-64170000D01*
X75730000Y-65370000D01*
X75730000Y-65380000D01*
X75729000Y-65391000D01*
X75728000Y-65401000D01*
X75726000Y-65412000D01*
X75723000Y-65422000D01*
X75720000Y-65432000D01*
X75717000Y-65442000D01*
X75713000Y-65451000D01*
X75708000Y-65461000D01*
X75703000Y-65470000D01*
X75698000Y-65479000D01*
X75692000Y-65488000D01*
X75685000Y-65496000D01*
X75679000Y-65504000D01*
X75671000Y-65511000D01*
X75664000Y-65519000D01*
X75656000Y-65525000D01*
X75648000Y-65532000D01*
X75639000Y-65538000D01*
X75630000Y-65543000D01*
X75621000Y-65548000D01*
X75611000Y-65553000D01*
X75602000Y-65557000D01*
X75592000Y-65560000D01*
X75582000Y-65563000D01*
X75572000Y-65566000D01*
X75561000Y-65568000D01*
X75551000Y-65569000D01*
X75540000Y-65570000D01*
X75530000Y-65570000D01*
X72530000Y-65570000D01*
X72530000Y-63970000D01*
X75530000Y-63970000D01*
X75540000Y-63970000D01*
X75551000Y-63971000D01*
G36*
X75551000Y-63971000D02*
G01*
X75561000Y-63972000D01*
X75572000Y-63974000D01*
X75582000Y-63977000D01*
X75592000Y-63980000D01*
X75602000Y-63983000D01*
X75611000Y-63987000D01*
X75621000Y-63992000D01*
X75630000Y-63997000D01*
X75639000Y-64002000D01*
X75648000Y-64008000D01*
X75656000Y-64015000D01*
X75664000Y-64021000D01*
X75671000Y-64029000D01*
X75679000Y-64036000D01*
X75685000Y-64044000D01*
X75692000Y-64052000D01*
X75698000Y-64061000D01*
X75703000Y-64070000D01*
X75708000Y-64079000D01*
X75713000Y-64089000D01*
X75717000Y-64098000D01*
X75720000Y-64108000D01*
X75723000Y-64118000D01*
X75726000Y-64128000D01*
X75728000Y-64139000D01*
X75729000Y-64149000D01*
X75730000Y-64160000D01*
X75730000Y-64170000D01*
X75730000Y-65370000D01*
X75730000Y-65380000D01*
X75729000Y-65391000D01*
X75728000Y-65401000D01*
X75726000Y-65412000D01*
X75723000Y-65422000D01*
X75720000Y-65432000D01*
X75717000Y-65442000D01*
X75713000Y-65451000D01*
X75708000Y-65461000D01*
X75703000Y-65470000D01*
X75698000Y-65479000D01*
X75692000Y-65488000D01*
X75685000Y-65496000D01*
X75679000Y-65504000D01*
X75671000Y-65511000D01*
X75664000Y-65519000D01*
X75656000Y-65525000D01*
X75648000Y-65532000D01*
X75639000Y-65538000D01*
X75630000Y-65543000D01*
X75621000Y-65548000D01*
X75611000Y-65553000D01*
X75602000Y-65557000D01*
X75592000Y-65560000D01*
X75582000Y-65563000D01*
X75572000Y-65566000D01*
X75561000Y-65568000D01*
X75551000Y-65569000D01*
X75540000Y-65570000D01*
X75530000Y-65570000D01*
X72530000Y-65570000D01*
X72530000Y-63970000D01*
X75530000Y-63970000D01*
X75540000Y-63970000D01*
X75551000Y-63971000D01*
G37*
X75551000Y-76671000D02*
X75561000Y-76672000D01*
X75572000Y-76674000D01*
X75582000Y-76677000D01*
X75592000Y-76680000D01*
X75602000Y-76683000D01*
X75611000Y-76687000D01*
X75621000Y-76692000D01*
X75630000Y-76697000D01*
X75639000Y-76702000D01*
X75648000Y-76708000D01*
X75656000Y-76715000D01*
X75664000Y-76721000D01*
X75671000Y-76729000D01*
X75679000Y-76736000D01*
X75685000Y-76744000D01*
X75692000Y-76752000D01*
X75698000Y-76761000D01*
X75703000Y-76770000D01*
X75708000Y-76779000D01*
X75713000Y-76789000D01*
X75717000Y-76798000D01*
X75720000Y-76808000D01*
X75723000Y-76818000D01*
X75726000Y-76828000D01*
X75728000Y-76839000D01*
X75729000Y-76849000D01*
X75730000Y-76860000D01*
X75730000Y-76870000D01*
X75730000Y-78070000D01*
X75730000Y-78080000D01*
X75729000Y-78091000D01*
X75728000Y-78101000D01*
X75726000Y-78112000D01*
X75723000Y-78122000D01*
X75720000Y-78132000D01*
X75717000Y-78142000D01*
X75713000Y-78151000D01*
X75708000Y-78161000D01*
X75703000Y-78170000D01*
X75698000Y-78179000D01*
X75692000Y-78188000D01*
X75685000Y-78196000D01*
X75679000Y-78204000D01*
X75671000Y-78211000D01*
X75664000Y-78219000D01*
X75656000Y-78225000D01*
X75648000Y-78232000D01*
X75639000Y-78238000D01*
X75630000Y-78243000D01*
X75621000Y-78248000D01*
X75611000Y-78253000D01*
X75602000Y-78257000D01*
X75592000Y-78260000D01*
X75582000Y-78263000D01*
X75572000Y-78266000D01*
X75561000Y-78268000D01*
X75551000Y-78269000D01*
X75540000Y-78270000D01*
X75530000Y-78270000D01*
X72530000Y-78270000D01*
X72530000Y-76670000D01*
X75530000Y-76670000D01*
X75540000Y-76670000D01*
X75551000Y-76671000D01*
G36*
X75551000Y-76671000D02*
G01*
X75561000Y-76672000D01*
X75572000Y-76674000D01*
X75582000Y-76677000D01*
X75592000Y-76680000D01*
X75602000Y-76683000D01*
X75611000Y-76687000D01*
X75621000Y-76692000D01*
X75630000Y-76697000D01*
X75639000Y-76702000D01*
X75648000Y-76708000D01*
X75656000Y-76715000D01*
X75664000Y-76721000D01*
X75671000Y-76729000D01*
X75679000Y-76736000D01*
X75685000Y-76744000D01*
X75692000Y-76752000D01*
X75698000Y-76761000D01*
X75703000Y-76770000D01*
X75708000Y-76779000D01*
X75713000Y-76789000D01*
X75717000Y-76798000D01*
X75720000Y-76808000D01*
X75723000Y-76818000D01*
X75726000Y-76828000D01*
X75728000Y-76839000D01*
X75729000Y-76849000D01*
X75730000Y-76860000D01*
X75730000Y-76870000D01*
X75730000Y-78070000D01*
X75730000Y-78080000D01*
X75729000Y-78091000D01*
X75728000Y-78101000D01*
X75726000Y-78112000D01*
X75723000Y-78122000D01*
X75720000Y-78132000D01*
X75717000Y-78142000D01*
X75713000Y-78151000D01*
X75708000Y-78161000D01*
X75703000Y-78170000D01*
X75698000Y-78179000D01*
X75692000Y-78188000D01*
X75685000Y-78196000D01*
X75679000Y-78204000D01*
X75671000Y-78211000D01*
X75664000Y-78219000D01*
X75656000Y-78225000D01*
X75648000Y-78232000D01*
X75639000Y-78238000D01*
X75630000Y-78243000D01*
X75621000Y-78248000D01*
X75611000Y-78253000D01*
X75602000Y-78257000D01*
X75592000Y-78260000D01*
X75582000Y-78263000D01*
X75572000Y-78266000D01*
X75561000Y-78268000D01*
X75551000Y-78269000D01*
X75540000Y-78270000D01*
X75530000Y-78270000D01*
X72530000Y-78270000D01*
X72530000Y-76670000D01*
X75530000Y-76670000D01*
X75540000Y-76670000D01*
X75551000Y-76671000D01*
G37*
X75551000Y-89371000D02*
X75561000Y-89372000D01*
X75572000Y-89374000D01*
X75582000Y-89377000D01*
X75592000Y-89380000D01*
X75602000Y-89383000D01*
X75611000Y-89387000D01*
X75621000Y-89392000D01*
X75630000Y-89397000D01*
X75639000Y-89402000D01*
X75648000Y-89408000D01*
X75656000Y-89415000D01*
X75664000Y-89421000D01*
X75671000Y-89429000D01*
X75679000Y-89436000D01*
X75685000Y-89444000D01*
X75692000Y-89452000D01*
X75698000Y-89461000D01*
X75703000Y-89470000D01*
X75708000Y-89479000D01*
X75713000Y-89489000D01*
X75717000Y-89498000D01*
X75720000Y-89508000D01*
X75723000Y-89518000D01*
X75726000Y-89528000D01*
X75728000Y-89539000D01*
X75729000Y-89549000D01*
X75730000Y-89560000D01*
X75730000Y-89570000D01*
X75730000Y-90770000D01*
X75730000Y-90780000D01*
X75729000Y-90791000D01*
X75728000Y-90801000D01*
X75726000Y-90812000D01*
X75723000Y-90822000D01*
X75720000Y-90832000D01*
X75717000Y-90842000D01*
X75713000Y-90851000D01*
X75708000Y-90861000D01*
X75703000Y-90870000D01*
X75698000Y-90879000D01*
X75692000Y-90888000D01*
X75685000Y-90896000D01*
X75679000Y-90904000D01*
X75671000Y-90911000D01*
X75664000Y-90919000D01*
X75656000Y-90925000D01*
X75648000Y-90932000D01*
X75639000Y-90938000D01*
X75630000Y-90943000D01*
X75621000Y-90948000D01*
X75611000Y-90953000D01*
X75602000Y-90957000D01*
X75592000Y-90960000D01*
X75582000Y-90963000D01*
X75572000Y-90966000D01*
X75561000Y-90968000D01*
X75551000Y-90969000D01*
X75540000Y-90970000D01*
X75530000Y-90970000D01*
X72530000Y-90970000D01*
X72530000Y-89370000D01*
X75530000Y-89370000D01*
X75540000Y-89370000D01*
X75551000Y-89371000D01*
G36*
X75551000Y-89371000D02*
G01*
X75561000Y-89372000D01*
X75572000Y-89374000D01*
X75582000Y-89377000D01*
X75592000Y-89380000D01*
X75602000Y-89383000D01*
X75611000Y-89387000D01*
X75621000Y-89392000D01*
X75630000Y-89397000D01*
X75639000Y-89402000D01*
X75648000Y-89408000D01*
X75656000Y-89415000D01*
X75664000Y-89421000D01*
X75671000Y-89429000D01*
X75679000Y-89436000D01*
X75685000Y-89444000D01*
X75692000Y-89452000D01*
X75698000Y-89461000D01*
X75703000Y-89470000D01*
X75708000Y-89479000D01*
X75713000Y-89489000D01*
X75717000Y-89498000D01*
X75720000Y-89508000D01*
X75723000Y-89518000D01*
X75726000Y-89528000D01*
X75728000Y-89539000D01*
X75729000Y-89549000D01*
X75730000Y-89560000D01*
X75730000Y-89570000D01*
X75730000Y-90770000D01*
X75730000Y-90780000D01*
X75729000Y-90791000D01*
X75728000Y-90801000D01*
X75726000Y-90812000D01*
X75723000Y-90822000D01*
X75720000Y-90832000D01*
X75717000Y-90842000D01*
X75713000Y-90851000D01*
X75708000Y-90861000D01*
X75703000Y-90870000D01*
X75698000Y-90879000D01*
X75692000Y-90888000D01*
X75685000Y-90896000D01*
X75679000Y-90904000D01*
X75671000Y-90911000D01*
X75664000Y-90919000D01*
X75656000Y-90925000D01*
X75648000Y-90932000D01*
X75639000Y-90938000D01*
X75630000Y-90943000D01*
X75621000Y-90948000D01*
X75611000Y-90953000D01*
X75602000Y-90957000D01*
X75592000Y-90960000D01*
X75582000Y-90963000D01*
X75572000Y-90966000D01*
X75561000Y-90968000D01*
X75551000Y-90969000D01*
X75540000Y-90970000D01*
X75530000Y-90970000D01*
X72530000Y-90970000D01*
X72530000Y-89370000D01*
X75530000Y-89370000D01*
X75540000Y-89370000D01*
X75551000Y-89371000D01*
G37*
X95110000Y-52870000D02*
X92110000Y-52870000D01*
X92100000Y-52870000D01*
X92089000Y-52869000D01*
X92079000Y-52868000D01*
X92068000Y-52866000D01*
X92058000Y-52863000D01*
X92048000Y-52860000D01*
X92038000Y-52857000D01*
X92029000Y-52853000D01*
X92019000Y-52848000D01*
X92010000Y-52843000D01*
X92001000Y-52838000D01*
X91992000Y-52832000D01*
X91984000Y-52825000D01*
X91976000Y-52819000D01*
X91969000Y-52811000D01*
X91961000Y-52804000D01*
X91955000Y-52796000D01*
X91948000Y-52788000D01*
X91942000Y-52779000D01*
X91937000Y-52770000D01*
X91932000Y-52761000D01*
X91927000Y-52751000D01*
X91923000Y-52742000D01*
X91920000Y-52732000D01*
X91917000Y-52722000D01*
X91914000Y-52712000D01*
X91912000Y-52701000D01*
X91911000Y-52691000D01*
X91910000Y-52680000D01*
X91910000Y-52670000D01*
X91910000Y-51470000D01*
X91910000Y-51460000D01*
X91911000Y-51449000D01*
X91912000Y-51439000D01*
X91914000Y-51428000D01*
X91917000Y-51418000D01*
X91920000Y-51408000D01*
X91923000Y-51398000D01*
X91927000Y-51389000D01*
X91932000Y-51379000D01*
X91937000Y-51370000D01*
X91942000Y-51361000D01*
X91948000Y-51352000D01*
X91955000Y-51344000D01*
X91961000Y-51336000D01*
X91969000Y-51329000D01*
X91976000Y-51321000D01*
X91984000Y-51315000D01*
X91992000Y-51308000D01*
X92001000Y-51302000D01*
X92010000Y-51297000D01*
X92019000Y-51292000D01*
X92029000Y-51287000D01*
X92038000Y-51283000D01*
X92048000Y-51280000D01*
X92058000Y-51277000D01*
X92068000Y-51274000D01*
X92079000Y-51272000D01*
X92089000Y-51271000D01*
X92100000Y-51270000D01*
X92110000Y-51270000D01*
X95110000Y-51270000D01*
X95110000Y-52870000D01*
G36*
X95110000Y-52870000D02*
G01*
X92110000Y-52870000D01*
X92100000Y-52870000D01*
X92089000Y-52869000D01*
X92079000Y-52868000D01*
X92068000Y-52866000D01*
X92058000Y-52863000D01*
X92048000Y-52860000D01*
X92038000Y-52857000D01*
X92029000Y-52853000D01*
X92019000Y-52848000D01*
X92010000Y-52843000D01*
X92001000Y-52838000D01*
X91992000Y-52832000D01*
X91984000Y-52825000D01*
X91976000Y-52819000D01*
X91969000Y-52811000D01*
X91961000Y-52804000D01*
X91955000Y-52796000D01*
X91948000Y-52788000D01*
X91942000Y-52779000D01*
X91937000Y-52770000D01*
X91932000Y-52761000D01*
X91927000Y-52751000D01*
X91923000Y-52742000D01*
X91920000Y-52732000D01*
X91917000Y-52722000D01*
X91914000Y-52712000D01*
X91912000Y-52701000D01*
X91911000Y-52691000D01*
X91910000Y-52680000D01*
X91910000Y-52670000D01*
X91910000Y-51470000D01*
X91910000Y-51460000D01*
X91911000Y-51449000D01*
X91912000Y-51439000D01*
X91914000Y-51428000D01*
X91917000Y-51418000D01*
X91920000Y-51408000D01*
X91923000Y-51398000D01*
X91927000Y-51389000D01*
X91932000Y-51379000D01*
X91937000Y-51370000D01*
X91942000Y-51361000D01*
X91948000Y-51352000D01*
X91955000Y-51344000D01*
X91961000Y-51336000D01*
X91969000Y-51329000D01*
X91976000Y-51321000D01*
X91984000Y-51315000D01*
X91992000Y-51308000D01*
X92001000Y-51302000D01*
X92010000Y-51297000D01*
X92019000Y-51292000D01*
X92029000Y-51287000D01*
X92038000Y-51283000D01*
X92048000Y-51280000D01*
X92058000Y-51277000D01*
X92068000Y-51274000D01*
X92079000Y-51272000D01*
X92089000Y-51271000D01*
X92100000Y-51270000D01*
X92110000Y-51270000D01*
X95110000Y-51270000D01*
X95110000Y-52870000D01*
G37*
X95110000Y-65570000D02*
X92110000Y-65570000D01*
X92100000Y-65570000D01*
X92089000Y-65569000D01*
X92079000Y-65568000D01*
X92068000Y-65566000D01*
X92058000Y-65563000D01*
X92048000Y-65560000D01*
X92038000Y-65557000D01*
X92029000Y-65553000D01*
X92019000Y-65548000D01*
X92010000Y-65543000D01*
X92001000Y-65538000D01*
X91992000Y-65532000D01*
X91984000Y-65525000D01*
X91976000Y-65519000D01*
X91969000Y-65511000D01*
X91961000Y-65504000D01*
X91955000Y-65496000D01*
X91948000Y-65488000D01*
X91942000Y-65479000D01*
X91937000Y-65470000D01*
X91932000Y-65461000D01*
X91927000Y-65451000D01*
X91923000Y-65442000D01*
X91920000Y-65432000D01*
X91917000Y-65422000D01*
X91914000Y-65412000D01*
X91912000Y-65401000D01*
X91911000Y-65391000D01*
X91910000Y-65380000D01*
X91910000Y-65370000D01*
X91910000Y-64170000D01*
X91910000Y-64160000D01*
X91911000Y-64149000D01*
X91912000Y-64139000D01*
X91914000Y-64128000D01*
X91917000Y-64118000D01*
X91920000Y-64108000D01*
X91923000Y-64098000D01*
X91927000Y-64089000D01*
X91932000Y-64079000D01*
X91937000Y-64070000D01*
X91942000Y-64061000D01*
X91948000Y-64052000D01*
X91955000Y-64044000D01*
X91961000Y-64036000D01*
X91969000Y-64029000D01*
X91976000Y-64021000D01*
X91984000Y-64015000D01*
X91992000Y-64008000D01*
X92001000Y-64002000D01*
X92010000Y-63997000D01*
X92019000Y-63992000D01*
X92029000Y-63987000D01*
X92038000Y-63983000D01*
X92048000Y-63980000D01*
X92058000Y-63977000D01*
X92068000Y-63974000D01*
X92079000Y-63972000D01*
X92089000Y-63971000D01*
X92100000Y-63970000D01*
X92110000Y-63970000D01*
X95110000Y-63970000D01*
X95110000Y-65570000D01*
G36*
X95110000Y-65570000D02*
G01*
X92110000Y-65570000D01*
X92100000Y-65570000D01*
X92089000Y-65569000D01*
X92079000Y-65568000D01*
X92068000Y-65566000D01*
X92058000Y-65563000D01*
X92048000Y-65560000D01*
X92038000Y-65557000D01*
X92029000Y-65553000D01*
X92019000Y-65548000D01*
X92010000Y-65543000D01*
X92001000Y-65538000D01*
X91992000Y-65532000D01*
X91984000Y-65525000D01*
X91976000Y-65519000D01*
X91969000Y-65511000D01*
X91961000Y-65504000D01*
X91955000Y-65496000D01*
X91948000Y-65488000D01*
X91942000Y-65479000D01*
X91937000Y-65470000D01*
X91932000Y-65461000D01*
X91927000Y-65451000D01*
X91923000Y-65442000D01*
X91920000Y-65432000D01*
X91917000Y-65422000D01*
X91914000Y-65412000D01*
X91912000Y-65401000D01*
X91911000Y-65391000D01*
X91910000Y-65380000D01*
X91910000Y-65370000D01*
X91910000Y-64170000D01*
X91910000Y-64160000D01*
X91911000Y-64149000D01*
X91912000Y-64139000D01*
X91914000Y-64128000D01*
X91917000Y-64118000D01*
X91920000Y-64108000D01*
X91923000Y-64098000D01*
X91927000Y-64089000D01*
X91932000Y-64079000D01*
X91937000Y-64070000D01*
X91942000Y-64061000D01*
X91948000Y-64052000D01*
X91955000Y-64044000D01*
X91961000Y-64036000D01*
X91969000Y-64029000D01*
X91976000Y-64021000D01*
X91984000Y-64015000D01*
X91992000Y-64008000D01*
X92001000Y-64002000D01*
X92010000Y-63997000D01*
X92019000Y-63992000D01*
X92029000Y-63987000D01*
X92038000Y-63983000D01*
X92048000Y-63980000D01*
X92058000Y-63977000D01*
X92068000Y-63974000D01*
X92079000Y-63972000D01*
X92089000Y-63971000D01*
X92100000Y-63970000D01*
X92110000Y-63970000D01*
X95110000Y-63970000D01*
X95110000Y-65570000D01*
G37*
X95110000Y-78270000D02*
X92110000Y-78270000D01*
X92100000Y-78270000D01*
X92089000Y-78269000D01*
X92079000Y-78268000D01*
X92068000Y-78266000D01*
X92058000Y-78263000D01*
X92048000Y-78260000D01*
X92038000Y-78257000D01*
X92029000Y-78253000D01*
X92019000Y-78248000D01*
X92010000Y-78243000D01*
X92001000Y-78238000D01*
X91992000Y-78232000D01*
X91984000Y-78225000D01*
X91976000Y-78219000D01*
X91969000Y-78211000D01*
X91961000Y-78204000D01*
X91955000Y-78196000D01*
X91948000Y-78188000D01*
X91942000Y-78179000D01*
X91937000Y-78170000D01*
X91932000Y-78161000D01*
X91927000Y-78151000D01*
X91923000Y-78142000D01*
X91920000Y-78132000D01*
X91917000Y-78122000D01*
X91914000Y-78112000D01*
X91912000Y-78101000D01*
X91911000Y-78091000D01*
X91910000Y-78080000D01*
X91910000Y-78070000D01*
X91910000Y-76870000D01*
X91910000Y-76860000D01*
X91911000Y-76849000D01*
X91912000Y-76839000D01*
X91914000Y-76828000D01*
X91917000Y-76818000D01*
X91920000Y-76808000D01*
X91923000Y-76798000D01*
X91927000Y-76789000D01*
X91932000Y-76779000D01*
X91937000Y-76770000D01*
X91942000Y-76761000D01*
X91948000Y-76752000D01*
X91955000Y-76744000D01*
X91961000Y-76736000D01*
X91969000Y-76729000D01*
X91976000Y-76721000D01*
X91984000Y-76715000D01*
X91992000Y-76708000D01*
X92001000Y-76702000D01*
X92010000Y-76697000D01*
X92019000Y-76692000D01*
X92029000Y-76687000D01*
X92038000Y-76683000D01*
X92048000Y-76680000D01*
X92058000Y-76677000D01*
X92068000Y-76674000D01*
X92079000Y-76672000D01*
X92089000Y-76671000D01*
X92100000Y-76670000D01*
X92110000Y-76670000D01*
X95110000Y-76670000D01*
X95110000Y-78270000D01*
G36*
X95110000Y-78270000D02*
G01*
X92110000Y-78270000D01*
X92100000Y-78270000D01*
X92089000Y-78269000D01*
X92079000Y-78268000D01*
X92068000Y-78266000D01*
X92058000Y-78263000D01*
X92048000Y-78260000D01*
X92038000Y-78257000D01*
X92029000Y-78253000D01*
X92019000Y-78248000D01*
X92010000Y-78243000D01*
X92001000Y-78238000D01*
X91992000Y-78232000D01*
X91984000Y-78225000D01*
X91976000Y-78219000D01*
X91969000Y-78211000D01*
X91961000Y-78204000D01*
X91955000Y-78196000D01*
X91948000Y-78188000D01*
X91942000Y-78179000D01*
X91937000Y-78170000D01*
X91932000Y-78161000D01*
X91927000Y-78151000D01*
X91923000Y-78142000D01*
X91920000Y-78132000D01*
X91917000Y-78122000D01*
X91914000Y-78112000D01*
X91912000Y-78101000D01*
X91911000Y-78091000D01*
X91910000Y-78080000D01*
X91910000Y-78070000D01*
X91910000Y-76870000D01*
X91910000Y-76860000D01*
X91911000Y-76849000D01*
X91912000Y-76839000D01*
X91914000Y-76828000D01*
X91917000Y-76818000D01*
X91920000Y-76808000D01*
X91923000Y-76798000D01*
X91927000Y-76789000D01*
X91932000Y-76779000D01*
X91937000Y-76770000D01*
X91942000Y-76761000D01*
X91948000Y-76752000D01*
X91955000Y-76744000D01*
X91961000Y-76736000D01*
X91969000Y-76729000D01*
X91976000Y-76721000D01*
X91984000Y-76715000D01*
X91992000Y-76708000D01*
X92001000Y-76702000D01*
X92010000Y-76697000D01*
X92019000Y-76692000D01*
X92029000Y-76687000D01*
X92038000Y-76683000D01*
X92048000Y-76680000D01*
X92058000Y-76677000D01*
X92068000Y-76674000D01*
X92079000Y-76672000D01*
X92089000Y-76671000D01*
X92100000Y-76670000D01*
X92110000Y-76670000D01*
X95110000Y-76670000D01*
X95110000Y-78270000D01*
G37*
X95110000Y-90970000D02*
X92110000Y-90970000D01*
X92100000Y-90970000D01*
X92089000Y-90969000D01*
X92079000Y-90968000D01*
X92068000Y-90966000D01*
X92058000Y-90963000D01*
X92048000Y-90960000D01*
X92038000Y-90957000D01*
X92029000Y-90953000D01*
X92019000Y-90948000D01*
X92010000Y-90943000D01*
X92001000Y-90938000D01*
X91992000Y-90932000D01*
X91984000Y-90925000D01*
X91976000Y-90919000D01*
X91969000Y-90911000D01*
X91961000Y-90904000D01*
X91955000Y-90896000D01*
X91948000Y-90888000D01*
X91942000Y-90879000D01*
X91937000Y-90870000D01*
X91932000Y-90861000D01*
X91927000Y-90851000D01*
X91923000Y-90842000D01*
X91920000Y-90832000D01*
X91917000Y-90822000D01*
X91914000Y-90812000D01*
X91912000Y-90801000D01*
X91911000Y-90791000D01*
X91910000Y-90780000D01*
X91910000Y-90770000D01*
X91910000Y-89570000D01*
X91910000Y-89560000D01*
X91911000Y-89549000D01*
X91912000Y-89539000D01*
X91914000Y-89528000D01*
X91917000Y-89518000D01*
X91920000Y-89508000D01*
X91923000Y-89498000D01*
X91927000Y-89489000D01*
X91932000Y-89479000D01*
X91937000Y-89470000D01*
X91942000Y-89461000D01*
X91948000Y-89452000D01*
X91955000Y-89444000D01*
X91961000Y-89436000D01*
X91969000Y-89429000D01*
X91976000Y-89421000D01*
X91984000Y-89415000D01*
X91992000Y-89408000D01*
X92001000Y-89402000D01*
X92010000Y-89397000D01*
X92019000Y-89392000D01*
X92029000Y-89387000D01*
X92038000Y-89383000D01*
X92048000Y-89380000D01*
X92058000Y-89377000D01*
X92068000Y-89374000D01*
X92079000Y-89372000D01*
X92089000Y-89371000D01*
X92100000Y-89370000D01*
X92110000Y-89370000D01*
X95110000Y-89370000D01*
X95110000Y-90970000D01*
G36*
X95110000Y-90970000D02*
G01*
X92110000Y-90970000D01*
X92100000Y-90970000D01*
X92089000Y-90969000D01*
X92079000Y-90968000D01*
X92068000Y-90966000D01*
X92058000Y-90963000D01*
X92048000Y-90960000D01*
X92038000Y-90957000D01*
X92029000Y-90953000D01*
X92019000Y-90948000D01*
X92010000Y-90943000D01*
X92001000Y-90938000D01*
X91992000Y-90932000D01*
X91984000Y-90925000D01*
X91976000Y-90919000D01*
X91969000Y-90911000D01*
X91961000Y-90904000D01*
X91955000Y-90896000D01*
X91948000Y-90888000D01*
X91942000Y-90879000D01*
X91937000Y-90870000D01*
X91932000Y-90861000D01*
X91927000Y-90851000D01*
X91923000Y-90842000D01*
X91920000Y-90832000D01*
X91917000Y-90822000D01*
X91914000Y-90812000D01*
X91912000Y-90801000D01*
X91911000Y-90791000D01*
X91910000Y-90780000D01*
X91910000Y-90770000D01*
X91910000Y-89570000D01*
X91910000Y-89560000D01*
X91911000Y-89549000D01*
X91912000Y-89539000D01*
X91914000Y-89528000D01*
X91917000Y-89518000D01*
X91920000Y-89508000D01*
X91923000Y-89498000D01*
X91927000Y-89489000D01*
X91932000Y-89479000D01*
X91937000Y-89470000D01*
X91942000Y-89461000D01*
X91948000Y-89452000D01*
X91955000Y-89444000D01*
X91961000Y-89436000D01*
X91969000Y-89429000D01*
X91976000Y-89421000D01*
X91984000Y-89415000D01*
X91992000Y-89408000D01*
X92001000Y-89402000D01*
X92010000Y-89397000D01*
X92019000Y-89392000D01*
X92029000Y-89387000D01*
X92038000Y-89383000D01*
X92048000Y-89380000D01*
X92058000Y-89377000D01*
X92068000Y-89374000D01*
X92079000Y-89372000D01*
X92089000Y-89371000D01*
X92100000Y-89370000D01*
X92110000Y-89370000D01*
X95110000Y-89370000D01*
X95110000Y-90970000D01*
G37*
%TD*%
D11*
%TO.C,R14*%
X99365000Y-82550000D03*
X97790000Y-82550000D03*
%TD*%
D12*
%TO.C,R8*%
X79383839Y-153702392D03*
X79383839Y-155277392D03*
%TD*%
%TO.C,C9*%
X103174800Y-73634500D03*
X103174800Y-75209500D03*
%TD*%
D13*
%TO.C,J5*%
X71425000Y-98657000D03*
X71425000Y-104257000D03*
D14*
X67550000Y-102957000D03*
X67550000Y-101957000D03*
X67550000Y-100957000D03*
X67550000Y-99957000D03*
%TD*%
D15*
%TO.C,J3*%
X64735000Y-132477000D03*
X64735000Y-130477000D03*
D16*
X70485000Y-134827000D03*
X70485000Y-128127000D03*
%TD*%
D17*
%TO.C,R13*%
X94792900Y-39688700D03*
X96367900Y-39688700D03*
%TD*%
D18*
%TO.C,C7*%
X88239600Y-106095900D03*
X88239600Y-104520900D03*
%TD*%
D19*
%TO.C,Q1*%
X77658000Y-153702000D03*
X75758000Y-153702000D03*
X76708000Y-155702000D03*
%TD*%
D20*
%TO.C,R1*%
X84328000Y-142887700D03*
X84328000Y-137528300D03*
%TD*%
D21*
%TO.C,D5*%
X97180400Y-32641200D03*
X93980400Y-32641200D03*
X93980400Y-37541200D03*
X97180400Y-37541200D03*
%TD*%
D17*
%TO.C,C10*%
X99845900Y-71526400D03*
X101420900Y-71526400D03*
%TD*%
D15*
%TO.C,J4*%
X64718000Y-114617000D03*
X64718000Y-112617000D03*
X64718000Y-110617000D03*
X64718000Y-108617000D03*
D16*
X70468000Y-116967000D03*
X70468000Y-106267000D03*
%TD*%
D22*
%TO.C,C5*%
X68023500Y-143256000D03*
X69898500Y-143256000D03*
%TD*%
D17*
%TO.C,C6*%
X92176500Y-115316000D03*
X93751500Y-115316000D03*
%TD*%
D12*
%TO.C,C3*%
X72636401Y-148399400D03*
X72636401Y-149974400D03*
%TD*%
D23*
%TO.C,C4*%
X69898500Y-137414000D03*
X68023500Y-137414000D03*
%TD*%
D12*
%TO.C,C8*%
X91135200Y-35712400D03*
X91135200Y-37287400D03*
%TD*%
D24*
%TO.C,U4*%
X92930000Y-113526000D03*
X93780000Y-113526000D03*
X94830000Y-113526000D03*
X95680000Y-113526000D03*
X96730000Y-113526000D03*
X97580000Y-113526000D03*
X98630000Y-113526000D03*
X99480000Y-113526000D03*
X100530000Y-113526000D03*
X101380000Y-113526000D03*
X92930000Y-112526000D03*
X93780000Y-112526000D03*
X94830000Y-112526000D03*
X95680000Y-112526000D03*
X96730000Y-112526000D03*
X97580000Y-112526000D03*
X98630000Y-112526000D03*
X99480000Y-112526000D03*
X100530000Y-112526000D03*
X101380000Y-112526000D03*
D25*
X90055000Y-110651000D03*
X91055000Y-110651000D03*
X103255000Y-110651000D03*
X104255000Y-110651000D03*
X90055000Y-109801000D03*
X91055000Y-109801000D03*
X103255000Y-109801000D03*
X104255000Y-109801000D03*
X90055000Y-108751000D03*
X91055000Y-108751000D03*
X103255000Y-108751000D03*
X104255000Y-108751000D03*
X90055000Y-107901000D03*
X91055000Y-107901000D03*
X103255000Y-107901000D03*
X104255000Y-107901000D03*
X90055000Y-106851000D03*
X91055000Y-106851000D03*
X103255000Y-106851000D03*
X104255000Y-106851000D03*
X90055000Y-106001000D03*
X91055000Y-106001000D03*
X103255000Y-106001000D03*
X104255000Y-106001000D03*
X90055000Y-104951000D03*
X91055000Y-104951000D03*
X103255000Y-104951000D03*
X104255000Y-104951000D03*
X90055000Y-104101000D03*
X91055000Y-104101000D03*
X103255000Y-104101000D03*
X104255000Y-104101000D03*
X90055000Y-103051000D03*
X91055000Y-103051000D03*
X103255000Y-103051000D03*
X104255000Y-103051000D03*
X90055000Y-102201000D03*
X91055000Y-102201000D03*
X103255000Y-102201000D03*
X104255000Y-102201000D03*
D24*
X92930000Y-100326000D03*
X93780000Y-100326000D03*
X94830000Y-100326000D03*
X95680000Y-100326000D03*
X96730000Y-100326000D03*
X97580000Y-100326000D03*
X98630000Y-100326000D03*
X99480000Y-100326000D03*
X100530000Y-100326000D03*
X101380000Y-100326000D03*
X92930000Y-99326000D03*
X93780000Y-99326000D03*
X94830000Y-99326000D03*
X95680000Y-99326000D03*
X96730000Y-99326000D03*
X97580000Y-99326000D03*
X98630000Y-99326000D03*
X99480000Y-99326000D03*
X100530000Y-99326000D03*
X101380000Y-99326000D03*
%TD*%
D18*
%TO.C,R9*%
X85979000Y-126136500D03*
X85979000Y-124561500D03*
%TD*%
%TO.C,R10*%
X85979000Y-129184500D03*
X85979000Y-127609500D03*
%TD*%
D26*
%TO.C,U2*%
X78932000Y-124968000D03*
X78932000Y-126238000D03*
X78932000Y-127508000D03*
X78932000Y-128778000D03*
X83882000Y-128778000D03*
X83882000Y-127508000D03*
X83882000Y-126238000D03*
X83882000Y-124968000D03*
%TD*%
D18*
%TO.C,R4*%
X76835000Y-126136500D03*
X76835000Y-124561500D03*
%TD*%
D27*
%TO.C,D4*%
X75108000Y-151491387D03*
D28*
X78299000Y-151491387D03*
%TD*%
D29*
%TO.C,BT1*%
X97155000Y-117124000D03*
X97155000Y-133524000D03*
%TD*%
D30*
%TO.C,U6*%
X101833400Y-75369400D03*
X101033400Y-75369400D03*
X100233400Y-75369400D03*
X99433400Y-75369400D03*
X99433400Y-72969400D03*
X100233400Y-72969400D03*
X101033400Y-72969400D03*
X101833400Y-72969400D03*
%TD*%
D11*
%TO.C,R15*%
X99365000Y-80010000D03*
X97790000Y-80010000D03*
%TD*%
D31*
%TO.C,U5*%
X81095000Y-47120000D03*
X86545000Y-47120000D03*
D32*
X81395000Y-50150000D03*
X86245000Y-50150000D03*
D33*
X84404100Y-76820000D03*
D34*
X86944100Y-76820000D03*
X89484100Y-76820000D03*
D35*
X83820000Y-50120000D03*
X84820000Y-46820000D03*
X82820000Y-46820000D03*
X81320000Y-55120000D03*
X81320000Y-57620000D03*
X81320000Y-60120000D03*
%TD*%
D36*
%TO.C,D2*%
X73672700Y-138115800D03*
X77457300Y-138115800D03*
%TD*%
%TO.C,D3*%
X73672700Y-142621000D03*
X77457300Y-142621000D03*
%TD*%
D37*
%TO.C,C2*%
X72636401Y-153299400D03*
X72636401Y-151424400D03*
%TD*%
D38*
%TO.C,U3*%
X70061000Y-141285000D03*
X70061000Y-140335000D03*
X70061000Y-139385000D03*
X67861000Y-139385000D03*
X67861000Y-141285000D03*
%TD*%
D39*
%TO.C,D1*%
X80789000Y-142063100D03*
X80789000Y-138278500D03*
%TD*%
D18*
%TO.C,R5*%
X76835000Y-129184500D03*
X76835000Y-127609500D03*
%TD*%
D15*
%TO.C,J2*%
X64735000Y-123587000D03*
X64735000Y-121587000D03*
D16*
X70485000Y-125937000D03*
X70485000Y-119237000D03*
%TD*%
M02*
