%TF.GenerationSoftware,KiCad,Pcbnew,8.0.1-rc1*%
%TF.CreationDate,2024-11-12T19:52:42-06:00*%
%TF.ProjectId,Cutdown,43757464-6f77-46e2-9e6b-696361645f70,2.1.0*%
%TF.SameCoordinates,Original*%
%TF.FileFunction,Legend,Top*%
%TF.FilePolarity,Positive*%
%FSLAX46Y46*%
G04 Gerber Fmt 4.6, Leading zero omitted, Abs format (unit mm)*
G04 Created by KiCad (PCBNEW 8.0.1-rc1) date 2024-11-12 19:52:42*
%MOMM*%
%LPD*%
G01*
G04 APERTURE LIST*
%ADD10C,0.300000*%
%ADD11C,0.150000*%
%ADD12C,0.120000*%
%ADD13C,0.127000*%
%ADD14C,1.000000*%
%ADD15C,0.500000*%
%ADD16C,0.152400*%
%ADD17C,0.508000*%
%ADD18C,0.000000*%
%ADD19C,0.063500*%
%ADD20C,0.200000*%
%ADD21C,0.010000*%
G04 APERTURE END LIST*
D10*
X75714500Y-168216727D02*
X75774976Y-168035298D01*
X75774976Y-168035298D02*
X75774976Y-167732917D01*
X75774976Y-167732917D02*
X75714500Y-167611965D01*
X75714500Y-167611965D02*
X75654023Y-167551489D01*
X75654023Y-167551489D02*
X75533071Y-167491012D01*
X75533071Y-167491012D02*
X75412119Y-167491012D01*
X75412119Y-167491012D02*
X75291166Y-167551489D01*
X75291166Y-167551489D02*
X75230690Y-167611965D01*
X75230690Y-167611965D02*
X75170214Y-167732917D01*
X75170214Y-167732917D02*
X75109738Y-167974822D01*
X75109738Y-167974822D02*
X75049261Y-168095774D01*
X75049261Y-168095774D02*
X74988785Y-168156251D01*
X74988785Y-168156251D02*
X74867833Y-168216727D01*
X74867833Y-168216727D02*
X74746880Y-168216727D01*
X74746880Y-168216727D02*
X74625928Y-168156251D01*
X74625928Y-168156251D02*
X74565452Y-168095774D01*
X74565452Y-168095774D02*
X74504976Y-167974822D01*
X74504976Y-167974822D02*
X74504976Y-167672441D01*
X74504976Y-167672441D02*
X74565452Y-167491012D01*
X74928309Y-167067679D02*
X75774976Y-166825774D01*
X75774976Y-166825774D02*
X75170214Y-166583869D01*
X75170214Y-166583869D02*
X75774976Y-166341965D01*
X75774976Y-166341965D02*
X74928309Y-166100060D01*
X75774976Y-165616251D02*
X74928309Y-165616251D01*
X74504976Y-165616251D02*
X74565452Y-165676727D01*
X74565452Y-165676727D02*
X74625928Y-165616251D01*
X74625928Y-165616251D02*
X74565452Y-165555774D01*
X74565452Y-165555774D02*
X74504976Y-165616251D01*
X74504976Y-165616251D02*
X74625928Y-165616251D01*
X74928309Y-165192917D02*
X74928309Y-164709108D01*
X74504976Y-165011489D02*
X75593547Y-165011489D01*
X75593547Y-165011489D02*
X75714500Y-164951012D01*
X75714500Y-164951012D02*
X75774976Y-164830060D01*
X75774976Y-164830060D02*
X75774976Y-164709108D01*
X75714500Y-163741489D02*
X75774976Y-163862441D01*
X75774976Y-163862441D02*
X75774976Y-164104346D01*
X75774976Y-164104346D02*
X75714500Y-164225298D01*
X75714500Y-164225298D02*
X75654023Y-164285775D01*
X75654023Y-164285775D02*
X75533071Y-164346251D01*
X75533071Y-164346251D02*
X75170214Y-164346251D01*
X75170214Y-164346251D02*
X75049261Y-164285775D01*
X75049261Y-164285775D02*
X74988785Y-164225298D01*
X74988785Y-164225298D02*
X74928309Y-164104346D01*
X74928309Y-164104346D02*
X74928309Y-163862441D01*
X74928309Y-163862441D02*
X74988785Y-163741489D01*
X75774976Y-163197204D02*
X74504976Y-163197204D01*
X75774976Y-162652918D02*
X75109738Y-162652918D01*
X75109738Y-162652918D02*
X74988785Y-162713394D01*
X74988785Y-162713394D02*
X74928309Y-162834346D01*
X74928309Y-162834346D02*
X74928309Y-163015775D01*
X74928309Y-163015775D02*
X74988785Y-163136727D01*
X74988785Y-163136727D02*
X75049261Y-163197204D01*
X74794900Y-102585761D02*
X74855376Y-102404332D01*
X74855376Y-102404332D02*
X74855376Y-102101951D01*
X74855376Y-102101951D02*
X74794900Y-101980999D01*
X74794900Y-101980999D02*
X74734423Y-101920523D01*
X74734423Y-101920523D02*
X74613471Y-101860046D01*
X74613471Y-101860046D02*
X74492519Y-101860046D01*
X74492519Y-101860046D02*
X74371566Y-101920523D01*
X74371566Y-101920523D02*
X74311090Y-101980999D01*
X74311090Y-101980999D02*
X74250614Y-102101951D01*
X74250614Y-102101951D02*
X74190138Y-102343856D01*
X74190138Y-102343856D02*
X74129661Y-102464808D01*
X74129661Y-102464808D02*
X74069185Y-102525285D01*
X74069185Y-102525285D02*
X73948233Y-102585761D01*
X73948233Y-102585761D02*
X73827280Y-102585761D01*
X73827280Y-102585761D02*
X73706328Y-102525285D01*
X73706328Y-102525285D02*
X73645852Y-102464808D01*
X73645852Y-102464808D02*
X73585376Y-102343856D01*
X73585376Y-102343856D02*
X73585376Y-102041475D01*
X73585376Y-102041475D02*
X73645852Y-101860046D01*
X74794900Y-100831951D02*
X74855376Y-100952903D01*
X74855376Y-100952903D02*
X74855376Y-101194808D01*
X74855376Y-101194808D02*
X74794900Y-101315761D01*
X74794900Y-101315761D02*
X74673947Y-101376237D01*
X74673947Y-101376237D02*
X74190138Y-101376237D01*
X74190138Y-101376237D02*
X74069185Y-101315761D01*
X74069185Y-101315761D02*
X74008709Y-101194808D01*
X74008709Y-101194808D02*
X74008709Y-100952903D01*
X74008709Y-100952903D02*
X74069185Y-100831951D01*
X74069185Y-100831951D02*
X74190138Y-100771475D01*
X74190138Y-100771475D02*
X74311090Y-100771475D01*
X74311090Y-100771475D02*
X74432042Y-101376237D01*
X74855376Y-100227190D02*
X74008709Y-100227190D01*
X74250614Y-100227190D02*
X74129661Y-100166713D01*
X74129661Y-100166713D02*
X74069185Y-100106237D01*
X74069185Y-100106237D02*
X74008709Y-99985285D01*
X74008709Y-99985285D02*
X74008709Y-99864332D01*
X74855376Y-99441000D02*
X74008709Y-99441000D01*
X73585376Y-99441000D02*
X73645852Y-99501476D01*
X73645852Y-99501476D02*
X73706328Y-99441000D01*
X73706328Y-99441000D02*
X73645852Y-99380523D01*
X73645852Y-99380523D02*
X73585376Y-99441000D01*
X73585376Y-99441000D02*
X73706328Y-99441000D01*
X74855376Y-98291952D02*
X74190138Y-98291952D01*
X74190138Y-98291952D02*
X74069185Y-98352428D01*
X74069185Y-98352428D02*
X74008709Y-98473380D01*
X74008709Y-98473380D02*
X74008709Y-98715285D01*
X74008709Y-98715285D02*
X74069185Y-98836238D01*
X74794900Y-98291952D02*
X74855376Y-98412904D01*
X74855376Y-98412904D02*
X74855376Y-98715285D01*
X74855376Y-98715285D02*
X74794900Y-98836238D01*
X74794900Y-98836238D02*
X74673947Y-98896714D01*
X74673947Y-98896714D02*
X74552995Y-98896714D01*
X74552995Y-98896714D02*
X74432042Y-98836238D01*
X74432042Y-98836238D02*
X74371566Y-98715285D01*
X74371566Y-98715285D02*
X74371566Y-98412904D01*
X74371566Y-98412904D02*
X74311090Y-98291952D01*
X74855376Y-97505761D02*
X74794900Y-97626713D01*
X74794900Y-97626713D02*
X74673947Y-97687190D01*
X74673947Y-97687190D02*
X73585376Y-97687190D01*
X74190138Y-130743476D02*
X74190138Y-130320142D01*
X74855376Y-130138714D02*
X74855376Y-130743476D01*
X74855376Y-130743476D02*
X73585376Y-130743476D01*
X73585376Y-130743476D02*
X73585376Y-130138714D01*
X73585376Y-129715380D02*
X74855376Y-128868713D01*
X73585376Y-128868713D02*
X74855376Y-129715380D01*
X73585376Y-128566332D02*
X73585376Y-127840618D01*
X74855376Y-128203475D02*
X73585376Y-128203475D01*
X73706328Y-127477761D02*
X73645852Y-127417285D01*
X73645852Y-127417285D02*
X73585376Y-127296332D01*
X73585376Y-127296332D02*
X73585376Y-126993951D01*
X73585376Y-126993951D02*
X73645852Y-126872999D01*
X73645852Y-126872999D02*
X73706328Y-126812523D01*
X73706328Y-126812523D02*
X73827280Y-126752046D01*
X73827280Y-126752046D02*
X73948233Y-126752046D01*
X73948233Y-126752046D02*
X74129661Y-126812523D01*
X74129661Y-126812523D02*
X74855376Y-127538237D01*
X74855376Y-127538237D02*
X74855376Y-126752046D01*
X79609166Y-167394251D02*
X79609166Y-166426632D01*
X80092976Y-166910441D02*
X79125357Y-166910441D01*
X80092976Y-165761393D02*
X80092976Y-165519489D01*
X80092976Y-165519489D02*
X80032500Y-165398536D01*
X80032500Y-165398536D02*
X79972023Y-165338060D01*
X79972023Y-165338060D02*
X79790595Y-165217108D01*
X79790595Y-165217108D02*
X79548690Y-165156631D01*
X79548690Y-165156631D02*
X79064880Y-165156631D01*
X79064880Y-165156631D02*
X78943928Y-165217108D01*
X78943928Y-165217108D02*
X78883452Y-165277584D01*
X78883452Y-165277584D02*
X78822976Y-165398536D01*
X78822976Y-165398536D02*
X78822976Y-165640441D01*
X78822976Y-165640441D02*
X78883452Y-165761393D01*
X78883452Y-165761393D02*
X78943928Y-165821870D01*
X78943928Y-165821870D02*
X79064880Y-165882346D01*
X79064880Y-165882346D02*
X79367261Y-165882346D01*
X79367261Y-165882346D02*
X79488214Y-165821870D01*
X79488214Y-165821870D02*
X79548690Y-165761393D01*
X79548690Y-165761393D02*
X79609166Y-165640441D01*
X79609166Y-165640441D02*
X79609166Y-165398536D01*
X79609166Y-165398536D02*
X79548690Y-165277584D01*
X79548690Y-165277584D02*
X79488214Y-165217108D01*
X79488214Y-165217108D02*
X79367261Y-165156631D01*
X78822976Y-164793774D02*
X80092976Y-164370441D01*
X80092976Y-164370441D02*
X78822976Y-163947107D01*
X74190138Y-112963476D02*
X74190138Y-112540142D01*
X74855376Y-112358714D02*
X74855376Y-112963476D01*
X74855376Y-112963476D02*
X73585376Y-112963476D01*
X73585376Y-112963476D02*
X73585376Y-112358714D01*
X73585376Y-111935380D02*
X74855376Y-111088713D01*
X73585376Y-111088713D02*
X74855376Y-111935380D01*
X73585376Y-110786332D02*
X73585376Y-110060618D01*
X74855376Y-110423475D02*
X73585376Y-110423475D01*
X74855376Y-108972046D02*
X74855376Y-109697761D01*
X74855376Y-109334904D02*
X73585376Y-109334904D01*
X73585376Y-109334904D02*
X73766804Y-109455856D01*
X73766804Y-109455856D02*
X73887757Y-109576808D01*
X73887757Y-109576808D02*
X73948233Y-109697761D01*
X71650500Y-168216727D02*
X71710976Y-168035298D01*
X71710976Y-168035298D02*
X71710976Y-167732917D01*
X71710976Y-167732917D02*
X71650500Y-167611965D01*
X71650500Y-167611965D02*
X71590023Y-167551489D01*
X71590023Y-167551489D02*
X71469071Y-167491012D01*
X71469071Y-167491012D02*
X71348119Y-167491012D01*
X71348119Y-167491012D02*
X71227166Y-167551489D01*
X71227166Y-167551489D02*
X71166690Y-167611965D01*
X71166690Y-167611965D02*
X71106214Y-167732917D01*
X71106214Y-167732917D02*
X71045738Y-167974822D01*
X71045738Y-167974822D02*
X70985261Y-168095774D01*
X70985261Y-168095774D02*
X70924785Y-168156251D01*
X70924785Y-168156251D02*
X70803833Y-168216727D01*
X70803833Y-168216727D02*
X70682880Y-168216727D01*
X70682880Y-168216727D02*
X70561928Y-168156251D01*
X70561928Y-168156251D02*
X70501452Y-168095774D01*
X70501452Y-168095774D02*
X70440976Y-167974822D01*
X70440976Y-167974822D02*
X70440976Y-167672441D01*
X70440976Y-167672441D02*
X70501452Y-167491012D01*
X70864309Y-167067679D02*
X71710976Y-166825774D01*
X71710976Y-166825774D02*
X71106214Y-166583869D01*
X71106214Y-166583869D02*
X71710976Y-166341965D01*
X71710976Y-166341965D02*
X70864309Y-166100060D01*
X71710976Y-165616251D02*
X70864309Y-165616251D01*
X70440976Y-165616251D02*
X70501452Y-165676727D01*
X70501452Y-165676727D02*
X70561928Y-165616251D01*
X70561928Y-165616251D02*
X70501452Y-165555774D01*
X70501452Y-165555774D02*
X70440976Y-165616251D01*
X70440976Y-165616251D02*
X70561928Y-165616251D01*
X70864309Y-165192917D02*
X70864309Y-164709108D01*
X70440976Y-165011489D02*
X71529547Y-165011489D01*
X71529547Y-165011489D02*
X71650500Y-164951012D01*
X71650500Y-164951012D02*
X71710976Y-164830060D01*
X71710976Y-164830060D02*
X71710976Y-164709108D01*
X71650500Y-163741489D02*
X71710976Y-163862441D01*
X71710976Y-163862441D02*
X71710976Y-164104346D01*
X71710976Y-164104346D02*
X71650500Y-164225298D01*
X71650500Y-164225298D02*
X71590023Y-164285775D01*
X71590023Y-164285775D02*
X71469071Y-164346251D01*
X71469071Y-164346251D02*
X71106214Y-164346251D01*
X71106214Y-164346251D02*
X70985261Y-164285775D01*
X70985261Y-164285775D02*
X70924785Y-164225298D01*
X70924785Y-164225298D02*
X70864309Y-164104346D01*
X70864309Y-164104346D02*
X70864309Y-163862441D01*
X70864309Y-163862441D02*
X70924785Y-163741489D01*
X71710976Y-163197204D02*
X70440976Y-163197204D01*
X71710976Y-162652918D02*
X71045738Y-162652918D01*
X71045738Y-162652918D02*
X70924785Y-162713394D01*
X70924785Y-162713394D02*
X70864309Y-162834346D01*
X70864309Y-162834346D02*
X70864309Y-163015775D01*
X70864309Y-163015775D02*
X70924785Y-163136727D01*
X70924785Y-163136727D02*
X70985261Y-163197204D01*
X68785801Y-48292164D02*
X68785801Y-47577878D01*
X68785801Y-47577878D02*
X70285801Y-47577878D01*
X68857230Y-49363593D02*
X68785801Y-49220736D01*
X68785801Y-49220736D02*
X68785801Y-48935022D01*
X68785801Y-48935022D02*
X68857230Y-48792164D01*
X68857230Y-48792164D02*
X69000087Y-48720736D01*
X69000087Y-48720736D02*
X69571515Y-48720736D01*
X69571515Y-48720736D02*
X69714372Y-48792164D01*
X69714372Y-48792164D02*
X69785801Y-48935022D01*
X69785801Y-48935022D02*
X69785801Y-49220736D01*
X69785801Y-49220736D02*
X69714372Y-49363593D01*
X69714372Y-49363593D02*
X69571515Y-49435022D01*
X69571515Y-49435022D02*
X69428658Y-49435022D01*
X69428658Y-49435022D02*
X69285801Y-48720736D01*
X68857230Y-50649307D02*
X68785801Y-50506450D01*
X68785801Y-50506450D02*
X68785801Y-50220736D01*
X68785801Y-50220736D02*
X68857230Y-50077878D01*
X68857230Y-50077878D02*
X69000087Y-50006450D01*
X69000087Y-50006450D02*
X69571515Y-50006450D01*
X69571515Y-50006450D02*
X69714372Y-50077878D01*
X69714372Y-50077878D02*
X69785801Y-50220736D01*
X69785801Y-50220736D02*
X69785801Y-50506450D01*
X69785801Y-50506450D02*
X69714372Y-50649307D01*
X69714372Y-50649307D02*
X69571515Y-50720736D01*
X69571515Y-50720736D02*
X69428658Y-50720736D01*
X69428658Y-50720736D02*
X69285801Y-50006450D01*
X68785801Y-51363592D02*
X69785801Y-51363592D01*
X69642944Y-51363592D02*
X69714372Y-51435021D01*
X69714372Y-51435021D02*
X69785801Y-51577878D01*
X69785801Y-51577878D02*
X69785801Y-51792164D01*
X69785801Y-51792164D02*
X69714372Y-51935021D01*
X69714372Y-51935021D02*
X69571515Y-52006450D01*
X69571515Y-52006450D02*
X68785801Y-52006450D01*
X69571515Y-52006450D02*
X69714372Y-52077878D01*
X69714372Y-52077878D02*
X69785801Y-52220735D01*
X69785801Y-52220735D02*
X69785801Y-52435021D01*
X69785801Y-52435021D02*
X69714372Y-52577878D01*
X69714372Y-52577878D02*
X69571515Y-52649307D01*
X69571515Y-52649307D02*
X68785801Y-52649307D01*
X68785801Y-54006450D02*
X69571515Y-54006450D01*
X69571515Y-54006450D02*
X69714372Y-53935021D01*
X69714372Y-53935021D02*
X69785801Y-53792164D01*
X69785801Y-53792164D02*
X69785801Y-53506450D01*
X69785801Y-53506450D02*
X69714372Y-53363592D01*
X68857230Y-54006450D02*
X68785801Y-53863592D01*
X68785801Y-53863592D02*
X68785801Y-53506450D01*
X68785801Y-53506450D02*
X68857230Y-53363592D01*
X68857230Y-53363592D02*
X69000087Y-53292164D01*
X69000087Y-53292164D02*
X69142944Y-53292164D01*
X69142944Y-53292164D02*
X69285801Y-53363592D01*
X69285801Y-53363592D02*
X69357230Y-53506450D01*
X69357230Y-53506450D02*
X69357230Y-53863592D01*
X69357230Y-53863592D02*
X69428658Y-54006450D01*
X69785801Y-54720735D02*
X68785801Y-54720735D01*
X69642944Y-54720735D02*
X69714372Y-54792164D01*
X69714372Y-54792164D02*
X69785801Y-54935021D01*
X69785801Y-54935021D02*
X69785801Y-55149307D01*
X69785801Y-55149307D02*
X69714372Y-55292164D01*
X69714372Y-55292164D02*
X69571515Y-55363593D01*
X69571515Y-55363593D02*
X68785801Y-55363593D01*
X70214372Y-58006450D02*
X70285801Y-57863593D01*
X70285801Y-57863593D02*
X70285801Y-57649307D01*
X70285801Y-57649307D02*
X70214372Y-57435021D01*
X70214372Y-57435021D02*
X70071515Y-57292164D01*
X70071515Y-57292164D02*
X69928658Y-57220735D01*
X69928658Y-57220735D02*
X69642944Y-57149307D01*
X69642944Y-57149307D02*
X69428658Y-57149307D01*
X69428658Y-57149307D02*
X69142944Y-57220735D01*
X69142944Y-57220735D02*
X69000087Y-57292164D01*
X69000087Y-57292164D02*
X68857230Y-57435021D01*
X68857230Y-57435021D02*
X68785801Y-57649307D01*
X68785801Y-57649307D02*
X68785801Y-57792164D01*
X68785801Y-57792164D02*
X68857230Y-58006450D01*
X68857230Y-58006450D02*
X68928658Y-58077878D01*
X68928658Y-58077878D02*
X69428658Y-58077878D01*
X69428658Y-58077878D02*
X69428658Y-57792164D01*
X68857230Y-59292164D02*
X68785801Y-59149307D01*
X68785801Y-59149307D02*
X68785801Y-58863593D01*
X68785801Y-58863593D02*
X68857230Y-58720735D01*
X68857230Y-58720735D02*
X69000087Y-58649307D01*
X69000087Y-58649307D02*
X69571515Y-58649307D01*
X69571515Y-58649307D02*
X69714372Y-58720735D01*
X69714372Y-58720735D02*
X69785801Y-58863593D01*
X69785801Y-58863593D02*
X69785801Y-59149307D01*
X69785801Y-59149307D02*
X69714372Y-59292164D01*
X69714372Y-59292164D02*
X69571515Y-59363593D01*
X69571515Y-59363593D02*
X69428658Y-59363593D01*
X69428658Y-59363593D02*
X69285801Y-58649307D01*
X68785801Y-60220735D02*
X68857230Y-60077878D01*
X68857230Y-60077878D02*
X68928658Y-60006449D01*
X68928658Y-60006449D02*
X69071515Y-59935021D01*
X69071515Y-59935021D02*
X69500087Y-59935021D01*
X69500087Y-59935021D02*
X69642944Y-60006449D01*
X69642944Y-60006449D02*
X69714372Y-60077878D01*
X69714372Y-60077878D02*
X69785801Y-60220735D01*
X69785801Y-60220735D02*
X69785801Y-60435021D01*
X69785801Y-60435021D02*
X69714372Y-60577878D01*
X69714372Y-60577878D02*
X69642944Y-60649307D01*
X69642944Y-60649307D02*
X69500087Y-60720735D01*
X69500087Y-60720735D02*
X69071515Y-60720735D01*
X69071515Y-60720735D02*
X68928658Y-60649307D01*
X68928658Y-60649307D02*
X68857230Y-60577878D01*
X68857230Y-60577878D02*
X68785801Y-60435021D01*
X68785801Y-60435021D02*
X68785801Y-60220735D01*
X69785801Y-61363592D02*
X68285801Y-61363592D01*
X69714372Y-61363592D02*
X69785801Y-61506450D01*
X69785801Y-61506450D02*
X69785801Y-61792164D01*
X69785801Y-61792164D02*
X69714372Y-61935021D01*
X69714372Y-61935021D02*
X69642944Y-62006450D01*
X69642944Y-62006450D02*
X69500087Y-62077878D01*
X69500087Y-62077878D02*
X69071515Y-62077878D01*
X69071515Y-62077878D02*
X68928658Y-62006450D01*
X68928658Y-62006450D02*
X68857230Y-61935021D01*
X68857230Y-61935021D02*
X68785801Y-61792164D01*
X68785801Y-61792164D02*
X68785801Y-61506450D01*
X68785801Y-61506450D02*
X68857230Y-61363592D01*
X68785801Y-62720735D02*
X70285801Y-62720735D01*
X68785801Y-63363593D02*
X69571515Y-63363593D01*
X69571515Y-63363593D02*
X69714372Y-63292164D01*
X69714372Y-63292164D02*
X69785801Y-63149307D01*
X69785801Y-63149307D02*
X69785801Y-62935021D01*
X69785801Y-62935021D02*
X69714372Y-62792164D01*
X69714372Y-62792164D02*
X69642944Y-62720735D01*
X69785801Y-63935021D02*
X68785801Y-64292164D01*
X69785801Y-64649307D02*
X68785801Y-64292164D01*
X68785801Y-64292164D02*
X68428658Y-64149307D01*
X68428658Y-64149307D02*
X68357230Y-64077878D01*
X68357230Y-64077878D02*
X68285801Y-63935021D01*
X68857230Y-65149307D02*
X68785801Y-65292164D01*
X68785801Y-65292164D02*
X68785801Y-65577878D01*
X68785801Y-65577878D02*
X68857230Y-65720735D01*
X68857230Y-65720735D02*
X69000087Y-65792164D01*
X69000087Y-65792164D02*
X69071515Y-65792164D01*
X69071515Y-65792164D02*
X69214372Y-65720735D01*
X69214372Y-65720735D02*
X69285801Y-65577878D01*
X69285801Y-65577878D02*
X69285801Y-65363593D01*
X69285801Y-65363593D02*
X69357230Y-65220735D01*
X69357230Y-65220735D02*
X69500087Y-65149307D01*
X69500087Y-65149307D02*
X69571515Y-65149307D01*
X69571515Y-65149307D02*
X69714372Y-65220735D01*
X69714372Y-65220735D02*
X69785801Y-65363593D01*
X69785801Y-65363593D02*
X69785801Y-65577878D01*
X69785801Y-65577878D02*
X69714372Y-65720735D01*
X68785801Y-66435021D02*
X69785801Y-66435021D01*
X70285801Y-66435021D02*
X70214372Y-66363593D01*
X70214372Y-66363593D02*
X70142944Y-66435021D01*
X70142944Y-66435021D02*
X70214372Y-66506450D01*
X70214372Y-66506450D02*
X70285801Y-66435021D01*
X70285801Y-66435021D02*
X70142944Y-66435021D01*
X68857230Y-67792165D02*
X68785801Y-67649307D01*
X68785801Y-67649307D02*
X68785801Y-67363593D01*
X68785801Y-67363593D02*
X68857230Y-67220736D01*
X68857230Y-67220736D02*
X68928658Y-67149307D01*
X68928658Y-67149307D02*
X69071515Y-67077879D01*
X69071515Y-67077879D02*
X69500087Y-67077879D01*
X69500087Y-67077879D02*
X69642944Y-67149307D01*
X69642944Y-67149307D02*
X69714372Y-67220736D01*
X69714372Y-67220736D02*
X69785801Y-67363593D01*
X69785801Y-67363593D02*
X69785801Y-67649307D01*
X69785801Y-67649307D02*
X69714372Y-67792165D01*
X68785801Y-69077879D02*
X69571515Y-69077879D01*
X69571515Y-69077879D02*
X69714372Y-69006450D01*
X69714372Y-69006450D02*
X69785801Y-68863593D01*
X69785801Y-68863593D02*
X69785801Y-68577879D01*
X69785801Y-68577879D02*
X69714372Y-68435021D01*
X68857230Y-69077879D02*
X68785801Y-68935021D01*
X68785801Y-68935021D02*
X68785801Y-68577879D01*
X68785801Y-68577879D02*
X68857230Y-68435021D01*
X68857230Y-68435021D02*
X69000087Y-68363593D01*
X69000087Y-68363593D02*
X69142944Y-68363593D01*
X69142944Y-68363593D02*
X69285801Y-68435021D01*
X69285801Y-68435021D02*
X69357230Y-68577879D01*
X69357230Y-68577879D02*
X69357230Y-68935021D01*
X69357230Y-68935021D02*
X69428658Y-69077879D01*
X68785801Y-70006450D02*
X68857230Y-69863593D01*
X68857230Y-69863593D02*
X69000087Y-69792164D01*
X69000087Y-69792164D02*
X70285801Y-69792164D01*
X68785801Y-72435021D02*
X68785801Y-71720735D01*
X68785801Y-71720735D02*
X70285801Y-71720735D01*
X68785801Y-73649307D02*
X68785801Y-72935021D01*
X68785801Y-72935021D02*
X70285801Y-72935021D01*
X68928658Y-75006450D02*
X68857230Y-74935022D01*
X68857230Y-74935022D02*
X68785801Y-74720736D01*
X68785801Y-74720736D02*
X68785801Y-74577879D01*
X68785801Y-74577879D02*
X68857230Y-74363593D01*
X68857230Y-74363593D02*
X69000087Y-74220736D01*
X69000087Y-74220736D02*
X69142944Y-74149307D01*
X69142944Y-74149307D02*
X69428658Y-74077879D01*
X69428658Y-74077879D02*
X69642944Y-74077879D01*
X69642944Y-74077879D02*
X69928658Y-74149307D01*
X69928658Y-74149307D02*
X70071515Y-74220736D01*
X70071515Y-74220736D02*
X70214372Y-74363593D01*
X70214372Y-74363593D02*
X70285801Y-74577879D01*
X70285801Y-74577879D02*
X70285801Y-74720736D01*
X70285801Y-74720736D02*
X70214372Y-74935022D01*
X70214372Y-74935022D02*
X70142944Y-75006450D01*
X66442314Y-47506450D02*
X66370885Y-47720736D01*
X66370885Y-47720736D02*
X66370885Y-48077878D01*
X66370885Y-48077878D02*
X66442314Y-48220736D01*
X66442314Y-48220736D02*
X66513742Y-48292164D01*
X66513742Y-48292164D02*
X66656599Y-48363593D01*
X66656599Y-48363593D02*
X66799456Y-48363593D01*
X66799456Y-48363593D02*
X66942314Y-48292164D01*
X66942314Y-48292164D02*
X67013742Y-48220736D01*
X67013742Y-48220736D02*
X67085171Y-48077878D01*
X67085171Y-48077878D02*
X67156599Y-47792164D01*
X67156599Y-47792164D02*
X67228028Y-47649307D01*
X67228028Y-47649307D02*
X67299456Y-47577878D01*
X67299456Y-47577878D02*
X67442314Y-47506450D01*
X67442314Y-47506450D02*
X67585171Y-47506450D01*
X67585171Y-47506450D02*
X67728028Y-47577878D01*
X67728028Y-47577878D02*
X67799456Y-47649307D01*
X67799456Y-47649307D02*
X67870885Y-47792164D01*
X67870885Y-47792164D02*
X67870885Y-48149307D01*
X67870885Y-48149307D02*
X67799456Y-48363593D01*
X66370885Y-49006449D02*
X67870885Y-49006449D01*
X66942314Y-49149307D02*
X66370885Y-49577878D01*
X67370885Y-49577878D02*
X66799456Y-49006449D01*
X67370885Y-50077878D02*
X66370885Y-50435021D01*
X67370885Y-50792164D02*
X66370885Y-50435021D01*
X66370885Y-50435021D02*
X66013742Y-50292164D01*
X66013742Y-50292164D02*
X65942314Y-50220735D01*
X65942314Y-50220735D02*
X65870885Y-50077878D01*
X67799456Y-52149307D02*
X67870885Y-52006450D01*
X67870885Y-52006450D02*
X67870885Y-51792164D01*
X67870885Y-51792164D02*
X67799456Y-51577878D01*
X67799456Y-51577878D02*
X67656599Y-51435021D01*
X67656599Y-51435021D02*
X67513742Y-51363592D01*
X67513742Y-51363592D02*
X67228028Y-51292164D01*
X67228028Y-51292164D02*
X67013742Y-51292164D01*
X67013742Y-51292164D02*
X66728028Y-51363592D01*
X66728028Y-51363592D02*
X66585171Y-51435021D01*
X66585171Y-51435021D02*
X66442314Y-51577878D01*
X66442314Y-51577878D02*
X66370885Y-51792164D01*
X66370885Y-51792164D02*
X66370885Y-51935021D01*
X66370885Y-51935021D02*
X66442314Y-52149307D01*
X66442314Y-52149307D02*
X66513742Y-52220735D01*
X66513742Y-52220735D02*
X67013742Y-52220735D01*
X67013742Y-52220735D02*
X67013742Y-51935021D01*
X67370885Y-53506450D02*
X66370885Y-53506450D01*
X67370885Y-52863592D02*
X66585171Y-52863592D01*
X66585171Y-52863592D02*
X66442314Y-52935021D01*
X66442314Y-52935021D02*
X66370885Y-53077878D01*
X66370885Y-53077878D02*
X66370885Y-53292164D01*
X66370885Y-53292164D02*
X66442314Y-53435021D01*
X66442314Y-53435021D02*
X66513742Y-53506450D01*
X66370885Y-54863593D02*
X67156599Y-54863593D01*
X67156599Y-54863593D02*
X67299456Y-54792164D01*
X67299456Y-54792164D02*
X67370885Y-54649307D01*
X67370885Y-54649307D02*
X67370885Y-54363593D01*
X67370885Y-54363593D02*
X67299456Y-54220735D01*
X66442314Y-54863593D02*
X66370885Y-54720735D01*
X66370885Y-54720735D02*
X66370885Y-54363593D01*
X66370885Y-54363593D02*
X66442314Y-54220735D01*
X66442314Y-54220735D02*
X66585171Y-54149307D01*
X66585171Y-54149307D02*
X66728028Y-54149307D01*
X66728028Y-54149307D02*
X66870885Y-54220735D01*
X66870885Y-54220735D02*
X66942314Y-54363593D01*
X66942314Y-54363593D02*
X66942314Y-54720735D01*
X66942314Y-54720735D02*
X67013742Y-54863593D01*
X66370885Y-55577878D02*
X67370885Y-55577878D01*
X67085171Y-55577878D02*
X67228028Y-55649307D01*
X67228028Y-55649307D02*
X67299456Y-55720736D01*
X67299456Y-55720736D02*
X67370885Y-55863593D01*
X67370885Y-55863593D02*
X67370885Y-56006450D01*
X66370885Y-57149307D02*
X67870885Y-57149307D01*
X66442314Y-57149307D02*
X66370885Y-57006449D01*
X66370885Y-57006449D02*
X66370885Y-56720735D01*
X66370885Y-56720735D02*
X66442314Y-56577878D01*
X66442314Y-56577878D02*
X66513742Y-56506449D01*
X66513742Y-56506449D02*
X66656599Y-56435021D01*
X66656599Y-56435021D02*
X67085171Y-56435021D01*
X67085171Y-56435021D02*
X67228028Y-56506449D01*
X67228028Y-56506449D02*
X67299456Y-56577878D01*
X67299456Y-56577878D02*
X67370885Y-56720735D01*
X67370885Y-56720735D02*
X67370885Y-57006449D01*
X67370885Y-57006449D02*
X67299456Y-57149307D01*
X66513742Y-59863592D02*
X66442314Y-59792164D01*
X66442314Y-59792164D02*
X66370885Y-59577878D01*
X66370885Y-59577878D02*
X66370885Y-59435021D01*
X66370885Y-59435021D02*
X66442314Y-59220735D01*
X66442314Y-59220735D02*
X66585171Y-59077878D01*
X66585171Y-59077878D02*
X66728028Y-59006449D01*
X66728028Y-59006449D02*
X67013742Y-58935021D01*
X67013742Y-58935021D02*
X67228028Y-58935021D01*
X67228028Y-58935021D02*
X67513742Y-59006449D01*
X67513742Y-59006449D02*
X67656599Y-59077878D01*
X67656599Y-59077878D02*
X67799456Y-59220735D01*
X67799456Y-59220735D02*
X67870885Y-59435021D01*
X67870885Y-59435021D02*
X67870885Y-59577878D01*
X67870885Y-59577878D02*
X67799456Y-59792164D01*
X67799456Y-59792164D02*
X67728028Y-59863592D01*
X67370885Y-61149307D02*
X66370885Y-61149307D01*
X67370885Y-60506449D02*
X66585171Y-60506449D01*
X66585171Y-60506449D02*
X66442314Y-60577878D01*
X66442314Y-60577878D02*
X66370885Y-60720735D01*
X66370885Y-60720735D02*
X66370885Y-60935021D01*
X66370885Y-60935021D02*
X66442314Y-61077878D01*
X66442314Y-61077878D02*
X66513742Y-61149307D01*
X67370885Y-61649307D02*
X67370885Y-62220735D01*
X67870885Y-61863592D02*
X66585171Y-61863592D01*
X66585171Y-61863592D02*
X66442314Y-61935021D01*
X66442314Y-61935021D02*
X66370885Y-62077878D01*
X66370885Y-62077878D02*
X66370885Y-62220735D01*
X66370885Y-63363593D02*
X67870885Y-63363593D01*
X66442314Y-63363593D02*
X66370885Y-63220735D01*
X66370885Y-63220735D02*
X66370885Y-62935021D01*
X66370885Y-62935021D02*
X66442314Y-62792164D01*
X66442314Y-62792164D02*
X66513742Y-62720735D01*
X66513742Y-62720735D02*
X66656599Y-62649307D01*
X66656599Y-62649307D02*
X67085171Y-62649307D01*
X67085171Y-62649307D02*
X67228028Y-62720735D01*
X67228028Y-62720735D02*
X67299456Y-62792164D01*
X67299456Y-62792164D02*
X67370885Y-62935021D01*
X67370885Y-62935021D02*
X67370885Y-63220735D01*
X67370885Y-63220735D02*
X67299456Y-63363593D01*
X66370885Y-64292164D02*
X66442314Y-64149307D01*
X66442314Y-64149307D02*
X66513742Y-64077878D01*
X66513742Y-64077878D02*
X66656599Y-64006450D01*
X66656599Y-64006450D02*
X67085171Y-64006450D01*
X67085171Y-64006450D02*
X67228028Y-64077878D01*
X67228028Y-64077878D02*
X67299456Y-64149307D01*
X67299456Y-64149307D02*
X67370885Y-64292164D01*
X67370885Y-64292164D02*
X67370885Y-64506450D01*
X67370885Y-64506450D02*
X67299456Y-64649307D01*
X67299456Y-64649307D02*
X67228028Y-64720736D01*
X67228028Y-64720736D02*
X67085171Y-64792164D01*
X67085171Y-64792164D02*
X66656599Y-64792164D01*
X66656599Y-64792164D02*
X66513742Y-64720736D01*
X66513742Y-64720736D02*
X66442314Y-64649307D01*
X66442314Y-64649307D02*
X66370885Y-64506450D01*
X66370885Y-64506450D02*
X66370885Y-64292164D01*
X67370885Y-65292164D02*
X66370885Y-65577879D01*
X66370885Y-65577879D02*
X67085171Y-65863593D01*
X67085171Y-65863593D02*
X66370885Y-66149307D01*
X66370885Y-66149307D02*
X67370885Y-66435021D01*
X67370885Y-67006450D02*
X66370885Y-67006450D01*
X67228028Y-67006450D02*
X67299456Y-67077879D01*
X67299456Y-67077879D02*
X67370885Y-67220736D01*
X67370885Y-67220736D02*
X67370885Y-67435022D01*
X67370885Y-67435022D02*
X67299456Y-67577879D01*
X67299456Y-67577879D02*
X67156599Y-67649308D01*
X67156599Y-67649308D02*
X66370885Y-67649308D01*
X66370885Y-69506450D02*
X67870885Y-69506450D01*
X67870885Y-69506450D02*
X67870885Y-70077879D01*
X67870885Y-70077879D02*
X67799456Y-70220736D01*
X67799456Y-70220736D02*
X67728028Y-70292165D01*
X67728028Y-70292165D02*
X67585171Y-70363593D01*
X67585171Y-70363593D02*
X67370885Y-70363593D01*
X67370885Y-70363593D02*
X67228028Y-70292165D01*
X67228028Y-70292165D02*
X67156599Y-70220736D01*
X67156599Y-70220736D02*
X67085171Y-70077879D01*
X67085171Y-70077879D02*
X67085171Y-69506450D01*
X66370885Y-71006450D02*
X67370885Y-71006450D01*
X67085171Y-71006450D02*
X67228028Y-71077879D01*
X67228028Y-71077879D02*
X67299456Y-71149308D01*
X67299456Y-71149308D02*
X67370885Y-71292165D01*
X67370885Y-71292165D02*
X67370885Y-71435022D01*
X66370885Y-72149307D02*
X66442314Y-72006450D01*
X66442314Y-72006450D02*
X66513742Y-71935021D01*
X66513742Y-71935021D02*
X66656599Y-71863593D01*
X66656599Y-71863593D02*
X67085171Y-71863593D01*
X67085171Y-71863593D02*
X67228028Y-71935021D01*
X67228028Y-71935021D02*
X67299456Y-72006450D01*
X67299456Y-72006450D02*
X67370885Y-72149307D01*
X67370885Y-72149307D02*
X67370885Y-72363593D01*
X67370885Y-72363593D02*
X67299456Y-72506450D01*
X67299456Y-72506450D02*
X67228028Y-72577879D01*
X67228028Y-72577879D02*
X67085171Y-72649307D01*
X67085171Y-72649307D02*
X66656599Y-72649307D01*
X66656599Y-72649307D02*
X66513742Y-72577879D01*
X66513742Y-72577879D02*
X66442314Y-72506450D01*
X66442314Y-72506450D02*
X66370885Y-72363593D01*
X66370885Y-72363593D02*
X66370885Y-72149307D01*
X63955969Y-48435021D02*
X64670255Y-47935021D01*
X63955969Y-47577878D02*
X65455969Y-47577878D01*
X65455969Y-47577878D02*
X65455969Y-48149307D01*
X65455969Y-48149307D02*
X65384540Y-48292164D01*
X65384540Y-48292164D02*
X65313112Y-48363593D01*
X65313112Y-48363593D02*
X65170255Y-48435021D01*
X65170255Y-48435021D02*
X64955969Y-48435021D01*
X64955969Y-48435021D02*
X64813112Y-48363593D01*
X64813112Y-48363593D02*
X64741683Y-48292164D01*
X64741683Y-48292164D02*
X64670255Y-48149307D01*
X64670255Y-48149307D02*
X64670255Y-47577878D01*
X64027398Y-49649307D02*
X63955969Y-49506450D01*
X63955969Y-49506450D02*
X63955969Y-49220736D01*
X63955969Y-49220736D02*
X64027398Y-49077878D01*
X64027398Y-49077878D02*
X64170255Y-49006450D01*
X64170255Y-49006450D02*
X64741683Y-49006450D01*
X64741683Y-49006450D02*
X64884540Y-49077878D01*
X64884540Y-49077878D02*
X64955969Y-49220736D01*
X64955969Y-49220736D02*
X64955969Y-49506450D01*
X64955969Y-49506450D02*
X64884540Y-49649307D01*
X64884540Y-49649307D02*
X64741683Y-49720736D01*
X64741683Y-49720736D02*
X64598826Y-49720736D01*
X64598826Y-49720736D02*
X64455969Y-49006450D01*
X64955969Y-50220735D02*
X63955969Y-50577878D01*
X63955969Y-50577878D02*
X64955969Y-50935021D01*
X65313112Y-52577878D02*
X65384540Y-52649306D01*
X65384540Y-52649306D02*
X65455969Y-52792164D01*
X65455969Y-52792164D02*
X65455969Y-53149306D01*
X65455969Y-53149306D02*
X65384540Y-53292164D01*
X65384540Y-53292164D02*
X65313112Y-53363592D01*
X65313112Y-53363592D02*
X65170255Y-53435021D01*
X65170255Y-53435021D02*
X65027398Y-53435021D01*
X65027398Y-53435021D02*
X64813112Y-53363592D01*
X64813112Y-53363592D02*
X63955969Y-52506449D01*
X63955969Y-52506449D02*
X63955969Y-53435021D01*
X64098826Y-54077877D02*
X64027398Y-54149306D01*
X64027398Y-54149306D02*
X63955969Y-54077877D01*
X63955969Y-54077877D02*
X64027398Y-54006449D01*
X64027398Y-54006449D02*
X64098826Y-54077877D01*
X64098826Y-54077877D02*
X63955969Y-54077877D01*
X63955969Y-55577878D02*
X63955969Y-54720735D01*
X63955969Y-55149306D02*
X65455969Y-55149306D01*
X65455969Y-55149306D02*
X65241683Y-55006449D01*
X65241683Y-55006449D02*
X65098826Y-54863592D01*
X65098826Y-54863592D02*
X65027398Y-54720735D01*
X74190138Y-121853476D02*
X74190138Y-121430142D01*
X74855376Y-121248714D02*
X74855376Y-121853476D01*
X74855376Y-121853476D02*
X73585376Y-121853476D01*
X73585376Y-121853476D02*
X73585376Y-121248714D01*
X73585376Y-120825380D02*
X74855376Y-119978713D01*
X73585376Y-119978713D02*
X74855376Y-120825380D01*
X73585376Y-119676332D02*
X73585376Y-118950618D01*
X74855376Y-119313475D02*
X73585376Y-119313475D01*
X73706328Y-118587761D02*
X73645852Y-118527285D01*
X73645852Y-118527285D02*
X73585376Y-118406332D01*
X73585376Y-118406332D02*
X73585376Y-118103951D01*
X73585376Y-118103951D02*
X73645852Y-117982999D01*
X73645852Y-117982999D02*
X73706328Y-117922523D01*
X73706328Y-117922523D02*
X73827280Y-117862046D01*
X73827280Y-117862046D02*
X73948233Y-117862046D01*
X73948233Y-117862046D02*
X74129661Y-117922523D01*
X74129661Y-117922523D02*
X74855376Y-118648237D01*
X74855376Y-118648237D02*
X74855376Y-117862046D01*
X82947452Y-166729012D02*
X82886976Y-166849965D01*
X82886976Y-166849965D02*
X82886976Y-167031393D01*
X82886976Y-167031393D02*
X82947452Y-167212822D01*
X82947452Y-167212822D02*
X83068404Y-167333774D01*
X83068404Y-167333774D02*
X83189357Y-167394251D01*
X83189357Y-167394251D02*
X83431261Y-167454727D01*
X83431261Y-167454727D02*
X83612690Y-167454727D01*
X83612690Y-167454727D02*
X83854595Y-167394251D01*
X83854595Y-167394251D02*
X83975547Y-167333774D01*
X83975547Y-167333774D02*
X84096500Y-167212822D01*
X84096500Y-167212822D02*
X84156976Y-167031393D01*
X84156976Y-167031393D02*
X84156976Y-166910441D01*
X84156976Y-166910441D02*
X84096500Y-166729012D01*
X84096500Y-166729012D02*
X84036023Y-166668536D01*
X84036023Y-166668536D02*
X83612690Y-166668536D01*
X83612690Y-166668536D02*
X83612690Y-166910441D01*
X84156976Y-166124251D02*
X82886976Y-166124251D01*
X82886976Y-166124251D02*
X84156976Y-165398536D01*
X84156976Y-165398536D02*
X82886976Y-165398536D01*
X84156976Y-164793775D02*
X82886976Y-164793775D01*
X82886976Y-164793775D02*
X82886976Y-164491394D01*
X82886976Y-164491394D02*
X82947452Y-164309965D01*
X82947452Y-164309965D02*
X83068404Y-164189013D01*
X83068404Y-164189013D02*
X83189357Y-164128536D01*
X83189357Y-164128536D02*
X83431261Y-164068060D01*
X83431261Y-164068060D02*
X83612690Y-164068060D01*
X83612690Y-164068060D02*
X83854595Y-164128536D01*
X83854595Y-164128536D02*
X83975547Y-164189013D01*
X83975547Y-164189013D02*
X84096500Y-164309965D01*
X84096500Y-164309965D02*
X84156976Y-164491394D01*
X84156976Y-164491394D02*
X84156976Y-164793775D01*
D11*
X85830580Y-89796857D02*
X85878200Y-89844476D01*
X85878200Y-89844476D02*
X85925819Y-89987333D01*
X85925819Y-89987333D02*
X85925819Y-90082571D01*
X85925819Y-90082571D02*
X85878200Y-90225428D01*
X85878200Y-90225428D02*
X85782961Y-90320666D01*
X85782961Y-90320666D02*
X85687723Y-90368285D01*
X85687723Y-90368285D02*
X85497247Y-90415904D01*
X85497247Y-90415904D02*
X85354390Y-90415904D01*
X85354390Y-90415904D02*
X85163914Y-90368285D01*
X85163914Y-90368285D02*
X85068676Y-90320666D01*
X85068676Y-90320666D02*
X84973438Y-90225428D01*
X84973438Y-90225428D02*
X84925819Y-90082571D01*
X84925819Y-90082571D02*
X84925819Y-89987333D01*
X84925819Y-89987333D02*
X84973438Y-89844476D01*
X84973438Y-89844476D02*
X85021057Y-89796857D01*
X85925819Y-88844476D02*
X85925819Y-89415904D01*
X85925819Y-89130190D02*
X84925819Y-89130190D01*
X84925819Y-89130190D02*
X85068676Y-89225428D01*
X85068676Y-89225428D02*
X85163914Y-89320666D01*
X85163914Y-89320666D02*
X85211533Y-89415904D01*
X85925819Y-87892095D02*
X85925819Y-88463523D01*
X85925819Y-88177809D02*
X84925819Y-88177809D01*
X84925819Y-88177809D02*
X85068676Y-88273047D01*
X85068676Y-88273047D02*
X85163914Y-88368285D01*
X85163914Y-88368285D02*
X85211533Y-88463523D01*
X100957142Y-68018819D02*
X100623809Y-67542628D01*
X100385714Y-68018819D02*
X100385714Y-67018819D01*
X100385714Y-67018819D02*
X100766666Y-67018819D01*
X100766666Y-67018819D02*
X100861904Y-67066438D01*
X100861904Y-67066438D02*
X100909523Y-67114057D01*
X100909523Y-67114057D02*
X100957142Y-67209295D01*
X100957142Y-67209295D02*
X100957142Y-67352152D01*
X100957142Y-67352152D02*
X100909523Y-67447390D01*
X100909523Y-67447390D02*
X100861904Y-67495009D01*
X100861904Y-67495009D02*
X100766666Y-67542628D01*
X100766666Y-67542628D02*
X100385714Y-67542628D01*
X101909523Y-68018819D02*
X101338095Y-68018819D01*
X101623809Y-68018819D02*
X101623809Y-67018819D01*
X101623809Y-67018819D02*
X101528571Y-67161676D01*
X101528571Y-67161676D02*
X101433333Y-67256914D01*
X101433333Y-67256914D02*
X101338095Y-67304533D01*
X102766666Y-67352152D02*
X102766666Y-68018819D01*
X102528571Y-66971200D02*
X102290476Y-67685485D01*
X102290476Y-67685485D02*
X102909523Y-67685485D01*
X81268658Y-154656558D02*
X80792467Y-154989891D01*
X81268658Y-155227986D02*
X80268658Y-155227986D01*
X80268658Y-155227986D02*
X80268658Y-154847034D01*
X80268658Y-154847034D02*
X80316277Y-154751796D01*
X80316277Y-154751796D02*
X80363896Y-154704177D01*
X80363896Y-154704177D02*
X80459134Y-154656558D01*
X80459134Y-154656558D02*
X80601991Y-154656558D01*
X80601991Y-154656558D02*
X80697229Y-154704177D01*
X80697229Y-154704177D02*
X80744848Y-154751796D01*
X80744848Y-154751796D02*
X80792467Y-154847034D01*
X80792467Y-154847034D02*
X80792467Y-155227986D01*
X80697229Y-154085129D02*
X80649610Y-154180367D01*
X80649610Y-154180367D02*
X80601991Y-154227986D01*
X80601991Y-154227986D02*
X80506753Y-154275605D01*
X80506753Y-154275605D02*
X80459134Y-154275605D01*
X80459134Y-154275605D02*
X80363896Y-154227986D01*
X80363896Y-154227986D02*
X80316277Y-154180367D01*
X80316277Y-154180367D02*
X80268658Y-154085129D01*
X80268658Y-154085129D02*
X80268658Y-153894653D01*
X80268658Y-153894653D02*
X80316277Y-153799415D01*
X80316277Y-153799415D02*
X80363896Y-153751796D01*
X80363896Y-153751796D02*
X80459134Y-153704177D01*
X80459134Y-153704177D02*
X80506753Y-153704177D01*
X80506753Y-153704177D02*
X80601991Y-153751796D01*
X80601991Y-153751796D02*
X80649610Y-153799415D01*
X80649610Y-153799415D02*
X80697229Y-153894653D01*
X80697229Y-153894653D02*
X80697229Y-154085129D01*
X80697229Y-154085129D02*
X80744848Y-154180367D01*
X80744848Y-154180367D02*
X80792467Y-154227986D01*
X80792467Y-154227986D02*
X80887705Y-154275605D01*
X80887705Y-154275605D02*
X81078181Y-154275605D01*
X81078181Y-154275605D02*
X81173419Y-154227986D01*
X81173419Y-154227986D02*
X81221039Y-154180367D01*
X81221039Y-154180367D02*
X81268658Y-154085129D01*
X81268658Y-154085129D02*
X81268658Y-153894653D01*
X81268658Y-153894653D02*
X81221039Y-153799415D01*
X81221039Y-153799415D02*
X81173419Y-153751796D01*
X81173419Y-153751796D02*
X81078181Y-153704177D01*
X81078181Y-153704177D02*
X80887705Y-153704177D01*
X80887705Y-153704177D02*
X80792467Y-153751796D01*
X80792467Y-153751796D02*
X80744848Y-153799415D01*
X80744848Y-153799415D02*
X80697229Y-153894653D01*
X81311761Y-126407057D02*
X81216523Y-126359438D01*
X81216523Y-126359438D02*
X81121285Y-126264200D01*
X81121285Y-126264200D02*
X80978428Y-126121342D01*
X80978428Y-126121342D02*
X80883190Y-126073723D01*
X80883190Y-126073723D02*
X80787952Y-126073723D01*
X80835571Y-126311819D02*
X80740333Y-126264200D01*
X80740333Y-126264200D02*
X80645095Y-126168961D01*
X80645095Y-126168961D02*
X80597476Y-125978485D01*
X80597476Y-125978485D02*
X80597476Y-125645152D01*
X80597476Y-125645152D02*
X80645095Y-125454676D01*
X80645095Y-125454676D02*
X80740333Y-125359438D01*
X80740333Y-125359438D02*
X80835571Y-125311819D01*
X80835571Y-125311819D02*
X81026047Y-125311819D01*
X81026047Y-125311819D02*
X81121285Y-125359438D01*
X81121285Y-125359438D02*
X81216523Y-125454676D01*
X81216523Y-125454676D02*
X81264142Y-125645152D01*
X81264142Y-125645152D02*
X81264142Y-125978485D01*
X81264142Y-125978485D02*
X81216523Y-126168961D01*
X81216523Y-126168961D02*
X81121285Y-126264200D01*
X81121285Y-126264200D02*
X81026047Y-126311819D01*
X81026047Y-126311819D02*
X80835571Y-126311819D01*
X81597476Y-125311819D02*
X82216523Y-125311819D01*
X82216523Y-125311819D02*
X81883190Y-125692771D01*
X81883190Y-125692771D02*
X82026047Y-125692771D01*
X82026047Y-125692771D02*
X82121285Y-125740390D01*
X82121285Y-125740390D02*
X82168904Y-125788009D01*
X82168904Y-125788009D02*
X82216523Y-125883247D01*
X82216523Y-125883247D02*
X82216523Y-126121342D01*
X82216523Y-126121342D02*
X82168904Y-126216580D01*
X82168904Y-126216580D02*
X82121285Y-126264200D01*
X82121285Y-126264200D02*
X82026047Y-126311819D01*
X82026047Y-126311819D02*
X81740333Y-126311819D01*
X81740333Y-126311819D02*
X81645095Y-126264200D01*
X81645095Y-126264200D02*
X81597476Y-126216580D01*
X104964380Y-59602666D02*
X105012000Y-59650285D01*
X105012000Y-59650285D02*
X105059619Y-59793142D01*
X105059619Y-59793142D02*
X105059619Y-59888380D01*
X105059619Y-59888380D02*
X105012000Y-60031237D01*
X105012000Y-60031237D02*
X104916761Y-60126475D01*
X104916761Y-60126475D02*
X104821523Y-60174094D01*
X104821523Y-60174094D02*
X104631047Y-60221713D01*
X104631047Y-60221713D02*
X104488190Y-60221713D01*
X104488190Y-60221713D02*
X104297714Y-60174094D01*
X104297714Y-60174094D02*
X104202476Y-60126475D01*
X104202476Y-60126475D02*
X104107238Y-60031237D01*
X104107238Y-60031237D02*
X104059619Y-59888380D01*
X104059619Y-59888380D02*
X104059619Y-59793142D01*
X104059619Y-59793142D02*
X104107238Y-59650285D01*
X104107238Y-59650285D02*
X104154857Y-59602666D01*
X105059619Y-59126475D02*
X105059619Y-58935999D01*
X105059619Y-58935999D02*
X105012000Y-58840761D01*
X105012000Y-58840761D02*
X104964380Y-58793142D01*
X104964380Y-58793142D02*
X104821523Y-58697904D01*
X104821523Y-58697904D02*
X104631047Y-58650285D01*
X104631047Y-58650285D02*
X104250095Y-58650285D01*
X104250095Y-58650285D02*
X104154857Y-58697904D01*
X104154857Y-58697904D02*
X104107238Y-58745523D01*
X104107238Y-58745523D02*
X104059619Y-58840761D01*
X104059619Y-58840761D02*
X104059619Y-59031237D01*
X104059619Y-59031237D02*
X104107238Y-59126475D01*
X104107238Y-59126475D02*
X104154857Y-59174094D01*
X104154857Y-59174094D02*
X104250095Y-59221713D01*
X104250095Y-59221713D02*
X104488190Y-59221713D01*
X104488190Y-59221713D02*
X104583428Y-59174094D01*
X104583428Y-59174094D02*
X104631047Y-59126475D01*
X104631047Y-59126475D02*
X104678666Y-59031237D01*
X104678666Y-59031237D02*
X104678666Y-58840761D01*
X104678666Y-58840761D02*
X104631047Y-58745523D01*
X104631047Y-58745523D02*
X104583428Y-58697904D01*
X104583428Y-58697904D02*
X104488190Y-58650285D01*
X82161142Y-110157319D02*
X81827809Y-109681128D01*
X81589714Y-110157319D02*
X81589714Y-109157319D01*
X81589714Y-109157319D02*
X81970666Y-109157319D01*
X81970666Y-109157319D02*
X82065904Y-109204938D01*
X82065904Y-109204938D02*
X82113523Y-109252557D01*
X82113523Y-109252557D02*
X82161142Y-109347795D01*
X82161142Y-109347795D02*
X82161142Y-109490652D01*
X82161142Y-109490652D02*
X82113523Y-109585890D01*
X82113523Y-109585890D02*
X82065904Y-109633509D01*
X82065904Y-109633509D02*
X81970666Y-109681128D01*
X81970666Y-109681128D02*
X81589714Y-109681128D01*
X83113523Y-110157319D02*
X82542095Y-110157319D01*
X82827809Y-110157319D02*
X82827809Y-109157319D01*
X82827809Y-109157319D02*
X82732571Y-109300176D01*
X82732571Y-109300176D02*
X82637333Y-109395414D01*
X82637333Y-109395414D02*
X82542095Y-109443033D01*
X84065904Y-110157319D02*
X83494476Y-110157319D01*
X83780190Y-110157319D02*
X83780190Y-109157319D01*
X83780190Y-109157319D02*
X83684952Y-109300176D01*
X83684952Y-109300176D02*
X83589714Y-109395414D01*
X83589714Y-109395414D02*
X83494476Y-109443033D01*
X94829333Y-137898580D02*
X94781714Y-137946200D01*
X94781714Y-137946200D02*
X94638857Y-137993819D01*
X94638857Y-137993819D02*
X94543619Y-137993819D01*
X94543619Y-137993819D02*
X94400762Y-137946200D01*
X94400762Y-137946200D02*
X94305524Y-137850961D01*
X94305524Y-137850961D02*
X94257905Y-137755723D01*
X94257905Y-137755723D02*
X94210286Y-137565247D01*
X94210286Y-137565247D02*
X94210286Y-137422390D01*
X94210286Y-137422390D02*
X94257905Y-137231914D01*
X94257905Y-137231914D02*
X94305524Y-137136676D01*
X94305524Y-137136676D02*
X94400762Y-137041438D01*
X94400762Y-137041438D02*
X94543619Y-136993819D01*
X94543619Y-136993819D02*
X94638857Y-136993819D01*
X94638857Y-136993819D02*
X94781714Y-137041438D01*
X94781714Y-137041438D02*
X94829333Y-137089057D01*
X95781714Y-137993819D02*
X95210286Y-137993819D01*
X95496000Y-137993819D02*
X95496000Y-136993819D01*
X95496000Y-136993819D02*
X95400762Y-137136676D01*
X95400762Y-137136676D02*
X95305524Y-137231914D01*
X95305524Y-137231914D02*
X95210286Y-137279533D01*
X98798142Y-41221819D02*
X98464809Y-40745628D01*
X98226714Y-41221819D02*
X98226714Y-40221819D01*
X98226714Y-40221819D02*
X98607666Y-40221819D01*
X98607666Y-40221819D02*
X98702904Y-40269438D01*
X98702904Y-40269438D02*
X98750523Y-40317057D01*
X98750523Y-40317057D02*
X98798142Y-40412295D01*
X98798142Y-40412295D02*
X98798142Y-40555152D01*
X98798142Y-40555152D02*
X98750523Y-40650390D01*
X98750523Y-40650390D02*
X98702904Y-40698009D01*
X98702904Y-40698009D02*
X98607666Y-40745628D01*
X98607666Y-40745628D02*
X98226714Y-40745628D01*
X99750523Y-41221819D02*
X99179095Y-41221819D01*
X99464809Y-41221819D02*
X99464809Y-40221819D01*
X99464809Y-40221819D02*
X99369571Y-40364676D01*
X99369571Y-40364676D02*
X99274333Y-40459914D01*
X99274333Y-40459914D02*
X99179095Y-40507533D01*
X100083857Y-40221819D02*
X100702904Y-40221819D01*
X100702904Y-40221819D02*
X100369571Y-40602771D01*
X100369571Y-40602771D02*
X100512428Y-40602771D01*
X100512428Y-40602771D02*
X100607666Y-40650390D01*
X100607666Y-40650390D02*
X100655285Y-40698009D01*
X100655285Y-40698009D02*
X100702904Y-40793247D01*
X100702904Y-40793247D02*
X100702904Y-41031342D01*
X100702904Y-41031342D02*
X100655285Y-41126580D01*
X100655285Y-41126580D02*
X100607666Y-41174200D01*
X100607666Y-41174200D02*
X100512428Y-41221819D01*
X100512428Y-41221819D02*
X100226714Y-41221819D01*
X100226714Y-41221819D02*
X100131476Y-41174200D01*
X100131476Y-41174200D02*
X100083857Y-41126580D01*
X87169180Y-105475066D02*
X87216800Y-105522685D01*
X87216800Y-105522685D02*
X87264419Y-105665542D01*
X87264419Y-105665542D02*
X87264419Y-105760780D01*
X87264419Y-105760780D02*
X87216800Y-105903637D01*
X87216800Y-105903637D02*
X87121561Y-105998875D01*
X87121561Y-105998875D02*
X87026323Y-106046494D01*
X87026323Y-106046494D02*
X86835847Y-106094113D01*
X86835847Y-106094113D02*
X86692990Y-106094113D01*
X86692990Y-106094113D02*
X86502514Y-106046494D01*
X86502514Y-106046494D02*
X86407276Y-105998875D01*
X86407276Y-105998875D02*
X86312038Y-105903637D01*
X86312038Y-105903637D02*
X86264419Y-105760780D01*
X86264419Y-105760780D02*
X86264419Y-105665542D01*
X86264419Y-105665542D02*
X86312038Y-105522685D01*
X86312038Y-105522685D02*
X86359657Y-105475066D01*
X86264419Y-105141732D02*
X86264419Y-104475066D01*
X86264419Y-104475066D02*
X87264419Y-104903637D01*
X74853896Y-154797238D02*
X74806277Y-154892476D01*
X74806277Y-154892476D02*
X74711039Y-154987714D01*
X74711039Y-154987714D02*
X74568181Y-155130571D01*
X74568181Y-155130571D02*
X74520562Y-155225809D01*
X74520562Y-155225809D02*
X74520562Y-155321047D01*
X74758658Y-155273428D02*
X74711039Y-155368666D01*
X74711039Y-155368666D02*
X74615800Y-155463904D01*
X74615800Y-155463904D02*
X74425324Y-155511523D01*
X74425324Y-155511523D02*
X74091991Y-155511523D01*
X74091991Y-155511523D02*
X73901515Y-155463904D01*
X73901515Y-155463904D02*
X73806277Y-155368666D01*
X73806277Y-155368666D02*
X73758658Y-155273428D01*
X73758658Y-155273428D02*
X73758658Y-155082952D01*
X73758658Y-155082952D02*
X73806277Y-154987714D01*
X73806277Y-154987714D02*
X73901515Y-154892476D01*
X73901515Y-154892476D02*
X74091991Y-154844857D01*
X74091991Y-154844857D02*
X74425324Y-154844857D01*
X74425324Y-154844857D02*
X74615800Y-154892476D01*
X74615800Y-154892476D02*
X74711039Y-154987714D01*
X74711039Y-154987714D02*
X74758658Y-155082952D01*
X74758658Y-155082952D02*
X74758658Y-155273428D01*
X74758658Y-153892476D02*
X74758658Y-154463904D01*
X74758658Y-154178190D02*
X73758658Y-154178190D01*
X73758658Y-154178190D02*
X73901515Y-154273428D01*
X73901515Y-154273428D02*
X73996753Y-154368666D01*
X73996753Y-154368666D02*
X74044372Y-154463904D01*
X84161333Y-145234817D02*
X83828000Y-144758626D01*
X83589905Y-145234817D02*
X83589905Y-144234817D01*
X83589905Y-144234817D02*
X83970857Y-144234817D01*
X83970857Y-144234817D02*
X84066095Y-144282436D01*
X84066095Y-144282436D02*
X84113714Y-144330055D01*
X84113714Y-144330055D02*
X84161333Y-144425293D01*
X84161333Y-144425293D02*
X84161333Y-144568150D01*
X84161333Y-144568150D02*
X84113714Y-144663388D01*
X84113714Y-144663388D02*
X84066095Y-144711007D01*
X84066095Y-144711007D02*
X83970857Y-144758626D01*
X83970857Y-144758626D02*
X83589905Y-144758626D01*
X85113714Y-145234817D02*
X84542286Y-145234817D01*
X84828000Y-145234817D02*
X84828000Y-144234817D01*
X84828000Y-144234817D02*
X84732762Y-144377674D01*
X84732762Y-144377674D02*
X84637524Y-144472912D01*
X84637524Y-144472912D02*
X84542286Y-144520531D01*
X103172618Y-49342095D02*
X102172618Y-49342095D01*
X102172618Y-49342095D02*
X102172618Y-49104000D01*
X102172618Y-49104000D02*
X102220237Y-48961143D01*
X102220237Y-48961143D02*
X102315475Y-48865905D01*
X102315475Y-48865905D02*
X102410713Y-48818286D01*
X102410713Y-48818286D02*
X102601189Y-48770667D01*
X102601189Y-48770667D02*
X102744046Y-48770667D01*
X102744046Y-48770667D02*
X102934522Y-48818286D01*
X102934522Y-48818286D02*
X103029760Y-48865905D01*
X103029760Y-48865905D02*
X103124999Y-48961143D01*
X103124999Y-48961143D02*
X103172618Y-49104000D01*
X103172618Y-49104000D02*
X103172618Y-49342095D01*
X102172618Y-47865905D02*
X102172618Y-48342095D01*
X102172618Y-48342095D02*
X102648808Y-48389714D01*
X102648808Y-48389714D02*
X102601189Y-48342095D01*
X102601189Y-48342095D02*
X102553570Y-48246857D01*
X102553570Y-48246857D02*
X102553570Y-48008762D01*
X102553570Y-48008762D02*
X102601189Y-47913524D01*
X102601189Y-47913524D02*
X102648808Y-47865905D01*
X102648808Y-47865905D02*
X102744046Y-47818286D01*
X102744046Y-47818286D02*
X102982141Y-47818286D01*
X102982141Y-47818286D02*
X103077379Y-47865905D01*
X103077379Y-47865905D02*
X103124999Y-47913524D01*
X103124999Y-47913524D02*
X103172618Y-48008762D01*
X103172618Y-48008762D02*
X103172618Y-48246857D01*
X103172618Y-48246857D02*
X103124999Y-48342095D01*
X103124999Y-48342095D02*
X103077379Y-48389714D01*
X99990542Y-55469980D02*
X99942923Y-55517600D01*
X99942923Y-55517600D02*
X99800066Y-55565219D01*
X99800066Y-55565219D02*
X99704828Y-55565219D01*
X99704828Y-55565219D02*
X99561971Y-55517600D01*
X99561971Y-55517600D02*
X99466733Y-55422361D01*
X99466733Y-55422361D02*
X99419114Y-55327123D01*
X99419114Y-55327123D02*
X99371495Y-55136647D01*
X99371495Y-55136647D02*
X99371495Y-54993790D01*
X99371495Y-54993790D02*
X99419114Y-54803314D01*
X99419114Y-54803314D02*
X99466733Y-54708076D01*
X99466733Y-54708076D02*
X99561971Y-54612838D01*
X99561971Y-54612838D02*
X99704828Y-54565219D01*
X99704828Y-54565219D02*
X99800066Y-54565219D01*
X99800066Y-54565219D02*
X99942923Y-54612838D01*
X99942923Y-54612838D02*
X99990542Y-54660457D01*
X100942923Y-55565219D02*
X100371495Y-55565219D01*
X100657209Y-55565219D02*
X100657209Y-54565219D01*
X100657209Y-54565219D02*
X100561971Y-54708076D01*
X100561971Y-54708076D02*
X100466733Y-54803314D01*
X100466733Y-54803314D02*
X100371495Y-54850933D01*
X101561971Y-54565219D02*
X101657209Y-54565219D01*
X101657209Y-54565219D02*
X101752447Y-54612838D01*
X101752447Y-54612838D02*
X101800066Y-54660457D01*
X101800066Y-54660457D02*
X101847685Y-54755695D01*
X101847685Y-54755695D02*
X101895304Y-54946171D01*
X101895304Y-54946171D02*
X101895304Y-55184266D01*
X101895304Y-55184266D02*
X101847685Y-55374742D01*
X101847685Y-55374742D02*
X101800066Y-55469980D01*
X101800066Y-55469980D02*
X101752447Y-55517600D01*
X101752447Y-55517600D02*
X101657209Y-55565219D01*
X101657209Y-55565219D02*
X101561971Y-55565219D01*
X101561971Y-55565219D02*
X101466733Y-55517600D01*
X101466733Y-55517600D02*
X101419114Y-55469980D01*
X101419114Y-55469980D02*
X101371495Y-55374742D01*
X101371495Y-55374742D02*
X101323876Y-55184266D01*
X101323876Y-55184266D02*
X101323876Y-54946171D01*
X101323876Y-54946171D02*
X101371495Y-54755695D01*
X101371495Y-54755695D02*
X101419114Y-54660457D01*
X101419114Y-54660457D02*
X101466733Y-54612838D01*
X101466733Y-54612838D02*
X101561971Y-54565219D01*
X63500095Y-157188819D02*
X63500095Y-157998342D01*
X63500095Y-157998342D02*
X63547714Y-158093580D01*
X63547714Y-158093580D02*
X63595333Y-158141200D01*
X63595333Y-158141200D02*
X63690571Y-158188819D01*
X63690571Y-158188819D02*
X63881047Y-158188819D01*
X63881047Y-158188819D02*
X63976285Y-158141200D01*
X63976285Y-158141200D02*
X64023904Y-158093580D01*
X64023904Y-158093580D02*
X64071523Y-157998342D01*
X64071523Y-157998342D02*
X64071523Y-157188819D01*
X65071523Y-158188819D02*
X64500095Y-158188819D01*
X64785809Y-158188819D02*
X64785809Y-157188819D01*
X64785809Y-157188819D02*
X64690571Y-157331676D01*
X64690571Y-157331676D02*
X64595333Y-157426914D01*
X64595333Y-157426914D02*
X64500095Y-157474533D01*
X66127333Y-143615580D02*
X66079714Y-143663200D01*
X66079714Y-143663200D02*
X65936857Y-143710819D01*
X65936857Y-143710819D02*
X65841619Y-143710819D01*
X65841619Y-143710819D02*
X65698762Y-143663200D01*
X65698762Y-143663200D02*
X65603524Y-143567961D01*
X65603524Y-143567961D02*
X65555905Y-143472723D01*
X65555905Y-143472723D02*
X65508286Y-143282247D01*
X65508286Y-143282247D02*
X65508286Y-143139390D01*
X65508286Y-143139390D02*
X65555905Y-142948914D01*
X65555905Y-142948914D02*
X65603524Y-142853676D01*
X65603524Y-142853676D02*
X65698762Y-142758438D01*
X65698762Y-142758438D02*
X65841619Y-142710819D01*
X65841619Y-142710819D02*
X65936857Y-142710819D01*
X65936857Y-142710819D02*
X66079714Y-142758438D01*
X66079714Y-142758438D02*
X66127333Y-142806057D01*
X67032095Y-142710819D02*
X66555905Y-142710819D01*
X66555905Y-142710819D02*
X66508286Y-143187009D01*
X66508286Y-143187009D02*
X66555905Y-143139390D01*
X66555905Y-143139390D02*
X66651143Y-143091771D01*
X66651143Y-143091771D02*
X66889238Y-143091771D01*
X66889238Y-143091771D02*
X66984476Y-143139390D01*
X66984476Y-143139390D02*
X67032095Y-143187009D01*
X67032095Y-143187009D02*
X67079714Y-143282247D01*
X67079714Y-143282247D02*
X67079714Y-143520342D01*
X67079714Y-143520342D02*
X67032095Y-143615580D01*
X67032095Y-143615580D02*
X66984476Y-143663200D01*
X66984476Y-143663200D02*
X66889238Y-143710819D01*
X66889238Y-143710819D02*
X66651143Y-143710819D01*
X66651143Y-143710819D02*
X66555905Y-143663200D01*
X66555905Y-143663200D02*
X66508286Y-143615580D01*
X90257333Y-115675580D02*
X90209714Y-115723200D01*
X90209714Y-115723200D02*
X90066857Y-115770819D01*
X90066857Y-115770819D02*
X89971619Y-115770819D01*
X89971619Y-115770819D02*
X89828762Y-115723200D01*
X89828762Y-115723200D02*
X89733524Y-115627961D01*
X89733524Y-115627961D02*
X89685905Y-115532723D01*
X89685905Y-115532723D02*
X89638286Y-115342247D01*
X89638286Y-115342247D02*
X89638286Y-115199390D01*
X89638286Y-115199390D02*
X89685905Y-115008914D01*
X89685905Y-115008914D02*
X89733524Y-114913676D01*
X89733524Y-114913676D02*
X89828762Y-114818438D01*
X89828762Y-114818438D02*
X89971619Y-114770819D01*
X89971619Y-114770819D02*
X90066857Y-114770819D01*
X90066857Y-114770819D02*
X90209714Y-114818438D01*
X90209714Y-114818438D02*
X90257333Y-114866057D01*
X91114476Y-114770819D02*
X90924000Y-114770819D01*
X90924000Y-114770819D02*
X90828762Y-114818438D01*
X90828762Y-114818438D02*
X90781143Y-114866057D01*
X90781143Y-114866057D02*
X90685905Y-115008914D01*
X90685905Y-115008914D02*
X90638286Y-115199390D01*
X90638286Y-115199390D02*
X90638286Y-115580342D01*
X90638286Y-115580342D02*
X90685905Y-115675580D01*
X90685905Y-115675580D02*
X90733524Y-115723200D01*
X90733524Y-115723200D02*
X90828762Y-115770819D01*
X90828762Y-115770819D02*
X91019238Y-115770819D01*
X91019238Y-115770819D02*
X91114476Y-115723200D01*
X91114476Y-115723200D02*
X91162095Y-115675580D01*
X91162095Y-115675580D02*
X91209714Y-115580342D01*
X91209714Y-115580342D02*
X91209714Y-115342247D01*
X91209714Y-115342247D02*
X91162095Y-115247009D01*
X91162095Y-115247009D02*
X91114476Y-115199390D01*
X91114476Y-115199390D02*
X91019238Y-115151771D01*
X91019238Y-115151771D02*
X90828762Y-115151771D01*
X90828762Y-115151771D02*
X90733524Y-115199390D01*
X90733524Y-115199390D02*
X90685905Y-115247009D01*
X90685905Y-115247009D02*
X90638286Y-115342247D01*
X73003580Y-146978666D02*
X73051200Y-147026285D01*
X73051200Y-147026285D02*
X73098819Y-147169142D01*
X73098819Y-147169142D02*
X73098819Y-147264380D01*
X73098819Y-147264380D02*
X73051200Y-147407237D01*
X73051200Y-147407237D02*
X72955961Y-147502475D01*
X72955961Y-147502475D02*
X72860723Y-147550094D01*
X72860723Y-147550094D02*
X72670247Y-147597713D01*
X72670247Y-147597713D02*
X72527390Y-147597713D01*
X72527390Y-147597713D02*
X72336914Y-147550094D01*
X72336914Y-147550094D02*
X72241676Y-147502475D01*
X72241676Y-147502475D02*
X72146438Y-147407237D01*
X72146438Y-147407237D02*
X72098819Y-147264380D01*
X72098819Y-147264380D02*
X72098819Y-147169142D01*
X72098819Y-147169142D02*
X72146438Y-147026285D01*
X72146438Y-147026285D02*
X72194057Y-146978666D01*
X72098819Y-146645332D02*
X72098819Y-146026285D01*
X72098819Y-146026285D02*
X72479771Y-146359618D01*
X72479771Y-146359618D02*
X72479771Y-146216761D01*
X72479771Y-146216761D02*
X72527390Y-146121523D01*
X72527390Y-146121523D02*
X72575009Y-146073904D01*
X72575009Y-146073904D02*
X72670247Y-146026285D01*
X72670247Y-146026285D02*
X72908342Y-146026285D01*
X72908342Y-146026285D02*
X73003580Y-146073904D01*
X73003580Y-146073904D02*
X73051200Y-146121523D01*
X73051200Y-146121523D02*
X73098819Y-146216761D01*
X73098819Y-146216761D02*
X73098819Y-146502475D01*
X73098819Y-146502475D02*
X73051200Y-146597713D01*
X73051200Y-146597713D02*
X73003580Y-146645332D01*
X66127333Y-137773580D02*
X66079714Y-137821200D01*
X66079714Y-137821200D02*
X65936857Y-137868819D01*
X65936857Y-137868819D02*
X65841619Y-137868819D01*
X65841619Y-137868819D02*
X65698762Y-137821200D01*
X65698762Y-137821200D02*
X65603524Y-137725961D01*
X65603524Y-137725961D02*
X65555905Y-137630723D01*
X65555905Y-137630723D02*
X65508286Y-137440247D01*
X65508286Y-137440247D02*
X65508286Y-137297390D01*
X65508286Y-137297390D02*
X65555905Y-137106914D01*
X65555905Y-137106914D02*
X65603524Y-137011676D01*
X65603524Y-137011676D02*
X65698762Y-136916438D01*
X65698762Y-136916438D02*
X65841619Y-136868819D01*
X65841619Y-136868819D02*
X65936857Y-136868819D01*
X65936857Y-136868819D02*
X66079714Y-136916438D01*
X66079714Y-136916438D02*
X66127333Y-136964057D01*
X66984476Y-137202152D02*
X66984476Y-137868819D01*
X66746381Y-136821200D02*
X66508286Y-137535485D01*
X66508286Y-137535485D02*
X67127333Y-137535485D01*
X77637819Y-120054666D02*
X77161628Y-120387999D01*
X77637819Y-120626094D02*
X76637819Y-120626094D01*
X76637819Y-120626094D02*
X76637819Y-120245142D01*
X76637819Y-120245142D02*
X76685438Y-120149904D01*
X76685438Y-120149904D02*
X76733057Y-120102285D01*
X76733057Y-120102285D02*
X76828295Y-120054666D01*
X76828295Y-120054666D02*
X76971152Y-120054666D01*
X76971152Y-120054666D02*
X77066390Y-120102285D01*
X77066390Y-120102285D02*
X77114009Y-120149904D01*
X77114009Y-120149904D02*
X77161628Y-120245142D01*
X77161628Y-120245142D02*
X77161628Y-120626094D01*
X76637819Y-119721332D02*
X76637819Y-119102285D01*
X76637819Y-119102285D02*
X77018771Y-119435618D01*
X77018771Y-119435618D02*
X77018771Y-119292761D01*
X77018771Y-119292761D02*
X77066390Y-119197523D01*
X77066390Y-119197523D02*
X77114009Y-119149904D01*
X77114009Y-119149904D02*
X77209247Y-119102285D01*
X77209247Y-119102285D02*
X77447342Y-119102285D01*
X77447342Y-119102285D02*
X77542580Y-119149904D01*
X77542580Y-119149904D02*
X77590200Y-119197523D01*
X77590200Y-119197523D02*
X77637819Y-119292761D01*
X77637819Y-119292761D02*
X77637819Y-119578475D01*
X77637819Y-119578475D02*
X77590200Y-119673713D01*
X77590200Y-119673713D02*
X77542580Y-119721332D01*
X103737580Y-43258766D02*
X103785200Y-43306385D01*
X103785200Y-43306385D02*
X103832819Y-43449242D01*
X103832819Y-43449242D02*
X103832819Y-43544480D01*
X103832819Y-43544480D02*
X103785200Y-43687337D01*
X103785200Y-43687337D02*
X103689961Y-43782575D01*
X103689961Y-43782575D02*
X103594723Y-43830194D01*
X103594723Y-43830194D02*
X103404247Y-43877813D01*
X103404247Y-43877813D02*
X103261390Y-43877813D01*
X103261390Y-43877813D02*
X103070914Y-43830194D01*
X103070914Y-43830194D02*
X102975676Y-43782575D01*
X102975676Y-43782575D02*
X102880438Y-43687337D01*
X102880438Y-43687337D02*
X102832819Y-43544480D01*
X102832819Y-43544480D02*
X102832819Y-43449242D01*
X102832819Y-43449242D02*
X102880438Y-43306385D01*
X102880438Y-43306385D02*
X102928057Y-43258766D01*
X103261390Y-42687337D02*
X103213771Y-42782575D01*
X103213771Y-42782575D02*
X103166152Y-42830194D01*
X103166152Y-42830194D02*
X103070914Y-42877813D01*
X103070914Y-42877813D02*
X103023295Y-42877813D01*
X103023295Y-42877813D02*
X102928057Y-42830194D01*
X102928057Y-42830194D02*
X102880438Y-42782575D01*
X102880438Y-42782575D02*
X102832819Y-42687337D01*
X102832819Y-42687337D02*
X102832819Y-42496861D01*
X102832819Y-42496861D02*
X102880438Y-42401623D01*
X102880438Y-42401623D02*
X102928057Y-42354004D01*
X102928057Y-42354004D02*
X103023295Y-42306385D01*
X103023295Y-42306385D02*
X103070914Y-42306385D01*
X103070914Y-42306385D02*
X103166152Y-42354004D01*
X103166152Y-42354004D02*
X103213771Y-42401623D01*
X103213771Y-42401623D02*
X103261390Y-42496861D01*
X103261390Y-42496861D02*
X103261390Y-42687337D01*
X103261390Y-42687337D02*
X103309009Y-42782575D01*
X103309009Y-42782575D02*
X103356628Y-42830194D01*
X103356628Y-42830194D02*
X103451866Y-42877813D01*
X103451866Y-42877813D02*
X103642342Y-42877813D01*
X103642342Y-42877813D02*
X103737580Y-42830194D01*
X103737580Y-42830194D02*
X103785200Y-42782575D01*
X103785200Y-42782575D02*
X103832819Y-42687337D01*
X103832819Y-42687337D02*
X103832819Y-42496861D01*
X103832819Y-42496861D02*
X103785200Y-42401623D01*
X103785200Y-42401623D02*
X103737580Y-42354004D01*
X103737580Y-42354004D02*
X103642342Y-42306385D01*
X103642342Y-42306385D02*
X103451866Y-42306385D01*
X103451866Y-42306385D02*
X103356628Y-42354004D01*
X103356628Y-42354004D02*
X103309009Y-42401623D01*
X103309009Y-42401623D02*
X103261390Y-42496861D01*
X103505095Y-114643819D02*
X103505095Y-115453342D01*
X103505095Y-115453342D02*
X103552714Y-115548580D01*
X103552714Y-115548580D02*
X103600333Y-115596200D01*
X103600333Y-115596200D02*
X103695571Y-115643819D01*
X103695571Y-115643819D02*
X103886047Y-115643819D01*
X103886047Y-115643819D02*
X103981285Y-115596200D01*
X103981285Y-115596200D02*
X104028904Y-115548580D01*
X104028904Y-115548580D02*
X104076523Y-115453342D01*
X104076523Y-115453342D02*
X104076523Y-114643819D01*
X104981285Y-114977152D02*
X104981285Y-115643819D01*
X104743190Y-114596200D02*
X104505095Y-115310485D01*
X104505095Y-115310485D02*
X105124142Y-115310485D01*
X100163333Y-69542819D02*
X99830000Y-69066628D01*
X99591905Y-69542819D02*
X99591905Y-68542819D01*
X99591905Y-68542819D02*
X99972857Y-68542819D01*
X99972857Y-68542819D02*
X100068095Y-68590438D01*
X100068095Y-68590438D02*
X100115714Y-68638057D01*
X100115714Y-68638057D02*
X100163333Y-68733295D01*
X100163333Y-68733295D02*
X100163333Y-68876152D01*
X100163333Y-68876152D02*
X100115714Y-68971390D01*
X100115714Y-68971390D02*
X100068095Y-69019009D01*
X100068095Y-69019009D02*
X99972857Y-69066628D01*
X99972857Y-69066628D02*
X99591905Y-69066628D01*
X100639524Y-69542819D02*
X100830000Y-69542819D01*
X100830000Y-69542819D02*
X100925238Y-69495200D01*
X100925238Y-69495200D02*
X100972857Y-69447580D01*
X100972857Y-69447580D02*
X101068095Y-69304723D01*
X101068095Y-69304723D02*
X101115714Y-69114247D01*
X101115714Y-69114247D02*
X101115714Y-68733295D01*
X101115714Y-68733295D02*
X101068095Y-68638057D01*
X101068095Y-68638057D02*
X101020476Y-68590438D01*
X101020476Y-68590438D02*
X100925238Y-68542819D01*
X100925238Y-68542819D02*
X100734762Y-68542819D01*
X100734762Y-68542819D02*
X100639524Y-68590438D01*
X100639524Y-68590438D02*
X100591905Y-68638057D01*
X100591905Y-68638057D02*
X100544286Y-68733295D01*
X100544286Y-68733295D02*
X100544286Y-68971390D01*
X100544286Y-68971390D02*
X100591905Y-69066628D01*
X100591905Y-69066628D02*
X100639524Y-69114247D01*
X100639524Y-69114247D02*
X100734762Y-69161866D01*
X100734762Y-69161866D02*
X100925238Y-69161866D01*
X100925238Y-69161866D02*
X101020476Y-69114247D01*
X101020476Y-69114247D02*
X101068095Y-69066628D01*
X101068095Y-69066628D02*
X101115714Y-68971390D01*
X102735142Y-69542819D02*
X102401809Y-69066628D01*
X102163714Y-69542819D02*
X102163714Y-68542819D01*
X102163714Y-68542819D02*
X102544666Y-68542819D01*
X102544666Y-68542819D02*
X102639904Y-68590438D01*
X102639904Y-68590438D02*
X102687523Y-68638057D01*
X102687523Y-68638057D02*
X102735142Y-68733295D01*
X102735142Y-68733295D02*
X102735142Y-68876152D01*
X102735142Y-68876152D02*
X102687523Y-68971390D01*
X102687523Y-68971390D02*
X102639904Y-69019009D01*
X102639904Y-69019009D02*
X102544666Y-69066628D01*
X102544666Y-69066628D02*
X102163714Y-69066628D01*
X103687523Y-69542819D02*
X103116095Y-69542819D01*
X103401809Y-69542819D02*
X103401809Y-68542819D01*
X103401809Y-68542819D02*
X103306571Y-68685676D01*
X103306571Y-68685676D02*
X103211333Y-68780914D01*
X103211333Y-68780914D02*
X103116095Y-68828533D01*
X104306571Y-68542819D02*
X104401809Y-68542819D01*
X104401809Y-68542819D02*
X104497047Y-68590438D01*
X104497047Y-68590438D02*
X104544666Y-68638057D01*
X104544666Y-68638057D02*
X104592285Y-68733295D01*
X104592285Y-68733295D02*
X104639904Y-68923771D01*
X104639904Y-68923771D02*
X104639904Y-69161866D01*
X104639904Y-69161866D02*
X104592285Y-69352342D01*
X104592285Y-69352342D02*
X104544666Y-69447580D01*
X104544666Y-69447580D02*
X104497047Y-69495200D01*
X104497047Y-69495200D02*
X104401809Y-69542819D01*
X104401809Y-69542819D02*
X104306571Y-69542819D01*
X104306571Y-69542819D02*
X104211333Y-69495200D01*
X104211333Y-69495200D02*
X104163714Y-69447580D01*
X104163714Y-69447580D02*
X104116095Y-69352342D01*
X104116095Y-69352342D02*
X104068476Y-69161866D01*
X104068476Y-69161866D02*
X104068476Y-68923771D01*
X104068476Y-68923771D02*
X104116095Y-68733295D01*
X104116095Y-68733295D02*
X104163714Y-68638057D01*
X104163714Y-68638057D02*
X104211333Y-68590438D01*
X104211333Y-68590438D02*
X104306571Y-68542819D01*
X98006819Y-75818904D02*
X98816342Y-75818904D01*
X98816342Y-75818904D02*
X98911580Y-75771285D01*
X98911580Y-75771285D02*
X98959200Y-75723666D01*
X98959200Y-75723666D02*
X99006819Y-75628428D01*
X99006819Y-75628428D02*
X99006819Y-75437952D01*
X99006819Y-75437952D02*
X98959200Y-75342714D01*
X98959200Y-75342714D02*
X98911580Y-75295095D01*
X98911580Y-75295095D02*
X98816342Y-75247476D01*
X98816342Y-75247476D02*
X98006819Y-75247476D01*
X98102057Y-74818904D02*
X98054438Y-74771285D01*
X98054438Y-74771285D02*
X98006819Y-74676047D01*
X98006819Y-74676047D02*
X98006819Y-74437952D01*
X98006819Y-74437952D02*
X98054438Y-74342714D01*
X98054438Y-74342714D02*
X98102057Y-74295095D01*
X98102057Y-74295095D02*
X98197295Y-74247476D01*
X98197295Y-74247476D02*
X98292533Y-74247476D01*
X98292533Y-74247476D02*
X98435390Y-74295095D01*
X98435390Y-74295095D02*
X99006819Y-74866523D01*
X99006819Y-74866523D02*
X99006819Y-74247476D01*
X77637819Y-123610666D02*
X77161628Y-123943999D01*
X77637819Y-124182094D02*
X76637819Y-124182094D01*
X76637819Y-124182094D02*
X76637819Y-123801142D01*
X76637819Y-123801142D02*
X76685438Y-123705904D01*
X76685438Y-123705904D02*
X76733057Y-123658285D01*
X76733057Y-123658285D02*
X76828295Y-123610666D01*
X76828295Y-123610666D02*
X76971152Y-123610666D01*
X76971152Y-123610666D02*
X77066390Y-123658285D01*
X77066390Y-123658285D02*
X77114009Y-123705904D01*
X77114009Y-123705904D02*
X77161628Y-123801142D01*
X77161628Y-123801142D02*
X77161628Y-124182094D01*
X76637819Y-122753523D02*
X76637819Y-122943999D01*
X76637819Y-122943999D02*
X76685438Y-123039237D01*
X76685438Y-123039237D02*
X76733057Y-123086856D01*
X76733057Y-123086856D02*
X76875914Y-123182094D01*
X76875914Y-123182094D02*
X77066390Y-123229713D01*
X77066390Y-123229713D02*
X77447342Y-123229713D01*
X77447342Y-123229713D02*
X77542580Y-123182094D01*
X77542580Y-123182094D02*
X77590200Y-123134475D01*
X77590200Y-123134475D02*
X77637819Y-123039237D01*
X77637819Y-123039237D02*
X77637819Y-122848761D01*
X77637819Y-122848761D02*
X77590200Y-122753523D01*
X77590200Y-122753523D02*
X77542580Y-122705904D01*
X77542580Y-122705904D02*
X77447342Y-122658285D01*
X77447342Y-122658285D02*
X77209247Y-122658285D01*
X77209247Y-122658285D02*
X77114009Y-122705904D01*
X77114009Y-122705904D02*
X77066390Y-122753523D01*
X77066390Y-122753523D02*
X77018771Y-122848761D01*
X77018771Y-122848761D02*
X77018771Y-123039237D01*
X77018771Y-123039237D02*
X77066390Y-123134475D01*
X77066390Y-123134475D02*
X77114009Y-123182094D01*
X77114009Y-123182094D02*
X77209247Y-123229713D01*
X85463142Y-98371819D02*
X85129809Y-97895628D01*
X84891714Y-98371819D02*
X84891714Y-97371819D01*
X84891714Y-97371819D02*
X85272666Y-97371819D01*
X85272666Y-97371819D02*
X85367904Y-97419438D01*
X85367904Y-97419438D02*
X85415523Y-97467057D01*
X85415523Y-97467057D02*
X85463142Y-97562295D01*
X85463142Y-97562295D02*
X85463142Y-97705152D01*
X85463142Y-97705152D02*
X85415523Y-97800390D01*
X85415523Y-97800390D02*
X85367904Y-97848009D01*
X85367904Y-97848009D02*
X85272666Y-97895628D01*
X85272666Y-97895628D02*
X84891714Y-97895628D01*
X86415523Y-98371819D02*
X85844095Y-98371819D01*
X86129809Y-98371819D02*
X86129809Y-97371819D01*
X86129809Y-97371819D02*
X86034571Y-97514676D01*
X86034571Y-97514676D02*
X85939333Y-97609914D01*
X85939333Y-97609914D02*
X85844095Y-97657533D01*
X86748857Y-97371819D02*
X87415523Y-97371819D01*
X87415523Y-97371819D02*
X86986952Y-98371819D01*
X85925819Y-94749857D02*
X85449628Y-95083190D01*
X85925819Y-95321285D02*
X84925819Y-95321285D01*
X84925819Y-95321285D02*
X84925819Y-94940333D01*
X84925819Y-94940333D02*
X84973438Y-94845095D01*
X84973438Y-94845095D02*
X85021057Y-94797476D01*
X85021057Y-94797476D02*
X85116295Y-94749857D01*
X85116295Y-94749857D02*
X85259152Y-94749857D01*
X85259152Y-94749857D02*
X85354390Y-94797476D01*
X85354390Y-94797476D02*
X85402009Y-94845095D01*
X85402009Y-94845095D02*
X85449628Y-94940333D01*
X85449628Y-94940333D02*
X85449628Y-95321285D01*
X85925819Y-93797476D02*
X85925819Y-94368904D01*
X85925819Y-94083190D02*
X84925819Y-94083190D01*
X84925819Y-94083190D02*
X85068676Y-94178428D01*
X85068676Y-94178428D02*
X85163914Y-94273666D01*
X85163914Y-94273666D02*
X85211533Y-94368904D01*
X84925819Y-92940333D02*
X84925819Y-93130809D01*
X84925819Y-93130809D02*
X84973438Y-93226047D01*
X84973438Y-93226047D02*
X85021057Y-93273666D01*
X85021057Y-93273666D02*
X85163914Y-93368904D01*
X85163914Y-93368904D02*
X85354390Y-93416523D01*
X85354390Y-93416523D02*
X85735342Y-93416523D01*
X85735342Y-93416523D02*
X85830580Y-93368904D01*
X85830580Y-93368904D02*
X85878200Y-93321285D01*
X85878200Y-93321285D02*
X85925819Y-93226047D01*
X85925819Y-93226047D02*
X85925819Y-93035571D01*
X85925819Y-93035571D02*
X85878200Y-92940333D01*
X85878200Y-92940333D02*
X85830580Y-92892714D01*
X85830580Y-92892714D02*
X85735342Y-92845095D01*
X85735342Y-92845095D02*
X85497247Y-92845095D01*
X85497247Y-92845095D02*
X85402009Y-92892714D01*
X85402009Y-92892714D02*
X85354390Y-92940333D01*
X85354390Y-92940333D02*
X85306771Y-93035571D01*
X85306771Y-93035571D02*
X85306771Y-93226047D01*
X85306771Y-93226047D02*
X85354390Y-93321285D01*
X85354390Y-93321285D02*
X85402009Y-93368904D01*
X85402009Y-93368904D02*
X85497247Y-93416523D01*
X100163333Y-81513819D02*
X99830000Y-81037628D01*
X99591905Y-81513819D02*
X99591905Y-80513819D01*
X99591905Y-80513819D02*
X99972857Y-80513819D01*
X99972857Y-80513819D02*
X100068095Y-80561438D01*
X100068095Y-80561438D02*
X100115714Y-80609057D01*
X100115714Y-80609057D02*
X100163333Y-80704295D01*
X100163333Y-80704295D02*
X100163333Y-80847152D01*
X100163333Y-80847152D02*
X100115714Y-80942390D01*
X100115714Y-80942390D02*
X100068095Y-80990009D01*
X100068095Y-80990009D02*
X99972857Y-81037628D01*
X99972857Y-81037628D02*
X99591905Y-81037628D01*
X101020476Y-80847152D02*
X101020476Y-81513819D01*
X100782381Y-80466200D02*
X100544286Y-81180485D01*
X100544286Y-81180485D02*
X101163333Y-81180485D01*
X75969905Y-149914206D02*
X75969905Y-148914206D01*
X75969905Y-148914206D02*
X76208000Y-148914206D01*
X76208000Y-148914206D02*
X76350857Y-148961825D01*
X76350857Y-148961825D02*
X76446095Y-149057063D01*
X76446095Y-149057063D02*
X76493714Y-149152301D01*
X76493714Y-149152301D02*
X76541333Y-149342777D01*
X76541333Y-149342777D02*
X76541333Y-149485634D01*
X76541333Y-149485634D02*
X76493714Y-149676110D01*
X76493714Y-149676110D02*
X76446095Y-149771348D01*
X76446095Y-149771348D02*
X76350857Y-149866587D01*
X76350857Y-149866587D02*
X76208000Y-149914206D01*
X76208000Y-149914206D02*
X75969905Y-149914206D01*
X77398476Y-149247539D02*
X77398476Y-149914206D01*
X77160381Y-148866587D02*
X76922286Y-149580872D01*
X76922286Y-149580872D02*
X77541333Y-149580872D01*
X85925819Y-86621857D02*
X85449628Y-86955190D01*
X85925819Y-87193285D02*
X84925819Y-87193285D01*
X84925819Y-87193285D02*
X84925819Y-86812333D01*
X84925819Y-86812333D02*
X84973438Y-86717095D01*
X84973438Y-86717095D02*
X85021057Y-86669476D01*
X85021057Y-86669476D02*
X85116295Y-86621857D01*
X85116295Y-86621857D02*
X85259152Y-86621857D01*
X85259152Y-86621857D02*
X85354390Y-86669476D01*
X85354390Y-86669476D02*
X85402009Y-86717095D01*
X85402009Y-86717095D02*
X85449628Y-86812333D01*
X85449628Y-86812333D02*
X85449628Y-87193285D01*
X85925819Y-85669476D02*
X85925819Y-86240904D01*
X85925819Y-85955190D02*
X84925819Y-85955190D01*
X84925819Y-85955190D02*
X85068676Y-86050428D01*
X85068676Y-86050428D02*
X85163914Y-86145666D01*
X85163914Y-86145666D02*
X85211533Y-86240904D01*
X85021057Y-85288523D02*
X84973438Y-85240904D01*
X84973438Y-85240904D02*
X84925819Y-85145666D01*
X84925819Y-85145666D02*
X84925819Y-84907571D01*
X84925819Y-84907571D02*
X84973438Y-84812333D01*
X84973438Y-84812333D02*
X85021057Y-84764714D01*
X85021057Y-84764714D02*
X85116295Y-84717095D01*
X85116295Y-84717095D02*
X85211533Y-84717095D01*
X85211533Y-84717095D02*
X85354390Y-84764714D01*
X85354390Y-84764714D02*
X85925819Y-85336142D01*
X85925819Y-85336142D02*
X85925819Y-84717095D01*
X91869285Y-133530009D02*
X92012142Y-133577628D01*
X92012142Y-133577628D02*
X92059761Y-133625247D01*
X92059761Y-133625247D02*
X92107380Y-133720485D01*
X92107380Y-133720485D02*
X92107380Y-133863342D01*
X92107380Y-133863342D02*
X92059761Y-133958580D01*
X92059761Y-133958580D02*
X92012142Y-134006200D01*
X92012142Y-134006200D02*
X91916904Y-134053819D01*
X91916904Y-134053819D02*
X91535952Y-134053819D01*
X91535952Y-134053819D02*
X91535952Y-133053819D01*
X91535952Y-133053819D02*
X91869285Y-133053819D01*
X91869285Y-133053819D02*
X91964523Y-133101438D01*
X91964523Y-133101438D02*
X92012142Y-133149057D01*
X92012142Y-133149057D02*
X92059761Y-133244295D01*
X92059761Y-133244295D02*
X92059761Y-133339533D01*
X92059761Y-133339533D02*
X92012142Y-133434771D01*
X92012142Y-133434771D02*
X91964523Y-133482390D01*
X91964523Y-133482390D02*
X91869285Y-133530009D01*
X91869285Y-133530009D02*
X91535952Y-133530009D01*
X92393095Y-133053819D02*
X92964523Y-133053819D01*
X92678809Y-134053819D02*
X92678809Y-133053819D01*
X93821666Y-134053819D02*
X93250238Y-134053819D01*
X93535952Y-134053819D02*
X93535952Y-133053819D01*
X93535952Y-133053819D02*
X93440714Y-133196676D01*
X93440714Y-133196676D02*
X93345476Y-133291914D01*
X93345476Y-133291914D02*
X93250238Y-133339533D01*
X94774048Y-116172866D02*
X95535953Y-116172866D01*
X95155000Y-116553819D02*
X95155000Y-115791914D01*
X97702019Y-59955304D02*
X98511542Y-59955304D01*
X98511542Y-59955304D02*
X98606780Y-59907685D01*
X98606780Y-59907685D02*
X98654400Y-59860066D01*
X98654400Y-59860066D02*
X98702019Y-59764828D01*
X98702019Y-59764828D02*
X98702019Y-59574352D01*
X98702019Y-59574352D02*
X98654400Y-59479114D01*
X98654400Y-59479114D02*
X98606780Y-59431495D01*
X98606780Y-59431495D02*
X98511542Y-59383876D01*
X98511542Y-59383876D02*
X97702019Y-59383876D01*
X97702019Y-58479114D02*
X97702019Y-58669590D01*
X97702019Y-58669590D02*
X97749638Y-58764828D01*
X97749638Y-58764828D02*
X97797257Y-58812447D01*
X97797257Y-58812447D02*
X97940114Y-58907685D01*
X97940114Y-58907685D02*
X98130590Y-58955304D01*
X98130590Y-58955304D02*
X98511542Y-58955304D01*
X98511542Y-58955304D02*
X98606780Y-58907685D01*
X98606780Y-58907685D02*
X98654400Y-58860066D01*
X98654400Y-58860066D02*
X98702019Y-58764828D01*
X98702019Y-58764828D02*
X98702019Y-58574352D01*
X98702019Y-58574352D02*
X98654400Y-58479114D01*
X98654400Y-58479114D02*
X98606780Y-58431495D01*
X98606780Y-58431495D02*
X98511542Y-58383876D01*
X98511542Y-58383876D02*
X98273447Y-58383876D01*
X98273447Y-58383876D02*
X98178209Y-58431495D01*
X98178209Y-58431495D02*
X98130590Y-58479114D01*
X98130590Y-58479114D02*
X98082971Y-58574352D01*
X98082971Y-58574352D02*
X98082971Y-58764828D01*
X98082971Y-58764828D02*
X98130590Y-58860066D01*
X98130590Y-58860066D02*
X98178209Y-58907685D01*
X98178209Y-58907685D02*
X98273447Y-58955304D01*
X100957142Y-65478819D02*
X100623809Y-65002628D01*
X100385714Y-65478819D02*
X100385714Y-64478819D01*
X100385714Y-64478819D02*
X100766666Y-64478819D01*
X100766666Y-64478819D02*
X100861904Y-64526438D01*
X100861904Y-64526438D02*
X100909523Y-64574057D01*
X100909523Y-64574057D02*
X100957142Y-64669295D01*
X100957142Y-64669295D02*
X100957142Y-64812152D01*
X100957142Y-64812152D02*
X100909523Y-64907390D01*
X100909523Y-64907390D02*
X100861904Y-64955009D01*
X100861904Y-64955009D02*
X100766666Y-65002628D01*
X100766666Y-65002628D02*
X100385714Y-65002628D01*
X101909523Y-65478819D02*
X101338095Y-65478819D01*
X101623809Y-65478819D02*
X101623809Y-64478819D01*
X101623809Y-64478819D02*
X101528571Y-64621676D01*
X101528571Y-64621676D02*
X101433333Y-64716914D01*
X101433333Y-64716914D02*
X101338095Y-64764533D01*
X102814285Y-64478819D02*
X102338095Y-64478819D01*
X102338095Y-64478819D02*
X102290476Y-64955009D01*
X102290476Y-64955009D02*
X102338095Y-64907390D01*
X102338095Y-64907390D02*
X102433333Y-64859771D01*
X102433333Y-64859771D02*
X102671428Y-64859771D01*
X102671428Y-64859771D02*
X102766666Y-64907390D01*
X102766666Y-64907390D02*
X102814285Y-64955009D01*
X102814285Y-64955009D02*
X102861904Y-65050247D01*
X102861904Y-65050247D02*
X102861904Y-65288342D01*
X102861904Y-65288342D02*
X102814285Y-65383580D01*
X102814285Y-65383580D02*
X102766666Y-65431200D01*
X102766666Y-65431200D02*
X102671428Y-65478819D01*
X102671428Y-65478819D02*
X102433333Y-65478819D01*
X102433333Y-65478819D02*
X102338095Y-65431200D01*
X102338095Y-65431200D02*
X102290476Y-65383580D01*
X74826905Y-136284619D02*
X74826905Y-135284619D01*
X74826905Y-135284619D02*
X75065000Y-135284619D01*
X75065000Y-135284619D02*
X75207857Y-135332238D01*
X75207857Y-135332238D02*
X75303095Y-135427476D01*
X75303095Y-135427476D02*
X75350714Y-135522714D01*
X75350714Y-135522714D02*
X75398333Y-135713190D01*
X75398333Y-135713190D02*
X75398333Y-135856047D01*
X75398333Y-135856047D02*
X75350714Y-136046523D01*
X75350714Y-136046523D02*
X75303095Y-136141761D01*
X75303095Y-136141761D02*
X75207857Y-136237000D01*
X75207857Y-136237000D02*
X75065000Y-136284619D01*
X75065000Y-136284619D02*
X74826905Y-136284619D01*
X75779286Y-135379857D02*
X75826905Y-135332238D01*
X75826905Y-135332238D02*
X75922143Y-135284619D01*
X75922143Y-135284619D02*
X76160238Y-135284619D01*
X76160238Y-135284619D02*
X76255476Y-135332238D01*
X76255476Y-135332238D02*
X76303095Y-135379857D01*
X76303095Y-135379857D02*
X76350714Y-135475095D01*
X76350714Y-135475095D02*
X76350714Y-135570333D01*
X76350714Y-135570333D02*
X76303095Y-135713190D01*
X76303095Y-135713190D02*
X75731667Y-136284619D01*
X75731667Y-136284619D02*
X76350714Y-136284619D01*
X81311761Y-118038057D02*
X81216523Y-117990438D01*
X81216523Y-117990438D02*
X81121285Y-117895200D01*
X81121285Y-117895200D02*
X80978428Y-117752342D01*
X80978428Y-117752342D02*
X80883190Y-117704723D01*
X80883190Y-117704723D02*
X80787952Y-117704723D01*
X80835571Y-117942819D02*
X80740333Y-117895200D01*
X80740333Y-117895200D02*
X80645095Y-117799961D01*
X80645095Y-117799961D02*
X80597476Y-117609485D01*
X80597476Y-117609485D02*
X80597476Y-117276152D01*
X80597476Y-117276152D02*
X80645095Y-117085676D01*
X80645095Y-117085676D02*
X80740333Y-116990438D01*
X80740333Y-116990438D02*
X80835571Y-116942819D01*
X80835571Y-116942819D02*
X81026047Y-116942819D01*
X81026047Y-116942819D02*
X81121285Y-116990438D01*
X81121285Y-116990438D02*
X81216523Y-117085676D01*
X81216523Y-117085676D02*
X81264142Y-117276152D01*
X81264142Y-117276152D02*
X81264142Y-117609485D01*
X81264142Y-117609485D02*
X81216523Y-117799961D01*
X81216523Y-117799961D02*
X81121285Y-117895200D01*
X81121285Y-117895200D02*
X81026047Y-117942819D01*
X81026047Y-117942819D02*
X80835571Y-117942819D01*
X81645095Y-117038057D02*
X81692714Y-116990438D01*
X81692714Y-116990438D02*
X81787952Y-116942819D01*
X81787952Y-116942819D02*
X82026047Y-116942819D01*
X82026047Y-116942819D02*
X82121285Y-116990438D01*
X82121285Y-116990438D02*
X82168904Y-117038057D01*
X82168904Y-117038057D02*
X82216523Y-117133295D01*
X82216523Y-117133295D02*
X82216523Y-117228533D01*
X82216523Y-117228533D02*
X82168904Y-117371390D01*
X82168904Y-117371390D02*
X81597476Y-117942819D01*
X81597476Y-117942819D02*
X82216523Y-117942819D01*
X74826904Y-145394997D02*
X74826904Y-144394997D01*
X74826904Y-144394997D02*
X75064999Y-144394997D01*
X75064999Y-144394997D02*
X75207856Y-144442616D01*
X75207856Y-144442616D02*
X75303094Y-144537854D01*
X75303094Y-144537854D02*
X75350713Y-144633092D01*
X75350713Y-144633092D02*
X75398332Y-144823568D01*
X75398332Y-144823568D02*
X75398332Y-144966425D01*
X75398332Y-144966425D02*
X75350713Y-145156901D01*
X75350713Y-145156901D02*
X75303094Y-145252139D01*
X75303094Y-145252139D02*
X75207856Y-145347378D01*
X75207856Y-145347378D02*
X75064999Y-145394997D01*
X75064999Y-145394997D02*
X74826904Y-145394997D01*
X75731666Y-144394997D02*
X76350713Y-144394997D01*
X76350713Y-144394997D02*
X76017380Y-144775949D01*
X76017380Y-144775949D02*
X76160237Y-144775949D01*
X76160237Y-144775949D02*
X76255475Y-144823568D01*
X76255475Y-144823568D02*
X76303094Y-144871187D01*
X76303094Y-144871187D02*
X76350713Y-144966425D01*
X76350713Y-144966425D02*
X76350713Y-145204520D01*
X76350713Y-145204520D02*
X76303094Y-145299758D01*
X76303094Y-145299758D02*
X76255475Y-145347378D01*
X76255475Y-145347378D02*
X76160237Y-145394997D01*
X76160237Y-145394997D02*
X75874523Y-145394997D01*
X75874523Y-145394997D02*
X75779285Y-145347378D01*
X75779285Y-145347378D02*
X75731666Y-145299758D01*
X73003580Y-155106666D02*
X73051200Y-155154285D01*
X73051200Y-155154285D02*
X73098819Y-155297142D01*
X73098819Y-155297142D02*
X73098819Y-155392380D01*
X73098819Y-155392380D02*
X73051200Y-155535237D01*
X73051200Y-155535237D02*
X72955961Y-155630475D01*
X72955961Y-155630475D02*
X72860723Y-155678094D01*
X72860723Y-155678094D02*
X72670247Y-155725713D01*
X72670247Y-155725713D02*
X72527390Y-155725713D01*
X72527390Y-155725713D02*
X72336914Y-155678094D01*
X72336914Y-155678094D02*
X72241676Y-155630475D01*
X72241676Y-155630475D02*
X72146438Y-155535237D01*
X72146438Y-155535237D02*
X72098819Y-155392380D01*
X72098819Y-155392380D02*
X72098819Y-155297142D01*
X72098819Y-155297142D02*
X72146438Y-155154285D01*
X72146438Y-155154285D02*
X72194057Y-155106666D01*
X72194057Y-154725713D02*
X72146438Y-154678094D01*
X72146438Y-154678094D02*
X72098819Y-154582856D01*
X72098819Y-154582856D02*
X72098819Y-154344761D01*
X72098819Y-154344761D02*
X72146438Y-154249523D01*
X72146438Y-154249523D02*
X72194057Y-154201904D01*
X72194057Y-154201904D02*
X72289295Y-154154285D01*
X72289295Y-154154285D02*
X72384533Y-154154285D01*
X72384533Y-154154285D02*
X72527390Y-154201904D01*
X72527390Y-154201904D02*
X73098819Y-154773332D01*
X73098819Y-154773332D02*
X73098819Y-154154285D01*
X86085819Y-123610666D02*
X85609628Y-123943999D01*
X86085819Y-124182094D02*
X85085819Y-124182094D01*
X85085819Y-124182094D02*
X85085819Y-123801142D01*
X85085819Y-123801142D02*
X85133438Y-123705904D01*
X85133438Y-123705904D02*
X85181057Y-123658285D01*
X85181057Y-123658285D02*
X85276295Y-123610666D01*
X85276295Y-123610666D02*
X85419152Y-123610666D01*
X85419152Y-123610666D02*
X85514390Y-123658285D01*
X85514390Y-123658285D02*
X85562009Y-123705904D01*
X85562009Y-123705904D02*
X85609628Y-123801142D01*
X85609628Y-123801142D02*
X85609628Y-124182094D01*
X85085819Y-123277332D02*
X85085819Y-122610666D01*
X85085819Y-122610666D02*
X86085819Y-123039237D01*
X65875819Y-141096904D02*
X66685342Y-141096904D01*
X66685342Y-141096904D02*
X66780580Y-141049285D01*
X66780580Y-141049285D02*
X66828200Y-141001666D01*
X66828200Y-141001666D02*
X66875819Y-140906428D01*
X66875819Y-140906428D02*
X66875819Y-140715952D01*
X66875819Y-140715952D02*
X66828200Y-140620714D01*
X66828200Y-140620714D02*
X66780580Y-140573095D01*
X66780580Y-140573095D02*
X66685342Y-140525476D01*
X66685342Y-140525476D02*
X65875819Y-140525476D01*
X65875819Y-140144523D02*
X65875819Y-139525476D01*
X65875819Y-139525476D02*
X66256771Y-139858809D01*
X66256771Y-139858809D02*
X66256771Y-139715952D01*
X66256771Y-139715952D02*
X66304390Y-139620714D01*
X66304390Y-139620714D02*
X66352009Y-139573095D01*
X66352009Y-139573095D02*
X66447247Y-139525476D01*
X66447247Y-139525476D02*
X66685342Y-139525476D01*
X66685342Y-139525476D02*
X66780580Y-139573095D01*
X66780580Y-139573095D02*
X66828200Y-139620714D01*
X66828200Y-139620714D02*
X66875819Y-139715952D01*
X66875819Y-139715952D02*
X66875819Y-140001666D01*
X66875819Y-140001666D02*
X66828200Y-140096904D01*
X66828200Y-140096904D02*
X66780580Y-140144523D01*
X86052819Y-120054666D02*
X85576628Y-120387999D01*
X86052819Y-120626094D02*
X85052819Y-120626094D01*
X85052819Y-120626094D02*
X85052819Y-120245142D01*
X85052819Y-120245142D02*
X85100438Y-120149904D01*
X85100438Y-120149904D02*
X85148057Y-120102285D01*
X85148057Y-120102285D02*
X85243295Y-120054666D01*
X85243295Y-120054666D02*
X85386152Y-120054666D01*
X85386152Y-120054666D02*
X85481390Y-120102285D01*
X85481390Y-120102285D02*
X85529009Y-120149904D01*
X85529009Y-120149904D02*
X85576628Y-120245142D01*
X85576628Y-120245142D02*
X85576628Y-120626094D01*
X85148057Y-119673713D02*
X85100438Y-119626094D01*
X85100438Y-119626094D02*
X85052819Y-119530856D01*
X85052819Y-119530856D02*
X85052819Y-119292761D01*
X85052819Y-119292761D02*
X85100438Y-119197523D01*
X85100438Y-119197523D02*
X85148057Y-119149904D01*
X85148057Y-119149904D02*
X85243295Y-119102285D01*
X85243295Y-119102285D02*
X85338533Y-119102285D01*
X85338533Y-119102285D02*
X85481390Y-119149904D01*
X85481390Y-119149904D02*
X86052819Y-119721332D01*
X86052819Y-119721332D02*
X86052819Y-119102285D01*
X80033905Y-145107819D02*
X80033905Y-144107819D01*
X80033905Y-144107819D02*
X80272000Y-144107819D01*
X80272000Y-144107819D02*
X80414857Y-144155438D01*
X80414857Y-144155438D02*
X80510095Y-144250676D01*
X80510095Y-144250676D02*
X80557714Y-144345914D01*
X80557714Y-144345914D02*
X80605333Y-144536390D01*
X80605333Y-144536390D02*
X80605333Y-144679247D01*
X80605333Y-144679247D02*
X80557714Y-144869723D01*
X80557714Y-144869723D02*
X80510095Y-144964961D01*
X80510095Y-144964961D02*
X80414857Y-145060200D01*
X80414857Y-145060200D02*
X80272000Y-145107819D01*
X80272000Y-145107819D02*
X80033905Y-145107819D01*
X81557714Y-145107819D02*
X80986286Y-145107819D01*
X81272000Y-145107819D02*
X81272000Y-144107819D01*
X81272000Y-144107819D02*
X81176762Y-144250676D01*
X81176762Y-144250676D02*
X81081524Y-144345914D01*
X81081524Y-144345914D02*
X80986286Y-144393533D01*
X102576333Y-81480819D02*
X102243000Y-81004628D01*
X102004905Y-81480819D02*
X102004905Y-80480819D01*
X102004905Y-80480819D02*
X102385857Y-80480819D01*
X102385857Y-80480819D02*
X102481095Y-80528438D01*
X102481095Y-80528438D02*
X102528714Y-80576057D01*
X102528714Y-80576057D02*
X102576333Y-80671295D01*
X102576333Y-80671295D02*
X102576333Y-80814152D01*
X102576333Y-80814152D02*
X102528714Y-80909390D01*
X102528714Y-80909390D02*
X102481095Y-80957009D01*
X102481095Y-80957009D02*
X102385857Y-81004628D01*
X102385857Y-81004628D02*
X102004905Y-81004628D01*
X103481095Y-80480819D02*
X103004905Y-80480819D01*
X103004905Y-80480819D02*
X102957286Y-80957009D01*
X102957286Y-80957009D02*
X103004905Y-80909390D01*
X103004905Y-80909390D02*
X103100143Y-80861771D01*
X103100143Y-80861771D02*
X103338238Y-80861771D01*
X103338238Y-80861771D02*
X103433476Y-80909390D01*
X103433476Y-80909390D02*
X103481095Y-80957009D01*
X103481095Y-80957009D02*
X103528714Y-81052247D01*
X103528714Y-81052247D02*
X103528714Y-81290342D01*
X103528714Y-81290342D02*
X103481095Y-81385580D01*
X103481095Y-81385580D02*
X103433476Y-81433200D01*
X103433476Y-81433200D02*
X103338238Y-81480819D01*
X103338238Y-81480819D02*
X103100143Y-81480819D01*
X103100143Y-81480819D02*
X103004905Y-81433200D01*
X103004905Y-81433200D02*
X102957286Y-81385580D01*
D12*
%TO.C,C11*%
X86231000Y-88991221D02*
X86231000Y-89316779D01*
X87251000Y-88991221D02*
X87251000Y-89316779D01*
%TO.C,R14*%
X98740279Y-67054000D02*
X98414721Y-67054000D01*
X98740279Y-68074000D02*
X98414721Y-68074000D01*
%TO.C,R8*%
X78873839Y-154327113D02*
X78873839Y-154652671D01*
X79893839Y-154327113D02*
X79893839Y-154652671D01*
%TO.C,Q3*%
X81407000Y-121884000D02*
X79732000Y-121884000D01*
X81407000Y-121884000D02*
X82057000Y-121884000D01*
X81407000Y-125004000D02*
X80757000Y-125004000D01*
X81407000Y-125004000D02*
X82057000Y-125004000D01*
%TO.C,C9*%
X102664800Y-59273221D02*
X102664800Y-59598779D01*
X103684800Y-59273221D02*
X103684800Y-59598779D01*
%TO.C,J5*%
X67950000Y-86741000D02*
X67950000Y-88041000D01*
X67950000Y-91791000D02*
X67950000Y-93091000D01*
X67950000Y-93091000D02*
X70450000Y-93091000D01*
X70450000Y-86741000D02*
X67950000Y-86741000D01*
X72125000Y-87791000D02*
X72125000Y-92041000D01*
%TO.C,R11*%
X82966779Y-107795500D02*
X82641221Y-107795500D01*
X82966779Y-108815500D02*
X82641221Y-108815500D01*
D13*
%TO.C,J3*%
X64385000Y-115938000D02*
X64385000Y-117988000D01*
X64385000Y-121788000D02*
X64385000Y-123838000D01*
X64385000Y-123838000D02*
X68385000Y-123838000D01*
X68385000Y-115938000D02*
X64385000Y-115938000D01*
X71985000Y-122088000D02*
X71985000Y-117688000D01*
D10*
X63485000Y-122038000D02*
G75*
G02*
X63285000Y-122038000I-100000J0D01*
G01*
X63285000Y-122038000D02*
G75*
G02*
X63485000Y-122038000I100000J0D01*
G01*
D14*
%TO.C,C1*%
X96996000Y-137539000D02*
X98996000Y-137539000D01*
D15*
X86496000Y-163539000D02*
X103496000Y-163539000D01*
X103496000Y-140539000D01*
X86496000Y-140539000D01*
X86496000Y-163539000D01*
D12*
%TO.C,R13*%
X99603779Y-41882500D02*
X99278221Y-41882500D01*
X99603779Y-42902500D02*
X99278221Y-42902500D01*
%TO.C,J1*%
X78342000Y-162082800D02*
X78342000Y-169193800D01*
X80662000Y-162082800D02*
X80662000Y-169193800D01*
X82378000Y-162082800D02*
X82378000Y-169193800D01*
X84698000Y-162082800D02*
X84698000Y-169193800D01*
%TO.C,C7*%
X87729600Y-105471179D02*
X87729600Y-105145621D01*
X88749600Y-105471179D02*
X88749600Y-105145621D01*
%TO.C,Q1*%
X75128000Y-155462000D02*
X75128000Y-154002000D01*
X75128000Y-155462000D02*
X76058000Y-155462000D01*
X78288000Y-155462000D02*
X77358000Y-155462000D01*
X78288000Y-155462000D02*
X78288000Y-153302000D01*
D16*
%TO.C,R1*%
X82892900Y-138712150D02*
X82892900Y-141703850D01*
X85763100Y-141703850D02*
X85763100Y-138712150D01*
D12*
%TO.C,D5*%
X96901000Y-44450000D02*
X96901000Y-49530000D01*
X96901000Y-49530000D02*
X97155000Y-49530000D01*
X97155000Y-44450000D02*
X96901000Y-44450000D01*
X98425000Y-44450000D02*
X100457000Y-44450000D01*
X98425000Y-49530000D02*
X100457000Y-49530000D01*
X101727000Y-49530000D02*
X101981000Y-49530000D01*
X101981000Y-44450000D02*
X101727000Y-44450000D01*
X101981000Y-49530000D02*
X101981000Y-44450000D01*
X102594210Y-43942000D02*
G75*
G02*
X101875790Y-43942000I-359210J0D01*
G01*
X101875790Y-43942000D02*
G75*
G02*
X102594210Y-43942000I359210J0D01*
G01*
%TO.C,C10*%
X100470621Y-56030400D02*
X100796179Y-56030400D01*
X100470621Y-57050400D02*
X100796179Y-57050400D01*
D13*
%TO.C,J4*%
X64364000Y-103976000D02*
X64364000Y-106026000D01*
X64364000Y-106026000D02*
X68364000Y-106026000D01*
X64368000Y-94126000D02*
X64368000Y-96176000D01*
X68368000Y-94126000D02*
X64368000Y-94126000D01*
X71964000Y-95876000D02*
X71964000Y-100076000D01*
X71964000Y-104276000D02*
X71964000Y-100076000D01*
D10*
X63464000Y-104226000D02*
G75*
G02*
X63264000Y-104226000I-100000J0D01*
G01*
X63264000Y-104226000D02*
G75*
G02*
X63464000Y-104226000I100000J0D01*
G01*
D16*
%TO.C,U1*%
X63022501Y-144945100D02*
X63022501Y-156806900D01*
X63022501Y-156806900D02*
X70820301Y-156806900D01*
X70820301Y-144945100D02*
X63022501Y-144945100D01*
X70820301Y-156806900D02*
X70820301Y-144945100D01*
D17*
X68930500Y-158584900D02*
G75*
G02*
X68168500Y-158584900I-381000J0D01*
G01*
X68168500Y-158584900D02*
G75*
G02*
X68930500Y-158584900I381000J0D01*
G01*
D12*
%TO.C,C5*%
X68702422Y-142546000D02*
X69219578Y-142546000D01*
X68702422Y-143966000D02*
X69219578Y-143966000D01*
%TO.C,C6*%
X92801221Y-114806000D02*
X93126779Y-114806000D01*
X92801221Y-115826000D02*
X93126779Y-115826000D01*
%TO.C,C3*%
X72126401Y-149024121D02*
X72126401Y-149349679D01*
X73146401Y-149024121D02*
X73146401Y-149349679D01*
%TO.C,C4*%
X69219578Y-136704000D02*
X68702422Y-136704000D01*
X69219578Y-138124000D02*
X68702422Y-138124000D01*
%TO.C,R3*%
X78103000Y-120050779D02*
X78103000Y-119725221D01*
X79123000Y-120050779D02*
X79123000Y-119725221D01*
%TO.C,J6*%
X70087000Y-162082800D02*
X70087000Y-169193800D01*
X72407000Y-162082800D02*
X72407000Y-169193800D01*
X74123000Y-162082800D02*
X74123000Y-169193800D01*
X76443000Y-162082800D02*
X76443000Y-169193800D01*
%TO.C,C8*%
X102868000Y-45744079D02*
X102868000Y-45418521D01*
X103888000Y-45744079D02*
X103888000Y-45418521D01*
D13*
%TO.C,J8*%
X64385000Y-124828000D02*
X64385000Y-126878000D01*
X64385000Y-130678000D02*
X64385000Y-132728000D01*
X64385000Y-132728000D02*
X68385000Y-132728000D01*
X68385000Y-124828000D02*
X64385000Y-124828000D01*
X71985000Y-130978000D02*
X71985000Y-126578000D01*
D10*
X63485000Y-130928000D02*
G75*
G02*
X63285000Y-130928000I-100000J0D01*
G01*
X63285000Y-130928000D02*
G75*
G02*
X63485000Y-130928000I100000J0D01*
G01*
D12*
%TO.C,U4*%
X89295000Y-98566000D02*
X105015000Y-98566000D01*
X89295000Y-114176000D02*
X89295000Y-98566000D01*
X94355000Y-114286000D02*
X105015000Y-114286000D01*
X105015000Y-114286000D02*
X105015000Y-98566000D01*
%TO.C,R9*%
X100492779Y-69975000D02*
X100167221Y-69975000D01*
X100492779Y-70995000D02*
X100167221Y-70995000D01*
%TO.C,R10*%
X103540779Y-69975000D02*
X103215221Y-69975000D01*
X103540779Y-70995000D02*
X103215221Y-70995000D01*
%TO.C,U2*%
X99294000Y-75057000D02*
X99294000Y-73107000D01*
X99294000Y-75057000D02*
X99294000Y-78507000D01*
X104414000Y-75057000D02*
X104414000Y-73107000D01*
X104414000Y-75057000D02*
X104414000Y-77007000D01*
D18*
%TO.C,G\u002A\u002A\u002A*%
G36*
X74264982Y-91635784D02*
G01*
X74301460Y-91638283D01*
X74328611Y-91642280D01*
X74352350Y-91649291D01*
X74378590Y-91660831D01*
X74395257Y-91669160D01*
X74447159Y-91701840D01*
X74485757Y-91740863D01*
X74512083Y-91787787D01*
X74527170Y-91844170D01*
X74530594Y-91873378D01*
X74530366Y-91904863D01*
X74526126Y-91937302D01*
X74523819Y-91946973D01*
X74500299Y-92005229D01*
X74465748Y-92053087D01*
X74420494Y-92090308D01*
X74364867Y-92116657D01*
X74299194Y-92131895D01*
X74262971Y-92135259D01*
X74189661Y-92134094D01*
X74126184Y-92122064D01*
X74071238Y-92098708D01*
X74023518Y-92063566D01*
X74004105Y-92043841D01*
X73973041Y-92000699D01*
X73954450Y-91952982D01*
X73947190Y-91897521D01*
X73946998Y-91885469D01*
X73952006Y-91828863D01*
X73967931Y-91780443D01*
X73996127Y-91736529D01*
X74005940Y-91725055D01*
X74049247Y-91685808D01*
X74098953Y-91658066D01*
X74156582Y-91641303D01*
X74223656Y-91634994D01*
X74264982Y-91635784D01*
G37*
G36*
X75126993Y-86657524D02*
G01*
X75128194Y-86669596D01*
X75128216Y-86674816D01*
X75125957Y-86693228D01*
X75116386Y-86704990D01*
X75101543Y-86713247D01*
X75083274Y-86724397D01*
X75075827Y-86737586D01*
X75074870Y-86748952D01*
X75076345Y-86764393D01*
X75083852Y-86770726D01*
X75101543Y-86771937D01*
X75119581Y-86773361D01*
X75126965Y-86779766D01*
X75128216Y-86790989D01*
X75128216Y-86810041D01*
X74974924Y-86810041D01*
X74937697Y-86810041D01*
X74937737Y-86771937D01*
X74974924Y-86771937D01*
X75037643Y-86771937D01*
X75035300Y-86740325D01*
X75029939Y-86714547D01*
X75019620Y-86700355D01*
X75002126Y-86695950D01*
X74988116Y-86705126D01*
X74979230Y-86726331D01*
X74977267Y-86740325D01*
X74974924Y-86771937D01*
X74937737Y-86771937D01*
X74937739Y-86770032D01*
X74940437Y-86729366D01*
X74947879Y-86696121D01*
X74959230Y-86673188D01*
X74968012Y-86665336D01*
X74993456Y-86658080D01*
X75021663Y-86659178D01*
X75045737Y-86667989D01*
X75052311Y-86673170D01*
X75063712Y-86683258D01*
X75072885Y-86683979D01*
X75086839Y-86675574D01*
X75088510Y-86674420D01*
X75109997Y-86659964D01*
X75121876Y-86654323D01*
X75126993Y-86657524D01*
G37*
G36*
X75095337Y-86554375D02*
G01*
X75142949Y-86574753D01*
X75182701Y-86608073D01*
X75213724Y-86653591D01*
X75224471Y-86683876D01*
X75230855Y-86721029D01*
X75232344Y-86758763D01*
X75228407Y-86790788D01*
X75225987Y-86798610D01*
X75200951Y-86845542D01*
X75166231Y-86883141D01*
X75124247Y-86910411D01*
X75077414Y-86926359D01*
X75033124Y-86929622D01*
X75028153Y-86929988D01*
X74978879Y-86920304D01*
X74954961Y-86910143D01*
X74911135Y-86879955D01*
X74878248Y-86841150D01*
X74856871Y-86796209D01*
X74847816Y-86748884D01*
X74893668Y-86748884D01*
X74903911Y-86791783D01*
X74927237Y-86831339D01*
X74954274Y-86858101D01*
X74991213Y-86878308D01*
X75033124Y-86886408D01*
X75075858Y-86882505D01*
X75115270Y-86866705D01*
X75133385Y-86853550D01*
X75164618Y-86817163D01*
X75183140Y-86775426D01*
X75188247Y-86731088D01*
X75179233Y-86686895D01*
X75177387Y-86682252D01*
X75153926Y-86643353D01*
X75121832Y-86614297D01*
X75083892Y-86595755D01*
X75042893Y-86588398D01*
X75001619Y-86592898D01*
X74962858Y-86609925D01*
X74942714Y-86625722D01*
X74912943Y-86663294D01*
X74896637Y-86705201D01*
X74893668Y-86748884D01*
X74847816Y-86748884D01*
X74847573Y-86747612D01*
X74850926Y-86697841D01*
X74867500Y-86649376D01*
X74887606Y-86617118D01*
X74905612Y-86598819D01*
X74930652Y-86579602D01*
X74947190Y-86569362D01*
X74972992Y-86556686D01*
X74996492Y-86549970D01*
X75024841Y-86547530D01*
X75040577Y-86547377D01*
X75095337Y-86554375D01*
G37*
G36*
X74347657Y-86702568D02*
G01*
X74467835Y-86723175D01*
X74581872Y-86757685D01*
X74690105Y-86806234D01*
X74792874Y-86868959D01*
X74890515Y-86945993D01*
X74926197Y-86978906D01*
X75007244Y-87065040D01*
X75075435Y-87155976D01*
X75131795Y-87253554D01*
X75177345Y-87359614D01*
X75213108Y-87475995D01*
X75221267Y-87509635D01*
X75238266Y-87583548D01*
X75242830Y-91245324D01*
X73653598Y-91245324D01*
X73649788Y-91245324D01*
X73649788Y-91633983D01*
X73797872Y-91633983D01*
X73758870Y-91673992D01*
X73709657Y-91733466D01*
X73672670Y-91799383D01*
X73656667Y-91839744D01*
X73647030Y-91879007D01*
X73640868Y-91928468D01*
X73638246Y-91983472D01*
X73639229Y-92039362D01*
X73643881Y-92091483D01*
X73652266Y-92135177D01*
X73652571Y-92136294D01*
X73683137Y-92219283D01*
X73726381Y-92294067D01*
X73781704Y-92359922D01*
X73848506Y-92416126D01*
X73920325Y-92459058D01*
X73990947Y-92487713D01*
X74070901Y-92508516D01*
X74156088Y-92520823D01*
X74242413Y-92523990D01*
X74307147Y-92519789D01*
X74368413Y-92511524D01*
X74419671Y-92501254D01*
X74466149Y-92487515D01*
X74513072Y-92468845D01*
X74549038Y-92452028D01*
X74621351Y-92408955D01*
X74684922Y-92355344D01*
X74737823Y-92293099D01*
X74776099Y-92228403D01*
X74808101Y-92145313D01*
X74826217Y-92057930D01*
X74831006Y-91978840D01*
X74824338Y-91895327D01*
X74804460Y-91818811D01*
X74771556Y-91749781D01*
X74725813Y-91688724D01*
X74716719Y-91679117D01*
X74672556Y-91633983D01*
X75242527Y-91633983D01*
X75241246Y-91818787D01*
X75240771Y-91872206D01*
X75240130Y-91922166D01*
X75239372Y-91966114D01*
X75238544Y-92001499D01*
X75237695Y-92025767D01*
X75237183Y-92034073D01*
X75218905Y-92153956D01*
X75186820Y-92269833D01*
X75141788Y-92380550D01*
X75084668Y-92484953D01*
X75016319Y-92581885D01*
X74937601Y-92670191D01*
X74849373Y-92748717D01*
X74752494Y-92816308D01*
X74647824Y-92871807D01*
X74598573Y-92892467D01*
X74483446Y-92929839D01*
X74366764Y-92953938D01*
X74250813Y-92964424D01*
X74138259Y-92960994D01*
X74011736Y-92941991D01*
X73892523Y-92909635D01*
X73780359Y-92863801D01*
X73674983Y-92804363D01*
X73576135Y-92731196D01*
X73488489Y-92649325D01*
X73408701Y-92556580D01*
X73342142Y-92457275D01*
X73288179Y-92350260D01*
X73246176Y-92234384D01*
X73232448Y-92184766D01*
X73211594Y-92102660D01*
X73211594Y-90329829D01*
X73649519Y-90329829D01*
X73712525Y-90348824D01*
X73733292Y-90354983D01*
X73766827Y-90364802D01*
X73811247Y-90377734D01*
X73864670Y-90393234D01*
X73925213Y-90410757D01*
X73990993Y-90429756D01*
X74060129Y-90449686D01*
X74099413Y-90460993D01*
X74166976Y-90480501D01*
X74230019Y-90498843D01*
X74287029Y-90515570D01*
X74336498Y-90530230D01*
X74376914Y-90542375D01*
X74406766Y-90551555D01*
X74424544Y-90557321D01*
X74429008Y-90559094D01*
X74423028Y-90562116D01*
X74403738Y-90568977D01*
X74372462Y-90579265D01*
X74330527Y-90592565D01*
X74279257Y-90608466D01*
X74219978Y-90626552D01*
X74154015Y-90646411D01*
X74082694Y-90667630D01*
X74050465Y-90677141D01*
X73976705Y-90698905D01*
X73907283Y-90719486D01*
X73843588Y-90738465D01*
X73787011Y-90755423D01*
X73738942Y-90769941D01*
X73700772Y-90781601D01*
X73673890Y-90789984D01*
X73659687Y-90794670D01*
X73657865Y-90795418D01*
X73655012Y-90803550D01*
X73652953Y-90824323D01*
X73651667Y-90858334D01*
X73651136Y-90906181D01*
X73651340Y-90968462D01*
X73651559Y-90991728D01*
X73653598Y-91182881D01*
X74234550Y-90972144D01*
X74815502Y-90761406D01*
X74815633Y-90570379D01*
X74815764Y-90379351D01*
X74463304Y-90270110D01*
X74392963Y-90248244D01*
X74327061Y-90227631D01*
X74267032Y-90208730D01*
X74214309Y-90191997D01*
X74170324Y-90177890D01*
X74136510Y-90166865D01*
X74114300Y-90159380D01*
X74105127Y-90155892D01*
X74105013Y-90155811D01*
X74110900Y-90152654D01*
X74130012Y-90145524D01*
X74160984Y-90134867D01*
X74202455Y-90121129D01*
X74253060Y-90104753D01*
X74311437Y-90086186D01*
X74376222Y-90065871D01*
X74446052Y-90044255D01*
X74457464Y-90040748D01*
X74815746Y-89930743D01*
X74815755Y-89740178D01*
X74815764Y-89549612D01*
X74237701Y-89338182D01*
X74147994Y-89305393D01*
X74062429Y-89274161D01*
X73982084Y-89244875D01*
X73908037Y-89217928D01*
X73841366Y-89193710D01*
X73783149Y-89172612D01*
X73734464Y-89155025D01*
X73696389Y-89141340D01*
X73670001Y-89131948D01*
X73656379Y-89127240D01*
X73654713Y-89126753D01*
X73653348Y-89134028D01*
X73652129Y-89154476D01*
X73651110Y-89186027D01*
X73650346Y-89226611D01*
X73649892Y-89274160D01*
X73649788Y-89312018D01*
X73649788Y-89497284D01*
X74021300Y-89606455D01*
X74094375Y-89627972D01*
X74163558Y-89648427D01*
X74227364Y-89667376D01*
X74284306Y-89684372D01*
X74332898Y-89698971D01*
X74371655Y-89710726D01*
X74399090Y-89719195D01*
X74413717Y-89723930D01*
X74415093Y-89724435D01*
X74418903Y-89726125D01*
X74421093Y-89727945D01*
X74420805Y-89730169D01*
X74417183Y-89733066D01*
X74409369Y-89736908D01*
X74396507Y-89741965D01*
X74377739Y-89748510D01*
X74352209Y-89756814D01*
X74319058Y-89767147D01*
X74277431Y-89779780D01*
X74226470Y-89794985D01*
X74165317Y-89813033D01*
X74093117Y-89834195D01*
X74009011Y-89858742D01*
X73912144Y-89886946D01*
X73801657Y-89919077D01*
X73779341Y-89925564D01*
X73653598Y-89962120D01*
X73651559Y-90145975D01*
X73649519Y-90329829D01*
X73211594Y-90329829D01*
X73211594Y-89831673D01*
X73211596Y-89611089D01*
X73211605Y-89405224D01*
X73211624Y-89213554D01*
X73211650Y-89073407D01*
X73649788Y-89073407D01*
X74815764Y-89073407D01*
X74815764Y-88692369D01*
X73649788Y-88692369D01*
X73649788Y-89073407D01*
X73211650Y-89073407D01*
X73211657Y-89035556D01*
X73211705Y-88870707D01*
X73211773Y-88718483D01*
X73211839Y-88616162D01*
X73649788Y-88616162D01*
X74815764Y-88616162D01*
X74815764Y-88235123D01*
X74236587Y-88235123D01*
X73649788Y-88235123D01*
X73649788Y-88616162D01*
X73211839Y-88616162D01*
X73211864Y-88578362D01*
X73211981Y-88449820D01*
X73212127Y-88332334D01*
X73212305Y-88225382D01*
X73212519Y-88128439D01*
X73212771Y-88040983D01*
X73213066Y-87962490D01*
X73213406Y-87892438D01*
X73213794Y-87830303D01*
X73214233Y-87775562D01*
X73214728Y-87727691D01*
X73215280Y-87686168D01*
X73215894Y-87650470D01*
X73216572Y-87620073D01*
X73217318Y-87594454D01*
X73218134Y-87573090D01*
X73219024Y-87555458D01*
X73219992Y-87541035D01*
X73221040Y-87529297D01*
X73222172Y-87519721D01*
X73223390Y-87511784D01*
X73224698Y-87504964D01*
X73225868Y-87499720D01*
X73230337Y-87484478D01*
X73638357Y-87484478D01*
X73639581Y-87579738D01*
X73643445Y-87655590D01*
X73653708Y-87722211D01*
X73671547Y-87784691D01*
X73698139Y-87848116D01*
X73704783Y-87861706D01*
X73742197Y-87922952D01*
X73790804Y-87981687D01*
X73846883Y-88034137D01*
X73906715Y-88076527D01*
X73928377Y-88088558D01*
X73978288Y-88112535D01*
X74023790Y-88130221D01*
X74068825Y-88142467D01*
X74117339Y-88150124D01*
X74173276Y-88154045D01*
X74236587Y-88155084D01*
X74297626Y-88154346D01*
X74347293Y-88151622D01*
X74389412Y-88146117D01*
X74427804Y-88137036D01*
X74466293Y-88123582D01*
X74508702Y-88104960D01*
X74532550Y-88093473D01*
X74606795Y-88048710D01*
X74671295Y-87992382D01*
X74725310Y-87925217D01*
X74756135Y-87872828D01*
X74788311Y-87802732D01*
X74810294Y-87735961D01*
X74823231Y-87667491D01*
X74828271Y-87592296D01*
X74828299Y-87556876D01*
X74827196Y-87484478D01*
X74520434Y-87480358D01*
X74517213Y-87547727D01*
X74510734Y-87602195D01*
X74496230Y-87646028D01*
X74472377Y-87682280D01*
X74449031Y-87705099D01*
X74400145Y-87737454D01*
X74344053Y-87759915D01*
X74283511Y-87772565D01*
X74221272Y-87775489D01*
X74160094Y-87768771D01*
X74102729Y-87752493D01*
X74051935Y-87726741D01*
X74010603Y-87691749D01*
X73982158Y-87654726D01*
X73964633Y-87616760D01*
X73956222Y-87572926D01*
X73954786Y-87539574D01*
X73954618Y-87480359D01*
X73796488Y-87482419D01*
X73638357Y-87484478D01*
X73230337Y-87484478D01*
X73262176Y-87375887D01*
X73311021Y-87260107D01*
X73371948Y-87152971D01*
X73444505Y-87055072D01*
X73528239Y-86967001D01*
X73622697Y-86889350D01*
X73727425Y-86822711D01*
X73755729Y-86807546D01*
X73860729Y-86759921D01*
X73965955Y-86725968D01*
X74074487Y-86704948D01*
X74189406Y-86696119D01*
X74221000Y-86695730D01*
X74347657Y-86702568D01*
G37*
D12*
%TO.C,R6*%
X78103000Y-123606779D02*
X78103000Y-123281221D01*
X79123000Y-123606779D02*
X79123000Y-123281221D01*
%TO.C,R17*%
X85968721Y-96010000D02*
X86294279Y-96010000D01*
X85968721Y-97030000D02*
X86294279Y-97030000D01*
%TO.C,R16*%
X86358000Y-94269779D02*
X86358000Y-93944221D01*
X87378000Y-94269779D02*
X87378000Y-93944221D01*
%TO.C,R4*%
X100492779Y-79119000D02*
X100167221Y-79119000D01*
X100492779Y-80139000D02*
X100167221Y-80139000D01*
D11*
%TO.C,D4*%
X74708000Y-150337387D02*
X78248000Y-150337387D01*
X74708000Y-152645387D02*
X78248000Y-152645387D01*
X76009500Y-151491387D02*
X76390500Y-151491387D01*
X76390500Y-150983387D02*
X76390500Y-151999387D01*
X76390500Y-151491387D02*
X77025500Y-151110387D01*
X77025500Y-151110387D02*
X77025500Y-151872387D01*
X77025500Y-151491387D02*
X77406500Y-151491387D01*
X77025500Y-151872387D02*
X76390500Y-151491387D01*
D12*
%TO.C,R12*%
X86231000Y-86141779D02*
X86231000Y-85816221D01*
X87251000Y-86141779D02*
X87251000Y-85816221D01*
D11*
%TO.C,BT1*%
X95854999Y-132398999D02*
G75*
G02*
X95855001Y-117799001I1300001J7299999D01*
G01*
X98570270Y-117820469D02*
G75*
G02*
X98455000Y-132399000I-1415270J-7278531D01*
G01*
D19*
%TO.C,U6*%
X99109400Y-57659400D02*
X99109400Y-60707400D01*
X102157400Y-57659400D02*
X99109400Y-57659400D01*
X102157400Y-57659400D02*
X102157400Y-60707400D01*
X102157400Y-60707400D02*
X99109400Y-60707400D01*
D20*
X101961400Y-61200400D02*
G75*
G02*
X101761400Y-61200400I-100000J0D01*
G01*
X101761400Y-61200400D02*
G75*
G02*
X101961400Y-61200400I100000J0D01*
G01*
D12*
%TO.C,R15*%
X98740279Y-64514000D02*
X98414721Y-64514000D01*
X98740279Y-65534000D02*
X98414721Y-65534000D01*
D13*
%TO.C,U5*%
X73320000Y-30634000D02*
X94320000Y-30634000D01*
X73320000Y-30884000D02*
X73320000Y-30634000D01*
X73320000Y-81634000D02*
X73320000Y-81384000D01*
X94320000Y-30634000D02*
X94320000Y-30884000D01*
X94320000Y-81634000D02*
X73320000Y-81634000D01*
X94320000Y-81634000D02*
X94320000Y-81384000D01*
D20*
X71730000Y-32004000D02*
G75*
G02*
X71530000Y-32004000I-100000J0D01*
G01*
X71530000Y-32004000D02*
G75*
G02*
X71730000Y-32004000I100000J0D01*
G01*
D16*
%TO.C,D2*%
X72009000Y-139665200D02*
X72009000Y-136566400D01*
X72009000Y-139665200D02*
X78524100Y-139665200D01*
X72605900Y-136566400D02*
X72605900Y-136932160D01*
X72605900Y-139299440D02*
X72605900Y-139665200D01*
X78524100Y-136566400D02*
X72009000Y-136566400D01*
X78524100Y-136932160D02*
X78524100Y-136566400D01*
X78524100Y-139665200D02*
X78524100Y-139299440D01*
D12*
%TO.C,Q2*%
X81407000Y-118328000D02*
X79732000Y-118328000D01*
X81407000Y-118328000D02*
X82057000Y-118328000D01*
X81407000Y-121448000D02*
X80757000Y-121448000D01*
X81407000Y-121448000D02*
X82057000Y-121448000D01*
D16*
%TO.C,D3*%
X72009000Y-144170400D02*
X72009000Y-141071600D01*
X72009000Y-144170400D02*
X78524100Y-144170400D01*
X72605900Y-141071600D02*
X72605900Y-141437360D01*
X72605900Y-143804640D02*
X72605900Y-144170400D01*
X78524100Y-141071600D02*
X72009000Y-141071600D01*
X78524100Y-141437360D02*
X78524100Y-141071600D01*
X78524100Y-144170400D02*
X78524100Y-143804640D01*
D12*
%TO.C,C2*%
X71926401Y-152620478D02*
X71926401Y-152103322D01*
X73346401Y-152620478D02*
X73346401Y-152103322D01*
D21*
%TO.C,G\u002A\u002A\u002A*%
X67994750Y-38465185D02*
X68124081Y-38494450D01*
X68285625Y-38544374D01*
X68467407Y-38610551D01*
X68657454Y-38688578D01*
X68843791Y-38774048D01*
X68872100Y-38787941D01*
X69263853Y-39009703D01*
X69623842Y-39269533D01*
X69950032Y-39564305D01*
X70240387Y-39890892D01*
X70492871Y-40246168D01*
X70705447Y-40627007D01*
X70876080Y-41030283D01*
X71002733Y-41452870D01*
X71083369Y-41891641D01*
X71112335Y-42227491D01*
X71108202Y-42680771D01*
X71055629Y-43123421D01*
X70956408Y-43552400D01*
X70812329Y-43964665D01*
X70625184Y-44357175D01*
X70396763Y-44726888D01*
X70128857Y-45070763D01*
X69823257Y-45385758D01*
X69481753Y-45668831D01*
X69106137Y-45916940D01*
X68862252Y-46049204D01*
X68749119Y-46101027D01*
X68606146Y-46159461D01*
X68447387Y-46219455D01*
X68286892Y-46275958D01*
X68138711Y-46323920D01*
X68016898Y-46358290D01*
X67976750Y-46367504D01*
X67894200Y-46384436D01*
X67894200Y-42748200D01*
X67689047Y-42748200D01*
X67585190Y-42746918D01*
X67517632Y-42740506D01*
X67471885Y-42725116D01*
X67433465Y-42696897D01*
X67409647Y-42673953D01*
X67360299Y-42613380D01*
X67338976Y-42547841D01*
X67335400Y-42481500D01*
X67342451Y-42395882D01*
X67370224Y-42334162D01*
X67409647Y-42289046D01*
X67450310Y-42251923D01*
X67490155Y-42229794D01*
X67543668Y-42218808D01*
X67625333Y-42215116D01*
X67689047Y-42214800D01*
X67894200Y-42214800D01*
X67894200Y-38449107D01*
X67994750Y-38465185D01*
G36*
X67994750Y-38465185D02*
G01*
X68124081Y-38494450D01*
X68285625Y-38544374D01*
X68467407Y-38610551D01*
X68657454Y-38688578D01*
X68843791Y-38774048D01*
X68872100Y-38787941D01*
X69263853Y-39009703D01*
X69623842Y-39269533D01*
X69950032Y-39564305D01*
X70240387Y-39890892D01*
X70492871Y-40246168D01*
X70705447Y-40627007D01*
X70876080Y-41030283D01*
X71002733Y-41452870D01*
X71083369Y-41891641D01*
X71112335Y-42227491D01*
X71108202Y-42680771D01*
X71055629Y-43123421D01*
X70956408Y-43552400D01*
X70812329Y-43964665D01*
X70625184Y-44357175D01*
X70396763Y-44726888D01*
X70128857Y-45070763D01*
X69823257Y-45385758D01*
X69481753Y-45668831D01*
X69106137Y-45916940D01*
X68862252Y-46049204D01*
X68749119Y-46101027D01*
X68606146Y-46159461D01*
X68447387Y-46219455D01*
X68286892Y-46275958D01*
X68138711Y-46323920D01*
X68016898Y-46358290D01*
X67976750Y-46367504D01*
X67894200Y-46384436D01*
X67894200Y-42748200D01*
X67689047Y-42748200D01*
X67585190Y-42746918D01*
X67517632Y-42740506D01*
X67471885Y-42725116D01*
X67433465Y-42696897D01*
X67409647Y-42673953D01*
X67360299Y-42613380D01*
X67338976Y-42547841D01*
X67335400Y-42481500D01*
X67342451Y-42395882D01*
X67370224Y-42334162D01*
X67409647Y-42289046D01*
X67450310Y-42251923D01*
X67490155Y-42229794D01*
X67543668Y-42218808D01*
X67625333Y-42215116D01*
X67689047Y-42214800D01*
X67894200Y-42214800D01*
X67894200Y-38449107D01*
X67994750Y-38465185D01*
G37*
X67310000Y-41668787D02*
X67194133Y-41730254D01*
X67036956Y-41841313D01*
X66908816Y-41988014D01*
X66815253Y-42160963D01*
X66761808Y-42350762D01*
X66751201Y-42481500D01*
X66774945Y-42677298D01*
X66842486Y-42862484D01*
X66948282Y-43027663D01*
X67086795Y-43163439D01*
X67194133Y-43232745D01*
X67310000Y-43294212D01*
X67310000Y-46482000D01*
X67095097Y-46482000D01*
X66637696Y-46457376D01*
X66193167Y-46384612D01*
X65764347Y-46265367D01*
X65354075Y-46101299D01*
X64965189Y-45894067D01*
X64600527Y-45645330D01*
X64262927Y-45356747D01*
X63955228Y-45029977D01*
X63680269Y-44666678D01*
X63503992Y-44383114D01*
X63326885Y-44024626D01*
X63185773Y-43637651D01*
X63082472Y-43231287D01*
X63018798Y-42814627D01*
X63003197Y-42521413D01*
X63681595Y-42521413D01*
X63689155Y-42735398D01*
X63706756Y-42926147D01*
X63716731Y-42992522D01*
X63810024Y-43389151D01*
X63948855Y-43764186D01*
X64132285Y-44115782D01*
X64359371Y-44442093D01*
X64587751Y-44699962D01*
X64830536Y-44924897D01*
X65082739Y-45112792D01*
X65362393Y-45276671D01*
X65442426Y-45317250D01*
X65563368Y-45374790D01*
X65650084Y-45410205D01*
X65712382Y-45426710D01*
X65760065Y-45427516D01*
X65772254Y-45425340D01*
X65890951Y-45378740D01*
X65970312Y-45300031D01*
X66009878Y-45189780D01*
X66014600Y-45125330D01*
X65996959Y-45035523D01*
X65940944Y-44956622D01*
X65841920Y-44883555D01*
X65749801Y-44835618D01*
X65441236Y-44663984D01*
X65162337Y-44453976D01*
X64915674Y-44210128D01*
X64703818Y-43936974D01*
X64529341Y-43639047D01*
X64394813Y-43320882D01*
X64302806Y-42987014D01*
X64255891Y-42641975D01*
X64256348Y-42426952D01*
X65060402Y-42426952D01*
X65078190Y-42713172D01*
X65114099Y-42889756D01*
X65209455Y-43159566D01*
X65348961Y-43408862D01*
X65528219Y-43632092D01*
X65742833Y-43823705D01*
X65967356Y-43967094D01*
X66108444Y-44023832D01*
X66234618Y-44037876D01*
X66341126Y-44010429D01*
X66423220Y-43942693D01*
X66475345Y-43838585D01*
X66489366Y-43734450D01*
X66462354Y-43642558D01*
X66391288Y-43557937D01*
X66273144Y-43475614D01*
X66245219Y-43459874D01*
X66045487Y-43323844D01*
X65883259Y-43158405D01*
X65760443Y-42969360D01*
X65678943Y-42762514D01*
X65640667Y-42543673D01*
X65647520Y-42318641D01*
X65701407Y-42093222D01*
X65754548Y-41965445D01*
X65843128Y-41824084D01*
X65965985Y-41684002D01*
X66108389Y-41559851D01*
X66255608Y-41466283D01*
X66257158Y-41465500D01*
X66383068Y-41384831D01*
X66459707Y-41294023D01*
X66487826Y-41191803D01*
X66474466Y-41096081D01*
X66420658Y-40989884D01*
X66337712Y-40922645D01*
X66230845Y-40895900D01*
X66105275Y-40911186D01*
X65994706Y-40954787D01*
X65857815Y-41034405D01*
X65716526Y-41133735D01*
X65587120Y-41240252D01*
X65485876Y-41341434D01*
X65474386Y-41355058D01*
X65299831Y-41604797D01*
X65172078Y-41869121D01*
X65091984Y-42144387D01*
X65060402Y-42426952D01*
X64256348Y-42426952D01*
X64256639Y-42290301D01*
X64263283Y-42214169D01*
X64319830Y-41865947D01*
X64416911Y-41543059D01*
X64557728Y-41236389D01*
X64675761Y-41039082D01*
X64883666Y-40760075D01*
X65120148Y-40518128D01*
X65391033Y-40308044D01*
X65700215Y-40125626D01*
X65820153Y-40062125D01*
X65902167Y-40012761D01*
X65954236Y-39969907D01*
X65984338Y-39925934D01*
X66000449Y-39873215D01*
X66006974Y-39832329D01*
X66000375Y-39712220D01*
X65948305Y-39612498D01*
X65853990Y-39539090D01*
X65844870Y-39534605D01*
X65785373Y-39509137D01*
X65738497Y-39502024D01*
X65682323Y-39513117D01*
X65621501Y-39533091D01*
X65486461Y-39589873D01*
X65326876Y-39673601D01*
X65155516Y-39776750D01*
X64985154Y-39891795D01*
X64880962Y-39969420D01*
X64594454Y-40223967D01*
X64340947Y-40514492D01*
X64123413Y-40836002D01*
X63944824Y-41183501D01*
X63808151Y-41551995D01*
X63718809Y-41922700D01*
X63696458Y-42096798D01*
X63684041Y-42302458D01*
X63681595Y-42521413D01*
X63003197Y-42521413D01*
X62996565Y-42396769D01*
X63017590Y-41986808D01*
X63020480Y-41960800D01*
X63086739Y-41551680D01*
X63190685Y-41165431D01*
X63336765Y-40787087D01*
X63424149Y-40601900D01*
X63646892Y-40211308D01*
X63909902Y-39849786D01*
X64209933Y-39520186D01*
X64543741Y-39225362D01*
X64908078Y-38968166D01*
X65299701Y-38751453D01*
X65715362Y-38578076D01*
X65733487Y-38571719D01*
X65738497Y-38570124D01*
X65984392Y-38491830D01*
X66221200Y-38433719D01*
X66230845Y-38432134D01*
X66461667Y-38394182D01*
X66723546Y-38370013D01*
X66897250Y-38361593D01*
X67310000Y-38346885D01*
X67310000Y-41668787D01*
G36*
X67310000Y-41668787D02*
G01*
X67194133Y-41730254D01*
X67036956Y-41841313D01*
X66908816Y-41988014D01*
X66815253Y-42160963D01*
X66761808Y-42350762D01*
X66751201Y-42481500D01*
X66774945Y-42677298D01*
X66842486Y-42862484D01*
X66948282Y-43027663D01*
X67086795Y-43163439D01*
X67194133Y-43232745D01*
X67310000Y-43294212D01*
X67310000Y-46482000D01*
X67095097Y-46482000D01*
X66637696Y-46457376D01*
X66193167Y-46384612D01*
X65764347Y-46265367D01*
X65354075Y-46101299D01*
X64965189Y-45894067D01*
X64600527Y-45645330D01*
X64262927Y-45356747D01*
X63955228Y-45029977D01*
X63680269Y-44666678D01*
X63503992Y-44383114D01*
X63326885Y-44024626D01*
X63185773Y-43637651D01*
X63082472Y-43231287D01*
X63018798Y-42814627D01*
X63003197Y-42521413D01*
X63681595Y-42521413D01*
X63689155Y-42735398D01*
X63706756Y-42926147D01*
X63716731Y-42992522D01*
X63810024Y-43389151D01*
X63948855Y-43764186D01*
X64132285Y-44115782D01*
X64359371Y-44442093D01*
X64587751Y-44699962D01*
X64830536Y-44924897D01*
X65082739Y-45112792D01*
X65362393Y-45276671D01*
X65442426Y-45317250D01*
X65563368Y-45374790D01*
X65650084Y-45410205D01*
X65712382Y-45426710D01*
X65760065Y-45427516D01*
X65772254Y-45425340D01*
X65890951Y-45378740D01*
X65970312Y-45300031D01*
X66009878Y-45189780D01*
X66014600Y-45125330D01*
X65996959Y-45035523D01*
X65940944Y-44956622D01*
X65841920Y-44883555D01*
X65749801Y-44835618D01*
X65441236Y-44663984D01*
X65162337Y-44453976D01*
X64915674Y-44210128D01*
X64703818Y-43936974D01*
X64529341Y-43639047D01*
X64394813Y-43320882D01*
X64302806Y-42987014D01*
X64255891Y-42641975D01*
X64256348Y-42426952D01*
X65060402Y-42426952D01*
X65078190Y-42713172D01*
X65114099Y-42889756D01*
X65209455Y-43159566D01*
X65348961Y-43408862D01*
X65528219Y-43632092D01*
X65742833Y-43823705D01*
X65967356Y-43967094D01*
X66108444Y-44023832D01*
X66234618Y-44037876D01*
X66341126Y-44010429D01*
X66423220Y-43942693D01*
X66475345Y-43838585D01*
X66489366Y-43734450D01*
X66462354Y-43642558D01*
X66391288Y-43557937D01*
X66273144Y-43475614D01*
X66245219Y-43459874D01*
X66045487Y-43323844D01*
X65883259Y-43158405D01*
X65760443Y-42969360D01*
X65678943Y-42762514D01*
X65640667Y-42543673D01*
X65647520Y-42318641D01*
X65701407Y-42093222D01*
X65754548Y-41965445D01*
X65843128Y-41824084D01*
X65965985Y-41684002D01*
X66108389Y-41559851D01*
X66255608Y-41466283D01*
X66257158Y-41465500D01*
X66383068Y-41384831D01*
X66459707Y-41294023D01*
X66487826Y-41191803D01*
X66474466Y-41096081D01*
X66420658Y-40989884D01*
X66337712Y-40922645D01*
X66230845Y-40895900D01*
X66105275Y-40911186D01*
X65994706Y-40954787D01*
X65857815Y-41034405D01*
X65716526Y-41133735D01*
X65587120Y-41240252D01*
X65485876Y-41341434D01*
X65474386Y-41355058D01*
X65299831Y-41604797D01*
X65172078Y-41869121D01*
X65091984Y-42144387D01*
X65060402Y-42426952D01*
X64256348Y-42426952D01*
X64256639Y-42290301D01*
X64263283Y-42214169D01*
X64319830Y-41865947D01*
X64416911Y-41543059D01*
X64557728Y-41236389D01*
X64675761Y-41039082D01*
X64883666Y-40760075D01*
X65120148Y-40518128D01*
X65391033Y-40308044D01*
X65700215Y-40125626D01*
X65820153Y-40062125D01*
X65902167Y-40012761D01*
X65954236Y-39969907D01*
X65984338Y-39925934D01*
X66000449Y-39873215D01*
X66006974Y-39832329D01*
X66000375Y-39712220D01*
X65948305Y-39612498D01*
X65853990Y-39539090D01*
X65844870Y-39534605D01*
X65785373Y-39509137D01*
X65738497Y-39502024D01*
X65682323Y-39513117D01*
X65621501Y-39533091D01*
X65486461Y-39589873D01*
X65326876Y-39673601D01*
X65155516Y-39776750D01*
X64985154Y-39891795D01*
X64880962Y-39969420D01*
X64594454Y-40223967D01*
X64340947Y-40514492D01*
X64123413Y-40836002D01*
X63944824Y-41183501D01*
X63808151Y-41551995D01*
X63718809Y-41922700D01*
X63696458Y-42096798D01*
X63684041Y-42302458D01*
X63681595Y-42521413D01*
X63003197Y-42521413D01*
X62996565Y-42396769D01*
X63017590Y-41986808D01*
X63020480Y-41960800D01*
X63086739Y-41551680D01*
X63190685Y-41165431D01*
X63336765Y-40787087D01*
X63424149Y-40601900D01*
X63646892Y-40211308D01*
X63909902Y-39849786D01*
X64209933Y-39520186D01*
X64543741Y-39225362D01*
X64908078Y-38968166D01*
X65299701Y-38751453D01*
X65715362Y-38578076D01*
X65733487Y-38571719D01*
X65738497Y-38570124D01*
X65984392Y-38491830D01*
X66221200Y-38433719D01*
X66230845Y-38432134D01*
X66461667Y-38394182D01*
X66723546Y-38370013D01*
X66897250Y-38361593D01*
X67310000Y-38346885D01*
X67310000Y-41668787D01*
G37*
D12*
%TO.C,R7*%
X83691000Y-123281221D02*
X83691000Y-123606779D01*
X84711000Y-123281221D02*
X84711000Y-123606779D01*
D13*
%TO.C,J10*%
X91794500Y-83397000D02*
X103044500Y-83397000D01*
X103044500Y-83397000D02*
X103044500Y-85271000D01*
X103044500Y-97197000D02*
X91794500Y-97197000D01*
X103044500Y-97197000D02*
X103044500Y-95797000D01*
D12*
%TO.C,U3*%
X68061000Y-141945000D02*
X70511000Y-141945000D01*
X69861000Y-138725000D02*
X68061000Y-138725000D01*
%TO.C,R2*%
X83691000Y-120050779D02*
X83691000Y-119725221D01*
X84711000Y-120050779D02*
X84711000Y-119725221D01*
D16*
%TO.C,D1*%
X79239600Y-137211700D02*
X79239600Y-143726800D01*
X79239600Y-143129900D02*
X79605360Y-143129900D01*
X79605360Y-137211700D02*
X79239600Y-137211700D01*
X81972640Y-143129900D02*
X82338400Y-143129900D01*
X82338400Y-137211700D02*
X81972640Y-137211700D01*
X82338400Y-143726800D02*
X79239600Y-143726800D01*
X82338400Y-143726800D02*
X82338400Y-137211700D01*
D12*
%TO.C,R5*%
X103540779Y-79119000D02*
X103215221Y-79119000D01*
X103540779Y-80139000D02*
X103215221Y-80139000D01*
D13*
%TO.C,J2*%
X64385000Y-107048000D02*
X64385000Y-109098000D01*
X64385000Y-112898000D02*
X64385000Y-114948000D01*
X64385000Y-114948000D02*
X68385000Y-114948000D01*
X68385000Y-107048000D02*
X64385000Y-107048000D01*
X71985000Y-113198000D02*
X71985000Y-108798000D01*
D10*
X63485000Y-113148000D02*
G75*
G02*
X63285000Y-113148000I-100000J0D01*
G01*
X63285000Y-113148000D02*
G75*
G02*
X63485000Y-113148000I100000J0D01*
G01*
%TD*%
M02*
