M48
; DRILL file {KiCad 8.0.1-rc1} date 2024-06-07T11:34:23-0500
; FORMAT={-:-/ absolute / inch / decimal}
; #@! TF.CreationDate,2024-06-07T11:34:23-05:00
; #@! TF.GenerationSoftware,Kicad,Pcbnew,8.0.1-rc1
; #@! TF.FileFunction,Plated,1,2,PTH
FMAT,2
INCH
; #@! TA.AperFunction,Plated,PTH,ViaDrill
T1C0.0100
; #@! TA.AperFunction,Plated,PTH,ComponentDrill
T2C0.0390
; #@! TA.AperFunction,Plated,PTH,ComponentDrill
T3C0.0394
; #@! TA.AperFunction,Plated,PTH,ComponentDrill
T4C0.0472
; #@! TA.AperFunction,Plated,PTH,ComponentDrill
T5C0.0600
%
G90
G05
T1
X2.5Y-4.19
X2.526Y-1.86
X2.535Y-4.185
X2.5394Y-4.6063
X2.55Y-4.93
X2.55Y-5.3
X2.56Y-1.76
X2.56Y-4.015
X2.564Y-3.935
X2.565Y-2.615
X2.59Y-2.71
X2.59Y-3.975
X2.61Y-5.562
X2.665Y-2.01
X2.665Y-4.435
X3.025Y-1.26
X3.03Y-3.86
X3.056Y-1.36
X3.056Y-3.834
X3.435Y-1.53
X3.437Y-3.96
X3.474Y-4.07
X3.5039Y-2.5787
X3.5039Y-2.6575
X3.75Y-4.54
X3.8Y-1.36
X3.847Y-2.8112
X3.89Y-2.226
X3.907Y-2.8162
X3.95Y-2.56
X3.95Y-2.66
X3.967Y-2.8162
X4.02Y-2.426
X4.027Y-2.8162
T2
X2.6988Y-5.84
X2.6988Y-5.94
X2.6988Y-6.04
T3
X2.7455Y-3.4412
X2.7455Y-3.5412
X2.7455Y-3.6412
T4
X3.5038Y-5.4149
X3.9762Y-5.4149
T5
X2.805Y-6.3296
X2.9639Y-6.3296
X3.13Y-6.3296
X3.2889Y-6.3296
M30
