M48
; DRILL file {KiCad 8.0.1-rc1} date 2024-11-07T09:08:05-0600
; FORMAT={-:-/ absolute / inch / decimal}
; #@! TF.CreationDate,2024-11-07T09:08:05-06:00
; #@! TF.GenerationSoftware,Kicad,Pcbnew,8.0.1-rc1
; #@! TF.FileFunction,Plated,1,2,PTH
FMAT,2
INCH
; #@! TA.AperFunction,Plated,PTH,ViaDrill
T1C0.0100
; #@! TA.AperFunction,Plated,PTH,ComponentDrill
T2C0.0390
; #@! TA.AperFunction,Plated,PTH,ComponentDrill
T3C0.0394
; #@! TA.AperFunction,Plated,PTH,ComponentDrill
T4C0.0472
; #@! TA.AperFunction,Plated,PTH,ComponentDrill
T5C0.0600
%
G90
G05
T1
X2.5Y-3.7356
X2.526Y-1.86
X2.535Y-3.7306
X2.55Y-4.255
X2.55Y-4.4737
X2.55Y-4.8437
X2.55Y-5.18
X2.56Y-1.76
X2.564Y-3.4806
X2.565Y-2.615
X2.59Y-2.71
X2.59Y-3.5206
X2.59Y-3.5597
X2.61Y-5.562
X2.655Y-3.685
X2.655Y-3.7306
X2.665Y-2.01
X2.702Y-3.9796
X2.9851Y-3.685
X3.0111Y-3.73
X3.0111Y-4.79
X3.025Y-1.26
X3.045Y-4.69
X3.045Y-4.83
X3.056Y-1.36
X3.08Y-3.401
X3.0808Y-2.86
X3.095Y-2.76
X3.105Y-3.375
X3.1328Y-3.0678
X3.225Y-4.485
X3.334Y-4.645
X3.34Y-4.265
X3.411Y-3.834
X3.411Y-3.86
X3.415Y-4.89
X3.4162Y-4.685
X3.435Y-1.53
X3.437Y-3.96
X3.47Y-4.659
X3.474Y-4.07
X3.5039Y-2.5787
X3.5039Y-2.6575
X3.52Y-4.5
X3.52Y-4.6862
X3.75Y-4.54
X3.8Y-1.36
X3.847Y-2.8112
X3.89Y-2.226
X3.907Y-2.8162
X3.95Y-2.56
X3.95Y-2.66
X3.967Y-2.8162
X4.02Y-2.426
X4.027Y-2.8162
T2
X2.6988Y-5.84
X2.6988Y-5.94
X2.6988Y-6.04
T3
X3.1328Y-3.44
X3.1328Y-3.54
X3.1328Y-3.64
T4
X3.5038Y-5.4149
X3.9762Y-5.4149
T5
X2.805Y-6.3296
X2.9639Y-6.3296
X3.13Y-6.3296
X3.2889Y-6.3296
M30
