%TF.GenerationSoftware,KiCad,Pcbnew,9.0.3*%
%TF.CreationDate,2025-10-21T13:29:53-05:00*%
%TF.ProjectId,Cutdown,43757464-6f77-46e2-9e6b-696361645f70,2.2.0*%
%TF.SameCoordinates,Original*%
%TF.FileFunction,Copper,L2,Bot*%
%TF.FilePolarity,Positive*%
%FSLAX46Y46*%
G04 Gerber Fmt 4.6, Leading zero omitted, Abs format (unit mm)*
G04 Created by KiCad (PCBNEW 9.0.3) date 2025-10-21 13:29:53*
%MOMM*%
%LPD*%
G01*
G04 APERTURE LIST*
G04 Aperture macros list*
%AMRoundRect*
0 Rectangle with rounded corners*
0 $1 Rounding radius*
0 $2 $3 $4 $5 $6 $7 $8 $9 X,Y pos of 4 corners*
0 Add a 4 corners polygon primitive as box body*
4,1,4,$2,$3,$4,$5,$6,$7,$8,$9,$2,$3,0*
0 Add four circle primitives for the rounded corners*
1,1,$1+$1,$2,$3*
1,1,$1+$1,$4,$5*
1,1,$1+$1,$6,$7*
1,1,$1+$1,$8,$9*
0 Add four rect primitives between the rounded corners*
20,1,$1+$1,$2,$3,$4,$5,0*
20,1,$1+$1,$4,$5,$6,$7,0*
20,1,$1+$1,$6,$7,$8,$9,0*
20,1,$1+$1,$8,$9,$2,$3,0*%
G04 Aperture macros list end*
%TA.AperFunction,ComponentPad*%
%ADD10C,2.200000*%
%TD*%
%TA.AperFunction,ComponentPad*%
%ADD11RoundRect,0.302260X0.967740X0.967740X-0.967740X0.967740X-0.967740X-0.967740X0.967740X-0.967740X0*%
%TD*%
%TA.AperFunction,ComponentPad*%
%ADD12C,2.540000*%
%TD*%
%TA.AperFunction,ComponentPad*%
%ADD13C,1.498600*%
%TD*%
%TA.AperFunction,WasherPad*%
%ADD14C,3.810000*%
%TD*%
%TA.AperFunction,ComponentPad*%
%ADD15R,1.700000X1.700000*%
%TD*%
%TA.AperFunction,ComponentPad*%
%ADD16O,1.700000X1.700000*%
%TD*%
%TA.AperFunction,ComponentPad*%
%ADD17C,1.000000*%
%TD*%
%TA.AperFunction,ComponentPad*%
%ADD18O,0.939800X2.159000*%
%TD*%
%TA.AperFunction,ComponentPad*%
%ADD19O,0.939800X2.413000*%
%TD*%
%TA.AperFunction,SMDPad,CuDef*%
%ADD20R,2.100000X3.000000*%
%TD*%
%TA.AperFunction,SMDPad,CuDef*%
%ADD21R,0.800000X1.300000*%
%TD*%
%TA.AperFunction,SMDPad,CuDef*%
%ADD22R,2.300000X4.500000*%
%TD*%
%TA.AperFunction,ComponentPad*%
%ADD23C,1.700000*%
%TD*%
%TA.AperFunction,ViaPad*%
%ADD24C,0.508000*%
%TD*%
%TA.AperFunction,Conductor*%
%ADD25C,0.508000*%
%TD*%
%TA.AperFunction,Conductor*%
%ADD26C,0.304800*%
%TD*%
G04 APERTURE END LIST*
D10*
%TO.P,C15,1*%
%TO.N,Net-(D6-A)*%
X138175999Y-93375999D03*
%TO.P,C15,2*%
%TO.N,GND*%
X138175999Y-81375999D03*
%TD*%
D11*
%TO.P,J11,1,Pin_1*%
%TO.N,Net-(J11-Pin_1)*%
X123077000Y-135277000D03*
D12*
%TO.P,J11,2,Pin_2*%
%TO.N,Net-(J10-Pin_2)*%
X127113000Y-135277000D03*
%TD*%
D13*
%TO.P,U6,1,VIN*%
%TO.N,+BATT*%
X123316999Y-91058999D03*
%TO.P,U6,2,GND*%
%TO.N,GND*%
X120776999Y-91058999D03*
%TO.P,U6,3,VOUT*%
%TO.N,+5V*%
X118236999Y-91058999D03*
%TD*%
D11*
%TO.P,J10,1,Pin_1*%
%TO.N,GND*%
X152287000Y-135277000D03*
D12*
%TO.P,J10,2,Pin_2*%
%TO.N,Net-(J10-Pin_2)*%
X156323000Y-135277000D03*
%TD*%
D14*
%TO.P,H3,*%
%TO.N,*%
X118110000Y-133350000D03*
%TD*%
D15*
%TO.P,J4,1,Pin_1*%
%TO.N,GND*%
X157606999Y-44322999D03*
D16*
%TO.P,J4,2,Pin_2*%
%TO.N,Reset_CTRL*%
X160146999Y-44322999D03*
%TO.P,J4,3,Pin_3*%
%TO.N,Program_CTRL*%
X162686999Y-44322999D03*
%TD*%
D14*
%TO.P,H4,*%
%TO.N,*%
X161290000Y-133350000D03*
%TD*%
%TO.P,H1,*%
%TO.N,*%
X118109999Y-26669999D03*
%TD*%
%TO.P,H2,*%
%TO.N,*%
X161289999Y-26669999D03*
%TD*%
D17*
%TO.P,J7,1,VCC*%
%TO.N,unconnected-(J7-VCC-Pad1)*%
X161035999Y-67766999D03*
%TO.P,J7,2,D-*%
%TO.N,Net-(J7-D-)*%
X162035999Y-66966999D03*
%TO.P,J7,3,D+*%
%TO.N,Net-(J7-D+)*%
X161035999Y-66166999D03*
%TO.P,J7,4,ID*%
%TO.N,unconnected-(J7-ID-Pad4)*%
X162035999Y-65366999D03*
%TO.P,J7,5,GND*%
%TO.N,GND*%
X161035999Y-64566999D03*
D18*
%TO.P,J7,6,SHIELD*%
%TO.N,Net-(C1-Pad1)*%
X159785999Y-68066999D03*
D19*
%TO.P,J7,7,SHIELD*%
X159785999Y-63766999D03*
D18*
%TO.P,J7,8,SHIELD*%
X163285999Y-66166999D03*
%TD*%
D20*
%TO.P,J8,*%
%TO.N,*%
X130959999Y-78723999D03*
X147309999Y-78723999D03*
D21*
%TO.P,J8,1,Pin_1*%
%TO.N,GND*%
X144759999Y-75973999D03*
%TO.P,J8,2,Pin_2*%
%TO.N,unconnected-(J8-Pin_2-Pad2)*%
X143509999Y-75973999D03*
%TO.P,J8,3,Pin_3*%
%TO.N,+5V*%
X142259999Y-75973999D03*
%TO.P,J8,4,Pin_4*%
%TO.N,SAT_On{slash}Off*%
X141009999Y-75973999D03*
%TO.P,J8,5,Pin_5*%
%TO.N,Sat_RX*%
X139759999Y-75973999D03*
%TO.P,J8,6,Pin_6*%
%TO.N,unconnected-(J8-Pin_6-Pad6)*%
X138509999Y-75973999D03*
%TO.P,J8,7,Pin_7*%
%TO.N,Sat_NetAv*%
X137259999Y-75973999D03*
%TO.P,J8,8,Pin_8*%
%TO.N,unconnected-(J8-Pin_8-Pad8)*%
X136009999Y-75973999D03*
%TO.P,J8,9,Pin_9*%
%TO.N,unconnected-(J8-Pin_9-Pad9)*%
X134759999Y-75973999D03*
%TO.P,J8,10,Pin_10*%
%TO.N,Sat_TX*%
X133509999Y-75973999D03*
%TD*%
D22*
%TO.P,BT1,1,+*%
%TO.N,Net-(BT1-+)*%
X156845000Y-95350999D03*
%TO.P,BT1,2,-*%
%TO.N,GND*%
X156845000Y-78950999D03*
%TD*%
D15*
%TO.P,J3,1,Pin_1*%
%TO.N,GND*%
X134111999Y-53959999D03*
D23*
%TO.P,J3,2,Pin_2*%
%TO.N,+5V*%
X134111999Y-51419999D03*
%TO.P,J3,3,Pin_3*%
%TO.N,Servo*%
X134111999Y-48879999D03*
%TD*%
D24*
%TO.N,GND*%
X144780000Y-125730000D03*
X143510000Y-113665000D03*
X143510000Y-119380000D03*
X133222999Y-27304999D03*
X147446999Y-64007999D03*
X129540000Y-130810000D03*
X149860000Y-115570000D03*
X144780000Y-130810000D03*
X141605000Y-113665000D03*
X135890000Y-119380000D03*
X125475999Y-24002999D03*
X139700000Y-119380000D03*
X141605000Y-115570000D03*
X129540000Y-125730000D03*
X124460000Y-120650000D03*
X124460000Y-115570000D03*
X129540000Y-115570000D03*
X135890000Y-113665000D03*
X144780000Y-105410000D03*
X154940000Y-115570000D03*
X124460000Y-110490000D03*
X124460000Y-130810000D03*
X139700000Y-117475000D03*
X149860000Y-110490000D03*
X154940000Y-110490000D03*
X135890000Y-111760000D03*
X149860000Y-100330000D03*
X141605000Y-119380000D03*
X139700000Y-113665000D03*
X137795000Y-113665000D03*
X154940000Y-130810000D03*
X133222999Y-25399999D03*
X120395999Y-36829999D03*
X149402799Y-46989999D03*
X154940000Y-105410000D03*
X139700000Y-111760000D03*
X143510000Y-115570000D03*
X141605000Y-117475000D03*
X129540000Y-110490000D03*
X129540000Y-120650000D03*
X149860000Y-130810000D03*
X137795000Y-111760000D03*
X124713999Y-93344999D03*
X134620000Y-100330000D03*
X144780000Y-100330000D03*
X124460000Y-100330000D03*
X159131000Y-78950999D03*
X141605000Y-111760000D03*
X147700999Y-46989999D03*
X129540000Y-105410000D03*
X143510000Y-111760000D03*
X134620000Y-105410000D03*
X149860000Y-120650000D03*
X149860000Y-105410000D03*
X115823999Y-77469999D03*
X134620000Y-130810000D03*
X137795000Y-117475000D03*
X149860000Y-125730000D03*
X137795000Y-115570000D03*
X154940000Y-120650000D03*
X134620000Y-125730000D03*
X115823999Y-64769999D03*
X148081999Y-59054999D03*
X135890000Y-115570000D03*
X121157999Y-24002999D03*
X126237999Y-40087199D03*
X139700000Y-115570000D03*
X115823999Y-55371999D03*
X124460000Y-105410000D03*
X147573999Y-76072999D03*
X115823999Y-49910999D03*
X143510000Y-117475000D03*
X135890000Y-117475000D03*
X137795000Y-119380000D03*
X129540000Y-100330000D03*
X154940000Y-100330000D03*
%TO.N,+5V*%
X131952999Y-70230999D03*
X121665999Y-38480999D03*
X127380999Y-70230999D03*
X133222999Y-81787999D03*
%TO.N,Net-(BT1-+)*%
X139700000Y-125476000D03*
%TO.N,+3V3*%
X160273999Y-75945999D03*
X152218999Y-45321499D03*
X135762999Y-72389999D03*
X128778000Y-74168000D03*
X156971999Y-62102999D03*
X145033999Y-72008999D03*
X148018499Y-62991999D03*
X151891999Y-63372999D03*
X118272174Y-99450774D03*
X163702999Y-41655999D03*
X161924999Y-33908999D03*
X121284999Y-30098999D03*
X119985499Y-73675999D03*
X135508999Y-64642999D03*
X134619999Y-74548999D03*
X131825999Y-64642999D03*
X129539999Y-34416999D03*
X131952999Y-72643999D03*
X117093999Y-81660999D03*
X129412999Y-25653999D03*
X125602999Y-25526999D03*
%TO.N,Net-(C1-Pad1)*%
X162305999Y-69976999D03*
%TO.N,Reset_CTRL*%
X141604999Y-26370199D03*
X141679199Y-40766999D03*
X141274799Y-46017582D03*
%TO.N,Serial_TX*%
X135575199Y-46989999D03*
X142215925Y-46950468D03*
X142874999Y-28193999D03*
%TO.N,Serial_RX*%
X136028914Y-46471383D03*
X142237999Y-29463999D03*
X141732999Y-46500008D03*
%TO.N,GPS_PPS*%
X140560599Y-34543999D03*
X140358399Y-44998156D03*
%TO.N,Program_CTRL*%
X141119399Y-40187799D03*
X140816599Y-45507869D03*
%TO.N,Net-(J5-Pin_2)*%
X120141999Y-48259999D03*
X119379999Y-51688999D03*
%TO.N,SAT_On{slash}Off*%
X137379883Y-69567883D03*
X137205799Y-39628999D03*
X137407999Y-44956010D03*
%TO.N,SD_CD*%
X158368999Y-55393999D03*
X147827999Y-55371999D03*
%TO.N,SDA*%
X156971999Y-31495999D03*
X141882383Y-74017615D03*
X139999590Y-29717999D03*
X139900199Y-44488443D03*
X143368510Y-72484960D03*
X156971999Y-34543999D03*
%TO.N,SPI_MOSI*%
X145166999Y-44324711D03*
X145287999Y-25780999D03*
%TO.N,SCL*%
X143391774Y-73298488D03*
X142349358Y-74484590D03*
X139445999Y-26923999D03*
X139441999Y-43978730D03*
%TO.N,~{DTR}*%
X142747999Y-54990999D03*
X143763999Y-53212999D03*
%TO.N,~{RTS}*%
X141731999Y-50418999D03*
X143509999Y-56641999D03*
%TO.N,SD_CS*%
X144715597Y-35195393D03*
X144708799Y-43814999D03*
%TO.N,Config*%
X124078999Y-33527999D03*
X116167001Y-33438997D03*
%TO.N,Net-(U5-IO16)*%
X138880990Y-38411008D03*
X138880990Y-43560567D03*
%TO.N,SPI_SCK*%
X145834197Y-34543999D03*
X145629954Y-44795671D03*
%TO.N,Net-(U5-IO17)*%
X138324399Y-43919267D03*
X138429999Y-37210999D03*
%TO.N,Net-(U5-IO25)*%
X136016999Y-35813999D03*
X136491599Y-46000157D03*
%TO.N,Net-(U5-IO34)*%
X135762999Y-30733999D03*
X136949799Y-45490444D03*
%TO.N,Sat_NetAv*%
X137866199Y-44406288D03*
X137755189Y-28207412D03*
X137286999Y-74802999D03*
%TO.N,Sat_RX*%
X134619999Y-71373999D03*
%TO.N,Sat_TX*%
X130936999Y-71500999D03*
%TO.N,SPI_MISO*%
X146398209Y-33287726D03*
X146102185Y-45257330D03*
%TD*%
D25*
%TO.N,GND*%
X123062999Y-93344999D02*
X124713999Y-93344999D01*
D26*
X146049999Y-59689999D02*
X146684999Y-59054999D01*
X144858999Y-76072999D02*
X144759999Y-75973999D01*
X146684999Y-59054999D02*
X148081999Y-59054999D01*
X147573999Y-76072999D02*
X144858999Y-76072999D01*
X147446999Y-63724322D02*
X146890337Y-63167660D01*
X147446999Y-64007999D02*
X147446999Y-63724322D01*
D25*
X115823999Y-55371999D02*
X115823999Y-49910999D01*
D26*
X126237999Y-40087199D02*
X121367199Y-40087199D01*
X146049999Y-62327322D02*
X146049999Y-61848999D01*
X159131000Y-78950999D02*
X156845000Y-78950999D01*
X121367199Y-40087199D02*
X120395999Y-39115999D01*
X125475999Y-24002999D02*
X121157999Y-24002999D01*
X146890337Y-63167660D02*
X146049999Y-62327322D01*
X146049999Y-61848999D02*
X146049999Y-59689999D01*
D25*
X115823999Y-55371999D02*
X115823999Y-64769999D01*
D26*
X133222999Y-27304999D02*
X133222999Y-25399999D01*
X120395999Y-39115999D02*
X120395999Y-36829999D01*
D25*
X120776999Y-91058999D02*
X123062999Y-93344999D01*
D26*
X149402799Y-46989999D02*
X147700999Y-46989999D01*
D25*
X115823999Y-64769999D02*
X115823999Y-77469999D01*
%TO.N,+5V*%
X127380999Y-51419999D02*
X127380999Y-39369999D01*
X127380999Y-70230999D02*
X127380999Y-51419999D01*
X135381999Y-81787999D02*
X128269999Y-81787999D01*
X142259999Y-78465999D02*
X142259999Y-75973999D01*
X135381999Y-80517999D02*
X136397999Y-79501999D01*
X126491999Y-38480999D02*
X121665999Y-38480999D01*
X135381999Y-81787999D02*
X135381999Y-80517999D01*
X136397999Y-79501999D02*
X141223999Y-79501999D01*
X127380999Y-80898999D02*
X127380999Y-70230999D01*
X141223999Y-79501999D02*
X142259999Y-78465999D01*
X127380999Y-70230999D02*
X131952999Y-70230999D01*
X128269999Y-81787999D02*
X127380999Y-80898999D01*
X127380999Y-39369999D02*
X126491999Y-38480999D01*
X127380999Y-51419999D02*
X134111999Y-51419999D01*
D26*
%TO.N,Net-(BT1-+)*%
X155194000Y-133350000D02*
X164565599Y-123978401D01*
X140208000Y-133350000D02*
X155194000Y-133350000D01*
X139700000Y-125476000D02*
X139700000Y-132842000D01*
X139700000Y-132842000D02*
X140208000Y-133350000D01*
X163703000Y-98425000D02*
X157226000Y-98425000D01*
X164565599Y-99287599D02*
X163703000Y-98425000D01*
X164565599Y-123978401D02*
X164565599Y-99287599D01*
X157226000Y-98425000D02*
X156845000Y-98044000D01*
X156845000Y-98044000D02*
X156845000Y-95350999D01*
%TO.N,+3V3*%
X118272174Y-99450774D02*
X118237000Y-99415600D01*
X118237000Y-99415600D02*
X118237000Y-96012000D01*
%TO.N,Net-(C1-Pad1)*%
X160146999Y-68833999D02*
X162305999Y-68833999D01*
X159925999Y-63626999D02*
X159785999Y-63766999D01*
X159785999Y-68066999D02*
X159785999Y-68472999D01*
X163285999Y-68234999D02*
X163285999Y-66166999D01*
X163285999Y-66166999D02*
X163285999Y-64225999D01*
X162686999Y-63626999D02*
X159925999Y-63626999D01*
X162305999Y-68833999D02*
X162686999Y-68833999D01*
X159785999Y-68472999D02*
X160146999Y-68833999D01*
X163285999Y-64225999D02*
X162686999Y-63626999D01*
X162686999Y-68833999D02*
X163285999Y-68234999D01*
X162305999Y-69976999D02*
X162305999Y-68833999D01*
%TO.N,Reset_CTRL*%
X141679199Y-40766999D02*
X141679199Y-26444399D01*
X141679199Y-45613182D02*
X141679199Y-40893999D01*
X141679199Y-40893999D02*
X141679199Y-40766999D01*
X141274799Y-46017582D02*
X141679199Y-45613182D01*
X141679199Y-26444399D02*
X141604999Y-26370199D01*
%TO.N,Serial_TX*%
X142797799Y-28271199D02*
X142874999Y-28193999D01*
X142215925Y-46950468D02*
X142797799Y-46368594D01*
X142797799Y-46368594D02*
X142797799Y-28271199D01*
X142215925Y-46950468D02*
X142083818Y-47082575D01*
X135667775Y-47082575D02*
X135575199Y-46989999D01*
X142083818Y-47082575D02*
X135667775Y-47082575D01*
%TO.N,Serial_RX*%
X142237999Y-29463999D02*
X142237999Y-45995008D01*
X136028914Y-46471383D02*
X136134913Y-46577382D01*
X142237999Y-45995008D02*
X141732999Y-46500008D01*
X136134913Y-46577382D02*
X141655625Y-46577382D01*
X141655625Y-46577382D02*
X141732999Y-46500008D01*
%TO.N,GPS_PPS*%
X140560599Y-44795956D02*
X140560599Y-34543999D01*
X140358399Y-44998156D02*
X140560599Y-44795956D01*
%TO.N,Program_CTRL*%
X141119399Y-40187799D02*
X141119399Y-45205069D01*
X141119399Y-45205069D02*
X140816599Y-45507869D01*
%TO.N,Net-(J5-Pin_2)*%
X120141999Y-50926999D02*
X119379999Y-51688999D01*
X120141999Y-48259999D02*
X120141999Y-50926999D01*
%TO.N,SAT_On{slash}Off*%
X141009999Y-75973999D02*
X141009999Y-73197999D01*
X141009999Y-73197999D02*
X137379883Y-69567883D01*
X137205799Y-44753810D02*
X137407999Y-44956010D01*
X137205799Y-39628999D02*
X137205799Y-44753810D01*
%TO.N,SD_CD*%
X158346999Y-55371999D02*
X147827999Y-55371999D01*
X158368999Y-55393999D02*
X158346999Y-55371999D01*
%TO.N,SDA*%
X140001799Y-43941999D02*
X140001799Y-29720208D01*
X143368510Y-72484960D02*
X143371623Y-72488073D01*
X143371623Y-72488073D02*
X143371623Y-72528375D01*
X156971999Y-31495999D02*
X156971999Y-34543999D01*
X139900199Y-44488443D02*
X140001799Y-44386843D01*
X140001799Y-44386843D02*
X140001799Y-43941999D01*
X140001799Y-29720208D02*
X139999590Y-29717999D01*
X143371623Y-72528375D02*
X141882383Y-74017615D01*
%TO.N,SPI_MOSI*%
X145275397Y-25793601D02*
X145287999Y-25780999D01*
X145166999Y-44324711D02*
X145268599Y-44223111D01*
X145268599Y-43814999D02*
X145275397Y-43808201D01*
X145268599Y-44223111D02*
X145268599Y-43814999D01*
X145275397Y-35178999D02*
X145275397Y-25793601D01*
X145275397Y-43808201D02*
X145275397Y-35178999D01*
%TO.N,SCL*%
X139441999Y-43978730D02*
X139440790Y-43977521D01*
X139440790Y-38353999D02*
X139440790Y-26929208D01*
X139440790Y-26929208D02*
X139445999Y-26923999D01*
X139440790Y-43560999D02*
X139440790Y-38353999D01*
X143391774Y-73298488D02*
X142349358Y-74340904D01*
X142349358Y-74340904D02*
X142349358Y-74484590D01*
X139440790Y-43977521D02*
X139440790Y-43560999D01*
%TO.N,~{DTR}*%
X143763999Y-53974999D02*
X142747999Y-54990999D01*
X143763999Y-53212999D02*
X143763999Y-53974999D01*
%TO.N,~{RTS}*%
X141731999Y-54863999D02*
X143509999Y-56641999D01*
X141731999Y-50418999D02*
X141731999Y-54863999D01*
%TO.N,SD_CS*%
X144708799Y-35202191D02*
X144715597Y-35195393D01*
X144708799Y-43814999D02*
X144708799Y-35202191D01*
%TO.N,Config*%
X116256003Y-33527999D02*
X124078999Y-33527999D01*
X116167001Y-33438997D02*
X116256003Y-33527999D01*
%TO.N,Net-(U5-IO16)*%
X138880990Y-38411008D02*
X138880990Y-43560567D01*
%TO.N,SPI_SCK*%
X145834197Y-44591428D02*
X145834197Y-34543999D01*
X145629954Y-44795671D02*
X145834197Y-44591428D01*
%TO.N,Net-(U5-IO17)*%
X138321190Y-43560999D02*
X138321190Y-38353999D01*
X138321190Y-38353999D02*
X138321190Y-37319808D01*
X138321190Y-37319808D02*
X138429999Y-37210999D01*
X138321190Y-43916058D02*
X138321190Y-43560999D01*
X138324399Y-43919267D02*
X138321190Y-43916058D01*
%TO.N,Net-(U5-IO25)*%
X136016999Y-45525557D02*
X136016999Y-43560999D01*
X136016999Y-43560999D02*
X136016999Y-35813999D01*
X136491599Y-46000157D02*
X136016999Y-45525557D01*
%TO.N,Net-(U5-IO34)*%
X136645999Y-39623999D02*
X136645999Y-31108999D01*
X136645999Y-45186644D02*
X136645999Y-39623999D01*
X136645999Y-31108999D02*
X136397999Y-30860999D01*
X136949799Y-45490444D02*
X136645999Y-45186644D01*
X136397999Y-30860999D02*
X136270999Y-30733999D01*
X136270999Y-30733999D02*
X135762999Y-30733999D01*
%TO.N,Sat_NetAv*%
X137755189Y-28207412D02*
X137755189Y-28281189D01*
X137755189Y-28281189D02*
X137764599Y-28290599D01*
X137286999Y-74802999D02*
X137286999Y-75946999D01*
X137764599Y-44304688D02*
X137866199Y-44406288D01*
X137764599Y-28290599D02*
X137764599Y-44304688D01*
%TO.N,Sat_RX*%
X134619999Y-73278999D02*
X135254999Y-73913999D01*
X135254999Y-73913999D02*
X139064999Y-73913999D01*
X139064999Y-73913999D02*
X139759999Y-74608999D01*
X139759999Y-74608999D02*
X139759999Y-75973999D01*
X134619999Y-71373999D02*
X134619999Y-73278999D01*
%TO.N,Sat_TX*%
X130936999Y-73405999D02*
X131444999Y-73913999D01*
X132968999Y-73913999D02*
X133509999Y-74454999D01*
X130936999Y-71500999D02*
X130936999Y-73405999D01*
X133509999Y-74454999D02*
X133509999Y-75973999D01*
X131444999Y-73913999D02*
X132968999Y-73913999D01*
%TO.N,SPI_MISO*%
X146398209Y-33287726D02*
X146398209Y-33433789D01*
X146398209Y-33433789D02*
X146393997Y-33438001D01*
X146393997Y-33438001D02*
X146393997Y-44965518D01*
X146393997Y-44965518D02*
X146102185Y-45257330D01*
%TD*%
%TA.AperFunction,Conductor*%
%TO.N,GND*%
G36*
X117519139Y-97555685D02*
G01*
X117564894Y-97608489D01*
X117576100Y-97660000D01*
X117576100Y-99114072D01*
X117566661Y-99161524D01*
X117538978Y-99228356D01*
X117538975Y-99228366D01*
X117509674Y-99375671D01*
X117509674Y-99375674D01*
X117509674Y-99525874D01*
X117509674Y-99525876D01*
X117509673Y-99525876D01*
X117538975Y-99673181D01*
X117538977Y-99673187D01*
X117596454Y-99811950D01*
X117596459Y-99811959D01*
X117679901Y-99936838D01*
X117679904Y-99936842D01*
X117786105Y-100043043D01*
X117786109Y-100043046D01*
X117910988Y-100126488D01*
X117910994Y-100126491D01*
X117910995Y-100126492D01*
X118049761Y-100183971D01*
X118049765Y-100183971D01*
X118049766Y-100183972D01*
X118197071Y-100213274D01*
X118197074Y-100213274D01*
X118347276Y-100213274D01*
X118446378Y-100193560D01*
X118494587Y-100183971D01*
X118633353Y-100126492D01*
X118758239Y-100043046D01*
X118864446Y-99936839D01*
X118947892Y-99811953D01*
X119005371Y-99673187D01*
X119034674Y-99525874D01*
X119034674Y-99375674D01*
X119034674Y-99375671D01*
X119005372Y-99228366D01*
X119005371Y-99228365D01*
X119005371Y-99228361D01*
X118947892Y-99089595D01*
X118918796Y-99046050D01*
X118897920Y-98979373D01*
X118897900Y-98977161D01*
X118897900Y-97660000D01*
X118917585Y-97592961D01*
X118970389Y-97547206D01*
X119021900Y-97536000D01*
X155062899Y-97536000D01*
X155129938Y-97555685D01*
X155175693Y-97608489D01*
X155186188Y-97646744D01*
X155193011Y-97710201D01*
X155193011Y-97710203D01*
X155241170Y-97839318D01*
X155244111Y-97847203D01*
X155331739Y-97964260D01*
X155448796Y-98051888D01*
X155585799Y-98102988D01*
X155613050Y-98105917D01*
X155646345Y-98109498D01*
X155646362Y-98109499D01*
X156082417Y-98109499D01*
X156149456Y-98129184D01*
X156195211Y-98181988D01*
X156204033Y-98209303D01*
X156209498Y-98236777D01*
X156209498Y-98236778D01*
X156259314Y-98357047D01*
X156259321Y-98357060D01*
X156331644Y-98465298D01*
X156331647Y-98465302D01*
X156708305Y-98841958D01*
X156708324Y-98841979D01*
X156804697Y-98938352D01*
X156804701Y-98938355D01*
X156912939Y-99010678D01*
X156912952Y-99010685D01*
X157033218Y-99060500D01*
X157033223Y-99060502D01*
X157033227Y-99060502D01*
X157033228Y-99060503D01*
X157160903Y-99085900D01*
X157160906Y-99085900D01*
X157160907Y-99085900D01*
X163377884Y-99085900D01*
X163444923Y-99105585D01*
X163465565Y-99122219D01*
X163868380Y-99525033D01*
X163901865Y-99586356D01*
X163904699Y-99612714D01*
X163904699Y-123653285D01*
X163885014Y-123720324D01*
X163868380Y-123740966D01*
X154956565Y-132652781D01*
X154895242Y-132686266D01*
X154868884Y-132689100D01*
X140533116Y-132689100D01*
X140503675Y-132680455D01*
X140473689Y-132673932D01*
X140468673Y-132670177D01*
X140466077Y-132669415D01*
X140445435Y-132652781D01*
X140397219Y-132604565D01*
X140363734Y-132543242D01*
X140360900Y-132516884D01*
X140360900Y-125895962D01*
X140374137Y-125843117D01*
X140373387Y-125842807D01*
X140375482Y-125837748D01*
X140375543Y-125837506D01*
X140375712Y-125837187D01*
X140375718Y-125837179D01*
X140433197Y-125698413D01*
X140462500Y-125551100D01*
X140462500Y-125452375D01*
X150385500Y-125452375D01*
X150385500Y-125701624D01*
X150385501Y-125701641D01*
X150418034Y-125948756D01*
X150482549Y-126189529D01*
X150577931Y-126419804D01*
X150577938Y-126419819D01*
X150702567Y-126635683D01*
X150854307Y-126833434D01*
X150854313Y-126833441D01*
X151030558Y-127009686D01*
X151030565Y-127009692D01*
X151228316Y-127161432D01*
X151444180Y-127286061D01*
X151444195Y-127286068D01*
X151543435Y-127327174D01*
X151674471Y-127381451D01*
X151915240Y-127445965D01*
X152162369Y-127478500D01*
X152162376Y-127478500D01*
X152411624Y-127478500D01*
X152411631Y-127478500D01*
X152658760Y-127445965D01*
X152899529Y-127381451D01*
X153129816Y-127286063D01*
X153345684Y-127161432D01*
X153543436Y-127009691D01*
X153719691Y-126833436D01*
X153871432Y-126635684D01*
X153996063Y-126419816D01*
X154091451Y-126189529D01*
X154155965Y-125948760D01*
X154182061Y-125750541D01*
X154210327Y-125686644D01*
X154268652Y-125648173D01*
X154338517Y-125647342D01*
X154397740Y-125684414D01*
X154427519Y-125747620D01*
X154427939Y-125750541D01*
X154454034Y-125948756D01*
X154518549Y-126189529D01*
X154613931Y-126419804D01*
X154613938Y-126419819D01*
X154738567Y-126635683D01*
X154890307Y-126833434D01*
X154890313Y-126833441D01*
X155066558Y-127009686D01*
X155066565Y-127009692D01*
X155264316Y-127161432D01*
X155480180Y-127286061D01*
X155480195Y-127286068D01*
X155579435Y-127327174D01*
X155710471Y-127381451D01*
X155951240Y-127445965D01*
X156198369Y-127478500D01*
X156198376Y-127478500D01*
X156447624Y-127478500D01*
X156447631Y-127478500D01*
X156694760Y-127445965D01*
X156935529Y-127381451D01*
X157165816Y-127286063D01*
X157381684Y-127161432D01*
X157579436Y-127009691D01*
X157755691Y-126833436D01*
X157907432Y-126635684D01*
X158032063Y-126419816D01*
X158127451Y-126189529D01*
X158191965Y-125948760D01*
X158224500Y-125701631D01*
X158224500Y-125452369D01*
X158191965Y-125205240D01*
X158127451Y-124964471D01*
X158042820Y-124760153D01*
X158032068Y-124734195D01*
X158032061Y-124734180D01*
X157907432Y-124518316D01*
X157755692Y-124320565D01*
X157755686Y-124320558D01*
X157579441Y-124144313D01*
X157579434Y-124144307D01*
X157381683Y-123992567D01*
X157165819Y-123867938D01*
X157165804Y-123867931D01*
X156935529Y-123772549D01*
X156694756Y-123708034D01*
X156447641Y-123675501D01*
X156447636Y-123675500D01*
X156447631Y-123675500D01*
X156198369Y-123675500D01*
X156198363Y-123675500D01*
X156198358Y-123675501D01*
X155951243Y-123708034D01*
X155710470Y-123772549D01*
X155480195Y-123867931D01*
X155480180Y-123867938D01*
X155264316Y-123992567D01*
X155066565Y-124144307D01*
X155066558Y-124144313D01*
X154890313Y-124320558D01*
X154890307Y-124320565D01*
X154738567Y-124518316D01*
X154613938Y-124734180D01*
X154613931Y-124734195D01*
X154518549Y-124964470D01*
X154454034Y-125205243D01*
X154427939Y-125403458D01*
X154399673Y-125467355D01*
X154341348Y-125505826D01*
X154271483Y-125506657D01*
X154212260Y-125469585D01*
X154182481Y-125406379D01*
X154182061Y-125403458D01*
X154172573Y-125331396D01*
X154155965Y-125205240D01*
X154091451Y-124964471D01*
X154006820Y-124760153D01*
X153996068Y-124734195D01*
X153996061Y-124734180D01*
X153871432Y-124518316D01*
X153719692Y-124320565D01*
X153719686Y-124320558D01*
X153543441Y-124144313D01*
X153543434Y-124144307D01*
X153345683Y-123992567D01*
X153129819Y-123867938D01*
X153129804Y-123867931D01*
X152899529Y-123772549D01*
X152658756Y-123708034D01*
X152411641Y-123675501D01*
X152411636Y-123675500D01*
X152411631Y-123675500D01*
X152162369Y-123675500D01*
X152162363Y-123675500D01*
X152162358Y-123675501D01*
X151915243Y-123708034D01*
X151674470Y-123772549D01*
X151444195Y-123867931D01*
X151444180Y-123867938D01*
X151228316Y-123992567D01*
X151030565Y-124144307D01*
X151030558Y-124144313D01*
X150854313Y-124320558D01*
X150854307Y-124320565D01*
X150702567Y-124518316D01*
X150577938Y-124734180D01*
X150577931Y-124734195D01*
X150482549Y-124964470D01*
X150418034Y-125205243D01*
X150385501Y-125452358D01*
X150385500Y-125452375D01*
X140462500Y-125452375D01*
X140462500Y-125400900D01*
X140462500Y-125400897D01*
X140433198Y-125253592D01*
X140433197Y-125253591D01*
X140433197Y-125253587D01*
X140375718Y-125114821D01*
X140375717Y-125114820D01*
X140375714Y-125114814D01*
X140292272Y-124989935D01*
X140292269Y-124989931D01*
X140186068Y-124883730D01*
X140186064Y-124883727D01*
X140061185Y-124800285D01*
X140061176Y-124800280D01*
X139922413Y-124742803D01*
X139922407Y-124742801D01*
X139775102Y-124713500D01*
X139775100Y-124713500D01*
X139624900Y-124713500D01*
X139624898Y-124713500D01*
X139477592Y-124742801D01*
X139477586Y-124742803D01*
X139338823Y-124800280D01*
X139338814Y-124800285D01*
X139213935Y-124883727D01*
X139213931Y-124883730D01*
X139107730Y-124989931D01*
X139107727Y-124989935D01*
X139024285Y-125114814D01*
X139024280Y-125114823D01*
X138966803Y-125253586D01*
X138966801Y-125253592D01*
X138937500Y-125400897D01*
X138937500Y-125400900D01*
X138937500Y-125551100D01*
X138937500Y-125551102D01*
X138937499Y-125551102D01*
X138966801Y-125698407D01*
X138966803Y-125698413D01*
X139024280Y-125837175D01*
X139024457Y-125837506D01*
X139024517Y-125837748D01*
X139026613Y-125842807D01*
X139025862Y-125843117D01*
X139039100Y-125895962D01*
X139039100Y-132907097D01*
X139064496Y-133034769D01*
X139064499Y-133034781D01*
X139114314Y-133155047D01*
X139114321Y-133155060D01*
X139186644Y-133263298D01*
X139186647Y-133263302D01*
X139694645Y-133771299D01*
X139786701Y-133863355D01*
X139786702Y-133863356D01*
X139894939Y-133935678D01*
X139894952Y-133935685D01*
X140015218Y-133985500D01*
X140015223Y-133985502D01*
X140015227Y-133985502D01*
X140015228Y-133985503D01*
X140142903Y-134010900D01*
X140142906Y-134010900D01*
X140142907Y-134010900D01*
X150406785Y-134010900D01*
X150473824Y-134030585D01*
X150519579Y-134083389D01*
X150530005Y-134148784D01*
X150517000Y-134264205D01*
X150517000Y-135027000D01*
X151565770Y-135027000D01*
X151554283Y-135054733D01*
X151525000Y-135201950D01*
X151525000Y-135352050D01*
X151554283Y-135499267D01*
X151565770Y-135527000D01*
X150517000Y-135527000D01*
X150517000Y-136289794D01*
X150532164Y-136424384D01*
X150532165Y-136424388D01*
X150591875Y-136595031D01*
X150594604Y-136600697D01*
X150605956Y-136669638D01*
X150578234Y-136733773D01*
X150520239Y-136772739D01*
X150482884Y-136778499D01*
X128426043Y-136778499D01*
X128359004Y-136758814D01*
X128313249Y-136706010D01*
X128303305Y-136636852D01*
X128332330Y-136573296D01*
X128338362Y-136566818D01*
X128453011Y-136452168D01*
X128453016Y-136452163D01*
X128594942Y-136267202D01*
X128711511Y-136065298D01*
X128800729Y-135849907D01*
X128861069Y-135624713D01*
X128891500Y-135393569D01*
X128891500Y-135160431D01*
X128861069Y-134929287D01*
X128800729Y-134704093D01*
X128800725Y-134704083D01*
X128711514Y-134488708D01*
X128711509Y-134488698D01*
X128594942Y-134286798D01*
X128453017Y-134101838D01*
X128453011Y-134101831D01*
X128288168Y-133936988D01*
X128288161Y-133936982D01*
X128103201Y-133795057D01*
X127901301Y-133678490D01*
X127901291Y-133678485D01*
X127685916Y-133589274D01*
X127685909Y-133589272D01*
X127685907Y-133589271D01*
X127460713Y-133528931D01*
X127422083Y-133523845D01*
X127229576Y-133498500D01*
X127229569Y-133498500D01*
X126996431Y-133498500D01*
X126996423Y-133498500D01*
X126776414Y-133527466D01*
X126765287Y-133528931D01*
X126709851Y-133543785D01*
X126540093Y-133589271D01*
X126540083Y-133589274D01*
X126324708Y-133678485D01*
X126324698Y-133678490D01*
X126122798Y-133795057D01*
X125937838Y-133936982D01*
X125937831Y-133936988D01*
X125772988Y-134101831D01*
X125772982Y-134101838D01*
X125631057Y-134286798D01*
X125514490Y-134488698D01*
X125514485Y-134488708D01*
X125425274Y-134704083D01*
X125425271Y-134704093D01*
X125413286Y-134748824D01*
X125364932Y-134929284D01*
X125364930Y-134929295D01*
X125334500Y-135160423D01*
X125334500Y-135393576D01*
X125352400Y-135529534D01*
X125364931Y-135624713D01*
X125405017Y-135774316D01*
X125425271Y-135849906D01*
X125425274Y-135849916D01*
X125514485Y-136065291D01*
X125514490Y-136065301D01*
X125631057Y-136267201D01*
X125772982Y-136452161D01*
X125772988Y-136452168D01*
X125887638Y-136566818D01*
X125921123Y-136628141D01*
X125916139Y-136697833D01*
X125874267Y-136753766D01*
X125808803Y-136778183D01*
X125799957Y-136778499D01*
X124890609Y-136778499D01*
X124823570Y-136758814D01*
X124777815Y-136706010D01*
X124767871Y-136636852D01*
X124778887Y-136600701D01*
X124779826Y-136598747D01*
X124779831Y-136598741D01*
X124840174Y-136426293D01*
X124840174Y-136426291D01*
X124840175Y-136426289D01*
X124855499Y-136290276D01*
X124855500Y-136290272D01*
X124855500Y-134263727D01*
X124855499Y-134263723D01*
X124840175Y-134127710D01*
X124831122Y-134101838D01*
X124779831Y-133955259D01*
X124682628Y-133800561D01*
X124553439Y-133671372D01*
X124398741Y-133574169D01*
X124398739Y-133574168D01*
X124226289Y-133513824D01*
X124090276Y-133498500D01*
X124090270Y-133498500D01*
X122063730Y-133498500D01*
X122063723Y-133498500D01*
X121927710Y-133513824D01*
X121755260Y-133574168D01*
X121755256Y-133574170D01*
X121600560Y-133671372D01*
X121471372Y-133800560D01*
X121374170Y-133955256D01*
X121374168Y-133955260D01*
X121313824Y-134127710D01*
X121298500Y-134263723D01*
X121298500Y-136290276D01*
X121313824Y-136426289D01*
X121374168Y-136598739D01*
X121375113Y-136600701D01*
X121375342Y-136602094D01*
X121376469Y-136605314D01*
X121375904Y-136605511D01*
X121386463Y-136669643D01*
X121358738Y-136733777D01*
X121300741Y-136772740D01*
X121263391Y-136778499D01*
X118113050Y-136778499D01*
X118106966Y-136778350D01*
X117780030Y-136762289D01*
X117767919Y-136761096D01*
X117447156Y-136713515D01*
X117435221Y-136711141D01*
X117120662Y-136632348D01*
X117109018Y-136628816D01*
X116803700Y-136519571D01*
X116792471Y-136514920D01*
X116605076Y-136426289D01*
X116499313Y-136376267D01*
X116488590Y-136370534D01*
X116210448Y-136203823D01*
X116200346Y-136197074D01*
X115939860Y-136003883D01*
X115930471Y-135996177D01*
X115690189Y-135778399D01*
X115681600Y-135769810D01*
X115463817Y-135529522D01*
X115456118Y-135520142D01*
X115262922Y-135259648D01*
X115256175Y-135249550D01*
X115089460Y-134971402D01*
X115083736Y-134960694D01*
X114945076Y-134667521D01*
X114940432Y-134656309D01*
X114831178Y-134350966D01*
X114827651Y-134339337D01*
X114808832Y-134264206D01*
X114748855Y-134024765D01*
X114746484Y-134012843D01*
X114742428Y-133985503D01*
X114698902Y-133692078D01*
X114697710Y-133679968D01*
X114697637Y-133678490D01*
X114681649Y-133353032D01*
X114681500Y-133346950D01*
X114681500Y-133315073D01*
X114681500Y-133295149D01*
X114681499Y-133295148D01*
X114681499Y-133214454D01*
X115696500Y-133214454D01*
X115696500Y-133485545D01*
X115726848Y-133754898D01*
X115726851Y-133754912D01*
X115787171Y-134019194D01*
X115787172Y-134019196D01*
X115876703Y-134275063D01*
X115994318Y-134519292D01*
X115994320Y-134519295D01*
X116138542Y-134748824D01*
X116172378Y-134791253D01*
X116282456Y-134929287D01*
X116307557Y-134960762D01*
X116499238Y-135152443D01*
X116711176Y-135321458D01*
X116940705Y-135465680D01*
X117184938Y-135583297D01*
X117440805Y-135672828D01*
X117705087Y-135733149D01*
X117705096Y-135733150D01*
X117705101Y-135733151D01*
X117884669Y-135753383D01*
X117974455Y-135763499D01*
X117974458Y-135763500D01*
X117974461Y-135763500D01*
X118245542Y-135763500D01*
X118245543Y-135763499D01*
X118383206Y-135747988D01*
X118514898Y-135733151D01*
X118514901Y-135733150D01*
X118514913Y-135733149D01*
X118779195Y-135672828D01*
X119035062Y-135583297D01*
X119279295Y-135465680D01*
X119508824Y-135321458D01*
X119720762Y-135152443D01*
X119912443Y-134960762D01*
X120081458Y-134748824D01*
X120225680Y-134519295D01*
X120343297Y-134275062D01*
X120432828Y-134019195D01*
X120493149Y-133754913D01*
X120523500Y-133485539D01*
X120523500Y-133214461D01*
X120493149Y-132945087D01*
X120432828Y-132680805D01*
X120343297Y-132424938D01*
X120225680Y-132180705D01*
X120081458Y-131951176D01*
X119912443Y-131739238D01*
X119720762Y-131547557D01*
X119508824Y-131378542D01*
X119279295Y-131234320D01*
X119279292Y-131234318D01*
X119035063Y-131116703D01*
X118779196Y-131027172D01*
X118779194Y-131027171D01*
X118575233Y-130980618D01*
X118514913Y-130966851D01*
X118514910Y-130966850D01*
X118514898Y-130966848D01*
X118245545Y-130936500D01*
X118245539Y-130936500D01*
X117974461Y-130936500D01*
X117974454Y-130936500D01*
X117705101Y-130966848D01*
X117705087Y-130966851D01*
X117440805Y-131027171D01*
X117440803Y-131027172D01*
X117184936Y-131116703D01*
X116940707Y-131234318D01*
X116711177Y-131378541D01*
X116499238Y-131547556D01*
X116307556Y-131739238D01*
X116138541Y-131951177D01*
X115994318Y-132180707D01*
X115876703Y-132424936D01*
X115787172Y-132680803D01*
X115787171Y-132680805D01*
X115726851Y-132945087D01*
X115726848Y-132945101D01*
X115696500Y-133214454D01*
X114681499Y-133214454D01*
X114681499Y-125452375D01*
X121175500Y-125452375D01*
X121175500Y-125701624D01*
X121175501Y-125701641D01*
X121208034Y-125948756D01*
X121272549Y-126189529D01*
X121367931Y-126419804D01*
X121367938Y-126419819D01*
X121492567Y-126635683D01*
X121644307Y-126833434D01*
X121644313Y-126833441D01*
X121820558Y-127009686D01*
X121820565Y-127009692D01*
X122018316Y-127161432D01*
X122234180Y-127286061D01*
X122234195Y-127286068D01*
X122333435Y-127327174D01*
X122464471Y-127381451D01*
X122705240Y-127445965D01*
X122952369Y-127478500D01*
X122952376Y-127478500D01*
X123201624Y-127478500D01*
X123201631Y-127478500D01*
X123448760Y-127445965D01*
X123689529Y-127381451D01*
X123919816Y-127286063D01*
X124135684Y-127161432D01*
X124333436Y-127009691D01*
X124509691Y-126833436D01*
X124661432Y-126635684D01*
X124786063Y-126419816D01*
X124881451Y-126189529D01*
X124945965Y-125948760D01*
X124972061Y-125750541D01*
X125000327Y-125686644D01*
X125058652Y-125648173D01*
X125128517Y-125647342D01*
X125187740Y-125684414D01*
X125217519Y-125747620D01*
X125217939Y-125750541D01*
X125244034Y-125948756D01*
X125308549Y-126189529D01*
X125403931Y-126419804D01*
X125403938Y-126419819D01*
X125528567Y-126635683D01*
X125680307Y-126833434D01*
X125680313Y-126833441D01*
X125856558Y-127009686D01*
X125856565Y-127009692D01*
X126054316Y-127161432D01*
X126270180Y-127286061D01*
X126270195Y-127286068D01*
X126369435Y-127327174D01*
X126500471Y-127381451D01*
X126741240Y-127445965D01*
X126988369Y-127478500D01*
X126988376Y-127478500D01*
X127237624Y-127478500D01*
X127237631Y-127478500D01*
X127484760Y-127445965D01*
X127725529Y-127381451D01*
X127955816Y-127286063D01*
X128171684Y-127161432D01*
X128369436Y-127009691D01*
X128545691Y-126833436D01*
X128697432Y-126635684D01*
X128822063Y-126419816D01*
X128917451Y-126189529D01*
X128981965Y-125948760D01*
X129014500Y-125701631D01*
X129014500Y-125452369D01*
X128981965Y-125205240D01*
X128917451Y-124964471D01*
X128832820Y-124760153D01*
X128822068Y-124734195D01*
X128822061Y-124734180D01*
X128697432Y-124518316D01*
X128545692Y-124320565D01*
X128545686Y-124320558D01*
X128369441Y-124144313D01*
X128369434Y-124144307D01*
X128171683Y-123992567D01*
X127955819Y-123867938D01*
X127955804Y-123867931D01*
X127725529Y-123772549D01*
X127484756Y-123708034D01*
X127237641Y-123675501D01*
X127237636Y-123675500D01*
X127237631Y-123675500D01*
X126988369Y-123675500D01*
X126988363Y-123675500D01*
X126988358Y-123675501D01*
X126741243Y-123708034D01*
X126500470Y-123772549D01*
X126270195Y-123867931D01*
X126270180Y-123867938D01*
X126054316Y-123992567D01*
X125856565Y-124144307D01*
X125856558Y-124144313D01*
X125680313Y-124320558D01*
X125680307Y-124320565D01*
X125528567Y-124518316D01*
X125403938Y-124734180D01*
X125403931Y-124734195D01*
X125308549Y-124964470D01*
X125244034Y-125205243D01*
X125217939Y-125403458D01*
X125189673Y-125467355D01*
X125131348Y-125505826D01*
X125061483Y-125506657D01*
X125002260Y-125469585D01*
X124972481Y-125406379D01*
X124972061Y-125403458D01*
X124962573Y-125331396D01*
X124945965Y-125205240D01*
X124881451Y-124964471D01*
X124796820Y-124760153D01*
X124786068Y-124734195D01*
X124786061Y-124734180D01*
X124661432Y-124518316D01*
X124509692Y-124320565D01*
X124509686Y-124320558D01*
X124333441Y-124144313D01*
X124333434Y-124144307D01*
X124135683Y-123992567D01*
X123919819Y-123867938D01*
X123919804Y-123867931D01*
X123689529Y-123772549D01*
X123448756Y-123708034D01*
X123201641Y-123675501D01*
X123201636Y-123675500D01*
X123201631Y-123675500D01*
X122952369Y-123675500D01*
X122952363Y-123675500D01*
X122952358Y-123675501D01*
X122705243Y-123708034D01*
X122464470Y-123772549D01*
X122234195Y-123867931D01*
X122234180Y-123867938D01*
X122018316Y-123992567D01*
X121820565Y-124144307D01*
X121820558Y-124144313D01*
X121644313Y-124320558D01*
X121644307Y-124320565D01*
X121492567Y-124518316D01*
X121367938Y-124734180D01*
X121367931Y-124734195D01*
X121272549Y-124964470D01*
X121208034Y-125205243D01*
X121175501Y-125452358D01*
X121175500Y-125452375D01*
X114681499Y-125452375D01*
X114681499Y-97660000D01*
X114701184Y-97592961D01*
X114753988Y-97547206D01*
X114805499Y-97536000D01*
X117452100Y-97536000D01*
X117519139Y-97555685D01*
G37*
%TD.AperFunction*%
%TA.AperFunction,Conductor*%
G36*
X154868354Y-134030585D02*
G01*
X154914109Y-134083389D01*
X154924053Y-134152547D01*
X154899691Y-134210385D01*
X154876737Y-134240299D01*
X154841054Y-134286802D01*
X154724490Y-134488698D01*
X154724485Y-134488708D01*
X154635274Y-134704083D01*
X154635271Y-134704093D01*
X154623286Y-134748824D01*
X154574932Y-134929284D01*
X154574930Y-134929295D01*
X154544500Y-135160423D01*
X154544500Y-135393576D01*
X154562400Y-135529534D01*
X154574931Y-135624713D01*
X154615017Y-135774316D01*
X154635271Y-135849906D01*
X154635274Y-135849916D01*
X154724485Y-136065291D01*
X154724490Y-136065301D01*
X154841057Y-136267201D01*
X154982982Y-136452161D01*
X154982988Y-136452168D01*
X155097638Y-136566818D01*
X155131123Y-136628141D01*
X155126139Y-136697833D01*
X155084267Y-136753766D01*
X155018803Y-136778183D01*
X155009957Y-136778499D01*
X154091116Y-136778499D01*
X154024077Y-136758814D01*
X153978322Y-136706010D01*
X153968378Y-136636852D01*
X153979396Y-136600697D01*
X153982124Y-136595031D01*
X154041834Y-136424388D01*
X154041835Y-136424384D01*
X154056999Y-136289794D01*
X154057000Y-136289794D01*
X154057000Y-135527000D01*
X153008230Y-135527000D01*
X153019717Y-135499267D01*
X153049000Y-135352050D01*
X153049000Y-135201950D01*
X153019717Y-135054733D01*
X153008230Y-135027000D01*
X154057000Y-135027000D01*
X154057000Y-134264206D01*
X154056999Y-134264205D01*
X154043995Y-134148784D01*
X154056049Y-134079962D01*
X154103398Y-134028582D01*
X154167215Y-134010900D01*
X154801315Y-134010900D01*
X154868354Y-134030585D01*
G37*
%TD.AperFunction*%
%TD*%
%TA.AperFunction,Conductor*%
%TO.N,+3V3*%
G36*
X130203349Y-71013184D02*
G01*
X130249104Y-71065988D01*
X130259048Y-71135146D01*
X130250871Y-71164952D01*
X130203802Y-71278585D01*
X130203800Y-71278591D01*
X130174499Y-71425896D01*
X130174499Y-71425899D01*
X130174499Y-71576099D01*
X130174499Y-71576101D01*
X130174498Y-71576101D01*
X130203800Y-71723406D01*
X130203802Y-71723412D01*
X130261279Y-71862174D01*
X130261456Y-71862505D01*
X130261516Y-71862747D01*
X130263612Y-71867806D01*
X130262861Y-71868116D01*
X130276099Y-71920961D01*
X130276099Y-73471096D01*
X130301495Y-73598768D01*
X130301498Y-73598780D01*
X130351313Y-73719046D01*
X130351320Y-73719059D01*
X130423643Y-73827297D01*
X130423646Y-73827301D01*
X130931644Y-74335298D01*
X130986247Y-74389901D01*
X131023701Y-74427355D01*
X131131938Y-74499677D01*
X131131945Y-74499681D01*
X131246621Y-74547181D01*
X131252222Y-74549501D01*
X131252226Y-74549501D01*
X131252227Y-74549502D01*
X131379902Y-74574899D01*
X131379905Y-74574899D01*
X131379906Y-74574899D01*
X132643883Y-74574899D01*
X132673323Y-74583543D01*
X132703310Y-74590067D01*
X132708325Y-74593821D01*
X132710922Y-74594584D01*
X132731564Y-74611218D01*
X132812780Y-74692434D01*
X132846265Y-74753757D01*
X132849099Y-74780115D01*
X132849099Y-74822041D01*
X132829414Y-74889080D01*
X132799410Y-74921307D01*
X132746740Y-74960735D01*
X132659110Y-75077794D01*
X132608010Y-75214794D01*
X132608010Y-75214796D01*
X132601499Y-75275344D01*
X132601499Y-76672653D01*
X132608010Y-76733201D01*
X132608010Y-76733203D01*
X132631440Y-76796020D01*
X132631442Y-76796025D01*
X132659110Y-76870203D01*
X132706247Y-76933170D01*
X132706249Y-76933174D01*
X132735275Y-76971947D01*
X132746738Y-76987260D01*
X132863795Y-77074888D01*
X133000798Y-77125988D01*
X133028049Y-77128917D01*
X133061344Y-77132498D01*
X133061361Y-77132499D01*
X133958637Y-77132499D01*
X133958653Y-77132498D01*
X133997499Y-77128321D01*
X134019200Y-77125988D01*
X134091665Y-77098958D01*
X134161356Y-77093973D01*
X134178326Y-77098956D01*
X134250798Y-77125988D01*
X134267778Y-77127813D01*
X134311344Y-77132498D01*
X134311361Y-77132499D01*
X135208637Y-77132499D01*
X135208653Y-77132498D01*
X135247499Y-77128321D01*
X135269200Y-77125988D01*
X135341665Y-77098958D01*
X135411356Y-77093973D01*
X135428326Y-77098956D01*
X135500798Y-77125988D01*
X135517778Y-77127813D01*
X135561344Y-77132498D01*
X135561361Y-77132499D01*
X136458637Y-77132499D01*
X136458653Y-77132498D01*
X136497499Y-77128321D01*
X136519200Y-77125988D01*
X136591665Y-77098958D01*
X136661356Y-77093973D01*
X136678326Y-77098956D01*
X136750798Y-77125988D01*
X136767778Y-77127813D01*
X136811344Y-77132498D01*
X136811361Y-77132499D01*
X137708637Y-77132499D01*
X137708653Y-77132498D01*
X137747499Y-77128321D01*
X137769200Y-77125988D01*
X137841665Y-77098958D01*
X137911356Y-77093973D01*
X137928326Y-77098956D01*
X138000798Y-77125988D01*
X138017778Y-77127813D01*
X138061344Y-77132498D01*
X138061361Y-77132499D01*
X138958637Y-77132499D01*
X138958653Y-77132498D01*
X138997499Y-77128321D01*
X139019200Y-77125988D01*
X139091665Y-77098958D01*
X139161356Y-77093973D01*
X139178326Y-77098956D01*
X139250798Y-77125988D01*
X139267778Y-77127813D01*
X139311344Y-77132498D01*
X139311361Y-77132499D01*
X140208637Y-77132499D01*
X140208653Y-77132498D01*
X140247499Y-77128321D01*
X140269200Y-77125988D01*
X140341665Y-77098958D01*
X140411356Y-77093973D01*
X140428326Y-77098956D01*
X140500798Y-77125988D01*
X140517778Y-77127813D01*
X140561344Y-77132498D01*
X140561361Y-77132499D01*
X141373499Y-77132499D01*
X141440538Y-77152184D01*
X141486293Y-77204988D01*
X141497499Y-77256499D01*
X141497499Y-78098799D01*
X141477814Y-78165838D01*
X141461180Y-78186480D01*
X140944480Y-78703180D01*
X140883157Y-78736665D01*
X140856799Y-78739499D01*
X136322897Y-78739499D01*
X136175591Y-78768800D01*
X136175585Y-78768802D01*
X136036821Y-78826280D01*
X135911929Y-78909729D01*
X134789730Y-80031928D01*
X134789724Y-80031935D01*
X134748073Y-80094271D01*
X134748074Y-80094272D01*
X134706280Y-80156821D01*
X134648802Y-80295585D01*
X134648800Y-80295591D01*
X134619499Y-80442896D01*
X134619499Y-80901499D01*
X134599814Y-80968538D01*
X134547010Y-81014293D01*
X134495499Y-81025499D01*
X128637199Y-81025499D01*
X128570160Y-81005814D01*
X128549518Y-80989180D01*
X128179818Y-80619480D01*
X128146333Y-80558157D01*
X128143499Y-80531799D01*
X128143499Y-77175344D01*
X129401499Y-77175344D01*
X129401499Y-80272653D01*
X129408010Y-80333201D01*
X129408010Y-80333203D01*
X129443378Y-80428025D01*
X129459110Y-80470203D01*
X129546738Y-80587260D01*
X129663795Y-80674888D01*
X129800798Y-80725988D01*
X129828049Y-80728917D01*
X129861344Y-80732498D01*
X129861361Y-80732499D01*
X132058637Y-80732499D01*
X132058653Y-80732498D01*
X132085691Y-80729590D01*
X132119200Y-80725988D01*
X132256203Y-80674888D01*
X132373260Y-80587260D01*
X132460888Y-80470203D01*
X132511988Y-80333200D01*
X132516032Y-80295585D01*
X132518498Y-80272653D01*
X132518499Y-80272636D01*
X132518499Y-77175361D01*
X132518498Y-77175344D01*
X132513891Y-77132498D01*
X132511988Y-77114798D01*
X132460888Y-76977795D01*
X132373260Y-76860738D01*
X132256203Y-76773110D01*
X132235052Y-76765221D01*
X132119202Y-76722010D01*
X132058653Y-76715499D01*
X132058637Y-76715499D01*
X129861361Y-76715499D01*
X129861344Y-76715499D01*
X129800796Y-76722010D01*
X129800794Y-76722010D01*
X129663794Y-76773110D01*
X129546738Y-76860738D01*
X129459110Y-76977794D01*
X129408010Y-77114794D01*
X129408010Y-77114796D01*
X129401499Y-77175344D01*
X128143499Y-77175344D01*
X128143499Y-71117499D01*
X128163184Y-71050460D01*
X128215988Y-71004705D01*
X128267499Y-70993499D01*
X130136310Y-70993499D01*
X130203349Y-71013184D01*
G37*
%TD.AperFunction*%
%TA.AperFunction,Conductor*%
G36*
X120608838Y-23261184D02*
G01*
X120654593Y-23313988D01*
X120664537Y-23383146D01*
X120635512Y-23446702D01*
X120629480Y-23453180D01*
X120565729Y-23516930D01*
X120565726Y-23516934D01*
X120482284Y-23641813D01*
X120482279Y-23641822D01*
X120424802Y-23780585D01*
X120424800Y-23780591D01*
X120395499Y-23927896D01*
X120395499Y-23927899D01*
X120395499Y-24078099D01*
X120395499Y-24078101D01*
X120395498Y-24078101D01*
X120424800Y-24225406D01*
X120424802Y-24225412D01*
X120482279Y-24364175D01*
X120482284Y-24364184D01*
X120565726Y-24489063D01*
X120565729Y-24489067D01*
X120671930Y-24595268D01*
X120671934Y-24595271D01*
X120796813Y-24678713D01*
X120796819Y-24678716D01*
X120796820Y-24678717D01*
X120935586Y-24736196D01*
X120935590Y-24736196D01*
X120935591Y-24736197D01*
X121082896Y-24765499D01*
X121082899Y-24765499D01*
X121233101Y-24765499D01*
X121332203Y-24745785D01*
X121380412Y-24736196D01*
X121519178Y-24678717D01*
X121519186Y-24678711D01*
X121519505Y-24678542D01*
X121519747Y-24678481D01*
X121524806Y-24676386D01*
X121525116Y-24677136D01*
X121577961Y-24663899D01*
X125056037Y-24663899D01*
X125108881Y-24677136D01*
X125109192Y-24676386D01*
X125114250Y-24678481D01*
X125114493Y-24678542D01*
X125114814Y-24678713D01*
X125114820Y-24678717D01*
X125253586Y-24736196D01*
X125253590Y-24736196D01*
X125253591Y-24736197D01*
X125400896Y-24765499D01*
X125400899Y-24765499D01*
X125551101Y-24765499D01*
X125650203Y-24745785D01*
X125698412Y-24736196D01*
X125837178Y-24678717D01*
X125962064Y-24595271D01*
X126068271Y-24489064D01*
X126151717Y-24364178D01*
X126209196Y-24225412D01*
X126238499Y-24078099D01*
X126238499Y-23927899D01*
X126238499Y-23927896D01*
X126209197Y-23780591D01*
X126209196Y-23780590D01*
X126209196Y-23780586D01*
X126151717Y-23641820D01*
X126151716Y-23641819D01*
X126151713Y-23641813D01*
X126068271Y-23516934D01*
X126068268Y-23516930D01*
X126004518Y-23453180D01*
X125971033Y-23391857D01*
X125976017Y-23322165D01*
X126017889Y-23266232D01*
X126083353Y-23241815D01*
X126092199Y-23241499D01*
X161235148Y-23241499D01*
X161286948Y-23241499D01*
X161293031Y-23241647D01*
X161619969Y-23257709D01*
X161632077Y-23258901D01*
X161952850Y-23306484D01*
X161964764Y-23308854D01*
X162279338Y-23387650D01*
X162290965Y-23391177D01*
X162596310Y-23500431D01*
X162607521Y-23505075D01*
X162900693Y-23643735D01*
X162911401Y-23649459D01*
X163189542Y-23816170D01*
X163199657Y-23822928D01*
X163460128Y-24016106D01*
X163469534Y-24023826D01*
X163709810Y-24241599D01*
X163718400Y-24250189D01*
X163887446Y-24436702D01*
X163936172Y-24490463D01*
X163943892Y-24499869D01*
X164137068Y-24760337D01*
X164143828Y-24770455D01*
X164166168Y-24807727D01*
X164304680Y-25038820D01*
X164310533Y-25048584D01*
X164316270Y-25059316D01*
X164454921Y-25352470D01*
X164459572Y-25363699D01*
X164557361Y-25637000D01*
X164568817Y-25669017D01*
X164572349Y-25680661D01*
X164651142Y-25995220D01*
X164653516Y-26007155D01*
X164701097Y-26327918D01*
X164702290Y-26340029D01*
X164718350Y-26666944D01*
X164718499Y-26673028D01*
X164718499Y-96395999D01*
X164698814Y-96463038D01*
X164646010Y-96508793D01*
X164594499Y-96519999D01*
X158627500Y-96519999D01*
X158560461Y-96500314D01*
X158514706Y-96447510D01*
X158503500Y-96395999D01*
X158503500Y-93052361D01*
X158503499Y-93052344D01*
X158500157Y-93021269D01*
X158496989Y-92991798D01*
X158494014Y-92983822D01*
X158474522Y-92931563D01*
X158445889Y-92854795D01*
X158358261Y-92737738D01*
X158241204Y-92650110D01*
X158104203Y-92599010D01*
X158043654Y-92592499D01*
X158043638Y-92592499D01*
X155646362Y-92592499D01*
X155646345Y-92592499D01*
X155585797Y-92599010D01*
X155585795Y-92599010D01*
X155448795Y-92650110D01*
X155331739Y-92737738D01*
X155244111Y-92854794D01*
X155193011Y-92991794D01*
X155193011Y-92991796D01*
X155186500Y-93052344D01*
X155186500Y-96395999D01*
X155166815Y-96463038D01*
X155114011Y-96508793D01*
X155062500Y-96519999D01*
X114805500Y-96519999D01*
X114738461Y-96500314D01*
X114692706Y-96447510D01*
X114681500Y-96395999D01*
X114681500Y-90960009D01*
X116979199Y-90960009D01*
X116979199Y-91157988D01*
X117010171Y-91353535D01*
X117071348Y-91541823D01*
X117071350Y-91541826D01*
X117161232Y-91718230D01*
X117277603Y-91878400D01*
X117417598Y-92018395D01*
X117577768Y-92134766D01*
X117754172Y-92224648D01*
X117754174Y-92224649D01*
X117848318Y-92255237D01*
X117942464Y-92285827D01*
X118138008Y-92316799D01*
X118138009Y-92316799D01*
X118335989Y-92316799D01*
X118335990Y-92316799D01*
X118531534Y-92285827D01*
X118719826Y-92224648D01*
X118896230Y-92134766D01*
X119056400Y-92018395D01*
X119196395Y-91878400D01*
X119312766Y-91718230D01*
X119396514Y-91553863D01*
X119444488Y-91503068D01*
X119512309Y-91486273D01*
X119578444Y-91508810D01*
X119617483Y-91553863D01*
X119701232Y-91718230D01*
X119817603Y-91878400D01*
X119957598Y-92018395D01*
X120117768Y-92134766D01*
X120294172Y-92224648D01*
X120294174Y-92224649D01*
X120388318Y-92255237D01*
X120482464Y-92285827D01*
X120678008Y-92316799D01*
X120678009Y-92316799D01*
X120875989Y-92316799D01*
X120875990Y-92316799D01*
X120883045Y-92315681D01*
X120952338Y-92324629D01*
X120990134Y-92350471D01*
X122470727Y-93831064D01*
X122576931Y-93937268D01*
X122576935Y-93937272D01*
X122701813Y-94020713D01*
X122701819Y-94020716D01*
X122701820Y-94020717D01*
X122840586Y-94078196D01*
X122840590Y-94078196D01*
X122840591Y-94078197D01*
X122987896Y-94107499D01*
X122987899Y-94107499D01*
X124789101Y-94107499D01*
X124888203Y-94087785D01*
X124936412Y-94078196D01*
X125075178Y-94020717D01*
X125200064Y-93937271D01*
X125306271Y-93831064D01*
X125389717Y-93706178D01*
X125447196Y-93567412D01*
X125476499Y-93420099D01*
X125476499Y-93269899D01*
X125476267Y-93268732D01*
X125476267Y-93268730D01*
X125476266Y-93268727D01*
X125472422Y-93249401D01*
X136567499Y-93249401D01*
X136567499Y-93502596D01*
X136607105Y-93752657D01*
X136685343Y-93993449D01*
X136800286Y-94219037D01*
X136949104Y-94423867D01*
X137128131Y-94602894D01*
X137332961Y-94751712D01*
X137558549Y-94866655D01*
X137799341Y-94944893D01*
X137928175Y-94965298D01*
X138049402Y-94984499D01*
X138049407Y-94984499D01*
X138302596Y-94984499D01*
X138413107Y-94966995D01*
X138552657Y-94944893D01*
X138793449Y-94866655D01*
X139019037Y-94751712D01*
X139223867Y-94602894D01*
X139402894Y-94423867D01*
X139551712Y-94219037D01*
X139666655Y-93993449D01*
X139744893Y-93752657D01*
X139774233Y-93567412D01*
X139784499Y-93502596D01*
X139784499Y-93249401D01*
X139753290Y-93052361D01*
X139744893Y-92999341D01*
X139666655Y-92758549D01*
X139551712Y-92532961D01*
X139402894Y-92328131D01*
X139223867Y-92149104D01*
X139019037Y-92000286D01*
X138793449Y-91885343D01*
X138552657Y-91807105D01*
X138302596Y-91767499D01*
X138302591Y-91767499D01*
X138049407Y-91767499D01*
X138049402Y-91767499D01*
X137799340Y-91807105D01*
X137558546Y-91885344D01*
X137332960Y-92000286D01*
X137216097Y-92085192D01*
X137128131Y-92149104D01*
X137128129Y-92149106D01*
X137128128Y-92149106D01*
X136949106Y-92328128D01*
X136949106Y-92328129D01*
X136949104Y-92328131D01*
X136939368Y-92341532D01*
X136800286Y-92532960D01*
X136685344Y-92758546D01*
X136607105Y-92999340D01*
X136567499Y-93249401D01*
X125472422Y-93249401D01*
X125447197Y-93122591D01*
X125447196Y-93122590D01*
X125447196Y-93122586D01*
X125389717Y-92983820D01*
X125389716Y-92983819D01*
X125389713Y-92983813D01*
X125306271Y-92858934D01*
X125306268Y-92858930D01*
X125200067Y-92752729D01*
X125200063Y-92752726D01*
X125075184Y-92669284D01*
X125075175Y-92669279D01*
X124936412Y-92611802D01*
X124936406Y-92611800D01*
X124789101Y-92582499D01*
X124789099Y-92582499D01*
X123430198Y-92582499D01*
X123400757Y-92573854D01*
X123370771Y-92567331D01*
X123365755Y-92563576D01*
X123363159Y-92562814D01*
X123342517Y-92546180D01*
X123324817Y-92528480D01*
X123291332Y-92467157D01*
X123296316Y-92397465D01*
X123338188Y-92341532D01*
X123403652Y-92317115D01*
X123412498Y-92316799D01*
X123415989Y-92316799D01*
X123415990Y-92316799D01*
X123611534Y-92285827D01*
X123799826Y-92224648D01*
X123976230Y-92134766D01*
X124136400Y-92018395D01*
X124276395Y-91878400D01*
X124392766Y-91718230D01*
X124482648Y-91541826D01*
X124543827Y-91353534D01*
X124574799Y-91157990D01*
X124574799Y-91012303D01*
X155944500Y-91012303D01*
X155944500Y-91189694D01*
X155979103Y-91363657D01*
X155979106Y-91363666D01*
X156046983Y-91527539D01*
X156046990Y-91527552D01*
X156145535Y-91675033D01*
X156145538Y-91675037D01*
X156270961Y-91800460D01*
X156270965Y-91800463D01*
X156418446Y-91899008D01*
X156418459Y-91899015D01*
X156541363Y-91949922D01*
X156582334Y-91966893D01*
X156582336Y-91966893D01*
X156582341Y-91966895D01*
X156756304Y-92001498D01*
X156756307Y-92001499D01*
X156756309Y-92001499D01*
X156933693Y-92001499D01*
X156933694Y-92001498D01*
X156991682Y-91989963D01*
X157107658Y-91966895D01*
X157107661Y-91966893D01*
X157107666Y-91966893D01*
X157271547Y-91899012D01*
X157419035Y-91800463D01*
X157544464Y-91675034D01*
X157643013Y-91527546D01*
X157710894Y-91363665D01*
X157712910Y-91353534D01*
X157745499Y-91189694D01*
X157745500Y-91189692D01*
X157745500Y-91012305D01*
X157745499Y-91012303D01*
X157710896Y-90838340D01*
X157710893Y-90838331D01*
X157643016Y-90674458D01*
X157643009Y-90674445D01*
X157544464Y-90526964D01*
X157544461Y-90526960D01*
X157419038Y-90401537D01*
X157419034Y-90401534D01*
X157271553Y-90302989D01*
X157271540Y-90302982D01*
X157107667Y-90235105D01*
X157107658Y-90235102D01*
X156933694Y-90200499D01*
X156933691Y-90200499D01*
X156756309Y-90200499D01*
X156756306Y-90200499D01*
X156582341Y-90235102D01*
X156582332Y-90235105D01*
X156418459Y-90302982D01*
X156418446Y-90302989D01*
X156270965Y-90401534D01*
X156270961Y-90401537D01*
X156145538Y-90526960D01*
X156145535Y-90526964D01*
X156046990Y-90674445D01*
X156046983Y-90674458D01*
X155979106Y-90838331D01*
X155979103Y-90838340D01*
X155944500Y-91012303D01*
X124574799Y-91012303D01*
X124574799Y-90960008D01*
X124543827Y-90764464D01*
X124482648Y-90576172D01*
X124392766Y-90399768D01*
X124276395Y-90239598D01*
X124136400Y-90099603D01*
X123976230Y-89983232D01*
X123799826Y-89893350D01*
X123799823Y-89893348D01*
X123611535Y-89832171D01*
X123513762Y-89816685D01*
X123415990Y-89801199D01*
X123218008Y-89801199D01*
X123152826Y-89811523D01*
X123022462Y-89832171D01*
X122834174Y-89893348D01*
X122834171Y-89893350D01*
X122657767Y-89983232D01*
X122566384Y-90049626D01*
X122497598Y-90099603D01*
X122497596Y-90099605D01*
X122497595Y-90099605D01*
X122357605Y-90239595D01*
X122357605Y-90239596D01*
X122357603Y-90239598D01*
X122307626Y-90308384D01*
X122241232Y-90399767D01*
X122157484Y-90564133D01*
X122109509Y-90614929D01*
X122041688Y-90631724D01*
X121975554Y-90609187D01*
X121936514Y-90564133D01*
X121853666Y-90401535D01*
X121852766Y-90399768D01*
X121736395Y-90239598D01*
X121596400Y-90099603D01*
X121436230Y-89983232D01*
X121259826Y-89893350D01*
X121259823Y-89893348D01*
X121071535Y-89832171D01*
X120973762Y-89816685D01*
X120875990Y-89801199D01*
X120678008Y-89801199D01*
X120612826Y-89811523D01*
X120482462Y-89832171D01*
X120294174Y-89893348D01*
X120294171Y-89893350D01*
X120117767Y-89983232D01*
X120026384Y-90049626D01*
X119957598Y-90099603D01*
X119957596Y-90099605D01*
X119957595Y-90099605D01*
X119817605Y-90239595D01*
X119817605Y-90239596D01*
X119817603Y-90239598D01*
X119767626Y-90308384D01*
X119701232Y-90399767D01*
X119617484Y-90564133D01*
X119569509Y-90614929D01*
X119501688Y-90631724D01*
X119435554Y-90609187D01*
X119396514Y-90564133D01*
X119313666Y-90401535D01*
X119312766Y-90399768D01*
X119196395Y-90239598D01*
X119056400Y-90099603D01*
X118896230Y-89983232D01*
X118719826Y-89893350D01*
X118719823Y-89893348D01*
X118531535Y-89832171D01*
X118433762Y-89816685D01*
X118335990Y-89801199D01*
X118138008Y-89801199D01*
X118072826Y-89811523D01*
X117942462Y-89832171D01*
X117754174Y-89893348D01*
X117754171Y-89893350D01*
X117577767Y-89983232D01*
X117486384Y-90049626D01*
X117417598Y-90099603D01*
X117417596Y-90099605D01*
X117417595Y-90099605D01*
X117277605Y-90239595D01*
X117277605Y-90239596D01*
X117277603Y-90239598D01*
X117227626Y-90308384D01*
X117161232Y-90399767D01*
X117071350Y-90576171D01*
X117071348Y-90576174D01*
X117010171Y-90764462D01*
X116979199Y-90960009D01*
X114681500Y-90960009D01*
X114681500Y-83574614D01*
X156069500Y-83574614D01*
X156069500Y-83727383D01*
X156099300Y-83877196D01*
X156099302Y-83877204D01*
X156157759Y-84018333D01*
X156157764Y-84018342D01*
X156242629Y-84145350D01*
X156242632Y-84145354D01*
X156350644Y-84253366D01*
X156350648Y-84253369D01*
X156477656Y-84338234D01*
X156477662Y-84338237D01*
X156477663Y-84338238D01*
X156618795Y-84396697D01*
X156768615Y-84426498D01*
X156768619Y-84426499D01*
X156768620Y-84426499D01*
X156921381Y-84426499D01*
X156921382Y-84426498D01*
X157071205Y-84396697D01*
X157212337Y-84338238D01*
X157339352Y-84253369D01*
X157447370Y-84145351D01*
X157532239Y-84018336D01*
X157590698Y-83877204D01*
X157620500Y-83727379D01*
X157620500Y-83574619D01*
X157590698Y-83424794D01*
X157532239Y-83283662D01*
X157532238Y-83283661D01*
X157532235Y-83283655D01*
X157447370Y-83156647D01*
X157447367Y-83156643D01*
X157339355Y-83048631D01*
X157339351Y-83048628D01*
X157212343Y-82963763D01*
X157212334Y-82963758D01*
X157071205Y-82905301D01*
X157071197Y-82905299D01*
X156921384Y-82875499D01*
X156921380Y-82875499D01*
X156768620Y-82875499D01*
X156768615Y-82875499D01*
X156618802Y-82905299D01*
X156618794Y-82905301D01*
X156477665Y-82963758D01*
X156477656Y-82963763D01*
X156350648Y-83048628D01*
X156350644Y-83048631D01*
X156242632Y-83156643D01*
X156242629Y-83156647D01*
X156157764Y-83283655D01*
X156157759Y-83283664D01*
X156099302Y-83424793D01*
X156099300Y-83424801D01*
X156069500Y-83574614D01*
X114681500Y-83574614D01*
X114681500Y-83568527D01*
X114681500Y-77545101D01*
X115061498Y-77545101D01*
X115090800Y-77692406D01*
X115090802Y-77692412D01*
X115148279Y-77831175D01*
X115148284Y-77831184D01*
X115231726Y-77956063D01*
X115231729Y-77956067D01*
X115337930Y-78062268D01*
X115337934Y-78062271D01*
X115462813Y-78145713D01*
X115462822Y-78145718D01*
X115494257Y-78158738D01*
X115601586Y-78203196D01*
X115601590Y-78203196D01*
X115601591Y-78203197D01*
X115748896Y-78232499D01*
X115748899Y-78232499D01*
X115899101Y-78232499D01*
X115998203Y-78212785D01*
X116046412Y-78203196D01*
X116185178Y-78145717D01*
X116310064Y-78062271D01*
X116416271Y-77956064D01*
X116499717Y-77831178D01*
X116557196Y-77692412D01*
X116586499Y-77545099D01*
X116586499Y-64694899D01*
X116586499Y-55296899D01*
X116586499Y-51764101D01*
X118617498Y-51764101D01*
X118646800Y-51911406D01*
X118646802Y-51911412D01*
X118704279Y-52050175D01*
X118704284Y-52050184D01*
X118787726Y-52175063D01*
X118787729Y-52175067D01*
X118893930Y-52281268D01*
X118893934Y-52281271D01*
X119018813Y-52364713D01*
X119018819Y-52364716D01*
X119018820Y-52364717D01*
X119157586Y-52422196D01*
X119157590Y-52422196D01*
X119157591Y-52422197D01*
X119304896Y-52451499D01*
X119304899Y-52451499D01*
X119455101Y-52451499D01*
X119554203Y-52431785D01*
X119602412Y-52422196D01*
X119741178Y-52364717D01*
X119866064Y-52281271D01*
X119972271Y-52175064D01*
X120055717Y-52050178D01*
X120113196Y-51911412D01*
X120113199Y-51911394D01*
X120113302Y-51911059D01*
X120113431Y-51910842D01*
X120115527Y-51905784D01*
X120116277Y-51906094D01*
X120144282Y-51859368D01*
X120655354Y-51348298D01*
X120727681Y-51240053D01*
X120777502Y-51119776D01*
X120802899Y-50992092D01*
X120802899Y-50861905D01*
X120802899Y-48679961D01*
X120816136Y-48627116D01*
X120815386Y-48626806D01*
X120817481Y-48621747D01*
X120817542Y-48621505D01*
X120817711Y-48621186D01*
X120817717Y-48621178D01*
X120875196Y-48482412D01*
X120904499Y-48335099D01*
X120904499Y-48184899D01*
X120904499Y-48184896D01*
X120875197Y-48037591D01*
X120875196Y-48037590D01*
X120875196Y-48037586D01*
X120817717Y-47898820D01*
X120817716Y-47898819D01*
X120817713Y-47898813D01*
X120734271Y-47773934D01*
X120734268Y-47773930D01*
X120628067Y-47667729D01*
X120628063Y-47667726D01*
X120503184Y-47584284D01*
X120503175Y-47584279D01*
X120364412Y-47526802D01*
X120364406Y-47526800D01*
X120217101Y-47497499D01*
X120217099Y-47497499D01*
X120066899Y-47497499D01*
X120066897Y-47497499D01*
X119919591Y-47526800D01*
X119919585Y-47526802D01*
X119780822Y-47584279D01*
X119780813Y-47584284D01*
X119655934Y-47667726D01*
X119655930Y-47667729D01*
X119549729Y-47773930D01*
X119549726Y-47773934D01*
X119466284Y-47898813D01*
X119466279Y-47898822D01*
X119408802Y-48037585D01*
X119408800Y-48037591D01*
X119379499Y-48184896D01*
X119379499Y-48184899D01*
X119379499Y-48335099D01*
X119379499Y-48335101D01*
X119379498Y-48335101D01*
X119408800Y-48482406D01*
X119408802Y-48482412D01*
X119466279Y-48621174D01*
X119466456Y-48621505D01*
X119466516Y-48621747D01*
X119468612Y-48626806D01*
X119467861Y-48627116D01*
X119481099Y-48679961D01*
X119481099Y-50601882D01*
X119461414Y-50668921D01*
X119444780Y-50689563D01*
X119209628Y-50924714D01*
X119162902Y-50952721D01*
X119163213Y-50953471D01*
X119158163Y-50955562D01*
X119157946Y-50955693D01*
X119157582Y-50955803D01*
X119018823Y-51013279D01*
X119018813Y-51013284D01*
X118893934Y-51096726D01*
X118893930Y-51096729D01*
X118787729Y-51202930D01*
X118787726Y-51202934D01*
X118704284Y-51327813D01*
X118704279Y-51327822D01*
X118646802Y-51466585D01*
X118646800Y-51466591D01*
X118617499Y-51613896D01*
X118617499Y-51613899D01*
X118617499Y-51764099D01*
X118617499Y-51764101D01*
X118617498Y-51764101D01*
X116586499Y-51764101D01*
X116586499Y-49835899D01*
X116586499Y-49835896D01*
X116557197Y-49688591D01*
X116557196Y-49688590D01*
X116557196Y-49688586D01*
X116499717Y-49549820D01*
X116499716Y-49549819D01*
X116499713Y-49549813D01*
X116416271Y-49424934D01*
X116416268Y-49424930D01*
X116310067Y-49318729D01*
X116310063Y-49318726D01*
X116185184Y-49235284D01*
X116185175Y-49235279D01*
X116046412Y-49177802D01*
X116046406Y-49177800D01*
X115899101Y-49148499D01*
X115899099Y-49148499D01*
X115748899Y-49148499D01*
X115748897Y-49148499D01*
X115601591Y-49177800D01*
X115601585Y-49177802D01*
X115462822Y-49235279D01*
X115462813Y-49235284D01*
X115337934Y-49318726D01*
X115337930Y-49318729D01*
X115231729Y-49424930D01*
X115231726Y-49424934D01*
X115148284Y-49549813D01*
X115148279Y-49549822D01*
X115090802Y-49688585D01*
X115090800Y-49688591D01*
X115061499Y-49835896D01*
X115061499Y-49835899D01*
X115061499Y-55296899D01*
X115061499Y-64694899D01*
X115061499Y-77545099D01*
X115061499Y-77545101D01*
X115061498Y-77545101D01*
X114681500Y-77545101D01*
X114681499Y-49829807D01*
X114681499Y-36905101D01*
X119633498Y-36905101D01*
X119662800Y-37052406D01*
X119662802Y-37052412D01*
X119720279Y-37191174D01*
X119720456Y-37191505D01*
X119720516Y-37191747D01*
X119722612Y-37196806D01*
X119721861Y-37197116D01*
X119735099Y-37249961D01*
X119735099Y-39181096D01*
X119760495Y-39308768D01*
X119760498Y-39308780D01*
X119810313Y-39429046D01*
X119810320Y-39429059D01*
X119882643Y-39537297D01*
X119882646Y-39537301D01*
X120838269Y-40492922D01*
X120853842Y-40508495D01*
X120853844Y-40508498D01*
X120945900Y-40600554D01*
X121020458Y-40650372D01*
X121026474Y-40654392D01*
X121026478Y-40654395D01*
X121054136Y-40672876D01*
X121054151Y-40672884D01*
X121174417Y-40722699D01*
X121174422Y-40722701D01*
X121174426Y-40722701D01*
X121174427Y-40722702D01*
X121302102Y-40748099D01*
X121302105Y-40748099D01*
X121302106Y-40748099D01*
X125818037Y-40748099D01*
X125870881Y-40761336D01*
X125871192Y-40760586D01*
X125876250Y-40762681D01*
X125876493Y-40762742D01*
X125876815Y-40762914D01*
X125876820Y-40762917D01*
X126015586Y-40820396D01*
X126015590Y-40820396D01*
X126015591Y-40820397D01*
X126162896Y-40849699D01*
X126162899Y-40849699D01*
X126313101Y-40849699D01*
X126466386Y-40819208D01*
X126466723Y-40820904D01*
X126528354Y-40820346D01*
X126587472Y-40857587D01*
X126617072Y-40920877D01*
X126618499Y-40939635D01*
X126618499Y-51344899D01*
X126618499Y-70155899D01*
X126618499Y-80974099D01*
X126618499Y-80974101D01*
X126618498Y-80974101D01*
X126645586Y-81110272D01*
X126645587Y-81110275D01*
X126647801Y-81121411D01*
X126700817Y-81249401D01*
X126705281Y-81260178D01*
X126788726Y-81385064D01*
X126788729Y-81385068D01*
X127783929Y-82380268D01*
X127783932Y-82380270D01*
X127783934Y-82380272D01*
X127908820Y-82463717D01*
X128047586Y-82521196D01*
X128047590Y-82521196D01*
X128047591Y-82521197D01*
X128194896Y-82550499D01*
X128194899Y-82550499D01*
X135457101Y-82550499D01*
X135556203Y-82530785D01*
X135604412Y-82521196D01*
X135743178Y-82463717D01*
X135868064Y-82380271D01*
X135974271Y-82274064D01*
X136057717Y-82149178D01*
X136115196Y-82010412D01*
X136144499Y-81863099D01*
X136144499Y-80885199D01*
X136164184Y-80818160D01*
X136180818Y-80797518D01*
X136395175Y-80583161D01*
X136629147Y-80349188D01*
X136690468Y-80315705D01*
X136760159Y-80320689D01*
X136816093Y-80362560D01*
X136840510Y-80428025D01*
X136825658Y-80496298D01*
X136817145Y-80509755D01*
X136800287Y-80532957D01*
X136685344Y-80758546D01*
X136607105Y-80999340D01*
X136567499Y-81249401D01*
X136567499Y-81502596D01*
X136607105Y-81752657D01*
X136685343Y-81993449D01*
X136800286Y-82219037D01*
X136949104Y-82423867D01*
X137128131Y-82602894D01*
X137332961Y-82751712D01*
X137558549Y-82866655D01*
X137799341Y-82944893D01*
X137928175Y-82965298D01*
X138049402Y-82984499D01*
X138049407Y-82984499D01*
X138302596Y-82984499D01*
X138413107Y-82966995D01*
X138552657Y-82944893D01*
X138793449Y-82866655D01*
X139019037Y-82751712D01*
X139223867Y-82602894D01*
X139402894Y-82423867D01*
X139551712Y-82219037D01*
X139666655Y-81993449D01*
X139744893Y-81752657D01*
X139774732Y-81564259D01*
X139784499Y-81502596D01*
X139784499Y-81249401D01*
X139762462Y-81110272D01*
X139744893Y-80999341D01*
X139666655Y-80758549D01*
X139551712Y-80532961D01*
X139506116Y-80470203D01*
X139499709Y-80461384D01*
X139476229Y-80395578D01*
X139492055Y-80327524D01*
X139542160Y-80278829D01*
X139600027Y-80264499D01*
X141299101Y-80264499D01*
X141398203Y-80244785D01*
X141446412Y-80235196D01*
X141585178Y-80177717D01*
X141616453Y-80156820D01*
X141710064Y-80094272D01*
X142852271Y-78952064D01*
X142935717Y-78827178D01*
X142993196Y-78688412D01*
X143000841Y-78649977D01*
X143022499Y-78541099D01*
X143022499Y-77256499D01*
X143042184Y-77189460D01*
X143094988Y-77143705D01*
X143146499Y-77132499D01*
X143958637Y-77132499D01*
X143958653Y-77132498D01*
X143997499Y-77128321D01*
X144019200Y-77125988D01*
X144091665Y-77098958D01*
X144161356Y-77093973D01*
X144178326Y-77098956D01*
X144250798Y-77125988D01*
X144267778Y-77127813D01*
X144311344Y-77132498D01*
X144311361Y-77132499D01*
X145208637Y-77132499D01*
X145208653Y-77132498D01*
X145235691Y-77129590D01*
X145269200Y-77125988D01*
X145406203Y-77074888D01*
X145523260Y-76987260D01*
X145569082Y-76926048D01*
X145625015Y-76884177D01*
X145694707Y-76879193D01*
X145756030Y-76912678D01*
X145789515Y-76974001D01*
X145784531Y-77043693D01*
X145758009Y-77114797D01*
X145751499Y-77175344D01*
X145751499Y-80272653D01*
X145758010Y-80333201D01*
X145758010Y-80333203D01*
X145793378Y-80428025D01*
X145809110Y-80470203D01*
X145896738Y-80587260D01*
X146013795Y-80674888D01*
X146150798Y-80725988D01*
X146178049Y-80728917D01*
X146211344Y-80732498D01*
X146211361Y-80732499D01*
X148408637Y-80732499D01*
X148408653Y-80732498D01*
X148435691Y-80729590D01*
X148469200Y-80725988D01*
X148606203Y-80674888D01*
X148723260Y-80587260D01*
X148810888Y-80470203D01*
X148861988Y-80333200D01*
X148866032Y-80295585D01*
X148868498Y-80272653D01*
X148868499Y-80272636D01*
X148868499Y-77175361D01*
X148868498Y-77175344D01*
X148863891Y-77132498D01*
X148861988Y-77114798D01*
X148856080Y-77098959D01*
X148814418Y-76987260D01*
X148810888Y-76977795D01*
X148723260Y-76860738D01*
X148606203Y-76773110D01*
X148585052Y-76765221D01*
X148469202Y-76722010D01*
X148408653Y-76715499D01*
X148408637Y-76715499D01*
X148293733Y-76715499D01*
X148226694Y-76695814D01*
X148189027Y-76652344D01*
X155186500Y-76652344D01*
X155186500Y-81249653D01*
X155193011Y-81310201D01*
X155193011Y-81310203D01*
X155244111Y-81447203D01*
X155331739Y-81564260D01*
X155448796Y-81651888D01*
X155585799Y-81702988D01*
X155613050Y-81705917D01*
X155646345Y-81709498D01*
X155646362Y-81709499D01*
X158043638Y-81709499D01*
X158043654Y-81709498D01*
X158070692Y-81706590D01*
X158104201Y-81702988D01*
X158241204Y-81651888D01*
X158358261Y-81564260D01*
X158445889Y-81447203D01*
X158496989Y-81310200D01*
X158502367Y-81260176D01*
X158503499Y-81249653D01*
X158503500Y-81249636D01*
X158503500Y-79735899D01*
X158506050Y-79727213D01*
X158504762Y-79718252D01*
X158515740Y-79694211D01*
X158523185Y-79668860D01*
X158530025Y-79662932D01*
X158533787Y-79654696D01*
X158556021Y-79640406D01*
X158575989Y-79623105D01*
X158586503Y-79620817D01*
X158592565Y-79616922D01*
X158627500Y-79611899D01*
X158711038Y-79611899D01*
X158763882Y-79625136D01*
X158764193Y-79624386D01*
X158769251Y-79626481D01*
X158769494Y-79626542D01*
X158769815Y-79626713D01*
X158769821Y-79626717D01*
X158908587Y-79684196D01*
X158908591Y-79684196D01*
X158908592Y-79684197D01*
X159055897Y-79713499D01*
X159055900Y-79713499D01*
X159206102Y-79713499D01*
X159305204Y-79693785D01*
X159353413Y-79684196D01*
X159492179Y-79626717D01*
X159617065Y-79543271D01*
X159723272Y-79437064D01*
X159806718Y-79312178D01*
X159864197Y-79173412D01*
X159893500Y-79026099D01*
X159893500Y-78875899D01*
X159893500Y-78875896D01*
X159864198Y-78728591D01*
X159864197Y-78728590D01*
X159864197Y-78728586D01*
X159806718Y-78589820D01*
X159806717Y-78589819D01*
X159806714Y-78589813D01*
X159723272Y-78464934D01*
X159723269Y-78464930D01*
X159617068Y-78358729D01*
X159617064Y-78358726D01*
X159492185Y-78275284D01*
X159492176Y-78275279D01*
X159353413Y-78217802D01*
X159353407Y-78217800D01*
X159206102Y-78188499D01*
X159206100Y-78188499D01*
X159055900Y-78188499D01*
X159055898Y-78188499D01*
X158908592Y-78217800D01*
X158908586Y-78217802D01*
X158769824Y-78275279D01*
X158769494Y-78275456D01*
X158769251Y-78275516D01*
X158764193Y-78277612D01*
X158763882Y-78276861D01*
X158755479Y-78278966D01*
X158745973Y-78285076D01*
X158711038Y-78290099D01*
X158627500Y-78290099D01*
X158560461Y-78270414D01*
X158514706Y-78217610D01*
X158503500Y-78166099D01*
X158503500Y-76652361D01*
X158503499Y-76652344D01*
X158500157Y-76621269D01*
X158496989Y-76591798D01*
X158490295Y-76573852D01*
X158474522Y-76531563D01*
X158445889Y-76454795D01*
X158358261Y-76337738D01*
X158241204Y-76250110D01*
X158104203Y-76199010D01*
X158043654Y-76192499D01*
X158043638Y-76192499D01*
X155646362Y-76192499D01*
X155646345Y-76192499D01*
X155585797Y-76199010D01*
X155585795Y-76199010D01*
X155448795Y-76250110D01*
X155331739Y-76337738D01*
X155244111Y-76454794D01*
X155193011Y-76591794D01*
X155193011Y-76591796D01*
X155186500Y-76652344D01*
X148189027Y-76652344D01*
X148180939Y-76643010D01*
X148170995Y-76573852D01*
X148190631Y-76522609D01*
X148249710Y-76434189D01*
X148249712Y-76434185D01*
X148249717Y-76434178D01*
X148307196Y-76295412D01*
X148336499Y-76148099D01*
X148336499Y-75997899D01*
X148336499Y-75997896D01*
X148307197Y-75850591D01*
X148307196Y-75850590D01*
X148307196Y-75850586D01*
X148249717Y-75711820D01*
X148249716Y-75711819D01*
X148249713Y-75711813D01*
X148166271Y-75586934D01*
X148166268Y-75586930D01*
X148060067Y-75480729D01*
X148060063Y-75480726D01*
X147935184Y-75397284D01*
X147935175Y-75397279D01*
X147796412Y-75339802D01*
X147796406Y-75339800D01*
X147649101Y-75310499D01*
X147649099Y-75310499D01*
X147498899Y-75310499D01*
X147498897Y-75310499D01*
X147351591Y-75339800D01*
X147351585Y-75339802D01*
X147212823Y-75397279D01*
X147212493Y-75397456D01*
X147212250Y-75397516D01*
X147207192Y-75399612D01*
X147206881Y-75398861D01*
X147154037Y-75412099D01*
X145792499Y-75412099D01*
X145725460Y-75392414D01*
X145679705Y-75339610D01*
X145668499Y-75288099D01*
X145668499Y-75275361D01*
X145668498Y-75275344D01*
X145665156Y-75244269D01*
X145661988Y-75214798D01*
X145610888Y-75077795D01*
X145523260Y-74960738D01*
X145406203Y-74873110D01*
X145269202Y-74822010D01*
X145208653Y-74815499D01*
X145208637Y-74815499D01*
X144311361Y-74815499D01*
X144311344Y-74815499D01*
X144250797Y-74822009D01*
X144178333Y-74849038D01*
X144108641Y-74854022D01*
X144091665Y-74849038D01*
X144019200Y-74822009D01*
X143958653Y-74815499D01*
X143958637Y-74815499D01*
X143212069Y-74815499D01*
X143192508Y-74809755D01*
X143172139Y-74808894D01*
X143159664Y-74800111D01*
X143145030Y-74795814D01*
X143131682Y-74780410D01*
X143115009Y-74768671D01*
X143109262Y-74754536D01*
X143099275Y-74743010D01*
X143096373Y-74722833D01*
X143088695Y-74703945D01*
X143089936Y-74678061D01*
X143089331Y-74673852D01*
X143090186Y-74668683D01*
X143090322Y-74667956D01*
X143111858Y-74559690D01*
X143111858Y-74552911D01*
X143113975Y-74541603D01*
X143124811Y-74520304D01*
X143131543Y-74497380D01*
X143144923Y-74480775D01*
X143145659Y-74479330D01*
X143146470Y-74478855D01*
X143148173Y-74476742D01*
X143562143Y-74062771D01*
X143608869Y-74034766D01*
X143608559Y-74034016D01*
X143613617Y-74031920D01*
X143613834Y-74031791D01*
X143614169Y-74031688D01*
X143614187Y-74031685D01*
X143752953Y-73974206D01*
X143877839Y-73890760D01*
X143984046Y-73784553D01*
X144067492Y-73659667D01*
X144124971Y-73520901D01*
X144148892Y-73400644D01*
X144154274Y-73373590D01*
X144154274Y-73223385D01*
X144124972Y-73076080D01*
X144124971Y-73076079D01*
X144124971Y-73076075D01*
X144067492Y-72937309D01*
X144066643Y-72936039D01*
X144066403Y-72935271D01*
X144064622Y-72931939D01*
X144065253Y-72931601D01*
X144045763Y-72869364D01*
X144055181Y-72819695D01*
X144101707Y-72707373D01*
X144131010Y-72560060D01*
X144131010Y-72409860D01*
X144131010Y-72409857D01*
X144101708Y-72262552D01*
X144101707Y-72262548D01*
X144101707Y-72262547D01*
X144044228Y-72123781D01*
X144044227Y-72123780D01*
X144044224Y-72123774D01*
X143960782Y-71998895D01*
X143960779Y-71998891D01*
X143854578Y-71892690D01*
X143854574Y-71892687D01*
X143729695Y-71809245D01*
X143729686Y-71809240D01*
X143590923Y-71751763D01*
X143590917Y-71751761D01*
X143443612Y-71722460D01*
X143443610Y-71722460D01*
X143293410Y-71722460D01*
X143293408Y-71722460D01*
X143146102Y-71751761D01*
X143146096Y-71751763D01*
X143007333Y-71809240D01*
X143007324Y-71809245D01*
X142882445Y-71892687D01*
X142882441Y-71892690D01*
X142776240Y-71998891D01*
X142776237Y-71998895D01*
X142692795Y-72123774D01*
X142692790Y-72123783D01*
X142635312Y-72262548D01*
X142635312Y-72262549D01*
X142625893Y-72309898D01*
X142593506Y-72371808D01*
X142591957Y-72373385D01*
X141861739Y-73103603D01*
X141856057Y-73106705D01*
X141852395Y-73112043D01*
X141825765Y-73123246D01*
X141800416Y-73137088D01*
X141793960Y-73136626D01*
X141787993Y-73139137D01*
X141759537Y-73134164D01*
X141730724Y-73132104D01*
X141725541Y-73128223D01*
X141719166Y-73127110D01*
X141697916Y-73107544D01*
X141674791Y-73090232D01*
X141671342Y-73083075D01*
X141667767Y-73079783D01*
X141659718Y-73058951D01*
X141654081Y-73047250D01*
X141653156Y-73043710D01*
X141645501Y-73005222D01*
X141642288Y-72997466D01*
X141595681Y-72884945D01*
X141569752Y-72846139D01*
X141523354Y-72776699D01*
X141426979Y-72680324D01*
X141426956Y-72680303D01*
X138144167Y-69397513D01*
X138116162Y-69350786D01*
X138115411Y-69351098D01*
X138113311Y-69346028D01*
X138113185Y-69345818D01*
X138113081Y-69345475D01*
X138113080Y-69345470D01*
X138090088Y-69289963D01*
X138055604Y-69206710D01*
X138055597Y-69206697D01*
X137972155Y-69081818D01*
X137972152Y-69081814D01*
X137865951Y-68975613D01*
X137865947Y-68975610D01*
X137741068Y-68892168D01*
X137741059Y-68892163D01*
X137602296Y-68834686D01*
X137602290Y-68834684D01*
X137454985Y-68805383D01*
X137454983Y-68805383D01*
X137304783Y-68805383D01*
X137304781Y-68805383D01*
X137157475Y-68834684D01*
X137157469Y-68834686D01*
X137018706Y-68892163D01*
X137018697Y-68892168D01*
X136893818Y-68975610D01*
X136893814Y-68975613D01*
X136787613Y-69081814D01*
X136787610Y-69081818D01*
X136704168Y-69206697D01*
X136704163Y-69206706D01*
X136646686Y-69345469D01*
X136646684Y-69345475D01*
X136617383Y-69492780D01*
X136617383Y-69492783D01*
X136617383Y-69642983D01*
X136617383Y-69642985D01*
X136617382Y-69642985D01*
X136646684Y-69790290D01*
X136646686Y-69790296D01*
X136704163Y-69929059D01*
X136704168Y-69929068D01*
X136787610Y-70053947D01*
X136787613Y-70053951D01*
X136893814Y-70160152D01*
X136893818Y-70160155D01*
X137018697Y-70243597D01*
X137018710Y-70243604D01*
X137101963Y-70278088D01*
X137157470Y-70301080D01*
X137157477Y-70301081D01*
X137157818Y-70301185D01*
X137158028Y-70301311D01*
X137163098Y-70303411D01*
X137162786Y-70304162D01*
X137209513Y-70332167D01*
X138761700Y-71884354D01*
X140312780Y-73435433D01*
X140346265Y-73496756D01*
X140349099Y-73523114D01*
X140349099Y-73964083D01*
X140329414Y-74031122D01*
X140276610Y-74076877D01*
X140207452Y-74086821D01*
X140143896Y-74057796D01*
X140137418Y-74051764D01*
X139486301Y-73400646D01*
X139486297Y-73400643D01*
X139378059Y-73328320D01*
X139378046Y-73328313D01*
X139257780Y-73278498D01*
X139257768Y-73278495D01*
X139130095Y-73253099D01*
X139130092Y-73253099D01*
X135580115Y-73253099D01*
X135550674Y-73244454D01*
X135520688Y-73237931D01*
X135515672Y-73234176D01*
X135513076Y-73233414D01*
X135492434Y-73216780D01*
X135317218Y-73041564D01*
X135283733Y-72980241D01*
X135280899Y-72953883D01*
X135280899Y-71793961D01*
X135294136Y-71741116D01*
X135293386Y-71740806D01*
X135295481Y-71735747D01*
X135295542Y-71735505D01*
X135295711Y-71735186D01*
X135295717Y-71735178D01*
X135353196Y-71596412D01*
X135382499Y-71449099D01*
X135382499Y-71298899D01*
X135382499Y-71298896D01*
X135353197Y-71151591D01*
X135353196Y-71151590D01*
X135353196Y-71151586D01*
X135295717Y-71012820D01*
X135295716Y-71012819D01*
X135295713Y-71012813D01*
X135212271Y-70887934D01*
X135212268Y-70887930D01*
X135106067Y-70781729D01*
X135106063Y-70781726D01*
X134981184Y-70698284D01*
X134981175Y-70698279D01*
X134842412Y-70640802D01*
X134842406Y-70640800D01*
X134695101Y-70611499D01*
X134695099Y-70611499D01*
X134544899Y-70611499D01*
X134544897Y-70611499D01*
X134397591Y-70640800D01*
X134397585Y-70640802D01*
X134258822Y-70698279D01*
X134258813Y-70698284D01*
X134133934Y-70781726D01*
X134133930Y-70781729D01*
X134027729Y-70887930D01*
X134027726Y-70887934D01*
X133944284Y-71012813D01*
X133944279Y-71012822D01*
X133886802Y-71151585D01*
X133886800Y-71151591D01*
X133857499Y-71298896D01*
X133857499Y-71298899D01*
X133857499Y-71449099D01*
X133857499Y-71449101D01*
X133857498Y-71449101D01*
X133886800Y-71596406D01*
X133886802Y-71596412D01*
X133944279Y-71735174D01*
X133944456Y-71735505D01*
X133944516Y-71735747D01*
X133946612Y-71740806D01*
X133945861Y-71741116D01*
X133959099Y-71793961D01*
X133959099Y-73344096D01*
X133984495Y-73471768D01*
X133984498Y-73471780D01*
X134034313Y-73592046D01*
X134034320Y-73592059D01*
X134106643Y-73700297D01*
X134106646Y-73700301D01*
X134833696Y-74427351D01*
X134833700Y-74427354D01*
X134941938Y-74499677D01*
X134941942Y-74499679D01*
X134941945Y-74499681D01*
X135062222Y-74549502D01*
X135164681Y-74569881D01*
X135226592Y-74602266D01*
X135261166Y-74662982D01*
X135257427Y-74732751D01*
X135216561Y-74789423D01*
X135151543Y-74815005D01*
X135140490Y-74815499D01*
X134311361Y-74815499D01*
X134311341Y-74815500D01*
X134308139Y-74815844D01*
X134292740Y-74813063D01*
X134277252Y-74815291D01*
X134259059Y-74806982D01*
X134239381Y-74803430D01*
X134227930Y-74792766D01*
X134213696Y-74786266D01*
X134202883Y-74769441D01*
X134188250Y-74755814D01*
X134183875Y-74739863D01*
X134175922Y-74727488D01*
X134170899Y-74692553D01*
X134170899Y-74526227D01*
X134170900Y-74526206D01*
X134170900Y-74389903D01*
X134170899Y-74389901D01*
X134145503Y-74262229D01*
X134145502Y-74262222D01*
X134095681Y-74141945D01*
X134095679Y-74141942D01*
X134095677Y-74141938D01*
X134023354Y-74033700D01*
X134023351Y-74033696D01*
X133390301Y-73400646D01*
X133390297Y-73400643D01*
X133282059Y-73328320D01*
X133282046Y-73328313D01*
X133161780Y-73278498D01*
X133161768Y-73278495D01*
X133034095Y-73253099D01*
X133034092Y-73253099D01*
X131770115Y-73253099D01*
X131740674Y-73244454D01*
X131710688Y-73237931D01*
X131705672Y-73234176D01*
X131703076Y-73233414D01*
X131682434Y-73216780D01*
X131634218Y-73168564D01*
X131600733Y-73107241D01*
X131597899Y-73080883D01*
X131597899Y-71920961D01*
X131611136Y-71868116D01*
X131610386Y-71867806D01*
X131612481Y-71862747D01*
X131612542Y-71862505D01*
X131612711Y-71862186D01*
X131612717Y-71862178D01*
X131670196Y-71723412D01*
X131679785Y-71675203D01*
X131699499Y-71576101D01*
X131699499Y-71425896D01*
X131670197Y-71278591D01*
X131670196Y-71278590D01*
X131670196Y-71278586D01*
X131623126Y-71164951D01*
X131615658Y-71095482D01*
X131646933Y-71033003D01*
X131707022Y-70997351D01*
X131737688Y-70993499D01*
X132028101Y-70993499D01*
X132127203Y-70973785D01*
X132175412Y-70964196D01*
X132314178Y-70906717D01*
X132439064Y-70823271D01*
X132545271Y-70717064D01*
X132628717Y-70592178D01*
X132686196Y-70453412D01*
X132710314Y-70332167D01*
X132715499Y-70306101D01*
X132715499Y-70155896D01*
X132686197Y-70008591D01*
X132686196Y-70008590D01*
X132686196Y-70008586D01*
X132628717Y-69869820D01*
X132628716Y-69869819D01*
X132628713Y-69869813D01*
X132545271Y-69744934D01*
X132545268Y-69744930D01*
X132439067Y-69638729D01*
X132439063Y-69638726D01*
X132314184Y-69555284D01*
X132314175Y-69555279D01*
X132175412Y-69497802D01*
X132175406Y-69497800D01*
X132028101Y-69468499D01*
X132028099Y-69468499D01*
X128267499Y-69468499D01*
X128200460Y-69448814D01*
X128154705Y-69396010D01*
X128143499Y-69344499D01*
X128143499Y-59624901D01*
X145389099Y-59624901D01*
X145389099Y-62392419D01*
X145414495Y-62520091D01*
X145414498Y-62520103D01*
X145464313Y-62640369D01*
X145464320Y-62640382D01*
X145536643Y-62748620D01*
X145536646Y-62748624D01*
X146372641Y-63584617D01*
X146372662Y-63584640D01*
X146648180Y-63860157D01*
X146681665Y-63921480D01*
X146684499Y-63947838D01*
X146684499Y-64083099D01*
X146684499Y-64083101D01*
X146684498Y-64083101D01*
X146713800Y-64230406D01*
X146713802Y-64230412D01*
X146771279Y-64369175D01*
X146771284Y-64369184D01*
X146854726Y-64494063D01*
X146854729Y-64494067D01*
X146960930Y-64600268D01*
X146960934Y-64600271D01*
X147085813Y-64683713D01*
X147085819Y-64683716D01*
X147085820Y-64683717D01*
X147224586Y-64741196D01*
X147224590Y-64741196D01*
X147224591Y-64741197D01*
X147371896Y-64770499D01*
X147371899Y-64770499D01*
X147522101Y-64770499D01*
X147621203Y-64750785D01*
X147669412Y-64741196D01*
X147808178Y-64683717D01*
X147933064Y-64600271D01*
X148039271Y-64494064D01*
X148122717Y-64369178D01*
X148180196Y-64230412D01*
X148194022Y-64160906D01*
X148209499Y-64083101D01*
X148209499Y-63932896D01*
X148180197Y-63785591D01*
X148180196Y-63785590D01*
X148180196Y-63785586D01*
X148122717Y-63646820D01*
X148111804Y-63630488D01*
X148093291Y-63585792D01*
X148082501Y-63531545D01*
X148070046Y-63501475D01*
X148032684Y-63411274D01*
X148032677Y-63411261D01*
X147960355Y-63303024D01*
X147960354Y-63303023D01*
X147868298Y-63210967D01*
X147591361Y-62934030D01*
X158807599Y-62934030D01*
X158807599Y-64599967D01*
X158845196Y-64788980D01*
X158845198Y-64788988D01*
X158918950Y-64967042D01*
X158918955Y-64967051D01*
X159026025Y-65127292D01*
X159026028Y-65127296D01*
X159162301Y-65263569D01*
X159162305Y-65263572D01*
X159322546Y-65370642D01*
X159322552Y-65370645D01*
X159322553Y-65370646D01*
X159500610Y-65444400D01*
X159689630Y-65481998D01*
X159689634Y-65481999D01*
X159689635Y-65481999D01*
X159882364Y-65481999D01*
X159882365Y-65481998D01*
X159936928Y-65471145D01*
X160048249Y-65449003D01*
X160117841Y-65455230D01*
X160173018Y-65498093D01*
X160196262Y-65563983D01*
X160180194Y-65631980D01*
X160175542Y-65639511D01*
X160142281Y-65689288D01*
X160142276Y-65689297D01*
X160066255Y-65872829D01*
X160066253Y-65872837D01*
X160027499Y-66067665D01*
X160027499Y-66266332D01*
X160041318Y-66335805D01*
X160035091Y-66405397D01*
X159992227Y-66460574D01*
X159926337Y-66483818D01*
X159895513Y-66481614D01*
X159882364Y-66478999D01*
X159882363Y-66478999D01*
X159689635Y-66478999D01*
X159689630Y-66478999D01*
X159500617Y-66516596D01*
X159500609Y-66516598D01*
X159322555Y-66590350D01*
X159322546Y-66590355D01*
X159162305Y-66697425D01*
X159162301Y-66697428D01*
X159026028Y-66833701D01*
X159026025Y-66833705D01*
X158918955Y-66993946D01*
X158918950Y-66993955D01*
X158845198Y-67172009D01*
X158845196Y-67172017D01*
X158807599Y-67361030D01*
X158807599Y-68772967D01*
X158845196Y-68961980D01*
X158845198Y-68961988D01*
X158918950Y-69140042D01*
X158918955Y-69140051D01*
X159026025Y-69300292D01*
X159026028Y-69300296D01*
X159162301Y-69436569D01*
X159162305Y-69436572D01*
X159322546Y-69543642D01*
X159322552Y-69543645D01*
X159322553Y-69543646D01*
X159500610Y-69617400D01*
X159689630Y-69654998D01*
X159689634Y-69654999D01*
X159689635Y-69654999D01*
X159882364Y-69654999D01*
X159882365Y-69654998D01*
X160071388Y-69617400D01*
X160249445Y-69543646D01*
X160291124Y-69515796D01*
X160357801Y-69494919D01*
X160360015Y-69494899D01*
X161494789Y-69494899D01*
X161561828Y-69514584D01*
X161607583Y-69567388D01*
X161617527Y-69636546D01*
X161609350Y-69666352D01*
X161572802Y-69754585D01*
X161572800Y-69754591D01*
X161543499Y-69901896D01*
X161543499Y-69901899D01*
X161543499Y-70052099D01*
X161543499Y-70052101D01*
X161543498Y-70052101D01*
X161572800Y-70199406D01*
X161572802Y-70199412D01*
X161630279Y-70338175D01*
X161630284Y-70338184D01*
X161713726Y-70463063D01*
X161713729Y-70463067D01*
X161819930Y-70569268D01*
X161819934Y-70569271D01*
X161944813Y-70652713D01*
X161944819Y-70652716D01*
X161944820Y-70652717D01*
X162083586Y-70710196D01*
X162083590Y-70710196D01*
X162083591Y-70710197D01*
X162230896Y-70739499D01*
X162230899Y-70739499D01*
X162381101Y-70739499D01*
X162493890Y-70717063D01*
X162528412Y-70710196D01*
X162667178Y-70652717D01*
X162792064Y-70569271D01*
X162898271Y-70463064D01*
X162981717Y-70338178D01*
X163039196Y-70199412D01*
X163068131Y-70053951D01*
X163068499Y-70052101D01*
X163068499Y-69901896D01*
X163039197Y-69754591D01*
X163039196Y-69754590D01*
X163039196Y-69754586D01*
X162981717Y-69615820D01*
X162981716Y-69615818D01*
X162981715Y-69615816D01*
X162981538Y-69615484D01*
X162981476Y-69615239D01*
X162979386Y-69610192D01*
X162980134Y-69609881D01*
X162978028Y-69601473D01*
X162971922Y-69591971D01*
X162966899Y-69557036D01*
X162966899Y-69508113D01*
X162986584Y-69441074D01*
X163022009Y-69405011D01*
X163074551Y-69369902D01*
X163108298Y-69347354D01*
X163799354Y-68656298D01*
X163871681Y-68548053D01*
X163921501Y-68427776D01*
X163946899Y-68300092D01*
X163946899Y-68169906D01*
X163946899Y-67550728D01*
X163966584Y-67483689D01*
X163983213Y-67463051D01*
X164045972Y-67400293D01*
X164153046Y-67240045D01*
X164226800Y-67061988D01*
X164264399Y-66872963D01*
X164264399Y-65461035D01*
X164226800Y-65272010D01*
X164153046Y-65093953D01*
X164153045Y-65093952D01*
X164153042Y-65093946D01*
X164045972Y-64933705D01*
X164045969Y-64933701D01*
X163983218Y-64870950D01*
X163949733Y-64809627D01*
X163946899Y-64783269D01*
X163946899Y-64160903D01*
X163946898Y-64160901D01*
X163921501Y-64033222D01*
X163886134Y-63947838D01*
X163871684Y-63912951D01*
X163871677Y-63912938D01*
X163799355Y-63804701D01*
X163780239Y-63785585D01*
X163707298Y-63712644D01*
X163526197Y-63531543D01*
X163108301Y-63113646D01*
X163108297Y-63113643D01*
X163000059Y-63041320D01*
X163000046Y-63041313D01*
X162879780Y-62991498D01*
X162879768Y-62991495D01*
X162752095Y-62966099D01*
X162752092Y-62966099D01*
X160872541Y-62966099D01*
X160805502Y-62946414D01*
X160759747Y-62893610D01*
X160750924Y-62866290D01*
X160743593Y-62829435D01*
X160726800Y-62745010D01*
X160653046Y-62566953D01*
X160653045Y-62566952D01*
X160653042Y-62566946D01*
X160545972Y-62406705D01*
X160545969Y-62406701D01*
X160409696Y-62270428D01*
X160409692Y-62270425D01*
X160249451Y-62163355D01*
X160249442Y-62163350D01*
X160071388Y-62089598D01*
X160071380Y-62089596D01*
X159882367Y-62051999D01*
X159882363Y-62051999D01*
X159689635Y-62051999D01*
X159689630Y-62051999D01*
X159500617Y-62089596D01*
X159500609Y-62089598D01*
X159322555Y-62163350D01*
X159322546Y-62163355D01*
X159162305Y-62270425D01*
X159162301Y-62270428D01*
X159026028Y-62406701D01*
X159026025Y-62406705D01*
X158918955Y-62566946D01*
X158918950Y-62566955D01*
X158845198Y-62745009D01*
X158845196Y-62745017D01*
X158807599Y-62934030D01*
X147591361Y-62934030D01*
X147523621Y-62866290D01*
X147307317Y-62649985D01*
X147307294Y-62649964D01*
X146747218Y-62089887D01*
X146713733Y-62028564D01*
X146710899Y-62002206D01*
X146710899Y-60015115D01*
X146719543Y-59985674D01*
X146726067Y-59955688D01*
X146729821Y-59950672D01*
X146730584Y-59948076D01*
X146747218Y-59927434D01*
X146922434Y-59752218D01*
X146983757Y-59718733D01*
X147010115Y-59715899D01*
X147662037Y-59715899D01*
X147714881Y-59729136D01*
X147715192Y-59728386D01*
X147720250Y-59730481D01*
X147720493Y-59730542D01*
X147720814Y-59730713D01*
X147720820Y-59730717D01*
X147859586Y-59788196D01*
X147859590Y-59788196D01*
X147859591Y-59788197D01*
X148006896Y-59817499D01*
X148006899Y-59817499D01*
X148157101Y-59817499D01*
X148256203Y-59797785D01*
X148304412Y-59788196D01*
X148443178Y-59730717D01*
X148568064Y-59647271D01*
X148674271Y-59541064D01*
X148757717Y-59416178D01*
X148815196Y-59277412D01*
X148835240Y-59176645D01*
X148844499Y-59130101D01*
X148844499Y-58979896D01*
X148815197Y-58832591D01*
X148815196Y-58832590D01*
X148815196Y-58832586D01*
X148757717Y-58693820D01*
X148757716Y-58693819D01*
X148757713Y-58693813D01*
X148674271Y-58568934D01*
X148674268Y-58568930D01*
X148568067Y-58462729D01*
X148568063Y-58462726D01*
X148443184Y-58379284D01*
X148443175Y-58379279D01*
X148304412Y-58321802D01*
X148304406Y-58321800D01*
X148157101Y-58292499D01*
X148157099Y-58292499D01*
X148006899Y-58292499D01*
X148006897Y-58292499D01*
X147859591Y-58321800D01*
X147859585Y-58321802D01*
X147720823Y-58379279D01*
X147720493Y-58379456D01*
X147720250Y-58379516D01*
X147715192Y-58381612D01*
X147714881Y-58380861D01*
X147662037Y-58394099D01*
X146619901Y-58394099D01*
X146492229Y-58419494D01*
X146492219Y-58419497D01*
X146371948Y-58469315D01*
X146371938Y-58469320D01*
X146263700Y-58541643D01*
X146263696Y-58541646D01*
X145675245Y-59130099D01*
X145628700Y-59176644D01*
X145582671Y-59222673D01*
X145536642Y-59268701D01*
X145464320Y-59376938D01*
X145464313Y-59376951D01*
X145414498Y-59497217D01*
X145414495Y-59497229D01*
X145389099Y-59624901D01*
X128143499Y-59624901D01*
X128143499Y-52306499D01*
X128163184Y-52239460D01*
X128215988Y-52193705D01*
X128267499Y-52182499D01*
X132923608Y-52182499D01*
X132990647Y-52202184D01*
X133023926Y-52233614D01*
X133032105Y-52244872D01*
X133075789Y-52304999D01*
X133180970Y-52410180D01*
X133214455Y-52471503D01*
X133209471Y-52541195D01*
X133167599Y-52597128D01*
X133136624Y-52614042D01*
X133015794Y-52659110D01*
X132898738Y-52746738D01*
X132811110Y-52863794D01*
X132760010Y-53000794D01*
X132760010Y-53000796D01*
X132753499Y-53061344D01*
X132753499Y-54858653D01*
X132760010Y-54919201D01*
X132760010Y-54919203D01*
X132802389Y-55032822D01*
X132811110Y-55056203D01*
X132898738Y-55173260D01*
X133015795Y-55260888D01*
X133152798Y-55311988D01*
X133180049Y-55314917D01*
X133213344Y-55318498D01*
X133213361Y-55318499D01*
X135010637Y-55318499D01*
X135010653Y-55318498D01*
X135037691Y-55315590D01*
X135071200Y-55311988D01*
X135208203Y-55260888D01*
X135325260Y-55173260D01*
X135412888Y-55056203D01*
X135463988Y-54919200D01*
X135467590Y-54885691D01*
X135470498Y-54858653D01*
X135470499Y-54858636D01*
X135470499Y-53061361D01*
X135470498Y-53061344D01*
X135467156Y-53030269D01*
X135463988Y-53000798D01*
X135412888Y-52863795D01*
X135325260Y-52746738D01*
X135208203Y-52659110D01*
X135208201Y-52659109D01*
X135208203Y-52659109D01*
X135087374Y-52614042D01*
X135031440Y-52572171D01*
X135007024Y-52506706D01*
X135021876Y-52438433D01*
X135043021Y-52410186D01*
X135148205Y-52305003D01*
X135273893Y-52132008D01*
X135370971Y-51941482D01*
X135437048Y-51738115D01*
X135470499Y-51526915D01*
X135470499Y-51313083D01*
X135437048Y-51101883D01*
X135401375Y-50992092D01*
X135370972Y-50898518D01*
X135370971Y-50898515D01*
X135313542Y-50785806D01*
X135273893Y-50707990D01*
X135148205Y-50534995D01*
X135107311Y-50494101D01*
X140969498Y-50494101D01*
X140998800Y-50641406D01*
X140998802Y-50641412D01*
X141056279Y-50780174D01*
X141056456Y-50780505D01*
X141056516Y-50780747D01*
X141058612Y-50785806D01*
X141057861Y-50786116D01*
X141071099Y-50838961D01*
X141071099Y-54929096D01*
X141096495Y-55056768D01*
X141096498Y-55056780D01*
X141146313Y-55177046D01*
X141146320Y-55177059D01*
X141218643Y-55285297D01*
X141218646Y-55285301D01*
X142745713Y-56812367D01*
X142773722Y-56859093D01*
X142774471Y-56858784D01*
X142776559Y-56863825D01*
X142776689Y-56864042D01*
X142776798Y-56864403D01*
X142834279Y-57003175D01*
X142834284Y-57003184D01*
X142917726Y-57128063D01*
X142917729Y-57128067D01*
X143023930Y-57234268D01*
X143023934Y-57234271D01*
X143148813Y-57317713D01*
X143148819Y-57317716D01*
X143148820Y-57317717D01*
X143287586Y-57375196D01*
X143287590Y-57375196D01*
X143287591Y-57375197D01*
X143434896Y-57404499D01*
X143434899Y-57404499D01*
X143585101Y-57404499D01*
X143684203Y-57384785D01*
X143732412Y-57375196D01*
X143871178Y-57317717D01*
X143996064Y-57234271D01*
X144102271Y-57128064D01*
X144185717Y-57003178D01*
X144243196Y-56864412D01*
X144272499Y-56717099D01*
X144272499Y-56566899D01*
X144272499Y-56566896D01*
X144243197Y-56419591D01*
X144243196Y-56419590D01*
X144243196Y-56419586D01*
X144185717Y-56280820D01*
X144185716Y-56280819D01*
X144185713Y-56280813D01*
X144102271Y-56155934D01*
X144102268Y-56155930D01*
X143996067Y-56049729D01*
X143996063Y-56049726D01*
X143871184Y-55966284D01*
X143871175Y-55966279D01*
X143732403Y-55908798D01*
X143732042Y-55908689D01*
X143731825Y-55908559D01*
X143726784Y-55906471D01*
X143727093Y-55905722D01*
X143680367Y-55877713D01*
X143387975Y-55585321D01*
X143375877Y-55563165D01*
X143360352Y-55543257D01*
X143359416Y-55533020D01*
X143354490Y-55523998D01*
X143356290Y-55498818D01*
X143353993Y-55473677D01*
X143358946Y-55461687D01*
X143359474Y-55454306D01*
X143362679Y-55447101D01*
X147065498Y-55447101D01*
X147094800Y-55594406D01*
X147094802Y-55594412D01*
X147152279Y-55733175D01*
X147152284Y-55733184D01*
X147235726Y-55858063D01*
X147235729Y-55858067D01*
X147341930Y-55964268D01*
X147341934Y-55964271D01*
X147466813Y-56047713D01*
X147466822Y-56047718D01*
X147471677Y-56049729D01*
X147605586Y-56105196D01*
X147605590Y-56105196D01*
X147605591Y-56105197D01*
X147752896Y-56134499D01*
X147752899Y-56134499D01*
X147903101Y-56134499D01*
X148002203Y-56114785D01*
X148050412Y-56105196D01*
X148189178Y-56047717D01*
X148189186Y-56047711D01*
X148189505Y-56047542D01*
X148189747Y-56047481D01*
X148194806Y-56045386D01*
X148195116Y-56046136D01*
X148247961Y-56032899D01*
X157915103Y-56032899D01*
X157982142Y-56052584D01*
X157983995Y-56053798D01*
X158007812Y-56069712D01*
X158007814Y-56069713D01*
X158007820Y-56069717D01*
X158146586Y-56127196D01*
X158146590Y-56127196D01*
X158146591Y-56127197D01*
X158293896Y-56156499D01*
X158293899Y-56156499D01*
X158444101Y-56156499D01*
X158554698Y-56134499D01*
X158591412Y-56127196D01*
X158730178Y-56069717D01*
X158855064Y-55986271D01*
X158961271Y-55880064D01*
X159044717Y-55755178D01*
X159102196Y-55616412D01*
X159123892Y-55507340D01*
X159131499Y-55469101D01*
X159131499Y-55318896D01*
X159102197Y-55171591D01*
X159102196Y-55171590D01*
X159102196Y-55171586D01*
X159044717Y-55032820D01*
X159044716Y-55032819D01*
X159044713Y-55032813D01*
X158961271Y-54907934D01*
X158961268Y-54907930D01*
X158855067Y-54801729D01*
X158855063Y-54801726D01*
X158730184Y-54718284D01*
X158730175Y-54718279D01*
X158591412Y-54660802D01*
X158591406Y-54660800D01*
X158444101Y-54631499D01*
X158444099Y-54631499D01*
X158293899Y-54631499D01*
X158293897Y-54631499D01*
X158146591Y-54660800D01*
X158146585Y-54660802D01*
X158074558Y-54690637D01*
X158060926Y-54696284D01*
X158047947Y-54701660D01*
X158000494Y-54711099D01*
X148247961Y-54711099D01*
X148195116Y-54697861D01*
X148194806Y-54698612D01*
X148189747Y-54696516D01*
X148189505Y-54696456D01*
X148189174Y-54696279D01*
X148050412Y-54638802D01*
X148050406Y-54638800D01*
X147903101Y-54609499D01*
X147903099Y-54609499D01*
X147752899Y-54609499D01*
X147752897Y-54609499D01*
X147605591Y-54638800D01*
X147605585Y-54638802D01*
X147466822Y-54696279D01*
X147466813Y-54696284D01*
X147341934Y-54779726D01*
X147341930Y-54779729D01*
X147235729Y-54885930D01*
X147235726Y-54885934D01*
X147152284Y-55010813D01*
X147152279Y-55010822D01*
X147094802Y-55149585D01*
X147094800Y-55149591D01*
X147065499Y-55296896D01*
X147065499Y-55296899D01*
X147065499Y-55447099D01*
X147065499Y-55447101D01*
X147065498Y-55447101D01*
X143362679Y-55447101D01*
X143365673Y-55440372D01*
X143368798Y-55434369D01*
X143423717Y-55352178D01*
X143481196Y-55213412D01*
X143481199Y-55213395D01*
X143481302Y-55213059D01*
X143481430Y-55212845D01*
X143483527Y-55207783D01*
X143484277Y-55208093D01*
X143512282Y-55161368D01*
X144277354Y-54396298D01*
X144349681Y-54288053D01*
X144399501Y-54167776D01*
X144424899Y-54040092D01*
X144424899Y-53909906D01*
X144424899Y-53632961D01*
X144438136Y-53580116D01*
X144437386Y-53579806D01*
X144439481Y-53574747D01*
X144439542Y-53574505D01*
X144439711Y-53574186D01*
X144439717Y-53574178D01*
X144497196Y-53435412D01*
X144526499Y-53288099D01*
X144526499Y-53137899D01*
X144526499Y-53137896D01*
X144497197Y-52990591D01*
X144497196Y-52990590D01*
X144497196Y-52990586D01*
X144439717Y-52851820D01*
X144439716Y-52851819D01*
X144439713Y-52851813D01*
X144356271Y-52726934D01*
X144356268Y-52726930D01*
X144250067Y-52620729D01*
X144250063Y-52620726D01*
X144125184Y-52537284D01*
X144125175Y-52537279D01*
X143986412Y-52479802D01*
X143986406Y-52479800D01*
X143839101Y-52450499D01*
X143839099Y-52450499D01*
X143688899Y-52450499D01*
X143688897Y-52450499D01*
X143541591Y-52479800D01*
X143541585Y-52479802D01*
X143402822Y-52537279D01*
X143402813Y-52537284D01*
X143277934Y-52620726D01*
X143277930Y-52620729D01*
X143171729Y-52726930D01*
X143171726Y-52726934D01*
X143088284Y-52851813D01*
X143088279Y-52851822D01*
X143030802Y-52990585D01*
X143030800Y-52990591D01*
X143001499Y-53137896D01*
X143001499Y-53137899D01*
X143001499Y-53288099D01*
X143001499Y-53288101D01*
X143001498Y-53288101D01*
X143030800Y-53435406D01*
X143030802Y-53435412D01*
X143088279Y-53574174D01*
X143088456Y-53574505D01*
X143088516Y-53574747D01*
X143090612Y-53579806D01*
X143089861Y-53580116D01*
X143091966Y-53588519D01*
X143098076Y-53598026D01*
X143103099Y-53632961D01*
X143103099Y-53649882D01*
X143083414Y-53716921D01*
X143066780Y-53737563D01*
X142604580Y-54199763D01*
X142543257Y-54233248D01*
X142473565Y-54228264D01*
X142417632Y-54186392D01*
X142393215Y-54120928D01*
X142392899Y-54112082D01*
X142392899Y-50838961D01*
X142406136Y-50786116D01*
X142405386Y-50785806D01*
X142407481Y-50780747D01*
X142407542Y-50780505D01*
X142407711Y-50780186D01*
X142407717Y-50780178D01*
X142465196Y-50641412D01*
X142494499Y-50494099D01*
X142494499Y-50343899D01*
X142494499Y-50343896D01*
X142465197Y-50196591D01*
X142465196Y-50196590D01*
X142465196Y-50196586D01*
X142407717Y-50057820D01*
X142407716Y-50057819D01*
X142407713Y-50057813D01*
X142324271Y-49932934D01*
X142324268Y-49932930D01*
X142218067Y-49826729D01*
X142218063Y-49826726D01*
X142093184Y-49743284D01*
X142093175Y-49743279D01*
X141954412Y-49685802D01*
X141954406Y-49685800D01*
X141807101Y-49656499D01*
X141807099Y-49656499D01*
X141656899Y-49656499D01*
X141656897Y-49656499D01*
X141509591Y-49685800D01*
X141509585Y-49685802D01*
X141370822Y-49743279D01*
X141370813Y-49743284D01*
X141245934Y-49826726D01*
X141245930Y-49826729D01*
X141139729Y-49932930D01*
X141139726Y-49932934D01*
X141056284Y-50057813D01*
X141056279Y-50057822D01*
X140998802Y-50196585D01*
X140998800Y-50196591D01*
X140969499Y-50343896D01*
X140969499Y-50343899D01*
X140969499Y-50494099D01*
X140969499Y-50494101D01*
X140969498Y-50494101D01*
X135107311Y-50494101D01*
X134997003Y-50383793D01*
X134824008Y-50258105D01*
X134824004Y-50258102D01*
X134820131Y-50255729D01*
X134773253Y-50203919D01*
X134761828Y-50134990D01*
X134789482Y-50070826D01*
X134820131Y-50044269D01*
X134824004Y-50041895D01*
X134824003Y-50041895D01*
X134824008Y-50041893D01*
X134997003Y-49916205D01*
X135148205Y-49765003D01*
X135273893Y-49592008D01*
X135370971Y-49401482D01*
X135437048Y-49198115D01*
X135470499Y-48986915D01*
X135470499Y-48773083D01*
X135437048Y-48561883D01*
X135370971Y-48358516D01*
X135370971Y-48358515D01*
X135321506Y-48261437D01*
X135273893Y-48167990D01*
X135148205Y-47994995D01*
X134997003Y-47843793D01*
X134824008Y-47718105D01*
X134756416Y-47683665D01*
X134633482Y-47621026D01*
X134633479Y-47621025D01*
X134430116Y-47554950D01*
X134324515Y-47538224D01*
X134218915Y-47521499D01*
X134005083Y-47521499D01*
X133934683Y-47532649D01*
X133793881Y-47554950D01*
X133590518Y-47621025D01*
X133590515Y-47621026D01*
X133399989Y-47718105D01*
X133226992Y-47843795D01*
X133075795Y-47994992D01*
X132950105Y-48167989D01*
X132853026Y-48358515D01*
X132853025Y-48358518D01*
X132786950Y-48561881D01*
X132753499Y-48773083D01*
X132753499Y-48986914D01*
X132786950Y-49198116D01*
X132853025Y-49401479D01*
X132853026Y-49401482D01*
X132928609Y-49549820D01*
X132950105Y-49592008D01*
X133075793Y-49765003D01*
X133226995Y-49916205D01*
X133399990Y-50041893D01*
X133403872Y-50044272D01*
X133450747Y-50096085D01*
X133462168Y-50165015D01*
X133434511Y-50229177D01*
X133403872Y-50255726D01*
X133399990Y-50258104D01*
X133226992Y-50383795D01*
X133075789Y-50534998D01*
X133023927Y-50606383D01*
X132968597Y-50649050D01*
X132923608Y-50657499D01*
X128267499Y-50657499D01*
X128200460Y-50637814D01*
X128154705Y-50585010D01*
X128143499Y-50533499D01*
X128143499Y-47065101D01*
X134812698Y-47065101D01*
X134842000Y-47212406D01*
X134842002Y-47212412D01*
X134899479Y-47351175D01*
X134899484Y-47351184D01*
X134982926Y-47476063D01*
X134982929Y-47476067D01*
X135089130Y-47582268D01*
X135089134Y-47582271D01*
X135214013Y-47665713D01*
X135214022Y-47665718D01*
X135218877Y-47667729D01*
X135352786Y-47723196D01*
X135352790Y-47723196D01*
X135352791Y-47723197D01*
X135500096Y-47752499D01*
X135500099Y-47752499D01*
X135650300Y-47752499D01*
X135683686Y-47745858D01*
X135707878Y-47743475D01*
X142148913Y-47743475D01*
X142148914Y-47743474D01*
X142276595Y-47718077D01*
X142276607Y-47718071D01*
X142282422Y-47716309D01*
X142282449Y-47716399D01*
X142298969Y-47711388D01*
X142333316Y-47704555D01*
X142438338Y-47683665D01*
X142577104Y-47626186D01*
X142701990Y-47542740D01*
X142808197Y-47436533D01*
X142891643Y-47311647D01*
X142949122Y-47172881D01*
X142949123Y-47172874D01*
X142949230Y-47172524D01*
X142949358Y-47172309D01*
X142951453Y-47167253D01*
X142952203Y-47167563D01*
X142980208Y-47120837D01*
X143035944Y-47065101D01*
X146938498Y-47065101D01*
X146967800Y-47212406D01*
X146967802Y-47212412D01*
X147025279Y-47351175D01*
X147025284Y-47351184D01*
X147108726Y-47476063D01*
X147108729Y-47476067D01*
X147214930Y-47582268D01*
X147214934Y-47582271D01*
X147339813Y-47665713D01*
X147339822Y-47665718D01*
X147344677Y-47667729D01*
X147478586Y-47723196D01*
X147478590Y-47723196D01*
X147478591Y-47723197D01*
X147625896Y-47752499D01*
X147625899Y-47752499D01*
X147776101Y-47752499D01*
X147875203Y-47732785D01*
X147923412Y-47723196D01*
X148062178Y-47665717D01*
X148062186Y-47665711D01*
X148062505Y-47665542D01*
X148062747Y-47665481D01*
X148067806Y-47663386D01*
X148068116Y-47664136D01*
X148120961Y-47650899D01*
X148982837Y-47650899D01*
X149035681Y-47664136D01*
X149035992Y-47663386D01*
X149041050Y-47665481D01*
X149041293Y-47665542D01*
X149041614Y-47665713D01*
X149041620Y-47665717D01*
X149180386Y-47723196D01*
X149180390Y-47723196D01*
X149180391Y-47723197D01*
X149327696Y-47752499D01*
X149327699Y-47752499D01*
X149477901Y-47752499D01*
X149577003Y-47732785D01*
X149625212Y-47723196D01*
X149763978Y-47665717D01*
X149888864Y-47582271D01*
X149995071Y-47476064D01*
X150078517Y-47351178D01*
X150135996Y-47212412D01*
X150165299Y-47065099D01*
X150165299Y-46914899D01*
X150165299Y-46914896D01*
X150135997Y-46767591D01*
X150135996Y-46767590D01*
X150135996Y-46767586D01*
X150078517Y-46628820D01*
X150078516Y-46628819D01*
X150078513Y-46628813D01*
X149995071Y-46503934D01*
X149995068Y-46503930D01*
X149888867Y-46397729D01*
X149888863Y-46397726D01*
X149763984Y-46314284D01*
X149763975Y-46314279D01*
X149625212Y-46256802D01*
X149625206Y-46256800D01*
X149477901Y-46227499D01*
X149477899Y-46227499D01*
X149327699Y-46227499D01*
X149327697Y-46227499D01*
X149180391Y-46256800D01*
X149180385Y-46256802D01*
X149041623Y-46314279D01*
X149041293Y-46314456D01*
X149041050Y-46314516D01*
X149035992Y-46316612D01*
X149035681Y-46315861D01*
X148982837Y-46329099D01*
X148120961Y-46329099D01*
X148068116Y-46315861D01*
X148067806Y-46316612D01*
X148062747Y-46314516D01*
X148062505Y-46314456D01*
X148062174Y-46314279D01*
X147923412Y-46256802D01*
X147923406Y-46256800D01*
X147776101Y-46227499D01*
X147776099Y-46227499D01*
X147625899Y-46227499D01*
X147625897Y-46227499D01*
X147478591Y-46256800D01*
X147478585Y-46256802D01*
X147339822Y-46314279D01*
X147339813Y-46314284D01*
X147214934Y-46397726D01*
X147214930Y-46397729D01*
X147108729Y-46503930D01*
X147108726Y-46503934D01*
X147025284Y-46628813D01*
X147025279Y-46628822D01*
X146967802Y-46767585D01*
X146967800Y-46767591D01*
X146938499Y-46914896D01*
X146938499Y-46914899D01*
X146938499Y-47065099D01*
X146938499Y-47065101D01*
X146938498Y-47065101D01*
X143035944Y-47065101D01*
X143311154Y-46789893D01*
X143383481Y-46681648D01*
X143433301Y-46561371D01*
X143458699Y-46433687D01*
X143458699Y-46303501D01*
X143458699Y-43890101D01*
X143946298Y-43890101D01*
X143975600Y-44037406D01*
X143975602Y-44037412D01*
X144033079Y-44176175D01*
X144033084Y-44176184D01*
X144116526Y-44301063D01*
X144116529Y-44301067D01*
X144222730Y-44407268D01*
X144222734Y-44407271D01*
X144347613Y-44490713D01*
X144347626Y-44490720D01*
X144375993Y-44502470D01*
X144430397Y-44546311D01*
X144443102Y-44569578D01*
X144491279Y-44685886D01*
X144491284Y-44685896D01*
X144574726Y-44810775D01*
X144574729Y-44810779D01*
X144680930Y-44916980D01*
X144680934Y-44916983D01*
X144805813Y-45000425D01*
X144805826Y-45000432D01*
X144859309Y-45022585D01*
X144913713Y-45066425D01*
X144926418Y-45089693D01*
X144954234Y-45156846D01*
X144954239Y-45156856D01*
X145037681Y-45281735D01*
X145037684Y-45281739D01*
X145143885Y-45387940D01*
X145143889Y-45387943D01*
X145268768Y-45471385D01*
X145268781Y-45471392D01*
X145338111Y-45500109D01*
X145392515Y-45543949D01*
X145405219Y-45567216D01*
X145426462Y-45618500D01*
X145426470Y-45618515D01*
X145509912Y-45743394D01*
X145509915Y-45743398D01*
X145616116Y-45849599D01*
X145616120Y-45849602D01*
X145740999Y-45933044D01*
X145741005Y-45933047D01*
X145741006Y-45933048D01*
X145879772Y-45990527D01*
X145879776Y-45990527D01*
X145879777Y-45990528D01*
X146027082Y-46019830D01*
X146027085Y-46019830D01*
X146177287Y-46019830D01*
X146276389Y-46000116D01*
X146324598Y-45990527D01*
X146463364Y-45933048D01*
X146588250Y-45849602D01*
X146694457Y-45743395D01*
X146777903Y-45618509D01*
X146835382Y-45479743D01*
X146835385Y-45479724D01*
X146835485Y-45479399D01*
X146835612Y-45479186D01*
X146837713Y-45474115D01*
X146838465Y-45474426D01*
X146866471Y-45427697D01*
X146874964Y-45419205D01*
X146877892Y-45416276D01*
X146907351Y-45386819D01*
X146907352Y-45386817D01*
X146979679Y-45278572D01*
X147029499Y-45158295D01*
X147036808Y-45121551D01*
X147044674Y-45082006D01*
X147054897Y-45030614D01*
X147054897Y-43424344D01*
X156248499Y-43424344D01*
X156248499Y-45221653D01*
X156255010Y-45282201D01*
X156255010Y-45282203D01*
X156306110Y-45419203D01*
X156393738Y-45536260D01*
X156510795Y-45623888D01*
X156616585Y-45663346D01*
X156644800Y-45673870D01*
X156647798Y-45674988D01*
X156675049Y-45677917D01*
X156708344Y-45681498D01*
X156708361Y-45681499D01*
X158505637Y-45681499D01*
X158505653Y-45681498D01*
X158532691Y-45678590D01*
X158566200Y-45674988D01*
X158569198Y-45673870D01*
X158597413Y-45663346D01*
X158703203Y-45623888D01*
X158820260Y-45536260D01*
X158907888Y-45419203D01*
X158952956Y-45298370D01*
X158994826Y-45242441D01*
X159060290Y-45218024D01*
X159128563Y-45232876D01*
X159156817Y-45254027D01*
X159261995Y-45359205D01*
X159434990Y-45484893D01*
X159503430Y-45519765D01*
X159625515Y-45581971D01*
X159625518Y-45581972D01*
X159727199Y-45615009D01*
X159828883Y-45648048D01*
X160040083Y-45681499D01*
X160040084Y-45681499D01*
X160253914Y-45681499D01*
X160253915Y-45681499D01*
X160465115Y-45648048D01*
X160668482Y-45581971D01*
X160859008Y-45484893D01*
X161032003Y-45359205D01*
X161183205Y-45208003D01*
X161308893Y-45035008D01*
X161308895Y-45035003D01*
X161311269Y-45031131D01*
X161363079Y-44984253D01*
X161432008Y-44972828D01*
X161496172Y-45000482D01*
X161522729Y-45031131D01*
X161525102Y-45035004D01*
X161525105Y-45035008D01*
X161650793Y-45208003D01*
X161801995Y-45359205D01*
X161974990Y-45484893D01*
X162043430Y-45519765D01*
X162165515Y-45581971D01*
X162165518Y-45581972D01*
X162267199Y-45615009D01*
X162368883Y-45648048D01*
X162580083Y-45681499D01*
X162580084Y-45681499D01*
X162793914Y-45681499D01*
X162793915Y-45681499D01*
X163005115Y-45648048D01*
X163208482Y-45581971D01*
X163399008Y-45484893D01*
X163572003Y-45359205D01*
X163723205Y-45208003D01*
X163848893Y-45035008D01*
X163945971Y-44844482D01*
X164012048Y-44641115D01*
X164045499Y-44429915D01*
X164045499Y-44216083D01*
X164012048Y-44004883D01*
X163945971Y-43801516D01*
X163945971Y-43801515D01*
X163874755Y-43661747D01*
X163848893Y-43610990D01*
X163723205Y-43437995D01*
X163572003Y-43286793D01*
X163399008Y-43161105D01*
X163208482Y-43064026D01*
X163208479Y-43064025D01*
X163005116Y-42997950D01*
X162899515Y-42981224D01*
X162793915Y-42964499D01*
X162580083Y-42964499D01*
X162509683Y-42975649D01*
X162368881Y-42997950D01*
X162165518Y-43064025D01*
X162165515Y-43064026D01*
X161974989Y-43161105D01*
X161801992Y-43286795D01*
X161650795Y-43437992D01*
X161525104Y-43610990D01*
X161522726Y-43614872D01*
X161470913Y-43661747D01*
X161401983Y-43673168D01*
X161337821Y-43645511D01*
X161311272Y-43614872D01*
X161308893Y-43610990D01*
X161295521Y-43592585D01*
X161183205Y-43437995D01*
X161032003Y-43286793D01*
X160859008Y-43161105D01*
X160668482Y-43064026D01*
X160668479Y-43064025D01*
X160465116Y-42997950D01*
X160359515Y-42981224D01*
X160253915Y-42964499D01*
X160040083Y-42964499D01*
X159969683Y-42975649D01*
X159828881Y-42997950D01*
X159625518Y-43064025D01*
X159625515Y-43064026D01*
X159434989Y-43161105D01*
X159261996Y-43286792D01*
X159156817Y-43391971D01*
X159095494Y-43425455D01*
X159025802Y-43420471D01*
X158969869Y-43378599D01*
X158952957Y-43347628D01*
X158907888Y-43226795D01*
X158820260Y-43109738D01*
X158703203Y-43022110D01*
X158566202Y-42971010D01*
X158505653Y-42964499D01*
X158505637Y-42964499D01*
X156708361Y-42964499D01*
X156708344Y-42964499D01*
X156647796Y-42971010D01*
X156647794Y-42971010D01*
X156510794Y-43022110D01*
X156393738Y-43109738D01*
X156306110Y-43226794D01*
X156255010Y-43363794D01*
X156255010Y-43363796D01*
X156248499Y-43424344D01*
X147054897Y-43424344D01*
X147054897Y-33714999D01*
X147072501Y-33655043D01*
X147071058Y-33654272D01*
X147073921Y-33648912D01*
X147073927Y-33648905D01*
X147131406Y-33510139D01*
X147160709Y-33362826D01*
X147160709Y-33212626D01*
X147160709Y-33212623D01*
X147131407Y-33065318D01*
X147131406Y-33065317D01*
X147131406Y-33065313D01*
X147077730Y-32935729D01*
X147073928Y-32926549D01*
X147073923Y-32926540D01*
X146990481Y-32801661D01*
X146990478Y-32801657D01*
X146884277Y-32695456D01*
X146884273Y-32695453D01*
X146759394Y-32612011D01*
X146759385Y-32612006D01*
X146620622Y-32554529D01*
X146620616Y-32554527D01*
X146473311Y-32525226D01*
X146473309Y-32525226D01*
X146323109Y-32525226D01*
X146323107Y-32525226D01*
X146175801Y-32554527D01*
X146175791Y-32554530D01*
X146107749Y-32582714D01*
X146038279Y-32590183D01*
X145975800Y-32558907D01*
X145940149Y-32498818D01*
X145936297Y-32468153D01*
X145936297Y-31571101D01*
X156209498Y-31571101D01*
X156238800Y-31718406D01*
X156238802Y-31718412D01*
X156296279Y-31857174D01*
X156296456Y-31857505D01*
X156296516Y-31857747D01*
X156298612Y-31862806D01*
X156297861Y-31863116D01*
X156311099Y-31915961D01*
X156311099Y-34124036D01*
X156297863Y-34176881D01*
X156298612Y-34177192D01*
X156296521Y-34182239D01*
X156296460Y-34182484D01*
X156296282Y-34182816D01*
X156238802Y-34321585D01*
X156238800Y-34321591D01*
X156209499Y-34468896D01*
X156209499Y-34468899D01*
X156209499Y-34619099D01*
X156209499Y-34619101D01*
X156209498Y-34619101D01*
X156238800Y-34766406D01*
X156238802Y-34766412D01*
X156296279Y-34905175D01*
X156296284Y-34905184D01*
X156379726Y-35030063D01*
X156379729Y-35030067D01*
X156485930Y-35136268D01*
X156485934Y-35136271D01*
X156610813Y-35219713D01*
X156610822Y-35219718D01*
X156615677Y-35221729D01*
X156749586Y-35277196D01*
X156749590Y-35277196D01*
X156749591Y-35277197D01*
X156896896Y-35306499D01*
X156896899Y-35306499D01*
X157047101Y-35306499D01*
X157146203Y-35286785D01*
X157194412Y-35277196D01*
X157333178Y-35219717D01*
X157458064Y-35136271D01*
X157564271Y-35030064D01*
X157647717Y-34905178D01*
X157705196Y-34766412D01*
X157734499Y-34619099D01*
X157734499Y-34468899D01*
X157734499Y-34468896D01*
X157705197Y-34321591D01*
X157705196Y-34321590D01*
X157705196Y-34321586D01*
X157647717Y-34182820D01*
X157647716Y-34182818D01*
X157647715Y-34182816D01*
X157647538Y-34182484D01*
X157647476Y-34182239D01*
X157645386Y-34177192D01*
X157646134Y-34176881D01*
X157632899Y-34124036D01*
X157632899Y-31915961D01*
X157646136Y-31863116D01*
X157645386Y-31862806D01*
X157647481Y-31857747D01*
X157647542Y-31857505D01*
X157647711Y-31857186D01*
X157647717Y-31857178D01*
X157705196Y-31718412D01*
X157714785Y-31670203D01*
X157734499Y-31571101D01*
X157734499Y-31420896D01*
X157705197Y-31273591D01*
X157705196Y-31273590D01*
X157705196Y-31273586D01*
X157647717Y-31134820D01*
X157647716Y-31134819D01*
X157647713Y-31134813D01*
X157564271Y-31009934D01*
X157564268Y-31009930D01*
X157458067Y-30903729D01*
X157458063Y-30903726D01*
X157333184Y-30820284D01*
X157333175Y-30820279D01*
X157194412Y-30762802D01*
X157194406Y-30762800D01*
X157047101Y-30733499D01*
X157047099Y-30733499D01*
X156896899Y-30733499D01*
X156896897Y-30733499D01*
X156749591Y-30762800D01*
X156749585Y-30762802D01*
X156610822Y-30820279D01*
X156610813Y-30820284D01*
X156485934Y-30903726D01*
X156485930Y-30903729D01*
X156379729Y-31009930D01*
X156379726Y-31009934D01*
X156296284Y-31134813D01*
X156296279Y-31134822D01*
X156238802Y-31273585D01*
X156238800Y-31273591D01*
X156209499Y-31420896D01*
X156209499Y-31420899D01*
X156209499Y-31571099D01*
X156209499Y-31571101D01*
X156209498Y-31571101D01*
X145936297Y-31571101D01*
X145936297Y-26534453D01*
X158876499Y-26534453D01*
X158876499Y-26805544D01*
X158906847Y-27074897D01*
X158906849Y-27074909D01*
X158906850Y-27074912D01*
X158908602Y-27082586D01*
X158967170Y-27339193D01*
X158967171Y-27339195D01*
X159056702Y-27595062D01*
X159174317Y-27839291D01*
X159174319Y-27839294D01*
X159318541Y-28068823D01*
X159487556Y-28280761D01*
X159679237Y-28472442D01*
X159891175Y-28641457D01*
X160120704Y-28785679D01*
X160364937Y-28903296D01*
X160620804Y-28992827D01*
X160885086Y-29053148D01*
X160885095Y-29053149D01*
X160885100Y-29053150D01*
X161064668Y-29073382D01*
X161154454Y-29083498D01*
X161154457Y-29083499D01*
X161154460Y-29083499D01*
X161425541Y-29083499D01*
X161425542Y-29083498D01*
X161563205Y-29067987D01*
X161694897Y-29053150D01*
X161694900Y-29053149D01*
X161694912Y-29053148D01*
X161959194Y-28992827D01*
X162215061Y-28903296D01*
X162459294Y-28785679D01*
X162688823Y-28641457D01*
X162900761Y-28472442D01*
X163092442Y-28280761D01*
X163261457Y-28068823D01*
X163405679Y-27839294D01*
X163523296Y-27595061D01*
X163612827Y-27339194D01*
X163673148Y-27074912D01*
X163703499Y-26805538D01*
X163703499Y-26534460D01*
X163680657Y-26331727D01*
X163673150Y-26265100D01*
X163673149Y-26265095D01*
X163673148Y-26265086D01*
X163612827Y-26000804D01*
X163523296Y-25744937D01*
X163405679Y-25500704D01*
X163261457Y-25271175D01*
X163092442Y-25059237D01*
X162900761Y-24867556D01*
X162688823Y-24698541D01*
X162459294Y-24554319D01*
X162459291Y-24554317D01*
X162215062Y-24436702D01*
X161959195Y-24347171D01*
X161959193Y-24347170D01*
X161746830Y-24298700D01*
X161694912Y-24286850D01*
X161694909Y-24286849D01*
X161694897Y-24286847D01*
X161425544Y-24256499D01*
X161425538Y-24256499D01*
X161154460Y-24256499D01*
X161154453Y-24256499D01*
X160885100Y-24286847D01*
X160885086Y-24286850D01*
X160620804Y-24347170D01*
X160620802Y-24347171D01*
X160364935Y-24436702D01*
X160120706Y-24554317D01*
X159891176Y-24698540D01*
X159679237Y-24867555D01*
X159487555Y-25059237D01*
X159318540Y-25271176D01*
X159174317Y-25500706D01*
X159056702Y-25744935D01*
X158967171Y-26000802D01*
X158967170Y-26000804D01*
X158906850Y-26265086D01*
X158906847Y-26265100D01*
X158876499Y-26534453D01*
X145936297Y-26534453D01*
X145936297Y-26220830D01*
X145955982Y-26153791D01*
X145957197Y-26151936D01*
X145958425Y-26150097D01*
X145963717Y-26142178D01*
X146021196Y-26003412D01*
X146030785Y-25955203D01*
X146050499Y-25856101D01*
X146050499Y-25705896D01*
X146021197Y-25558591D01*
X146021196Y-25558590D01*
X146021196Y-25558586D01*
X145963717Y-25419820D01*
X145963716Y-25419819D01*
X145963713Y-25419813D01*
X145880271Y-25294934D01*
X145880268Y-25294930D01*
X145774067Y-25188729D01*
X145774063Y-25188726D01*
X145649184Y-25105284D01*
X145649175Y-25105279D01*
X145510412Y-25047802D01*
X145510406Y-25047800D01*
X145363101Y-25018499D01*
X145363099Y-25018499D01*
X145212899Y-25018499D01*
X145212897Y-25018499D01*
X145065591Y-25047800D01*
X145065585Y-25047802D01*
X144926822Y-25105279D01*
X144926813Y-25105284D01*
X144801934Y-25188726D01*
X144801930Y-25188729D01*
X144695729Y-25294930D01*
X144695726Y-25294934D01*
X144612284Y-25419813D01*
X144612279Y-25419822D01*
X144554802Y-25558585D01*
X144554800Y-25558591D01*
X144525499Y-25705896D01*
X144525499Y-25705899D01*
X144525499Y-25856099D01*
X144525499Y-25856101D01*
X144525498Y-25856101D01*
X144554800Y-26003406D01*
X144554802Y-26003412D01*
X144605058Y-26124740D01*
X144614497Y-26172193D01*
X144614497Y-34336300D01*
X144594812Y-34403339D01*
X144542008Y-34449094D01*
X144514692Y-34457917D01*
X144493185Y-34462195D01*
X144354420Y-34519673D01*
X144354411Y-34519678D01*
X144229532Y-34603120D01*
X144229528Y-34603123D01*
X144123327Y-34709324D01*
X144123324Y-34709328D01*
X144039882Y-34834207D01*
X144039877Y-34834216D01*
X143982400Y-34972979D01*
X143982398Y-34972985D01*
X143953097Y-35120290D01*
X143953097Y-35120293D01*
X143953097Y-35270493D01*
X143953097Y-35270495D01*
X143953096Y-35270495D01*
X143982398Y-35417800D01*
X143982400Y-35417806D01*
X144038460Y-35553147D01*
X144047899Y-35600598D01*
X144047899Y-43395036D01*
X144034663Y-43447881D01*
X144035412Y-43448192D01*
X144033321Y-43453239D01*
X144033260Y-43453484D01*
X144033082Y-43453816D01*
X143975602Y-43592585D01*
X143975600Y-43592591D01*
X143946299Y-43739896D01*
X143946299Y-43739899D01*
X143946299Y-43890099D01*
X143946299Y-43890101D01*
X143946298Y-43890101D01*
X143458699Y-43890101D01*
X143458699Y-28730508D01*
X143478384Y-28663469D01*
X143479597Y-28661617D01*
X143550713Y-28555184D01*
X143550713Y-28555183D01*
X143550717Y-28555178D01*
X143608196Y-28416412D01*
X143634831Y-28282512D01*
X143637499Y-28269101D01*
X143637499Y-28118896D01*
X143608197Y-27971591D01*
X143608196Y-27971590D01*
X143608196Y-27971586D01*
X143553399Y-27839294D01*
X143550718Y-27832822D01*
X143550713Y-27832813D01*
X143467271Y-27707934D01*
X143467268Y-27707930D01*
X143361067Y-27601729D01*
X143361063Y-27601726D01*
X143236184Y-27518284D01*
X143236175Y-27518279D01*
X143097412Y-27460802D01*
X143097406Y-27460800D01*
X142950101Y-27431499D01*
X142950099Y-27431499D01*
X142799899Y-27431499D01*
X142799897Y-27431499D01*
X142652591Y-27460800D01*
X142652581Y-27460803D01*
X142511551Y-27519220D01*
X142442082Y-27526689D01*
X142379603Y-27495414D01*
X142343951Y-27435325D01*
X142340099Y-27404659D01*
X142340099Y-26595257D01*
X142342482Y-26571065D01*
X142367499Y-26445301D01*
X142367499Y-26295096D01*
X142338197Y-26147791D01*
X142338196Y-26147790D01*
X142338196Y-26147786D01*
X142280717Y-26009020D01*
X142280716Y-26009019D01*
X142280713Y-26009013D01*
X142197271Y-25884134D01*
X142197268Y-25884130D01*
X142091067Y-25777929D01*
X142091063Y-25777926D01*
X141966184Y-25694484D01*
X141966175Y-25694479D01*
X141827412Y-25637002D01*
X141827406Y-25637000D01*
X141680101Y-25607699D01*
X141680099Y-25607699D01*
X141529899Y-25607699D01*
X141529897Y-25607699D01*
X141382591Y-25637000D01*
X141382585Y-25637002D01*
X141243822Y-25694479D01*
X141243813Y-25694484D01*
X141118934Y-25777926D01*
X141118930Y-25777929D01*
X141012729Y-25884130D01*
X141012726Y-25884134D01*
X140929284Y-26009013D01*
X140929279Y-26009022D01*
X140871802Y-26147785D01*
X140871800Y-26147791D01*
X140842499Y-26295096D01*
X140842499Y-26295099D01*
X140842499Y-26445299D01*
X140842499Y-26445301D01*
X140842498Y-26445301D01*
X140871800Y-26592606D01*
X140871802Y-26592612D01*
X140929279Y-26731375D01*
X140929284Y-26731384D01*
X140997401Y-26833327D01*
X141018279Y-26900004D01*
X141018299Y-26902218D01*
X141018299Y-33722682D01*
X140998614Y-33789721D01*
X140945810Y-33835476D01*
X140876652Y-33845420D01*
X140846846Y-33837243D01*
X140783010Y-33810801D01*
X140783011Y-33810801D01*
X140762504Y-33806722D01*
X140700594Y-33774335D01*
X140666022Y-33713618D01*
X140662699Y-33685105D01*
X140662699Y-30133828D01*
X140674794Y-30085558D01*
X140672977Y-30084806D01*
X140683965Y-30058279D01*
X140732787Y-29940412D01*
X140762090Y-29793099D01*
X140762090Y-29642899D01*
X140762090Y-29642896D01*
X140732788Y-29495591D01*
X140732787Y-29495590D01*
X140732787Y-29495586D01*
X140675308Y-29356820D01*
X140675307Y-29356819D01*
X140675304Y-29356813D01*
X140591862Y-29231934D01*
X140591859Y-29231930D01*
X140485658Y-29125729D01*
X140485654Y-29125726D01*
X140360775Y-29042284D01*
X140360766Y-29042279D01*
X140222001Y-28984801D01*
X140222002Y-28984801D01*
X140201495Y-28980722D01*
X140139585Y-28948335D01*
X140105013Y-28887618D01*
X140101690Y-28859105D01*
X140101690Y-27352765D01*
X140119809Y-27291058D01*
X140118848Y-27290545D01*
X140121315Y-27285929D01*
X140121375Y-27285726D01*
X140121641Y-27285319D01*
X140121711Y-27285185D01*
X140121717Y-27285178D01*
X140179196Y-27146412D01*
X140208499Y-26999099D01*
X140208499Y-26848899D01*
X140208499Y-26848896D01*
X140179197Y-26701591D01*
X140179196Y-26701590D01*
X140179196Y-26701586D01*
X140121717Y-26562820D01*
X140121716Y-26562819D01*
X140121713Y-26562813D01*
X140038271Y-26437934D01*
X140038268Y-26437930D01*
X139932067Y-26331729D01*
X139932063Y-26331726D01*
X139807184Y-26248284D01*
X139807175Y-26248279D01*
X139668412Y-26190802D01*
X139668406Y-26190800D01*
X139521101Y-26161499D01*
X139521099Y-26161499D01*
X139370899Y-26161499D01*
X139370897Y-26161499D01*
X139223591Y-26190800D01*
X139223585Y-26190802D01*
X139084822Y-26248279D01*
X139084813Y-26248284D01*
X138959934Y-26331726D01*
X138959930Y-26331729D01*
X138853729Y-26437930D01*
X138853726Y-26437934D01*
X138770284Y-26562813D01*
X138770279Y-26562822D01*
X138712802Y-26701585D01*
X138712800Y-26701591D01*
X138683499Y-26848896D01*
X138683499Y-26848899D01*
X138683499Y-26999099D01*
X138683499Y-26999101D01*
X138683498Y-26999101D01*
X138712800Y-27146406D01*
X138712802Y-27146412D01*
X138770281Y-27285178D01*
X138770282Y-27285180D01*
X138770451Y-27285587D01*
X138779890Y-27333040D01*
X138779890Y-36352064D01*
X138773954Y-36372276D01*
X138772827Y-36393317D01*
X138764307Y-36405131D01*
X138760205Y-36419103D01*
X138744284Y-36432898D01*
X138731960Y-36449989D01*
X138718406Y-36455321D01*
X138707401Y-36464858D01*
X138686549Y-36467856D01*
X138666942Y-36475571D01*
X138642143Y-36474241D01*
X138638243Y-36474802D01*
X138631698Y-36473681D01*
X138525307Y-36452518D01*
X138463396Y-36420133D01*
X138428822Y-36359417D01*
X138425499Y-36330901D01*
X138425499Y-28606311D01*
X138434937Y-28558860D01*
X138488386Y-28429825D01*
X138517689Y-28282512D01*
X138517689Y-28132312D01*
X138517689Y-28132309D01*
X138488387Y-27985004D01*
X138488386Y-27985003D01*
X138488386Y-27984999D01*
X138430907Y-27846233D01*
X138430906Y-27846232D01*
X138430903Y-27846226D01*
X138347461Y-27721347D01*
X138347458Y-27721343D01*
X138241257Y-27615142D01*
X138241253Y-27615139D01*
X138116374Y-27531697D01*
X138116365Y-27531692D01*
X137977602Y-27474215D01*
X137977596Y-27474213D01*
X137830291Y-27444912D01*
X137830289Y-27444912D01*
X137680089Y-27444912D01*
X137680087Y-27444912D01*
X137532781Y-27474213D01*
X137532775Y-27474215D01*
X137394012Y-27531692D01*
X137394003Y-27531697D01*
X137269124Y-27615139D01*
X137269120Y-27615142D01*
X137162919Y-27721343D01*
X137162916Y-27721347D01*
X137079474Y-27846226D01*
X137079469Y-27846235D01*
X137021992Y-27984998D01*
X137021990Y-27985004D01*
X136992689Y-28132309D01*
X136992689Y-28132312D01*
X136992689Y-28282512D01*
X136992689Y-28282514D01*
X136992688Y-28282514D01*
X137021990Y-28429819D01*
X137021992Y-28429825D01*
X137079468Y-28568586D01*
X137079470Y-28568589D01*
X137079471Y-28568591D01*
X137082801Y-28573575D01*
X137103679Y-28640251D01*
X137103699Y-28642465D01*
X137103699Y-30332683D01*
X137097460Y-30353928D01*
X137095881Y-30376017D01*
X137087808Y-30386800D01*
X137084014Y-30399722D01*
X137067280Y-30414221D01*
X137054009Y-30431950D01*
X137041388Y-30436657D01*
X137031210Y-30445477D01*
X137009292Y-30448628D01*
X136988545Y-30456367D01*
X136975384Y-30453504D01*
X136962052Y-30455421D01*
X136941908Y-30446221D01*
X136920272Y-30441515D01*
X136902546Y-30428246D01*
X136898496Y-30426396D01*
X136892018Y-30420364D01*
X136819296Y-30347642D01*
X136692298Y-30220644D01*
X136692297Y-30220643D01*
X136692296Y-30220642D01*
X136584059Y-30148320D01*
X136584046Y-30148313D01*
X136463780Y-30098498D01*
X136463768Y-30098495D01*
X136336095Y-30073099D01*
X136336092Y-30073099D01*
X136182961Y-30073099D01*
X136130116Y-30059861D01*
X136129806Y-30060612D01*
X136124747Y-30058516D01*
X136124505Y-30058456D01*
X136124174Y-30058279D01*
X135985412Y-30000802D01*
X135985406Y-30000800D01*
X135838101Y-29971499D01*
X135838099Y-29971499D01*
X135687899Y-29971499D01*
X135687897Y-29971499D01*
X135540591Y-30000800D01*
X135540585Y-30000802D01*
X135401822Y-30058279D01*
X135401813Y-30058284D01*
X135276934Y-30141726D01*
X135276930Y-30141729D01*
X135170729Y-30247930D01*
X135170726Y-30247934D01*
X135087284Y-30372813D01*
X135087279Y-30372822D01*
X135029802Y-30511585D01*
X135029800Y-30511591D01*
X135000499Y-30658896D01*
X135000499Y-30658899D01*
X135000499Y-30809099D01*
X135000499Y-30809101D01*
X135000498Y-30809101D01*
X135029800Y-30956406D01*
X135029802Y-30956412D01*
X135087279Y-31095175D01*
X135087284Y-31095184D01*
X135170726Y-31220063D01*
X135170729Y-31220067D01*
X135276930Y-31326268D01*
X135276934Y-31326271D01*
X135401813Y-31409713D01*
X135401819Y-31409716D01*
X135401820Y-31409717D01*
X135540586Y-31467196D01*
X135540590Y-31467196D01*
X135540591Y-31467197D01*
X135687896Y-31496499D01*
X135687899Y-31496499D01*
X135838101Y-31496499D01*
X135844164Y-31495902D01*
X135844311Y-31497401D01*
X135906485Y-31502958D01*
X135961668Y-31545814D01*
X135984920Y-31611701D01*
X135985099Y-31618353D01*
X135985099Y-34941141D01*
X135965414Y-35008180D01*
X135912610Y-35053935D01*
X135885292Y-35062758D01*
X135794590Y-35080800D01*
X135794585Y-35080802D01*
X135655822Y-35138279D01*
X135655813Y-35138284D01*
X135530934Y-35221726D01*
X135530930Y-35221729D01*
X135424729Y-35327930D01*
X135424726Y-35327934D01*
X135341284Y-35452813D01*
X135341279Y-35452822D01*
X135283802Y-35591585D01*
X135283800Y-35591591D01*
X135254499Y-35738896D01*
X135254499Y-35738899D01*
X135254499Y-35889099D01*
X135254499Y-35889101D01*
X135254498Y-35889101D01*
X135283800Y-36036406D01*
X135283802Y-36036412D01*
X135341279Y-36175174D01*
X135341456Y-36175505D01*
X135341516Y-36175747D01*
X135343612Y-36180806D01*
X135342861Y-36181116D01*
X135356099Y-36233961D01*
X135356099Y-45590654D01*
X135381495Y-45718326D01*
X135381498Y-45718338D01*
X135431315Y-45838607D01*
X135431317Y-45838611D01*
X135436202Y-45845922D01*
X135436962Y-45847059D01*
X135457839Y-45913736D01*
X135439354Y-45981116D01*
X135436961Y-45984840D01*
X135353199Y-46110197D01*
X135353196Y-46110203D01*
X135299636Y-46239507D01*
X135255794Y-46293910D01*
X135232532Y-46306612D01*
X135214023Y-46314279D01*
X135089131Y-46397728D01*
X134982929Y-46503930D01*
X134982926Y-46503934D01*
X134899484Y-46628813D01*
X134899479Y-46628822D01*
X134842002Y-46767585D01*
X134842000Y-46767591D01*
X134812699Y-46914896D01*
X134812699Y-46914899D01*
X134812699Y-47065099D01*
X134812699Y-47065101D01*
X134812698Y-47065101D01*
X128143499Y-47065101D01*
X128143499Y-39294896D01*
X128114197Y-39147591D01*
X128114196Y-39147590D01*
X128114196Y-39147586D01*
X128056717Y-39008820D01*
X128046479Y-38993497D01*
X127973272Y-38883934D01*
X127973270Y-38883932D01*
X127973268Y-38883929D01*
X126978068Y-37888729D01*
X126939454Y-37862928D01*
X126853178Y-37805281D01*
X126853173Y-37805279D01*
X126714412Y-37747802D01*
X126714406Y-37747800D01*
X126567101Y-37718499D01*
X126567099Y-37718499D01*
X121590899Y-37718499D01*
X121590897Y-37718499D01*
X121443591Y-37747800D01*
X121443585Y-37747802D01*
X121304822Y-37805279D01*
X121304808Y-37805287D01*
X121249789Y-37842050D01*
X121183112Y-37862928D01*
X121115732Y-37844443D01*
X121069042Y-37792464D01*
X121056899Y-37738948D01*
X121056899Y-37249961D01*
X121070136Y-37197116D01*
X121069386Y-37196806D01*
X121071481Y-37191747D01*
X121071542Y-37191505D01*
X121071711Y-37191186D01*
X121071717Y-37191178D01*
X121129196Y-37052412D01*
X121158499Y-36905099D01*
X121158499Y-36754899D01*
X121158499Y-36754896D01*
X121129197Y-36607591D01*
X121129196Y-36607590D01*
X121129196Y-36607586D01*
X121084738Y-36500257D01*
X121071718Y-36468822D01*
X121071713Y-36468813D01*
X120988271Y-36343934D01*
X120988268Y-36343930D01*
X120882067Y-36237729D01*
X120882063Y-36237726D01*
X120757184Y-36154284D01*
X120757175Y-36154279D01*
X120618412Y-36096802D01*
X120618406Y-36096800D01*
X120471101Y-36067499D01*
X120471099Y-36067499D01*
X120320899Y-36067499D01*
X120320897Y-36067499D01*
X120173591Y-36096800D01*
X120173585Y-36096802D01*
X120034822Y-36154279D01*
X120034813Y-36154284D01*
X119909934Y-36237726D01*
X119909930Y-36237729D01*
X119803729Y-36343930D01*
X119803726Y-36343934D01*
X119720284Y-36468813D01*
X119720279Y-36468822D01*
X119662802Y-36607585D01*
X119662800Y-36607591D01*
X119633499Y-36754896D01*
X119633499Y-36754899D01*
X119633499Y-36905099D01*
X119633499Y-36905101D01*
X119633498Y-36905101D01*
X114681499Y-36905101D01*
X114681499Y-33514099D01*
X115404500Y-33514099D01*
X115433802Y-33661404D01*
X115433804Y-33661410D01*
X115491281Y-33800173D01*
X115491286Y-33800182D01*
X115574728Y-33925061D01*
X115574731Y-33925065D01*
X115680932Y-34031266D01*
X115680936Y-34031269D01*
X115805815Y-34114711D01*
X115805821Y-34114714D01*
X115805822Y-34114715D01*
X115944588Y-34172194D01*
X115944592Y-34172194D01*
X115944593Y-34172195D01*
X116091898Y-34201497D01*
X116091901Y-34201497D01*
X116242102Y-34201497D01*
X116293455Y-34191282D01*
X116317647Y-34188899D01*
X116321097Y-34188899D01*
X123659037Y-34188899D01*
X123711881Y-34202136D01*
X123712192Y-34201386D01*
X123717250Y-34203481D01*
X123717493Y-34203542D01*
X123717814Y-34203713D01*
X123717820Y-34203717D01*
X123856586Y-34261196D01*
X123856590Y-34261196D01*
X123856591Y-34261197D01*
X124003896Y-34290499D01*
X124003899Y-34290499D01*
X124154101Y-34290499D01*
X124253203Y-34270785D01*
X124301412Y-34261196D01*
X124440178Y-34203717D01*
X124565064Y-34120271D01*
X124671271Y-34014064D01*
X124754717Y-33889178D01*
X124812196Y-33750412D01*
X124829901Y-33661404D01*
X124841499Y-33603101D01*
X124841499Y-33452896D01*
X124812197Y-33305591D01*
X124812196Y-33305590D01*
X124812196Y-33305586D01*
X124754717Y-33166820D01*
X124754716Y-33166819D01*
X124754713Y-33166813D01*
X124671271Y-33041934D01*
X124671268Y-33041930D01*
X124565067Y-32935729D01*
X124565063Y-32935726D01*
X124440184Y-32852284D01*
X124440175Y-32852279D01*
X124301412Y-32794802D01*
X124301406Y-32794800D01*
X124154101Y-32765499D01*
X124154099Y-32765499D01*
X124003899Y-32765499D01*
X124003897Y-32765499D01*
X123856591Y-32794800D01*
X123856585Y-32794802D01*
X123717823Y-32852279D01*
X123717493Y-32852456D01*
X123717250Y-32852516D01*
X123712192Y-32854612D01*
X123711881Y-32853861D01*
X123659037Y-32867099D01*
X116721173Y-32867099D01*
X116654134Y-32847414D01*
X116652282Y-32846201D01*
X116528186Y-32763282D01*
X116528177Y-32763277D01*
X116389414Y-32705800D01*
X116389408Y-32705798D01*
X116242103Y-32676497D01*
X116242101Y-32676497D01*
X116091901Y-32676497D01*
X116091899Y-32676497D01*
X115944593Y-32705798D01*
X115944587Y-32705800D01*
X115805824Y-32763277D01*
X115805815Y-32763282D01*
X115680936Y-32846724D01*
X115680932Y-32846727D01*
X115574731Y-32952928D01*
X115574728Y-32952932D01*
X115491286Y-33077811D01*
X115491281Y-33077820D01*
X115433804Y-33216583D01*
X115433802Y-33216589D01*
X115404501Y-33363894D01*
X115404501Y-33363897D01*
X115404501Y-33514097D01*
X115404501Y-33514099D01*
X115404500Y-33514099D01*
X114681499Y-33514099D01*
X114681499Y-26673049D01*
X114681648Y-26666965D01*
X114686764Y-26562820D01*
X114688158Y-26534453D01*
X115696499Y-26534453D01*
X115696499Y-26805544D01*
X115726847Y-27074897D01*
X115726849Y-27074909D01*
X115726850Y-27074912D01*
X115728602Y-27082586D01*
X115787170Y-27339193D01*
X115787171Y-27339195D01*
X115876702Y-27595062D01*
X115994317Y-27839291D01*
X115994319Y-27839294D01*
X116138541Y-28068823D01*
X116307556Y-28280761D01*
X116499237Y-28472442D01*
X116711175Y-28641457D01*
X116940704Y-28785679D01*
X117184937Y-28903296D01*
X117440804Y-28992827D01*
X117705086Y-29053148D01*
X117705095Y-29053149D01*
X117705100Y-29053150D01*
X117884668Y-29073382D01*
X117974454Y-29083498D01*
X117974457Y-29083499D01*
X117974460Y-29083499D01*
X118245541Y-29083499D01*
X118245542Y-29083498D01*
X118383205Y-29067987D01*
X118514897Y-29053150D01*
X118514900Y-29053149D01*
X118514912Y-29053148D01*
X118779194Y-28992827D01*
X119035061Y-28903296D01*
X119279294Y-28785679D01*
X119508823Y-28641457D01*
X119720761Y-28472442D01*
X119912442Y-28280761D01*
X120081457Y-28068823D01*
X120225679Y-27839294D01*
X120343296Y-27595061D01*
X120432827Y-27339194D01*
X120493148Y-27074912D01*
X120523499Y-26805538D01*
X120523499Y-26534460D01*
X120500657Y-26331727D01*
X120493150Y-26265100D01*
X120493149Y-26265095D01*
X120493148Y-26265086D01*
X120432827Y-26000804D01*
X120343296Y-25744937D01*
X120225679Y-25500704D01*
X120209592Y-25475101D01*
X132460498Y-25475101D01*
X132489800Y-25622406D01*
X132489802Y-25622412D01*
X132547279Y-25761174D01*
X132547456Y-25761505D01*
X132547516Y-25761747D01*
X132549612Y-25766806D01*
X132548861Y-25767116D01*
X132562099Y-25819961D01*
X132562099Y-26885036D01*
X132548863Y-26937881D01*
X132549612Y-26938192D01*
X132547521Y-26943239D01*
X132547460Y-26943484D01*
X132547282Y-26943816D01*
X132489802Y-27082585D01*
X132489800Y-27082591D01*
X132460499Y-27229896D01*
X132460499Y-27229899D01*
X132460499Y-27380099D01*
X132460499Y-27380101D01*
X132460498Y-27380101D01*
X132489800Y-27527406D01*
X132489802Y-27527412D01*
X132547279Y-27666175D01*
X132547284Y-27666184D01*
X132630726Y-27791063D01*
X132630729Y-27791067D01*
X132736930Y-27897268D01*
X132736934Y-27897271D01*
X132861813Y-27980713D01*
X132861822Y-27980718D01*
X132893257Y-27993738D01*
X133000586Y-28038196D01*
X133000590Y-28038196D01*
X133000591Y-28038197D01*
X133147896Y-28067499D01*
X133147899Y-28067499D01*
X133298101Y-28067499D01*
X133397203Y-28047785D01*
X133445412Y-28038196D01*
X133584178Y-27980717D01*
X133709064Y-27897271D01*
X133815271Y-27791064D01*
X133898717Y-27666178D01*
X133956196Y-27527412D01*
X133985499Y-27380099D01*
X133985499Y-27229899D01*
X133985499Y-27229896D01*
X133956197Y-27082591D01*
X133956196Y-27082590D01*
X133956196Y-27082586D01*
X133898717Y-26943820D01*
X133898716Y-26943818D01*
X133898715Y-26943816D01*
X133898538Y-26943484D01*
X133898476Y-26943239D01*
X133896386Y-26938192D01*
X133897134Y-26937881D01*
X133883899Y-26885036D01*
X133883899Y-25819961D01*
X133897136Y-25767116D01*
X133896386Y-25766806D01*
X133898481Y-25761747D01*
X133898542Y-25761505D01*
X133898711Y-25761186D01*
X133898717Y-25761178D01*
X133956196Y-25622412D01*
X133968892Y-25558585D01*
X133985499Y-25475101D01*
X133985499Y-25324896D01*
X133956197Y-25177591D01*
X133956196Y-25177590D01*
X133956196Y-25177586D01*
X133902762Y-25048586D01*
X133898718Y-25038822D01*
X133898713Y-25038813D01*
X133815271Y-24913934D01*
X133815268Y-24913930D01*
X133709067Y-24807729D01*
X133709063Y-24807726D01*
X133584184Y-24724284D01*
X133584175Y-24724279D01*
X133445412Y-24666802D01*
X133445406Y-24666800D01*
X133298101Y-24637499D01*
X133298099Y-24637499D01*
X133147899Y-24637499D01*
X133147897Y-24637499D01*
X133000591Y-24666800D01*
X133000585Y-24666802D01*
X132861822Y-24724279D01*
X132861813Y-24724284D01*
X132736934Y-24807726D01*
X132736930Y-24807729D01*
X132630729Y-24913930D01*
X132630726Y-24913934D01*
X132547284Y-25038813D01*
X132547279Y-25038822D01*
X132489802Y-25177585D01*
X132489800Y-25177591D01*
X132460499Y-25324896D01*
X132460499Y-25324899D01*
X132460499Y-25475099D01*
X132460499Y-25475101D01*
X132460498Y-25475101D01*
X120209592Y-25475101D01*
X120081457Y-25271175D01*
X119912442Y-25059237D01*
X119720761Y-24867556D01*
X119508823Y-24698541D01*
X119279294Y-24554319D01*
X119279291Y-24554317D01*
X119035062Y-24436702D01*
X118779195Y-24347171D01*
X118779193Y-24347170D01*
X118566830Y-24298700D01*
X118514912Y-24286850D01*
X118514909Y-24286849D01*
X118514897Y-24286847D01*
X118245544Y-24256499D01*
X118245538Y-24256499D01*
X117974460Y-24256499D01*
X117974453Y-24256499D01*
X117705100Y-24286847D01*
X117705086Y-24286850D01*
X117440804Y-24347170D01*
X117440802Y-24347171D01*
X117184935Y-24436702D01*
X116940706Y-24554317D01*
X116711176Y-24698540D01*
X116499237Y-24867555D01*
X116307555Y-25059237D01*
X116138540Y-25271176D01*
X115994317Y-25500706D01*
X115876702Y-25744935D01*
X115787171Y-26000802D01*
X115787170Y-26000804D01*
X115726850Y-26265086D01*
X115726847Y-26265100D01*
X115696499Y-26534453D01*
X114688158Y-26534453D01*
X114697709Y-26340026D01*
X114698902Y-26327919D01*
X114698902Y-26327918D01*
X114746485Y-26007143D01*
X114748853Y-25995236D01*
X114827652Y-25680653D01*
X114831175Y-25669038D01*
X114940433Y-25363681D01*
X114945072Y-25352484D01*
X115083735Y-25059305D01*
X115089459Y-25048597D01*
X115256179Y-24770443D01*
X115262922Y-24760350D01*
X115456115Y-24499859D01*
X115463818Y-24490474D01*
X115681609Y-24250179D01*
X115690179Y-24241609D01*
X115930474Y-24023818D01*
X115939859Y-24016115D01*
X116200350Y-23822922D01*
X116210443Y-23816179D01*
X116488597Y-23649459D01*
X116499305Y-23643735D01*
X116792484Y-23505072D01*
X116803681Y-23500433D01*
X117109038Y-23391175D01*
X117120653Y-23387652D01*
X117435236Y-23308853D01*
X117447143Y-23306485D01*
X117767922Y-23258901D01*
X117780026Y-23257709D01*
X118106966Y-23241647D01*
X118113050Y-23241499D01*
X118164851Y-23241499D01*
X120541799Y-23241499D01*
X120608838Y-23261184D01*
G37*
%TD.AperFunction*%
%TD*%
M02*
