%TF.GenerationSoftware,KiCad,Pcbnew,8.0.1-rc1*%
%TF.CreationDate,2024-11-12T19:52:42-06:00*%
%TF.ProjectId,Cutdown,43757464-6f77-46e2-9e6b-696361645f70,2.1.0*%
%TF.SameCoordinates,Original*%
%TF.FileFunction,Legend,Bot*%
%TF.FilePolarity,Positive*%
%FSLAX46Y46*%
G04 Gerber Fmt 4.6, Leading zero omitted, Abs format (unit mm)*
G04 Created by KiCad (PCBNEW 8.0.1-rc1) date 2024-11-12 19:52:42*
%MOMM*%
%LPD*%
G01*
G04 APERTURE LIST*
%ADD10C,0.300000*%
%ADD11C,0.190500*%
%ADD12C,0.150000*%
%ADD13C,0.508000*%
%ADD14C,0.120000*%
%ADD15C,0.127000*%
G04 APERTURE END LIST*
D10*
X76599142Y-87826973D02*
X76659618Y-87887450D01*
X76659618Y-87887450D02*
X76841047Y-87947926D01*
X76841047Y-87947926D02*
X76961999Y-87947926D01*
X76961999Y-87947926D02*
X77143428Y-87887450D01*
X77143428Y-87887450D02*
X77264380Y-87766497D01*
X77264380Y-87766497D02*
X77324857Y-87645545D01*
X77324857Y-87645545D02*
X77385333Y-87403640D01*
X77385333Y-87403640D02*
X77385333Y-87222211D01*
X77385333Y-87222211D02*
X77324857Y-86980307D01*
X77324857Y-86980307D02*
X77264380Y-86859354D01*
X77264380Y-86859354D02*
X77143428Y-86738402D01*
X77143428Y-86738402D02*
X76961999Y-86677926D01*
X76961999Y-86677926D02*
X76841047Y-86677926D01*
X76841047Y-86677926D02*
X76659618Y-86738402D01*
X76659618Y-86738402D02*
X76599142Y-86798878D01*
X76236285Y-86677926D02*
X75510571Y-86677926D01*
X75873428Y-87947926D02*
X75873428Y-86677926D01*
X74361523Y-87947926D02*
X74784857Y-87343164D01*
X75087238Y-87947926D02*
X75087238Y-86677926D01*
X75087238Y-86677926D02*
X74603428Y-86677926D01*
X74603428Y-86677926D02*
X74482476Y-86738402D01*
X74482476Y-86738402D02*
X74421999Y-86798878D01*
X74421999Y-86798878D02*
X74361523Y-86919830D01*
X74361523Y-86919830D02*
X74361523Y-87101259D01*
X74361523Y-87101259D02*
X74421999Y-87222211D01*
X74421999Y-87222211D02*
X74482476Y-87282688D01*
X74482476Y-87282688D02*
X74603428Y-87343164D01*
X74603428Y-87343164D02*
X75087238Y-87343164D01*
X73212476Y-87947926D02*
X73817238Y-87947926D01*
X73817238Y-87947926D02*
X73817238Y-86677926D01*
X70589500Y-168216727D02*
X70529023Y-168035298D01*
X70529023Y-168035298D02*
X70529023Y-167732917D01*
X70529023Y-167732917D02*
X70589500Y-167611965D01*
X70589500Y-167611965D02*
X70649976Y-167551489D01*
X70649976Y-167551489D02*
X70770928Y-167491012D01*
X70770928Y-167491012D02*
X70891880Y-167491012D01*
X70891880Y-167491012D02*
X71012833Y-167551489D01*
X71012833Y-167551489D02*
X71073309Y-167611965D01*
X71073309Y-167611965D02*
X71133785Y-167732917D01*
X71133785Y-167732917D02*
X71194261Y-167974822D01*
X71194261Y-167974822D02*
X71254738Y-168095774D01*
X71254738Y-168095774D02*
X71315214Y-168156251D01*
X71315214Y-168156251D02*
X71436166Y-168216727D01*
X71436166Y-168216727D02*
X71557119Y-168216727D01*
X71557119Y-168216727D02*
X71678071Y-168156251D01*
X71678071Y-168156251D02*
X71738547Y-168095774D01*
X71738547Y-168095774D02*
X71799023Y-167974822D01*
X71799023Y-167974822D02*
X71799023Y-167672441D01*
X71799023Y-167672441D02*
X71738547Y-167491012D01*
X71375690Y-167067679D02*
X70529023Y-166825774D01*
X70529023Y-166825774D02*
X71133785Y-166583869D01*
X71133785Y-166583869D02*
X70529023Y-166341965D01*
X70529023Y-166341965D02*
X71375690Y-166100060D01*
X70529023Y-165616251D02*
X71375690Y-165616251D01*
X71799023Y-165616251D02*
X71738547Y-165676727D01*
X71738547Y-165676727D02*
X71678071Y-165616251D01*
X71678071Y-165616251D02*
X71738547Y-165555774D01*
X71738547Y-165555774D02*
X71799023Y-165616251D01*
X71799023Y-165616251D02*
X71678071Y-165616251D01*
X71375690Y-165192917D02*
X71375690Y-164709108D01*
X71799023Y-165011489D02*
X70710452Y-165011489D01*
X70710452Y-165011489D02*
X70589500Y-164951012D01*
X70589500Y-164951012D02*
X70529023Y-164830060D01*
X70529023Y-164830060D02*
X70529023Y-164709108D01*
X70589500Y-163741489D02*
X70529023Y-163862441D01*
X70529023Y-163862441D02*
X70529023Y-164104346D01*
X70529023Y-164104346D02*
X70589500Y-164225298D01*
X70589500Y-164225298D02*
X70649976Y-164285775D01*
X70649976Y-164285775D02*
X70770928Y-164346251D01*
X70770928Y-164346251D02*
X71133785Y-164346251D01*
X71133785Y-164346251D02*
X71254738Y-164285775D01*
X71254738Y-164285775D02*
X71315214Y-164225298D01*
X71315214Y-164225298D02*
X71375690Y-164104346D01*
X71375690Y-164104346D02*
X71375690Y-163862441D01*
X71375690Y-163862441D02*
X71315214Y-163741489D01*
X70529023Y-163197204D02*
X71799023Y-163197204D01*
X70529023Y-162652918D02*
X71194261Y-162652918D01*
X71194261Y-162652918D02*
X71315214Y-162713394D01*
X71315214Y-162713394D02*
X71375690Y-162834346D01*
X71375690Y-162834346D02*
X71375690Y-163015775D01*
X71375690Y-163015775D02*
X71315214Y-163136727D01*
X71315214Y-163136727D02*
X71254738Y-163197204D01*
D11*
X77725672Y-31123298D02*
X77175338Y-31123298D01*
X77175338Y-31123298D02*
X77471672Y-31461965D01*
X77471672Y-31461965D02*
X77344672Y-31461965D01*
X77344672Y-31461965D02*
X77260005Y-31504298D01*
X77260005Y-31504298D02*
X77217672Y-31546631D01*
X77217672Y-31546631D02*
X77175338Y-31631298D01*
X77175338Y-31631298D02*
X77175338Y-31842965D01*
X77175338Y-31842965D02*
X77217672Y-31927631D01*
X77217672Y-31927631D02*
X77260005Y-31969965D01*
X77260005Y-31969965D02*
X77344672Y-32012298D01*
X77344672Y-32012298D02*
X77598672Y-32012298D01*
X77598672Y-32012298D02*
X77683338Y-31969965D01*
X77683338Y-31969965D02*
X77725672Y-31927631D01*
X76794338Y-31673631D02*
X76117005Y-31673631D01*
X75524338Y-31123298D02*
X75439671Y-31123298D01*
X75439671Y-31123298D02*
X75355004Y-31165631D01*
X75355004Y-31165631D02*
X75312671Y-31207965D01*
X75312671Y-31207965D02*
X75270338Y-31292631D01*
X75270338Y-31292631D02*
X75228004Y-31461965D01*
X75228004Y-31461965D02*
X75228004Y-31673631D01*
X75228004Y-31673631D02*
X75270338Y-31842965D01*
X75270338Y-31842965D02*
X75312671Y-31927631D01*
X75312671Y-31927631D02*
X75355004Y-31969965D01*
X75355004Y-31969965D02*
X75439671Y-32012298D01*
X75439671Y-32012298D02*
X75524338Y-32012298D01*
X75524338Y-32012298D02*
X75609004Y-31969965D01*
X75609004Y-31969965D02*
X75651338Y-31927631D01*
X75651338Y-31927631D02*
X75693671Y-31842965D01*
X75693671Y-31842965D02*
X75736004Y-31673631D01*
X75736004Y-31673631D02*
X75736004Y-31461965D01*
X75736004Y-31461965D02*
X75693671Y-31292631D01*
X75693671Y-31292631D02*
X75651338Y-31207965D01*
X75651338Y-31207965D02*
X75609004Y-31165631D01*
X75609004Y-31165631D02*
X75524338Y-31123298D01*
X74677671Y-31123298D02*
X74593004Y-31123298D01*
X74593004Y-31123298D02*
X74508337Y-31165631D01*
X74508337Y-31165631D02*
X74466004Y-31207965D01*
X74466004Y-31207965D02*
X74423671Y-31292631D01*
X74423671Y-31292631D02*
X74381337Y-31461965D01*
X74381337Y-31461965D02*
X74381337Y-31673631D01*
X74381337Y-31673631D02*
X74423671Y-31842965D01*
X74423671Y-31842965D02*
X74466004Y-31927631D01*
X74466004Y-31927631D02*
X74508337Y-31969965D01*
X74508337Y-31969965D02*
X74593004Y-32012298D01*
X74593004Y-32012298D02*
X74677671Y-32012298D01*
X74677671Y-32012298D02*
X74762337Y-31969965D01*
X74762337Y-31969965D02*
X74804671Y-31927631D01*
X74804671Y-31927631D02*
X74847004Y-31842965D01*
X74847004Y-31842965D02*
X74889337Y-31673631D01*
X74889337Y-31673631D02*
X74889337Y-31461965D01*
X74889337Y-31461965D02*
X74847004Y-31292631D01*
X74847004Y-31292631D02*
X74804671Y-31207965D01*
X74804671Y-31207965D02*
X74762337Y-31165631D01*
X74762337Y-31165631D02*
X74677671Y-31123298D01*
X73831004Y-31123298D02*
X73746337Y-31123298D01*
X73746337Y-31123298D02*
X73661670Y-31165631D01*
X73661670Y-31165631D02*
X73619337Y-31207965D01*
X73619337Y-31207965D02*
X73577004Y-31292631D01*
X73577004Y-31292631D02*
X73534670Y-31461965D01*
X73534670Y-31461965D02*
X73534670Y-31673631D01*
X73534670Y-31673631D02*
X73577004Y-31842965D01*
X73577004Y-31842965D02*
X73619337Y-31927631D01*
X73619337Y-31927631D02*
X73661670Y-31969965D01*
X73661670Y-31969965D02*
X73746337Y-32012298D01*
X73746337Y-32012298D02*
X73831004Y-32012298D01*
X73831004Y-32012298D02*
X73915670Y-31969965D01*
X73915670Y-31969965D02*
X73958004Y-31927631D01*
X73958004Y-31927631D02*
X74000337Y-31842965D01*
X74000337Y-31842965D02*
X74042670Y-31673631D01*
X74042670Y-31673631D02*
X74042670Y-31461965D01*
X74042670Y-31461965D02*
X74000337Y-31292631D01*
X74000337Y-31292631D02*
X73958004Y-31207965D01*
X73958004Y-31207965D02*
X73915670Y-31165631D01*
X73915670Y-31165631D02*
X73831004Y-31123298D01*
X72984337Y-31123298D02*
X72899670Y-31123298D01*
X72899670Y-31123298D02*
X72815003Y-31165631D01*
X72815003Y-31165631D02*
X72772670Y-31207965D01*
X72772670Y-31207965D02*
X72730337Y-31292631D01*
X72730337Y-31292631D02*
X72688003Y-31461965D01*
X72688003Y-31461965D02*
X72688003Y-31673631D01*
X72688003Y-31673631D02*
X72730337Y-31842965D01*
X72730337Y-31842965D02*
X72772670Y-31927631D01*
X72772670Y-31927631D02*
X72815003Y-31969965D01*
X72815003Y-31969965D02*
X72899670Y-32012298D01*
X72899670Y-32012298D02*
X72984337Y-32012298D01*
X72984337Y-32012298D02*
X73069003Y-31969965D01*
X73069003Y-31969965D02*
X73111337Y-31927631D01*
X73111337Y-31927631D02*
X73153670Y-31842965D01*
X73153670Y-31842965D02*
X73196003Y-31673631D01*
X73196003Y-31673631D02*
X73196003Y-31461965D01*
X73196003Y-31461965D02*
X73153670Y-31292631D01*
X73153670Y-31292631D02*
X73111337Y-31207965D01*
X73111337Y-31207965D02*
X73069003Y-31165631D01*
X73069003Y-31165631D02*
X72984337Y-31123298D01*
X72349336Y-31207965D02*
X72307003Y-31165631D01*
X72307003Y-31165631D02*
X72222336Y-31123298D01*
X72222336Y-31123298D02*
X72010670Y-31123298D01*
X72010670Y-31123298D02*
X71926003Y-31165631D01*
X71926003Y-31165631D02*
X71883670Y-31207965D01*
X71883670Y-31207965D02*
X71841336Y-31292631D01*
X71841336Y-31292631D02*
X71841336Y-31377298D01*
X71841336Y-31377298D02*
X71883670Y-31504298D01*
X71883670Y-31504298D02*
X72391670Y-32012298D01*
X72391670Y-32012298D02*
X71841336Y-32012298D01*
X71545003Y-31123298D02*
X70994669Y-31123298D01*
X70994669Y-31123298D02*
X71291003Y-31461965D01*
X71291003Y-31461965D02*
X71164003Y-31461965D01*
X71164003Y-31461965D02*
X71079336Y-31504298D01*
X71079336Y-31504298D02*
X71037003Y-31546631D01*
X71037003Y-31546631D02*
X70994669Y-31631298D01*
X70994669Y-31631298D02*
X70994669Y-31842965D01*
X70994669Y-31842965D02*
X71037003Y-31927631D01*
X71037003Y-31927631D02*
X71079336Y-31969965D01*
X71079336Y-31969965D02*
X71164003Y-32012298D01*
X71164003Y-32012298D02*
X71418003Y-32012298D01*
X71418003Y-32012298D02*
X71502669Y-31969965D01*
X71502669Y-31969965D02*
X71545003Y-31927631D01*
X70656002Y-31207965D02*
X70613669Y-31165631D01*
X70613669Y-31165631D02*
X70529002Y-31123298D01*
X70529002Y-31123298D02*
X70317336Y-31123298D01*
X70317336Y-31123298D02*
X70232669Y-31165631D01*
X70232669Y-31165631D02*
X70190336Y-31207965D01*
X70190336Y-31207965D02*
X70148002Y-31292631D01*
X70148002Y-31292631D02*
X70148002Y-31377298D01*
X70148002Y-31377298D02*
X70190336Y-31504298D01*
X70190336Y-31504298D02*
X70698336Y-32012298D01*
X70698336Y-32012298D02*
X70148002Y-32012298D01*
D10*
X77324857Y-90004116D02*
X76357238Y-90004116D01*
X76841047Y-90487926D02*
X76841047Y-89520307D01*
X75147714Y-89217926D02*
X75752476Y-89217926D01*
X75752476Y-89217926D02*
X75812952Y-89822688D01*
X75812952Y-89822688D02*
X75752476Y-89762211D01*
X75752476Y-89762211D02*
X75631523Y-89701735D01*
X75631523Y-89701735D02*
X75329142Y-89701735D01*
X75329142Y-89701735D02*
X75208190Y-89762211D01*
X75208190Y-89762211D02*
X75147714Y-89822688D01*
X75147714Y-89822688D02*
X75087237Y-89943640D01*
X75087237Y-89943640D02*
X75087237Y-90246021D01*
X75087237Y-90246021D02*
X75147714Y-90366973D01*
X75147714Y-90366973D02*
X75208190Y-90427450D01*
X75208190Y-90427450D02*
X75329142Y-90487926D01*
X75329142Y-90487926D02*
X75631523Y-90487926D01*
X75631523Y-90487926D02*
X75752476Y-90427450D01*
X75752476Y-90427450D02*
X75812952Y-90366973D01*
X74724380Y-89217926D02*
X74301047Y-90487926D01*
X74301047Y-90487926D02*
X73877713Y-89217926D01*
X79394833Y-167394251D02*
X79394833Y-166426632D01*
X78911023Y-166910441D02*
X79878642Y-166910441D01*
X78911023Y-165761393D02*
X78911023Y-165519489D01*
X78911023Y-165519489D02*
X78971500Y-165398536D01*
X78971500Y-165398536D02*
X79031976Y-165338060D01*
X79031976Y-165338060D02*
X79213404Y-165217108D01*
X79213404Y-165217108D02*
X79455309Y-165156631D01*
X79455309Y-165156631D02*
X79939119Y-165156631D01*
X79939119Y-165156631D02*
X80060071Y-165217108D01*
X80060071Y-165217108D02*
X80120547Y-165277584D01*
X80120547Y-165277584D02*
X80181023Y-165398536D01*
X80181023Y-165398536D02*
X80181023Y-165640441D01*
X80181023Y-165640441D02*
X80120547Y-165761393D01*
X80120547Y-165761393D02*
X80060071Y-165821870D01*
X80060071Y-165821870D02*
X79939119Y-165882346D01*
X79939119Y-165882346D02*
X79636738Y-165882346D01*
X79636738Y-165882346D02*
X79515785Y-165821870D01*
X79515785Y-165821870D02*
X79455309Y-165761393D01*
X79455309Y-165761393D02*
X79394833Y-165640441D01*
X79394833Y-165640441D02*
X79394833Y-165398536D01*
X79394833Y-165398536D02*
X79455309Y-165277584D01*
X79455309Y-165277584D02*
X79515785Y-165217108D01*
X79515785Y-165217108D02*
X79636738Y-165156631D01*
X80181023Y-164793774D02*
X78911023Y-164370441D01*
X78911023Y-164370441D02*
X80181023Y-163947107D01*
X84184547Y-166729012D02*
X84245023Y-166849965D01*
X84245023Y-166849965D02*
X84245023Y-167031393D01*
X84245023Y-167031393D02*
X84184547Y-167212822D01*
X84184547Y-167212822D02*
X84063595Y-167333774D01*
X84063595Y-167333774D02*
X83942642Y-167394251D01*
X83942642Y-167394251D02*
X83700738Y-167454727D01*
X83700738Y-167454727D02*
X83519309Y-167454727D01*
X83519309Y-167454727D02*
X83277404Y-167394251D01*
X83277404Y-167394251D02*
X83156452Y-167333774D01*
X83156452Y-167333774D02*
X83035500Y-167212822D01*
X83035500Y-167212822D02*
X82975023Y-167031393D01*
X82975023Y-167031393D02*
X82975023Y-166910441D01*
X82975023Y-166910441D02*
X83035500Y-166729012D01*
X83035500Y-166729012D02*
X83095976Y-166668536D01*
X83095976Y-166668536D02*
X83519309Y-166668536D01*
X83519309Y-166668536D02*
X83519309Y-166910441D01*
X82975023Y-166124251D02*
X84245023Y-166124251D01*
X84245023Y-166124251D02*
X82975023Y-165398536D01*
X82975023Y-165398536D02*
X84245023Y-165398536D01*
X82975023Y-164793775D02*
X84245023Y-164793775D01*
X84245023Y-164793775D02*
X84245023Y-164491394D01*
X84245023Y-164491394D02*
X84184547Y-164309965D01*
X84184547Y-164309965D02*
X84063595Y-164189013D01*
X84063595Y-164189013D02*
X83942642Y-164128536D01*
X83942642Y-164128536D02*
X83700738Y-164068060D01*
X83700738Y-164068060D02*
X83519309Y-164068060D01*
X83519309Y-164068060D02*
X83277404Y-164128536D01*
X83277404Y-164128536D02*
X83156452Y-164189013D01*
X83156452Y-164189013D02*
X83035500Y-164309965D01*
X83035500Y-164309965D02*
X82975023Y-164491394D01*
X82975023Y-164491394D02*
X82975023Y-164793775D01*
X76659618Y-91818402D02*
X76780571Y-91757926D01*
X76780571Y-91757926D02*
X76961999Y-91757926D01*
X76961999Y-91757926D02*
X77143428Y-91818402D01*
X77143428Y-91818402D02*
X77264380Y-91939354D01*
X77264380Y-91939354D02*
X77324857Y-92060307D01*
X77324857Y-92060307D02*
X77385333Y-92302211D01*
X77385333Y-92302211D02*
X77385333Y-92483640D01*
X77385333Y-92483640D02*
X77324857Y-92725545D01*
X77324857Y-92725545D02*
X77264380Y-92846497D01*
X77264380Y-92846497D02*
X77143428Y-92967450D01*
X77143428Y-92967450D02*
X76961999Y-93027926D01*
X76961999Y-93027926D02*
X76841047Y-93027926D01*
X76841047Y-93027926D02*
X76659618Y-92967450D01*
X76659618Y-92967450D02*
X76599142Y-92906973D01*
X76599142Y-92906973D02*
X76599142Y-92483640D01*
X76599142Y-92483640D02*
X76841047Y-92483640D01*
X76054857Y-93027926D02*
X76054857Y-91757926D01*
X76054857Y-91757926D02*
X75329142Y-93027926D01*
X75329142Y-93027926D02*
X75329142Y-91757926D01*
X74724381Y-93027926D02*
X74724381Y-91757926D01*
X74724381Y-91757926D02*
X74422000Y-91757926D01*
X74422000Y-91757926D02*
X74240571Y-91818402D01*
X74240571Y-91818402D02*
X74119619Y-91939354D01*
X74119619Y-91939354D02*
X74059142Y-92060307D01*
X74059142Y-92060307D02*
X73998666Y-92302211D01*
X73998666Y-92302211D02*
X73998666Y-92483640D01*
X73998666Y-92483640D02*
X74059142Y-92725545D01*
X74059142Y-92725545D02*
X74119619Y-92846497D01*
X74119619Y-92846497D02*
X74240571Y-92967450D01*
X74240571Y-92967450D02*
X74422000Y-93027926D01*
X74422000Y-93027926D02*
X74724381Y-93027926D01*
X85622917Y-110854400D02*
X85408632Y-110925828D01*
X85408632Y-110925828D02*
X85051489Y-110925828D01*
X85051489Y-110925828D02*
X84908632Y-110854400D01*
X84908632Y-110854400D02*
X84837203Y-110782971D01*
X84837203Y-110782971D02*
X84765774Y-110640114D01*
X84765774Y-110640114D02*
X84765774Y-110497257D01*
X84765774Y-110497257D02*
X84837203Y-110354400D01*
X84837203Y-110354400D02*
X84908632Y-110282971D01*
X84908632Y-110282971D02*
X85051489Y-110211542D01*
X85051489Y-110211542D02*
X85337203Y-110140114D01*
X85337203Y-110140114D02*
X85480060Y-110068685D01*
X85480060Y-110068685D02*
X85551489Y-109997257D01*
X85551489Y-109997257D02*
X85622917Y-109854400D01*
X85622917Y-109854400D02*
X85622917Y-109711542D01*
X85622917Y-109711542D02*
X85551489Y-109568685D01*
X85551489Y-109568685D02*
X85480060Y-109497257D01*
X85480060Y-109497257D02*
X85337203Y-109425828D01*
X85337203Y-109425828D02*
X84980060Y-109425828D01*
X84980060Y-109425828D02*
X84765774Y-109497257D01*
X83480061Y-110925828D02*
X83480061Y-110140114D01*
X83480061Y-110140114D02*
X83551489Y-109997257D01*
X83551489Y-109997257D02*
X83694346Y-109925828D01*
X83694346Y-109925828D02*
X83980061Y-109925828D01*
X83980061Y-109925828D02*
X84122918Y-109997257D01*
X83480061Y-110854400D02*
X83622918Y-110925828D01*
X83622918Y-110925828D02*
X83980061Y-110925828D01*
X83980061Y-110925828D02*
X84122918Y-110854400D01*
X84122918Y-110854400D02*
X84194346Y-110711542D01*
X84194346Y-110711542D02*
X84194346Y-110568685D01*
X84194346Y-110568685D02*
X84122918Y-110425828D01*
X84122918Y-110425828D02*
X83980061Y-110354400D01*
X83980061Y-110354400D02*
X83622918Y-110354400D01*
X83622918Y-110354400D02*
X83480061Y-110282971D01*
X82980060Y-109925828D02*
X82408632Y-109925828D01*
X82765775Y-109425828D02*
X82765775Y-110711542D01*
X82765775Y-110711542D02*
X82694346Y-110854400D01*
X82694346Y-110854400D02*
X82551489Y-110925828D01*
X82551489Y-110925828D02*
X82408632Y-110925828D01*
X81908632Y-110782971D02*
X81837203Y-110854400D01*
X81837203Y-110854400D02*
X81908632Y-110925828D01*
X81908632Y-110925828D02*
X81980060Y-110854400D01*
X81980060Y-110854400D02*
X81908632Y-110782971D01*
X81908632Y-110782971D02*
X81908632Y-110925828D01*
X74653500Y-168216727D02*
X74593023Y-168035298D01*
X74593023Y-168035298D02*
X74593023Y-167732917D01*
X74593023Y-167732917D02*
X74653500Y-167611965D01*
X74653500Y-167611965D02*
X74713976Y-167551489D01*
X74713976Y-167551489D02*
X74834928Y-167491012D01*
X74834928Y-167491012D02*
X74955880Y-167491012D01*
X74955880Y-167491012D02*
X75076833Y-167551489D01*
X75076833Y-167551489D02*
X75137309Y-167611965D01*
X75137309Y-167611965D02*
X75197785Y-167732917D01*
X75197785Y-167732917D02*
X75258261Y-167974822D01*
X75258261Y-167974822D02*
X75318738Y-168095774D01*
X75318738Y-168095774D02*
X75379214Y-168156251D01*
X75379214Y-168156251D02*
X75500166Y-168216727D01*
X75500166Y-168216727D02*
X75621119Y-168216727D01*
X75621119Y-168216727D02*
X75742071Y-168156251D01*
X75742071Y-168156251D02*
X75802547Y-168095774D01*
X75802547Y-168095774D02*
X75863023Y-167974822D01*
X75863023Y-167974822D02*
X75863023Y-167672441D01*
X75863023Y-167672441D02*
X75802547Y-167491012D01*
X75439690Y-167067679D02*
X74593023Y-166825774D01*
X74593023Y-166825774D02*
X75197785Y-166583869D01*
X75197785Y-166583869D02*
X74593023Y-166341965D01*
X74593023Y-166341965D02*
X75439690Y-166100060D01*
X74593023Y-165616251D02*
X75439690Y-165616251D01*
X75863023Y-165616251D02*
X75802547Y-165676727D01*
X75802547Y-165676727D02*
X75742071Y-165616251D01*
X75742071Y-165616251D02*
X75802547Y-165555774D01*
X75802547Y-165555774D02*
X75863023Y-165616251D01*
X75863023Y-165616251D02*
X75742071Y-165616251D01*
X75439690Y-165192917D02*
X75439690Y-164709108D01*
X75863023Y-165011489D02*
X74774452Y-165011489D01*
X74774452Y-165011489D02*
X74653500Y-164951012D01*
X74653500Y-164951012D02*
X74593023Y-164830060D01*
X74593023Y-164830060D02*
X74593023Y-164709108D01*
X74653500Y-163741489D02*
X74593023Y-163862441D01*
X74593023Y-163862441D02*
X74593023Y-164104346D01*
X74593023Y-164104346D02*
X74653500Y-164225298D01*
X74653500Y-164225298D02*
X74713976Y-164285775D01*
X74713976Y-164285775D02*
X74834928Y-164346251D01*
X74834928Y-164346251D02*
X75197785Y-164346251D01*
X75197785Y-164346251D02*
X75318738Y-164285775D01*
X75318738Y-164285775D02*
X75379214Y-164225298D01*
X75379214Y-164225298D02*
X75439690Y-164104346D01*
X75439690Y-164104346D02*
X75439690Y-163862441D01*
X75439690Y-163862441D02*
X75379214Y-163741489D01*
X74593023Y-163197204D02*
X75863023Y-163197204D01*
X74593023Y-162652918D02*
X75258261Y-162652918D01*
X75258261Y-162652918D02*
X75379214Y-162713394D01*
X75379214Y-162713394D02*
X75439690Y-162834346D01*
X75439690Y-162834346D02*
X75439690Y-163015775D01*
X75439690Y-163015775D02*
X75379214Y-163136727D01*
X75379214Y-163136727D02*
X75318738Y-163197204D01*
D12*
X86195819Y-117530666D02*
X86910104Y-117530666D01*
X86910104Y-117530666D02*
X87052961Y-117483047D01*
X87052961Y-117483047D02*
X87148200Y-117387809D01*
X87148200Y-117387809D02*
X87195819Y-117244952D01*
X87195819Y-117244952D02*
X87195819Y-117149714D01*
X87195819Y-118006857D02*
X86195819Y-118006857D01*
X86195819Y-118006857D02*
X86195819Y-118387809D01*
X86195819Y-118387809D02*
X86243438Y-118483047D01*
X86243438Y-118483047D02*
X86291057Y-118530666D01*
X86291057Y-118530666D02*
X86386295Y-118578285D01*
X86386295Y-118578285D02*
X86529152Y-118578285D01*
X86529152Y-118578285D02*
X86624390Y-118530666D01*
X86624390Y-118530666D02*
X86672009Y-118483047D01*
X86672009Y-118483047D02*
X86719628Y-118387809D01*
X86719628Y-118387809D02*
X86719628Y-118006857D01*
X86291057Y-118959238D02*
X86243438Y-119006857D01*
X86243438Y-119006857D02*
X86195819Y-119102095D01*
X86195819Y-119102095D02*
X86195819Y-119340190D01*
X86195819Y-119340190D02*
X86243438Y-119435428D01*
X86243438Y-119435428D02*
X86291057Y-119483047D01*
X86291057Y-119483047D02*
X86386295Y-119530666D01*
X86386295Y-119530666D02*
X86481533Y-119530666D01*
X86481533Y-119530666D02*
X86624390Y-119483047D01*
X86624390Y-119483047D02*
X87195819Y-118911619D01*
X87195819Y-118911619D02*
X87195819Y-119530666D01*
X78438333Y-116421819D02*
X78438333Y-117136104D01*
X78438333Y-117136104D02*
X78485952Y-117278961D01*
X78485952Y-117278961D02*
X78581190Y-117374200D01*
X78581190Y-117374200D02*
X78724047Y-117421819D01*
X78724047Y-117421819D02*
X78819285Y-117421819D01*
X77914523Y-117421819D02*
X77724047Y-117421819D01*
X77724047Y-117421819D02*
X77628809Y-117374200D01*
X77628809Y-117374200D02*
X77581190Y-117326580D01*
X77581190Y-117326580D02*
X77485952Y-117183723D01*
X77485952Y-117183723D02*
X77438333Y-116993247D01*
X77438333Y-116993247D02*
X77438333Y-116612295D01*
X77438333Y-116612295D02*
X77485952Y-116517057D01*
X77485952Y-116517057D02*
X77533571Y-116469438D01*
X77533571Y-116469438D02*
X77628809Y-116421819D01*
X77628809Y-116421819D02*
X77819285Y-116421819D01*
X77819285Y-116421819D02*
X77914523Y-116469438D01*
X77914523Y-116469438D02*
X77962142Y-116517057D01*
X77962142Y-116517057D02*
X78009761Y-116612295D01*
X78009761Y-116612295D02*
X78009761Y-116850390D01*
X78009761Y-116850390D02*
X77962142Y-116945628D01*
X77962142Y-116945628D02*
X77914523Y-116993247D01*
X77914523Y-116993247D02*
X77819285Y-117040866D01*
X77819285Y-117040866D02*
X77628809Y-117040866D01*
X77628809Y-117040866D02*
X77533571Y-116993247D01*
X77533571Y-116993247D02*
X77485952Y-116945628D01*
X77485952Y-116945628D02*
X77438333Y-116850390D01*
X88862819Y-117530666D02*
X89577104Y-117530666D01*
X89577104Y-117530666D02*
X89719961Y-117483047D01*
X89719961Y-117483047D02*
X89815200Y-117387809D01*
X89815200Y-117387809D02*
X89862819Y-117244952D01*
X89862819Y-117244952D02*
X89862819Y-117149714D01*
X89862819Y-118006857D02*
X88862819Y-118006857D01*
X88862819Y-118006857D02*
X88862819Y-118387809D01*
X88862819Y-118387809D02*
X88910438Y-118483047D01*
X88910438Y-118483047D02*
X88958057Y-118530666D01*
X88958057Y-118530666D02*
X89053295Y-118578285D01*
X89053295Y-118578285D02*
X89196152Y-118578285D01*
X89196152Y-118578285D02*
X89291390Y-118530666D01*
X89291390Y-118530666D02*
X89339009Y-118483047D01*
X89339009Y-118483047D02*
X89386628Y-118387809D01*
X89386628Y-118387809D02*
X89386628Y-118006857D01*
X89862819Y-119530666D02*
X89862819Y-118959238D01*
X89862819Y-119244952D02*
X88862819Y-119244952D01*
X88862819Y-119244952D02*
X89005676Y-119149714D01*
X89005676Y-119149714D02*
X89100914Y-119054476D01*
X89100914Y-119054476D02*
X89148533Y-118959238D01*
D13*
%TO.C,U1*%
X68930500Y-158584900D02*
G75*
G02*
X68168500Y-158584900I-381000J0D01*
G01*
X68168500Y-158584900D02*
G75*
G02*
X68930500Y-158584900I381000J0D01*
G01*
D14*
%TO.C,JP2*%
X85272000Y-122693000D02*
X85272000Y-123293000D01*
X85272000Y-122693000D02*
X85572000Y-122993000D01*
X85272000Y-123293000D02*
X85572000Y-122993000D01*
X85772000Y-123193000D02*
X85772000Y-120393000D01*
X86472000Y-119743000D02*
X87072000Y-119743000D01*
X87072000Y-123843000D02*
X86472000Y-123843000D01*
X87772000Y-120393000D02*
X87772000Y-123193000D01*
X85772000Y-120443000D02*
G75*
G02*
X86472000Y-119743000I700000J0D01*
G01*
X86472000Y-123843000D02*
G75*
G02*
X85772000Y-123143000I-1J699999D01*
G01*
X87072000Y-119743000D02*
G75*
G02*
X87772000Y-120443000I0J-700000D01*
G01*
X87772000Y-123143000D02*
G75*
G02*
X87072000Y-123843000I-699999J-1D01*
G01*
D15*
%TO.C,J9*%
X74995000Y-111946000D02*
X77475000Y-111946000D01*
X74995000Y-113226000D02*
X74995000Y-111946000D01*
X77015000Y-116146000D02*
X90625000Y-116146000D01*
X89145000Y-110816000D02*
X89745000Y-110816000D01*
X89445000Y-111316000D02*
X89145000Y-110816000D01*
X89745000Y-110816000D02*
X89445000Y-111316000D01*
X90165000Y-111946000D02*
X92645000Y-111946000D01*
X92645000Y-111946000D02*
X92645000Y-113226000D01*
D14*
%TO.C,JP1*%
X87908000Y-122693000D02*
X87908000Y-123293000D01*
X87908000Y-122693000D02*
X88208000Y-122993000D01*
X87908000Y-123293000D02*
X88208000Y-122993000D01*
X88408000Y-123193000D02*
X88408000Y-120393000D01*
X89108000Y-119743000D02*
X89708000Y-119743000D01*
X89708000Y-123843000D02*
X89108000Y-123843000D01*
X90408000Y-120393000D02*
X90408000Y-123193000D01*
X88408000Y-120443000D02*
G75*
G02*
X89108000Y-119743000I700000J0D01*
G01*
X89108000Y-123843000D02*
G75*
G02*
X88408000Y-123143000I-1J699999D01*
G01*
X89708000Y-119743000D02*
G75*
G02*
X90408000Y-120443000I0J-700000D01*
G01*
X90408000Y-123143000D02*
G75*
G02*
X89708000Y-123843000I-699999J-1D01*
G01*
%TO.C,J7*%
X78302000Y-93726000D02*
X78302000Y-92456000D01*
X79572000Y-93726000D02*
X78302000Y-93726000D01*
X81012000Y-86046000D02*
X81012000Y-93786000D01*
X81012000Y-86996000D02*
X80614929Y-86996000D01*
X81012000Y-87756000D02*
X80614929Y-87756000D01*
X81012000Y-89536000D02*
X80614929Y-89536000D01*
X81012000Y-90296000D02*
X80614929Y-90296000D01*
X81012000Y-92076000D02*
X80682000Y-92076000D01*
X81012000Y-92836000D02*
X80682000Y-92836000D01*
X81012000Y-93786000D02*
X83672000Y-93786000D01*
X83672000Y-86046000D02*
X81012000Y-86046000D01*
X83672000Y-86996000D02*
X89672000Y-86996000D01*
X83672000Y-88646000D02*
X81012000Y-88646000D01*
X83672000Y-89536000D02*
X89672000Y-89536000D01*
X83672000Y-91186000D02*
X81012000Y-91186000D01*
X83672000Y-92076000D02*
X89672000Y-92076000D01*
X83672000Y-93786000D02*
X83672000Y-86046000D01*
X89672000Y-86996000D02*
X89672000Y-87756000D01*
X89672000Y-87756000D02*
X83672000Y-87756000D01*
X89672000Y-89536000D02*
X89672000Y-90296000D01*
X89672000Y-90296000D02*
X83672000Y-90296000D01*
X89672000Y-92076000D02*
X89672000Y-92836000D01*
X89672000Y-92176000D02*
X83672000Y-92176000D01*
X89672000Y-92296000D02*
X83672000Y-92296000D01*
X89672000Y-92416000D02*
X83672000Y-92416000D01*
X89672000Y-92536000D02*
X83672000Y-92536000D01*
X89672000Y-92656000D02*
X83672000Y-92656000D01*
X89672000Y-92776000D02*
X83672000Y-92776000D01*
X89672000Y-92836000D02*
X83672000Y-92836000D01*
%TD*%
M02*
