%TF.GenerationSoftware,KiCad,Pcbnew,8.0.1-rc1*%
%TF.CreationDate,2024-11-07T09:08:02-06:00*%
%TF.ProjectId,Cutdown,43757464-6f77-46e2-9e6b-696361645f70,2.1.0*%
%TF.SameCoordinates,Original*%
%TF.FileFunction,Copper,L2,Bot*%
%TF.FilePolarity,Positive*%
%FSLAX46Y46*%
G04 Gerber Fmt 4.6, Leading zero omitted, Abs format (unit mm)*
G04 Created by KiCad (PCBNEW 8.0.1-rc1) date 2024-11-07 09:08:02*
%MOMM*%
%LPD*%
G01*
G04 APERTURE LIST*
G04 Aperture macros list*
%AMRoundRect*
0 Rectangle with rounded corners*
0 $1 Rounding radius*
0 $2 $3 $4 $5 $6 $7 $8 $9 X,Y pos of 4 corners*
0 Add a 4 corners polygon primitive as box body*
4,1,4,$2,$3,$4,$5,$6,$7,$8,$9,$2,$3,0*
0 Add four circle primitives for the rounded corners*
1,1,$1+$1,$2,$3*
1,1,$1+$1,$4,$5*
1,1,$1+$1,$6,$7*
1,1,$1+$1,$8,$9*
0 Add four rect primitives between the rounded corners*
20,1,$1+$1,$2,$3,$4,$5,0*
20,1,$1+$1,$4,$5,$6,$7,0*
20,1,$1+$1,$6,$7,$8,$9,0*
20,1,$1+$1,$8,$9,$2,$3,0*%
%AMFreePoly0*
4,1,19,0.550000,-0.750000,0.000000,-0.750000,0.000000,-0.744911,-0.071157,-0.744911,-0.207708,-0.704816,-0.327430,-0.627875,-0.420627,-0.520320,-0.479746,-0.390866,-0.500000,-0.250000,-0.500000,0.250000,-0.479746,0.390866,-0.420627,0.520320,-0.327430,0.627875,-0.207708,0.704816,-0.071157,0.744911,0.000000,0.744911,0.000000,0.750000,0.550000,0.750000,0.550000,-0.750000,0.550000,-0.750000,
$1*%
%AMFreePoly1*
4,1,19,0.000000,0.744911,0.071157,0.744911,0.207708,0.704816,0.327430,0.627875,0.420627,0.520320,0.479746,0.390866,0.500000,0.250000,0.500000,-0.250000,0.479746,-0.390866,0.420627,-0.520320,0.327430,-0.627875,0.207708,-0.704816,0.071157,-0.744911,0.000000,-0.744911,0.000000,-0.750000,-0.550000,-0.750000,-0.550000,0.750000,0.000000,0.750000,0.000000,0.744911,0.000000,0.744911,
$1*%
G04 Aperture macros list end*
%TA.AperFunction,ComponentPad*%
%ADD10C,2.200000*%
%TD*%
%TA.AperFunction,ComponentPad*%
%ADD11RoundRect,0.302260X-0.967740X-0.967740X0.967740X-0.967740X0.967740X0.967740X-0.967740X0.967740X0*%
%TD*%
%TA.AperFunction,ComponentPad*%
%ADD12C,2.540000*%
%TD*%
%TA.AperFunction,ComponentPad*%
%ADD13C,1.498600*%
%TD*%
%TA.AperFunction,WasherPad*%
%ADD14C,3.810000*%
%TD*%
%TA.AperFunction,SMDPad,CuDef*%
%ADD15FreePoly0,90.000000*%
%TD*%
%TA.AperFunction,SMDPad,CuDef*%
%ADD16R,1.500000X1.000000*%
%TD*%
%TA.AperFunction,SMDPad,CuDef*%
%ADD17FreePoly1,90.000000*%
%TD*%
%TA.AperFunction,SMDPad,CuDef*%
%ADD18R,2.100000X3.000000*%
%TD*%
%TA.AperFunction,SMDPad,CuDef*%
%ADD19R,0.800000X1.300000*%
%TD*%
%TA.AperFunction,ComponentPad*%
%ADD20R,1.700000X1.700000*%
%TD*%
%TA.AperFunction,ComponentPad*%
%ADD21O,1.700000X1.700000*%
%TD*%
%TA.AperFunction,ViaPad*%
%ADD22C,0.508000*%
%TD*%
%TA.AperFunction,Conductor*%
%ADD23C,0.508000*%
%TD*%
G04 APERTURE END LIST*
D10*
%TO.P,C1,1*%
%TO.N,Net-(D3-A)*%
X88996000Y-137539000D03*
%TO.P,C1,2*%
%TO.N,GND*%
X100996000Y-137539000D03*
%TD*%
D11*
%TO.P,J1,1,Pin_1*%
%TO.N,GND*%
X83538000Y-160772800D03*
D12*
%TO.P,J1,2,Pin_2*%
%TO.N,+9V*%
X79502000Y-160772800D03*
%TD*%
D13*
%TO.P,U1,1,VIN*%
%TO.N,+BATT*%
X68549500Y-153416000D03*
%TO.P,U1,2,GND*%
%TO.N,GND*%
X68549500Y-150876000D03*
%TO.P,U1,3,VOUT*%
%TO.N,+5V*%
X68549500Y-148336000D03*
%TD*%
D11*
%TO.P,J6,1,Pin_1*%
%TO.N,Net-(J6-Pin_1)*%
X75283000Y-160772800D03*
D12*
%TO.P,J6,2,Pin_2*%
%TO.N,+9V*%
X71247000Y-160772800D03*
%TD*%
D14*
%TO.P,H3,*%
%TO.N,*%
X66040000Y-168910000D03*
%TD*%
%TO.P,H4,*%
%TO.N,*%
X101600000Y-168910000D03*
%TD*%
%TO.P,H1,*%
%TO.N,*%
X66040000Y-34290000D03*
%TD*%
%TO.P,H2,*%
%TO.N,*%
X101600000Y-34290000D03*
%TD*%
D15*
%TO.P,JP2,1,A*%
%TO.N,Sat_TX*%
X86772000Y-123093000D03*
D16*
%TO.P,JP2,2,C*%
%TO.N,Net-(J9-Pin_5)*%
X86772000Y-121793000D03*
D17*
%TO.P,JP2,3,B*%
%TO.N,Sat_RX*%
X86772000Y-120493000D03*
%TD*%
D18*
%TO.P,J9,*%
%TO.N,*%
X75645000Y-115046000D03*
X91995000Y-115046000D03*
D19*
%TO.P,J9,1,Pin_1*%
%TO.N,GND*%
X89445000Y-112296000D03*
%TO.P,J9,2,Pin_2*%
%TO.N,unconnected-(J9-Pin_2-Pad2)*%
X88195000Y-112296000D03*
%TO.P,J9,3,Pin_3*%
%TO.N,+5V*%
X86945000Y-112296000D03*
%TO.P,J9,4,Pin_4*%
%TO.N,unconnected-(J9-Pin_4-Pad4)*%
X85695000Y-112296000D03*
%TO.P,J9,5,Pin_5*%
%TO.N,Net-(J9-Pin_5)*%
X84445000Y-112296000D03*
%TO.P,J9,6,Pin_6*%
%TO.N,unconnected-(J9-Pin_6-Pad6)*%
X83195000Y-112296000D03*
%TO.P,J9,7,Pin_7*%
%TO.N,Sat_NetAv*%
X81945000Y-112296000D03*
%TO.P,J9,8,Pin_8*%
%TO.N,unconnected-(J9-Pin_8-Pad8)*%
X80695000Y-112296000D03*
%TO.P,J9,9,Pin_9*%
%TO.N,unconnected-(J9-Pin_9-Pad9)*%
X79445000Y-112296000D03*
%TO.P,J9,10,Pin_10*%
%TO.N,Net-(J9-Pin_10)*%
X78195000Y-112296000D03*
%TD*%
D15*
%TO.P,JP1,1,A*%
%TO.N,Sat_TX*%
X89408000Y-123093000D03*
D16*
%TO.P,JP1,2,C*%
%TO.N,Net-(J9-Pin_10)*%
X89408000Y-121793000D03*
D17*
%TO.P,JP1,3,B*%
%TO.N,Sat_RX*%
X89408000Y-120493000D03*
%TD*%
D20*
%TO.P,J7,1,Pin_1*%
%TO.N,GND*%
X79572000Y-92456000D03*
D21*
%TO.P,J7,2,Pin_2*%
%TO.N,+5V*%
X79572000Y-89916000D03*
%TO.P,J7,3,Pin_3*%
%TO.N,Servo*%
X79572000Y-87376000D03*
%TD*%
D22*
%TO.N,GND*%
X64770000Y-108077000D03*
X64770000Y-131572000D03*
X64770000Y-123031000D03*
X89408000Y-114300000D03*
X64770000Y-113633000D03*
%TO.N,+5V*%
X67691000Y-51054000D03*
X76481200Y-121666000D03*
%TO.N,+3V3*%
X84836000Y-108331000D03*
X95250000Y-115316000D03*
X102286000Y-71531000D03*
X99238000Y-71531000D03*
X65786000Y-90416000D03*
X77343000Y-119126000D03*
X100330000Y-67564000D03*
X102108000Y-61620400D03*
X77343000Y-122682000D03*
X88239600Y-103378000D03*
X96520000Y-34544000D03*
X66294000Y-141274800D03*
X100330000Y-65024000D03*
X68630800Y-101082600D03*
X98806000Y-56540400D03*
%TO.N,Servo*%
X79572000Y-77921000D03*
%TO.N,EXT1*%
X89000000Y-65500000D03*
X97714000Y-71404000D03*
%TO.N,EXT2*%
X89000000Y-67500000D03*
X100762000Y-71531000D03*
%TO.N,GPS_PPS*%
X87299800Y-100584000D03*
X87249000Y-38862000D03*
%TO.N,GPS_TX*%
X86639400Y-98044000D03*
X76835000Y-32004000D03*
%TO.N,GPS_RX*%
X86639400Y-97383600D03*
X77622400Y-34544000D03*
%TO.N,SDA*%
X65786000Y-89424000D03*
X65786000Y-68834000D03*
%TO.N,RX*%
X67437000Y-94758000D03*
X64160400Y-47244000D03*
X64389000Y-94758000D03*
X76481200Y-94742000D03*
%TO.N,SCL*%
X65125600Y-88408000D03*
X65151000Y-66421000D03*
%TO.N,EXT3*%
X78613000Y-70104000D03*
X78867000Y-85725000D03*
%TO.N,TX*%
X75820800Y-93599000D03*
X67437000Y-93599000D03*
X65024000Y-44704000D03*
X63500000Y-94885000D03*
%TO.N,Net-(J9-Pin_10)*%
X88138000Y-118338600D03*
X84683600Y-117983000D03*
%TO.N,Sat_NetAv*%
X78251200Y-72644000D03*
X78232000Y-86385400D03*
X81915000Y-113919000D03*
%TO.N,Sat_RX*%
X86772000Y-118999000D03*
X89408000Y-119030000D03*
%TO.N,Sat_TX*%
X86741000Y-124206000D03*
%TD*%
D23*
%TO.N,GND*%
X64770000Y-123031000D02*
X64770000Y-122523000D01*
X64770000Y-123190000D02*
X64770000Y-131572000D01*
X89445000Y-112296000D02*
X89445000Y-114263000D01*
X64770000Y-113633000D02*
X64770000Y-113157000D01*
X64770000Y-113157000D02*
X64770000Y-108077000D01*
X64770000Y-123031000D02*
X64770000Y-123190000D01*
X64770000Y-122523000D02*
X64770000Y-113633000D01*
X89445000Y-114263000D02*
X89408000Y-114300000D01*
%TO.N,+5V*%
X68549500Y-148336000D02*
X68549500Y-142021926D01*
X66446400Y-88701400D02*
X66446400Y-52298600D01*
X68549500Y-142021926D02*
X66446400Y-139918826D01*
X79572000Y-89916000D02*
X66446400Y-89916000D01*
X86945000Y-111075000D02*
X86360000Y-110490000D01*
X66446400Y-89916000D02*
X66446400Y-88701400D01*
X86945000Y-112296000D02*
X86945000Y-111075000D01*
X76481200Y-121666000D02*
X66446400Y-121666000D01*
X66446400Y-110490000D02*
X66446400Y-88701400D01*
X66446400Y-52298600D02*
X67691000Y-51054000D01*
X86360000Y-110490000D02*
X66446400Y-110490000D01*
X66446400Y-139918826D02*
X66446400Y-121666000D01*
X66446400Y-121666000D02*
X66446400Y-110490000D01*
%TO.N,+3V3*%
X77343000Y-122682000D02*
X77343000Y-119126000D01*
%TO.N,Servo*%
X79572000Y-77921000D02*
X79572000Y-87376000D01*
%TO.N,EXT1*%
X88339600Y-67839600D02*
X91904000Y-71404000D01*
X88339600Y-66160400D02*
X88339600Y-67839600D01*
X89000000Y-65500000D02*
X88339600Y-66160400D01*
X91904000Y-71404000D02*
X97714000Y-71404000D01*
%TO.N,EXT2*%
X90000000Y-68500000D02*
X97731000Y-68500000D01*
X97731000Y-68500000D02*
X100762000Y-71531000D01*
X89000000Y-67500000D02*
X90000000Y-68500000D01*
%TO.N,GPS_PPS*%
X87249000Y-38862000D02*
X87299800Y-38912800D01*
X87299800Y-38912800D02*
X87299800Y-100584000D01*
%TO.N,GPS_TX*%
X86639400Y-98044000D02*
X86365853Y-98044000D01*
X85979000Y-97657147D02*
X85979000Y-43834546D01*
X86365853Y-98044000D02*
X85979000Y-97657147D01*
X85979000Y-43834546D02*
X76835000Y-34690546D01*
X76835000Y-34690546D02*
X76835000Y-32004000D01*
%TO.N,GPS_RX*%
X86639400Y-97383600D02*
X86639400Y-43561000D01*
X86639400Y-43561000D02*
X77622400Y-34544000D01*
%TO.N,SDA*%
X65786000Y-68834000D02*
X65786000Y-89424000D01*
%TO.N,RX*%
X64160400Y-47244000D02*
X64160400Y-94529400D01*
X64160400Y-94529400D02*
X64389000Y-94758000D01*
X67453000Y-94742000D02*
X67437000Y-94758000D01*
X76481200Y-94742000D02*
X67453000Y-94742000D01*
%TO.N,SCL*%
X65125600Y-88408000D02*
X65125600Y-66446400D01*
X65125600Y-66446400D02*
X65151000Y-66421000D01*
%TO.N,EXT3*%
X78911600Y-85680400D02*
X78867000Y-85725000D01*
X78613000Y-70104000D02*
X78911600Y-70402600D01*
X78911600Y-70402600D02*
X78911600Y-85680400D01*
%TO.N,TX*%
X67437000Y-93599000D02*
X75820800Y-93599000D01*
X63500000Y-46228000D02*
X63500000Y-94885000D01*
X65024000Y-44704000D02*
X63500000Y-46228000D01*
%TO.N,Net-(J9-Pin_10)*%
X78195000Y-113882000D02*
X78994000Y-114681000D01*
X84683600Y-116332000D02*
X84683600Y-117983000D01*
X88138000Y-118338600D02*
X88138000Y-121539000D01*
X84683600Y-115951000D02*
X84683600Y-116332000D01*
X88138000Y-121539000D02*
X88392000Y-121793000D01*
X88392000Y-121793000D02*
X89408000Y-121793000D01*
X84683600Y-115208546D02*
X84683600Y-115951000D01*
X78195000Y-112296000D02*
X78195000Y-113882000D01*
X84156054Y-114681000D02*
X84683600Y-115208546D01*
X78994000Y-114681000D02*
X84156054Y-114681000D01*
%TO.N,Sat_NetAv*%
X78251200Y-85406853D02*
X78206600Y-85451453D01*
X78206600Y-85451453D02*
X78206600Y-86360000D01*
X81945000Y-113889000D02*
X81945000Y-112296000D01*
X81915000Y-113919000D02*
X81945000Y-113889000D01*
X78251200Y-72644000D02*
X78251200Y-85406853D01*
X78206600Y-86360000D02*
X78232000Y-86385400D01*
%TO.N,Net-(J9-Pin_5)*%
X84445000Y-114036000D02*
X84445000Y-112296000D01*
X86772000Y-121793000D02*
X85725000Y-121793000D01*
X85725000Y-121793000D02*
X85344000Y-121412000D01*
X85344000Y-121412000D02*
X85344000Y-114935000D01*
X85344000Y-114935000D02*
X84445000Y-114036000D01*
%TO.N,Sat_RX*%
X89408000Y-119030000D02*
X89408000Y-120493000D01*
X86772000Y-120493000D02*
X86772000Y-118999000D01*
%TO.N,Sat_TX*%
X86772000Y-123093000D02*
X89408000Y-123093000D01*
X86741000Y-123124000D02*
X86772000Y-123093000D01*
X86741000Y-124206000D02*
X86741000Y-123124000D01*
%TD*%
%TA.AperFunction,Conductor*%
%TO.N,+3V3*%
G36*
X101603032Y-30861648D02*
G01*
X101929970Y-30877710D01*
X101942078Y-30878902D01*
X102262851Y-30926485D01*
X102274765Y-30928855D01*
X102589339Y-31007651D01*
X102600966Y-31011178D01*
X102906309Y-31120432D01*
X102917521Y-31125076D01*
X103210694Y-31263736D01*
X103221402Y-31269460D01*
X103499556Y-31436179D01*
X103509648Y-31442922D01*
X103770142Y-31636118D01*
X103779522Y-31643817D01*
X104019810Y-31861600D01*
X104028399Y-31870189D01*
X104238392Y-32101882D01*
X104246177Y-32110471D01*
X104253883Y-32119860D01*
X104447074Y-32380346D01*
X104453823Y-32390448D01*
X104600149Y-32634579D01*
X104620532Y-32668585D01*
X104626269Y-32679317D01*
X104764920Y-32972471D01*
X104769571Y-32983700D01*
X104878816Y-33289018D01*
X104882348Y-33300662D01*
X104961141Y-33615221D01*
X104963515Y-33627156D01*
X105011096Y-33947919D01*
X105012289Y-33960030D01*
X105028350Y-34286965D01*
X105028499Y-34293049D01*
X105028499Y-168906947D01*
X105028350Y-168913032D01*
X105012288Y-169239968D01*
X105011095Y-169252078D01*
X104963514Y-169572842D01*
X104961140Y-169584777D01*
X104882347Y-169899336D01*
X104878815Y-169910980D01*
X104769573Y-170216291D01*
X104764919Y-170227527D01*
X104626268Y-170520681D01*
X104620531Y-170531413D01*
X104453827Y-170809542D01*
X104447067Y-170819660D01*
X104253891Y-171080128D01*
X104246171Y-171089534D01*
X104028406Y-171329801D01*
X104019801Y-171338406D01*
X103779534Y-171556171D01*
X103770128Y-171563891D01*
X103509660Y-171757067D01*
X103499542Y-171763827D01*
X103221413Y-171930531D01*
X103210681Y-171936268D01*
X102917527Y-172074919D01*
X102906291Y-172079573D01*
X102756146Y-172133296D01*
X102600980Y-172188815D01*
X102589336Y-172192347D01*
X102274777Y-172271140D01*
X102262842Y-172273514D01*
X101942078Y-172321095D01*
X101929968Y-172322288D01*
X101621240Y-172337455D01*
X101603031Y-172338350D01*
X101596948Y-172338499D01*
X84572289Y-172338499D01*
X84505250Y-172318814D01*
X84459495Y-172266010D01*
X84449551Y-172196852D01*
X84478576Y-172133296D01*
X84510290Y-172107112D01*
X84596679Y-172057235D01*
X84596681Y-172057234D01*
X84754325Y-171936269D01*
X84794436Y-171905491D01*
X84970691Y-171729236D01*
X85122432Y-171531484D01*
X85247063Y-171315616D01*
X85342451Y-171085329D01*
X85406965Y-170844560D01*
X85439500Y-170597431D01*
X85439500Y-170348169D01*
X85406965Y-170101040D01*
X85342451Y-169860271D01*
X85247063Y-169629984D01*
X85220963Y-169584778D01*
X85122432Y-169414116D01*
X84970692Y-169216365D01*
X84970686Y-169216358D01*
X84794441Y-169040113D01*
X84794434Y-169040107D01*
X84624882Y-168910005D01*
X99181728Y-168910005D01*
X99200795Y-169213079D01*
X99200796Y-169213086D01*
X99257703Y-169511404D01*
X99351548Y-169800226D01*
X99351550Y-169800231D01*
X99480850Y-170075007D01*
X99480856Y-170075018D01*
X99643575Y-170331423D01*
X99643578Y-170331427D01*
X99837152Y-170565417D01*
X99837154Y-170565419D01*
X100058533Y-170773309D01*
X100058543Y-170773317D01*
X100304213Y-170951807D01*
X100304219Y-170951810D01*
X100304225Y-170951815D01*
X100570350Y-171098118D01*
X100570351Y-171098118D01*
X100570356Y-171098121D01*
X100570359Y-171098122D01*
X100840125Y-171204929D01*
X100852713Y-171209913D01*
X101146861Y-171285438D01*
X101210066Y-171293422D01*
X101448143Y-171323499D01*
X101448152Y-171323499D01*
X101448155Y-171323500D01*
X101448157Y-171323500D01*
X101751843Y-171323500D01*
X101751845Y-171323500D01*
X101751848Y-171323499D01*
X101751856Y-171323499D01*
X101931639Y-171300786D01*
X102053139Y-171285438D01*
X102347287Y-171209913D01*
X102629640Y-171098122D01*
X102629643Y-171098121D01*
X102629644Y-171098120D01*
X102629650Y-171098118D01*
X102895775Y-170951815D01*
X103141465Y-170773311D01*
X103362844Y-170565421D01*
X103556423Y-170331425D01*
X103719148Y-170075011D01*
X103848452Y-169800225D01*
X103942298Y-169511400D01*
X103999203Y-169213090D01*
X104010086Y-169040109D01*
X104018272Y-168910005D01*
X104018272Y-168909994D01*
X103999204Y-168606920D01*
X103999203Y-168606913D01*
X103999203Y-168606910D01*
X103942298Y-168308600D01*
X103848452Y-168019775D01*
X103719148Y-167744989D01*
X103556423Y-167488575D01*
X103556421Y-167488572D01*
X103362847Y-167254582D01*
X103362845Y-167254580D01*
X103141466Y-167046690D01*
X103141456Y-167046682D01*
X102895786Y-166868192D01*
X102895768Y-166868181D01*
X102629643Y-166721878D01*
X102629640Y-166721877D01*
X102347291Y-166610088D01*
X102319270Y-166602893D01*
X102053139Y-166534562D01*
X102053136Y-166534561D01*
X102053129Y-166534560D01*
X101751856Y-166496500D01*
X101751845Y-166496500D01*
X101448155Y-166496500D01*
X101448143Y-166496500D01*
X101146870Y-166534560D01*
X101146861Y-166534562D01*
X100852708Y-166610088D01*
X100570359Y-166721877D01*
X100570356Y-166721878D01*
X100304231Y-166868181D01*
X100304213Y-166868192D01*
X100058543Y-167046682D01*
X100058533Y-167046690D01*
X99837154Y-167254580D01*
X99837152Y-167254582D01*
X99643578Y-167488572D01*
X99643575Y-167488576D01*
X99480856Y-167744981D01*
X99480850Y-167744992D01*
X99351550Y-168019768D01*
X99351548Y-168019773D01*
X99257703Y-168308595D01*
X99200796Y-168606913D01*
X99200795Y-168606920D01*
X99181728Y-168909994D01*
X99181728Y-168910005D01*
X84624882Y-168910005D01*
X84596683Y-168888367D01*
X84380819Y-168763738D01*
X84380804Y-168763731D01*
X84150529Y-168668349D01*
X83909756Y-168603834D01*
X83662641Y-168571301D01*
X83662636Y-168571300D01*
X83662631Y-168571300D01*
X83413369Y-168571300D01*
X83413363Y-168571300D01*
X83413358Y-168571301D01*
X83166243Y-168603834D01*
X82925470Y-168668349D01*
X82695195Y-168763731D01*
X82695180Y-168763738D01*
X82479316Y-168888367D01*
X82281565Y-169040107D01*
X82281558Y-169040113D01*
X82105313Y-169216358D01*
X82105307Y-169216365D01*
X81953567Y-169414116D01*
X81828938Y-169629980D01*
X81828931Y-169629995D01*
X81733549Y-169860270D01*
X81669034Y-170101043D01*
X81642939Y-170299258D01*
X81614673Y-170363155D01*
X81556348Y-170401626D01*
X81486483Y-170402457D01*
X81427260Y-170365385D01*
X81397481Y-170302179D01*
X81397061Y-170299258D01*
X81370965Y-170101043D01*
X81370965Y-170101040D01*
X81306451Y-169860271D01*
X81211063Y-169629984D01*
X81184963Y-169584778D01*
X81086432Y-169414116D01*
X80934692Y-169216365D01*
X80934686Y-169216358D01*
X80758441Y-169040113D01*
X80758434Y-169040107D01*
X80560683Y-168888367D01*
X80344819Y-168763738D01*
X80344804Y-168763731D01*
X80114529Y-168668349D01*
X79873756Y-168603834D01*
X79626641Y-168571301D01*
X79626636Y-168571300D01*
X79626631Y-168571300D01*
X79377369Y-168571300D01*
X79377363Y-168571300D01*
X79377358Y-168571301D01*
X79130243Y-168603834D01*
X78889470Y-168668349D01*
X78659195Y-168763731D01*
X78659180Y-168763738D01*
X78443316Y-168888367D01*
X78245565Y-169040107D01*
X78245558Y-169040113D01*
X78069313Y-169216358D01*
X78069307Y-169216365D01*
X77917567Y-169414116D01*
X77792938Y-169629980D01*
X77792931Y-169629995D01*
X77697549Y-169860270D01*
X77633034Y-170101043D01*
X77600501Y-170348158D01*
X77600500Y-170348175D01*
X77600500Y-170597424D01*
X77600501Y-170597441D01*
X77633034Y-170844556D01*
X77697549Y-171085329D01*
X77792931Y-171315604D01*
X77792938Y-171315619D01*
X77917567Y-171531483D01*
X78069307Y-171729234D01*
X78069313Y-171729241D01*
X78245558Y-171905486D01*
X78245565Y-171905492D01*
X78443318Y-172057234D01*
X78443320Y-172057235D01*
X78529710Y-172107112D01*
X78577926Y-172157678D01*
X78591150Y-172226285D01*
X78565182Y-172291150D01*
X78508268Y-172331679D01*
X78467711Y-172338499D01*
X76317289Y-172338499D01*
X76250250Y-172318814D01*
X76204495Y-172266010D01*
X76194551Y-172196852D01*
X76223576Y-172133296D01*
X76255290Y-172107112D01*
X76341679Y-172057235D01*
X76341681Y-172057234D01*
X76499325Y-171936269D01*
X76539436Y-171905491D01*
X76715691Y-171729236D01*
X76867432Y-171531484D01*
X76992063Y-171315616D01*
X77087451Y-171085329D01*
X77151965Y-170844560D01*
X77184500Y-170597431D01*
X77184500Y-170348169D01*
X77151965Y-170101040D01*
X77087451Y-169860271D01*
X76992063Y-169629984D01*
X76965963Y-169584778D01*
X76867432Y-169414116D01*
X76715692Y-169216365D01*
X76715686Y-169216358D01*
X76539441Y-169040113D01*
X76539434Y-169040107D01*
X76341683Y-168888367D01*
X76125819Y-168763738D01*
X76125804Y-168763731D01*
X75895529Y-168668349D01*
X75654756Y-168603834D01*
X75407641Y-168571301D01*
X75407636Y-168571300D01*
X75407631Y-168571300D01*
X75158369Y-168571300D01*
X75158363Y-168571300D01*
X75158358Y-168571301D01*
X74911243Y-168603834D01*
X74670470Y-168668349D01*
X74440195Y-168763731D01*
X74440180Y-168763738D01*
X74224316Y-168888367D01*
X74026565Y-169040107D01*
X74026558Y-169040113D01*
X73850313Y-169216358D01*
X73850307Y-169216365D01*
X73698567Y-169414116D01*
X73573938Y-169629980D01*
X73573931Y-169629995D01*
X73478549Y-169860270D01*
X73414034Y-170101043D01*
X73387939Y-170299258D01*
X73359673Y-170363155D01*
X73301348Y-170401626D01*
X73231483Y-170402457D01*
X73172260Y-170365385D01*
X73142481Y-170302179D01*
X73142061Y-170299258D01*
X73115965Y-170101043D01*
X73115965Y-170101040D01*
X73051451Y-169860271D01*
X72956063Y-169629984D01*
X72929963Y-169584778D01*
X72831432Y-169414116D01*
X72679692Y-169216365D01*
X72679686Y-169216358D01*
X72503441Y-169040113D01*
X72503434Y-169040107D01*
X72305683Y-168888367D01*
X72089819Y-168763738D01*
X72089804Y-168763731D01*
X71859529Y-168668349D01*
X71618756Y-168603834D01*
X71371641Y-168571301D01*
X71371636Y-168571300D01*
X71371631Y-168571300D01*
X71122369Y-168571300D01*
X71122363Y-168571300D01*
X71122358Y-168571301D01*
X70875243Y-168603834D01*
X70634470Y-168668349D01*
X70404195Y-168763731D01*
X70404180Y-168763738D01*
X70188316Y-168888367D01*
X69990565Y-169040107D01*
X69990558Y-169040113D01*
X69814313Y-169216358D01*
X69814307Y-169216365D01*
X69662567Y-169414116D01*
X69537938Y-169629980D01*
X69537931Y-169629995D01*
X69442549Y-169860270D01*
X69378034Y-170101043D01*
X69345501Y-170348158D01*
X69345500Y-170348175D01*
X69345500Y-170597424D01*
X69345501Y-170597441D01*
X69378034Y-170844556D01*
X69442549Y-171085329D01*
X69537931Y-171315604D01*
X69537938Y-171315619D01*
X69662567Y-171531483D01*
X69814307Y-171729234D01*
X69814313Y-171729241D01*
X69990558Y-171905486D01*
X69990565Y-171905492D01*
X70188318Y-172057234D01*
X70188320Y-172057235D01*
X70274710Y-172107112D01*
X70322926Y-172157678D01*
X70336150Y-172226285D01*
X70310182Y-172291150D01*
X70253268Y-172331679D01*
X70212711Y-172338499D01*
X66043050Y-172338499D01*
X66036966Y-172338350D01*
X65710030Y-172322289D01*
X65697919Y-172321096D01*
X65377156Y-172273515D01*
X65365221Y-172271141D01*
X65050662Y-172192348D01*
X65039018Y-172188816D01*
X64733700Y-172079571D01*
X64722471Y-172074920D01*
X64429317Y-171936269D01*
X64418590Y-171930534D01*
X64140448Y-171763823D01*
X64130346Y-171757074D01*
X63869860Y-171563883D01*
X63860471Y-171556177D01*
X63620189Y-171338399D01*
X63611600Y-171329810D01*
X63393817Y-171089522D01*
X63386118Y-171080142D01*
X63192922Y-170819648D01*
X63186175Y-170809550D01*
X63019460Y-170531402D01*
X63013736Y-170520694D01*
X62875076Y-170227521D01*
X62870432Y-170216309D01*
X62761178Y-169910966D01*
X62757651Y-169899337D01*
X62750470Y-169870670D01*
X62678855Y-169584765D01*
X62676484Y-169572843D01*
X62667370Y-169511404D01*
X62628902Y-169252078D01*
X62627710Y-169239968D01*
X62626550Y-169216365D01*
X62611649Y-168913032D01*
X62611575Y-168910005D01*
X63621728Y-168910005D01*
X63640795Y-169213079D01*
X63640796Y-169213086D01*
X63697703Y-169511404D01*
X63791548Y-169800226D01*
X63791550Y-169800231D01*
X63920850Y-170075007D01*
X63920856Y-170075018D01*
X64083575Y-170331423D01*
X64083578Y-170331427D01*
X64277152Y-170565417D01*
X64277154Y-170565419D01*
X64498533Y-170773309D01*
X64498543Y-170773317D01*
X64744213Y-170951807D01*
X64744219Y-170951810D01*
X64744225Y-170951815D01*
X65010350Y-171098118D01*
X65010351Y-171098118D01*
X65010356Y-171098121D01*
X65010359Y-171098122D01*
X65280125Y-171204929D01*
X65292713Y-171209913D01*
X65586861Y-171285438D01*
X65650066Y-171293422D01*
X65888143Y-171323499D01*
X65888152Y-171323499D01*
X65888155Y-171323500D01*
X65888157Y-171323500D01*
X66191843Y-171323500D01*
X66191845Y-171323500D01*
X66191848Y-171323499D01*
X66191856Y-171323499D01*
X66371639Y-171300786D01*
X66493139Y-171285438D01*
X66787287Y-171209913D01*
X67069640Y-171098122D01*
X67069643Y-171098121D01*
X67069644Y-171098120D01*
X67069650Y-171098118D01*
X67335775Y-170951815D01*
X67581465Y-170773311D01*
X67802844Y-170565421D01*
X67996423Y-170331425D01*
X68159148Y-170075011D01*
X68288452Y-169800225D01*
X68382298Y-169511400D01*
X68439203Y-169213090D01*
X68450086Y-169040109D01*
X68458272Y-168910005D01*
X68458272Y-168909994D01*
X68439204Y-168606920D01*
X68439203Y-168606913D01*
X68439203Y-168606910D01*
X68382298Y-168308600D01*
X68288452Y-168019775D01*
X68159148Y-167744989D01*
X67996423Y-167488575D01*
X67996421Y-167488572D01*
X67802847Y-167254582D01*
X67802845Y-167254580D01*
X67581466Y-167046690D01*
X67581456Y-167046682D01*
X67335786Y-166868192D01*
X67335768Y-166868181D01*
X67069643Y-166721878D01*
X67069640Y-166721877D01*
X66787291Y-166610088D01*
X66759270Y-166602893D01*
X66493139Y-166534562D01*
X66493136Y-166534561D01*
X66493129Y-166534560D01*
X66191856Y-166496500D01*
X66191845Y-166496500D01*
X65888155Y-166496500D01*
X65888143Y-166496500D01*
X65586870Y-166534560D01*
X65586861Y-166534562D01*
X65292708Y-166610088D01*
X65010359Y-166721877D01*
X65010356Y-166721878D01*
X64744231Y-166868181D01*
X64744213Y-166868192D01*
X64498543Y-167046682D01*
X64498533Y-167046690D01*
X64277154Y-167254580D01*
X64277152Y-167254582D01*
X64083578Y-167488572D01*
X64083575Y-167488576D01*
X63920856Y-167744981D01*
X63920850Y-167744992D01*
X63791550Y-168019768D01*
X63791548Y-168019773D01*
X63697703Y-168308595D01*
X63640796Y-168606913D01*
X63640795Y-168606920D01*
X63621728Y-168909994D01*
X63621728Y-168910005D01*
X62611575Y-168910005D01*
X62611500Y-168906948D01*
X62611500Y-160772804D01*
X69463513Y-160772804D01*
X69483432Y-161038612D01*
X69483433Y-161038615D01*
X69542748Y-161298492D01*
X69640134Y-161546626D01*
X69773414Y-161777474D01*
X69888741Y-161922089D01*
X69939615Y-161985883D01*
X70124074Y-162157035D01*
X70135014Y-162167186D01*
X70355257Y-162317345D01*
X70595415Y-162432999D01*
X70595416Y-162432999D01*
X70595419Y-162433001D01*
X70850137Y-162511571D01*
X71113720Y-162551300D01*
X71113721Y-162551300D01*
X71380279Y-162551300D01*
X71380280Y-162551300D01*
X71643863Y-162511571D01*
X71898581Y-162433001D01*
X72138744Y-162317345D01*
X72358986Y-162167186D01*
X72554388Y-161985879D01*
X72713726Y-161786076D01*
X73504500Y-161786076D01*
X73519824Y-161922089D01*
X73542146Y-161985879D01*
X73580169Y-162094541D01*
X73677372Y-162249239D01*
X73806561Y-162378428D01*
X73961259Y-162475631D01*
X74133707Y-162535974D01*
X74133710Y-162535975D01*
X74236813Y-162547591D01*
X74269724Y-162551299D01*
X74269727Y-162551300D01*
X74269730Y-162551300D01*
X76296273Y-162551300D01*
X76296274Y-162551299D01*
X76346733Y-162545614D01*
X76432289Y-162535975D01*
X76432291Y-162535974D01*
X76432293Y-162535974D01*
X76604741Y-162475631D01*
X76759439Y-162378428D01*
X76888628Y-162249239D01*
X76985831Y-162094541D01*
X77046174Y-161922093D01*
X77046174Y-161922091D01*
X77046175Y-161922089D01*
X77061499Y-161786076D01*
X77061500Y-161786072D01*
X77061500Y-160772804D01*
X77718513Y-160772804D01*
X77738432Y-161038612D01*
X77738433Y-161038615D01*
X77797748Y-161298492D01*
X77895134Y-161546626D01*
X78028414Y-161777474D01*
X78143741Y-161922089D01*
X78194615Y-161985883D01*
X78379074Y-162157035D01*
X78390014Y-162167186D01*
X78610257Y-162317345D01*
X78850415Y-162432999D01*
X78850416Y-162432999D01*
X78850419Y-162433001D01*
X79105137Y-162511571D01*
X79368720Y-162551300D01*
X79368721Y-162551300D01*
X79635279Y-162551300D01*
X79635280Y-162551300D01*
X79898863Y-162511571D01*
X80153581Y-162433001D01*
X80393744Y-162317345D01*
X80613986Y-162167186D01*
X80809388Y-161985879D01*
X80968726Y-161786076D01*
X81759500Y-161786076D01*
X81774824Y-161922089D01*
X81797146Y-161985879D01*
X81835169Y-162094541D01*
X81932372Y-162249239D01*
X82061561Y-162378428D01*
X82216259Y-162475631D01*
X82388707Y-162535974D01*
X82388710Y-162535975D01*
X82491813Y-162547591D01*
X82524724Y-162551299D01*
X82524727Y-162551300D01*
X82524730Y-162551300D01*
X84551273Y-162551300D01*
X84551274Y-162551299D01*
X84601733Y-162545614D01*
X84687289Y-162535975D01*
X84687291Y-162535974D01*
X84687293Y-162535974D01*
X84859741Y-162475631D01*
X85014439Y-162378428D01*
X85143628Y-162249239D01*
X85240831Y-162094541D01*
X85301174Y-161922093D01*
X85301174Y-161922091D01*
X85301175Y-161922089D01*
X85316499Y-161786076D01*
X85316500Y-161786072D01*
X85316500Y-159759527D01*
X85316499Y-159759523D01*
X85301175Y-159623510D01*
X85240831Y-159451060D01*
X85240829Y-159451056D01*
X85143627Y-159296360D01*
X85014439Y-159167172D01*
X84859743Y-159069970D01*
X84859739Y-159069968D01*
X84687289Y-159009624D01*
X84551276Y-158994300D01*
X84551270Y-158994300D01*
X82524730Y-158994300D01*
X82524723Y-158994300D01*
X82388710Y-159009624D01*
X82216260Y-159069968D01*
X82216256Y-159069970D01*
X82061560Y-159167172D01*
X81932372Y-159296360D01*
X81835170Y-159451056D01*
X81835168Y-159451060D01*
X81774824Y-159623510D01*
X81759500Y-159759523D01*
X81759500Y-161786076D01*
X80968726Y-161786076D01*
X80975586Y-161777474D01*
X81108866Y-161546626D01*
X81206252Y-161298492D01*
X81265567Y-161038615D01*
X81285487Y-160772800D01*
X81265567Y-160506985D01*
X81206252Y-160247108D01*
X81108866Y-159998974D01*
X80975586Y-159768126D01*
X80809388Y-159559721D01*
X80809387Y-159559720D01*
X80809384Y-159559716D01*
X80613986Y-159378414D01*
X80393744Y-159228255D01*
X80393740Y-159228253D01*
X80393737Y-159228251D01*
X80393736Y-159228250D01*
X80153583Y-159112600D01*
X80153585Y-159112600D01*
X79898871Y-159034031D01*
X79898867Y-159034030D01*
X79898863Y-159034029D01*
X79772074Y-159014918D01*
X79635285Y-158994300D01*
X79635280Y-158994300D01*
X79368720Y-158994300D01*
X79368714Y-158994300D01*
X79204566Y-159019042D01*
X79105137Y-159034029D01*
X79105134Y-159034030D01*
X79105128Y-159034031D01*
X78850415Y-159112600D01*
X78610265Y-159228250D01*
X78610263Y-159228251D01*
X78390013Y-159378414D01*
X78194615Y-159559716D01*
X78028414Y-159768126D01*
X77895134Y-159998973D01*
X77797750Y-160247102D01*
X77797745Y-160247119D01*
X77738432Y-160506987D01*
X77718513Y-160772795D01*
X77718513Y-160772804D01*
X77061500Y-160772804D01*
X77061500Y-159759527D01*
X77061499Y-159759523D01*
X77046175Y-159623510D01*
X76985831Y-159451060D01*
X76985829Y-159451056D01*
X76888627Y-159296360D01*
X76759439Y-159167172D01*
X76604743Y-159069970D01*
X76604739Y-159069968D01*
X76432289Y-159009624D01*
X76296276Y-158994300D01*
X76296270Y-158994300D01*
X74269730Y-158994300D01*
X74269723Y-158994300D01*
X74133710Y-159009624D01*
X73961260Y-159069968D01*
X73961256Y-159069970D01*
X73806560Y-159167172D01*
X73677372Y-159296360D01*
X73580170Y-159451056D01*
X73580168Y-159451060D01*
X73519824Y-159623510D01*
X73504500Y-159759523D01*
X73504500Y-161786076D01*
X72713726Y-161786076D01*
X72720586Y-161777474D01*
X72853866Y-161546626D01*
X72951252Y-161298492D01*
X73010567Y-161038615D01*
X73030487Y-160772800D01*
X73010567Y-160506985D01*
X72951252Y-160247108D01*
X72853866Y-159998974D01*
X72720586Y-159768126D01*
X72554388Y-159559721D01*
X72554387Y-159559720D01*
X72554384Y-159559716D01*
X72358986Y-159378414D01*
X72138744Y-159228255D01*
X72138740Y-159228253D01*
X72138737Y-159228251D01*
X72138736Y-159228250D01*
X71898583Y-159112600D01*
X71898585Y-159112600D01*
X71643871Y-159034031D01*
X71643867Y-159034030D01*
X71643863Y-159034029D01*
X71517074Y-159014918D01*
X71380285Y-158994300D01*
X71380280Y-158994300D01*
X71113720Y-158994300D01*
X71113714Y-158994300D01*
X70949566Y-159019042D01*
X70850137Y-159034029D01*
X70850134Y-159034030D01*
X70850128Y-159034031D01*
X70595415Y-159112600D01*
X70355265Y-159228250D01*
X70355263Y-159228251D01*
X70135013Y-159378414D01*
X69939615Y-159559716D01*
X69773414Y-159768126D01*
X69640134Y-159998973D01*
X69542750Y-160247102D01*
X69542745Y-160247119D01*
X69483432Y-160506987D01*
X69463513Y-160772795D01*
X69463513Y-160772804D01*
X62611500Y-160772804D01*
X62611500Y-95336501D01*
X62631185Y-95269462D01*
X62683989Y-95223707D01*
X62753147Y-95213763D01*
X62816703Y-95242788D01*
X62838600Y-95267608D01*
X62859075Y-95298250D01*
X62860966Y-95301168D01*
X62900081Y-95363419D01*
X63021581Y-95484919D01*
X63083814Y-95524022D01*
X63086724Y-95525908D01*
X63138821Y-95560718D01*
X63139116Y-95560840D01*
X63157628Y-95570403D01*
X63167070Y-95576336D01*
X63167072Y-95576337D01*
X63205296Y-95589711D01*
X63224701Y-95596501D01*
X63231198Y-95598982D01*
X63277578Y-95618194D01*
X63277582Y-95618195D01*
X63277587Y-95618197D01*
X63290174Y-95620700D01*
X63306917Y-95625271D01*
X63329254Y-95633087D01*
X63377559Y-95638528D01*
X63387840Y-95640127D01*
X63424900Y-95647500D01*
X63450215Y-95647500D01*
X63464099Y-95648280D01*
X63499998Y-95652325D01*
X63500000Y-95652325D01*
X63500002Y-95652325D01*
X63535901Y-95648280D01*
X63549785Y-95647500D01*
X63575103Y-95647500D01*
X63606974Y-95641159D01*
X63612139Y-95640131D01*
X63622439Y-95638528D01*
X63670746Y-95633087D01*
X63693080Y-95625271D01*
X63709831Y-95620699D01*
X63722413Y-95618197D01*
X63768825Y-95598971D01*
X63775292Y-95596503D01*
X63799732Y-95587951D01*
X63832928Y-95576337D01*
X63832930Y-95576336D01*
X63842364Y-95570407D01*
X63860895Y-95560835D01*
X63861179Y-95560718D01*
X63913309Y-95525884D01*
X63916105Y-95524072D01*
X63978419Y-95484919D01*
X63978421Y-95484916D01*
X63978427Y-95484913D01*
X63979532Y-95484032D01*
X63980381Y-95483685D01*
X63984316Y-95481213D01*
X63984748Y-95481902D01*
X64044218Y-95457623D01*
X64097794Y-95463936D01*
X64113694Y-95469499D01*
X64120182Y-95471975D01*
X64166587Y-95491197D01*
X64179157Y-95493696D01*
X64195927Y-95498274D01*
X64218257Y-95506088D01*
X64266561Y-95511530D01*
X64276862Y-95513131D01*
X64313900Y-95520499D01*
X64339206Y-95520499D01*
X64353090Y-95521279D01*
X64388998Y-95525325D01*
X64389000Y-95525325D01*
X64389002Y-95525325D01*
X64424910Y-95521279D01*
X64438794Y-95520499D01*
X64464102Y-95520499D01*
X64475473Y-95518236D01*
X64501144Y-95513129D01*
X64511420Y-95511531D01*
X64559746Y-95506087D01*
X64582073Y-95498273D01*
X64598832Y-95493698D01*
X64611413Y-95491197D01*
X64657837Y-95471966D01*
X64664260Y-95469514D01*
X64721930Y-95449336D01*
X64731364Y-95443407D01*
X64749895Y-95433835D01*
X64750179Y-95433718D01*
X64802322Y-95398875D01*
X64805153Y-95397042D01*
X64829167Y-95381954D01*
X64858666Y-95363419D01*
X64867418Y-95357920D01*
X64867421Y-95357918D01*
X64988918Y-95236421D01*
X64988920Y-95236418D01*
X65028042Y-95174153D01*
X65029875Y-95171322D01*
X65064718Y-95119179D01*
X65064835Y-95118895D01*
X65074409Y-95100362D01*
X65080336Y-95090930D01*
X65100514Y-95033260D01*
X65102966Y-95026837D01*
X65122197Y-94980413D01*
X65124698Y-94967832D01*
X65129273Y-94951073D01*
X65137087Y-94928746D01*
X65142531Y-94880420D01*
X65144129Y-94870144D01*
X65151499Y-94833100D01*
X65151499Y-94807793D01*
X65152279Y-94793908D01*
X65156325Y-94758001D01*
X65156325Y-94757998D01*
X65152279Y-94722090D01*
X65151499Y-94708206D01*
X65151499Y-94682900D01*
X65144133Y-94645873D01*
X65142530Y-94635561D01*
X65137088Y-94587257D01*
X65129274Y-94564927D01*
X65124696Y-94548154D01*
X65122198Y-94535592D01*
X65122197Y-94535591D01*
X65122197Y-94535587D01*
X65102975Y-94489182D01*
X65100500Y-94482697D01*
X65080337Y-94425072D01*
X65080336Y-94425070D01*
X65074403Y-94415628D01*
X65064840Y-94397116D01*
X65064718Y-94396821D01*
X65029908Y-94344724D01*
X65028022Y-94341814D01*
X64988919Y-94279581D01*
X64959219Y-94249881D01*
X64925734Y-94188558D01*
X64922900Y-94162200D01*
X64922900Y-89913982D01*
X64942585Y-89846943D01*
X64995389Y-89801188D01*
X65064547Y-89791244D01*
X65128103Y-89820269D01*
X65151894Y-89848010D01*
X65186081Y-89902419D01*
X65307580Y-90023918D01*
X65307583Y-90023920D01*
X65369814Y-90063022D01*
X65372724Y-90064908D01*
X65424821Y-90099718D01*
X65425116Y-90099840D01*
X65443628Y-90109403D01*
X65453070Y-90115336D01*
X65453072Y-90115337D01*
X65510697Y-90135500D01*
X65517198Y-90137982D01*
X65563578Y-90157194D01*
X65563582Y-90157195D01*
X65563587Y-90157197D01*
X65576174Y-90159700D01*
X65592916Y-90164270D01*
X65600855Y-90167048D01*
X65657630Y-90207768D01*
X65683378Y-90272720D01*
X65683900Y-90284089D01*
X65683900Y-107667453D01*
X65664215Y-107734492D01*
X65611411Y-107780247D01*
X65542253Y-107790191D01*
X65478697Y-107761166D01*
X65449514Y-107720699D01*
X65448590Y-107721194D01*
X65445719Y-107715823D01*
X65410914Y-107663734D01*
X65409022Y-107660814D01*
X65369920Y-107598583D01*
X65369918Y-107598580D01*
X65248419Y-107477081D01*
X65186168Y-107437966D01*
X65183249Y-107436074D01*
X65131181Y-107401283D01*
X65131174Y-107401280D01*
X65130870Y-107401154D01*
X65112372Y-107391596D01*
X65107441Y-107388498D01*
X65102929Y-107385663D01*
X65067836Y-107373384D01*
X65045290Y-107365494D01*
X65038805Y-107363019D01*
X64992414Y-107343803D01*
X64992407Y-107343801D01*
X64979823Y-107341297D01*
X64963072Y-107336725D01*
X64940746Y-107328913D01*
X64940744Y-107328912D01*
X64940742Y-107328912D01*
X64940739Y-107328911D01*
X64892450Y-107323471D01*
X64882145Y-107321868D01*
X64862114Y-107317884D01*
X64845101Y-107314500D01*
X64845100Y-107314500D01*
X64819785Y-107314500D01*
X64805901Y-107313720D01*
X64770002Y-107309675D01*
X64769998Y-107309675D01*
X64734099Y-107313720D01*
X64720215Y-107314500D01*
X64694896Y-107314500D01*
X64657856Y-107321868D01*
X64647548Y-107323471D01*
X64599260Y-107328911D01*
X64599255Y-107328912D01*
X64576917Y-107336728D01*
X64560165Y-107341300D01*
X64547588Y-107343802D01*
X64547587Y-107343802D01*
X64501202Y-107363015D01*
X64494709Y-107365494D01*
X64437067Y-107385664D01*
X64427622Y-107391599D01*
X64409130Y-107401154D01*
X64408825Y-107401280D01*
X64408823Y-107401280D01*
X64408821Y-107401282D01*
X64356750Y-107436074D01*
X64356731Y-107436087D01*
X64353814Y-107437977D01*
X64291581Y-107477080D01*
X64170080Y-107598581D01*
X64130977Y-107660814D01*
X64129091Y-107663723D01*
X64094282Y-107715821D01*
X64094280Y-107715823D01*
X64094280Y-107715825D01*
X64094154Y-107716130D01*
X64084599Y-107734622D01*
X64078664Y-107744067D01*
X64058494Y-107801709D01*
X64056015Y-107808202D01*
X64036802Y-107854587D01*
X64036802Y-107854588D01*
X64034300Y-107867165D01*
X64029728Y-107883917D01*
X64021912Y-107906255D01*
X64021911Y-107906260D01*
X64016471Y-107954548D01*
X64014868Y-107964856D01*
X64007500Y-108001896D01*
X64007500Y-108027214D01*
X64006720Y-108041098D01*
X64002675Y-108076998D01*
X64002675Y-108077001D01*
X64006720Y-108112899D01*
X64007500Y-108126784D01*
X64007500Y-113583214D01*
X64006719Y-113597098D01*
X64002675Y-113633000D01*
X64006708Y-113668799D01*
X64006720Y-113668899D01*
X64007500Y-113682784D01*
X64007500Y-122981214D01*
X64006720Y-122995098D01*
X64002675Y-123030998D01*
X64002675Y-123031001D01*
X64006720Y-123066899D01*
X64007500Y-123080784D01*
X64007500Y-131522214D01*
X64006720Y-131536098D01*
X64002675Y-131571998D01*
X64002675Y-131572001D01*
X64006720Y-131607899D01*
X64007500Y-131621784D01*
X64007500Y-131647101D01*
X64014868Y-131684140D01*
X64016471Y-131694450D01*
X64021911Y-131742739D01*
X64021912Y-131742742D01*
X64029725Y-131765072D01*
X64034297Y-131781823D01*
X64036801Y-131794407D01*
X64036803Y-131794414D01*
X64056019Y-131840805D01*
X64058494Y-131847290D01*
X64066384Y-131869836D01*
X64078663Y-131904929D01*
X64084595Y-131914369D01*
X64094156Y-131932874D01*
X64094283Y-131933181D01*
X64094283Y-131933182D01*
X64129074Y-131985249D01*
X64130966Y-131988168D01*
X64170081Y-132050419D01*
X64291580Y-132171918D01*
X64291583Y-132171920D01*
X64353814Y-132211022D01*
X64356724Y-132212908D01*
X64408821Y-132247718D01*
X64409116Y-132247840D01*
X64427628Y-132257403D01*
X64437070Y-132263336D01*
X64437072Y-132263337D01*
X64475296Y-132276711D01*
X64494701Y-132283501D01*
X64501198Y-132285982D01*
X64547578Y-132305194D01*
X64547582Y-132305195D01*
X64547587Y-132305197D01*
X64560174Y-132307700D01*
X64576917Y-132312271D01*
X64599254Y-132320087D01*
X64647559Y-132325528D01*
X64657840Y-132327127D01*
X64694900Y-132334500D01*
X64720215Y-132334500D01*
X64734099Y-132335280D01*
X64769998Y-132339325D01*
X64770000Y-132339325D01*
X64770002Y-132339325D01*
X64805901Y-132335280D01*
X64819785Y-132334500D01*
X64845103Y-132334500D01*
X64874642Y-132328622D01*
X64882139Y-132327131D01*
X64892439Y-132325528D01*
X64940746Y-132320087D01*
X64963080Y-132312271D01*
X64979831Y-132307699D01*
X64992413Y-132305197D01*
X65038825Y-132285971D01*
X65045292Y-132283503D01*
X65069732Y-132274951D01*
X65102928Y-132263337D01*
X65112362Y-132257409D01*
X65130895Y-132247835D01*
X65131179Y-132247718D01*
X65183322Y-132212875D01*
X65186153Y-132211042D01*
X65248418Y-132171920D01*
X65248421Y-132171918D01*
X65369918Y-132050421D01*
X65369920Y-132050418D01*
X65409042Y-131988153D01*
X65410875Y-131985322D01*
X65445718Y-131933179D01*
X65445719Y-131933174D01*
X65448593Y-131927800D01*
X65449865Y-131928480D01*
X65489173Y-131879695D01*
X65555466Y-131857626D01*
X65623167Y-131874901D01*
X65670780Y-131926035D01*
X65683900Y-131981547D01*
X65683900Y-139993926D01*
X65683900Y-139993928D01*
X65683899Y-139993928D01*
X65713201Y-140141233D01*
X65713203Y-140141239D01*
X65770681Y-140280003D01*
X65854130Y-140404895D01*
X65854131Y-140404896D01*
X67750681Y-142301445D01*
X67784166Y-142362768D01*
X67787000Y-142389126D01*
X67787000Y-147269866D01*
X67767315Y-147336905D01*
X67741111Y-147364180D01*
X67742058Y-147365309D01*
X67737913Y-147368786D01*
X67582289Y-147524410D01*
X67456052Y-147704697D01*
X67456051Y-147704699D01*
X67363040Y-147904162D01*
X67363036Y-147904171D01*
X67306078Y-148116745D01*
X67306076Y-148116755D01*
X67286895Y-148335999D01*
X67286895Y-148336000D01*
X67306076Y-148555244D01*
X67306078Y-148555254D01*
X67363036Y-148767828D01*
X67363038Y-148767832D01*
X67363039Y-148767836D01*
X67456052Y-148967303D01*
X67456054Y-148967307D01*
X67582288Y-149147588D01*
X67737911Y-149303211D01*
X67918192Y-149429445D01*
X67918194Y-149429446D01*
X67918197Y-149429448D01*
X68055810Y-149493618D01*
X68108249Y-149539790D01*
X68127401Y-149606984D01*
X68107185Y-149673865D01*
X68055810Y-149718382D01*
X67918199Y-149782551D01*
X67918197Y-149782552D01*
X67737910Y-149908789D01*
X67582289Y-150064410D01*
X67456052Y-150244697D01*
X67456051Y-150244699D01*
X67363040Y-150444162D01*
X67363036Y-150444171D01*
X67306078Y-150656745D01*
X67306076Y-150656755D01*
X67286895Y-150875999D01*
X67286895Y-150876000D01*
X67306076Y-151095244D01*
X67306078Y-151095254D01*
X67363036Y-151307828D01*
X67363038Y-151307832D01*
X67363039Y-151307836D01*
X67456052Y-151507303D01*
X67456054Y-151507307D01*
X67582288Y-151687588D01*
X67737911Y-151843211D01*
X67918192Y-151969445D01*
X67918194Y-151969446D01*
X67918197Y-151969448D01*
X68055810Y-152033618D01*
X68108249Y-152079790D01*
X68127401Y-152146984D01*
X68107185Y-152213865D01*
X68055810Y-152258382D01*
X67918199Y-152322551D01*
X67918197Y-152322552D01*
X67737910Y-152448789D01*
X67582289Y-152604410D01*
X67456052Y-152784697D01*
X67456051Y-152784699D01*
X67363040Y-152984162D01*
X67363036Y-152984171D01*
X67306078Y-153196745D01*
X67306076Y-153196755D01*
X67286895Y-153415999D01*
X67286895Y-153416000D01*
X67306076Y-153635244D01*
X67306078Y-153635254D01*
X67363036Y-153847828D01*
X67363038Y-153847832D01*
X67363039Y-153847836D01*
X67456052Y-154047303D01*
X67456054Y-154047307D01*
X67582288Y-154227588D01*
X67737911Y-154383211D01*
X67918192Y-154509445D01*
X67918194Y-154509446D01*
X67918197Y-154509448D01*
X68117664Y-154602461D01*
X68330251Y-154659423D01*
X68505650Y-154674768D01*
X68549499Y-154678605D01*
X68549500Y-154678605D01*
X68549501Y-154678605D01*
X68586041Y-154675408D01*
X68768749Y-154659423D01*
X68981336Y-154602461D01*
X69180803Y-154509448D01*
X69361087Y-154383212D01*
X69516712Y-154227587D01*
X69642948Y-154047303D01*
X69735961Y-153847836D01*
X69792923Y-153635249D01*
X69812105Y-153416000D01*
X69792923Y-153196751D01*
X69735961Y-152984164D01*
X69642948Y-152784698D01*
X69516712Y-152604413D01*
X69516710Y-152604410D01*
X69361088Y-152448788D01*
X69180807Y-152322554D01*
X69180803Y-152322552D01*
X69180801Y-152322551D01*
X69043187Y-152258381D01*
X68990750Y-152212210D01*
X68971598Y-152145016D01*
X68991814Y-152078135D01*
X69043187Y-152033619D01*
X69180803Y-151969448D01*
X69361087Y-151843212D01*
X69516712Y-151687587D01*
X69642948Y-151507303D01*
X69735961Y-151307836D01*
X69792923Y-151095249D01*
X69812105Y-150876000D01*
X69792923Y-150656751D01*
X69735961Y-150444164D01*
X69642948Y-150244698D01*
X69516712Y-150064413D01*
X69516710Y-150064410D01*
X69361088Y-149908788D01*
X69180807Y-149782554D01*
X69180803Y-149782552D01*
X69180801Y-149782551D01*
X69043187Y-149718381D01*
X68990750Y-149672210D01*
X68971598Y-149605016D01*
X68991814Y-149538135D01*
X69043187Y-149493619D01*
X69180803Y-149429448D01*
X69361087Y-149303212D01*
X69516712Y-149147587D01*
X69642948Y-148967303D01*
X69735961Y-148767836D01*
X69792923Y-148555249D01*
X69812105Y-148336000D01*
X69792923Y-148116751D01*
X69735961Y-147904164D01*
X69642948Y-147704698D01*
X69516712Y-147524413D01*
X69361087Y-147368788D01*
X69361083Y-147368785D01*
X69356937Y-147365306D01*
X69358480Y-147363466D01*
X69321219Y-147316785D01*
X69312000Y-147269866D01*
X69312000Y-141946823D01*
X69282698Y-141799519D01*
X69282697Y-141799513D01*
X69265862Y-141758869D01*
X69225219Y-141660747D01*
X69141773Y-141535861D01*
X69141770Y-141535857D01*
X67245219Y-139639306D01*
X67211734Y-139577983D01*
X67208900Y-139551625D01*
X67208900Y-137539000D01*
X87382526Y-137539000D01*
X87402391Y-137791406D01*
X87461495Y-138037593D01*
X87558383Y-138271502D01*
X87690668Y-138487370D01*
X87690669Y-138487372D01*
X87690670Y-138487374D01*
X87690672Y-138487376D01*
X87855102Y-138679898D01*
X88047624Y-138844328D01*
X88047626Y-138844329D01*
X88047627Y-138844330D01*
X88047629Y-138844331D01*
X88263497Y-138976616D01*
X88497406Y-139073504D01*
X88497407Y-139073504D01*
X88497409Y-139073505D01*
X88743597Y-139132609D01*
X88996000Y-139152474D01*
X89248403Y-139132609D01*
X89494591Y-139073505D01*
X89728502Y-138976616D01*
X89944376Y-138844328D01*
X90136898Y-138679898D01*
X90301328Y-138487376D01*
X90433616Y-138271502D01*
X90530505Y-138037591D01*
X90589609Y-137791403D01*
X90609474Y-137539000D01*
X99382526Y-137539000D01*
X99402391Y-137791406D01*
X99461495Y-138037593D01*
X99558383Y-138271502D01*
X99690668Y-138487370D01*
X99690669Y-138487372D01*
X99690670Y-138487374D01*
X99690672Y-138487376D01*
X99855102Y-138679898D01*
X100047624Y-138844328D01*
X100047626Y-138844329D01*
X100047627Y-138844330D01*
X100047629Y-138844331D01*
X100263497Y-138976616D01*
X100497406Y-139073504D01*
X100497407Y-139073504D01*
X100497409Y-139073505D01*
X100743597Y-139132609D01*
X100996000Y-139152474D01*
X101248403Y-139132609D01*
X101494591Y-139073505D01*
X101728502Y-138976616D01*
X101944376Y-138844328D01*
X102136898Y-138679898D01*
X102301328Y-138487376D01*
X102433616Y-138271502D01*
X102530505Y-138037591D01*
X102589609Y-137791403D01*
X102609474Y-137539000D01*
X102589609Y-137286597D01*
X102530505Y-137040409D01*
X102433616Y-136806498D01*
X102433616Y-136806497D01*
X102301331Y-136590629D01*
X102301330Y-136590627D01*
X102301329Y-136590626D01*
X102301328Y-136590624D01*
X102136898Y-136398102D01*
X101944376Y-136233672D01*
X101944374Y-136233670D01*
X101944372Y-136233669D01*
X101944370Y-136233668D01*
X101728502Y-136101383D01*
X101494593Y-136004495D01*
X101248406Y-135945391D01*
X100996000Y-135925526D01*
X100743593Y-135945391D01*
X100497406Y-136004495D01*
X100263497Y-136101383D01*
X100047629Y-136233668D01*
X100047627Y-136233669D01*
X99855102Y-136398102D01*
X99690669Y-136590627D01*
X99690668Y-136590629D01*
X99558383Y-136806497D01*
X99461495Y-137040406D01*
X99402391Y-137286593D01*
X99382526Y-137539000D01*
X90609474Y-137539000D01*
X90589609Y-137286597D01*
X90530505Y-137040409D01*
X90433616Y-136806498D01*
X90433616Y-136806497D01*
X90301331Y-136590629D01*
X90301330Y-136590627D01*
X90301329Y-136590626D01*
X90301328Y-136590624D01*
X90136898Y-136398102D01*
X89944376Y-136233672D01*
X89944374Y-136233670D01*
X89944372Y-136233669D01*
X89944370Y-136233668D01*
X89728502Y-136101383D01*
X89494593Y-136004495D01*
X89248406Y-135945391D01*
X88996000Y-135925526D01*
X88743593Y-135945391D01*
X88497406Y-136004495D01*
X88263497Y-136101383D01*
X88047629Y-136233668D01*
X88047627Y-136233669D01*
X87855102Y-136398102D01*
X87690669Y-136590627D01*
X87690668Y-136590629D01*
X87558383Y-136806497D01*
X87461495Y-137040406D01*
X87402391Y-137286593D01*
X87382526Y-137539000D01*
X67208900Y-137539000D01*
X67208900Y-128900384D01*
X96379500Y-128900384D01*
X96409300Y-129050197D01*
X96409302Y-129050205D01*
X96467759Y-129191334D01*
X96467764Y-129191343D01*
X96552629Y-129318351D01*
X96552632Y-129318355D01*
X96660644Y-129426367D01*
X96660648Y-129426370D01*
X96787656Y-129511235D01*
X96787662Y-129511238D01*
X96787663Y-129511239D01*
X96928795Y-129569698D01*
X97078615Y-129599499D01*
X97078619Y-129599500D01*
X97078620Y-129599500D01*
X97231381Y-129599500D01*
X97231382Y-129599499D01*
X97381205Y-129569698D01*
X97522337Y-129511239D01*
X97649352Y-129426370D01*
X97757370Y-129318352D01*
X97842239Y-129191337D01*
X97900698Y-129050205D01*
X97930500Y-128900380D01*
X97930500Y-128747620D01*
X97900698Y-128597795D01*
X97842239Y-128456663D01*
X97842238Y-128456662D01*
X97842235Y-128456656D01*
X97757370Y-128329648D01*
X97757367Y-128329644D01*
X97649355Y-128221632D01*
X97649351Y-128221629D01*
X97522343Y-128136764D01*
X97522334Y-128136759D01*
X97381205Y-128078302D01*
X97381197Y-128078300D01*
X97231384Y-128048500D01*
X97231380Y-128048500D01*
X97078620Y-128048500D01*
X97078615Y-128048500D01*
X96928802Y-128078300D01*
X96928794Y-128078302D01*
X96787665Y-128136759D01*
X96787656Y-128136764D01*
X96660648Y-128221629D01*
X96660644Y-128221632D01*
X96552632Y-128329644D01*
X96552629Y-128329648D01*
X96467764Y-128456656D01*
X96467759Y-128456665D01*
X96409302Y-128597794D01*
X96409300Y-128597802D01*
X96379500Y-128747615D01*
X96379500Y-128900384D01*
X67208900Y-128900384D01*
X67208900Y-122552500D01*
X67228585Y-122485461D01*
X67281389Y-122439706D01*
X67332900Y-122428500D01*
X76431415Y-122428500D01*
X76445299Y-122429280D01*
X76481198Y-122433325D01*
X76481200Y-122433325D01*
X76481202Y-122433325D01*
X76517101Y-122429280D01*
X76530985Y-122428500D01*
X76556303Y-122428500D01*
X76585942Y-122422603D01*
X76593339Y-122421131D01*
X76603639Y-122419528D01*
X76651946Y-122414087D01*
X76674280Y-122406271D01*
X76691031Y-122401699D01*
X76703613Y-122399197D01*
X76750025Y-122379971D01*
X76756492Y-122377503D01*
X76780932Y-122368951D01*
X76814128Y-122357337D01*
X76823562Y-122351409D01*
X76842095Y-122341835D01*
X76842379Y-122341718D01*
X76894522Y-122306875D01*
X76897353Y-122305042D01*
X76959618Y-122265920D01*
X76959621Y-122265918D01*
X77081118Y-122144421D01*
X77081120Y-122144418D01*
X77120242Y-122082153D01*
X77122075Y-122079322D01*
X77156918Y-122027179D01*
X77157035Y-122026895D01*
X77166609Y-122008362D01*
X77172537Y-121998928D01*
X77190344Y-121948035D01*
X77192703Y-121941292D01*
X77195171Y-121934825D01*
X77214397Y-121888413D01*
X77216899Y-121875831D01*
X77221471Y-121859080D01*
X77229287Y-121836746D01*
X77234728Y-121788439D01*
X77236332Y-121778136D01*
X77243700Y-121741103D01*
X77243700Y-121715784D01*
X77244480Y-121701899D01*
X77248525Y-121666001D01*
X77248525Y-121665998D01*
X77244480Y-121630098D01*
X77243700Y-121616214D01*
X77243700Y-121590901D01*
X77243700Y-121590900D01*
X77236327Y-121553840D01*
X77234728Y-121543559D01*
X77229287Y-121495254D01*
X77221471Y-121472917D01*
X77216900Y-121456174D01*
X77214397Y-121443587D01*
X77214395Y-121443582D01*
X77214394Y-121443578D01*
X77195182Y-121397198D01*
X77192700Y-121390697D01*
X77172537Y-121333072D01*
X77172536Y-121333070D01*
X77166603Y-121323628D01*
X77157040Y-121305116D01*
X77156918Y-121304821D01*
X77122108Y-121252724D01*
X77120222Y-121249814D01*
X77081120Y-121187583D01*
X77081118Y-121187580D01*
X76959619Y-121066081D01*
X76897368Y-121026966D01*
X76894449Y-121025074D01*
X76842381Y-120990283D01*
X76842379Y-120990282D01*
X76842070Y-120990154D01*
X76823572Y-120980596D01*
X76818641Y-120977498D01*
X76814129Y-120974663D01*
X76779036Y-120962384D01*
X76756490Y-120954494D01*
X76750005Y-120952019D01*
X76703614Y-120932803D01*
X76703607Y-120932801D01*
X76691023Y-120930297D01*
X76674272Y-120925725D01*
X76651946Y-120917913D01*
X76651944Y-120917912D01*
X76651942Y-120917912D01*
X76651939Y-120917911D01*
X76603650Y-120912471D01*
X76593345Y-120910868D01*
X76573314Y-120906884D01*
X76556301Y-120903500D01*
X76556300Y-120903500D01*
X76530985Y-120903500D01*
X76517101Y-120902720D01*
X76481202Y-120898675D01*
X76481198Y-120898675D01*
X76445299Y-120902720D01*
X76431415Y-120903500D01*
X67332900Y-120903500D01*
X67265861Y-120883815D01*
X67220106Y-120831011D01*
X67208900Y-120779500D01*
X67208900Y-111376500D01*
X67228585Y-111309461D01*
X67281389Y-111263706D01*
X67332900Y-111252500D01*
X77220456Y-111252500D01*
X77287495Y-111272185D01*
X77333250Y-111324989D01*
X77343194Y-111394147D01*
X77336637Y-111419835D01*
X77293011Y-111536795D01*
X77293011Y-111536797D01*
X77286500Y-111597345D01*
X77286500Y-112994654D01*
X77293011Y-113055202D01*
X77293011Y-113055204D01*
X77319531Y-113126304D01*
X77324516Y-113195996D01*
X77291032Y-113257319D01*
X77229709Y-113290805D01*
X77160017Y-113285821D01*
X77104084Y-113243950D01*
X77104083Y-113243950D01*
X77058261Y-113182739D01*
X76941204Y-113095111D01*
X76804203Y-113044011D01*
X76743654Y-113037500D01*
X76743638Y-113037500D01*
X74546362Y-113037500D01*
X74546345Y-113037500D01*
X74485797Y-113044011D01*
X74485795Y-113044011D01*
X74348795Y-113095111D01*
X74231739Y-113182739D01*
X74144111Y-113299795D01*
X74093011Y-113436795D01*
X74093011Y-113436797D01*
X74086500Y-113497345D01*
X74086500Y-116594654D01*
X74093011Y-116655202D01*
X74093011Y-116655204D01*
X74144111Y-116792204D01*
X74231739Y-116909261D01*
X74348796Y-116996889D01*
X74485799Y-117047989D01*
X74513050Y-117050918D01*
X74546345Y-117054499D01*
X74546362Y-117054500D01*
X76743638Y-117054500D01*
X76743654Y-117054499D01*
X76770692Y-117051591D01*
X76804201Y-117047989D01*
X76941204Y-116996889D01*
X77058261Y-116909261D01*
X77145889Y-116792204D01*
X77196989Y-116655201D01*
X77200591Y-116621692D01*
X77203499Y-116594654D01*
X77203500Y-116594637D01*
X77203500Y-114064831D01*
X77223185Y-113997792D01*
X77275989Y-113952037D01*
X77345147Y-113942093D01*
X77408703Y-113971118D01*
X77446477Y-114029896D01*
X77449117Y-114040639D01*
X77461801Y-114104407D01*
X77461803Y-114104413D01*
X77511710Y-114224900D01*
X77519282Y-114243179D01*
X77602727Y-114368065D01*
X77602730Y-114368069D01*
X78507931Y-115273270D01*
X78507939Y-115273276D01*
X78632810Y-115356712D01*
X78632813Y-115356713D01*
X78632821Y-115356719D01*
X78730943Y-115397362D01*
X78771587Y-115414197D01*
X78807661Y-115421372D01*
X78918897Y-115443500D01*
X78918900Y-115443500D01*
X78918901Y-115443500D01*
X79069100Y-115443500D01*
X83788854Y-115443500D01*
X83855893Y-115463185D01*
X83876535Y-115479819D01*
X83884781Y-115488065D01*
X83918266Y-115549388D01*
X83921100Y-115575746D01*
X83921100Y-117933214D01*
X83920320Y-117947098D01*
X83916904Y-117977421D01*
X83916275Y-117983000D01*
X83918829Y-118005672D01*
X83920320Y-118018899D01*
X83921100Y-118032784D01*
X83921100Y-118058101D01*
X83928468Y-118095140D01*
X83930071Y-118105450D01*
X83935511Y-118153739D01*
X83935512Y-118153742D01*
X83935512Y-118153744D01*
X83935513Y-118153746D01*
X83943325Y-118176072D01*
X83947897Y-118192823D01*
X83950401Y-118205407D01*
X83950403Y-118205414D01*
X83969619Y-118251805D01*
X83972094Y-118258290D01*
X83975971Y-118269368D01*
X83992263Y-118315929D01*
X83995098Y-118320441D01*
X83996883Y-118323282D01*
X83998195Y-118325369D01*
X84007756Y-118343874D01*
X84007883Y-118344181D01*
X84007883Y-118344182D01*
X84042674Y-118396249D01*
X84044566Y-118399168D01*
X84083681Y-118461419D01*
X84205181Y-118582919D01*
X84254351Y-118613814D01*
X84267414Y-118622022D01*
X84270324Y-118623908D01*
X84322421Y-118658718D01*
X84322716Y-118658840D01*
X84341228Y-118668403D01*
X84350670Y-118674336D01*
X84350672Y-118674337D01*
X84408297Y-118694500D01*
X84414798Y-118696982D01*
X84461178Y-118716194D01*
X84461182Y-118716195D01*
X84461187Y-118716197D01*
X84473774Y-118718700D01*
X84490516Y-118723270D01*
X84498455Y-118726048D01*
X84555230Y-118766768D01*
X84580978Y-118831720D01*
X84581500Y-118843089D01*
X84581500Y-121487100D01*
X84581500Y-121487102D01*
X84581499Y-121487102D01*
X84610801Y-121634407D01*
X84610803Y-121634413D01*
X84654995Y-121741103D01*
X84668282Y-121773179D01*
X84751727Y-121898065D01*
X84751730Y-121898069D01*
X84751731Y-121898070D01*
X85132728Y-122279065D01*
X85195300Y-122341637D01*
X85238936Y-122385273D01*
X85363814Y-122468714D01*
X85363827Y-122468721D01*
X85431952Y-122496939D01*
X85486356Y-122540780D01*
X85508421Y-122607074D01*
X85508500Y-122611500D01*
X85508500Y-123164889D01*
X85529298Y-123309550D01*
X85529301Y-123309562D01*
X85569808Y-123447518D01*
X85630516Y-123580450D01*
X85630523Y-123580463D01*
X85704646Y-123695801D01*
X85705465Y-123697241D01*
X85708257Y-123701420D01*
X85803969Y-123811876D01*
X85803972Y-123811879D01*
X85912626Y-123906027D01*
X85912625Y-123906027D01*
X85912627Y-123906028D01*
X85912632Y-123906032D01*
X85921535Y-123911753D01*
X85967291Y-123964553D01*
X85978500Y-124016071D01*
X85978500Y-124156214D01*
X85977720Y-124170098D01*
X85973675Y-124205998D01*
X85973675Y-124206001D01*
X85977720Y-124241899D01*
X85978500Y-124255784D01*
X85978500Y-124281101D01*
X85985868Y-124318140D01*
X85987471Y-124328450D01*
X85992911Y-124376739D01*
X85992912Y-124376742D01*
X86000725Y-124399072D01*
X86005297Y-124415823D01*
X86007801Y-124428407D01*
X86007803Y-124428414D01*
X86027019Y-124474805D01*
X86029500Y-124481304D01*
X86049663Y-124538929D01*
X86049664Y-124538930D01*
X86055590Y-124548362D01*
X86055595Y-124548369D01*
X86065156Y-124566874D01*
X86065283Y-124567181D01*
X86065283Y-124567182D01*
X86100074Y-124619249D01*
X86101966Y-124622168D01*
X86141081Y-124684419D01*
X86262580Y-124805918D01*
X86262583Y-124805920D01*
X86324814Y-124845022D01*
X86327724Y-124846908D01*
X86379821Y-124881718D01*
X86380116Y-124881840D01*
X86398628Y-124891403D01*
X86408070Y-124897336D01*
X86408072Y-124897337D01*
X86446296Y-124910711D01*
X86465701Y-124917501D01*
X86472198Y-124919982D01*
X86518578Y-124939194D01*
X86518582Y-124939195D01*
X86518587Y-124939197D01*
X86531174Y-124941700D01*
X86547917Y-124946271D01*
X86570254Y-124954087D01*
X86618559Y-124959528D01*
X86628840Y-124961127D01*
X86665900Y-124968500D01*
X86691215Y-124968500D01*
X86705099Y-124969280D01*
X86740998Y-124973325D01*
X86741000Y-124973325D01*
X86741002Y-124973325D01*
X86776901Y-124969280D01*
X86790785Y-124968500D01*
X86816103Y-124968500D01*
X86845642Y-124962622D01*
X86853139Y-124961131D01*
X86863439Y-124959528D01*
X86911746Y-124954087D01*
X86934080Y-124946271D01*
X86950831Y-124941699D01*
X86963413Y-124939197D01*
X87009825Y-124919971D01*
X87016292Y-124917503D01*
X87040732Y-124908951D01*
X87073928Y-124897337D01*
X87083362Y-124891409D01*
X87101895Y-124881835D01*
X87102179Y-124881718D01*
X87154322Y-124846875D01*
X87157153Y-124845042D01*
X87219418Y-124805920D01*
X87219421Y-124805918D01*
X87340918Y-124684421D01*
X87340920Y-124684418D01*
X87380042Y-124622153D01*
X87381875Y-124619322D01*
X87416718Y-124567179D01*
X87416835Y-124566895D01*
X87426409Y-124548362D01*
X87432337Y-124538928D01*
X87452501Y-124481299D01*
X87454971Y-124474825D01*
X87474197Y-124428413D01*
X87476699Y-124415831D01*
X87481274Y-124399072D01*
X87489087Y-124376746D01*
X87494528Y-124328439D01*
X87496132Y-124318136D01*
X87503500Y-124281103D01*
X87503500Y-124255784D01*
X87504280Y-124241899D01*
X87508325Y-124206001D01*
X87508325Y-124205998D01*
X87504280Y-124170098D01*
X87503500Y-124156214D01*
X87503500Y-124055916D01*
X87523185Y-123988877D01*
X87560459Y-123951601D01*
X87631368Y-123906032D01*
X87654732Y-123885786D01*
X87718288Y-123856762D01*
X87735935Y-123855500D01*
X88444065Y-123855500D01*
X88511104Y-123875185D01*
X88525268Y-123885787D01*
X88548634Y-123906034D01*
X88610107Y-123945539D01*
X88671583Y-123985047D01*
X88671587Y-123985049D01*
X88671594Y-123985053D01*
X88796319Y-124042013D01*
X88800618Y-124044261D01*
X88802367Y-124044774D01*
X88802368Y-124044775D01*
X88802369Y-124044776D01*
X88942606Y-124085953D01*
X89084921Y-124106415D01*
X89142317Y-124106415D01*
X89142606Y-124106500D01*
X89193764Y-124106500D01*
X89672892Y-124106500D01*
X89673683Y-124106415D01*
X89731078Y-124106415D01*
X89731079Y-124106415D01*
X89864617Y-124087215D01*
X89864619Y-124087215D01*
X89870750Y-124086333D01*
X89873394Y-124085953D01*
X89873395Y-124085953D01*
X90013632Y-124044775D01*
X90013643Y-124044770D01*
X90144405Y-123985053D01*
X90144411Y-123985049D01*
X90144417Y-123985047D01*
X90267368Y-123906032D01*
X90372747Y-123814721D01*
X90374467Y-123813334D01*
X90376031Y-123811877D01*
X90471736Y-123701427D01*
X90471738Y-123701423D01*
X90471745Y-123701416D01*
X90549477Y-123580462D01*
X90549479Y-123580457D01*
X90549483Y-123580450D01*
X90610191Y-123447518D01*
X90610191Y-123447516D01*
X90610193Y-123447513D01*
X90650700Y-123309558D01*
X90671500Y-123164889D01*
X90671500Y-122543000D01*
X90666273Y-122469921D01*
X90663174Y-122459370D01*
X90661875Y-122410204D01*
X90659160Y-122409913D01*
X90666499Y-122341654D01*
X90666500Y-122341637D01*
X90666500Y-121462695D01*
X96254500Y-121462695D01*
X96289103Y-121636658D01*
X96289106Y-121636667D01*
X96356983Y-121800540D01*
X96356990Y-121800553D01*
X96455535Y-121948034D01*
X96455538Y-121948038D01*
X96580961Y-122073461D01*
X96580965Y-122073464D01*
X96728446Y-122172009D01*
X96728459Y-122172016D01*
X96851363Y-122222923D01*
X96892334Y-122239894D01*
X96892336Y-122239894D01*
X96892341Y-122239896D01*
X97066304Y-122274499D01*
X97066307Y-122274500D01*
X97066309Y-122274500D01*
X97243693Y-122274500D01*
X97243694Y-122274499D01*
X97301682Y-122262964D01*
X97417658Y-122239896D01*
X97417661Y-122239894D01*
X97417666Y-122239894D01*
X97581547Y-122172013D01*
X97729035Y-122073464D01*
X97854464Y-121948035D01*
X97953013Y-121800547D01*
X98020894Y-121636666D01*
X98021343Y-121634413D01*
X98055499Y-121462695D01*
X98055500Y-121462693D01*
X98055500Y-121285306D01*
X98055499Y-121285304D01*
X98020896Y-121111341D01*
X98020893Y-121111332D01*
X97953016Y-120947459D01*
X97953009Y-120947446D01*
X97854464Y-120799965D01*
X97854461Y-120799961D01*
X97729038Y-120674538D01*
X97729034Y-120674535D01*
X97581553Y-120575990D01*
X97581540Y-120575983D01*
X97417667Y-120508106D01*
X97417658Y-120508103D01*
X97243694Y-120473500D01*
X97243691Y-120473500D01*
X97066309Y-120473500D01*
X97066306Y-120473500D01*
X96892341Y-120508103D01*
X96892332Y-120508106D01*
X96728459Y-120575983D01*
X96728446Y-120575990D01*
X96580965Y-120674535D01*
X96580961Y-120674538D01*
X96455538Y-120799961D01*
X96455535Y-120799965D01*
X96356990Y-120947446D01*
X96356983Y-120947459D01*
X96289106Y-121111332D01*
X96289103Y-121111341D01*
X96254500Y-121285304D01*
X96254500Y-121462695D01*
X90666500Y-121462695D01*
X90666500Y-121244362D01*
X90666499Y-121244345D01*
X90660396Y-121187583D01*
X90659989Y-121183799D01*
X90659987Y-121183795D01*
X90659967Y-121183707D01*
X90659958Y-121183512D01*
X90659160Y-121176088D01*
X90659624Y-121176038D01*
X90657906Y-121137546D01*
X90671500Y-121043000D01*
X90671500Y-120421111D01*
X90650700Y-120276442D01*
X90610193Y-120138487D01*
X90610192Y-120138485D01*
X90610191Y-120138481D01*
X90549483Y-120005549D01*
X90549476Y-120005536D01*
X90475353Y-119890198D01*
X90474533Y-119888758D01*
X90471742Y-119884579D01*
X90376030Y-119774123D01*
X90376027Y-119774120D01*
X90267379Y-119679976D01*
X90267369Y-119679969D01*
X90267368Y-119679968D01*
X90227459Y-119654320D01*
X90181705Y-119601515D01*
X90170500Y-119550005D01*
X90170500Y-119079784D01*
X90171280Y-119065899D01*
X90175325Y-119030001D01*
X90175325Y-119029998D01*
X90171280Y-118994098D01*
X90170500Y-118980214D01*
X90170500Y-118954901D01*
X90170500Y-118954900D01*
X90163127Y-118917840D01*
X90161528Y-118907559D01*
X90156087Y-118859254D01*
X90148271Y-118836917D01*
X90143700Y-118820174D01*
X90141197Y-118807587D01*
X90141195Y-118807582D01*
X90141194Y-118807578D01*
X90121982Y-118761198D01*
X90119500Y-118754697D01*
X90099337Y-118697072D01*
X90099336Y-118697070D01*
X90093403Y-118687628D01*
X90083840Y-118669116D01*
X90083718Y-118668821D01*
X90048908Y-118616724D01*
X90047022Y-118613814D01*
X90007919Y-118551581D01*
X89886419Y-118430081D01*
X89824168Y-118390966D01*
X89821249Y-118389074D01*
X89769181Y-118354283D01*
X89769179Y-118354282D01*
X89768870Y-118354154D01*
X89750372Y-118344596D01*
X89742337Y-118339548D01*
X89740929Y-118338663D01*
X89696971Y-118323282D01*
X89683290Y-118318494D01*
X89676805Y-118316019D01*
X89630414Y-118296803D01*
X89630407Y-118296801D01*
X89617823Y-118294297D01*
X89601072Y-118289725D01*
X89594696Y-118287494D01*
X89578746Y-118281913D01*
X89578744Y-118281912D01*
X89578742Y-118281912D01*
X89578739Y-118281911D01*
X89530450Y-118276471D01*
X89520145Y-118274868D01*
X89492491Y-118269368D01*
X89483101Y-118267500D01*
X89483100Y-118267500D01*
X89457785Y-118267500D01*
X89443901Y-118266720D01*
X89408002Y-118262675D01*
X89407998Y-118262675D01*
X89372099Y-118266720D01*
X89358215Y-118267500D01*
X89332896Y-118267500D01*
X89295856Y-118274868D01*
X89285548Y-118276471D01*
X89237260Y-118281911D01*
X89237255Y-118281912D01*
X89214917Y-118289728D01*
X89198165Y-118294300D01*
X89185588Y-118296802D01*
X89185587Y-118296802D01*
X89139202Y-118316015D01*
X89132709Y-118318494D01*
X89075066Y-118338665D01*
X89073590Y-118339376D01*
X89072542Y-118339548D01*
X89068500Y-118340963D01*
X89068252Y-118340254D01*
X89004648Y-118350722D01*
X88940516Y-118322994D01*
X88901555Y-118264996D01*
X88898181Y-118251845D01*
X88897996Y-118250913D01*
X88893129Y-118226447D01*
X88891528Y-118216159D01*
X88886087Y-118167854D01*
X88878271Y-118145517D01*
X88873700Y-118128774D01*
X88871197Y-118116187D01*
X88871195Y-118116182D01*
X88871194Y-118116178D01*
X88851982Y-118069798D01*
X88849500Y-118063297D01*
X88829337Y-118005672D01*
X88829334Y-118005667D01*
X88823400Y-117996222D01*
X88813840Y-117977716D01*
X88813718Y-117977421D01*
X88778908Y-117925324D01*
X88777022Y-117922414D01*
X88737920Y-117860183D01*
X88737918Y-117860180D01*
X88616419Y-117738681D01*
X88554168Y-117699566D01*
X88551249Y-117697674D01*
X88499181Y-117662883D01*
X88499174Y-117662880D01*
X88498870Y-117662754D01*
X88480372Y-117653196D01*
X88475441Y-117650098D01*
X88470929Y-117647263D01*
X88435836Y-117634984D01*
X88413290Y-117627094D01*
X88406805Y-117624619D01*
X88360414Y-117605403D01*
X88360407Y-117605401D01*
X88347823Y-117602897D01*
X88331072Y-117598325D01*
X88308746Y-117590513D01*
X88308744Y-117590512D01*
X88308742Y-117590512D01*
X88308739Y-117590511D01*
X88260450Y-117585071D01*
X88250145Y-117583468D01*
X88230114Y-117579484D01*
X88213101Y-117576100D01*
X88213100Y-117576100D01*
X88187785Y-117576100D01*
X88173901Y-117575320D01*
X88138002Y-117571275D01*
X88137998Y-117571275D01*
X88102099Y-117575320D01*
X88088215Y-117576100D01*
X88062896Y-117576100D01*
X88025856Y-117583468D01*
X88015548Y-117585071D01*
X87967260Y-117590511D01*
X87967255Y-117590512D01*
X87944917Y-117598328D01*
X87928165Y-117602900D01*
X87915588Y-117605402D01*
X87915587Y-117605402D01*
X87869202Y-117624615D01*
X87862709Y-117627094D01*
X87805067Y-117647264D01*
X87795622Y-117653199D01*
X87777130Y-117662754D01*
X87776825Y-117662880D01*
X87776823Y-117662880D01*
X87776821Y-117662882D01*
X87724750Y-117697674D01*
X87724731Y-117697687D01*
X87721814Y-117699577D01*
X87659581Y-117738680D01*
X87538080Y-117860181D01*
X87498977Y-117922414D01*
X87497091Y-117925323D01*
X87462282Y-117977421D01*
X87462280Y-117977423D01*
X87462280Y-117977425D01*
X87462154Y-117977730D01*
X87452599Y-117996222D01*
X87446664Y-118005667D01*
X87426494Y-118063309D01*
X87424015Y-118069802D01*
X87404802Y-118116187D01*
X87404802Y-118116188D01*
X87402300Y-118128765D01*
X87397728Y-118145517D01*
X87389912Y-118167855D01*
X87389911Y-118167860D01*
X87384471Y-118216148D01*
X87382868Y-118226456D01*
X87375500Y-118263494D01*
X87375291Y-118265622D01*
X87374870Y-118266664D01*
X87374311Y-118269475D01*
X87373777Y-118269368D01*
X87349130Y-118330409D01*
X87292095Y-118370767D01*
X87222295Y-118373884D01*
X87182997Y-118356569D01*
X87133181Y-118323283D01*
X87133174Y-118323280D01*
X87132870Y-118323154D01*
X87114372Y-118313596D01*
X87109441Y-118310498D01*
X87104929Y-118307663D01*
X87066730Y-118294297D01*
X87047290Y-118287494D01*
X87040805Y-118285019D01*
X86994414Y-118265803D01*
X86994407Y-118265801D01*
X86981823Y-118263297D01*
X86965072Y-118258725D01*
X86963869Y-118258304D01*
X86942746Y-118250913D01*
X86942744Y-118250912D01*
X86942742Y-118250912D01*
X86942739Y-118250911D01*
X86894450Y-118245471D01*
X86884145Y-118243868D01*
X86864114Y-118239884D01*
X86847101Y-118236500D01*
X86847100Y-118236500D01*
X86821785Y-118236500D01*
X86807901Y-118235720D01*
X86772002Y-118231675D01*
X86771998Y-118231675D01*
X86736099Y-118235720D01*
X86722215Y-118236500D01*
X86696896Y-118236500D01*
X86659856Y-118243868D01*
X86649548Y-118245471D01*
X86601260Y-118250911D01*
X86601255Y-118250912D01*
X86578917Y-118258728D01*
X86562165Y-118263300D01*
X86549588Y-118265802D01*
X86549587Y-118265802D01*
X86503202Y-118285015D01*
X86496709Y-118287494D01*
X86439067Y-118307664D01*
X86429622Y-118313599D01*
X86411130Y-118323154D01*
X86410825Y-118323280D01*
X86410823Y-118323280D01*
X86410821Y-118323282D01*
X86364424Y-118354283D01*
X86358731Y-118358087D01*
X86355814Y-118359977D01*
X86296472Y-118397264D01*
X86229235Y-118416264D01*
X86162400Y-118395896D01*
X86117186Y-118342628D01*
X86106500Y-118292270D01*
X86106500Y-114859897D01*
X86077198Y-114712592D01*
X86077197Y-114712591D01*
X86077197Y-114712587D01*
X86019718Y-114573821D01*
X86006808Y-114554500D01*
X85936273Y-114448935D01*
X85936271Y-114448933D01*
X85936269Y-114448930D01*
X85243819Y-113756480D01*
X85210334Y-113695157D01*
X85207500Y-113668799D01*
X85207500Y-113578500D01*
X85227185Y-113511461D01*
X85279989Y-113465706D01*
X85331500Y-113454500D01*
X86143638Y-113454500D01*
X86143654Y-113454499D01*
X86182500Y-113450322D01*
X86204201Y-113447989D01*
X86276666Y-113420959D01*
X86346357Y-113415974D01*
X86363327Y-113420957D01*
X86435799Y-113447989D01*
X86452779Y-113449814D01*
X86496345Y-113454499D01*
X86496362Y-113454500D01*
X87393638Y-113454500D01*
X87393654Y-113454499D01*
X87432500Y-113450322D01*
X87454201Y-113447989D01*
X87526666Y-113420959D01*
X87596357Y-113415974D01*
X87613327Y-113420957D01*
X87685799Y-113447989D01*
X87702779Y-113449814D01*
X87746345Y-113454499D01*
X87746362Y-113454500D01*
X88558500Y-113454500D01*
X88625539Y-113474185D01*
X88671294Y-113526989D01*
X88682500Y-113578500D01*
X88682500Y-114034338D01*
X88675146Y-114071321D01*
X88676572Y-114071754D01*
X88674803Y-114077583D01*
X88672301Y-114090164D01*
X88667727Y-114106920D01*
X88659913Y-114129253D01*
X88659911Y-114129259D01*
X88654471Y-114177549D01*
X88652869Y-114187854D01*
X88645501Y-114224899D01*
X88645501Y-114250206D01*
X88644721Y-114264089D01*
X88640675Y-114300000D01*
X88643930Y-114328893D01*
X88644721Y-114335908D01*
X88645501Y-114349793D01*
X88645501Y-114375098D01*
X88652869Y-114412143D01*
X88654471Y-114422450D01*
X88659911Y-114470742D01*
X88667725Y-114493072D01*
X88672300Y-114509831D01*
X88674803Y-114522413D01*
X88688093Y-114554499D01*
X88694019Y-114568804D01*
X88696490Y-114575278D01*
X88713601Y-114624177D01*
X88716664Y-114632930D01*
X88722593Y-114642366D01*
X88732156Y-114660876D01*
X88732282Y-114661179D01*
X88767101Y-114713291D01*
X88768977Y-114716186D01*
X88808077Y-114778414D01*
X88808079Y-114778417D01*
X88808081Y-114778419D01*
X88929581Y-114899919D01*
X88991836Y-114939036D01*
X88994725Y-114940909D01*
X89026661Y-114962248D01*
X89046813Y-114975713D01*
X89046823Y-114975719D01*
X89047120Y-114975842D01*
X89065635Y-114985408D01*
X89075069Y-114991336D01*
X89132697Y-115011500D01*
X89139182Y-115013975D01*
X89185587Y-115033197D01*
X89198157Y-115035696D01*
X89214927Y-115040274D01*
X89237257Y-115048088D01*
X89285561Y-115053530D01*
X89295862Y-115055131D01*
X89332900Y-115062499D01*
X89358206Y-115062499D01*
X89372090Y-115063279D01*
X89407998Y-115067325D01*
X89408000Y-115067325D01*
X89408002Y-115067325D01*
X89443910Y-115063279D01*
X89457794Y-115062499D01*
X89483102Y-115062499D01*
X89494473Y-115060236D01*
X89520144Y-115055129D01*
X89530420Y-115053531D01*
X89578746Y-115048087D01*
X89601073Y-115040273D01*
X89617832Y-115035698D01*
X89630413Y-115033197D01*
X89676837Y-115013966D01*
X89683260Y-115011514D01*
X89740930Y-114991336D01*
X89750364Y-114985407D01*
X89768895Y-114975835D01*
X89769179Y-114975718D01*
X89821298Y-114940892D01*
X89824163Y-114939036D01*
X89886419Y-114899919D01*
X90007919Y-114778419D01*
X90037273Y-114749065D01*
X90120718Y-114624179D01*
X90178197Y-114485413D01*
X90180413Y-114474272D01*
X90190883Y-114421635D01*
X90223269Y-114359725D01*
X90283985Y-114325152D01*
X90353755Y-114328893D01*
X90410426Y-114369760D01*
X90436007Y-114434779D01*
X90436500Y-114445829D01*
X90436500Y-116594654D01*
X90443011Y-116655202D01*
X90443011Y-116655204D01*
X90494111Y-116792204D01*
X90581739Y-116909261D01*
X90698796Y-116996889D01*
X90835799Y-117047989D01*
X90863050Y-117050918D01*
X90896345Y-117054499D01*
X90896362Y-117054500D01*
X93093638Y-117054500D01*
X93093654Y-117054499D01*
X93120692Y-117051591D01*
X93154201Y-117047989D01*
X93291204Y-116996889D01*
X93408261Y-116909261D01*
X93495889Y-116792204D01*
X93546989Y-116655201D01*
X93550591Y-116621692D01*
X93553499Y-116594654D01*
X93553500Y-116594637D01*
X93553500Y-113497362D01*
X93553499Y-113497345D01*
X93548892Y-113454499D01*
X93546989Y-113436799D01*
X93541081Y-113420960D01*
X93524522Y-113376564D01*
X93495889Y-113299796D01*
X93408261Y-113182739D01*
X93291204Y-113095111D01*
X93154203Y-113044011D01*
X93093654Y-113037500D01*
X93093638Y-113037500D01*
X90896362Y-113037500D01*
X90896345Y-113037500D01*
X90835797Y-113044011D01*
X90835795Y-113044011D01*
X90698795Y-113095111D01*
X90581738Y-113182740D01*
X90535915Y-113243951D01*
X90479981Y-113285821D01*
X90410289Y-113290805D01*
X90348966Y-113257319D01*
X90315482Y-113195995D01*
X90320467Y-113126306D01*
X90346989Y-113055201D01*
X90348892Y-113037500D01*
X90353499Y-112994654D01*
X90353500Y-112994637D01*
X90353500Y-111597362D01*
X90353499Y-111597345D01*
X90350157Y-111566270D01*
X90346989Y-111536799D01*
X90295889Y-111399796D01*
X90208261Y-111282739D01*
X90091204Y-111195111D01*
X89954203Y-111144011D01*
X89893654Y-111137500D01*
X89893638Y-111137500D01*
X88996362Y-111137500D01*
X88996345Y-111137500D01*
X88935798Y-111144010D01*
X88863334Y-111171039D01*
X88793642Y-111176023D01*
X88776666Y-111171039D01*
X88704201Y-111144010D01*
X88643654Y-111137500D01*
X88643638Y-111137500D01*
X87831500Y-111137500D01*
X87764461Y-111117815D01*
X87718706Y-111065011D01*
X87707500Y-111013500D01*
X87707500Y-110999897D01*
X87678198Y-110852592D01*
X87678197Y-110852591D01*
X87678197Y-110852587D01*
X87678195Y-110852582D01*
X87620721Y-110713826D01*
X87620718Y-110713821D01*
X87619790Y-110712433D01*
X87619783Y-110712409D01*
X87619778Y-110712413D01*
X87537274Y-110588936D01*
X87537268Y-110588929D01*
X86846069Y-109897730D01*
X86846065Y-109897727D01*
X86721179Y-109814282D01*
X86582413Y-109756803D01*
X86582407Y-109756801D01*
X86435102Y-109727500D01*
X86435100Y-109727500D01*
X67332900Y-109727500D01*
X67265861Y-109707815D01*
X67220106Y-109655011D01*
X67208900Y-109603500D01*
X67208900Y-95641159D01*
X67228585Y-95574120D01*
X67281389Y-95528365D01*
X67350547Y-95518421D01*
X67357075Y-95519539D01*
X67361900Y-95520499D01*
X67387206Y-95520499D01*
X67401090Y-95521279D01*
X67436998Y-95525325D01*
X67437000Y-95525325D01*
X67437002Y-95525325D01*
X67472910Y-95521279D01*
X67486794Y-95520499D01*
X67512102Y-95520499D01*
X67523473Y-95518236D01*
X67549144Y-95513129D01*
X67559420Y-95511531D01*
X67607746Y-95506087D01*
X67607746Y-95506086D01*
X67614669Y-95505307D01*
X67614754Y-95506064D01*
X67628672Y-95504500D01*
X76431415Y-95504500D01*
X76445298Y-95505279D01*
X76447903Y-95505573D01*
X76481198Y-95509325D01*
X76481200Y-95509325D01*
X76481202Y-95509325D01*
X76514496Y-95505573D01*
X76517101Y-95505279D01*
X76530985Y-95504500D01*
X76556303Y-95504500D01*
X76587596Y-95498274D01*
X76593339Y-95497131D01*
X76603639Y-95495528D01*
X76651946Y-95490087D01*
X76674280Y-95482271D01*
X76691031Y-95477699D01*
X76703613Y-95475197D01*
X76750025Y-95455971D01*
X76756492Y-95453503D01*
X76785342Y-95443409D01*
X76814128Y-95433337D01*
X76823562Y-95427409D01*
X76842095Y-95417835D01*
X76842379Y-95417718D01*
X76894522Y-95382875D01*
X76897353Y-95381042D01*
X76959618Y-95341920D01*
X76959621Y-95341918D01*
X77081118Y-95220421D01*
X77081120Y-95220418D01*
X77120242Y-95158153D01*
X77122075Y-95155322D01*
X77156918Y-95103179D01*
X77157035Y-95102895D01*
X77166609Y-95084362D01*
X77172537Y-95074928D01*
X77187103Y-95033299D01*
X77192703Y-95017292D01*
X77195171Y-95010825D01*
X77214397Y-94964413D01*
X77216899Y-94951831D01*
X77221471Y-94935080D01*
X77229287Y-94912746D01*
X77234728Y-94864439D01*
X77236332Y-94854136D01*
X77243700Y-94817103D01*
X77243700Y-94791784D01*
X77244480Y-94777899D01*
X77248525Y-94742001D01*
X77248525Y-94741998D01*
X77244480Y-94706098D01*
X77243700Y-94692214D01*
X77243700Y-94666901D01*
X77243700Y-94666900D01*
X77236327Y-94629840D01*
X77234728Y-94619559D01*
X77229287Y-94571254D01*
X77221471Y-94548917D01*
X77216900Y-94532174D01*
X77214397Y-94519587D01*
X77214395Y-94519582D01*
X77214394Y-94519578D01*
X77195182Y-94473198D01*
X77192700Y-94466697D01*
X77172537Y-94409072D01*
X77171095Y-94406777D01*
X77166603Y-94399628D01*
X77157040Y-94381116D01*
X77156918Y-94380821D01*
X77122108Y-94328724D01*
X77120222Y-94325814D01*
X77081119Y-94263581D01*
X76959619Y-94142081D01*
X76897368Y-94102966D01*
X76894449Y-94101074D01*
X76842381Y-94066283D01*
X76842379Y-94066282D01*
X76842070Y-94066154D01*
X76823572Y-94056596D01*
X76818641Y-94053498D01*
X76814129Y-94050663D01*
X76779036Y-94038384D01*
X76756490Y-94030494D01*
X76750005Y-94028019D01*
X76703614Y-94008803D01*
X76703607Y-94008801D01*
X76691023Y-94006297D01*
X76674272Y-94001725D01*
X76651946Y-93993913D01*
X76651944Y-93993912D01*
X76651942Y-93993912D01*
X76645155Y-93992363D01*
X76645546Y-93990647D01*
X76589405Y-93967049D01*
X76549856Y-93909449D01*
X76547726Y-93839612D01*
X76553158Y-93823438D01*
X76553995Y-93821417D01*
X76553997Y-93821413D01*
X76556499Y-93808831D01*
X76561071Y-93792080D01*
X76568887Y-93769746D01*
X76574328Y-93721439D01*
X76575932Y-93711136D01*
X76583300Y-93674103D01*
X76583300Y-93648784D01*
X76584080Y-93634899D01*
X76588125Y-93599001D01*
X76588125Y-93598998D01*
X76584080Y-93563098D01*
X76583300Y-93549214D01*
X76583300Y-93523901D01*
X76583300Y-93523900D01*
X76575927Y-93486840D01*
X76574328Y-93476559D01*
X76568887Y-93428254D01*
X76561071Y-93405917D01*
X76556500Y-93389174D01*
X76553997Y-93376587D01*
X76553995Y-93376582D01*
X76553994Y-93376578D01*
X76534782Y-93330198D01*
X76532300Y-93323697D01*
X76512137Y-93266072D01*
X76512136Y-93266070D01*
X76506203Y-93256628D01*
X76496640Y-93238116D01*
X76496518Y-93237821D01*
X76461708Y-93185724D01*
X76459822Y-93182814D01*
X76420720Y-93120583D01*
X76420718Y-93120580D01*
X76299219Y-92999081D01*
X76236968Y-92959966D01*
X76234049Y-92958074D01*
X76181981Y-92923283D01*
X76181979Y-92923282D01*
X76181670Y-92923154D01*
X76163172Y-92913596D01*
X76158241Y-92910498D01*
X76153729Y-92907663D01*
X76118636Y-92895384D01*
X76096090Y-92887494D01*
X76089605Y-92885019D01*
X76043214Y-92865803D01*
X76043207Y-92865801D01*
X76030623Y-92863297D01*
X76013872Y-92858725D01*
X75991546Y-92850913D01*
X75991544Y-92850912D01*
X75991542Y-92850912D01*
X75991539Y-92850911D01*
X75943250Y-92845471D01*
X75932945Y-92843868D01*
X75912914Y-92839884D01*
X75895901Y-92836500D01*
X75895900Y-92836500D01*
X75870585Y-92836500D01*
X75856701Y-92835720D01*
X75820802Y-92831675D01*
X75820798Y-92831675D01*
X75784899Y-92835720D01*
X75771015Y-92836500D01*
X67486785Y-92836500D01*
X67472901Y-92835720D01*
X67437002Y-92831675D01*
X67436998Y-92831675D01*
X67401099Y-92835720D01*
X67387215Y-92836500D01*
X67361900Y-92836500D01*
X67357089Y-92837456D01*
X67287499Y-92831229D01*
X67232322Y-92788365D01*
X67209078Y-92722475D01*
X67208900Y-92715839D01*
X67208900Y-90802500D01*
X67228585Y-90735461D01*
X67281389Y-90689706D01*
X67332900Y-90678500D01*
X78380324Y-90678500D01*
X78447363Y-90698185D01*
X78484133Y-90734679D01*
X78496278Y-90753269D01*
X78641489Y-90911008D01*
X78672412Y-90973662D01*
X78664552Y-91043088D01*
X78620405Y-91097244D01*
X78593596Y-91111172D01*
X78475794Y-91155111D01*
X78358739Y-91242739D01*
X78271111Y-91359795D01*
X78220011Y-91496795D01*
X78220011Y-91496797D01*
X78213500Y-91557345D01*
X78213500Y-93354654D01*
X78220011Y-93415202D01*
X78220011Y-93415204D01*
X78244827Y-93481735D01*
X78271111Y-93552204D01*
X78358739Y-93669261D01*
X78475796Y-93756889D01*
X78612799Y-93807989D01*
X78640050Y-93810918D01*
X78673345Y-93814499D01*
X78673362Y-93814500D01*
X80470638Y-93814500D01*
X80470654Y-93814499D01*
X80497692Y-93811591D01*
X80531201Y-93807989D01*
X80668204Y-93756889D01*
X80785261Y-93669261D01*
X80872889Y-93552204D01*
X80923989Y-93415201D01*
X80928141Y-93376578D01*
X80930499Y-93354654D01*
X80930500Y-93354637D01*
X80930500Y-91557362D01*
X80930499Y-91557345D01*
X80927157Y-91526270D01*
X80923989Y-91496799D01*
X80872889Y-91359796D01*
X80785261Y-91242739D01*
X80668204Y-91155111D01*
X80550404Y-91111172D01*
X80494471Y-91069300D01*
X80470055Y-91003835D01*
X80484908Y-90935562D01*
X80502504Y-90911014D01*
X80647722Y-90753268D01*
X80770860Y-90564791D01*
X80861296Y-90358616D01*
X80916564Y-90140368D01*
X80916872Y-90136651D01*
X80935156Y-89916005D01*
X80935156Y-89915994D01*
X80916565Y-89691640D01*
X80916563Y-89691628D01*
X80892029Y-89594746D01*
X80861296Y-89473384D01*
X80770860Y-89267209D01*
X80647722Y-89078732D01*
X80647719Y-89078729D01*
X80647715Y-89078723D01*
X80495243Y-88913097D01*
X80495238Y-88913092D01*
X80317577Y-88774812D01*
X80317578Y-88774812D01*
X80317576Y-88774811D01*
X80281070Y-88755055D01*
X80231479Y-88705836D01*
X80216371Y-88637619D01*
X80240541Y-88572064D01*
X80281070Y-88536945D01*
X80281084Y-88536936D01*
X80317576Y-88517189D01*
X80495240Y-88378906D01*
X80647722Y-88213268D01*
X80770860Y-88024791D01*
X80861296Y-87818616D01*
X80916564Y-87600368D01*
X80935156Y-87376000D01*
X80926553Y-87272185D01*
X80916565Y-87151640D01*
X80916563Y-87151628D01*
X80897598Y-87076736D01*
X80861296Y-86933384D01*
X80770860Y-86727209D01*
X80766920Y-86721179D01*
X80647722Y-86538732D01*
X80647715Y-86538723D01*
X80495243Y-86373097D01*
X80495242Y-86373096D01*
X80495240Y-86373094D01*
X80382335Y-86285215D01*
X80341524Y-86228505D01*
X80334500Y-86187363D01*
X80334500Y-77970784D01*
X80335280Y-77956899D01*
X80339325Y-77921001D01*
X80339325Y-77920998D01*
X80335280Y-77885098D01*
X80334500Y-77871214D01*
X80334500Y-77845901D01*
X80334500Y-77845900D01*
X80327127Y-77808840D01*
X80325528Y-77798559D01*
X80320087Y-77750254D01*
X80312271Y-77727917D01*
X80307700Y-77711174D01*
X80305197Y-77698587D01*
X80305195Y-77698582D01*
X80305194Y-77698578D01*
X80285982Y-77652198D01*
X80283500Y-77645697D01*
X80263337Y-77588072D01*
X80263336Y-77588070D01*
X80257403Y-77578628D01*
X80247840Y-77560116D01*
X80247718Y-77559821D01*
X80212908Y-77507724D01*
X80211022Y-77504814D01*
X80171920Y-77442583D01*
X80171918Y-77442580D01*
X80050419Y-77321081D01*
X79988168Y-77281966D01*
X79985249Y-77280074D01*
X79933181Y-77245283D01*
X79933179Y-77245282D01*
X79932870Y-77245154D01*
X79914372Y-77235596D01*
X79909441Y-77232498D01*
X79904929Y-77229663D01*
X79869836Y-77217384D01*
X79847290Y-77209494D01*
X79840805Y-77207019D01*
X79794414Y-77187803D01*
X79794407Y-77187801D01*
X79781823Y-77185297D01*
X79765066Y-77180722D01*
X79757142Y-77177949D01*
X79700367Y-77137226D01*
X79674622Y-77072272D01*
X79674100Y-77060909D01*
X79674100Y-70327497D01*
X79644798Y-70180192D01*
X79644797Y-70180191D01*
X79644797Y-70180187D01*
X79587318Y-70041421D01*
X79526766Y-69950798D01*
X79503873Y-69916535D01*
X79099065Y-69511727D01*
X79091419Y-69504081D01*
X79091417Y-69504079D01*
X79091414Y-69504077D01*
X79029186Y-69464977D01*
X79026291Y-69463101D01*
X78974179Y-69428282D01*
X78973876Y-69428156D01*
X78955366Y-69418593D01*
X78945930Y-69412664D01*
X78888278Y-69392490D01*
X78881810Y-69390021D01*
X78835413Y-69370803D01*
X78835410Y-69370802D01*
X78822831Y-69368300D01*
X78806072Y-69363725D01*
X78783741Y-69355911D01*
X78783742Y-69355911D01*
X78735450Y-69350471D01*
X78725143Y-69348869D01*
X78724504Y-69348742D01*
X78688100Y-69341501D01*
X78688099Y-69341501D01*
X78662794Y-69341501D01*
X78648910Y-69340721D01*
X78613002Y-69336675D01*
X78612998Y-69336675D01*
X78577090Y-69340721D01*
X78563206Y-69341501D01*
X78537900Y-69341501D01*
X78500854Y-69348869D01*
X78490549Y-69350471D01*
X78442259Y-69355911D01*
X78442253Y-69355913D01*
X78419920Y-69363727D01*
X78403164Y-69368301D01*
X78390589Y-69370802D01*
X78390585Y-69370803D01*
X78344202Y-69390015D01*
X78337709Y-69392494D01*
X78280067Y-69412664D01*
X78270622Y-69418599D01*
X78252130Y-69428154D01*
X78251821Y-69428282D01*
X78251814Y-69428285D01*
X78199736Y-69463082D01*
X78196821Y-69464971D01*
X78134585Y-69504078D01*
X78134578Y-69504083D01*
X78013083Y-69625578D01*
X78013078Y-69625585D01*
X77973971Y-69687821D01*
X77972082Y-69690736D01*
X77937285Y-69742814D01*
X77937282Y-69742821D01*
X77937154Y-69743130D01*
X77927599Y-69761622D01*
X77921664Y-69771067D01*
X77901494Y-69828709D01*
X77899015Y-69835202D01*
X77879803Y-69881585D01*
X77879802Y-69881589D01*
X77877301Y-69894164D01*
X77872727Y-69910920D01*
X77864913Y-69933253D01*
X77864911Y-69933259D01*
X77859471Y-69981549D01*
X77857869Y-69991854D01*
X77850501Y-70028899D01*
X77850501Y-70054206D01*
X77849721Y-70068090D01*
X77845675Y-70103998D01*
X77845675Y-70104001D01*
X77849721Y-70139908D01*
X77850501Y-70153793D01*
X77850501Y-70179100D01*
X77857804Y-70215821D01*
X77857869Y-70216143D01*
X77859471Y-70226450D01*
X77864911Y-70274742D01*
X77872725Y-70297072D01*
X77877300Y-70313831D01*
X77879802Y-70326410D01*
X77879803Y-70326413D01*
X77899019Y-70372804D01*
X77901490Y-70379278D01*
X77921664Y-70436930D01*
X77927593Y-70446366D01*
X77937156Y-70464876D01*
X77937282Y-70465179D01*
X77972101Y-70517291D01*
X77973977Y-70520186D01*
X78013077Y-70582414D01*
X78013079Y-70582417D01*
X78112781Y-70682119D01*
X78146266Y-70743442D01*
X78149100Y-70769800D01*
X78149100Y-71783909D01*
X78129415Y-71850948D01*
X78076611Y-71896703D01*
X78066048Y-71900953D01*
X78058116Y-71903728D01*
X78041365Y-71908300D01*
X78028788Y-71910802D01*
X78028787Y-71910802D01*
X77982402Y-71930015D01*
X77975909Y-71932494D01*
X77918267Y-71952664D01*
X77908822Y-71958599D01*
X77890330Y-71968154D01*
X77890025Y-71968280D01*
X77890023Y-71968280D01*
X77890021Y-71968282D01*
X77837931Y-72003087D01*
X77835014Y-72004977D01*
X77772781Y-72044080D01*
X77651280Y-72165581D01*
X77612177Y-72227814D01*
X77610291Y-72230723D01*
X77575482Y-72282821D01*
X77575480Y-72282823D01*
X77575480Y-72282825D01*
X77575354Y-72283130D01*
X77565799Y-72301622D01*
X77559864Y-72311067D01*
X77539694Y-72368709D01*
X77537215Y-72375202D01*
X77518002Y-72421587D01*
X77518002Y-72421588D01*
X77515500Y-72434165D01*
X77510928Y-72450917D01*
X77503112Y-72473255D01*
X77503111Y-72473260D01*
X77497671Y-72521548D01*
X77496068Y-72531856D01*
X77488700Y-72568896D01*
X77488700Y-72594214D01*
X77487920Y-72608098D01*
X77483875Y-72643998D01*
X77483875Y-72644001D01*
X77487920Y-72679899D01*
X77488700Y-72693784D01*
X77488700Y-85167445D01*
X77479262Y-85214896D01*
X77473402Y-85229043D01*
X77473401Y-85229046D01*
X77444100Y-85376350D01*
X77444100Y-85376353D01*
X77444100Y-86435100D01*
X77444100Y-86435102D01*
X77444099Y-86435102D01*
X77464714Y-86538732D01*
X77464714Y-86538733D01*
X77473401Y-86582406D01*
X77473402Y-86582411D01*
X77530881Y-86721177D01*
X77614330Y-86846069D01*
X77632079Y-86863817D01*
X77632081Y-86863819D01*
X77753581Y-86985319D01*
X77815836Y-87024436D01*
X77818728Y-87026311D01*
X77850661Y-87047648D01*
X77870813Y-87061113D01*
X77870823Y-87061119D01*
X77871120Y-87061242D01*
X77889635Y-87070808D01*
X77899069Y-87076736D01*
X77956697Y-87096900D01*
X77963182Y-87099375D01*
X78009587Y-87118597D01*
X78022157Y-87121096D01*
X78038928Y-87125674D01*
X78061254Y-87133487D01*
X78107751Y-87138725D01*
X78172165Y-87165791D01*
X78211721Y-87223386D01*
X78217446Y-87272185D01*
X78208845Y-87375994D01*
X78208844Y-87376004D01*
X78208844Y-87376005D01*
X78227434Y-87600359D01*
X78227436Y-87600371D01*
X78282703Y-87818614D01*
X78373140Y-88024792D01*
X78496276Y-88213265D01*
X78496284Y-88213276D01*
X78648756Y-88378902D01*
X78648760Y-88378906D01*
X78826424Y-88517189D01*
X78826429Y-88517191D01*
X78826431Y-88517193D01*
X78862930Y-88536946D01*
X78912520Y-88586165D01*
X78927628Y-88654382D01*
X78903457Y-88719937D01*
X78862930Y-88755054D01*
X78826431Y-88774806D01*
X78826422Y-88774812D01*
X78648761Y-88913092D01*
X78648756Y-88913097D01*
X78496278Y-89078730D01*
X78484133Y-89097321D01*
X78430987Y-89142678D01*
X78380324Y-89153500D01*
X67332900Y-89153500D01*
X67265861Y-89133815D01*
X67220106Y-89081011D01*
X67208900Y-89029500D01*
X67208900Y-52665798D01*
X67228585Y-52598759D01*
X67245215Y-52578121D01*
X68169416Y-51653920D01*
X68169419Y-51653919D01*
X68290919Y-51532419D01*
X68330051Y-51470137D01*
X68331875Y-51467322D01*
X68366718Y-51415179D01*
X68366835Y-51414895D01*
X68376409Y-51396362D01*
X68382336Y-51386930D01*
X68402514Y-51329260D01*
X68404966Y-51322837D01*
X68424197Y-51276413D01*
X68426698Y-51263832D01*
X68431273Y-51247073D01*
X68439087Y-51224746D01*
X68444531Y-51176420D01*
X68446129Y-51166144D01*
X68453499Y-51129100D01*
X68453499Y-51103793D01*
X68454279Y-51089908D01*
X68458325Y-51054001D01*
X68458325Y-51053998D01*
X68454279Y-51018090D01*
X68453499Y-51004206D01*
X68453499Y-50978900D01*
X68446133Y-50941873D01*
X68444530Y-50931561D01*
X68439088Y-50883257D01*
X68431274Y-50860927D01*
X68426696Y-50844154D01*
X68424198Y-50831592D01*
X68424197Y-50831591D01*
X68424197Y-50831587D01*
X68404975Y-50785182D01*
X68402500Y-50778697D01*
X68382337Y-50721072D01*
X68382336Y-50721070D01*
X68376403Y-50711628D01*
X68366840Y-50693116D01*
X68366718Y-50692821D01*
X68331908Y-50640724D01*
X68330022Y-50637814D01*
X68290920Y-50575583D01*
X68290918Y-50575580D01*
X68169419Y-50454081D01*
X68107168Y-50414966D01*
X68104249Y-50413074D01*
X68052181Y-50378283D01*
X68052174Y-50378280D01*
X68051870Y-50378154D01*
X68033372Y-50368596D01*
X68028441Y-50365498D01*
X68023929Y-50362663D01*
X67997499Y-50353415D01*
X67966278Y-50342490D01*
X67959810Y-50340021D01*
X67913413Y-50320803D01*
X67913410Y-50320802D01*
X67900831Y-50318300D01*
X67884072Y-50313725D01*
X67861741Y-50305911D01*
X67861742Y-50305911D01*
X67813450Y-50300471D01*
X67803143Y-50298869D01*
X67802504Y-50298742D01*
X67766100Y-50291501D01*
X67766099Y-50291501D01*
X67740794Y-50291501D01*
X67726910Y-50290721D01*
X67691002Y-50286675D01*
X67690998Y-50286675D01*
X67655090Y-50290721D01*
X67641206Y-50291501D01*
X67615900Y-50291501D01*
X67578854Y-50298869D01*
X67568549Y-50300471D01*
X67520259Y-50305911D01*
X67520253Y-50305913D01*
X67497920Y-50313727D01*
X67481164Y-50318301D01*
X67468589Y-50320802D01*
X67468585Y-50320803D01*
X67422202Y-50340015D01*
X67415709Y-50342494D01*
X67358067Y-50362664D01*
X67348622Y-50368599D01*
X67330130Y-50378154D01*
X67329825Y-50378280D01*
X67329823Y-50378280D01*
X67329821Y-50378282D01*
X67277750Y-50413074D01*
X67277731Y-50413087D01*
X67274814Y-50414977D01*
X67212581Y-50454080D01*
X67091079Y-50575583D01*
X65854131Y-51812529D01*
X65854130Y-51812530D01*
X65770681Y-51937422D01*
X65713203Y-52076186D01*
X65713201Y-52076192D01*
X65683900Y-52223497D01*
X65683900Y-65630832D01*
X65664215Y-65697871D01*
X65611411Y-65743626D01*
X65542253Y-65753570D01*
X65512410Y-65745378D01*
X65512179Y-65745282D01*
X65511846Y-65745144D01*
X65493366Y-65735593D01*
X65483930Y-65729664D01*
X65426278Y-65709490D01*
X65419810Y-65707021D01*
X65373413Y-65687803D01*
X65373410Y-65687802D01*
X65360831Y-65685300D01*
X65344072Y-65680725D01*
X65321741Y-65672911D01*
X65321742Y-65672911D01*
X65273450Y-65667471D01*
X65263143Y-65665869D01*
X65262504Y-65665742D01*
X65226100Y-65658501D01*
X65226099Y-65658501D01*
X65200794Y-65658501D01*
X65186910Y-65657721D01*
X65151002Y-65653675D01*
X65150998Y-65653675D01*
X65115090Y-65657721D01*
X65101206Y-65658501D01*
X65075900Y-65658501D01*
X65071088Y-65659458D01*
X65001497Y-65653229D01*
X64946321Y-65610364D01*
X64923078Y-65544474D01*
X64922900Y-65537840D01*
X64922900Y-47293784D01*
X64923680Y-47279899D01*
X64927725Y-47244001D01*
X64927725Y-47243998D01*
X64923680Y-47208098D01*
X64922900Y-47194214D01*
X64922900Y-47168901D01*
X64922900Y-47168900D01*
X64915527Y-47131840D01*
X64913928Y-47121559D01*
X64908487Y-47073254D01*
X64900671Y-47050917D01*
X64896100Y-47034174D01*
X64893597Y-47021587D01*
X64893595Y-47021582D01*
X64893594Y-47021578D01*
X64874382Y-46975198D01*
X64871900Y-46968697D01*
X64851737Y-46911072D01*
X64851736Y-46911070D01*
X64845803Y-46901628D01*
X64836240Y-46883116D01*
X64836118Y-46882821D01*
X64801308Y-46830724D01*
X64799422Y-46827814D01*
X64760320Y-46765583D01*
X64760318Y-46765580D01*
X64638819Y-46644081D01*
X64576568Y-46604966D01*
X64573649Y-46603074D01*
X64521581Y-46568283D01*
X64521579Y-46568282D01*
X64521270Y-46568154D01*
X64502772Y-46558596D01*
X64493330Y-46552664D01*
X64493329Y-46552663D01*
X64493328Y-46552663D01*
X64489031Y-46550594D01*
X64437169Y-46503774D01*
X64418853Y-46436347D01*
X64439898Y-46369722D01*
X64455140Y-46351196D01*
X65616272Y-45190066D01*
X65623919Y-45182419D01*
X65663055Y-45120132D01*
X65664894Y-45117295D01*
X65699718Y-45065179D01*
X65699835Y-45064895D01*
X65709409Y-45046362D01*
X65715336Y-45036930D01*
X65735514Y-44979260D01*
X65737966Y-44972837D01*
X65757197Y-44926413D01*
X65759698Y-44913832D01*
X65764273Y-44897073D01*
X65772087Y-44874746D01*
X65777531Y-44826420D01*
X65779129Y-44816144D01*
X65786499Y-44779100D01*
X65786499Y-44753793D01*
X65787279Y-44739908D01*
X65791325Y-44704001D01*
X65791325Y-44703998D01*
X65787279Y-44668090D01*
X65786499Y-44654206D01*
X65786499Y-44628901D01*
X65779130Y-44591858D01*
X65777528Y-44581557D01*
X65772087Y-44533254D01*
X65764272Y-44510921D01*
X65759699Y-44494170D01*
X65757197Y-44481588D01*
X65737972Y-44435176D01*
X65735518Y-44428746D01*
X65715336Y-44371070D01*
X65709404Y-44361630D01*
X65699838Y-44343112D01*
X65699718Y-44342822D01*
X65664919Y-44290741D01*
X65663034Y-44287832D01*
X65623919Y-44225581D01*
X65502421Y-44104083D01*
X65502419Y-44104081D01*
X65440158Y-44064959D01*
X65437242Y-44063069D01*
X65385178Y-44028282D01*
X65385179Y-44028282D01*
X65384876Y-44028157D01*
X65366371Y-44018596D01*
X65356930Y-44012664D01*
X65299281Y-43992491D01*
X65292789Y-43990012D01*
X65246410Y-43970802D01*
X65246405Y-43970801D01*
X65233837Y-43968301D01*
X65217075Y-43963726D01*
X65194743Y-43955912D01*
X65146440Y-43950470D01*
X65136131Y-43948867D01*
X65099101Y-43941501D01*
X65099099Y-43941501D01*
X65073794Y-43941501D01*
X65059910Y-43940721D01*
X65024002Y-43936675D01*
X65023998Y-43936675D01*
X64988090Y-43940721D01*
X64974206Y-43941501D01*
X64948900Y-43941501D01*
X64911854Y-43948869D01*
X64901549Y-43950471D01*
X64853259Y-43955911D01*
X64853253Y-43955913D01*
X64830920Y-43963727D01*
X64814164Y-43968301D01*
X64801589Y-43970802D01*
X64801585Y-43970803D01*
X64755202Y-43990015D01*
X64748709Y-43992494D01*
X64691067Y-44012664D01*
X64681622Y-44018599D01*
X64663130Y-44028154D01*
X64662821Y-44028282D01*
X64662814Y-44028285D01*
X64610739Y-44063080D01*
X64607824Y-44064969D01*
X64545585Y-44104077D01*
X64545578Y-44104083D01*
X64537934Y-44111728D01*
X62907731Y-45741929D01*
X62907725Y-45741936D01*
X62838602Y-45845388D01*
X62784990Y-45890194D01*
X62715665Y-45898901D01*
X62652638Y-45868747D01*
X62615918Y-45809304D01*
X62611500Y-45776498D01*
X62611500Y-34293051D01*
X62611575Y-34290005D01*
X63621728Y-34290005D01*
X63640795Y-34593079D01*
X63640796Y-34593086D01*
X63640797Y-34593090D01*
X63688183Y-34841501D01*
X63697703Y-34891404D01*
X63791548Y-35180226D01*
X63791550Y-35180231D01*
X63920850Y-35455007D01*
X63920856Y-35455018D01*
X64083575Y-35711423D01*
X64083578Y-35711427D01*
X64277152Y-35945417D01*
X64277154Y-35945419D01*
X64498533Y-36153309D01*
X64498543Y-36153317D01*
X64744213Y-36331807D01*
X64744219Y-36331810D01*
X64744225Y-36331815D01*
X65010350Y-36478118D01*
X65010351Y-36478118D01*
X65010356Y-36478121D01*
X65010359Y-36478122D01*
X65280125Y-36584929D01*
X65292713Y-36589913D01*
X65586861Y-36665438D01*
X65650066Y-36673422D01*
X65888143Y-36703499D01*
X65888152Y-36703499D01*
X65888155Y-36703500D01*
X65888157Y-36703500D01*
X66191843Y-36703500D01*
X66191845Y-36703500D01*
X66191848Y-36703499D01*
X66191856Y-36703499D01*
X66371639Y-36680786D01*
X66493139Y-36665438D01*
X66787287Y-36589913D01*
X67069640Y-36478122D01*
X67069643Y-36478121D01*
X67069644Y-36478120D01*
X67069650Y-36478118D01*
X67335775Y-36331815D01*
X67581465Y-36153311D01*
X67802844Y-35945421D01*
X67996423Y-35711425D01*
X68159148Y-35455011D01*
X68288452Y-35180225D01*
X68382298Y-34891400D01*
X68439203Y-34593090D01*
X68458272Y-34290000D01*
X68458081Y-34286967D01*
X68439204Y-33986920D01*
X68439203Y-33986913D01*
X68439203Y-33986910D01*
X68382298Y-33688600D01*
X68288452Y-33399775D01*
X68159148Y-33124989D01*
X68159143Y-33124981D01*
X67996424Y-32868576D01*
X67996421Y-32868572D01*
X67802847Y-32634582D01*
X67802845Y-32634580D01*
X67581466Y-32426690D01*
X67581456Y-32426682D01*
X67335786Y-32248192D01*
X67335768Y-32248181D01*
X67069643Y-32101878D01*
X67069640Y-32101877D01*
X66822432Y-32004001D01*
X76067675Y-32004001D01*
X76071720Y-32039899D01*
X76072500Y-32053784D01*
X76072500Y-34765647D01*
X76087589Y-34841500D01*
X76087589Y-34841502D01*
X76101801Y-34912951D01*
X76101803Y-34912959D01*
X76159281Y-35051723D01*
X76242730Y-35176615D01*
X76242731Y-35176616D01*
X85180181Y-44114065D01*
X85213666Y-44175388D01*
X85216500Y-44201746D01*
X85216500Y-97732247D01*
X85216500Y-97732249D01*
X85216499Y-97732249D01*
X85242313Y-97862016D01*
X85245802Y-97879555D01*
X85245804Y-97879562D01*
X85303281Y-98018324D01*
X85386730Y-98143216D01*
X85879785Y-98636271D01*
X85879788Y-98636273D01*
X85944483Y-98679500D01*
X86004674Y-98719718D01*
X86143440Y-98777197D01*
X86143444Y-98777197D01*
X86143445Y-98777198D01*
X86290750Y-98806500D01*
X86290753Y-98806500D01*
X86413300Y-98806500D01*
X86480339Y-98826185D01*
X86526094Y-98878989D01*
X86537300Y-98930500D01*
X86537300Y-100534214D01*
X86536520Y-100548098D01*
X86532475Y-100583998D01*
X86532475Y-100584001D01*
X86536520Y-100619899D01*
X86537300Y-100633784D01*
X86537300Y-100659101D01*
X86544668Y-100696140D01*
X86546271Y-100706450D01*
X86551711Y-100754739D01*
X86551712Y-100754742D01*
X86559525Y-100777072D01*
X86564097Y-100793823D01*
X86566601Y-100806407D01*
X86566603Y-100806414D01*
X86585819Y-100852805D01*
X86588300Y-100859304D01*
X86608463Y-100916929D01*
X86608464Y-100916930D01*
X86614390Y-100926362D01*
X86614395Y-100926369D01*
X86623956Y-100944874D01*
X86624083Y-100945181D01*
X86624083Y-100945182D01*
X86658874Y-100997249D01*
X86660766Y-101000168D01*
X86699881Y-101062419D01*
X86821380Y-101183918D01*
X86821383Y-101183920D01*
X86883614Y-101223022D01*
X86886524Y-101224908D01*
X86938621Y-101259718D01*
X86938916Y-101259840D01*
X86957428Y-101269403D01*
X86966870Y-101275336D01*
X86966872Y-101275337D01*
X87005096Y-101288711D01*
X87024501Y-101295501D01*
X87030998Y-101297982D01*
X87077378Y-101317194D01*
X87077382Y-101317195D01*
X87077387Y-101317197D01*
X87089974Y-101319700D01*
X87106717Y-101324271D01*
X87129054Y-101332087D01*
X87177359Y-101337528D01*
X87187640Y-101339127D01*
X87224700Y-101346500D01*
X87250015Y-101346500D01*
X87263899Y-101347280D01*
X87299798Y-101351325D01*
X87299800Y-101351325D01*
X87299802Y-101351325D01*
X87335701Y-101347280D01*
X87349585Y-101346500D01*
X87374903Y-101346500D01*
X87404442Y-101340622D01*
X87411939Y-101339131D01*
X87422239Y-101337528D01*
X87470546Y-101332087D01*
X87492880Y-101324271D01*
X87509631Y-101319699D01*
X87522213Y-101317197D01*
X87568625Y-101297971D01*
X87575092Y-101295503D01*
X87599532Y-101286951D01*
X87632728Y-101275337D01*
X87642162Y-101269409D01*
X87660695Y-101259835D01*
X87660979Y-101259718D01*
X87713122Y-101224875D01*
X87715953Y-101223042D01*
X87778218Y-101183920D01*
X87778221Y-101183918D01*
X87899718Y-101062421D01*
X87899720Y-101062418D01*
X87938842Y-101000153D01*
X87940675Y-100997322D01*
X87975518Y-100945179D01*
X87975635Y-100944895D01*
X87985209Y-100926362D01*
X87991137Y-100916928D01*
X88011301Y-100859299D01*
X88013771Y-100852825D01*
X88032997Y-100806413D01*
X88035499Y-100793831D01*
X88040074Y-100777072D01*
X88047887Y-100754746D01*
X88053328Y-100706439D01*
X88054932Y-100696136D01*
X88062300Y-100659103D01*
X88062300Y-100633784D01*
X88063080Y-100619899D01*
X88067125Y-100584001D01*
X88067125Y-100583998D01*
X88063080Y-100548098D01*
X88062300Y-100534214D01*
X88062300Y-68940000D01*
X88081985Y-68872961D01*
X88134789Y-68827206D01*
X88203947Y-68817262D01*
X88267503Y-68846287D01*
X88273981Y-68852319D01*
X91417929Y-71996268D01*
X91417936Y-71996274D01*
X91510083Y-72057844D01*
X91510086Y-72057845D01*
X91510090Y-72057848D01*
X91542821Y-72079718D01*
X91681587Y-72137197D01*
X91681591Y-72137197D01*
X91681592Y-72137198D01*
X91828897Y-72166500D01*
X91828900Y-72166500D01*
X97664215Y-72166500D01*
X97678099Y-72167280D01*
X97713998Y-72171325D01*
X97714000Y-72171325D01*
X97714002Y-72171325D01*
X97749901Y-72167280D01*
X97763785Y-72166500D01*
X97789103Y-72166500D01*
X97818642Y-72160622D01*
X97826139Y-72159131D01*
X97836439Y-72157528D01*
X97884746Y-72152087D01*
X97907080Y-72144271D01*
X97923831Y-72139699D01*
X97936413Y-72137197D01*
X97982825Y-72117971D01*
X97989292Y-72115503D01*
X98013732Y-72106951D01*
X98046928Y-72095337D01*
X98056362Y-72089409D01*
X98074895Y-72079835D01*
X98075179Y-72079718D01*
X98127322Y-72044875D01*
X98130153Y-72043042D01*
X98192418Y-72003920D01*
X98192421Y-72003918D01*
X98313918Y-71882421D01*
X98313920Y-71882418D01*
X98353042Y-71820153D01*
X98354875Y-71817322D01*
X98389718Y-71765179D01*
X98389835Y-71764895D01*
X98399409Y-71746362D01*
X98405337Y-71736928D01*
X98425501Y-71679299D01*
X98427971Y-71672825D01*
X98447197Y-71626413D01*
X98449699Y-71613831D01*
X98454271Y-71597080D01*
X98462087Y-71574746D01*
X98467528Y-71526439D01*
X98469132Y-71516136D01*
X98476500Y-71479103D01*
X98476500Y-71453784D01*
X98477280Y-71439899D01*
X98481325Y-71404001D01*
X98481325Y-71403998D01*
X98477280Y-71368098D01*
X98476500Y-71354214D01*
X98476500Y-71328901D01*
X98474959Y-71321154D01*
X98469127Y-71291840D01*
X98467528Y-71281559D01*
X98462087Y-71233254D01*
X98454271Y-71210917D01*
X98449700Y-71194174D01*
X98447197Y-71181587D01*
X98447195Y-71181582D01*
X98447194Y-71181578D01*
X98427982Y-71135198D01*
X98425500Y-71128697D01*
X98405337Y-71071072D01*
X98405336Y-71071070D01*
X98399403Y-71061628D01*
X98389840Y-71043116D01*
X98389718Y-71042821D01*
X98354908Y-70990724D01*
X98353022Y-70987814D01*
X98317375Y-70931081D01*
X98313919Y-70925581D01*
X98192419Y-70804081D01*
X98130168Y-70764966D01*
X98127249Y-70763074D01*
X98075181Y-70728283D01*
X98075179Y-70728282D01*
X98074870Y-70728154D01*
X98056372Y-70718596D01*
X98051441Y-70715498D01*
X98046929Y-70712663D01*
X98011836Y-70700384D01*
X97989290Y-70692494D01*
X97982805Y-70690019D01*
X97936414Y-70670803D01*
X97936407Y-70670801D01*
X97923823Y-70668297D01*
X97907072Y-70663725D01*
X97884746Y-70655913D01*
X97884744Y-70655912D01*
X97884742Y-70655912D01*
X97884739Y-70655911D01*
X97836450Y-70650471D01*
X97826145Y-70648868D01*
X97806114Y-70644884D01*
X97789101Y-70641500D01*
X97789100Y-70641500D01*
X97763785Y-70641500D01*
X97749901Y-70640720D01*
X97714002Y-70636675D01*
X97713998Y-70636675D01*
X97678099Y-70640720D01*
X97664215Y-70641500D01*
X92271200Y-70641500D01*
X92204161Y-70621815D01*
X92183519Y-70605181D01*
X91052519Y-69474181D01*
X91019034Y-69412858D01*
X91024018Y-69343166D01*
X91065890Y-69287233D01*
X91131354Y-69262816D01*
X91140200Y-69262500D01*
X97363800Y-69262500D01*
X97430839Y-69282185D01*
X97451481Y-69298819D01*
X100157740Y-72005077D01*
X100157750Y-72005088D01*
X100162080Y-72009418D01*
X100162081Y-72009419D01*
X100283581Y-72130919D01*
X100340208Y-72166500D01*
X100345814Y-72170022D01*
X100348724Y-72171908D01*
X100400821Y-72206718D01*
X100401116Y-72206840D01*
X100419628Y-72216403D01*
X100429070Y-72222336D01*
X100429072Y-72222337D01*
X100486697Y-72242500D01*
X100493182Y-72244975D01*
X100539587Y-72264197D01*
X100552157Y-72266696D01*
X100568927Y-72271274D01*
X100591257Y-72279088D01*
X100639561Y-72284530D01*
X100649862Y-72286131D01*
X100686900Y-72293499D01*
X100712206Y-72293499D01*
X100726090Y-72294279D01*
X100761998Y-72298325D01*
X100762000Y-72298325D01*
X100762002Y-72298325D01*
X100797910Y-72294279D01*
X100811794Y-72293499D01*
X100837102Y-72293499D01*
X100866684Y-72287613D01*
X100874128Y-72286132D01*
X100884431Y-72284529D01*
X100932746Y-72279087D01*
X100955075Y-72271272D01*
X100971843Y-72266696D01*
X100977219Y-72265627D01*
X100984403Y-72264199D01*
X100984405Y-72264198D01*
X100984412Y-72264197D01*
X101030795Y-72244984D01*
X101037297Y-72242502D01*
X101094928Y-72222337D01*
X101104362Y-72216409D01*
X101122895Y-72206835D01*
X101123179Y-72206718D01*
X101175322Y-72171875D01*
X101178153Y-72170042D01*
X101183791Y-72166500D01*
X101219161Y-72144276D01*
X101240418Y-72130920D01*
X101240421Y-72130918D01*
X101361918Y-72009421D01*
X101361920Y-72009418D01*
X101393850Y-71958599D01*
X101401051Y-71947137D01*
X101402875Y-71944322D01*
X101437718Y-71892179D01*
X101437835Y-71891895D01*
X101447409Y-71873362D01*
X101453337Y-71863928D01*
X101473502Y-71806297D01*
X101475984Y-71799795D01*
X101495195Y-71753417D01*
X101495195Y-71753416D01*
X101495197Y-71753412D01*
X101497696Y-71740843D01*
X101502272Y-71724075D01*
X101510087Y-71701746D01*
X101515529Y-71653431D01*
X101517133Y-71643125D01*
X101524499Y-71606102D01*
X101524499Y-71580793D01*
X101525279Y-71566908D01*
X101529325Y-71531001D01*
X101529325Y-71530998D01*
X101525279Y-71495090D01*
X101524499Y-71481206D01*
X101524499Y-71455900D01*
X101524078Y-71453784D01*
X101517131Y-71418862D01*
X101515530Y-71408561D01*
X101510088Y-71360257D01*
X101502274Y-71337927D01*
X101497696Y-71321154D01*
X101495198Y-71308592D01*
X101495197Y-71308591D01*
X101495197Y-71308587D01*
X101475975Y-71262182D01*
X101473500Y-71255697D01*
X101453337Y-71198072D01*
X101450877Y-71194157D01*
X101447403Y-71188628D01*
X101437840Y-71170116D01*
X101437718Y-71169821D01*
X101402908Y-71117724D01*
X101401022Y-71114814D01*
X101361921Y-71052584D01*
X101361920Y-71052583D01*
X101361919Y-71052581D01*
X101240419Y-70931081D01*
X101240418Y-70931080D01*
X101236088Y-70926750D01*
X101236077Y-70926740D01*
X98217070Y-67907731D01*
X98217069Y-67907730D01*
X98217065Y-67907727D01*
X98092179Y-67824282D01*
X97953413Y-67766803D01*
X97953411Y-67766802D01*
X97946479Y-67765423D01*
X97941837Y-67764500D01*
X97941835Y-67764499D01*
X97941835Y-67764500D01*
X97806102Y-67737500D01*
X97806100Y-67737500D01*
X90367200Y-67737500D01*
X90300161Y-67717815D01*
X90279519Y-67701181D01*
X89478417Y-66900079D01*
X89478414Y-66900077D01*
X89416186Y-66860977D01*
X89413291Y-66859101D01*
X89361179Y-66824282D01*
X89360876Y-66824156D01*
X89342366Y-66814593D01*
X89332930Y-66808664D01*
X89275278Y-66788490D01*
X89268810Y-66786021D01*
X89222413Y-66766803D01*
X89222410Y-66766802D01*
X89209831Y-66764300D01*
X89193071Y-66759725D01*
X89185146Y-66756952D01*
X89128370Y-66716231D01*
X89102622Y-66651278D01*
X89102100Y-66639910D01*
X89102100Y-66527600D01*
X89121785Y-66460561D01*
X89138419Y-66439919D01*
X89592273Y-65986065D01*
X89599919Y-65978419D01*
X89639024Y-65916182D01*
X89640892Y-65913299D01*
X89675719Y-65861179D01*
X89675838Y-65860889D01*
X89685411Y-65842357D01*
X89691336Y-65832930D01*
X89711509Y-65775277D01*
X89713970Y-65768829D01*
X89733197Y-65722412D01*
X89735697Y-65709840D01*
X89740275Y-65693069D01*
X89742118Y-65687802D01*
X89748087Y-65670746D01*
X89753531Y-65622426D01*
X89755127Y-65612159D01*
X89762500Y-65575099D01*
X89762500Y-65549784D01*
X89763280Y-65535899D01*
X89767325Y-65500001D01*
X89767325Y-65499998D01*
X89763280Y-65464098D01*
X89762500Y-65450214D01*
X89762500Y-65424901D01*
X89762500Y-65424900D01*
X89755127Y-65387840D01*
X89753528Y-65377559D01*
X89748087Y-65329254D01*
X89740271Y-65306917D01*
X89735700Y-65290174D01*
X89733197Y-65277587D01*
X89713976Y-65231186D01*
X89711496Y-65224686D01*
X89691337Y-65167072D01*
X89685410Y-65157639D01*
X89675838Y-65139108D01*
X89675719Y-65138821D01*
X89672705Y-65134310D01*
X89640902Y-65086713D01*
X89639028Y-65083822D01*
X89599919Y-65021581D01*
X89478421Y-64900083D01*
X89478419Y-64900081D01*
X89416209Y-64860991D01*
X89413293Y-64859101D01*
X89361183Y-64824283D01*
X89361175Y-64824279D01*
X89360875Y-64824155D01*
X89342360Y-64814589D01*
X89332928Y-64808662D01*
X89275293Y-64788495D01*
X89268795Y-64786015D01*
X89222414Y-64766803D01*
X89222407Y-64766801D01*
X89209823Y-64764297D01*
X89193072Y-64759725D01*
X89170746Y-64751913D01*
X89170744Y-64751912D01*
X89170742Y-64751912D01*
X89170739Y-64751911D01*
X89122450Y-64746471D01*
X89112145Y-64744868D01*
X89092114Y-64740884D01*
X89075101Y-64737500D01*
X89075100Y-64737500D01*
X89049785Y-64737500D01*
X89035901Y-64736720D01*
X89000002Y-64732675D01*
X88999998Y-64732675D01*
X88964099Y-64736720D01*
X88950215Y-64737500D01*
X88924895Y-64737500D01*
X88887849Y-64744868D01*
X88877551Y-64746470D01*
X88850552Y-64749512D01*
X88829254Y-64751913D01*
X88829252Y-64751913D01*
X88829248Y-64751914D01*
X88806922Y-64759726D01*
X88790169Y-64764300D01*
X88777585Y-64766803D01*
X88777576Y-64766806D01*
X88731197Y-64786016D01*
X88724706Y-64788494D01*
X88667069Y-64808663D01*
X88657634Y-64814592D01*
X88639127Y-64824154D01*
X88638824Y-64824279D01*
X88586735Y-64859082D01*
X88583824Y-64860969D01*
X88521578Y-64900083D01*
X88273981Y-65147681D01*
X88212658Y-65181166D01*
X88142966Y-65176182D01*
X88087033Y-65134310D01*
X88062616Y-65068846D01*
X88062300Y-65060000D01*
X88062300Y-38837697D01*
X88032998Y-38690392D01*
X88032997Y-38690391D01*
X88032997Y-38690387D01*
X87975518Y-38551621D01*
X87941575Y-38500821D01*
X87941575Y-38500820D01*
X87892072Y-38426734D01*
X87848916Y-38383578D01*
X87735065Y-38269727D01*
X87727419Y-38262081D01*
X87727417Y-38262079D01*
X87727414Y-38262077D01*
X87665186Y-38222977D01*
X87662291Y-38221101D01*
X87610179Y-38186282D01*
X87609876Y-38186156D01*
X87591366Y-38176593D01*
X87581930Y-38170664D01*
X87524278Y-38150490D01*
X87517810Y-38148021D01*
X87471413Y-38128803D01*
X87471410Y-38128802D01*
X87458831Y-38126300D01*
X87442072Y-38121725D01*
X87419741Y-38113911D01*
X87419742Y-38113911D01*
X87371450Y-38108471D01*
X87361143Y-38106869D01*
X87360504Y-38106742D01*
X87324100Y-38099501D01*
X87324099Y-38099501D01*
X87298794Y-38099501D01*
X87284910Y-38098721D01*
X87249002Y-38094675D01*
X87248998Y-38094675D01*
X87213090Y-38098721D01*
X87199206Y-38099501D01*
X87173900Y-38099501D01*
X87136854Y-38106869D01*
X87126549Y-38108471D01*
X87078259Y-38113911D01*
X87078253Y-38113913D01*
X87055920Y-38121727D01*
X87039164Y-38126301D01*
X87026589Y-38128802D01*
X87026585Y-38128803D01*
X86980202Y-38148015D01*
X86973709Y-38150494D01*
X86916067Y-38170664D01*
X86906622Y-38176599D01*
X86888130Y-38186154D01*
X86887821Y-38186282D01*
X86887814Y-38186285D01*
X86835736Y-38221082D01*
X86832821Y-38222971D01*
X86770585Y-38262078D01*
X86770578Y-38262083D01*
X86649083Y-38383578D01*
X86649078Y-38383585D01*
X86609971Y-38445821D01*
X86608082Y-38448736D01*
X86573285Y-38500814D01*
X86573282Y-38500821D01*
X86573154Y-38501130D01*
X86563599Y-38519622D01*
X86557664Y-38529067D01*
X86537494Y-38586709D01*
X86535015Y-38593202D01*
X86515803Y-38639585D01*
X86515802Y-38639589D01*
X86513301Y-38652164D01*
X86508727Y-38668920D01*
X86500913Y-38691253D01*
X86500911Y-38691259D01*
X86495471Y-38739549D01*
X86493869Y-38749854D01*
X86486501Y-38786899D01*
X86486501Y-38812206D01*
X86485721Y-38826090D01*
X86481675Y-38861998D01*
X86481675Y-38862001D01*
X86485721Y-38897908D01*
X86486501Y-38911793D01*
X86486501Y-38937098D01*
X86493869Y-38974143D01*
X86495471Y-38984450D01*
X86500911Y-39032742D01*
X86508725Y-39055072D01*
X86513300Y-39071831D01*
X86515802Y-39084410D01*
X86515803Y-39084413D01*
X86527861Y-39113523D01*
X86537300Y-39160976D01*
X86537300Y-42081200D01*
X86517615Y-42148239D01*
X86464811Y-42193994D01*
X86395653Y-42203938D01*
X86332097Y-42174913D01*
X86325619Y-42168881D01*
X78446743Y-34290005D01*
X99181728Y-34290005D01*
X99200795Y-34593079D01*
X99200796Y-34593086D01*
X99200797Y-34593090D01*
X99248183Y-34841501D01*
X99257703Y-34891404D01*
X99351548Y-35180226D01*
X99351550Y-35180231D01*
X99480850Y-35455007D01*
X99480856Y-35455018D01*
X99643575Y-35711423D01*
X99643578Y-35711427D01*
X99837152Y-35945417D01*
X99837154Y-35945419D01*
X100058533Y-36153309D01*
X100058543Y-36153317D01*
X100304213Y-36331807D01*
X100304219Y-36331810D01*
X100304225Y-36331815D01*
X100570350Y-36478118D01*
X100570351Y-36478118D01*
X100570356Y-36478121D01*
X100570359Y-36478122D01*
X100840125Y-36584929D01*
X100852713Y-36589913D01*
X101146861Y-36665438D01*
X101210066Y-36673422D01*
X101448143Y-36703499D01*
X101448152Y-36703499D01*
X101448155Y-36703500D01*
X101448157Y-36703500D01*
X101751843Y-36703500D01*
X101751845Y-36703500D01*
X101751848Y-36703499D01*
X101751856Y-36703499D01*
X101931639Y-36680786D01*
X102053139Y-36665438D01*
X102347287Y-36589913D01*
X102629640Y-36478122D01*
X102629643Y-36478121D01*
X102629644Y-36478120D01*
X102629650Y-36478118D01*
X102895775Y-36331815D01*
X103141465Y-36153311D01*
X103362844Y-35945421D01*
X103556423Y-35711425D01*
X103719148Y-35455011D01*
X103848452Y-35180225D01*
X103942298Y-34891400D01*
X103999203Y-34593090D01*
X104018272Y-34290000D01*
X104018081Y-34286967D01*
X103999204Y-33986920D01*
X103999203Y-33986913D01*
X103999203Y-33986910D01*
X103942298Y-33688600D01*
X103848452Y-33399775D01*
X103719148Y-33124989D01*
X103719143Y-33124981D01*
X103556424Y-32868576D01*
X103556421Y-32868572D01*
X103362847Y-32634582D01*
X103362845Y-32634580D01*
X103141466Y-32426690D01*
X103141456Y-32426682D01*
X102895786Y-32248192D01*
X102895768Y-32248181D01*
X102629643Y-32101878D01*
X102629640Y-32101877D01*
X102347291Y-31990088D01*
X102207572Y-31954214D01*
X102053139Y-31914562D01*
X102053136Y-31914561D01*
X102053129Y-31914560D01*
X101751856Y-31876500D01*
X101751845Y-31876500D01*
X101448155Y-31876500D01*
X101448143Y-31876500D01*
X101146870Y-31914560D01*
X101146861Y-31914562D01*
X100852708Y-31990088D01*
X100570359Y-32101877D01*
X100570356Y-32101878D01*
X100304231Y-32248181D01*
X100304213Y-32248192D01*
X100058543Y-32426682D01*
X100058533Y-32426690D01*
X99837154Y-32634580D01*
X99837152Y-32634582D01*
X99643578Y-32868572D01*
X99643575Y-32868576D01*
X99480856Y-33124981D01*
X99480850Y-33124992D01*
X99351550Y-33399768D01*
X99351548Y-33399773D01*
X99257703Y-33688595D01*
X99200796Y-33986913D01*
X99200795Y-33986920D01*
X99181728Y-34289994D01*
X99181728Y-34290005D01*
X78446743Y-34290005D01*
X78100817Y-33944079D01*
X78100814Y-33944077D01*
X78038586Y-33904977D01*
X78035691Y-33903101D01*
X77983579Y-33868282D01*
X77983276Y-33868156D01*
X77964766Y-33858593D01*
X77955330Y-33852664D01*
X77897678Y-33832490D01*
X77891210Y-33830021D01*
X77844813Y-33810803D01*
X77844810Y-33810802D01*
X77832231Y-33808300D01*
X77815472Y-33803725D01*
X77793141Y-33795911D01*
X77793142Y-33795911D01*
X77744850Y-33790471D01*
X77734542Y-33788868D01*
X77697309Y-33781462D01*
X77635398Y-33749078D01*
X77600824Y-33688362D01*
X77597500Y-33659845D01*
X77597500Y-32053784D01*
X77598280Y-32039899D01*
X77602325Y-32004001D01*
X77602325Y-32003998D01*
X77598280Y-31968098D01*
X77597500Y-31954214D01*
X77597500Y-31928901D01*
X77595471Y-31918701D01*
X77590127Y-31891840D01*
X77588528Y-31881559D01*
X77583087Y-31833254D01*
X77575271Y-31810917D01*
X77570700Y-31794174D01*
X77568197Y-31781587D01*
X77568195Y-31781582D01*
X77568194Y-31781578D01*
X77548982Y-31735198D01*
X77546500Y-31728697D01*
X77526337Y-31671072D01*
X77526334Y-31671067D01*
X77520400Y-31661622D01*
X77510840Y-31643116D01*
X77510718Y-31642821D01*
X77475908Y-31590724D01*
X77474022Y-31587814D01*
X77434920Y-31525583D01*
X77434918Y-31525580D01*
X77313419Y-31404081D01*
X77251168Y-31364966D01*
X77248249Y-31363074D01*
X77196181Y-31328283D01*
X77196174Y-31328280D01*
X77195870Y-31328154D01*
X77177372Y-31318596D01*
X77172441Y-31315498D01*
X77167929Y-31312663D01*
X77132836Y-31300384D01*
X77110290Y-31292494D01*
X77103805Y-31290019D01*
X77057414Y-31270803D01*
X77057407Y-31270801D01*
X77044823Y-31268297D01*
X77028072Y-31263725D01*
X77005746Y-31255913D01*
X77005744Y-31255912D01*
X77005742Y-31255912D01*
X77005739Y-31255911D01*
X76957450Y-31250471D01*
X76947145Y-31248868D01*
X76927114Y-31244884D01*
X76910101Y-31241500D01*
X76910100Y-31241500D01*
X76884785Y-31241500D01*
X76870901Y-31240720D01*
X76835002Y-31236675D01*
X76834998Y-31236675D01*
X76799099Y-31240720D01*
X76785215Y-31241500D01*
X76759896Y-31241500D01*
X76722856Y-31248868D01*
X76712548Y-31250471D01*
X76664260Y-31255911D01*
X76664255Y-31255912D01*
X76641917Y-31263728D01*
X76625165Y-31268300D01*
X76612588Y-31270802D01*
X76612587Y-31270802D01*
X76566202Y-31290015D01*
X76559709Y-31292494D01*
X76502067Y-31312664D01*
X76492622Y-31318599D01*
X76474130Y-31328154D01*
X76473825Y-31328280D01*
X76473823Y-31328280D01*
X76473821Y-31328282D01*
X76421750Y-31363074D01*
X76421731Y-31363087D01*
X76418814Y-31364977D01*
X76356581Y-31404080D01*
X76235080Y-31525581D01*
X76195977Y-31587814D01*
X76194091Y-31590723D01*
X76159282Y-31642821D01*
X76159280Y-31642823D01*
X76159280Y-31642825D01*
X76159154Y-31643130D01*
X76149599Y-31661622D01*
X76143664Y-31671067D01*
X76123494Y-31728709D01*
X76121015Y-31735202D01*
X76101802Y-31781587D01*
X76101802Y-31781588D01*
X76099300Y-31794165D01*
X76094728Y-31810917D01*
X76086912Y-31833255D01*
X76086911Y-31833260D01*
X76081471Y-31881548D01*
X76079868Y-31891856D01*
X76072500Y-31928896D01*
X76072500Y-31954214D01*
X76071720Y-31968098D01*
X76067675Y-32003998D01*
X76067675Y-32004001D01*
X66822432Y-32004001D01*
X66787291Y-31990088D01*
X66647572Y-31954214D01*
X66493139Y-31914562D01*
X66493136Y-31914561D01*
X66493129Y-31914560D01*
X66191856Y-31876500D01*
X66191845Y-31876500D01*
X65888155Y-31876500D01*
X65888143Y-31876500D01*
X65586870Y-31914560D01*
X65586861Y-31914562D01*
X65292708Y-31990088D01*
X65010359Y-32101877D01*
X65010356Y-32101878D01*
X64744231Y-32248181D01*
X64744213Y-32248192D01*
X64498543Y-32426682D01*
X64498533Y-32426690D01*
X64277154Y-32634580D01*
X64277152Y-32634582D01*
X64083578Y-32868572D01*
X64083575Y-32868576D01*
X63920856Y-33124981D01*
X63920850Y-33124992D01*
X63791550Y-33399768D01*
X63791548Y-33399773D01*
X63697703Y-33688595D01*
X63640796Y-33986913D01*
X63640795Y-33986920D01*
X63621728Y-34289994D01*
X63621728Y-34290005D01*
X62611575Y-34290005D01*
X62611649Y-34286967D01*
X62626389Y-33986920D01*
X62627710Y-33960027D01*
X62628903Y-33947920D01*
X62628903Y-33947919D01*
X62676486Y-33627144D01*
X62678854Y-33615237D01*
X62757653Y-33300654D01*
X62761176Y-33289039D01*
X62870434Y-32983682D01*
X62875073Y-32972485D01*
X63013740Y-32679297D01*
X63019456Y-32668605D01*
X63186185Y-32390433D01*
X63192915Y-32380360D01*
X63386126Y-32119847D01*
X63393808Y-32110487D01*
X63611609Y-31870179D01*
X63620179Y-31861609D01*
X63860487Y-31643808D01*
X63869847Y-31636126D01*
X64130360Y-31442915D01*
X64140433Y-31436185D01*
X64418605Y-31269456D01*
X64429297Y-31263740D01*
X64722485Y-31125073D01*
X64733682Y-31120434D01*
X65039039Y-31011176D01*
X65050654Y-31007653D01*
X65365237Y-30928854D01*
X65377144Y-30926486D01*
X65697923Y-30878902D01*
X65710027Y-30877710D01*
X66036967Y-30861648D01*
X66043051Y-30861500D01*
X66094851Y-30861500D01*
X101545149Y-30861500D01*
X101596949Y-30861500D01*
X101603032Y-30861648D01*
G37*
%TD.AperFunction*%
%TD*%
M02*
