%TF.GenerationSoftware,KiCad,Pcbnew,8.0.1-rc1*%
%TF.CreationDate,2024-06-07T11:34:21-05:00*%
%TF.ProjectId,Cutdown,43757464-6f77-46e2-9e6b-696361645f70,2.0.0*%
%TF.SameCoordinates,Original*%
%TF.FileFunction,Legend,Top*%
%TF.FilePolarity,Positive*%
%FSLAX46Y46*%
G04 Gerber Fmt 4.6, Leading zero omitted, Abs format (unit mm)*
G04 Created by KiCad (PCBNEW 8.0.1-rc1) date 2024-06-07 11:34:21*
%MOMM*%
%LPD*%
G01*
G04 APERTURE LIST*
%ADD10C,0.300000*%
%ADD11C,0.150000*%
%ADD12C,0.120000*%
%ADD13C,0.127000*%
%ADD14C,1.000000*%
%ADD15C,0.500000*%
%ADD16C,0.152400*%
%ADD17C,0.508000*%
%ADD18C,0.000000*%
%ADD19C,0.063500*%
%ADD20C,0.200000*%
%ADD21C,0.010000*%
G04 APERTURE END LIST*
D10*
X75714500Y-168216727D02*
X75774976Y-168035298D01*
X75774976Y-168035298D02*
X75774976Y-167732917D01*
X75774976Y-167732917D02*
X75714500Y-167611965D01*
X75714500Y-167611965D02*
X75654023Y-167551489D01*
X75654023Y-167551489D02*
X75533071Y-167491012D01*
X75533071Y-167491012D02*
X75412119Y-167491012D01*
X75412119Y-167491012D02*
X75291166Y-167551489D01*
X75291166Y-167551489D02*
X75230690Y-167611965D01*
X75230690Y-167611965D02*
X75170214Y-167732917D01*
X75170214Y-167732917D02*
X75109738Y-167974822D01*
X75109738Y-167974822D02*
X75049261Y-168095774D01*
X75049261Y-168095774D02*
X74988785Y-168156251D01*
X74988785Y-168156251D02*
X74867833Y-168216727D01*
X74867833Y-168216727D02*
X74746880Y-168216727D01*
X74746880Y-168216727D02*
X74625928Y-168156251D01*
X74625928Y-168156251D02*
X74565452Y-168095774D01*
X74565452Y-168095774D02*
X74504976Y-167974822D01*
X74504976Y-167974822D02*
X74504976Y-167672441D01*
X74504976Y-167672441D02*
X74565452Y-167491012D01*
X74928309Y-167067679D02*
X75774976Y-166825774D01*
X75774976Y-166825774D02*
X75170214Y-166583869D01*
X75170214Y-166583869D02*
X75774976Y-166341965D01*
X75774976Y-166341965D02*
X74928309Y-166100060D01*
X75774976Y-165616251D02*
X74928309Y-165616251D01*
X74504976Y-165616251D02*
X74565452Y-165676727D01*
X74565452Y-165676727D02*
X74625928Y-165616251D01*
X74625928Y-165616251D02*
X74565452Y-165555774D01*
X74565452Y-165555774D02*
X74504976Y-165616251D01*
X74504976Y-165616251D02*
X74625928Y-165616251D01*
X74928309Y-165192917D02*
X74928309Y-164709108D01*
X74504976Y-165011489D02*
X75593547Y-165011489D01*
X75593547Y-165011489D02*
X75714500Y-164951012D01*
X75714500Y-164951012D02*
X75774976Y-164830060D01*
X75774976Y-164830060D02*
X75774976Y-164709108D01*
X75714500Y-163741489D02*
X75774976Y-163862441D01*
X75774976Y-163862441D02*
X75774976Y-164104346D01*
X75774976Y-164104346D02*
X75714500Y-164225298D01*
X75714500Y-164225298D02*
X75654023Y-164285775D01*
X75654023Y-164285775D02*
X75533071Y-164346251D01*
X75533071Y-164346251D02*
X75170214Y-164346251D01*
X75170214Y-164346251D02*
X75049261Y-164285775D01*
X75049261Y-164285775D02*
X74988785Y-164225298D01*
X74988785Y-164225298D02*
X74928309Y-164104346D01*
X74928309Y-164104346D02*
X74928309Y-163862441D01*
X74928309Y-163862441D02*
X74988785Y-163741489D01*
X75774976Y-163197204D02*
X74504976Y-163197204D01*
X75774976Y-162652918D02*
X75109738Y-162652918D01*
X75109738Y-162652918D02*
X74988785Y-162713394D01*
X74988785Y-162713394D02*
X74928309Y-162834346D01*
X74928309Y-162834346D02*
X74928309Y-163015775D01*
X74928309Y-163015775D02*
X74988785Y-163136727D01*
X74988785Y-163136727D02*
X75049261Y-163197204D01*
X64800238Y-93033973D02*
X64739762Y-93094450D01*
X64739762Y-93094450D02*
X64558333Y-93154926D01*
X64558333Y-93154926D02*
X64437381Y-93154926D01*
X64437381Y-93154926D02*
X64255952Y-93094450D01*
X64255952Y-93094450D02*
X64135000Y-92973497D01*
X64135000Y-92973497D02*
X64074523Y-92852545D01*
X64074523Y-92852545D02*
X64014047Y-92610640D01*
X64014047Y-92610640D02*
X64014047Y-92429211D01*
X64014047Y-92429211D02*
X64074523Y-92187307D01*
X64074523Y-92187307D02*
X64135000Y-92066354D01*
X64135000Y-92066354D02*
X64255952Y-91945402D01*
X64255952Y-91945402D02*
X64437381Y-91884926D01*
X64437381Y-91884926D02*
X64558333Y-91884926D01*
X64558333Y-91884926D02*
X64739762Y-91945402D01*
X64739762Y-91945402D02*
X64800238Y-92005878D01*
X65163095Y-91884926D02*
X65888809Y-91884926D01*
X65525952Y-93154926D02*
X65525952Y-91884926D01*
X67037857Y-93154926D02*
X66614523Y-92550164D01*
X66312142Y-93154926D02*
X66312142Y-91884926D01*
X66312142Y-91884926D02*
X66795952Y-91884926D01*
X66795952Y-91884926D02*
X66916904Y-91945402D01*
X66916904Y-91945402D02*
X66977381Y-92005878D01*
X66977381Y-92005878D02*
X67037857Y-92126830D01*
X67037857Y-92126830D02*
X67037857Y-92308259D01*
X67037857Y-92308259D02*
X66977381Y-92429211D01*
X66977381Y-92429211D02*
X66916904Y-92489688D01*
X66916904Y-92489688D02*
X66795952Y-92550164D01*
X66795952Y-92550164D02*
X66312142Y-92550164D01*
X68186904Y-93154926D02*
X67582142Y-93154926D01*
X67582142Y-93154926D02*
X67582142Y-91884926D01*
X64739761Y-90004116D02*
X65707381Y-90004116D01*
X65223571Y-90487926D02*
X65223571Y-89520307D01*
X66916904Y-89217926D02*
X66312142Y-89217926D01*
X66312142Y-89217926D02*
X66251666Y-89822688D01*
X66251666Y-89822688D02*
X66312142Y-89762211D01*
X66312142Y-89762211D02*
X66433095Y-89701735D01*
X66433095Y-89701735D02*
X66735476Y-89701735D01*
X66735476Y-89701735D02*
X66856428Y-89762211D01*
X66856428Y-89762211D02*
X66916904Y-89822688D01*
X66916904Y-89822688D02*
X66977381Y-89943640D01*
X66977381Y-89943640D02*
X66977381Y-90246021D01*
X66977381Y-90246021D02*
X66916904Y-90366973D01*
X66916904Y-90366973D02*
X66856428Y-90427450D01*
X66856428Y-90427450D02*
X66735476Y-90487926D01*
X66735476Y-90487926D02*
X66433095Y-90487926D01*
X66433095Y-90487926D02*
X66312142Y-90427450D01*
X66312142Y-90427450D02*
X66251666Y-90366973D01*
X67340238Y-89217926D02*
X67763571Y-90487926D01*
X67763571Y-90487926D02*
X68186905Y-89217926D01*
X74952500Y-114114727D02*
X75012976Y-113933298D01*
X75012976Y-113933298D02*
X75012976Y-113630917D01*
X75012976Y-113630917D02*
X74952500Y-113509965D01*
X74952500Y-113509965D02*
X74892023Y-113449489D01*
X74892023Y-113449489D02*
X74771071Y-113389012D01*
X74771071Y-113389012D02*
X74650119Y-113389012D01*
X74650119Y-113389012D02*
X74529166Y-113449489D01*
X74529166Y-113449489D02*
X74468690Y-113509965D01*
X74468690Y-113509965D02*
X74408214Y-113630917D01*
X74408214Y-113630917D02*
X74347738Y-113872822D01*
X74347738Y-113872822D02*
X74287261Y-113993774D01*
X74287261Y-113993774D02*
X74226785Y-114054251D01*
X74226785Y-114054251D02*
X74105833Y-114114727D01*
X74105833Y-114114727D02*
X73984880Y-114114727D01*
X73984880Y-114114727D02*
X73863928Y-114054251D01*
X73863928Y-114054251D02*
X73803452Y-113993774D01*
X73803452Y-113993774D02*
X73742976Y-113872822D01*
X73742976Y-113872822D02*
X73742976Y-113570441D01*
X73742976Y-113570441D02*
X73803452Y-113389012D01*
X74952500Y-112360917D02*
X75012976Y-112481869D01*
X75012976Y-112481869D02*
X75012976Y-112723774D01*
X75012976Y-112723774D02*
X74952500Y-112844727D01*
X74952500Y-112844727D02*
X74831547Y-112905203D01*
X74831547Y-112905203D02*
X74347738Y-112905203D01*
X74347738Y-112905203D02*
X74226785Y-112844727D01*
X74226785Y-112844727D02*
X74166309Y-112723774D01*
X74166309Y-112723774D02*
X74166309Y-112481869D01*
X74166309Y-112481869D02*
X74226785Y-112360917D01*
X74226785Y-112360917D02*
X74347738Y-112300441D01*
X74347738Y-112300441D02*
X74468690Y-112300441D01*
X74468690Y-112300441D02*
X74589642Y-112905203D01*
X75012976Y-111756156D02*
X74166309Y-111756156D01*
X74408214Y-111756156D02*
X74287261Y-111695679D01*
X74287261Y-111695679D02*
X74226785Y-111635203D01*
X74226785Y-111635203D02*
X74166309Y-111514251D01*
X74166309Y-111514251D02*
X74166309Y-111393298D01*
X75012976Y-110969966D02*
X74166309Y-110969966D01*
X73742976Y-110969966D02*
X73803452Y-111030442D01*
X73803452Y-111030442D02*
X73863928Y-110969966D01*
X73863928Y-110969966D02*
X73803452Y-110909489D01*
X73803452Y-110909489D02*
X73742976Y-110969966D01*
X73742976Y-110969966D02*
X73863928Y-110969966D01*
X75012976Y-109820918D02*
X74347738Y-109820918D01*
X74347738Y-109820918D02*
X74226785Y-109881394D01*
X74226785Y-109881394D02*
X74166309Y-110002346D01*
X74166309Y-110002346D02*
X74166309Y-110244251D01*
X74166309Y-110244251D02*
X74226785Y-110365204D01*
X74952500Y-109820918D02*
X75012976Y-109941870D01*
X75012976Y-109941870D02*
X75012976Y-110244251D01*
X75012976Y-110244251D02*
X74952500Y-110365204D01*
X74952500Y-110365204D02*
X74831547Y-110425680D01*
X74831547Y-110425680D02*
X74710595Y-110425680D01*
X74710595Y-110425680D02*
X74589642Y-110365204D01*
X74589642Y-110365204D02*
X74529166Y-110244251D01*
X74529166Y-110244251D02*
X74529166Y-109941870D01*
X74529166Y-109941870D02*
X74468690Y-109820918D01*
X75012976Y-109034727D02*
X74952500Y-109155679D01*
X74952500Y-109155679D02*
X74831547Y-109216156D01*
X74831547Y-109216156D02*
X73742976Y-109216156D01*
X65405000Y-86738402D02*
X65284047Y-86677926D01*
X65284047Y-86677926D02*
X65102619Y-86677926D01*
X65102619Y-86677926D02*
X64921190Y-86738402D01*
X64921190Y-86738402D02*
X64800238Y-86859354D01*
X64800238Y-86859354D02*
X64739761Y-86980307D01*
X64739761Y-86980307D02*
X64679285Y-87222211D01*
X64679285Y-87222211D02*
X64679285Y-87403640D01*
X64679285Y-87403640D02*
X64739761Y-87645545D01*
X64739761Y-87645545D02*
X64800238Y-87766497D01*
X64800238Y-87766497D02*
X64921190Y-87887450D01*
X64921190Y-87887450D02*
X65102619Y-87947926D01*
X65102619Y-87947926D02*
X65223571Y-87947926D01*
X65223571Y-87947926D02*
X65405000Y-87887450D01*
X65405000Y-87887450D02*
X65465476Y-87826973D01*
X65465476Y-87826973D02*
X65465476Y-87403640D01*
X65465476Y-87403640D02*
X65223571Y-87403640D01*
X66009761Y-87947926D02*
X66009761Y-86677926D01*
X66009761Y-86677926D02*
X66735476Y-87947926D01*
X66735476Y-87947926D02*
X66735476Y-86677926D01*
X67340237Y-87947926D02*
X67340237Y-86677926D01*
X67340237Y-86677926D02*
X67642618Y-86677926D01*
X67642618Y-86677926D02*
X67824047Y-86738402D01*
X67824047Y-86738402D02*
X67944999Y-86859354D01*
X67944999Y-86859354D02*
X68005476Y-86980307D01*
X68005476Y-86980307D02*
X68065952Y-87222211D01*
X68065952Y-87222211D02*
X68065952Y-87403640D01*
X68065952Y-87403640D02*
X68005476Y-87645545D01*
X68005476Y-87645545D02*
X67944999Y-87766497D01*
X67944999Y-87766497D02*
X67824047Y-87887450D01*
X67824047Y-87887450D02*
X67642618Y-87947926D01*
X67642618Y-87947926D02*
X67340237Y-87947926D01*
X79609166Y-167394251D02*
X79609166Y-166426632D01*
X80092976Y-166910441D02*
X79125357Y-166910441D01*
X80092976Y-165761393D02*
X80092976Y-165519489D01*
X80092976Y-165519489D02*
X80032500Y-165398536D01*
X80032500Y-165398536D02*
X79972023Y-165338060D01*
X79972023Y-165338060D02*
X79790595Y-165217108D01*
X79790595Y-165217108D02*
X79548690Y-165156631D01*
X79548690Y-165156631D02*
X79064880Y-165156631D01*
X79064880Y-165156631D02*
X78943928Y-165217108D01*
X78943928Y-165217108D02*
X78883452Y-165277584D01*
X78883452Y-165277584D02*
X78822976Y-165398536D01*
X78822976Y-165398536D02*
X78822976Y-165640441D01*
X78822976Y-165640441D02*
X78883452Y-165761393D01*
X78883452Y-165761393D02*
X78943928Y-165821870D01*
X78943928Y-165821870D02*
X79064880Y-165882346D01*
X79064880Y-165882346D02*
X79367261Y-165882346D01*
X79367261Y-165882346D02*
X79488214Y-165821870D01*
X79488214Y-165821870D02*
X79548690Y-165761393D01*
X79548690Y-165761393D02*
X79609166Y-165640441D01*
X79609166Y-165640441D02*
X79609166Y-165398536D01*
X79609166Y-165398536D02*
X79548690Y-165277584D01*
X79548690Y-165277584D02*
X79488214Y-165217108D01*
X79488214Y-165217108D02*
X79367261Y-165156631D01*
X78822976Y-164793774D02*
X80092976Y-164370441D01*
X80092976Y-164370441D02*
X78822976Y-163947107D01*
X74347738Y-124976251D02*
X74347738Y-124552917D01*
X75012976Y-124371489D02*
X75012976Y-124976251D01*
X75012976Y-124976251D02*
X73742976Y-124976251D01*
X73742976Y-124976251D02*
X73742976Y-124371489D01*
X73742976Y-123948155D02*
X75012976Y-123101488D01*
X73742976Y-123101488D02*
X75012976Y-123948155D01*
X73742976Y-122799107D02*
X73742976Y-122073393D01*
X75012976Y-122436250D02*
X73742976Y-122436250D01*
X75012976Y-120984821D02*
X75012976Y-121710536D01*
X75012976Y-121347679D02*
X73742976Y-121347679D01*
X73742976Y-121347679D02*
X73924404Y-121468631D01*
X73924404Y-121468631D02*
X74045357Y-121589583D01*
X74045357Y-121589583D02*
X74105833Y-121710536D01*
X71650500Y-168216727D02*
X71710976Y-168035298D01*
X71710976Y-168035298D02*
X71710976Y-167732917D01*
X71710976Y-167732917D02*
X71650500Y-167611965D01*
X71650500Y-167611965D02*
X71590023Y-167551489D01*
X71590023Y-167551489D02*
X71469071Y-167491012D01*
X71469071Y-167491012D02*
X71348119Y-167491012D01*
X71348119Y-167491012D02*
X71227166Y-167551489D01*
X71227166Y-167551489D02*
X71166690Y-167611965D01*
X71166690Y-167611965D02*
X71106214Y-167732917D01*
X71106214Y-167732917D02*
X71045738Y-167974822D01*
X71045738Y-167974822D02*
X70985261Y-168095774D01*
X70985261Y-168095774D02*
X70924785Y-168156251D01*
X70924785Y-168156251D02*
X70803833Y-168216727D01*
X70803833Y-168216727D02*
X70682880Y-168216727D01*
X70682880Y-168216727D02*
X70561928Y-168156251D01*
X70561928Y-168156251D02*
X70501452Y-168095774D01*
X70501452Y-168095774D02*
X70440976Y-167974822D01*
X70440976Y-167974822D02*
X70440976Y-167672441D01*
X70440976Y-167672441D02*
X70501452Y-167491012D01*
X70864309Y-167067679D02*
X71710976Y-166825774D01*
X71710976Y-166825774D02*
X71106214Y-166583869D01*
X71106214Y-166583869D02*
X71710976Y-166341965D01*
X71710976Y-166341965D02*
X70864309Y-166100060D01*
X71710976Y-165616251D02*
X70864309Y-165616251D01*
X70440976Y-165616251D02*
X70501452Y-165676727D01*
X70501452Y-165676727D02*
X70561928Y-165616251D01*
X70561928Y-165616251D02*
X70501452Y-165555774D01*
X70501452Y-165555774D02*
X70440976Y-165616251D01*
X70440976Y-165616251D02*
X70561928Y-165616251D01*
X70864309Y-165192917D02*
X70864309Y-164709108D01*
X70440976Y-165011489D02*
X71529547Y-165011489D01*
X71529547Y-165011489D02*
X71650500Y-164951012D01*
X71650500Y-164951012D02*
X71710976Y-164830060D01*
X71710976Y-164830060D02*
X71710976Y-164709108D01*
X71650500Y-163741489D02*
X71710976Y-163862441D01*
X71710976Y-163862441D02*
X71710976Y-164104346D01*
X71710976Y-164104346D02*
X71650500Y-164225298D01*
X71650500Y-164225298D02*
X71590023Y-164285775D01*
X71590023Y-164285775D02*
X71469071Y-164346251D01*
X71469071Y-164346251D02*
X71106214Y-164346251D01*
X71106214Y-164346251D02*
X70985261Y-164285775D01*
X70985261Y-164285775D02*
X70924785Y-164225298D01*
X70924785Y-164225298D02*
X70864309Y-164104346D01*
X70864309Y-164104346D02*
X70864309Y-163862441D01*
X70864309Y-163862441D02*
X70924785Y-163741489D01*
X71710976Y-163197204D02*
X70440976Y-163197204D01*
X71710976Y-162652918D02*
X71045738Y-162652918D01*
X71045738Y-162652918D02*
X70924785Y-162713394D01*
X70924785Y-162713394D02*
X70864309Y-162834346D01*
X70864309Y-162834346D02*
X70864309Y-163015775D01*
X70864309Y-163015775D02*
X70924785Y-163136727D01*
X70924785Y-163136727D02*
X70985261Y-163197204D01*
X68785801Y-48292164D02*
X68785801Y-47577878D01*
X68785801Y-47577878D02*
X70285801Y-47577878D01*
X68857230Y-49363593D02*
X68785801Y-49220736D01*
X68785801Y-49220736D02*
X68785801Y-48935022D01*
X68785801Y-48935022D02*
X68857230Y-48792164D01*
X68857230Y-48792164D02*
X69000087Y-48720736D01*
X69000087Y-48720736D02*
X69571515Y-48720736D01*
X69571515Y-48720736D02*
X69714372Y-48792164D01*
X69714372Y-48792164D02*
X69785801Y-48935022D01*
X69785801Y-48935022D02*
X69785801Y-49220736D01*
X69785801Y-49220736D02*
X69714372Y-49363593D01*
X69714372Y-49363593D02*
X69571515Y-49435022D01*
X69571515Y-49435022D02*
X69428658Y-49435022D01*
X69428658Y-49435022D02*
X69285801Y-48720736D01*
X68857230Y-50649307D02*
X68785801Y-50506450D01*
X68785801Y-50506450D02*
X68785801Y-50220736D01*
X68785801Y-50220736D02*
X68857230Y-50077878D01*
X68857230Y-50077878D02*
X69000087Y-50006450D01*
X69000087Y-50006450D02*
X69571515Y-50006450D01*
X69571515Y-50006450D02*
X69714372Y-50077878D01*
X69714372Y-50077878D02*
X69785801Y-50220736D01*
X69785801Y-50220736D02*
X69785801Y-50506450D01*
X69785801Y-50506450D02*
X69714372Y-50649307D01*
X69714372Y-50649307D02*
X69571515Y-50720736D01*
X69571515Y-50720736D02*
X69428658Y-50720736D01*
X69428658Y-50720736D02*
X69285801Y-50006450D01*
X68785801Y-51363592D02*
X69785801Y-51363592D01*
X69642944Y-51363592D02*
X69714372Y-51435021D01*
X69714372Y-51435021D02*
X69785801Y-51577878D01*
X69785801Y-51577878D02*
X69785801Y-51792164D01*
X69785801Y-51792164D02*
X69714372Y-51935021D01*
X69714372Y-51935021D02*
X69571515Y-52006450D01*
X69571515Y-52006450D02*
X68785801Y-52006450D01*
X69571515Y-52006450D02*
X69714372Y-52077878D01*
X69714372Y-52077878D02*
X69785801Y-52220735D01*
X69785801Y-52220735D02*
X69785801Y-52435021D01*
X69785801Y-52435021D02*
X69714372Y-52577878D01*
X69714372Y-52577878D02*
X69571515Y-52649307D01*
X69571515Y-52649307D02*
X68785801Y-52649307D01*
X68785801Y-54006450D02*
X69571515Y-54006450D01*
X69571515Y-54006450D02*
X69714372Y-53935021D01*
X69714372Y-53935021D02*
X69785801Y-53792164D01*
X69785801Y-53792164D02*
X69785801Y-53506450D01*
X69785801Y-53506450D02*
X69714372Y-53363592D01*
X68857230Y-54006450D02*
X68785801Y-53863592D01*
X68785801Y-53863592D02*
X68785801Y-53506450D01*
X68785801Y-53506450D02*
X68857230Y-53363592D01*
X68857230Y-53363592D02*
X69000087Y-53292164D01*
X69000087Y-53292164D02*
X69142944Y-53292164D01*
X69142944Y-53292164D02*
X69285801Y-53363592D01*
X69285801Y-53363592D02*
X69357230Y-53506450D01*
X69357230Y-53506450D02*
X69357230Y-53863592D01*
X69357230Y-53863592D02*
X69428658Y-54006450D01*
X69785801Y-54720735D02*
X68785801Y-54720735D01*
X69642944Y-54720735D02*
X69714372Y-54792164D01*
X69714372Y-54792164D02*
X69785801Y-54935021D01*
X69785801Y-54935021D02*
X69785801Y-55149307D01*
X69785801Y-55149307D02*
X69714372Y-55292164D01*
X69714372Y-55292164D02*
X69571515Y-55363593D01*
X69571515Y-55363593D02*
X68785801Y-55363593D01*
X70214372Y-58006450D02*
X70285801Y-57863593D01*
X70285801Y-57863593D02*
X70285801Y-57649307D01*
X70285801Y-57649307D02*
X70214372Y-57435021D01*
X70214372Y-57435021D02*
X70071515Y-57292164D01*
X70071515Y-57292164D02*
X69928658Y-57220735D01*
X69928658Y-57220735D02*
X69642944Y-57149307D01*
X69642944Y-57149307D02*
X69428658Y-57149307D01*
X69428658Y-57149307D02*
X69142944Y-57220735D01*
X69142944Y-57220735D02*
X69000087Y-57292164D01*
X69000087Y-57292164D02*
X68857230Y-57435021D01*
X68857230Y-57435021D02*
X68785801Y-57649307D01*
X68785801Y-57649307D02*
X68785801Y-57792164D01*
X68785801Y-57792164D02*
X68857230Y-58006450D01*
X68857230Y-58006450D02*
X68928658Y-58077878D01*
X68928658Y-58077878D02*
X69428658Y-58077878D01*
X69428658Y-58077878D02*
X69428658Y-57792164D01*
X68857230Y-59292164D02*
X68785801Y-59149307D01*
X68785801Y-59149307D02*
X68785801Y-58863593D01*
X68785801Y-58863593D02*
X68857230Y-58720735D01*
X68857230Y-58720735D02*
X69000087Y-58649307D01*
X69000087Y-58649307D02*
X69571515Y-58649307D01*
X69571515Y-58649307D02*
X69714372Y-58720735D01*
X69714372Y-58720735D02*
X69785801Y-58863593D01*
X69785801Y-58863593D02*
X69785801Y-59149307D01*
X69785801Y-59149307D02*
X69714372Y-59292164D01*
X69714372Y-59292164D02*
X69571515Y-59363593D01*
X69571515Y-59363593D02*
X69428658Y-59363593D01*
X69428658Y-59363593D02*
X69285801Y-58649307D01*
X68785801Y-60220735D02*
X68857230Y-60077878D01*
X68857230Y-60077878D02*
X68928658Y-60006449D01*
X68928658Y-60006449D02*
X69071515Y-59935021D01*
X69071515Y-59935021D02*
X69500087Y-59935021D01*
X69500087Y-59935021D02*
X69642944Y-60006449D01*
X69642944Y-60006449D02*
X69714372Y-60077878D01*
X69714372Y-60077878D02*
X69785801Y-60220735D01*
X69785801Y-60220735D02*
X69785801Y-60435021D01*
X69785801Y-60435021D02*
X69714372Y-60577878D01*
X69714372Y-60577878D02*
X69642944Y-60649307D01*
X69642944Y-60649307D02*
X69500087Y-60720735D01*
X69500087Y-60720735D02*
X69071515Y-60720735D01*
X69071515Y-60720735D02*
X68928658Y-60649307D01*
X68928658Y-60649307D02*
X68857230Y-60577878D01*
X68857230Y-60577878D02*
X68785801Y-60435021D01*
X68785801Y-60435021D02*
X68785801Y-60220735D01*
X69785801Y-61363592D02*
X68285801Y-61363592D01*
X69714372Y-61363592D02*
X69785801Y-61506450D01*
X69785801Y-61506450D02*
X69785801Y-61792164D01*
X69785801Y-61792164D02*
X69714372Y-61935021D01*
X69714372Y-61935021D02*
X69642944Y-62006450D01*
X69642944Y-62006450D02*
X69500087Y-62077878D01*
X69500087Y-62077878D02*
X69071515Y-62077878D01*
X69071515Y-62077878D02*
X68928658Y-62006450D01*
X68928658Y-62006450D02*
X68857230Y-61935021D01*
X68857230Y-61935021D02*
X68785801Y-61792164D01*
X68785801Y-61792164D02*
X68785801Y-61506450D01*
X68785801Y-61506450D02*
X68857230Y-61363592D01*
X68785801Y-62720735D02*
X70285801Y-62720735D01*
X68785801Y-63363593D02*
X69571515Y-63363593D01*
X69571515Y-63363593D02*
X69714372Y-63292164D01*
X69714372Y-63292164D02*
X69785801Y-63149307D01*
X69785801Y-63149307D02*
X69785801Y-62935021D01*
X69785801Y-62935021D02*
X69714372Y-62792164D01*
X69714372Y-62792164D02*
X69642944Y-62720735D01*
X69785801Y-63935021D02*
X68785801Y-64292164D01*
X69785801Y-64649307D02*
X68785801Y-64292164D01*
X68785801Y-64292164D02*
X68428658Y-64149307D01*
X68428658Y-64149307D02*
X68357230Y-64077878D01*
X68357230Y-64077878D02*
X68285801Y-63935021D01*
X68857230Y-65149307D02*
X68785801Y-65292164D01*
X68785801Y-65292164D02*
X68785801Y-65577878D01*
X68785801Y-65577878D02*
X68857230Y-65720735D01*
X68857230Y-65720735D02*
X69000087Y-65792164D01*
X69000087Y-65792164D02*
X69071515Y-65792164D01*
X69071515Y-65792164D02*
X69214372Y-65720735D01*
X69214372Y-65720735D02*
X69285801Y-65577878D01*
X69285801Y-65577878D02*
X69285801Y-65363593D01*
X69285801Y-65363593D02*
X69357230Y-65220735D01*
X69357230Y-65220735D02*
X69500087Y-65149307D01*
X69500087Y-65149307D02*
X69571515Y-65149307D01*
X69571515Y-65149307D02*
X69714372Y-65220735D01*
X69714372Y-65220735D02*
X69785801Y-65363593D01*
X69785801Y-65363593D02*
X69785801Y-65577878D01*
X69785801Y-65577878D02*
X69714372Y-65720735D01*
X68785801Y-66435021D02*
X69785801Y-66435021D01*
X70285801Y-66435021D02*
X70214372Y-66363593D01*
X70214372Y-66363593D02*
X70142944Y-66435021D01*
X70142944Y-66435021D02*
X70214372Y-66506450D01*
X70214372Y-66506450D02*
X70285801Y-66435021D01*
X70285801Y-66435021D02*
X70142944Y-66435021D01*
X68857230Y-67792165D02*
X68785801Y-67649307D01*
X68785801Y-67649307D02*
X68785801Y-67363593D01*
X68785801Y-67363593D02*
X68857230Y-67220736D01*
X68857230Y-67220736D02*
X68928658Y-67149307D01*
X68928658Y-67149307D02*
X69071515Y-67077879D01*
X69071515Y-67077879D02*
X69500087Y-67077879D01*
X69500087Y-67077879D02*
X69642944Y-67149307D01*
X69642944Y-67149307D02*
X69714372Y-67220736D01*
X69714372Y-67220736D02*
X69785801Y-67363593D01*
X69785801Y-67363593D02*
X69785801Y-67649307D01*
X69785801Y-67649307D02*
X69714372Y-67792165D01*
X68785801Y-69077879D02*
X69571515Y-69077879D01*
X69571515Y-69077879D02*
X69714372Y-69006450D01*
X69714372Y-69006450D02*
X69785801Y-68863593D01*
X69785801Y-68863593D02*
X69785801Y-68577879D01*
X69785801Y-68577879D02*
X69714372Y-68435021D01*
X68857230Y-69077879D02*
X68785801Y-68935021D01*
X68785801Y-68935021D02*
X68785801Y-68577879D01*
X68785801Y-68577879D02*
X68857230Y-68435021D01*
X68857230Y-68435021D02*
X69000087Y-68363593D01*
X69000087Y-68363593D02*
X69142944Y-68363593D01*
X69142944Y-68363593D02*
X69285801Y-68435021D01*
X69285801Y-68435021D02*
X69357230Y-68577879D01*
X69357230Y-68577879D02*
X69357230Y-68935021D01*
X69357230Y-68935021D02*
X69428658Y-69077879D01*
X68785801Y-70006450D02*
X68857230Y-69863593D01*
X68857230Y-69863593D02*
X69000087Y-69792164D01*
X69000087Y-69792164D02*
X70285801Y-69792164D01*
X68785801Y-72435021D02*
X68785801Y-71720735D01*
X68785801Y-71720735D02*
X70285801Y-71720735D01*
X68785801Y-73649307D02*
X68785801Y-72935021D01*
X68785801Y-72935021D02*
X70285801Y-72935021D01*
X68928658Y-75006450D02*
X68857230Y-74935022D01*
X68857230Y-74935022D02*
X68785801Y-74720736D01*
X68785801Y-74720736D02*
X68785801Y-74577879D01*
X68785801Y-74577879D02*
X68857230Y-74363593D01*
X68857230Y-74363593D02*
X69000087Y-74220736D01*
X69000087Y-74220736D02*
X69142944Y-74149307D01*
X69142944Y-74149307D02*
X69428658Y-74077879D01*
X69428658Y-74077879D02*
X69642944Y-74077879D01*
X69642944Y-74077879D02*
X69928658Y-74149307D01*
X69928658Y-74149307D02*
X70071515Y-74220736D01*
X70071515Y-74220736D02*
X70214372Y-74363593D01*
X70214372Y-74363593D02*
X70285801Y-74577879D01*
X70285801Y-74577879D02*
X70285801Y-74720736D01*
X70285801Y-74720736D02*
X70214372Y-74935022D01*
X70214372Y-74935022D02*
X70142944Y-75006450D01*
X66442314Y-47506450D02*
X66370885Y-47720736D01*
X66370885Y-47720736D02*
X66370885Y-48077878D01*
X66370885Y-48077878D02*
X66442314Y-48220736D01*
X66442314Y-48220736D02*
X66513742Y-48292164D01*
X66513742Y-48292164D02*
X66656599Y-48363593D01*
X66656599Y-48363593D02*
X66799456Y-48363593D01*
X66799456Y-48363593D02*
X66942314Y-48292164D01*
X66942314Y-48292164D02*
X67013742Y-48220736D01*
X67013742Y-48220736D02*
X67085171Y-48077878D01*
X67085171Y-48077878D02*
X67156599Y-47792164D01*
X67156599Y-47792164D02*
X67228028Y-47649307D01*
X67228028Y-47649307D02*
X67299456Y-47577878D01*
X67299456Y-47577878D02*
X67442314Y-47506450D01*
X67442314Y-47506450D02*
X67585171Y-47506450D01*
X67585171Y-47506450D02*
X67728028Y-47577878D01*
X67728028Y-47577878D02*
X67799456Y-47649307D01*
X67799456Y-47649307D02*
X67870885Y-47792164D01*
X67870885Y-47792164D02*
X67870885Y-48149307D01*
X67870885Y-48149307D02*
X67799456Y-48363593D01*
X66370885Y-49006449D02*
X67870885Y-49006449D01*
X66942314Y-49149307D02*
X66370885Y-49577878D01*
X67370885Y-49577878D02*
X66799456Y-49006449D01*
X67370885Y-50077878D02*
X66370885Y-50435021D01*
X67370885Y-50792164D02*
X66370885Y-50435021D01*
X66370885Y-50435021D02*
X66013742Y-50292164D01*
X66013742Y-50292164D02*
X65942314Y-50220735D01*
X65942314Y-50220735D02*
X65870885Y-50077878D01*
X67799456Y-52149307D02*
X67870885Y-52006450D01*
X67870885Y-52006450D02*
X67870885Y-51792164D01*
X67870885Y-51792164D02*
X67799456Y-51577878D01*
X67799456Y-51577878D02*
X67656599Y-51435021D01*
X67656599Y-51435021D02*
X67513742Y-51363592D01*
X67513742Y-51363592D02*
X67228028Y-51292164D01*
X67228028Y-51292164D02*
X67013742Y-51292164D01*
X67013742Y-51292164D02*
X66728028Y-51363592D01*
X66728028Y-51363592D02*
X66585171Y-51435021D01*
X66585171Y-51435021D02*
X66442314Y-51577878D01*
X66442314Y-51577878D02*
X66370885Y-51792164D01*
X66370885Y-51792164D02*
X66370885Y-51935021D01*
X66370885Y-51935021D02*
X66442314Y-52149307D01*
X66442314Y-52149307D02*
X66513742Y-52220735D01*
X66513742Y-52220735D02*
X67013742Y-52220735D01*
X67013742Y-52220735D02*
X67013742Y-51935021D01*
X67370885Y-53506450D02*
X66370885Y-53506450D01*
X67370885Y-52863592D02*
X66585171Y-52863592D01*
X66585171Y-52863592D02*
X66442314Y-52935021D01*
X66442314Y-52935021D02*
X66370885Y-53077878D01*
X66370885Y-53077878D02*
X66370885Y-53292164D01*
X66370885Y-53292164D02*
X66442314Y-53435021D01*
X66442314Y-53435021D02*
X66513742Y-53506450D01*
X66370885Y-54863593D02*
X67156599Y-54863593D01*
X67156599Y-54863593D02*
X67299456Y-54792164D01*
X67299456Y-54792164D02*
X67370885Y-54649307D01*
X67370885Y-54649307D02*
X67370885Y-54363593D01*
X67370885Y-54363593D02*
X67299456Y-54220735D01*
X66442314Y-54863593D02*
X66370885Y-54720735D01*
X66370885Y-54720735D02*
X66370885Y-54363593D01*
X66370885Y-54363593D02*
X66442314Y-54220735D01*
X66442314Y-54220735D02*
X66585171Y-54149307D01*
X66585171Y-54149307D02*
X66728028Y-54149307D01*
X66728028Y-54149307D02*
X66870885Y-54220735D01*
X66870885Y-54220735D02*
X66942314Y-54363593D01*
X66942314Y-54363593D02*
X66942314Y-54720735D01*
X66942314Y-54720735D02*
X67013742Y-54863593D01*
X66370885Y-55577878D02*
X67370885Y-55577878D01*
X67085171Y-55577878D02*
X67228028Y-55649307D01*
X67228028Y-55649307D02*
X67299456Y-55720736D01*
X67299456Y-55720736D02*
X67370885Y-55863593D01*
X67370885Y-55863593D02*
X67370885Y-56006450D01*
X66370885Y-57149307D02*
X67870885Y-57149307D01*
X66442314Y-57149307D02*
X66370885Y-57006449D01*
X66370885Y-57006449D02*
X66370885Y-56720735D01*
X66370885Y-56720735D02*
X66442314Y-56577878D01*
X66442314Y-56577878D02*
X66513742Y-56506449D01*
X66513742Y-56506449D02*
X66656599Y-56435021D01*
X66656599Y-56435021D02*
X67085171Y-56435021D01*
X67085171Y-56435021D02*
X67228028Y-56506449D01*
X67228028Y-56506449D02*
X67299456Y-56577878D01*
X67299456Y-56577878D02*
X67370885Y-56720735D01*
X67370885Y-56720735D02*
X67370885Y-57006449D01*
X67370885Y-57006449D02*
X67299456Y-57149307D01*
X66513742Y-59863592D02*
X66442314Y-59792164D01*
X66442314Y-59792164D02*
X66370885Y-59577878D01*
X66370885Y-59577878D02*
X66370885Y-59435021D01*
X66370885Y-59435021D02*
X66442314Y-59220735D01*
X66442314Y-59220735D02*
X66585171Y-59077878D01*
X66585171Y-59077878D02*
X66728028Y-59006449D01*
X66728028Y-59006449D02*
X67013742Y-58935021D01*
X67013742Y-58935021D02*
X67228028Y-58935021D01*
X67228028Y-58935021D02*
X67513742Y-59006449D01*
X67513742Y-59006449D02*
X67656599Y-59077878D01*
X67656599Y-59077878D02*
X67799456Y-59220735D01*
X67799456Y-59220735D02*
X67870885Y-59435021D01*
X67870885Y-59435021D02*
X67870885Y-59577878D01*
X67870885Y-59577878D02*
X67799456Y-59792164D01*
X67799456Y-59792164D02*
X67728028Y-59863592D01*
X67370885Y-61149307D02*
X66370885Y-61149307D01*
X67370885Y-60506449D02*
X66585171Y-60506449D01*
X66585171Y-60506449D02*
X66442314Y-60577878D01*
X66442314Y-60577878D02*
X66370885Y-60720735D01*
X66370885Y-60720735D02*
X66370885Y-60935021D01*
X66370885Y-60935021D02*
X66442314Y-61077878D01*
X66442314Y-61077878D02*
X66513742Y-61149307D01*
X67370885Y-61649307D02*
X67370885Y-62220735D01*
X67870885Y-61863592D02*
X66585171Y-61863592D01*
X66585171Y-61863592D02*
X66442314Y-61935021D01*
X66442314Y-61935021D02*
X66370885Y-62077878D01*
X66370885Y-62077878D02*
X66370885Y-62220735D01*
X66370885Y-63363593D02*
X67870885Y-63363593D01*
X66442314Y-63363593D02*
X66370885Y-63220735D01*
X66370885Y-63220735D02*
X66370885Y-62935021D01*
X66370885Y-62935021D02*
X66442314Y-62792164D01*
X66442314Y-62792164D02*
X66513742Y-62720735D01*
X66513742Y-62720735D02*
X66656599Y-62649307D01*
X66656599Y-62649307D02*
X67085171Y-62649307D01*
X67085171Y-62649307D02*
X67228028Y-62720735D01*
X67228028Y-62720735D02*
X67299456Y-62792164D01*
X67299456Y-62792164D02*
X67370885Y-62935021D01*
X67370885Y-62935021D02*
X67370885Y-63220735D01*
X67370885Y-63220735D02*
X67299456Y-63363593D01*
X66370885Y-64292164D02*
X66442314Y-64149307D01*
X66442314Y-64149307D02*
X66513742Y-64077878D01*
X66513742Y-64077878D02*
X66656599Y-64006450D01*
X66656599Y-64006450D02*
X67085171Y-64006450D01*
X67085171Y-64006450D02*
X67228028Y-64077878D01*
X67228028Y-64077878D02*
X67299456Y-64149307D01*
X67299456Y-64149307D02*
X67370885Y-64292164D01*
X67370885Y-64292164D02*
X67370885Y-64506450D01*
X67370885Y-64506450D02*
X67299456Y-64649307D01*
X67299456Y-64649307D02*
X67228028Y-64720736D01*
X67228028Y-64720736D02*
X67085171Y-64792164D01*
X67085171Y-64792164D02*
X66656599Y-64792164D01*
X66656599Y-64792164D02*
X66513742Y-64720736D01*
X66513742Y-64720736D02*
X66442314Y-64649307D01*
X66442314Y-64649307D02*
X66370885Y-64506450D01*
X66370885Y-64506450D02*
X66370885Y-64292164D01*
X67370885Y-65292164D02*
X66370885Y-65577879D01*
X66370885Y-65577879D02*
X67085171Y-65863593D01*
X67085171Y-65863593D02*
X66370885Y-66149307D01*
X66370885Y-66149307D02*
X67370885Y-66435021D01*
X67370885Y-67006450D02*
X66370885Y-67006450D01*
X67228028Y-67006450D02*
X67299456Y-67077879D01*
X67299456Y-67077879D02*
X67370885Y-67220736D01*
X67370885Y-67220736D02*
X67370885Y-67435022D01*
X67370885Y-67435022D02*
X67299456Y-67577879D01*
X67299456Y-67577879D02*
X67156599Y-67649308D01*
X67156599Y-67649308D02*
X66370885Y-67649308D01*
X66370885Y-69506450D02*
X67870885Y-69506450D01*
X67870885Y-69506450D02*
X67870885Y-70077879D01*
X67870885Y-70077879D02*
X67799456Y-70220736D01*
X67799456Y-70220736D02*
X67728028Y-70292165D01*
X67728028Y-70292165D02*
X67585171Y-70363593D01*
X67585171Y-70363593D02*
X67370885Y-70363593D01*
X67370885Y-70363593D02*
X67228028Y-70292165D01*
X67228028Y-70292165D02*
X67156599Y-70220736D01*
X67156599Y-70220736D02*
X67085171Y-70077879D01*
X67085171Y-70077879D02*
X67085171Y-69506450D01*
X66370885Y-71006450D02*
X67370885Y-71006450D01*
X67085171Y-71006450D02*
X67228028Y-71077879D01*
X67228028Y-71077879D02*
X67299456Y-71149308D01*
X67299456Y-71149308D02*
X67370885Y-71292165D01*
X67370885Y-71292165D02*
X67370885Y-71435022D01*
X66370885Y-72149307D02*
X66442314Y-72006450D01*
X66442314Y-72006450D02*
X66513742Y-71935021D01*
X66513742Y-71935021D02*
X66656599Y-71863593D01*
X66656599Y-71863593D02*
X67085171Y-71863593D01*
X67085171Y-71863593D02*
X67228028Y-71935021D01*
X67228028Y-71935021D02*
X67299456Y-72006450D01*
X67299456Y-72006450D02*
X67370885Y-72149307D01*
X67370885Y-72149307D02*
X67370885Y-72363593D01*
X67370885Y-72363593D02*
X67299456Y-72506450D01*
X67299456Y-72506450D02*
X67228028Y-72577879D01*
X67228028Y-72577879D02*
X67085171Y-72649307D01*
X67085171Y-72649307D02*
X66656599Y-72649307D01*
X66656599Y-72649307D02*
X66513742Y-72577879D01*
X66513742Y-72577879D02*
X66442314Y-72506450D01*
X66442314Y-72506450D02*
X66370885Y-72363593D01*
X66370885Y-72363593D02*
X66370885Y-72149307D01*
X63955969Y-48435021D02*
X64670255Y-47935021D01*
X63955969Y-47577878D02*
X65455969Y-47577878D01*
X65455969Y-47577878D02*
X65455969Y-48149307D01*
X65455969Y-48149307D02*
X65384540Y-48292164D01*
X65384540Y-48292164D02*
X65313112Y-48363593D01*
X65313112Y-48363593D02*
X65170255Y-48435021D01*
X65170255Y-48435021D02*
X64955969Y-48435021D01*
X64955969Y-48435021D02*
X64813112Y-48363593D01*
X64813112Y-48363593D02*
X64741683Y-48292164D01*
X64741683Y-48292164D02*
X64670255Y-48149307D01*
X64670255Y-48149307D02*
X64670255Y-47577878D01*
X64027398Y-49649307D02*
X63955969Y-49506450D01*
X63955969Y-49506450D02*
X63955969Y-49220736D01*
X63955969Y-49220736D02*
X64027398Y-49077878D01*
X64027398Y-49077878D02*
X64170255Y-49006450D01*
X64170255Y-49006450D02*
X64741683Y-49006450D01*
X64741683Y-49006450D02*
X64884540Y-49077878D01*
X64884540Y-49077878D02*
X64955969Y-49220736D01*
X64955969Y-49220736D02*
X64955969Y-49506450D01*
X64955969Y-49506450D02*
X64884540Y-49649307D01*
X64884540Y-49649307D02*
X64741683Y-49720736D01*
X64741683Y-49720736D02*
X64598826Y-49720736D01*
X64598826Y-49720736D02*
X64455969Y-49006450D01*
X64955969Y-50220735D02*
X63955969Y-50577878D01*
X63955969Y-50577878D02*
X64955969Y-50935021D01*
X65313112Y-52577878D02*
X65384540Y-52649306D01*
X65384540Y-52649306D02*
X65455969Y-52792164D01*
X65455969Y-52792164D02*
X65455969Y-53149306D01*
X65455969Y-53149306D02*
X65384540Y-53292164D01*
X65384540Y-53292164D02*
X65313112Y-53363592D01*
X65313112Y-53363592D02*
X65170255Y-53435021D01*
X65170255Y-53435021D02*
X65027398Y-53435021D01*
X65027398Y-53435021D02*
X64813112Y-53363592D01*
X64813112Y-53363592D02*
X63955969Y-52506449D01*
X63955969Y-52506449D02*
X63955969Y-53435021D01*
X64098826Y-54077877D02*
X64027398Y-54149306D01*
X64027398Y-54149306D02*
X63955969Y-54077877D01*
X63955969Y-54077877D02*
X64027398Y-54006449D01*
X64027398Y-54006449D02*
X64098826Y-54077877D01*
X64098826Y-54077877D02*
X63955969Y-54077877D01*
X65455969Y-55077878D02*
X65455969Y-55220735D01*
X65455969Y-55220735D02*
X65384540Y-55363592D01*
X65384540Y-55363592D02*
X65313112Y-55435021D01*
X65313112Y-55435021D02*
X65170255Y-55506449D01*
X65170255Y-55506449D02*
X64884540Y-55577878D01*
X64884540Y-55577878D02*
X64527398Y-55577878D01*
X64527398Y-55577878D02*
X64241683Y-55506449D01*
X64241683Y-55506449D02*
X64098826Y-55435021D01*
X64098826Y-55435021D02*
X64027398Y-55363592D01*
X64027398Y-55363592D02*
X63955969Y-55220735D01*
X63955969Y-55220735D02*
X63955969Y-55077878D01*
X63955969Y-55077878D02*
X64027398Y-54935021D01*
X64027398Y-54935021D02*
X64098826Y-54863592D01*
X64098826Y-54863592D02*
X64241683Y-54792163D01*
X64241683Y-54792163D02*
X64527398Y-54720735D01*
X64527398Y-54720735D02*
X64884540Y-54720735D01*
X64884540Y-54720735D02*
X65170255Y-54792163D01*
X65170255Y-54792163D02*
X65313112Y-54863592D01*
X65313112Y-54863592D02*
X65384540Y-54935021D01*
X65384540Y-54935021D02*
X65455969Y-55077878D01*
X74347738Y-133358251D02*
X74347738Y-132934917D01*
X75012976Y-132753489D02*
X75012976Y-133358251D01*
X75012976Y-133358251D02*
X73742976Y-133358251D01*
X73742976Y-133358251D02*
X73742976Y-132753489D01*
X73742976Y-132330155D02*
X75012976Y-131483488D01*
X73742976Y-131483488D02*
X75012976Y-132330155D01*
X73742976Y-131181107D02*
X73742976Y-130455393D01*
X75012976Y-130818250D02*
X73742976Y-130818250D01*
X73863928Y-130092536D02*
X73803452Y-130032060D01*
X73803452Y-130032060D02*
X73742976Y-129911107D01*
X73742976Y-129911107D02*
X73742976Y-129608726D01*
X73742976Y-129608726D02*
X73803452Y-129487774D01*
X73803452Y-129487774D02*
X73863928Y-129427298D01*
X73863928Y-129427298D02*
X73984880Y-129366821D01*
X73984880Y-129366821D02*
X74105833Y-129366821D01*
X74105833Y-129366821D02*
X74287261Y-129427298D01*
X74287261Y-129427298D02*
X75012976Y-130153012D01*
X75012976Y-130153012D02*
X75012976Y-129366821D01*
X82947452Y-166729012D02*
X82886976Y-166849965D01*
X82886976Y-166849965D02*
X82886976Y-167031393D01*
X82886976Y-167031393D02*
X82947452Y-167212822D01*
X82947452Y-167212822D02*
X83068404Y-167333774D01*
X83068404Y-167333774D02*
X83189357Y-167394251D01*
X83189357Y-167394251D02*
X83431261Y-167454727D01*
X83431261Y-167454727D02*
X83612690Y-167454727D01*
X83612690Y-167454727D02*
X83854595Y-167394251D01*
X83854595Y-167394251D02*
X83975547Y-167333774D01*
X83975547Y-167333774D02*
X84096500Y-167212822D01*
X84096500Y-167212822D02*
X84156976Y-167031393D01*
X84156976Y-167031393D02*
X84156976Y-166910441D01*
X84156976Y-166910441D02*
X84096500Y-166729012D01*
X84096500Y-166729012D02*
X84036023Y-166668536D01*
X84036023Y-166668536D02*
X83612690Y-166668536D01*
X83612690Y-166668536D02*
X83612690Y-166910441D01*
X84156976Y-166124251D02*
X82886976Y-166124251D01*
X82886976Y-166124251D02*
X84156976Y-165398536D01*
X84156976Y-165398536D02*
X82886976Y-165398536D01*
X84156976Y-164793775D02*
X82886976Y-164793775D01*
X82886976Y-164793775D02*
X82886976Y-164491394D01*
X82886976Y-164491394D02*
X82947452Y-164309965D01*
X82947452Y-164309965D02*
X83068404Y-164189013D01*
X83068404Y-164189013D02*
X83189357Y-164128536D01*
X83189357Y-164128536D02*
X83431261Y-164068060D01*
X83431261Y-164068060D02*
X83612690Y-164068060D01*
X83612690Y-164068060D02*
X83854595Y-164128536D01*
X83854595Y-164128536D02*
X83975547Y-164189013D01*
X83975547Y-164189013D02*
X84096500Y-164309965D01*
X84096500Y-164309965D02*
X84156976Y-164491394D01*
X84156976Y-164491394D02*
X84156976Y-164793775D01*
D11*
X100957142Y-68018819D02*
X100623809Y-67542628D01*
X100385714Y-68018819D02*
X100385714Y-67018819D01*
X100385714Y-67018819D02*
X100766666Y-67018819D01*
X100766666Y-67018819D02*
X100861904Y-67066438D01*
X100861904Y-67066438D02*
X100909523Y-67114057D01*
X100909523Y-67114057D02*
X100957142Y-67209295D01*
X100957142Y-67209295D02*
X100957142Y-67352152D01*
X100957142Y-67352152D02*
X100909523Y-67447390D01*
X100909523Y-67447390D02*
X100861904Y-67495009D01*
X100861904Y-67495009D02*
X100766666Y-67542628D01*
X100766666Y-67542628D02*
X100385714Y-67542628D01*
X101909523Y-68018819D02*
X101338095Y-68018819D01*
X101623809Y-68018819D02*
X101623809Y-67018819D01*
X101623809Y-67018819D02*
X101528571Y-67161676D01*
X101528571Y-67161676D02*
X101433333Y-67256914D01*
X101433333Y-67256914D02*
X101338095Y-67304533D01*
X102766666Y-67352152D02*
X102766666Y-68018819D01*
X102528571Y-66971200D02*
X102290476Y-67685485D01*
X102290476Y-67685485D02*
X102909523Y-67685485D01*
X81268658Y-154656558D02*
X80792467Y-154989891D01*
X81268658Y-155227986D02*
X80268658Y-155227986D01*
X80268658Y-155227986D02*
X80268658Y-154847034D01*
X80268658Y-154847034D02*
X80316277Y-154751796D01*
X80316277Y-154751796D02*
X80363896Y-154704177D01*
X80363896Y-154704177D02*
X80459134Y-154656558D01*
X80459134Y-154656558D02*
X80601991Y-154656558D01*
X80601991Y-154656558D02*
X80697229Y-154704177D01*
X80697229Y-154704177D02*
X80744848Y-154751796D01*
X80744848Y-154751796D02*
X80792467Y-154847034D01*
X80792467Y-154847034D02*
X80792467Y-155227986D01*
X80697229Y-154085129D02*
X80649610Y-154180367D01*
X80649610Y-154180367D02*
X80601991Y-154227986D01*
X80601991Y-154227986D02*
X80506753Y-154275605D01*
X80506753Y-154275605D02*
X80459134Y-154275605D01*
X80459134Y-154275605D02*
X80363896Y-154227986D01*
X80363896Y-154227986D02*
X80316277Y-154180367D01*
X80316277Y-154180367D02*
X80268658Y-154085129D01*
X80268658Y-154085129D02*
X80268658Y-153894653D01*
X80268658Y-153894653D02*
X80316277Y-153799415D01*
X80316277Y-153799415D02*
X80363896Y-153751796D01*
X80363896Y-153751796D02*
X80459134Y-153704177D01*
X80459134Y-153704177D02*
X80506753Y-153704177D01*
X80506753Y-153704177D02*
X80601991Y-153751796D01*
X80601991Y-153751796D02*
X80649610Y-153799415D01*
X80649610Y-153799415D02*
X80697229Y-153894653D01*
X80697229Y-153894653D02*
X80697229Y-154085129D01*
X80697229Y-154085129D02*
X80744848Y-154180367D01*
X80744848Y-154180367D02*
X80792467Y-154227986D01*
X80792467Y-154227986D02*
X80887705Y-154275605D01*
X80887705Y-154275605D02*
X81078181Y-154275605D01*
X81078181Y-154275605D02*
X81173419Y-154227986D01*
X81173419Y-154227986D02*
X81221039Y-154180367D01*
X81221039Y-154180367D02*
X81268658Y-154085129D01*
X81268658Y-154085129D02*
X81268658Y-153894653D01*
X81268658Y-153894653D02*
X81221039Y-153799415D01*
X81221039Y-153799415D02*
X81173419Y-153751796D01*
X81173419Y-153751796D02*
X81078181Y-153704177D01*
X81078181Y-153704177D02*
X80887705Y-153704177D01*
X80887705Y-153704177D02*
X80792467Y-153751796D01*
X80792467Y-153751796D02*
X80744848Y-153799415D01*
X80744848Y-153799415D02*
X80697229Y-153894653D01*
X104964380Y-59602666D02*
X105012000Y-59650285D01*
X105012000Y-59650285D02*
X105059619Y-59793142D01*
X105059619Y-59793142D02*
X105059619Y-59888380D01*
X105059619Y-59888380D02*
X105012000Y-60031237D01*
X105012000Y-60031237D02*
X104916761Y-60126475D01*
X104916761Y-60126475D02*
X104821523Y-60174094D01*
X104821523Y-60174094D02*
X104631047Y-60221713D01*
X104631047Y-60221713D02*
X104488190Y-60221713D01*
X104488190Y-60221713D02*
X104297714Y-60174094D01*
X104297714Y-60174094D02*
X104202476Y-60126475D01*
X104202476Y-60126475D02*
X104107238Y-60031237D01*
X104107238Y-60031237D02*
X104059619Y-59888380D01*
X104059619Y-59888380D02*
X104059619Y-59793142D01*
X104059619Y-59793142D02*
X104107238Y-59650285D01*
X104107238Y-59650285D02*
X104154857Y-59602666D01*
X105059619Y-59126475D02*
X105059619Y-58935999D01*
X105059619Y-58935999D02*
X105012000Y-58840761D01*
X105012000Y-58840761D02*
X104964380Y-58793142D01*
X104964380Y-58793142D02*
X104821523Y-58697904D01*
X104821523Y-58697904D02*
X104631047Y-58650285D01*
X104631047Y-58650285D02*
X104250095Y-58650285D01*
X104250095Y-58650285D02*
X104154857Y-58697904D01*
X104154857Y-58697904D02*
X104107238Y-58745523D01*
X104107238Y-58745523D02*
X104059619Y-58840761D01*
X104059619Y-58840761D02*
X104059619Y-59031237D01*
X104059619Y-59031237D02*
X104107238Y-59126475D01*
X104107238Y-59126475D02*
X104154857Y-59174094D01*
X104154857Y-59174094D02*
X104250095Y-59221713D01*
X104250095Y-59221713D02*
X104488190Y-59221713D01*
X104488190Y-59221713D02*
X104583428Y-59174094D01*
X104583428Y-59174094D02*
X104631047Y-59126475D01*
X104631047Y-59126475D02*
X104678666Y-59031237D01*
X104678666Y-59031237D02*
X104678666Y-58840761D01*
X104678666Y-58840761D02*
X104631047Y-58745523D01*
X104631047Y-58745523D02*
X104583428Y-58697904D01*
X104583428Y-58697904D02*
X104488190Y-58650285D01*
X94829333Y-137898580D02*
X94781714Y-137946200D01*
X94781714Y-137946200D02*
X94638857Y-137993819D01*
X94638857Y-137993819D02*
X94543619Y-137993819D01*
X94543619Y-137993819D02*
X94400762Y-137946200D01*
X94400762Y-137946200D02*
X94305524Y-137850961D01*
X94305524Y-137850961D02*
X94257905Y-137755723D01*
X94257905Y-137755723D02*
X94210286Y-137565247D01*
X94210286Y-137565247D02*
X94210286Y-137422390D01*
X94210286Y-137422390D02*
X94257905Y-137231914D01*
X94257905Y-137231914D02*
X94305524Y-137136676D01*
X94305524Y-137136676D02*
X94400762Y-137041438D01*
X94400762Y-137041438D02*
X94543619Y-136993819D01*
X94543619Y-136993819D02*
X94638857Y-136993819D01*
X94638857Y-136993819D02*
X94781714Y-137041438D01*
X94781714Y-137041438D02*
X94829333Y-137089057D01*
X95781714Y-137993819D02*
X95210286Y-137993819D01*
X95496000Y-137993819D02*
X95496000Y-136993819D01*
X95496000Y-136993819D02*
X95400762Y-137136676D01*
X95400762Y-137136676D02*
X95305524Y-137231914D01*
X95305524Y-137231914D02*
X95210286Y-137279533D01*
X98798142Y-41221819D02*
X98464809Y-40745628D01*
X98226714Y-41221819D02*
X98226714Y-40221819D01*
X98226714Y-40221819D02*
X98607666Y-40221819D01*
X98607666Y-40221819D02*
X98702904Y-40269438D01*
X98702904Y-40269438D02*
X98750523Y-40317057D01*
X98750523Y-40317057D02*
X98798142Y-40412295D01*
X98798142Y-40412295D02*
X98798142Y-40555152D01*
X98798142Y-40555152D02*
X98750523Y-40650390D01*
X98750523Y-40650390D02*
X98702904Y-40698009D01*
X98702904Y-40698009D02*
X98607666Y-40745628D01*
X98607666Y-40745628D02*
X98226714Y-40745628D01*
X99750523Y-41221819D02*
X99179095Y-41221819D01*
X99464809Y-41221819D02*
X99464809Y-40221819D01*
X99464809Y-40221819D02*
X99369571Y-40364676D01*
X99369571Y-40364676D02*
X99274333Y-40459914D01*
X99274333Y-40459914D02*
X99179095Y-40507533D01*
X100083857Y-40221819D02*
X100702904Y-40221819D01*
X100702904Y-40221819D02*
X100369571Y-40602771D01*
X100369571Y-40602771D02*
X100512428Y-40602771D01*
X100512428Y-40602771D02*
X100607666Y-40650390D01*
X100607666Y-40650390D02*
X100655285Y-40698009D01*
X100655285Y-40698009D02*
X100702904Y-40793247D01*
X100702904Y-40793247D02*
X100702904Y-41031342D01*
X100702904Y-41031342D02*
X100655285Y-41126580D01*
X100655285Y-41126580D02*
X100607666Y-41174200D01*
X100607666Y-41174200D02*
X100512428Y-41221819D01*
X100512428Y-41221819D02*
X100226714Y-41221819D01*
X100226714Y-41221819D02*
X100131476Y-41174200D01*
X100131476Y-41174200D02*
X100083857Y-41126580D01*
X87169180Y-105475066D02*
X87216800Y-105522685D01*
X87216800Y-105522685D02*
X87264419Y-105665542D01*
X87264419Y-105665542D02*
X87264419Y-105760780D01*
X87264419Y-105760780D02*
X87216800Y-105903637D01*
X87216800Y-105903637D02*
X87121561Y-105998875D01*
X87121561Y-105998875D02*
X87026323Y-106046494D01*
X87026323Y-106046494D02*
X86835847Y-106094113D01*
X86835847Y-106094113D02*
X86692990Y-106094113D01*
X86692990Y-106094113D02*
X86502514Y-106046494D01*
X86502514Y-106046494D02*
X86407276Y-105998875D01*
X86407276Y-105998875D02*
X86312038Y-105903637D01*
X86312038Y-105903637D02*
X86264419Y-105760780D01*
X86264419Y-105760780D02*
X86264419Y-105665542D01*
X86264419Y-105665542D02*
X86312038Y-105522685D01*
X86312038Y-105522685D02*
X86359657Y-105475066D01*
X86264419Y-105141732D02*
X86264419Y-104475066D01*
X86264419Y-104475066D02*
X87264419Y-104903637D01*
X74853896Y-154797238D02*
X74806277Y-154892476D01*
X74806277Y-154892476D02*
X74711039Y-154987714D01*
X74711039Y-154987714D02*
X74568181Y-155130571D01*
X74568181Y-155130571D02*
X74520562Y-155225809D01*
X74520562Y-155225809D02*
X74520562Y-155321047D01*
X74758658Y-155273428D02*
X74711039Y-155368666D01*
X74711039Y-155368666D02*
X74615800Y-155463904D01*
X74615800Y-155463904D02*
X74425324Y-155511523D01*
X74425324Y-155511523D02*
X74091991Y-155511523D01*
X74091991Y-155511523D02*
X73901515Y-155463904D01*
X73901515Y-155463904D02*
X73806277Y-155368666D01*
X73806277Y-155368666D02*
X73758658Y-155273428D01*
X73758658Y-155273428D02*
X73758658Y-155082952D01*
X73758658Y-155082952D02*
X73806277Y-154987714D01*
X73806277Y-154987714D02*
X73901515Y-154892476D01*
X73901515Y-154892476D02*
X74091991Y-154844857D01*
X74091991Y-154844857D02*
X74425324Y-154844857D01*
X74425324Y-154844857D02*
X74615800Y-154892476D01*
X74615800Y-154892476D02*
X74711039Y-154987714D01*
X74711039Y-154987714D02*
X74758658Y-155082952D01*
X74758658Y-155082952D02*
X74758658Y-155273428D01*
X74758658Y-153892476D02*
X74758658Y-154463904D01*
X74758658Y-154178190D02*
X73758658Y-154178190D01*
X73758658Y-154178190D02*
X73901515Y-154273428D01*
X73901515Y-154273428D02*
X73996753Y-154368666D01*
X73996753Y-154368666D02*
X74044372Y-154463904D01*
X84161333Y-145234817D02*
X83828000Y-144758626D01*
X83589905Y-145234817D02*
X83589905Y-144234817D01*
X83589905Y-144234817D02*
X83970857Y-144234817D01*
X83970857Y-144234817D02*
X84066095Y-144282436D01*
X84066095Y-144282436D02*
X84113714Y-144330055D01*
X84113714Y-144330055D02*
X84161333Y-144425293D01*
X84161333Y-144425293D02*
X84161333Y-144568150D01*
X84161333Y-144568150D02*
X84113714Y-144663388D01*
X84113714Y-144663388D02*
X84066095Y-144711007D01*
X84066095Y-144711007D02*
X83970857Y-144758626D01*
X83970857Y-144758626D02*
X83589905Y-144758626D01*
X85113714Y-145234817D02*
X84542286Y-145234817D01*
X84828000Y-145234817D02*
X84828000Y-144234817D01*
X84828000Y-144234817D02*
X84732762Y-144377674D01*
X84732762Y-144377674D02*
X84637524Y-144472912D01*
X84637524Y-144472912D02*
X84542286Y-144520531D01*
X103172618Y-49342095D02*
X102172618Y-49342095D01*
X102172618Y-49342095D02*
X102172618Y-49104000D01*
X102172618Y-49104000D02*
X102220237Y-48961143D01*
X102220237Y-48961143D02*
X102315475Y-48865905D01*
X102315475Y-48865905D02*
X102410713Y-48818286D01*
X102410713Y-48818286D02*
X102601189Y-48770667D01*
X102601189Y-48770667D02*
X102744046Y-48770667D01*
X102744046Y-48770667D02*
X102934522Y-48818286D01*
X102934522Y-48818286D02*
X103029760Y-48865905D01*
X103029760Y-48865905D02*
X103124999Y-48961143D01*
X103124999Y-48961143D02*
X103172618Y-49104000D01*
X103172618Y-49104000D02*
X103172618Y-49342095D01*
X102172618Y-47865905D02*
X102172618Y-48342095D01*
X102172618Y-48342095D02*
X102648808Y-48389714D01*
X102648808Y-48389714D02*
X102601189Y-48342095D01*
X102601189Y-48342095D02*
X102553570Y-48246857D01*
X102553570Y-48246857D02*
X102553570Y-48008762D01*
X102553570Y-48008762D02*
X102601189Y-47913524D01*
X102601189Y-47913524D02*
X102648808Y-47865905D01*
X102648808Y-47865905D02*
X102744046Y-47818286D01*
X102744046Y-47818286D02*
X102982141Y-47818286D01*
X102982141Y-47818286D02*
X103077379Y-47865905D01*
X103077379Y-47865905D02*
X103124999Y-47913524D01*
X103124999Y-47913524D02*
X103172618Y-48008762D01*
X103172618Y-48008762D02*
X103172618Y-48246857D01*
X103172618Y-48246857D02*
X103124999Y-48342095D01*
X103124999Y-48342095D02*
X103077379Y-48389714D01*
X99990542Y-55469980D02*
X99942923Y-55517600D01*
X99942923Y-55517600D02*
X99800066Y-55565219D01*
X99800066Y-55565219D02*
X99704828Y-55565219D01*
X99704828Y-55565219D02*
X99561971Y-55517600D01*
X99561971Y-55517600D02*
X99466733Y-55422361D01*
X99466733Y-55422361D02*
X99419114Y-55327123D01*
X99419114Y-55327123D02*
X99371495Y-55136647D01*
X99371495Y-55136647D02*
X99371495Y-54993790D01*
X99371495Y-54993790D02*
X99419114Y-54803314D01*
X99419114Y-54803314D02*
X99466733Y-54708076D01*
X99466733Y-54708076D02*
X99561971Y-54612838D01*
X99561971Y-54612838D02*
X99704828Y-54565219D01*
X99704828Y-54565219D02*
X99800066Y-54565219D01*
X99800066Y-54565219D02*
X99942923Y-54612838D01*
X99942923Y-54612838D02*
X99990542Y-54660457D01*
X100942923Y-55565219D02*
X100371495Y-55565219D01*
X100657209Y-55565219D02*
X100657209Y-54565219D01*
X100657209Y-54565219D02*
X100561971Y-54708076D01*
X100561971Y-54708076D02*
X100466733Y-54803314D01*
X100466733Y-54803314D02*
X100371495Y-54850933D01*
X101561971Y-54565219D02*
X101657209Y-54565219D01*
X101657209Y-54565219D02*
X101752447Y-54612838D01*
X101752447Y-54612838D02*
X101800066Y-54660457D01*
X101800066Y-54660457D02*
X101847685Y-54755695D01*
X101847685Y-54755695D02*
X101895304Y-54946171D01*
X101895304Y-54946171D02*
X101895304Y-55184266D01*
X101895304Y-55184266D02*
X101847685Y-55374742D01*
X101847685Y-55374742D02*
X101800066Y-55469980D01*
X101800066Y-55469980D02*
X101752447Y-55517600D01*
X101752447Y-55517600D02*
X101657209Y-55565219D01*
X101657209Y-55565219D02*
X101561971Y-55565219D01*
X101561971Y-55565219D02*
X101466733Y-55517600D01*
X101466733Y-55517600D02*
X101419114Y-55469980D01*
X101419114Y-55469980D02*
X101371495Y-55374742D01*
X101371495Y-55374742D02*
X101323876Y-55184266D01*
X101323876Y-55184266D02*
X101323876Y-54946171D01*
X101323876Y-54946171D02*
X101371495Y-54755695D01*
X101371495Y-54755695D02*
X101419114Y-54660457D01*
X101419114Y-54660457D02*
X101466733Y-54612838D01*
X101466733Y-54612838D02*
X101561971Y-54565219D01*
X63411769Y-157066121D02*
X63411769Y-157875644D01*
X63411769Y-157875644D02*
X63459388Y-157970882D01*
X63459388Y-157970882D02*
X63507007Y-158018502D01*
X63507007Y-158018502D02*
X63602245Y-158066121D01*
X63602245Y-158066121D02*
X63792721Y-158066121D01*
X63792721Y-158066121D02*
X63887959Y-158018502D01*
X63887959Y-158018502D02*
X63935578Y-157970882D01*
X63935578Y-157970882D02*
X63983197Y-157875644D01*
X63983197Y-157875644D02*
X63983197Y-157066121D01*
X64983197Y-158066121D02*
X64411769Y-158066121D01*
X64697483Y-158066121D02*
X64697483Y-157066121D01*
X64697483Y-157066121D02*
X64602245Y-157208978D01*
X64602245Y-157208978D02*
X64507007Y-157304216D01*
X64507007Y-157304216D02*
X64411769Y-157351835D01*
X66127333Y-143615580D02*
X66079714Y-143663200D01*
X66079714Y-143663200D02*
X65936857Y-143710819D01*
X65936857Y-143710819D02*
X65841619Y-143710819D01*
X65841619Y-143710819D02*
X65698762Y-143663200D01*
X65698762Y-143663200D02*
X65603524Y-143567961D01*
X65603524Y-143567961D02*
X65555905Y-143472723D01*
X65555905Y-143472723D02*
X65508286Y-143282247D01*
X65508286Y-143282247D02*
X65508286Y-143139390D01*
X65508286Y-143139390D02*
X65555905Y-142948914D01*
X65555905Y-142948914D02*
X65603524Y-142853676D01*
X65603524Y-142853676D02*
X65698762Y-142758438D01*
X65698762Y-142758438D02*
X65841619Y-142710819D01*
X65841619Y-142710819D02*
X65936857Y-142710819D01*
X65936857Y-142710819D02*
X66079714Y-142758438D01*
X66079714Y-142758438D02*
X66127333Y-142806057D01*
X67032095Y-142710819D02*
X66555905Y-142710819D01*
X66555905Y-142710819D02*
X66508286Y-143187009D01*
X66508286Y-143187009D02*
X66555905Y-143139390D01*
X66555905Y-143139390D02*
X66651143Y-143091771D01*
X66651143Y-143091771D02*
X66889238Y-143091771D01*
X66889238Y-143091771D02*
X66984476Y-143139390D01*
X66984476Y-143139390D02*
X67032095Y-143187009D01*
X67032095Y-143187009D02*
X67079714Y-143282247D01*
X67079714Y-143282247D02*
X67079714Y-143520342D01*
X67079714Y-143520342D02*
X67032095Y-143615580D01*
X67032095Y-143615580D02*
X66984476Y-143663200D01*
X66984476Y-143663200D02*
X66889238Y-143710819D01*
X66889238Y-143710819D02*
X66651143Y-143710819D01*
X66651143Y-143710819D02*
X66555905Y-143663200D01*
X66555905Y-143663200D02*
X66508286Y-143615580D01*
X90257333Y-115675580D02*
X90209714Y-115723200D01*
X90209714Y-115723200D02*
X90066857Y-115770819D01*
X90066857Y-115770819D02*
X89971619Y-115770819D01*
X89971619Y-115770819D02*
X89828762Y-115723200D01*
X89828762Y-115723200D02*
X89733524Y-115627961D01*
X89733524Y-115627961D02*
X89685905Y-115532723D01*
X89685905Y-115532723D02*
X89638286Y-115342247D01*
X89638286Y-115342247D02*
X89638286Y-115199390D01*
X89638286Y-115199390D02*
X89685905Y-115008914D01*
X89685905Y-115008914D02*
X89733524Y-114913676D01*
X89733524Y-114913676D02*
X89828762Y-114818438D01*
X89828762Y-114818438D02*
X89971619Y-114770819D01*
X89971619Y-114770819D02*
X90066857Y-114770819D01*
X90066857Y-114770819D02*
X90209714Y-114818438D01*
X90209714Y-114818438D02*
X90257333Y-114866057D01*
X91114476Y-114770819D02*
X90924000Y-114770819D01*
X90924000Y-114770819D02*
X90828762Y-114818438D01*
X90828762Y-114818438D02*
X90781143Y-114866057D01*
X90781143Y-114866057D02*
X90685905Y-115008914D01*
X90685905Y-115008914D02*
X90638286Y-115199390D01*
X90638286Y-115199390D02*
X90638286Y-115580342D01*
X90638286Y-115580342D02*
X90685905Y-115675580D01*
X90685905Y-115675580D02*
X90733524Y-115723200D01*
X90733524Y-115723200D02*
X90828762Y-115770819D01*
X90828762Y-115770819D02*
X91019238Y-115770819D01*
X91019238Y-115770819D02*
X91114476Y-115723200D01*
X91114476Y-115723200D02*
X91162095Y-115675580D01*
X91162095Y-115675580D02*
X91209714Y-115580342D01*
X91209714Y-115580342D02*
X91209714Y-115342247D01*
X91209714Y-115342247D02*
X91162095Y-115247009D01*
X91162095Y-115247009D02*
X91114476Y-115199390D01*
X91114476Y-115199390D02*
X91019238Y-115151771D01*
X91019238Y-115151771D02*
X90828762Y-115151771D01*
X90828762Y-115151771D02*
X90733524Y-115199390D01*
X90733524Y-115199390D02*
X90685905Y-115247009D01*
X90685905Y-115247009D02*
X90638286Y-115342247D01*
X73003580Y-146978666D02*
X73051200Y-147026285D01*
X73051200Y-147026285D02*
X73098819Y-147169142D01*
X73098819Y-147169142D02*
X73098819Y-147264380D01*
X73098819Y-147264380D02*
X73051200Y-147407237D01*
X73051200Y-147407237D02*
X72955961Y-147502475D01*
X72955961Y-147502475D02*
X72860723Y-147550094D01*
X72860723Y-147550094D02*
X72670247Y-147597713D01*
X72670247Y-147597713D02*
X72527390Y-147597713D01*
X72527390Y-147597713D02*
X72336914Y-147550094D01*
X72336914Y-147550094D02*
X72241676Y-147502475D01*
X72241676Y-147502475D02*
X72146438Y-147407237D01*
X72146438Y-147407237D02*
X72098819Y-147264380D01*
X72098819Y-147264380D02*
X72098819Y-147169142D01*
X72098819Y-147169142D02*
X72146438Y-147026285D01*
X72146438Y-147026285D02*
X72194057Y-146978666D01*
X72098819Y-146645332D02*
X72098819Y-146026285D01*
X72098819Y-146026285D02*
X72479771Y-146359618D01*
X72479771Y-146359618D02*
X72479771Y-146216761D01*
X72479771Y-146216761D02*
X72527390Y-146121523D01*
X72527390Y-146121523D02*
X72575009Y-146073904D01*
X72575009Y-146073904D02*
X72670247Y-146026285D01*
X72670247Y-146026285D02*
X72908342Y-146026285D01*
X72908342Y-146026285D02*
X73003580Y-146073904D01*
X73003580Y-146073904D02*
X73051200Y-146121523D01*
X73051200Y-146121523D02*
X73098819Y-146216761D01*
X73098819Y-146216761D02*
X73098819Y-146502475D01*
X73098819Y-146502475D02*
X73051200Y-146597713D01*
X73051200Y-146597713D02*
X73003580Y-146645332D01*
X66127333Y-137773580D02*
X66079714Y-137821200D01*
X66079714Y-137821200D02*
X65936857Y-137868819D01*
X65936857Y-137868819D02*
X65841619Y-137868819D01*
X65841619Y-137868819D02*
X65698762Y-137821200D01*
X65698762Y-137821200D02*
X65603524Y-137725961D01*
X65603524Y-137725961D02*
X65555905Y-137630723D01*
X65555905Y-137630723D02*
X65508286Y-137440247D01*
X65508286Y-137440247D02*
X65508286Y-137297390D01*
X65508286Y-137297390D02*
X65555905Y-137106914D01*
X65555905Y-137106914D02*
X65603524Y-137011676D01*
X65603524Y-137011676D02*
X65698762Y-136916438D01*
X65698762Y-136916438D02*
X65841619Y-136868819D01*
X65841619Y-136868819D02*
X65936857Y-136868819D01*
X65936857Y-136868819D02*
X66079714Y-136916438D01*
X66079714Y-136916438D02*
X66127333Y-136964057D01*
X66984476Y-137202152D02*
X66984476Y-137868819D01*
X66746381Y-136821200D02*
X66508286Y-137535485D01*
X66508286Y-137535485D02*
X67127333Y-137535485D01*
X103737580Y-43258766D02*
X103785200Y-43306385D01*
X103785200Y-43306385D02*
X103832819Y-43449242D01*
X103832819Y-43449242D02*
X103832819Y-43544480D01*
X103832819Y-43544480D02*
X103785200Y-43687337D01*
X103785200Y-43687337D02*
X103689961Y-43782575D01*
X103689961Y-43782575D02*
X103594723Y-43830194D01*
X103594723Y-43830194D02*
X103404247Y-43877813D01*
X103404247Y-43877813D02*
X103261390Y-43877813D01*
X103261390Y-43877813D02*
X103070914Y-43830194D01*
X103070914Y-43830194D02*
X102975676Y-43782575D01*
X102975676Y-43782575D02*
X102880438Y-43687337D01*
X102880438Y-43687337D02*
X102832819Y-43544480D01*
X102832819Y-43544480D02*
X102832819Y-43449242D01*
X102832819Y-43449242D02*
X102880438Y-43306385D01*
X102880438Y-43306385D02*
X102928057Y-43258766D01*
X103261390Y-42687337D02*
X103213771Y-42782575D01*
X103213771Y-42782575D02*
X103166152Y-42830194D01*
X103166152Y-42830194D02*
X103070914Y-42877813D01*
X103070914Y-42877813D02*
X103023295Y-42877813D01*
X103023295Y-42877813D02*
X102928057Y-42830194D01*
X102928057Y-42830194D02*
X102880438Y-42782575D01*
X102880438Y-42782575D02*
X102832819Y-42687337D01*
X102832819Y-42687337D02*
X102832819Y-42496861D01*
X102832819Y-42496861D02*
X102880438Y-42401623D01*
X102880438Y-42401623D02*
X102928057Y-42354004D01*
X102928057Y-42354004D02*
X103023295Y-42306385D01*
X103023295Y-42306385D02*
X103070914Y-42306385D01*
X103070914Y-42306385D02*
X103166152Y-42354004D01*
X103166152Y-42354004D02*
X103213771Y-42401623D01*
X103213771Y-42401623D02*
X103261390Y-42496861D01*
X103261390Y-42496861D02*
X103261390Y-42687337D01*
X103261390Y-42687337D02*
X103309009Y-42782575D01*
X103309009Y-42782575D02*
X103356628Y-42830194D01*
X103356628Y-42830194D02*
X103451866Y-42877813D01*
X103451866Y-42877813D02*
X103642342Y-42877813D01*
X103642342Y-42877813D02*
X103737580Y-42830194D01*
X103737580Y-42830194D02*
X103785200Y-42782575D01*
X103785200Y-42782575D02*
X103832819Y-42687337D01*
X103832819Y-42687337D02*
X103832819Y-42496861D01*
X103832819Y-42496861D02*
X103785200Y-42401623D01*
X103785200Y-42401623D02*
X103737580Y-42354004D01*
X103737580Y-42354004D02*
X103642342Y-42306385D01*
X103642342Y-42306385D02*
X103451866Y-42306385D01*
X103451866Y-42306385D02*
X103356628Y-42354004D01*
X103356628Y-42354004D02*
X103309009Y-42401623D01*
X103309009Y-42401623D02*
X103261390Y-42496861D01*
X103225695Y-97295619D02*
X103225695Y-98105142D01*
X103225695Y-98105142D02*
X103273314Y-98200380D01*
X103273314Y-98200380D02*
X103320933Y-98248000D01*
X103320933Y-98248000D02*
X103416171Y-98295619D01*
X103416171Y-98295619D02*
X103606647Y-98295619D01*
X103606647Y-98295619D02*
X103701885Y-98248000D01*
X103701885Y-98248000D02*
X103749504Y-98200380D01*
X103749504Y-98200380D02*
X103797123Y-98105142D01*
X103797123Y-98105142D02*
X103797123Y-97295619D01*
X104701885Y-97628952D02*
X104701885Y-98295619D01*
X104463790Y-97248000D02*
X104225695Y-97962285D01*
X104225695Y-97962285D02*
X104844742Y-97962285D01*
X98309333Y-71985819D02*
X97976000Y-71509628D01*
X97737905Y-71985819D02*
X97737905Y-70985819D01*
X97737905Y-70985819D02*
X98118857Y-70985819D01*
X98118857Y-70985819D02*
X98214095Y-71033438D01*
X98214095Y-71033438D02*
X98261714Y-71081057D01*
X98261714Y-71081057D02*
X98309333Y-71176295D01*
X98309333Y-71176295D02*
X98309333Y-71319152D01*
X98309333Y-71319152D02*
X98261714Y-71414390D01*
X98261714Y-71414390D02*
X98214095Y-71462009D01*
X98214095Y-71462009D02*
X98118857Y-71509628D01*
X98118857Y-71509628D02*
X97737905Y-71509628D01*
X98785524Y-71985819D02*
X98976000Y-71985819D01*
X98976000Y-71985819D02*
X99071238Y-71938200D01*
X99071238Y-71938200D02*
X99118857Y-71890580D01*
X99118857Y-71890580D02*
X99214095Y-71747723D01*
X99214095Y-71747723D02*
X99261714Y-71557247D01*
X99261714Y-71557247D02*
X99261714Y-71176295D01*
X99261714Y-71176295D02*
X99214095Y-71081057D01*
X99214095Y-71081057D02*
X99166476Y-71033438D01*
X99166476Y-71033438D02*
X99071238Y-70985819D01*
X99071238Y-70985819D02*
X98880762Y-70985819D01*
X98880762Y-70985819D02*
X98785524Y-71033438D01*
X98785524Y-71033438D02*
X98737905Y-71081057D01*
X98737905Y-71081057D02*
X98690286Y-71176295D01*
X98690286Y-71176295D02*
X98690286Y-71414390D01*
X98690286Y-71414390D02*
X98737905Y-71509628D01*
X98737905Y-71509628D02*
X98785524Y-71557247D01*
X98785524Y-71557247D02*
X98880762Y-71604866D01*
X98880762Y-71604866D02*
X99071238Y-71604866D01*
X99071238Y-71604866D02*
X99166476Y-71557247D01*
X99166476Y-71557247D02*
X99214095Y-71509628D01*
X99214095Y-71509628D02*
X99261714Y-71414390D01*
X100881142Y-71985819D02*
X100547809Y-71509628D01*
X100309714Y-71985819D02*
X100309714Y-70985819D01*
X100309714Y-70985819D02*
X100690666Y-70985819D01*
X100690666Y-70985819D02*
X100785904Y-71033438D01*
X100785904Y-71033438D02*
X100833523Y-71081057D01*
X100833523Y-71081057D02*
X100881142Y-71176295D01*
X100881142Y-71176295D02*
X100881142Y-71319152D01*
X100881142Y-71319152D02*
X100833523Y-71414390D01*
X100833523Y-71414390D02*
X100785904Y-71462009D01*
X100785904Y-71462009D02*
X100690666Y-71509628D01*
X100690666Y-71509628D02*
X100309714Y-71509628D01*
X101833523Y-71985819D02*
X101262095Y-71985819D01*
X101547809Y-71985819D02*
X101547809Y-70985819D01*
X101547809Y-70985819D02*
X101452571Y-71128676D01*
X101452571Y-71128676D02*
X101357333Y-71223914D01*
X101357333Y-71223914D02*
X101262095Y-71271533D01*
X102452571Y-70985819D02*
X102547809Y-70985819D01*
X102547809Y-70985819D02*
X102643047Y-71033438D01*
X102643047Y-71033438D02*
X102690666Y-71081057D01*
X102690666Y-71081057D02*
X102738285Y-71176295D01*
X102738285Y-71176295D02*
X102785904Y-71366771D01*
X102785904Y-71366771D02*
X102785904Y-71604866D01*
X102785904Y-71604866D02*
X102738285Y-71795342D01*
X102738285Y-71795342D02*
X102690666Y-71890580D01*
X102690666Y-71890580D02*
X102643047Y-71938200D01*
X102643047Y-71938200D02*
X102547809Y-71985819D01*
X102547809Y-71985819D02*
X102452571Y-71985819D01*
X102452571Y-71985819D02*
X102357333Y-71938200D01*
X102357333Y-71938200D02*
X102309714Y-71890580D01*
X102309714Y-71890580D02*
X102262095Y-71795342D01*
X102262095Y-71795342D02*
X102214476Y-71604866D01*
X102214476Y-71604866D02*
X102214476Y-71366771D01*
X102214476Y-71366771D02*
X102262095Y-71176295D01*
X102262095Y-71176295D02*
X102309714Y-71081057D01*
X102309714Y-71081057D02*
X102357333Y-71033438D01*
X102357333Y-71033438D02*
X102452571Y-70985819D01*
X102954819Y-78261904D02*
X103764342Y-78261904D01*
X103764342Y-78261904D02*
X103859580Y-78214285D01*
X103859580Y-78214285D02*
X103907200Y-78166666D01*
X103907200Y-78166666D02*
X103954819Y-78071428D01*
X103954819Y-78071428D02*
X103954819Y-77880952D01*
X103954819Y-77880952D02*
X103907200Y-77785714D01*
X103907200Y-77785714D02*
X103859580Y-77738095D01*
X103859580Y-77738095D02*
X103764342Y-77690476D01*
X103764342Y-77690476D02*
X102954819Y-77690476D01*
X103050057Y-77261904D02*
X103002438Y-77214285D01*
X103002438Y-77214285D02*
X102954819Y-77119047D01*
X102954819Y-77119047D02*
X102954819Y-76880952D01*
X102954819Y-76880952D02*
X103002438Y-76785714D01*
X103002438Y-76785714D02*
X103050057Y-76738095D01*
X103050057Y-76738095D02*
X103145295Y-76690476D01*
X103145295Y-76690476D02*
X103240533Y-76690476D01*
X103240533Y-76690476D02*
X103383390Y-76738095D01*
X103383390Y-76738095D02*
X103954819Y-77309523D01*
X103954819Y-77309523D02*
X103954819Y-76690476D01*
X98333333Y-84454819D02*
X98000000Y-83978628D01*
X97761905Y-84454819D02*
X97761905Y-83454819D01*
X97761905Y-83454819D02*
X98142857Y-83454819D01*
X98142857Y-83454819D02*
X98238095Y-83502438D01*
X98238095Y-83502438D02*
X98285714Y-83550057D01*
X98285714Y-83550057D02*
X98333333Y-83645295D01*
X98333333Y-83645295D02*
X98333333Y-83788152D01*
X98333333Y-83788152D02*
X98285714Y-83883390D01*
X98285714Y-83883390D02*
X98238095Y-83931009D01*
X98238095Y-83931009D02*
X98142857Y-83978628D01*
X98142857Y-83978628D02*
X97761905Y-83978628D01*
X99190476Y-83788152D02*
X99190476Y-84454819D01*
X98952381Y-83407200D02*
X98714286Y-84121485D01*
X98714286Y-84121485D02*
X99333333Y-84121485D01*
X75969905Y-149914206D02*
X75969905Y-148914206D01*
X75969905Y-148914206D02*
X76208000Y-148914206D01*
X76208000Y-148914206D02*
X76350857Y-148961825D01*
X76350857Y-148961825D02*
X76446095Y-149057063D01*
X76446095Y-149057063D02*
X76493714Y-149152301D01*
X76493714Y-149152301D02*
X76541333Y-149342777D01*
X76541333Y-149342777D02*
X76541333Y-149485634D01*
X76541333Y-149485634D02*
X76493714Y-149676110D01*
X76493714Y-149676110D02*
X76446095Y-149771348D01*
X76446095Y-149771348D02*
X76350857Y-149866587D01*
X76350857Y-149866587D02*
X76208000Y-149914206D01*
X76208000Y-149914206D02*
X75969905Y-149914206D01*
X77398476Y-149247539D02*
X77398476Y-149914206D01*
X77160381Y-148866587D02*
X76922286Y-149580872D01*
X76922286Y-149580872D02*
X77541333Y-149580872D01*
X91869285Y-133530009D02*
X92012142Y-133577628D01*
X92012142Y-133577628D02*
X92059761Y-133625247D01*
X92059761Y-133625247D02*
X92107380Y-133720485D01*
X92107380Y-133720485D02*
X92107380Y-133863342D01*
X92107380Y-133863342D02*
X92059761Y-133958580D01*
X92059761Y-133958580D02*
X92012142Y-134006200D01*
X92012142Y-134006200D02*
X91916904Y-134053819D01*
X91916904Y-134053819D02*
X91535952Y-134053819D01*
X91535952Y-134053819D02*
X91535952Y-133053819D01*
X91535952Y-133053819D02*
X91869285Y-133053819D01*
X91869285Y-133053819D02*
X91964523Y-133101438D01*
X91964523Y-133101438D02*
X92012142Y-133149057D01*
X92012142Y-133149057D02*
X92059761Y-133244295D01*
X92059761Y-133244295D02*
X92059761Y-133339533D01*
X92059761Y-133339533D02*
X92012142Y-133434771D01*
X92012142Y-133434771D02*
X91964523Y-133482390D01*
X91964523Y-133482390D02*
X91869285Y-133530009D01*
X91869285Y-133530009D02*
X91535952Y-133530009D01*
X92393095Y-133053819D02*
X92964523Y-133053819D01*
X92678809Y-134053819D02*
X92678809Y-133053819D01*
X93821666Y-134053819D02*
X93250238Y-134053819D01*
X93535952Y-134053819D02*
X93535952Y-133053819D01*
X93535952Y-133053819D02*
X93440714Y-133196676D01*
X93440714Y-133196676D02*
X93345476Y-133291914D01*
X93345476Y-133291914D02*
X93250238Y-133339533D01*
X94774048Y-116172866D02*
X95535953Y-116172866D01*
X95155000Y-116553819D02*
X95155000Y-115791914D01*
X97702019Y-59955304D02*
X98511542Y-59955304D01*
X98511542Y-59955304D02*
X98606780Y-59907685D01*
X98606780Y-59907685D02*
X98654400Y-59860066D01*
X98654400Y-59860066D02*
X98702019Y-59764828D01*
X98702019Y-59764828D02*
X98702019Y-59574352D01*
X98702019Y-59574352D02*
X98654400Y-59479114D01*
X98654400Y-59479114D02*
X98606780Y-59431495D01*
X98606780Y-59431495D02*
X98511542Y-59383876D01*
X98511542Y-59383876D02*
X97702019Y-59383876D01*
X97702019Y-58479114D02*
X97702019Y-58669590D01*
X97702019Y-58669590D02*
X97749638Y-58764828D01*
X97749638Y-58764828D02*
X97797257Y-58812447D01*
X97797257Y-58812447D02*
X97940114Y-58907685D01*
X97940114Y-58907685D02*
X98130590Y-58955304D01*
X98130590Y-58955304D02*
X98511542Y-58955304D01*
X98511542Y-58955304D02*
X98606780Y-58907685D01*
X98606780Y-58907685D02*
X98654400Y-58860066D01*
X98654400Y-58860066D02*
X98702019Y-58764828D01*
X98702019Y-58764828D02*
X98702019Y-58574352D01*
X98702019Y-58574352D02*
X98654400Y-58479114D01*
X98654400Y-58479114D02*
X98606780Y-58431495D01*
X98606780Y-58431495D02*
X98511542Y-58383876D01*
X98511542Y-58383876D02*
X98273447Y-58383876D01*
X98273447Y-58383876D02*
X98178209Y-58431495D01*
X98178209Y-58431495D02*
X98130590Y-58479114D01*
X98130590Y-58479114D02*
X98082971Y-58574352D01*
X98082971Y-58574352D02*
X98082971Y-58764828D01*
X98082971Y-58764828D02*
X98130590Y-58860066D01*
X98130590Y-58860066D02*
X98178209Y-58907685D01*
X98178209Y-58907685D02*
X98273447Y-58955304D01*
X100957142Y-65478819D02*
X100623809Y-65002628D01*
X100385714Y-65478819D02*
X100385714Y-64478819D01*
X100385714Y-64478819D02*
X100766666Y-64478819D01*
X100766666Y-64478819D02*
X100861904Y-64526438D01*
X100861904Y-64526438D02*
X100909523Y-64574057D01*
X100909523Y-64574057D02*
X100957142Y-64669295D01*
X100957142Y-64669295D02*
X100957142Y-64812152D01*
X100957142Y-64812152D02*
X100909523Y-64907390D01*
X100909523Y-64907390D02*
X100861904Y-64955009D01*
X100861904Y-64955009D02*
X100766666Y-65002628D01*
X100766666Y-65002628D02*
X100385714Y-65002628D01*
X101909523Y-65478819D02*
X101338095Y-65478819D01*
X101623809Y-65478819D02*
X101623809Y-64478819D01*
X101623809Y-64478819D02*
X101528571Y-64621676D01*
X101528571Y-64621676D02*
X101433333Y-64716914D01*
X101433333Y-64716914D02*
X101338095Y-64764533D01*
X102814285Y-64478819D02*
X102338095Y-64478819D01*
X102338095Y-64478819D02*
X102290476Y-64955009D01*
X102290476Y-64955009D02*
X102338095Y-64907390D01*
X102338095Y-64907390D02*
X102433333Y-64859771D01*
X102433333Y-64859771D02*
X102671428Y-64859771D01*
X102671428Y-64859771D02*
X102766666Y-64907390D01*
X102766666Y-64907390D02*
X102814285Y-64955009D01*
X102814285Y-64955009D02*
X102861904Y-65050247D01*
X102861904Y-65050247D02*
X102861904Y-65288342D01*
X102861904Y-65288342D02*
X102814285Y-65383580D01*
X102814285Y-65383580D02*
X102766666Y-65431200D01*
X102766666Y-65431200D02*
X102671428Y-65478819D01*
X102671428Y-65478819D02*
X102433333Y-65478819D01*
X102433333Y-65478819D02*
X102338095Y-65431200D01*
X102338095Y-65431200D02*
X102290476Y-65383580D01*
X74826905Y-136284619D02*
X74826905Y-135284619D01*
X74826905Y-135284619D02*
X75065000Y-135284619D01*
X75065000Y-135284619D02*
X75207857Y-135332238D01*
X75207857Y-135332238D02*
X75303095Y-135427476D01*
X75303095Y-135427476D02*
X75350714Y-135522714D01*
X75350714Y-135522714D02*
X75398333Y-135713190D01*
X75398333Y-135713190D02*
X75398333Y-135856047D01*
X75398333Y-135856047D02*
X75350714Y-136046523D01*
X75350714Y-136046523D02*
X75303095Y-136141761D01*
X75303095Y-136141761D02*
X75207857Y-136237000D01*
X75207857Y-136237000D02*
X75065000Y-136284619D01*
X75065000Y-136284619D02*
X74826905Y-136284619D01*
X75779286Y-135379857D02*
X75826905Y-135332238D01*
X75826905Y-135332238D02*
X75922143Y-135284619D01*
X75922143Y-135284619D02*
X76160238Y-135284619D01*
X76160238Y-135284619D02*
X76255476Y-135332238D01*
X76255476Y-135332238D02*
X76303095Y-135379857D01*
X76303095Y-135379857D02*
X76350714Y-135475095D01*
X76350714Y-135475095D02*
X76350714Y-135570333D01*
X76350714Y-135570333D02*
X76303095Y-135713190D01*
X76303095Y-135713190D02*
X75731667Y-136284619D01*
X75731667Y-136284619D02*
X76350714Y-136284619D01*
X74826904Y-145394997D02*
X74826904Y-144394997D01*
X74826904Y-144394997D02*
X75064999Y-144394997D01*
X75064999Y-144394997D02*
X75207856Y-144442616D01*
X75207856Y-144442616D02*
X75303094Y-144537854D01*
X75303094Y-144537854D02*
X75350713Y-144633092D01*
X75350713Y-144633092D02*
X75398332Y-144823568D01*
X75398332Y-144823568D02*
X75398332Y-144966425D01*
X75398332Y-144966425D02*
X75350713Y-145156901D01*
X75350713Y-145156901D02*
X75303094Y-145252139D01*
X75303094Y-145252139D02*
X75207856Y-145347378D01*
X75207856Y-145347378D02*
X75064999Y-145394997D01*
X75064999Y-145394997D02*
X74826904Y-145394997D01*
X75731666Y-144394997D02*
X76350713Y-144394997D01*
X76350713Y-144394997D02*
X76017380Y-144775949D01*
X76017380Y-144775949D02*
X76160237Y-144775949D01*
X76160237Y-144775949D02*
X76255475Y-144823568D01*
X76255475Y-144823568D02*
X76303094Y-144871187D01*
X76303094Y-144871187D02*
X76350713Y-144966425D01*
X76350713Y-144966425D02*
X76350713Y-145204520D01*
X76350713Y-145204520D02*
X76303094Y-145299758D01*
X76303094Y-145299758D02*
X76255475Y-145347378D01*
X76255475Y-145347378D02*
X76160237Y-145394997D01*
X76160237Y-145394997D02*
X75874523Y-145394997D01*
X75874523Y-145394997D02*
X75779285Y-145347378D01*
X75779285Y-145347378D02*
X75731666Y-145299758D01*
X73003580Y-155106666D02*
X73051200Y-155154285D01*
X73051200Y-155154285D02*
X73098819Y-155297142D01*
X73098819Y-155297142D02*
X73098819Y-155392380D01*
X73098819Y-155392380D02*
X73051200Y-155535237D01*
X73051200Y-155535237D02*
X72955961Y-155630475D01*
X72955961Y-155630475D02*
X72860723Y-155678094D01*
X72860723Y-155678094D02*
X72670247Y-155725713D01*
X72670247Y-155725713D02*
X72527390Y-155725713D01*
X72527390Y-155725713D02*
X72336914Y-155678094D01*
X72336914Y-155678094D02*
X72241676Y-155630475D01*
X72241676Y-155630475D02*
X72146438Y-155535237D01*
X72146438Y-155535237D02*
X72098819Y-155392380D01*
X72098819Y-155392380D02*
X72098819Y-155297142D01*
X72098819Y-155297142D02*
X72146438Y-155154285D01*
X72146438Y-155154285D02*
X72194057Y-155106666D01*
X72194057Y-154725713D02*
X72146438Y-154678094D01*
X72146438Y-154678094D02*
X72098819Y-154582856D01*
X72098819Y-154582856D02*
X72098819Y-154344761D01*
X72098819Y-154344761D02*
X72146438Y-154249523D01*
X72146438Y-154249523D02*
X72194057Y-154201904D01*
X72194057Y-154201904D02*
X72289295Y-154154285D01*
X72289295Y-154154285D02*
X72384533Y-154154285D01*
X72384533Y-154154285D02*
X72527390Y-154201904D01*
X72527390Y-154201904D02*
X73098819Y-154773332D01*
X73098819Y-154773332D02*
X73098819Y-154154285D01*
X65875819Y-141096904D02*
X66685342Y-141096904D01*
X66685342Y-141096904D02*
X66780580Y-141049285D01*
X66780580Y-141049285D02*
X66828200Y-141001666D01*
X66828200Y-141001666D02*
X66875819Y-140906428D01*
X66875819Y-140906428D02*
X66875819Y-140715952D01*
X66875819Y-140715952D02*
X66828200Y-140620714D01*
X66828200Y-140620714D02*
X66780580Y-140573095D01*
X66780580Y-140573095D02*
X66685342Y-140525476D01*
X66685342Y-140525476D02*
X65875819Y-140525476D01*
X65875819Y-140144523D02*
X65875819Y-139525476D01*
X65875819Y-139525476D02*
X66256771Y-139858809D01*
X66256771Y-139858809D02*
X66256771Y-139715952D01*
X66256771Y-139715952D02*
X66304390Y-139620714D01*
X66304390Y-139620714D02*
X66352009Y-139573095D01*
X66352009Y-139573095D02*
X66447247Y-139525476D01*
X66447247Y-139525476D02*
X66685342Y-139525476D01*
X66685342Y-139525476D02*
X66780580Y-139573095D01*
X66780580Y-139573095D02*
X66828200Y-139620714D01*
X66828200Y-139620714D02*
X66875819Y-139715952D01*
X66875819Y-139715952D02*
X66875819Y-140001666D01*
X66875819Y-140001666D02*
X66828200Y-140096904D01*
X66828200Y-140096904D02*
X66780580Y-140144523D01*
X80033905Y-145107819D02*
X80033905Y-144107819D01*
X80033905Y-144107819D02*
X80272000Y-144107819D01*
X80272000Y-144107819D02*
X80414857Y-144155438D01*
X80414857Y-144155438D02*
X80510095Y-144250676D01*
X80510095Y-144250676D02*
X80557714Y-144345914D01*
X80557714Y-144345914D02*
X80605333Y-144536390D01*
X80605333Y-144536390D02*
X80605333Y-144679247D01*
X80605333Y-144679247D02*
X80557714Y-144869723D01*
X80557714Y-144869723D02*
X80510095Y-144964961D01*
X80510095Y-144964961D02*
X80414857Y-145060200D01*
X80414857Y-145060200D02*
X80272000Y-145107819D01*
X80272000Y-145107819D02*
X80033905Y-145107819D01*
X81557714Y-145107819D02*
X80986286Y-145107819D01*
X81272000Y-145107819D02*
X81272000Y-144107819D01*
X81272000Y-144107819D02*
X81176762Y-144250676D01*
X81176762Y-144250676D02*
X81081524Y-144345914D01*
X81081524Y-144345914D02*
X80986286Y-144393533D01*
X101333333Y-84454819D02*
X101000000Y-83978628D01*
X100761905Y-84454819D02*
X100761905Y-83454819D01*
X100761905Y-83454819D02*
X101142857Y-83454819D01*
X101142857Y-83454819D02*
X101238095Y-83502438D01*
X101238095Y-83502438D02*
X101285714Y-83550057D01*
X101285714Y-83550057D02*
X101333333Y-83645295D01*
X101333333Y-83645295D02*
X101333333Y-83788152D01*
X101333333Y-83788152D02*
X101285714Y-83883390D01*
X101285714Y-83883390D02*
X101238095Y-83931009D01*
X101238095Y-83931009D02*
X101142857Y-83978628D01*
X101142857Y-83978628D02*
X100761905Y-83978628D01*
X102238095Y-83454819D02*
X101761905Y-83454819D01*
X101761905Y-83454819D02*
X101714286Y-83931009D01*
X101714286Y-83931009D02*
X101761905Y-83883390D01*
X101761905Y-83883390D02*
X101857143Y-83835771D01*
X101857143Y-83835771D02*
X102095238Y-83835771D01*
X102095238Y-83835771D02*
X102190476Y-83883390D01*
X102190476Y-83883390D02*
X102238095Y-83931009D01*
X102238095Y-83931009D02*
X102285714Y-84026247D01*
X102285714Y-84026247D02*
X102285714Y-84264342D01*
X102285714Y-84264342D02*
X102238095Y-84359580D01*
X102238095Y-84359580D02*
X102190476Y-84407200D01*
X102190476Y-84407200D02*
X102095238Y-84454819D01*
X102095238Y-84454819D02*
X101857143Y-84454819D01*
X101857143Y-84454819D02*
X101761905Y-84407200D01*
X101761905Y-84407200D02*
X101714286Y-84359580D01*
D12*
%TO.C,R14*%
X98740279Y-67054000D02*
X98414721Y-67054000D01*
X98740279Y-68074000D02*
X98414721Y-68074000D01*
%TO.C,R8*%
X78873839Y-154327113D02*
X78873839Y-154652671D01*
X79893839Y-154327113D02*
X79893839Y-154652671D01*
%TO.C,C9*%
X102664800Y-59273221D02*
X102664800Y-59598779D01*
X103684800Y-59273221D02*
X103684800Y-59598779D01*
%TO.C,J5*%
X67950000Y-98282000D02*
X67950000Y-99582000D01*
X67950000Y-103332000D02*
X67950000Y-104632000D01*
X67950000Y-104632000D02*
X70450000Y-104632000D01*
X70450000Y-98282000D02*
X67950000Y-98282000D01*
X72125000Y-99332000D02*
X72125000Y-103582000D01*
D13*
%TO.C,J3*%
X64385000Y-127527000D02*
X64385000Y-129577000D01*
X64385000Y-133377000D02*
X64385000Y-135427000D01*
X64385000Y-135427000D02*
X68385000Y-135427000D01*
X68385000Y-127527000D02*
X64385000Y-127527000D01*
X71985000Y-133677000D02*
X71985000Y-129277000D01*
D10*
X63485000Y-133627000D02*
G75*
G02*
X63285000Y-133627000I-100000J0D01*
G01*
X63285000Y-133627000D02*
G75*
G02*
X63485000Y-133627000I100000J0D01*
G01*
D14*
%TO.C,C1*%
X96996000Y-137539000D02*
X98996000Y-137539000D01*
D15*
X86496000Y-163539000D02*
X103496000Y-163539000D01*
X103496000Y-140539000D01*
X86496000Y-140539000D01*
X86496000Y-163539000D01*
D12*
%TO.C,R13*%
X99603779Y-41882500D02*
X99278221Y-41882500D01*
X99603779Y-42902500D02*
X99278221Y-42902500D01*
%TO.C,J1*%
X78342000Y-162082800D02*
X78342000Y-169193800D01*
X80662000Y-162082800D02*
X80662000Y-169193800D01*
X82378000Y-162082800D02*
X82378000Y-169193800D01*
X84698000Y-162082800D02*
X84698000Y-169193800D01*
%TO.C,C7*%
X87729600Y-105471179D02*
X87729600Y-105145621D01*
X88749600Y-105471179D02*
X88749600Y-105145621D01*
%TO.C,Q1*%
X75128000Y-155462000D02*
X75128000Y-154002000D01*
X75128000Y-155462000D02*
X76058000Y-155462000D01*
X78288000Y-155462000D02*
X77358000Y-155462000D01*
X78288000Y-155462000D02*
X78288000Y-153302000D01*
D16*
%TO.C,R1*%
X82892900Y-138712150D02*
X82892900Y-141703850D01*
X85763100Y-141703850D02*
X85763100Y-138712150D01*
D12*
%TO.C,D5*%
X96901000Y-44450000D02*
X96901000Y-49530000D01*
X96901000Y-49530000D02*
X97155000Y-49530000D01*
X97155000Y-44450000D02*
X96901000Y-44450000D01*
X98425000Y-44450000D02*
X100457000Y-44450000D01*
X98425000Y-49530000D02*
X100457000Y-49530000D01*
X101727000Y-49530000D02*
X101981000Y-49530000D01*
X101981000Y-44450000D02*
X101727000Y-44450000D01*
X101981000Y-49530000D02*
X101981000Y-44450000D01*
X102594210Y-43942000D02*
G75*
G02*
X101875790Y-43942000I-359210J0D01*
G01*
X101875790Y-43942000D02*
G75*
G02*
X102594210Y-43942000I359210J0D01*
G01*
%TO.C,C10*%
X100470621Y-56030400D02*
X100796179Y-56030400D01*
X100470621Y-57050400D02*
X100796179Y-57050400D01*
D13*
%TO.C,J4*%
X64364000Y-115517000D02*
X64364000Y-117567000D01*
X64364000Y-117567000D02*
X68364000Y-117567000D01*
X64368000Y-105667000D02*
X64368000Y-107717000D01*
X68368000Y-105667000D02*
X64368000Y-105667000D01*
X71964000Y-107417000D02*
X71964000Y-111617000D01*
X71964000Y-115817000D02*
X71964000Y-111617000D01*
D10*
X63464000Y-115767000D02*
G75*
G02*
X63264000Y-115767000I-100000J0D01*
G01*
X63264000Y-115767000D02*
G75*
G02*
X63464000Y-115767000I100000J0D01*
G01*
D16*
%TO.C,U1*%
X63022501Y-144945100D02*
X63022501Y-156806900D01*
X63022501Y-156806900D02*
X70820301Y-156806900D01*
X70820301Y-144945100D02*
X63022501Y-144945100D01*
X70820301Y-156806900D02*
X70820301Y-144945100D01*
D17*
X68930500Y-158584900D02*
G75*
G02*
X68168500Y-158584900I-381000J0D01*
G01*
X68168500Y-158584900D02*
G75*
G02*
X68930500Y-158584900I381000J0D01*
G01*
D12*
%TO.C,C5*%
X68702422Y-142546000D02*
X69219578Y-142546000D01*
X68702422Y-143966000D02*
X69219578Y-143966000D01*
%TO.C,C6*%
X92801221Y-114806000D02*
X93126779Y-114806000D01*
X92801221Y-115826000D02*
X93126779Y-115826000D01*
%TO.C,C3*%
X72126401Y-149024121D02*
X72126401Y-149349679D01*
X73146401Y-149024121D02*
X73146401Y-149349679D01*
%TO.C,C4*%
X69219578Y-136704000D02*
X68702422Y-136704000D01*
X69219578Y-138124000D02*
X68702422Y-138124000D01*
%TO.C,J6*%
X70087000Y-162082800D02*
X70087000Y-169193800D01*
X72407000Y-162082800D02*
X72407000Y-169193800D01*
X74123000Y-162082800D02*
X74123000Y-169193800D01*
X76443000Y-162082800D02*
X76443000Y-169193800D01*
%TO.C,C8*%
X102868000Y-45744079D02*
X102868000Y-45418521D01*
X103888000Y-45744079D02*
X103888000Y-45418521D01*
%TO.C,U4*%
X89295000Y-98566000D02*
X105015000Y-98566000D01*
X89295000Y-114176000D02*
X89295000Y-98566000D01*
X94355000Y-114286000D02*
X105015000Y-114286000D01*
X105015000Y-114286000D02*
X105015000Y-98566000D01*
%TO.C,R9*%
X98638779Y-73438000D02*
X98313221Y-73438000D01*
X98638779Y-72418000D02*
X98313221Y-72418000D01*
%TO.C,R10*%
X101686779Y-73438000D02*
X101361221Y-73438000D01*
X101686779Y-72418000D02*
X101361221Y-72418000D01*
%TO.C,U2*%
X97440000Y-77500000D02*
X97440000Y-80950000D01*
X97440000Y-77500000D02*
X97440000Y-75550000D01*
X102560000Y-77500000D02*
X102560000Y-79450000D01*
X102560000Y-77500000D02*
X102560000Y-75550000D01*
D18*
%TO.C,G\u002A\u002A\u002A*%
G36*
X74264982Y-103176784D02*
G01*
X74301460Y-103179283D01*
X74328611Y-103183280D01*
X74352350Y-103190291D01*
X74378590Y-103201831D01*
X74395257Y-103210160D01*
X74447159Y-103242840D01*
X74485757Y-103281863D01*
X74512083Y-103328787D01*
X74527170Y-103385170D01*
X74530594Y-103414378D01*
X74530366Y-103445863D01*
X74526126Y-103478302D01*
X74523819Y-103487973D01*
X74500299Y-103546229D01*
X74465748Y-103594087D01*
X74420494Y-103631308D01*
X74364867Y-103657657D01*
X74299194Y-103672895D01*
X74262971Y-103676259D01*
X74189661Y-103675094D01*
X74126184Y-103663064D01*
X74071238Y-103639708D01*
X74023518Y-103604566D01*
X74004105Y-103584841D01*
X73973041Y-103541699D01*
X73954450Y-103493982D01*
X73947190Y-103438521D01*
X73946998Y-103426469D01*
X73952006Y-103369863D01*
X73967931Y-103321443D01*
X73996127Y-103277529D01*
X74005940Y-103266055D01*
X74049247Y-103226808D01*
X74098953Y-103199066D01*
X74156582Y-103182303D01*
X74223656Y-103175994D01*
X74264982Y-103176784D01*
G37*
G36*
X75126993Y-98198524D02*
G01*
X75128194Y-98210596D01*
X75128216Y-98215816D01*
X75125957Y-98234228D01*
X75116386Y-98245990D01*
X75101543Y-98254247D01*
X75083274Y-98265397D01*
X75075827Y-98278586D01*
X75074870Y-98289952D01*
X75076345Y-98305393D01*
X75083852Y-98311726D01*
X75101543Y-98312937D01*
X75119581Y-98314361D01*
X75126965Y-98320766D01*
X75128216Y-98331989D01*
X75128216Y-98351041D01*
X74974924Y-98351041D01*
X74937697Y-98351041D01*
X74937737Y-98312937D01*
X74974924Y-98312937D01*
X75037643Y-98312937D01*
X75035300Y-98281325D01*
X75029939Y-98255547D01*
X75019620Y-98241355D01*
X75002126Y-98236950D01*
X74988116Y-98246126D01*
X74979230Y-98267331D01*
X74977267Y-98281325D01*
X74974924Y-98312937D01*
X74937737Y-98312937D01*
X74937739Y-98311032D01*
X74940437Y-98270366D01*
X74947879Y-98237121D01*
X74959230Y-98214188D01*
X74968012Y-98206336D01*
X74993456Y-98199080D01*
X75021663Y-98200178D01*
X75045737Y-98208989D01*
X75052311Y-98214170D01*
X75063712Y-98224258D01*
X75072885Y-98224979D01*
X75086839Y-98216574D01*
X75088510Y-98215420D01*
X75109997Y-98200964D01*
X75121876Y-98195323D01*
X75126993Y-98198524D01*
G37*
G36*
X75095337Y-98095375D02*
G01*
X75142949Y-98115753D01*
X75182701Y-98149073D01*
X75213724Y-98194591D01*
X75224471Y-98224876D01*
X75230855Y-98262029D01*
X75232344Y-98299763D01*
X75228407Y-98331788D01*
X75225987Y-98339610D01*
X75200951Y-98386542D01*
X75166231Y-98424141D01*
X75124247Y-98451411D01*
X75077414Y-98467359D01*
X75033124Y-98470622D01*
X75028153Y-98470988D01*
X74978879Y-98461304D01*
X74954961Y-98451143D01*
X74911135Y-98420955D01*
X74878248Y-98382150D01*
X74856871Y-98337209D01*
X74847816Y-98289884D01*
X74893668Y-98289884D01*
X74903911Y-98332783D01*
X74927237Y-98372339D01*
X74954274Y-98399101D01*
X74991213Y-98419308D01*
X75033124Y-98427408D01*
X75075858Y-98423505D01*
X75115270Y-98407705D01*
X75133385Y-98394550D01*
X75164618Y-98358163D01*
X75183140Y-98316426D01*
X75188247Y-98272088D01*
X75179233Y-98227895D01*
X75177387Y-98223252D01*
X75153926Y-98184353D01*
X75121832Y-98155297D01*
X75083892Y-98136755D01*
X75042893Y-98129398D01*
X75001619Y-98133898D01*
X74962858Y-98150925D01*
X74942714Y-98166722D01*
X74912943Y-98204294D01*
X74896637Y-98246201D01*
X74893668Y-98289884D01*
X74847816Y-98289884D01*
X74847573Y-98288612D01*
X74850926Y-98238841D01*
X74867500Y-98190376D01*
X74887606Y-98158118D01*
X74905612Y-98139819D01*
X74930652Y-98120602D01*
X74947190Y-98110362D01*
X74972992Y-98097686D01*
X74996492Y-98090970D01*
X75024841Y-98088530D01*
X75040577Y-98088377D01*
X75095337Y-98095375D01*
G37*
G36*
X74347657Y-98243568D02*
G01*
X74467835Y-98264175D01*
X74581872Y-98298685D01*
X74690105Y-98347234D01*
X74792874Y-98409959D01*
X74890515Y-98486993D01*
X74926197Y-98519906D01*
X75007244Y-98606040D01*
X75075435Y-98696976D01*
X75131795Y-98794554D01*
X75177345Y-98900614D01*
X75213108Y-99016995D01*
X75221267Y-99050635D01*
X75238266Y-99124548D01*
X75242830Y-102786324D01*
X73653598Y-102786324D01*
X73649788Y-102786324D01*
X73649788Y-103174983D01*
X73797872Y-103174983D01*
X73758870Y-103214992D01*
X73709657Y-103274466D01*
X73672670Y-103340383D01*
X73656667Y-103380744D01*
X73647030Y-103420007D01*
X73640868Y-103469468D01*
X73638246Y-103524472D01*
X73639229Y-103580362D01*
X73643881Y-103632483D01*
X73652266Y-103676177D01*
X73652571Y-103677294D01*
X73683137Y-103760283D01*
X73726381Y-103835067D01*
X73781704Y-103900922D01*
X73848506Y-103957126D01*
X73920325Y-104000058D01*
X73990947Y-104028713D01*
X74070901Y-104049516D01*
X74156088Y-104061823D01*
X74242413Y-104064990D01*
X74307147Y-104060789D01*
X74368413Y-104052524D01*
X74419671Y-104042254D01*
X74466149Y-104028515D01*
X74513072Y-104009845D01*
X74549038Y-103993028D01*
X74621351Y-103949955D01*
X74684922Y-103896344D01*
X74737823Y-103834099D01*
X74776099Y-103769403D01*
X74808101Y-103686313D01*
X74826217Y-103598930D01*
X74831006Y-103519840D01*
X74824338Y-103436327D01*
X74804460Y-103359811D01*
X74771556Y-103290781D01*
X74725813Y-103229724D01*
X74716719Y-103220117D01*
X74672556Y-103174983D01*
X75242527Y-103174983D01*
X75241246Y-103359787D01*
X75240771Y-103413206D01*
X75240130Y-103463166D01*
X75239372Y-103507114D01*
X75238544Y-103542499D01*
X75237695Y-103566767D01*
X75237183Y-103575073D01*
X75218905Y-103694956D01*
X75186820Y-103810833D01*
X75141788Y-103921550D01*
X75084668Y-104025953D01*
X75016319Y-104122885D01*
X74937601Y-104211191D01*
X74849373Y-104289717D01*
X74752494Y-104357308D01*
X74647824Y-104412807D01*
X74598573Y-104433467D01*
X74483446Y-104470839D01*
X74366764Y-104494938D01*
X74250813Y-104505424D01*
X74138259Y-104501994D01*
X74011736Y-104482991D01*
X73892523Y-104450635D01*
X73780359Y-104404801D01*
X73674983Y-104345363D01*
X73576135Y-104272196D01*
X73488489Y-104190325D01*
X73408701Y-104097580D01*
X73342142Y-103998275D01*
X73288179Y-103891260D01*
X73246176Y-103775384D01*
X73232448Y-103725766D01*
X73211594Y-103643660D01*
X73211594Y-101870829D01*
X73649519Y-101870829D01*
X73712525Y-101889824D01*
X73733292Y-101895983D01*
X73766827Y-101905802D01*
X73811247Y-101918734D01*
X73864670Y-101934234D01*
X73925213Y-101951757D01*
X73990993Y-101970756D01*
X74060129Y-101990686D01*
X74099413Y-102001993D01*
X74166976Y-102021501D01*
X74230019Y-102039843D01*
X74287029Y-102056570D01*
X74336498Y-102071230D01*
X74376914Y-102083375D01*
X74406766Y-102092555D01*
X74424544Y-102098321D01*
X74429008Y-102100094D01*
X74423028Y-102103116D01*
X74403738Y-102109977D01*
X74372462Y-102120265D01*
X74330527Y-102133565D01*
X74279257Y-102149466D01*
X74219978Y-102167552D01*
X74154015Y-102187411D01*
X74082694Y-102208630D01*
X74050465Y-102218141D01*
X73976705Y-102239905D01*
X73907283Y-102260486D01*
X73843588Y-102279465D01*
X73787011Y-102296423D01*
X73738942Y-102310941D01*
X73700772Y-102322601D01*
X73673890Y-102330984D01*
X73659687Y-102335670D01*
X73657865Y-102336418D01*
X73655012Y-102344550D01*
X73652953Y-102365323D01*
X73651667Y-102399334D01*
X73651136Y-102447181D01*
X73651340Y-102509462D01*
X73651559Y-102532728D01*
X73653598Y-102723881D01*
X74234550Y-102513144D01*
X74815502Y-102302406D01*
X74815633Y-102111379D01*
X74815764Y-101920351D01*
X74463304Y-101811110D01*
X74392963Y-101789244D01*
X74327061Y-101768631D01*
X74267032Y-101749730D01*
X74214309Y-101732997D01*
X74170324Y-101718890D01*
X74136510Y-101707865D01*
X74114300Y-101700380D01*
X74105127Y-101696892D01*
X74105013Y-101696811D01*
X74110900Y-101693654D01*
X74130012Y-101686524D01*
X74160984Y-101675867D01*
X74202455Y-101662129D01*
X74253060Y-101645753D01*
X74311437Y-101627186D01*
X74376222Y-101606871D01*
X74446052Y-101585255D01*
X74457464Y-101581748D01*
X74815746Y-101471743D01*
X74815755Y-101281178D01*
X74815764Y-101090612D01*
X74237701Y-100879182D01*
X74147994Y-100846393D01*
X74062429Y-100815161D01*
X73982084Y-100785875D01*
X73908037Y-100758928D01*
X73841366Y-100734710D01*
X73783149Y-100713612D01*
X73734464Y-100696025D01*
X73696389Y-100682340D01*
X73670001Y-100672948D01*
X73656379Y-100668240D01*
X73654713Y-100667753D01*
X73653348Y-100675028D01*
X73652129Y-100695476D01*
X73651110Y-100727027D01*
X73650346Y-100767611D01*
X73649892Y-100815160D01*
X73649788Y-100853018D01*
X73649788Y-101038284D01*
X74021300Y-101147455D01*
X74094375Y-101168972D01*
X74163558Y-101189427D01*
X74227364Y-101208376D01*
X74284306Y-101225372D01*
X74332898Y-101239971D01*
X74371655Y-101251726D01*
X74399090Y-101260195D01*
X74413717Y-101264930D01*
X74415093Y-101265435D01*
X74418903Y-101267125D01*
X74421093Y-101268945D01*
X74420805Y-101271169D01*
X74417183Y-101274066D01*
X74409369Y-101277908D01*
X74396507Y-101282965D01*
X74377739Y-101289510D01*
X74352209Y-101297814D01*
X74319058Y-101308147D01*
X74277431Y-101320780D01*
X74226470Y-101335985D01*
X74165317Y-101354033D01*
X74093117Y-101375195D01*
X74009011Y-101399742D01*
X73912144Y-101427946D01*
X73801657Y-101460077D01*
X73779341Y-101466564D01*
X73653598Y-101503120D01*
X73651559Y-101686975D01*
X73649519Y-101870829D01*
X73211594Y-101870829D01*
X73211594Y-101372673D01*
X73211596Y-101152089D01*
X73211605Y-100946224D01*
X73211624Y-100754554D01*
X73211650Y-100614407D01*
X73649788Y-100614407D01*
X74815764Y-100614407D01*
X74815764Y-100233369D01*
X73649788Y-100233369D01*
X73649788Y-100614407D01*
X73211650Y-100614407D01*
X73211657Y-100576556D01*
X73211705Y-100411707D01*
X73211773Y-100259483D01*
X73211839Y-100157162D01*
X73649788Y-100157162D01*
X74815764Y-100157162D01*
X74815764Y-99776123D01*
X74236587Y-99776123D01*
X73649788Y-99776123D01*
X73649788Y-100157162D01*
X73211839Y-100157162D01*
X73211864Y-100119362D01*
X73211981Y-99990820D01*
X73212127Y-99873334D01*
X73212305Y-99766382D01*
X73212519Y-99669439D01*
X73212771Y-99581983D01*
X73213066Y-99503490D01*
X73213406Y-99433438D01*
X73213794Y-99371303D01*
X73214233Y-99316562D01*
X73214728Y-99268691D01*
X73215280Y-99227168D01*
X73215894Y-99191470D01*
X73216572Y-99161073D01*
X73217318Y-99135454D01*
X73218134Y-99114090D01*
X73219024Y-99096458D01*
X73219992Y-99082035D01*
X73221040Y-99070297D01*
X73222172Y-99060721D01*
X73223390Y-99052784D01*
X73224698Y-99045964D01*
X73225868Y-99040720D01*
X73230337Y-99025478D01*
X73638357Y-99025478D01*
X73639581Y-99120738D01*
X73643445Y-99196590D01*
X73653708Y-99263211D01*
X73671547Y-99325691D01*
X73698139Y-99389116D01*
X73704783Y-99402706D01*
X73742197Y-99463952D01*
X73790804Y-99522687D01*
X73846883Y-99575137D01*
X73906715Y-99617527D01*
X73928377Y-99629558D01*
X73978288Y-99653535D01*
X74023790Y-99671221D01*
X74068825Y-99683467D01*
X74117339Y-99691124D01*
X74173276Y-99695045D01*
X74236587Y-99696084D01*
X74297626Y-99695346D01*
X74347293Y-99692622D01*
X74389412Y-99687117D01*
X74427804Y-99678036D01*
X74466293Y-99664582D01*
X74508702Y-99645960D01*
X74532550Y-99634473D01*
X74606795Y-99589710D01*
X74671295Y-99533382D01*
X74725310Y-99466217D01*
X74756135Y-99413828D01*
X74788311Y-99343732D01*
X74810294Y-99276961D01*
X74823231Y-99208491D01*
X74828271Y-99133296D01*
X74828299Y-99097876D01*
X74827196Y-99025478D01*
X74520434Y-99021358D01*
X74517213Y-99088727D01*
X74510734Y-99143195D01*
X74496230Y-99187028D01*
X74472377Y-99223280D01*
X74449031Y-99246099D01*
X74400145Y-99278454D01*
X74344053Y-99300915D01*
X74283511Y-99313565D01*
X74221272Y-99316489D01*
X74160094Y-99309771D01*
X74102729Y-99293493D01*
X74051935Y-99267741D01*
X74010603Y-99232749D01*
X73982158Y-99195726D01*
X73964633Y-99157760D01*
X73956222Y-99113926D01*
X73954786Y-99080574D01*
X73954618Y-99021359D01*
X73796488Y-99023419D01*
X73638357Y-99025478D01*
X73230337Y-99025478D01*
X73262176Y-98916887D01*
X73311021Y-98801107D01*
X73371948Y-98693971D01*
X73444505Y-98596072D01*
X73528239Y-98508001D01*
X73622697Y-98430350D01*
X73727425Y-98363711D01*
X73755729Y-98348546D01*
X73860729Y-98300921D01*
X73965955Y-98266968D01*
X74074487Y-98245948D01*
X74189406Y-98237119D01*
X74221000Y-98236730D01*
X74347657Y-98243568D01*
G37*
D12*
%TO.C,R4*%
X98638779Y-82582000D02*
X98313221Y-82582000D01*
X98638779Y-81562000D02*
X98313221Y-81562000D01*
D11*
%TO.C,D4*%
X74708000Y-150337387D02*
X78248000Y-150337387D01*
X74708000Y-152645387D02*
X78248000Y-152645387D01*
X76009500Y-151491387D02*
X76390500Y-151491387D01*
X76390500Y-150983387D02*
X76390500Y-151999387D01*
X76390500Y-151491387D02*
X77025500Y-151110387D01*
X77025500Y-151110387D02*
X77025500Y-151872387D01*
X77025500Y-151491387D02*
X77406500Y-151491387D01*
X77025500Y-151872387D02*
X76390500Y-151491387D01*
%TO.C,BT1*%
X95854999Y-132398999D02*
G75*
G02*
X95855001Y-117799001I1300001J7299999D01*
G01*
X98570270Y-117820469D02*
G75*
G02*
X98455000Y-132399000I-1415270J-7278531D01*
G01*
D19*
%TO.C,U6*%
X99109400Y-57659400D02*
X99109400Y-60707400D01*
X102157400Y-57659400D02*
X99109400Y-57659400D01*
X102157400Y-57659400D02*
X102157400Y-60707400D01*
X102157400Y-60707400D02*
X99109400Y-60707400D01*
D20*
X101961400Y-61200400D02*
G75*
G02*
X101761400Y-61200400I-100000J0D01*
G01*
X101761400Y-61200400D02*
G75*
G02*
X101961400Y-61200400I100000J0D01*
G01*
D12*
%TO.C,R15*%
X98740279Y-64514000D02*
X98414721Y-64514000D01*
X98740279Y-65534000D02*
X98414721Y-65534000D01*
D13*
%TO.C,U5*%
X73320000Y-30634000D02*
X94320000Y-30634000D01*
X73320000Y-30884000D02*
X73320000Y-30634000D01*
X73320000Y-81634000D02*
X73320000Y-81384000D01*
X94320000Y-30634000D02*
X94320000Y-30884000D01*
X94320000Y-81634000D02*
X73320000Y-81634000D01*
X94320000Y-81634000D02*
X94320000Y-81384000D01*
D20*
X71730000Y-32004000D02*
G75*
G02*
X71530000Y-32004000I-100000J0D01*
G01*
X71530000Y-32004000D02*
G75*
G02*
X71730000Y-32004000I100000J0D01*
G01*
D16*
%TO.C,D2*%
X72009000Y-139665200D02*
X72009000Y-136566400D01*
X72009000Y-139665200D02*
X78524100Y-139665200D01*
X72605900Y-136566400D02*
X72605900Y-136932160D01*
X72605900Y-139299440D02*
X72605900Y-139665200D01*
X78524100Y-136566400D02*
X72009000Y-136566400D01*
X78524100Y-136932160D02*
X78524100Y-136566400D01*
X78524100Y-139665200D02*
X78524100Y-139299440D01*
%TO.C,D3*%
X72009000Y-144170400D02*
X72009000Y-141071600D01*
X72009000Y-144170400D02*
X78524100Y-144170400D01*
X72605900Y-141071600D02*
X72605900Y-141437360D01*
X72605900Y-143804640D02*
X72605900Y-144170400D01*
X78524100Y-141071600D02*
X72009000Y-141071600D01*
X78524100Y-141437360D02*
X78524100Y-141071600D01*
X78524100Y-144170400D02*
X78524100Y-143804640D01*
D12*
%TO.C,C2*%
X71926401Y-152620478D02*
X71926401Y-152103322D01*
X73346401Y-152620478D02*
X73346401Y-152103322D01*
D21*
%TO.C,G\u002A\u002A\u002A*%
X67994750Y-38465185D02*
X68124081Y-38494450D01*
X68285625Y-38544374D01*
X68467407Y-38610551D01*
X68657454Y-38688578D01*
X68843791Y-38774048D01*
X68872100Y-38787941D01*
X69263853Y-39009703D01*
X69623842Y-39269533D01*
X69950032Y-39564305D01*
X70240387Y-39890892D01*
X70492871Y-40246168D01*
X70705447Y-40627007D01*
X70876080Y-41030283D01*
X71002733Y-41452870D01*
X71083369Y-41891641D01*
X71112335Y-42227491D01*
X71108202Y-42680771D01*
X71055629Y-43123421D01*
X70956408Y-43552400D01*
X70812329Y-43964665D01*
X70625184Y-44357175D01*
X70396763Y-44726888D01*
X70128857Y-45070763D01*
X69823257Y-45385758D01*
X69481753Y-45668831D01*
X69106137Y-45916940D01*
X68862252Y-46049204D01*
X68749119Y-46101027D01*
X68606146Y-46159461D01*
X68447387Y-46219455D01*
X68286892Y-46275958D01*
X68138711Y-46323920D01*
X68016898Y-46358290D01*
X67976750Y-46367504D01*
X67894200Y-46384436D01*
X67894200Y-42748200D01*
X67689047Y-42748200D01*
X67585190Y-42746918D01*
X67517632Y-42740506D01*
X67471885Y-42725116D01*
X67433465Y-42696897D01*
X67409647Y-42673953D01*
X67360299Y-42613380D01*
X67338976Y-42547841D01*
X67335400Y-42481500D01*
X67342451Y-42395882D01*
X67370224Y-42334162D01*
X67409647Y-42289046D01*
X67450310Y-42251923D01*
X67490155Y-42229794D01*
X67543668Y-42218808D01*
X67625333Y-42215116D01*
X67689047Y-42214800D01*
X67894200Y-42214800D01*
X67894200Y-38449107D01*
X67994750Y-38465185D01*
G36*
X67994750Y-38465185D02*
G01*
X68124081Y-38494450D01*
X68285625Y-38544374D01*
X68467407Y-38610551D01*
X68657454Y-38688578D01*
X68843791Y-38774048D01*
X68872100Y-38787941D01*
X69263853Y-39009703D01*
X69623842Y-39269533D01*
X69950032Y-39564305D01*
X70240387Y-39890892D01*
X70492871Y-40246168D01*
X70705447Y-40627007D01*
X70876080Y-41030283D01*
X71002733Y-41452870D01*
X71083369Y-41891641D01*
X71112335Y-42227491D01*
X71108202Y-42680771D01*
X71055629Y-43123421D01*
X70956408Y-43552400D01*
X70812329Y-43964665D01*
X70625184Y-44357175D01*
X70396763Y-44726888D01*
X70128857Y-45070763D01*
X69823257Y-45385758D01*
X69481753Y-45668831D01*
X69106137Y-45916940D01*
X68862252Y-46049204D01*
X68749119Y-46101027D01*
X68606146Y-46159461D01*
X68447387Y-46219455D01*
X68286892Y-46275958D01*
X68138711Y-46323920D01*
X68016898Y-46358290D01*
X67976750Y-46367504D01*
X67894200Y-46384436D01*
X67894200Y-42748200D01*
X67689047Y-42748200D01*
X67585190Y-42746918D01*
X67517632Y-42740506D01*
X67471885Y-42725116D01*
X67433465Y-42696897D01*
X67409647Y-42673953D01*
X67360299Y-42613380D01*
X67338976Y-42547841D01*
X67335400Y-42481500D01*
X67342451Y-42395882D01*
X67370224Y-42334162D01*
X67409647Y-42289046D01*
X67450310Y-42251923D01*
X67490155Y-42229794D01*
X67543668Y-42218808D01*
X67625333Y-42215116D01*
X67689047Y-42214800D01*
X67894200Y-42214800D01*
X67894200Y-38449107D01*
X67994750Y-38465185D01*
G37*
X67310000Y-41668787D02*
X67194133Y-41730254D01*
X67036956Y-41841313D01*
X66908816Y-41988014D01*
X66815253Y-42160963D01*
X66761808Y-42350762D01*
X66751201Y-42481500D01*
X66774945Y-42677298D01*
X66842486Y-42862484D01*
X66948282Y-43027663D01*
X67086795Y-43163439D01*
X67194133Y-43232745D01*
X67310000Y-43294212D01*
X67310000Y-46482000D01*
X67095097Y-46482000D01*
X66637696Y-46457376D01*
X66193167Y-46384612D01*
X65764347Y-46265367D01*
X65354075Y-46101299D01*
X64965189Y-45894067D01*
X64600527Y-45645330D01*
X64262927Y-45356747D01*
X63955228Y-45029977D01*
X63680269Y-44666678D01*
X63503992Y-44383114D01*
X63326885Y-44024626D01*
X63185773Y-43637651D01*
X63082472Y-43231287D01*
X63018798Y-42814627D01*
X63003197Y-42521413D01*
X63681595Y-42521413D01*
X63689155Y-42735398D01*
X63706756Y-42926147D01*
X63716731Y-42992522D01*
X63810024Y-43389151D01*
X63948855Y-43764186D01*
X64132285Y-44115782D01*
X64359371Y-44442093D01*
X64587751Y-44699962D01*
X64830536Y-44924897D01*
X65082739Y-45112792D01*
X65362393Y-45276671D01*
X65442426Y-45317250D01*
X65563368Y-45374790D01*
X65650084Y-45410205D01*
X65712382Y-45426710D01*
X65760065Y-45427516D01*
X65772254Y-45425340D01*
X65890951Y-45378740D01*
X65970312Y-45300031D01*
X66009878Y-45189780D01*
X66014600Y-45125330D01*
X65996959Y-45035523D01*
X65940944Y-44956622D01*
X65841920Y-44883555D01*
X65749801Y-44835618D01*
X65441236Y-44663984D01*
X65162337Y-44453976D01*
X64915674Y-44210128D01*
X64703818Y-43936974D01*
X64529341Y-43639047D01*
X64394813Y-43320882D01*
X64302806Y-42987014D01*
X64255891Y-42641975D01*
X64256348Y-42426952D01*
X65060402Y-42426952D01*
X65078190Y-42713172D01*
X65114099Y-42889756D01*
X65209455Y-43159566D01*
X65348961Y-43408862D01*
X65528219Y-43632092D01*
X65742833Y-43823705D01*
X65967356Y-43967094D01*
X66108444Y-44023832D01*
X66234618Y-44037876D01*
X66341126Y-44010429D01*
X66423220Y-43942693D01*
X66475345Y-43838585D01*
X66489366Y-43734450D01*
X66462354Y-43642558D01*
X66391288Y-43557937D01*
X66273144Y-43475614D01*
X66245219Y-43459874D01*
X66045487Y-43323844D01*
X65883259Y-43158405D01*
X65760443Y-42969360D01*
X65678943Y-42762514D01*
X65640667Y-42543673D01*
X65647520Y-42318641D01*
X65701407Y-42093222D01*
X65754548Y-41965445D01*
X65843128Y-41824084D01*
X65965985Y-41684002D01*
X66108389Y-41559851D01*
X66255608Y-41466283D01*
X66257158Y-41465500D01*
X66383068Y-41384831D01*
X66459707Y-41294023D01*
X66487826Y-41191803D01*
X66474466Y-41096081D01*
X66420658Y-40989884D01*
X66337712Y-40922645D01*
X66230845Y-40895900D01*
X66105275Y-40911186D01*
X65994706Y-40954787D01*
X65857815Y-41034405D01*
X65716526Y-41133735D01*
X65587120Y-41240252D01*
X65485876Y-41341434D01*
X65474386Y-41355058D01*
X65299831Y-41604797D01*
X65172078Y-41869121D01*
X65091984Y-42144387D01*
X65060402Y-42426952D01*
X64256348Y-42426952D01*
X64256639Y-42290301D01*
X64263283Y-42214169D01*
X64319830Y-41865947D01*
X64416911Y-41543059D01*
X64557728Y-41236389D01*
X64675761Y-41039082D01*
X64883666Y-40760075D01*
X65120148Y-40518128D01*
X65391033Y-40308044D01*
X65700215Y-40125626D01*
X65820153Y-40062125D01*
X65902167Y-40012761D01*
X65954236Y-39969907D01*
X65984338Y-39925934D01*
X66000449Y-39873215D01*
X66006974Y-39832329D01*
X66000375Y-39712220D01*
X65948305Y-39612498D01*
X65853990Y-39539090D01*
X65844870Y-39534605D01*
X65785373Y-39509137D01*
X65738497Y-39502024D01*
X65682323Y-39513117D01*
X65621501Y-39533091D01*
X65486461Y-39589873D01*
X65326876Y-39673601D01*
X65155516Y-39776750D01*
X64985154Y-39891795D01*
X64880962Y-39969420D01*
X64594454Y-40223967D01*
X64340947Y-40514492D01*
X64123413Y-40836002D01*
X63944824Y-41183501D01*
X63808151Y-41551995D01*
X63718809Y-41922700D01*
X63696458Y-42096798D01*
X63684041Y-42302458D01*
X63681595Y-42521413D01*
X63003197Y-42521413D01*
X62996565Y-42396769D01*
X63017590Y-41986808D01*
X63020480Y-41960800D01*
X63086739Y-41551680D01*
X63190685Y-41165431D01*
X63336765Y-40787087D01*
X63424149Y-40601900D01*
X63646892Y-40211308D01*
X63909902Y-39849786D01*
X64209933Y-39520186D01*
X64543741Y-39225362D01*
X64908078Y-38968166D01*
X65299701Y-38751453D01*
X65715362Y-38578076D01*
X65733487Y-38571719D01*
X65738497Y-38570124D01*
X65984392Y-38491830D01*
X66221200Y-38433719D01*
X66230845Y-38432134D01*
X66461667Y-38394182D01*
X66723546Y-38370013D01*
X66897250Y-38361593D01*
X67310000Y-38346885D01*
X67310000Y-41668787D01*
G36*
X67310000Y-41668787D02*
G01*
X67194133Y-41730254D01*
X67036956Y-41841313D01*
X66908816Y-41988014D01*
X66815253Y-42160963D01*
X66761808Y-42350762D01*
X66751201Y-42481500D01*
X66774945Y-42677298D01*
X66842486Y-42862484D01*
X66948282Y-43027663D01*
X67086795Y-43163439D01*
X67194133Y-43232745D01*
X67310000Y-43294212D01*
X67310000Y-46482000D01*
X67095097Y-46482000D01*
X66637696Y-46457376D01*
X66193167Y-46384612D01*
X65764347Y-46265367D01*
X65354075Y-46101299D01*
X64965189Y-45894067D01*
X64600527Y-45645330D01*
X64262927Y-45356747D01*
X63955228Y-45029977D01*
X63680269Y-44666678D01*
X63503992Y-44383114D01*
X63326885Y-44024626D01*
X63185773Y-43637651D01*
X63082472Y-43231287D01*
X63018798Y-42814627D01*
X63003197Y-42521413D01*
X63681595Y-42521413D01*
X63689155Y-42735398D01*
X63706756Y-42926147D01*
X63716731Y-42992522D01*
X63810024Y-43389151D01*
X63948855Y-43764186D01*
X64132285Y-44115782D01*
X64359371Y-44442093D01*
X64587751Y-44699962D01*
X64830536Y-44924897D01*
X65082739Y-45112792D01*
X65362393Y-45276671D01*
X65442426Y-45317250D01*
X65563368Y-45374790D01*
X65650084Y-45410205D01*
X65712382Y-45426710D01*
X65760065Y-45427516D01*
X65772254Y-45425340D01*
X65890951Y-45378740D01*
X65970312Y-45300031D01*
X66009878Y-45189780D01*
X66014600Y-45125330D01*
X65996959Y-45035523D01*
X65940944Y-44956622D01*
X65841920Y-44883555D01*
X65749801Y-44835618D01*
X65441236Y-44663984D01*
X65162337Y-44453976D01*
X64915674Y-44210128D01*
X64703818Y-43936974D01*
X64529341Y-43639047D01*
X64394813Y-43320882D01*
X64302806Y-42987014D01*
X64255891Y-42641975D01*
X64256348Y-42426952D01*
X65060402Y-42426952D01*
X65078190Y-42713172D01*
X65114099Y-42889756D01*
X65209455Y-43159566D01*
X65348961Y-43408862D01*
X65528219Y-43632092D01*
X65742833Y-43823705D01*
X65967356Y-43967094D01*
X66108444Y-44023832D01*
X66234618Y-44037876D01*
X66341126Y-44010429D01*
X66423220Y-43942693D01*
X66475345Y-43838585D01*
X66489366Y-43734450D01*
X66462354Y-43642558D01*
X66391288Y-43557937D01*
X66273144Y-43475614D01*
X66245219Y-43459874D01*
X66045487Y-43323844D01*
X65883259Y-43158405D01*
X65760443Y-42969360D01*
X65678943Y-42762514D01*
X65640667Y-42543673D01*
X65647520Y-42318641D01*
X65701407Y-42093222D01*
X65754548Y-41965445D01*
X65843128Y-41824084D01*
X65965985Y-41684002D01*
X66108389Y-41559851D01*
X66255608Y-41466283D01*
X66257158Y-41465500D01*
X66383068Y-41384831D01*
X66459707Y-41294023D01*
X66487826Y-41191803D01*
X66474466Y-41096081D01*
X66420658Y-40989884D01*
X66337712Y-40922645D01*
X66230845Y-40895900D01*
X66105275Y-40911186D01*
X65994706Y-40954787D01*
X65857815Y-41034405D01*
X65716526Y-41133735D01*
X65587120Y-41240252D01*
X65485876Y-41341434D01*
X65474386Y-41355058D01*
X65299831Y-41604797D01*
X65172078Y-41869121D01*
X65091984Y-42144387D01*
X65060402Y-42426952D01*
X64256348Y-42426952D01*
X64256639Y-42290301D01*
X64263283Y-42214169D01*
X64319830Y-41865947D01*
X64416911Y-41543059D01*
X64557728Y-41236389D01*
X64675761Y-41039082D01*
X64883666Y-40760075D01*
X65120148Y-40518128D01*
X65391033Y-40308044D01*
X65700215Y-40125626D01*
X65820153Y-40062125D01*
X65902167Y-40012761D01*
X65954236Y-39969907D01*
X65984338Y-39925934D01*
X66000449Y-39873215D01*
X66006974Y-39832329D01*
X66000375Y-39712220D01*
X65948305Y-39612498D01*
X65853990Y-39539090D01*
X65844870Y-39534605D01*
X65785373Y-39509137D01*
X65738497Y-39502024D01*
X65682323Y-39513117D01*
X65621501Y-39533091D01*
X65486461Y-39589873D01*
X65326876Y-39673601D01*
X65155516Y-39776750D01*
X64985154Y-39891795D01*
X64880962Y-39969420D01*
X64594454Y-40223967D01*
X64340947Y-40514492D01*
X64123413Y-40836002D01*
X63944824Y-41183501D01*
X63808151Y-41551995D01*
X63718809Y-41922700D01*
X63696458Y-42096798D01*
X63684041Y-42302458D01*
X63681595Y-42521413D01*
X63003197Y-42521413D01*
X62996565Y-42396769D01*
X63017590Y-41986808D01*
X63020480Y-41960800D01*
X63086739Y-41551680D01*
X63190685Y-41165431D01*
X63336765Y-40787087D01*
X63424149Y-40601900D01*
X63646892Y-40211308D01*
X63909902Y-39849786D01*
X64209933Y-39520186D01*
X64543741Y-39225362D01*
X64908078Y-38968166D01*
X65299701Y-38751453D01*
X65715362Y-38578076D01*
X65733487Y-38571719D01*
X65738497Y-38570124D01*
X65984392Y-38491830D01*
X66221200Y-38433719D01*
X66230845Y-38432134D01*
X66461667Y-38394182D01*
X66723546Y-38370013D01*
X66897250Y-38361593D01*
X67310000Y-38346885D01*
X67310000Y-41668787D01*
G37*
D12*
%TO.C,J7*%
X68466000Y-86136000D02*
X69736000Y-86136000D01*
X68466000Y-87406000D02*
X68466000Y-86136000D01*
X70778929Y-89566000D02*
X71176000Y-89566000D01*
X70778929Y-90326000D02*
X71176000Y-90326000D01*
X70778929Y-92106000D02*
X71176000Y-92106000D01*
X70778929Y-92866000D02*
X71176000Y-92866000D01*
X70846000Y-87026000D02*
X71176000Y-87026000D01*
X70846000Y-87786000D02*
X71176000Y-87786000D01*
X71176000Y-86076000D02*
X71176000Y-93816000D01*
X71176000Y-88676000D02*
X73836000Y-88676000D01*
X71176000Y-91216000D02*
X73836000Y-91216000D01*
X71176000Y-93816000D02*
X73836000Y-93816000D01*
X73836000Y-86076000D02*
X71176000Y-86076000D01*
X73836000Y-87026000D02*
X79836000Y-87026000D01*
X73836000Y-87086000D02*
X79836000Y-87086000D01*
X73836000Y-87206000D02*
X79836000Y-87206000D01*
X73836000Y-87326000D02*
X79836000Y-87326000D01*
X73836000Y-87446000D02*
X79836000Y-87446000D01*
X73836000Y-87566000D02*
X79836000Y-87566000D01*
X73836000Y-87686000D02*
X79836000Y-87686000D01*
X73836000Y-89566000D02*
X79836000Y-89566000D01*
X73836000Y-92106000D02*
X79836000Y-92106000D01*
X73836000Y-93816000D02*
X73836000Y-86076000D01*
X79836000Y-87026000D02*
X79836000Y-87786000D01*
X79836000Y-87786000D02*
X73836000Y-87786000D01*
X79836000Y-89566000D02*
X79836000Y-90326000D01*
X79836000Y-90326000D02*
X73836000Y-90326000D01*
X79836000Y-92106000D02*
X79836000Y-92866000D01*
X79836000Y-92866000D02*
X73836000Y-92866000D01*
%TO.C,U3*%
X68061000Y-141945000D02*
X70511000Y-141945000D01*
X69861000Y-138725000D02*
X68061000Y-138725000D01*
D16*
%TO.C,D1*%
X79239600Y-137211700D02*
X79239600Y-143726800D01*
X79239600Y-143129900D02*
X79605360Y-143129900D01*
X79605360Y-137211700D02*
X79239600Y-137211700D01*
X81972640Y-143129900D02*
X82338400Y-143129900D01*
X82338400Y-137211700D02*
X81972640Y-137211700D01*
X82338400Y-143726800D02*
X79239600Y-143726800D01*
X82338400Y-143726800D02*
X82338400Y-137211700D01*
D12*
%TO.C,R5*%
X101686779Y-82582000D02*
X101361221Y-82582000D01*
X101686779Y-81562000D02*
X101361221Y-81562000D01*
D13*
%TO.C,J2*%
X64385000Y-118637000D02*
X64385000Y-120687000D01*
X64385000Y-124487000D02*
X64385000Y-126537000D01*
X64385000Y-126537000D02*
X68385000Y-126537000D01*
X68385000Y-118637000D02*
X64385000Y-118637000D01*
X71985000Y-124787000D02*
X71985000Y-120387000D01*
D10*
X63485000Y-124737000D02*
G75*
G02*
X63285000Y-124737000I-100000J0D01*
G01*
X63285000Y-124737000D02*
G75*
G02*
X63485000Y-124737000I100000J0D01*
G01*
%TD*%
M02*
