%TF.GenerationSoftware,KiCad,Pcbnew,8.0.1-rc1*%
%TF.CreationDate,2024-06-07T11:34:21-05:00*%
%TF.ProjectId,Cutdown,43757464-6f77-46e2-9e6b-696361645f70,2.0.0*%
%TF.SameCoordinates,Original*%
%TF.FileFunction,Copper,L2,Bot*%
%TF.FilePolarity,Positive*%
%FSLAX46Y46*%
G04 Gerber Fmt 4.6, Leading zero omitted, Abs format (unit mm)*
G04 Created by KiCad (PCBNEW 8.0.1-rc1) date 2024-06-07 11:34:21*
%MOMM*%
%LPD*%
G01*
G04 APERTURE LIST*
G04 Aperture macros list*
%AMRoundRect*
0 Rectangle with rounded corners*
0 $1 Rounding radius*
0 $2 $3 $4 $5 $6 $7 $8 $9 X,Y pos of 4 corners*
0 Add a 4 corners polygon primitive as box body*
4,1,4,$2,$3,$4,$5,$6,$7,$8,$9,$2,$3,0*
0 Add four circle primitives for the rounded corners*
1,1,$1+$1,$2,$3*
1,1,$1+$1,$4,$5*
1,1,$1+$1,$6,$7*
1,1,$1+$1,$8,$9*
0 Add four rect primitives between the rounded corners*
20,1,$1+$1,$2,$3,$4,$5,0*
20,1,$1+$1,$4,$5,$6,$7,0*
20,1,$1+$1,$6,$7,$8,$9,0*
20,1,$1+$1,$8,$9,$2,$3,0*%
G04 Aperture macros list end*
%TA.AperFunction,ComponentPad*%
%ADD10C,2.200000*%
%TD*%
%TA.AperFunction,ComponentPad*%
%ADD11RoundRect,0.302260X-0.967740X-0.967740X0.967740X-0.967740X0.967740X0.967740X-0.967740X0.967740X0*%
%TD*%
%TA.AperFunction,ComponentPad*%
%ADD12C,2.540000*%
%TD*%
%TA.AperFunction,ComponentPad*%
%ADD13C,1.498600*%
%TD*%
%TA.AperFunction,WasherPad*%
%ADD14C,3.810000*%
%TD*%
%TA.AperFunction,ComponentPad*%
%ADD15R,1.700000X1.700000*%
%TD*%
%TA.AperFunction,ComponentPad*%
%ADD16O,1.700000X1.700000*%
%TD*%
%TA.AperFunction,ViaPad*%
%ADD17C,0.508000*%
%TD*%
%TA.AperFunction,Conductor*%
%ADD18C,0.508000*%
%TD*%
G04 APERTURE END LIST*
D10*
%TO.P,C1,1*%
%TO.N,Net-(D3-A)*%
X88996000Y-137539000D03*
%TO.P,C1,2*%
%TO.N,GND*%
X100996000Y-137539000D03*
%TD*%
D11*
%TO.P,J1,1,Pin_1*%
%TO.N,GND*%
X83538000Y-160772800D03*
D12*
%TO.P,J1,2,Pin_2*%
%TO.N,+9V*%
X79502000Y-160772800D03*
%TD*%
D13*
%TO.P,U1,1,VIN*%
%TO.N,+BATT*%
X68549500Y-153416000D03*
%TO.P,U1,2,GND*%
%TO.N,GND*%
X68549500Y-150876000D03*
%TO.P,U1,3,VOUT*%
%TO.N,+5V*%
X68549500Y-148336000D03*
%TD*%
D11*
%TO.P,J6,1,Pin_1*%
%TO.N,Net-(J6-Pin_1)*%
X75283000Y-160772800D03*
D12*
%TO.P,J6,2,Pin_2*%
%TO.N,+9V*%
X71247000Y-160772800D03*
%TD*%
D14*
%TO.P,H3,*%
%TO.N,*%
X66040000Y-168910000D03*
%TD*%
%TO.P,H4,*%
%TO.N,*%
X101600000Y-168910000D03*
%TD*%
%TO.P,H1,*%
%TO.N,*%
X66040000Y-34290000D03*
%TD*%
D15*
%TO.P,J7,1,Pin_1*%
%TO.N,GND*%
X69736000Y-87406000D03*
D16*
%TO.P,J7,2,Pin_2*%
%TO.N,+5V*%
X69736000Y-89946000D03*
%TO.P,J7,3,Pin_3*%
%TO.N,Servo*%
X69736000Y-92486000D03*
%TD*%
D14*
%TO.P,H2,*%
%TO.N,*%
X101600000Y-34290000D03*
%TD*%
D17*
%TO.N,GND*%
X64500000Y-117000000D03*
%TO.N,EXT1*%
X89000000Y-65500000D03*
%TO.N,EXT2*%
X89000000Y-67500000D03*
%TO.N,GND*%
X64770000Y-134620000D03*
X64770000Y-125222000D03*
%TO.N,+5V*%
X67691000Y-51054000D03*
X67691000Y-112649000D03*
%TO.N,+3V3*%
X95250000Y-115316000D03*
X102286000Y-71531000D03*
X99238000Y-71531000D03*
X65024000Y-101981000D03*
X100330000Y-67564000D03*
X102108000Y-61620400D03*
X88239600Y-103378000D03*
X96520000Y-34544000D03*
X66294000Y-141274800D03*
X100330000Y-65024000D03*
X98806000Y-56540400D03*
%TO.N,EXT1*%
X97714000Y-71404000D03*
%TO.N,EXT2*%
X100762000Y-71531000D03*
%TO.N,GPS_PPS*%
X87299800Y-100584000D03*
X87249000Y-38862000D03*
%TO.N,GPS_TX*%
X76962000Y-98044000D03*
X76835000Y-32004000D03*
%TO.N,GPS_RX*%
X77622400Y-97383600D03*
X77622400Y-34544000D03*
%TO.N,SDA*%
X65786000Y-100965000D03*
X65786000Y-68834000D03*
%TO.N,RX*%
X64160400Y-47244000D03*
X64389000Y-106299000D03*
%TO.N,SCL*%
X65125600Y-99949000D03*
X65151000Y-66421000D03*
%TO.N,TX*%
X65024000Y-44704000D03*
X63500000Y-106426000D03*
%TD*%
D18*
%TO.N,GND*%
X64770000Y-117270000D02*
X64500000Y-117000000D01*
X64770000Y-125222000D02*
X64770000Y-117270000D01*
%TO.N,EXT1*%
X88339600Y-66160400D02*
X88339600Y-67839600D01*
X88339600Y-67839600D02*
X91904000Y-71404000D01*
X89000000Y-65500000D02*
X88339600Y-66160400D01*
X91904000Y-71404000D02*
X97714000Y-71404000D01*
%TO.N,EXT2*%
X89000000Y-67500000D02*
X90000000Y-68500000D01*
X90000000Y-68500000D02*
X97731000Y-68500000D01*
X97731000Y-68500000D02*
X100762000Y-71531000D01*
%TO.N,GND*%
X64770000Y-134620000D02*
X64770000Y-134112000D01*
X64770000Y-134112000D02*
X64770000Y-125222000D01*
%TO.N,+5V*%
X67691000Y-89946000D02*
X67691000Y-51054000D01*
X68549500Y-148336000D02*
X67691000Y-147477500D01*
X67691000Y-112649000D02*
X67691000Y-89946000D01*
X67691000Y-147477500D02*
X67691000Y-112649000D01*
X67691000Y-89946000D02*
X69736000Y-89946000D01*
%TO.N,GPS_PPS*%
X87249000Y-38862000D02*
X87299800Y-38912800D01*
X87299800Y-38912800D02*
X87299800Y-100584000D01*
%TO.N,GPS_TX*%
X76835000Y-32004000D02*
X76962000Y-32131000D01*
X76962000Y-32131000D02*
X76962000Y-98044000D01*
%TO.N,GPS_RX*%
X77622400Y-34899600D02*
X77622400Y-34544000D01*
X77622400Y-97383600D02*
X77622400Y-34899600D01*
%TO.N,SDA*%
X65786000Y-85979000D02*
X65786000Y-100965000D01*
X65786000Y-68834000D02*
X65786000Y-85979000D01*
%TO.N,RX*%
X64389000Y-106299000D02*
X64160400Y-106070400D01*
X64160400Y-106070400D02*
X64160400Y-47244000D01*
%TO.N,SCL*%
X65125600Y-66446400D02*
X65125600Y-99949000D01*
X65151000Y-66421000D02*
X65125600Y-66446400D01*
%TO.N,TX*%
X65024000Y-44704000D02*
X63500000Y-46228000D01*
X63500000Y-46228000D02*
X63500000Y-106426000D01*
%TD*%
%TA.AperFunction,Conductor*%
%TO.N,+3V3*%
G36*
X101603032Y-30861648D02*
G01*
X101929970Y-30877710D01*
X101942078Y-30878902D01*
X102262851Y-30926485D01*
X102274765Y-30928855D01*
X102589339Y-31007651D01*
X102600966Y-31011178D01*
X102906309Y-31120432D01*
X102917521Y-31125076D01*
X103210694Y-31263736D01*
X103221402Y-31269460D01*
X103499556Y-31436179D01*
X103509648Y-31442922D01*
X103770142Y-31636118D01*
X103779522Y-31643817D01*
X104019810Y-31861600D01*
X104028399Y-31870189D01*
X104238392Y-32101882D01*
X104246177Y-32110471D01*
X104253883Y-32119860D01*
X104447074Y-32380346D01*
X104453823Y-32390448D01*
X104600149Y-32634579D01*
X104620532Y-32668585D01*
X104626269Y-32679317D01*
X104764920Y-32972471D01*
X104769571Y-32983700D01*
X104878816Y-33289018D01*
X104882348Y-33300662D01*
X104961141Y-33615221D01*
X104963515Y-33627156D01*
X105011096Y-33947919D01*
X105012289Y-33960030D01*
X105028350Y-34286965D01*
X105028499Y-34293049D01*
X105028499Y-168906947D01*
X105028350Y-168913032D01*
X105012288Y-169239968D01*
X105011095Y-169252078D01*
X104963514Y-169572842D01*
X104961140Y-169584777D01*
X104882347Y-169899336D01*
X104878815Y-169910980D01*
X104769573Y-170216291D01*
X104764919Y-170227527D01*
X104626268Y-170520681D01*
X104620531Y-170531413D01*
X104453827Y-170809542D01*
X104447067Y-170819660D01*
X104253891Y-171080128D01*
X104246171Y-171089534D01*
X104028406Y-171329801D01*
X104019801Y-171338406D01*
X103779534Y-171556171D01*
X103770128Y-171563891D01*
X103509660Y-171757067D01*
X103499542Y-171763827D01*
X103221413Y-171930531D01*
X103210681Y-171936268D01*
X102917527Y-172074919D01*
X102906291Y-172079573D01*
X102756146Y-172133296D01*
X102600980Y-172188815D01*
X102589336Y-172192347D01*
X102274777Y-172271140D01*
X102262842Y-172273514D01*
X101942078Y-172321095D01*
X101929968Y-172322288D01*
X101621240Y-172337455D01*
X101603031Y-172338350D01*
X101596948Y-172338499D01*
X84572289Y-172338499D01*
X84505250Y-172318814D01*
X84459495Y-172266010D01*
X84449551Y-172196852D01*
X84478576Y-172133296D01*
X84510290Y-172107112D01*
X84596679Y-172057235D01*
X84596681Y-172057234D01*
X84754325Y-171936269D01*
X84794436Y-171905491D01*
X84970691Y-171729236D01*
X85122432Y-171531484D01*
X85247063Y-171315616D01*
X85342451Y-171085329D01*
X85406965Y-170844560D01*
X85439500Y-170597431D01*
X85439500Y-170348169D01*
X85406965Y-170101040D01*
X85342451Y-169860271D01*
X85247063Y-169629984D01*
X85220963Y-169584778D01*
X85122432Y-169414116D01*
X84970692Y-169216365D01*
X84970686Y-169216358D01*
X84794441Y-169040113D01*
X84794434Y-169040107D01*
X84624882Y-168910005D01*
X99181728Y-168910005D01*
X99200795Y-169213079D01*
X99200796Y-169213086D01*
X99257703Y-169511404D01*
X99351548Y-169800226D01*
X99351550Y-169800231D01*
X99480850Y-170075007D01*
X99480856Y-170075018D01*
X99643575Y-170331423D01*
X99643578Y-170331427D01*
X99837152Y-170565417D01*
X99837154Y-170565419D01*
X100058533Y-170773309D01*
X100058543Y-170773317D01*
X100304213Y-170951807D01*
X100304219Y-170951810D01*
X100304225Y-170951815D01*
X100570350Y-171098118D01*
X100570351Y-171098118D01*
X100570356Y-171098121D01*
X100570359Y-171098122D01*
X100840125Y-171204929D01*
X100852713Y-171209913D01*
X101146861Y-171285438D01*
X101210066Y-171293422D01*
X101448143Y-171323499D01*
X101448152Y-171323499D01*
X101448155Y-171323500D01*
X101448157Y-171323500D01*
X101751843Y-171323500D01*
X101751845Y-171323500D01*
X101751848Y-171323499D01*
X101751856Y-171323499D01*
X101931639Y-171300786D01*
X102053139Y-171285438D01*
X102347287Y-171209913D01*
X102629640Y-171098122D01*
X102629643Y-171098121D01*
X102629644Y-171098120D01*
X102629650Y-171098118D01*
X102895775Y-170951815D01*
X103141465Y-170773311D01*
X103362844Y-170565421D01*
X103556423Y-170331425D01*
X103719148Y-170075011D01*
X103848452Y-169800225D01*
X103942298Y-169511400D01*
X103999203Y-169213090D01*
X104010086Y-169040109D01*
X104018272Y-168910005D01*
X104018272Y-168909994D01*
X103999204Y-168606920D01*
X103999203Y-168606913D01*
X103999203Y-168606910D01*
X103942298Y-168308600D01*
X103848452Y-168019775D01*
X103719148Y-167744989D01*
X103556423Y-167488575D01*
X103556421Y-167488572D01*
X103362847Y-167254582D01*
X103362845Y-167254580D01*
X103141466Y-167046690D01*
X103141456Y-167046682D01*
X102895786Y-166868192D01*
X102895768Y-166868181D01*
X102629643Y-166721878D01*
X102629640Y-166721877D01*
X102347291Y-166610088D01*
X102319270Y-166602893D01*
X102053139Y-166534562D01*
X102053136Y-166534561D01*
X102053129Y-166534560D01*
X101751856Y-166496500D01*
X101751845Y-166496500D01*
X101448155Y-166496500D01*
X101448143Y-166496500D01*
X101146870Y-166534560D01*
X101146861Y-166534562D01*
X100852708Y-166610088D01*
X100570359Y-166721877D01*
X100570356Y-166721878D01*
X100304231Y-166868181D01*
X100304213Y-166868192D01*
X100058543Y-167046682D01*
X100058533Y-167046690D01*
X99837154Y-167254580D01*
X99837152Y-167254582D01*
X99643578Y-167488572D01*
X99643575Y-167488576D01*
X99480856Y-167744981D01*
X99480850Y-167744992D01*
X99351550Y-168019768D01*
X99351548Y-168019773D01*
X99257703Y-168308595D01*
X99200796Y-168606913D01*
X99200795Y-168606920D01*
X99181728Y-168909994D01*
X99181728Y-168910005D01*
X84624882Y-168910005D01*
X84596683Y-168888367D01*
X84380819Y-168763738D01*
X84380804Y-168763731D01*
X84150529Y-168668349D01*
X83909756Y-168603834D01*
X83662641Y-168571301D01*
X83662636Y-168571300D01*
X83662631Y-168571300D01*
X83413369Y-168571300D01*
X83413363Y-168571300D01*
X83413358Y-168571301D01*
X83166243Y-168603834D01*
X82925470Y-168668349D01*
X82695195Y-168763731D01*
X82695180Y-168763738D01*
X82479316Y-168888367D01*
X82281565Y-169040107D01*
X82281558Y-169040113D01*
X82105313Y-169216358D01*
X82105307Y-169216365D01*
X81953567Y-169414116D01*
X81828938Y-169629980D01*
X81828931Y-169629995D01*
X81733549Y-169860270D01*
X81669034Y-170101043D01*
X81642939Y-170299258D01*
X81614673Y-170363155D01*
X81556348Y-170401626D01*
X81486483Y-170402457D01*
X81427260Y-170365385D01*
X81397481Y-170302179D01*
X81397061Y-170299258D01*
X81370965Y-170101043D01*
X81370965Y-170101040D01*
X81306451Y-169860271D01*
X81211063Y-169629984D01*
X81184963Y-169584778D01*
X81086432Y-169414116D01*
X80934692Y-169216365D01*
X80934686Y-169216358D01*
X80758441Y-169040113D01*
X80758434Y-169040107D01*
X80560683Y-168888367D01*
X80344819Y-168763738D01*
X80344804Y-168763731D01*
X80114529Y-168668349D01*
X79873756Y-168603834D01*
X79626641Y-168571301D01*
X79626636Y-168571300D01*
X79626631Y-168571300D01*
X79377369Y-168571300D01*
X79377363Y-168571300D01*
X79377358Y-168571301D01*
X79130243Y-168603834D01*
X78889470Y-168668349D01*
X78659195Y-168763731D01*
X78659180Y-168763738D01*
X78443316Y-168888367D01*
X78245565Y-169040107D01*
X78245558Y-169040113D01*
X78069313Y-169216358D01*
X78069307Y-169216365D01*
X77917567Y-169414116D01*
X77792938Y-169629980D01*
X77792931Y-169629995D01*
X77697549Y-169860270D01*
X77633034Y-170101043D01*
X77600501Y-170348158D01*
X77600500Y-170348175D01*
X77600500Y-170597424D01*
X77600501Y-170597441D01*
X77633034Y-170844556D01*
X77697549Y-171085329D01*
X77792931Y-171315604D01*
X77792938Y-171315619D01*
X77917567Y-171531483D01*
X78069307Y-171729234D01*
X78069313Y-171729241D01*
X78245558Y-171905486D01*
X78245565Y-171905492D01*
X78443318Y-172057234D01*
X78443320Y-172057235D01*
X78529710Y-172107112D01*
X78577926Y-172157678D01*
X78591150Y-172226285D01*
X78565182Y-172291150D01*
X78508268Y-172331679D01*
X78467711Y-172338499D01*
X76317289Y-172338499D01*
X76250250Y-172318814D01*
X76204495Y-172266010D01*
X76194551Y-172196852D01*
X76223576Y-172133296D01*
X76255290Y-172107112D01*
X76341679Y-172057235D01*
X76341681Y-172057234D01*
X76499325Y-171936269D01*
X76539436Y-171905491D01*
X76715691Y-171729236D01*
X76867432Y-171531484D01*
X76992063Y-171315616D01*
X77087451Y-171085329D01*
X77151965Y-170844560D01*
X77184500Y-170597431D01*
X77184500Y-170348169D01*
X77151965Y-170101040D01*
X77087451Y-169860271D01*
X76992063Y-169629984D01*
X76965963Y-169584778D01*
X76867432Y-169414116D01*
X76715692Y-169216365D01*
X76715686Y-169216358D01*
X76539441Y-169040113D01*
X76539434Y-169040107D01*
X76341683Y-168888367D01*
X76125819Y-168763738D01*
X76125804Y-168763731D01*
X75895529Y-168668349D01*
X75654756Y-168603834D01*
X75407641Y-168571301D01*
X75407636Y-168571300D01*
X75407631Y-168571300D01*
X75158369Y-168571300D01*
X75158363Y-168571300D01*
X75158358Y-168571301D01*
X74911243Y-168603834D01*
X74670470Y-168668349D01*
X74440195Y-168763731D01*
X74440180Y-168763738D01*
X74224316Y-168888367D01*
X74026565Y-169040107D01*
X74026558Y-169040113D01*
X73850313Y-169216358D01*
X73850307Y-169216365D01*
X73698567Y-169414116D01*
X73573938Y-169629980D01*
X73573931Y-169629995D01*
X73478549Y-169860270D01*
X73414034Y-170101043D01*
X73387939Y-170299258D01*
X73359673Y-170363155D01*
X73301348Y-170401626D01*
X73231483Y-170402457D01*
X73172260Y-170365385D01*
X73142481Y-170302179D01*
X73142061Y-170299258D01*
X73115965Y-170101043D01*
X73115965Y-170101040D01*
X73051451Y-169860271D01*
X72956063Y-169629984D01*
X72929963Y-169584778D01*
X72831432Y-169414116D01*
X72679692Y-169216365D01*
X72679686Y-169216358D01*
X72503441Y-169040113D01*
X72503434Y-169040107D01*
X72305683Y-168888367D01*
X72089819Y-168763738D01*
X72089804Y-168763731D01*
X71859529Y-168668349D01*
X71618756Y-168603834D01*
X71371641Y-168571301D01*
X71371636Y-168571300D01*
X71371631Y-168571300D01*
X71122369Y-168571300D01*
X71122363Y-168571300D01*
X71122358Y-168571301D01*
X70875243Y-168603834D01*
X70634470Y-168668349D01*
X70404195Y-168763731D01*
X70404180Y-168763738D01*
X70188316Y-168888367D01*
X69990565Y-169040107D01*
X69990558Y-169040113D01*
X69814313Y-169216358D01*
X69814307Y-169216365D01*
X69662567Y-169414116D01*
X69537938Y-169629980D01*
X69537931Y-169629995D01*
X69442549Y-169860270D01*
X69378034Y-170101043D01*
X69345501Y-170348158D01*
X69345500Y-170348175D01*
X69345500Y-170597424D01*
X69345501Y-170597441D01*
X69378034Y-170844556D01*
X69442549Y-171085329D01*
X69537931Y-171315604D01*
X69537938Y-171315619D01*
X69662567Y-171531483D01*
X69814307Y-171729234D01*
X69814313Y-171729241D01*
X69990558Y-171905486D01*
X69990565Y-171905492D01*
X70188318Y-172057234D01*
X70188320Y-172057235D01*
X70274710Y-172107112D01*
X70322926Y-172157678D01*
X70336150Y-172226285D01*
X70310182Y-172291150D01*
X70253268Y-172331679D01*
X70212711Y-172338499D01*
X66043050Y-172338499D01*
X66036966Y-172338350D01*
X65710030Y-172322289D01*
X65697919Y-172321096D01*
X65377156Y-172273515D01*
X65365221Y-172271141D01*
X65050662Y-172192348D01*
X65039018Y-172188816D01*
X64733700Y-172079571D01*
X64722471Y-172074920D01*
X64429317Y-171936269D01*
X64418590Y-171930534D01*
X64140448Y-171763823D01*
X64130346Y-171757074D01*
X63869860Y-171563883D01*
X63860471Y-171556177D01*
X63620189Y-171338399D01*
X63611600Y-171329810D01*
X63393817Y-171089522D01*
X63386118Y-171080142D01*
X63192922Y-170819648D01*
X63186175Y-170809550D01*
X63019460Y-170531402D01*
X63013736Y-170520694D01*
X62875076Y-170227521D01*
X62870432Y-170216309D01*
X62761178Y-169910966D01*
X62757651Y-169899337D01*
X62750470Y-169870670D01*
X62678855Y-169584765D01*
X62676484Y-169572843D01*
X62667370Y-169511404D01*
X62628902Y-169252078D01*
X62627710Y-169239968D01*
X62626550Y-169216365D01*
X62611649Y-168913032D01*
X62611575Y-168910005D01*
X63621728Y-168910005D01*
X63640795Y-169213079D01*
X63640796Y-169213086D01*
X63697703Y-169511404D01*
X63791548Y-169800226D01*
X63791550Y-169800231D01*
X63920850Y-170075007D01*
X63920856Y-170075018D01*
X64083575Y-170331423D01*
X64083578Y-170331427D01*
X64277152Y-170565417D01*
X64277154Y-170565419D01*
X64498533Y-170773309D01*
X64498543Y-170773317D01*
X64744213Y-170951807D01*
X64744219Y-170951810D01*
X64744225Y-170951815D01*
X65010350Y-171098118D01*
X65010351Y-171098118D01*
X65010356Y-171098121D01*
X65010359Y-171098122D01*
X65280125Y-171204929D01*
X65292713Y-171209913D01*
X65586861Y-171285438D01*
X65650066Y-171293422D01*
X65888143Y-171323499D01*
X65888152Y-171323499D01*
X65888155Y-171323500D01*
X65888157Y-171323500D01*
X66191843Y-171323500D01*
X66191845Y-171323500D01*
X66191848Y-171323499D01*
X66191856Y-171323499D01*
X66371639Y-171300786D01*
X66493139Y-171285438D01*
X66787287Y-171209913D01*
X67069640Y-171098122D01*
X67069643Y-171098121D01*
X67069644Y-171098120D01*
X67069650Y-171098118D01*
X67335775Y-170951815D01*
X67581465Y-170773311D01*
X67802844Y-170565421D01*
X67996423Y-170331425D01*
X68159148Y-170075011D01*
X68288452Y-169800225D01*
X68382298Y-169511400D01*
X68439203Y-169213090D01*
X68450086Y-169040109D01*
X68458272Y-168910005D01*
X68458272Y-168909994D01*
X68439204Y-168606920D01*
X68439203Y-168606913D01*
X68439203Y-168606910D01*
X68382298Y-168308600D01*
X68288452Y-168019775D01*
X68159148Y-167744989D01*
X67996423Y-167488575D01*
X67996421Y-167488572D01*
X67802847Y-167254582D01*
X67802845Y-167254580D01*
X67581466Y-167046690D01*
X67581456Y-167046682D01*
X67335786Y-166868192D01*
X67335768Y-166868181D01*
X67069643Y-166721878D01*
X67069640Y-166721877D01*
X66787291Y-166610088D01*
X66759270Y-166602893D01*
X66493139Y-166534562D01*
X66493136Y-166534561D01*
X66493129Y-166534560D01*
X66191856Y-166496500D01*
X66191845Y-166496500D01*
X65888155Y-166496500D01*
X65888143Y-166496500D01*
X65586870Y-166534560D01*
X65586861Y-166534562D01*
X65292708Y-166610088D01*
X65010359Y-166721877D01*
X65010356Y-166721878D01*
X64744231Y-166868181D01*
X64744213Y-166868192D01*
X64498543Y-167046682D01*
X64498533Y-167046690D01*
X64277154Y-167254580D01*
X64277152Y-167254582D01*
X64083578Y-167488572D01*
X64083575Y-167488576D01*
X63920856Y-167744981D01*
X63920850Y-167744992D01*
X63791550Y-168019768D01*
X63791548Y-168019773D01*
X63697703Y-168308595D01*
X63640796Y-168606913D01*
X63640795Y-168606920D01*
X63621728Y-168909994D01*
X63621728Y-168910005D01*
X62611575Y-168910005D01*
X62611500Y-168906948D01*
X62611500Y-160772804D01*
X69463513Y-160772804D01*
X69483432Y-161038612D01*
X69483433Y-161038615D01*
X69542748Y-161298492D01*
X69640134Y-161546626D01*
X69773414Y-161777474D01*
X69888741Y-161922089D01*
X69939615Y-161985883D01*
X70124074Y-162157035D01*
X70135014Y-162167186D01*
X70355257Y-162317345D01*
X70595415Y-162432999D01*
X70595416Y-162432999D01*
X70595419Y-162433001D01*
X70850137Y-162511571D01*
X71113720Y-162551300D01*
X71113721Y-162551300D01*
X71380279Y-162551300D01*
X71380280Y-162551300D01*
X71643863Y-162511571D01*
X71898581Y-162433001D01*
X72138744Y-162317345D01*
X72358986Y-162167186D01*
X72554388Y-161985879D01*
X72713726Y-161786076D01*
X73504500Y-161786076D01*
X73519824Y-161922089D01*
X73542146Y-161985879D01*
X73580169Y-162094541D01*
X73677372Y-162249239D01*
X73806561Y-162378428D01*
X73961259Y-162475631D01*
X74133707Y-162535974D01*
X74133710Y-162535975D01*
X74236813Y-162547591D01*
X74269724Y-162551299D01*
X74269727Y-162551300D01*
X74269730Y-162551300D01*
X76296273Y-162551300D01*
X76296274Y-162551299D01*
X76346733Y-162545614D01*
X76432289Y-162535975D01*
X76432291Y-162535974D01*
X76432293Y-162535974D01*
X76604741Y-162475631D01*
X76759439Y-162378428D01*
X76888628Y-162249239D01*
X76985831Y-162094541D01*
X77046174Y-161922093D01*
X77046174Y-161922091D01*
X77046175Y-161922089D01*
X77061499Y-161786076D01*
X77061500Y-161786072D01*
X77061500Y-160772804D01*
X77718513Y-160772804D01*
X77738432Y-161038612D01*
X77738433Y-161038615D01*
X77797748Y-161298492D01*
X77895134Y-161546626D01*
X78028414Y-161777474D01*
X78143741Y-161922089D01*
X78194615Y-161985883D01*
X78379074Y-162157035D01*
X78390014Y-162167186D01*
X78610257Y-162317345D01*
X78850415Y-162432999D01*
X78850416Y-162432999D01*
X78850419Y-162433001D01*
X79105137Y-162511571D01*
X79368720Y-162551300D01*
X79368721Y-162551300D01*
X79635279Y-162551300D01*
X79635280Y-162551300D01*
X79898863Y-162511571D01*
X80153581Y-162433001D01*
X80393744Y-162317345D01*
X80613986Y-162167186D01*
X80809388Y-161985879D01*
X80968726Y-161786076D01*
X81759500Y-161786076D01*
X81774824Y-161922089D01*
X81797146Y-161985879D01*
X81835169Y-162094541D01*
X81932372Y-162249239D01*
X82061561Y-162378428D01*
X82216259Y-162475631D01*
X82388707Y-162535974D01*
X82388710Y-162535975D01*
X82491813Y-162547591D01*
X82524724Y-162551299D01*
X82524727Y-162551300D01*
X82524730Y-162551300D01*
X84551273Y-162551300D01*
X84551274Y-162551299D01*
X84601733Y-162545614D01*
X84687289Y-162535975D01*
X84687291Y-162535974D01*
X84687293Y-162535974D01*
X84859741Y-162475631D01*
X85014439Y-162378428D01*
X85143628Y-162249239D01*
X85240831Y-162094541D01*
X85301174Y-161922093D01*
X85301174Y-161922091D01*
X85301175Y-161922089D01*
X85316499Y-161786076D01*
X85316500Y-161786072D01*
X85316500Y-159759527D01*
X85316499Y-159759523D01*
X85301175Y-159623510D01*
X85240831Y-159451060D01*
X85240829Y-159451056D01*
X85143627Y-159296360D01*
X85014439Y-159167172D01*
X84859743Y-159069970D01*
X84859739Y-159069968D01*
X84687289Y-159009624D01*
X84551276Y-158994300D01*
X84551270Y-158994300D01*
X82524730Y-158994300D01*
X82524723Y-158994300D01*
X82388710Y-159009624D01*
X82216260Y-159069968D01*
X82216256Y-159069970D01*
X82061560Y-159167172D01*
X81932372Y-159296360D01*
X81835170Y-159451056D01*
X81835168Y-159451060D01*
X81774824Y-159623510D01*
X81759500Y-159759523D01*
X81759500Y-161786076D01*
X80968726Y-161786076D01*
X80975586Y-161777474D01*
X81108866Y-161546626D01*
X81206252Y-161298492D01*
X81265567Y-161038615D01*
X81285487Y-160772800D01*
X81265567Y-160506985D01*
X81206252Y-160247108D01*
X81108866Y-159998974D01*
X80975586Y-159768126D01*
X80809388Y-159559721D01*
X80809387Y-159559720D01*
X80809384Y-159559716D01*
X80613986Y-159378414D01*
X80393744Y-159228255D01*
X80393740Y-159228253D01*
X80393737Y-159228251D01*
X80393736Y-159228250D01*
X80153583Y-159112600D01*
X80153585Y-159112600D01*
X79898871Y-159034031D01*
X79898867Y-159034030D01*
X79898863Y-159034029D01*
X79772074Y-159014918D01*
X79635285Y-158994300D01*
X79635280Y-158994300D01*
X79368720Y-158994300D01*
X79368714Y-158994300D01*
X79204566Y-159019042D01*
X79105137Y-159034029D01*
X79105134Y-159034030D01*
X79105128Y-159034031D01*
X78850415Y-159112600D01*
X78610265Y-159228250D01*
X78610263Y-159228251D01*
X78390013Y-159378414D01*
X78194615Y-159559716D01*
X78028414Y-159768126D01*
X77895134Y-159998973D01*
X77797750Y-160247102D01*
X77797745Y-160247119D01*
X77738432Y-160506987D01*
X77718513Y-160772795D01*
X77718513Y-160772804D01*
X77061500Y-160772804D01*
X77061500Y-159759527D01*
X77061499Y-159759523D01*
X77046175Y-159623510D01*
X76985831Y-159451060D01*
X76985829Y-159451056D01*
X76888627Y-159296360D01*
X76759439Y-159167172D01*
X76604743Y-159069970D01*
X76604739Y-159069968D01*
X76432289Y-159009624D01*
X76296276Y-158994300D01*
X76296270Y-158994300D01*
X74269730Y-158994300D01*
X74269723Y-158994300D01*
X74133710Y-159009624D01*
X73961260Y-159069968D01*
X73961256Y-159069970D01*
X73806560Y-159167172D01*
X73677372Y-159296360D01*
X73580170Y-159451056D01*
X73580168Y-159451060D01*
X73519824Y-159623510D01*
X73504500Y-159759523D01*
X73504500Y-161786076D01*
X72713726Y-161786076D01*
X72720586Y-161777474D01*
X72853866Y-161546626D01*
X72951252Y-161298492D01*
X73010567Y-161038615D01*
X73030487Y-160772800D01*
X73010567Y-160506985D01*
X72951252Y-160247108D01*
X72853866Y-159998974D01*
X72720586Y-159768126D01*
X72554388Y-159559721D01*
X72554387Y-159559720D01*
X72554384Y-159559716D01*
X72358986Y-159378414D01*
X72138744Y-159228255D01*
X72138740Y-159228253D01*
X72138737Y-159228251D01*
X72138736Y-159228250D01*
X71898583Y-159112600D01*
X71898585Y-159112600D01*
X71643871Y-159034031D01*
X71643867Y-159034030D01*
X71643863Y-159034029D01*
X71517074Y-159014918D01*
X71380285Y-158994300D01*
X71380280Y-158994300D01*
X71113720Y-158994300D01*
X71113714Y-158994300D01*
X70949566Y-159019042D01*
X70850137Y-159034029D01*
X70850134Y-159034030D01*
X70850128Y-159034031D01*
X70595415Y-159112600D01*
X70355265Y-159228250D01*
X70355263Y-159228251D01*
X70135013Y-159378414D01*
X69939615Y-159559716D01*
X69773414Y-159768126D01*
X69640134Y-159998973D01*
X69542750Y-160247102D01*
X69542745Y-160247119D01*
X69483432Y-160506987D01*
X69463513Y-160772795D01*
X69463513Y-160772804D01*
X62611500Y-160772804D01*
X62611500Y-117000000D01*
X63732675Y-117000000D01*
X63736721Y-117035908D01*
X63737501Y-117049793D01*
X63737501Y-117075098D01*
X63744869Y-117112143D01*
X63746471Y-117122450D01*
X63751911Y-117170742D01*
X63759725Y-117193072D01*
X63764300Y-117209831D01*
X63766802Y-117222410D01*
X63766803Y-117222413D01*
X63786019Y-117268804D01*
X63788490Y-117275278D01*
X63808664Y-117332930D01*
X63814593Y-117342366D01*
X63824156Y-117360876D01*
X63824282Y-117361179D01*
X63859101Y-117413291D01*
X63860977Y-117416186D01*
X63900077Y-117478414D01*
X63900079Y-117478417D01*
X63971181Y-117549519D01*
X64004666Y-117610842D01*
X64007500Y-117637200D01*
X64007500Y-125172214D01*
X64006720Y-125186098D01*
X64002675Y-125221998D01*
X64002675Y-125222001D01*
X64006720Y-125257899D01*
X64007500Y-125271784D01*
X64007500Y-134570214D01*
X64006720Y-134584098D01*
X64002675Y-134619998D01*
X64002675Y-134620001D01*
X64006720Y-134655899D01*
X64007500Y-134669784D01*
X64007500Y-134695101D01*
X64014868Y-134732140D01*
X64016471Y-134742450D01*
X64021911Y-134790739D01*
X64021912Y-134790742D01*
X64029725Y-134813072D01*
X64034297Y-134829823D01*
X64036801Y-134842407D01*
X64036803Y-134842414D01*
X64056019Y-134888805D01*
X64058500Y-134895304D01*
X64078663Y-134952929D01*
X64078664Y-134952930D01*
X64084590Y-134962362D01*
X64084595Y-134962369D01*
X64094156Y-134980874D01*
X64094283Y-134981181D01*
X64094283Y-134981182D01*
X64129074Y-135033249D01*
X64130966Y-135036168D01*
X64170081Y-135098419D01*
X64291580Y-135219918D01*
X64291583Y-135219920D01*
X64353814Y-135259022D01*
X64356724Y-135260908D01*
X64408821Y-135295718D01*
X64409116Y-135295840D01*
X64427628Y-135305403D01*
X64437070Y-135311336D01*
X64437072Y-135311337D01*
X64475296Y-135324711D01*
X64494701Y-135331501D01*
X64501198Y-135333982D01*
X64547578Y-135353194D01*
X64547582Y-135353195D01*
X64547587Y-135353197D01*
X64560174Y-135355700D01*
X64576917Y-135360271D01*
X64599254Y-135368087D01*
X64647559Y-135373528D01*
X64657840Y-135375127D01*
X64694900Y-135382500D01*
X64720215Y-135382500D01*
X64734099Y-135383280D01*
X64769998Y-135387325D01*
X64770000Y-135387325D01*
X64770002Y-135387325D01*
X64805901Y-135383280D01*
X64819785Y-135382500D01*
X64845103Y-135382500D01*
X64874642Y-135376622D01*
X64882139Y-135375131D01*
X64892439Y-135373528D01*
X64940746Y-135368087D01*
X64963080Y-135360271D01*
X64979831Y-135355699D01*
X64992413Y-135353197D01*
X65038825Y-135333971D01*
X65045292Y-135331503D01*
X65069732Y-135322951D01*
X65102928Y-135311337D01*
X65112362Y-135305409D01*
X65130895Y-135295835D01*
X65131179Y-135295718D01*
X65183322Y-135260875D01*
X65186153Y-135259042D01*
X65248418Y-135219920D01*
X65248421Y-135219918D01*
X65369918Y-135098421D01*
X65369920Y-135098418D01*
X65409042Y-135036153D01*
X65410875Y-135033322D01*
X65445718Y-134981179D01*
X65445835Y-134980895D01*
X65455409Y-134962362D01*
X65461337Y-134952928D01*
X65481501Y-134895299D01*
X65483971Y-134888825D01*
X65503197Y-134842413D01*
X65505699Y-134829831D01*
X65510274Y-134813072D01*
X65518087Y-134790746D01*
X65523528Y-134742439D01*
X65525132Y-134732136D01*
X65532500Y-134695103D01*
X65532500Y-134669784D01*
X65533280Y-134655899D01*
X65537325Y-134620001D01*
X65537325Y-134619998D01*
X65533280Y-134584098D01*
X65532500Y-134570214D01*
X65532500Y-125271784D01*
X65533280Y-125257899D01*
X65537325Y-125222001D01*
X65537325Y-125221998D01*
X65533280Y-125186098D01*
X65532500Y-125172214D01*
X65532500Y-117194897D01*
X65503198Y-117047592D01*
X65503197Y-117047591D01*
X65503197Y-117047587D01*
X65483486Y-117000000D01*
X65445719Y-116908821D01*
X65431709Y-116887854D01*
X65362276Y-116783939D01*
X65362270Y-116783931D01*
X64986065Y-116407727D01*
X64978417Y-116400079D01*
X64978414Y-116400077D01*
X64916186Y-116360977D01*
X64913291Y-116359101D01*
X64861179Y-116324282D01*
X64860876Y-116324156D01*
X64842366Y-116314593D01*
X64832930Y-116308664D01*
X64775278Y-116288490D01*
X64768810Y-116286021D01*
X64722413Y-116266803D01*
X64722410Y-116266802D01*
X64709831Y-116264300D01*
X64693072Y-116259725D01*
X64670741Y-116251911D01*
X64670742Y-116251911D01*
X64622450Y-116246471D01*
X64612143Y-116244869D01*
X64611504Y-116244742D01*
X64575100Y-116237501D01*
X64575099Y-116237501D01*
X64549794Y-116237501D01*
X64535910Y-116236721D01*
X64500002Y-116232675D01*
X64499998Y-116232675D01*
X64464090Y-116236721D01*
X64450206Y-116237501D01*
X64424900Y-116237501D01*
X64387854Y-116244869D01*
X64377549Y-116246471D01*
X64329259Y-116251911D01*
X64329253Y-116251913D01*
X64306920Y-116259727D01*
X64290164Y-116264301D01*
X64277589Y-116266802D01*
X64277585Y-116266803D01*
X64231202Y-116286015D01*
X64224709Y-116288494D01*
X64167067Y-116308664D01*
X64157622Y-116314599D01*
X64139130Y-116324154D01*
X64138821Y-116324282D01*
X64138814Y-116324285D01*
X64086736Y-116359082D01*
X64083821Y-116360971D01*
X64021585Y-116400078D01*
X64021578Y-116400083D01*
X63900083Y-116521578D01*
X63900078Y-116521585D01*
X63860971Y-116583821D01*
X63859082Y-116586736D01*
X63824285Y-116638814D01*
X63824282Y-116638821D01*
X63824154Y-116639130D01*
X63814599Y-116657622D01*
X63808664Y-116667067D01*
X63788494Y-116724709D01*
X63786015Y-116731202D01*
X63766803Y-116777585D01*
X63766802Y-116777589D01*
X63764301Y-116790164D01*
X63759727Y-116806920D01*
X63751913Y-116829253D01*
X63751911Y-116829259D01*
X63746471Y-116877549D01*
X63744869Y-116887854D01*
X63737501Y-116924899D01*
X63737501Y-116950206D01*
X63736721Y-116964090D01*
X63732675Y-116999998D01*
X63732675Y-117000000D01*
X62611500Y-117000000D01*
X62611500Y-112649001D01*
X66923675Y-112649001D01*
X66927720Y-112684899D01*
X66928500Y-112698784D01*
X66928500Y-147552601D01*
X66957045Y-147696098D01*
X66957047Y-147696120D01*
X66957049Y-147696120D01*
X66957802Y-147699913D01*
X67015280Y-147838677D01*
X67057004Y-147901122D01*
X67098727Y-147963565D01*
X67260833Y-148125671D01*
X67294317Y-148186993D01*
X67296679Y-148224158D01*
X67286895Y-148335997D01*
X67286895Y-148336000D01*
X67306076Y-148555244D01*
X67306078Y-148555254D01*
X67363036Y-148767828D01*
X67363038Y-148767832D01*
X67363039Y-148767836D01*
X67456052Y-148967303D01*
X67456054Y-148967307D01*
X67582288Y-149147588D01*
X67737911Y-149303211D01*
X67918192Y-149429445D01*
X67918194Y-149429446D01*
X67918197Y-149429448D01*
X68055810Y-149493618D01*
X68108249Y-149539790D01*
X68127401Y-149606984D01*
X68107185Y-149673865D01*
X68055810Y-149718382D01*
X67918199Y-149782551D01*
X67918197Y-149782552D01*
X67737910Y-149908789D01*
X67582289Y-150064410D01*
X67456052Y-150244697D01*
X67456051Y-150244699D01*
X67363040Y-150444162D01*
X67363036Y-150444171D01*
X67306078Y-150656745D01*
X67306076Y-150656755D01*
X67286895Y-150875999D01*
X67286895Y-150876000D01*
X67306076Y-151095244D01*
X67306078Y-151095254D01*
X67363036Y-151307828D01*
X67363038Y-151307832D01*
X67363039Y-151307836D01*
X67456052Y-151507303D01*
X67456054Y-151507307D01*
X67582288Y-151687588D01*
X67737911Y-151843211D01*
X67918192Y-151969445D01*
X67918194Y-151969446D01*
X67918197Y-151969448D01*
X68055810Y-152033618D01*
X68108249Y-152079790D01*
X68127401Y-152146984D01*
X68107185Y-152213865D01*
X68055810Y-152258382D01*
X67918199Y-152322551D01*
X67918197Y-152322552D01*
X67737910Y-152448789D01*
X67582289Y-152604410D01*
X67456052Y-152784697D01*
X67456051Y-152784699D01*
X67363040Y-152984162D01*
X67363036Y-152984171D01*
X67306078Y-153196745D01*
X67306076Y-153196755D01*
X67286895Y-153415999D01*
X67286895Y-153416000D01*
X67306076Y-153635244D01*
X67306078Y-153635254D01*
X67363036Y-153847828D01*
X67363038Y-153847832D01*
X67363039Y-153847836D01*
X67456052Y-154047303D01*
X67456054Y-154047307D01*
X67582288Y-154227588D01*
X67737911Y-154383211D01*
X67918192Y-154509445D01*
X67918194Y-154509446D01*
X67918197Y-154509448D01*
X68117664Y-154602461D01*
X68330251Y-154659423D01*
X68505650Y-154674768D01*
X68549499Y-154678605D01*
X68549500Y-154678605D01*
X68549501Y-154678605D01*
X68586041Y-154675408D01*
X68768749Y-154659423D01*
X68981336Y-154602461D01*
X69180803Y-154509448D01*
X69361087Y-154383212D01*
X69516712Y-154227587D01*
X69642948Y-154047303D01*
X69735961Y-153847836D01*
X69792923Y-153635249D01*
X69812105Y-153416000D01*
X69792923Y-153196751D01*
X69735961Y-152984164D01*
X69642948Y-152784698D01*
X69516712Y-152604413D01*
X69516710Y-152604410D01*
X69361088Y-152448788D01*
X69180807Y-152322554D01*
X69180803Y-152322552D01*
X69180801Y-152322551D01*
X69043187Y-152258381D01*
X68990750Y-152212210D01*
X68971598Y-152145016D01*
X68991814Y-152078135D01*
X69043187Y-152033619D01*
X69180803Y-151969448D01*
X69361087Y-151843212D01*
X69516712Y-151687587D01*
X69642948Y-151507303D01*
X69735961Y-151307836D01*
X69792923Y-151095249D01*
X69812105Y-150876000D01*
X69792923Y-150656751D01*
X69735961Y-150444164D01*
X69642948Y-150244698D01*
X69516712Y-150064413D01*
X69516710Y-150064410D01*
X69361088Y-149908788D01*
X69180807Y-149782554D01*
X69180803Y-149782552D01*
X69180801Y-149782551D01*
X69043187Y-149718381D01*
X68990750Y-149672210D01*
X68971598Y-149605016D01*
X68991814Y-149538135D01*
X69043187Y-149493619D01*
X69180803Y-149429448D01*
X69361087Y-149303212D01*
X69516712Y-149147587D01*
X69642948Y-148967303D01*
X69735961Y-148767836D01*
X69792923Y-148555249D01*
X69812105Y-148336000D01*
X69792923Y-148116751D01*
X69735961Y-147904164D01*
X69642948Y-147704698D01*
X69516712Y-147524413D01*
X69516710Y-147524410D01*
X69361088Y-147368788D01*
X69180807Y-147242554D01*
X69180803Y-147242552D01*
X68981336Y-147149539D01*
X68981332Y-147149538D01*
X68981328Y-147149536D01*
X68768754Y-147092578D01*
X68768744Y-147092576D01*
X68566692Y-147074899D01*
X68501624Y-147049446D01*
X68460645Y-146992856D01*
X68453500Y-146951371D01*
X68453500Y-137539000D01*
X87382526Y-137539000D01*
X87402391Y-137791406D01*
X87461495Y-138037593D01*
X87558383Y-138271502D01*
X87690668Y-138487370D01*
X87690669Y-138487372D01*
X87690670Y-138487374D01*
X87690672Y-138487376D01*
X87855102Y-138679898D01*
X88047624Y-138844328D01*
X88047626Y-138844329D01*
X88047627Y-138844330D01*
X88047629Y-138844331D01*
X88263497Y-138976616D01*
X88497406Y-139073504D01*
X88497407Y-139073504D01*
X88497409Y-139073505D01*
X88743597Y-139132609D01*
X88996000Y-139152474D01*
X89248403Y-139132609D01*
X89494591Y-139073505D01*
X89728502Y-138976616D01*
X89944376Y-138844328D01*
X90136898Y-138679898D01*
X90301328Y-138487376D01*
X90433616Y-138271502D01*
X90530505Y-138037591D01*
X90589609Y-137791403D01*
X90609474Y-137539000D01*
X99382526Y-137539000D01*
X99402391Y-137791406D01*
X99461495Y-138037593D01*
X99558383Y-138271502D01*
X99690668Y-138487370D01*
X99690669Y-138487372D01*
X99690670Y-138487374D01*
X99690672Y-138487376D01*
X99855102Y-138679898D01*
X100047624Y-138844328D01*
X100047626Y-138844329D01*
X100047627Y-138844330D01*
X100047629Y-138844331D01*
X100263497Y-138976616D01*
X100497406Y-139073504D01*
X100497407Y-139073504D01*
X100497409Y-139073505D01*
X100743597Y-139132609D01*
X100996000Y-139152474D01*
X101248403Y-139132609D01*
X101494591Y-139073505D01*
X101728502Y-138976616D01*
X101944376Y-138844328D01*
X102136898Y-138679898D01*
X102301328Y-138487376D01*
X102433616Y-138271502D01*
X102530505Y-138037591D01*
X102589609Y-137791403D01*
X102609474Y-137539000D01*
X102589609Y-137286597D01*
X102530505Y-137040409D01*
X102433616Y-136806498D01*
X102433616Y-136806497D01*
X102301331Y-136590629D01*
X102301330Y-136590627D01*
X102301329Y-136590626D01*
X102301328Y-136590624D01*
X102136898Y-136398102D01*
X101944376Y-136233672D01*
X101944374Y-136233670D01*
X101944372Y-136233669D01*
X101944370Y-136233668D01*
X101728502Y-136101383D01*
X101494593Y-136004495D01*
X101248406Y-135945391D01*
X100996000Y-135925526D01*
X100743593Y-135945391D01*
X100497406Y-136004495D01*
X100263497Y-136101383D01*
X100047629Y-136233668D01*
X100047627Y-136233669D01*
X99855102Y-136398102D01*
X99690669Y-136590627D01*
X99690668Y-136590629D01*
X99558383Y-136806497D01*
X99461495Y-137040406D01*
X99402391Y-137286593D01*
X99382526Y-137539000D01*
X90609474Y-137539000D01*
X90589609Y-137286597D01*
X90530505Y-137040409D01*
X90433616Y-136806498D01*
X90433616Y-136806497D01*
X90301331Y-136590629D01*
X90301330Y-136590627D01*
X90301329Y-136590626D01*
X90301328Y-136590624D01*
X90136898Y-136398102D01*
X89944376Y-136233672D01*
X89944374Y-136233670D01*
X89944372Y-136233669D01*
X89944370Y-136233668D01*
X89728502Y-136101383D01*
X89494593Y-136004495D01*
X89248406Y-135945391D01*
X88996000Y-135925526D01*
X88743593Y-135945391D01*
X88497406Y-136004495D01*
X88263497Y-136101383D01*
X88047629Y-136233668D01*
X88047627Y-136233669D01*
X87855102Y-136398102D01*
X87690669Y-136590627D01*
X87690668Y-136590629D01*
X87558383Y-136806497D01*
X87461495Y-137040406D01*
X87402391Y-137286593D01*
X87382526Y-137539000D01*
X68453500Y-137539000D01*
X68453500Y-128900384D01*
X96379500Y-128900384D01*
X96409300Y-129050197D01*
X96409302Y-129050205D01*
X96467759Y-129191334D01*
X96467764Y-129191343D01*
X96552629Y-129318351D01*
X96552632Y-129318355D01*
X96660644Y-129426367D01*
X96660648Y-129426370D01*
X96787656Y-129511235D01*
X96787662Y-129511238D01*
X96787663Y-129511239D01*
X96928795Y-129569698D01*
X97078615Y-129599499D01*
X97078619Y-129599500D01*
X97078620Y-129599500D01*
X97231381Y-129599500D01*
X97231382Y-129599499D01*
X97381205Y-129569698D01*
X97522337Y-129511239D01*
X97649352Y-129426370D01*
X97757370Y-129318352D01*
X97842239Y-129191337D01*
X97900698Y-129050205D01*
X97930500Y-128900380D01*
X97930500Y-128747620D01*
X97900698Y-128597795D01*
X97842239Y-128456663D01*
X97842238Y-128456662D01*
X97842235Y-128456656D01*
X97757370Y-128329648D01*
X97757367Y-128329644D01*
X97649355Y-128221632D01*
X97649351Y-128221629D01*
X97522343Y-128136764D01*
X97522334Y-128136759D01*
X97381205Y-128078302D01*
X97381197Y-128078300D01*
X97231384Y-128048500D01*
X97231380Y-128048500D01*
X97078620Y-128048500D01*
X97078615Y-128048500D01*
X96928802Y-128078300D01*
X96928794Y-128078302D01*
X96787665Y-128136759D01*
X96787656Y-128136764D01*
X96660648Y-128221629D01*
X96660644Y-128221632D01*
X96552632Y-128329644D01*
X96552629Y-128329648D01*
X96467764Y-128456656D01*
X96467759Y-128456665D01*
X96409302Y-128597794D01*
X96409300Y-128597802D01*
X96379500Y-128747615D01*
X96379500Y-128900384D01*
X68453500Y-128900384D01*
X68453500Y-121462695D01*
X96254500Y-121462695D01*
X96289103Y-121636658D01*
X96289106Y-121636667D01*
X96356983Y-121800540D01*
X96356990Y-121800553D01*
X96455535Y-121948034D01*
X96455538Y-121948038D01*
X96580961Y-122073461D01*
X96580965Y-122073464D01*
X96728446Y-122172009D01*
X96728459Y-122172016D01*
X96851363Y-122222923D01*
X96892334Y-122239894D01*
X96892336Y-122239894D01*
X96892341Y-122239896D01*
X97066304Y-122274499D01*
X97066307Y-122274500D01*
X97066309Y-122274500D01*
X97243693Y-122274500D01*
X97243694Y-122274499D01*
X97301682Y-122262964D01*
X97417658Y-122239896D01*
X97417661Y-122239894D01*
X97417666Y-122239894D01*
X97581547Y-122172013D01*
X97729035Y-122073464D01*
X97854464Y-121948035D01*
X97953013Y-121800547D01*
X98020894Y-121636666D01*
X98055500Y-121462691D01*
X98055500Y-121285309D01*
X98055500Y-121285306D01*
X98055499Y-121285304D01*
X98020896Y-121111341D01*
X98020893Y-121111332D01*
X97953016Y-120947459D01*
X97953009Y-120947446D01*
X97854464Y-120799965D01*
X97854461Y-120799961D01*
X97729038Y-120674538D01*
X97729034Y-120674535D01*
X97581553Y-120575990D01*
X97581540Y-120575983D01*
X97417667Y-120508106D01*
X97417658Y-120508103D01*
X97243694Y-120473500D01*
X97243691Y-120473500D01*
X97066309Y-120473500D01*
X97066306Y-120473500D01*
X96892341Y-120508103D01*
X96892332Y-120508106D01*
X96728459Y-120575983D01*
X96728446Y-120575990D01*
X96580965Y-120674535D01*
X96580961Y-120674538D01*
X96455538Y-120799961D01*
X96455535Y-120799965D01*
X96356990Y-120947446D01*
X96356983Y-120947459D01*
X96289106Y-121111332D01*
X96289103Y-121111341D01*
X96254500Y-121285304D01*
X96254500Y-121462695D01*
X68453500Y-121462695D01*
X68453500Y-112698784D01*
X68454280Y-112684899D01*
X68458325Y-112649001D01*
X68458325Y-112648998D01*
X68454280Y-112613098D01*
X68453500Y-112599214D01*
X68453500Y-93416431D01*
X68473185Y-93349392D01*
X68525989Y-93303637D01*
X68595147Y-93293693D01*
X68658703Y-93322718D01*
X68668727Y-93332446D01*
X68812760Y-93488906D01*
X68990424Y-93627189D01*
X68990425Y-93627189D01*
X68990427Y-93627191D01*
X69117135Y-93695761D01*
X69188426Y-93734342D01*
X69401365Y-93807444D01*
X69623431Y-93844500D01*
X69848569Y-93844500D01*
X70070635Y-93807444D01*
X70283574Y-93734342D01*
X70481576Y-93627189D01*
X70659240Y-93488906D01*
X70811722Y-93323268D01*
X70934860Y-93134791D01*
X71025296Y-92928616D01*
X71080564Y-92710368D01*
X71099156Y-92486000D01*
X71080564Y-92261632D01*
X71025296Y-92043384D01*
X70934860Y-91837209D01*
X70811722Y-91648732D01*
X70811719Y-91648729D01*
X70811715Y-91648723D01*
X70659243Y-91483097D01*
X70659238Y-91483092D01*
X70481577Y-91344812D01*
X70481578Y-91344812D01*
X70481576Y-91344811D01*
X70445070Y-91325055D01*
X70395479Y-91275836D01*
X70380371Y-91207619D01*
X70404541Y-91142064D01*
X70445070Y-91106945D01*
X70445084Y-91106936D01*
X70481576Y-91087189D01*
X70659240Y-90948906D01*
X70811722Y-90783268D01*
X70934860Y-90594791D01*
X71025296Y-90388616D01*
X71080564Y-90170368D01*
X71099156Y-89946000D01*
X71080564Y-89721632D01*
X71025296Y-89503384D01*
X70934860Y-89297209D01*
X70811722Y-89108732D01*
X70811719Y-89108729D01*
X70811715Y-89108723D01*
X70666510Y-88950991D01*
X70635587Y-88888337D01*
X70643447Y-88818911D01*
X70687594Y-88764755D01*
X70714405Y-88750827D01*
X70794584Y-88720920D01*
X70832204Y-88706889D01*
X70949261Y-88619261D01*
X71036889Y-88502204D01*
X71087989Y-88365201D01*
X71091591Y-88331692D01*
X71094499Y-88304654D01*
X71094500Y-88304637D01*
X71094500Y-86507362D01*
X71094499Y-86507345D01*
X71091157Y-86476270D01*
X71087989Y-86446799D01*
X71036889Y-86309796D01*
X70949261Y-86192739D01*
X70832204Y-86105111D01*
X70810745Y-86097107D01*
X70695203Y-86054011D01*
X70634654Y-86047500D01*
X70634638Y-86047500D01*
X68837362Y-86047500D01*
X68837345Y-86047500D01*
X68776797Y-86054011D01*
X68776795Y-86054011D01*
X68639790Y-86105113D01*
X68636919Y-86106681D01*
X68633725Y-86107375D01*
X68631488Y-86108210D01*
X68631367Y-86107888D01*
X68568645Y-86121528D01*
X68503183Y-86097107D01*
X68461315Y-86041170D01*
X68453500Y-85997845D01*
X68453500Y-51103784D01*
X68454280Y-51089899D01*
X68458325Y-51054001D01*
X68458325Y-51053998D01*
X68454280Y-51018098D01*
X68453500Y-51004214D01*
X68453500Y-50978901D01*
X68453499Y-50978896D01*
X68446127Y-50941840D01*
X68444528Y-50931559D01*
X68439087Y-50883254D01*
X68431271Y-50860917D01*
X68426700Y-50844174D01*
X68424197Y-50831587D01*
X68424195Y-50831582D01*
X68424194Y-50831578D01*
X68404982Y-50785198D01*
X68402500Y-50778697D01*
X68382337Y-50721072D01*
X68382334Y-50721067D01*
X68376400Y-50711622D01*
X68366840Y-50693116D01*
X68366718Y-50692821D01*
X68331908Y-50640724D01*
X68330022Y-50637814D01*
X68290920Y-50575583D01*
X68290918Y-50575580D01*
X68169419Y-50454081D01*
X68107168Y-50414966D01*
X68104249Y-50413074D01*
X68052181Y-50378283D01*
X68052174Y-50378280D01*
X68051870Y-50378154D01*
X68033372Y-50368596D01*
X68028441Y-50365498D01*
X68023929Y-50362663D01*
X67988836Y-50350384D01*
X67966290Y-50342494D01*
X67959805Y-50340019D01*
X67913414Y-50320803D01*
X67913407Y-50320801D01*
X67900823Y-50318297D01*
X67884072Y-50313725D01*
X67861746Y-50305913D01*
X67861744Y-50305912D01*
X67861742Y-50305912D01*
X67861739Y-50305911D01*
X67813450Y-50300471D01*
X67803145Y-50298868D01*
X67783114Y-50294884D01*
X67766101Y-50291500D01*
X67766100Y-50291500D01*
X67740785Y-50291500D01*
X67726901Y-50290720D01*
X67691002Y-50286675D01*
X67690998Y-50286675D01*
X67655099Y-50290720D01*
X67641215Y-50291500D01*
X67615896Y-50291500D01*
X67578856Y-50298868D01*
X67568548Y-50300471D01*
X67520260Y-50305911D01*
X67520255Y-50305912D01*
X67497917Y-50313728D01*
X67481165Y-50318300D01*
X67468588Y-50320802D01*
X67468587Y-50320802D01*
X67422202Y-50340015D01*
X67415709Y-50342494D01*
X67358067Y-50362664D01*
X67348622Y-50368599D01*
X67330130Y-50378154D01*
X67329825Y-50378280D01*
X67329823Y-50378280D01*
X67329821Y-50378282D01*
X67277750Y-50413074D01*
X67277731Y-50413087D01*
X67274814Y-50414977D01*
X67212581Y-50454080D01*
X67091080Y-50575581D01*
X67051977Y-50637814D01*
X67050091Y-50640723D01*
X67015282Y-50692821D01*
X67015280Y-50692823D01*
X67015280Y-50692825D01*
X67015154Y-50693130D01*
X67005599Y-50711622D01*
X66999664Y-50721067D01*
X66979494Y-50778709D01*
X66977015Y-50785202D01*
X66957802Y-50831587D01*
X66957802Y-50831588D01*
X66955300Y-50844165D01*
X66950728Y-50860917D01*
X66942912Y-50883255D01*
X66942911Y-50883260D01*
X66937471Y-50931548D01*
X66935868Y-50941856D01*
X66928500Y-50978896D01*
X66928500Y-51004214D01*
X66927720Y-51018098D01*
X66923675Y-51053998D01*
X66923675Y-51054001D01*
X66927720Y-51089899D01*
X66928500Y-51103784D01*
X66928500Y-112599214D01*
X66927720Y-112613098D01*
X66923675Y-112648998D01*
X66923675Y-112649001D01*
X62611500Y-112649001D01*
X62611500Y-106877501D01*
X62631185Y-106810462D01*
X62683989Y-106764707D01*
X62753147Y-106754763D01*
X62816703Y-106783788D01*
X62838600Y-106808608D01*
X62859075Y-106839250D01*
X62860966Y-106842168D01*
X62900081Y-106904419D01*
X63021581Y-107025919D01*
X63083814Y-107065022D01*
X63086724Y-107066908D01*
X63138821Y-107101718D01*
X63139116Y-107101840D01*
X63157628Y-107111403D01*
X63167070Y-107117336D01*
X63167072Y-107117337D01*
X63205296Y-107130711D01*
X63224701Y-107137501D01*
X63231198Y-107139982D01*
X63277578Y-107159194D01*
X63277582Y-107159195D01*
X63277587Y-107159197D01*
X63290174Y-107161700D01*
X63306917Y-107166271D01*
X63329254Y-107174087D01*
X63377559Y-107179528D01*
X63387840Y-107181127D01*
X63424900Y-107188500D01*
X63450215Y-107188500D01*
X63464099Y-107189280D01*
X63499998Y-107193325D01*
X63500000Y-107193325D01*
X63500002Y-107193325D01*
X63535901Y-107189280D01*
X63549785Y-107188500D01*
X63575103Y-107188500D01*
X63604642Y-107182622D01*
X63612139Y-107181131D01*
X63622439Y-107179528D01*
X63670746Y-107174087D01*
X63693080Y-107166271D01*
X63709831Y-107161699D01*
X63722413Y-107159197D01*
X63768825Y-107139971D01*
X63775292Y-107137503D01*
X63799732Y-107128951D01*
X63832928Y-107117337D01*
X63842362Y-107111409D01*
X63860895Y-107101835D01*
X63861179Y-107101718D01*
X63913309Y-107066884D01*
X63916105Y-107065072D01*
X63978419Y-107025919D01*
X63978421Y-107025916D01*
X63978427Y-107025913D01*
X63979532Y-107025032D01*
X63980381Y-107024685D01*
X63984316Y-107022213D01*
X63984748Y-107022902D01*
X64044218Y-106998623D01*
X64097794Y-107004936D01*
X64113694Y-107010499D01*
X64120182Y-107012975D01*
X64166587Y-107032197D01*
X64179157Y-107034696D01*
X64195927Y-107039274D01*
X64218257Y-107047088D01*
X64266561Y-107052530D01*
X64276862Y-107054131D01*
X64313900Y-107061499D01*
X64339206Y-107061499D01*
X64353090Y-107062279D01*
X64388998Y-107066325D01*
X64389000Y-107066325D01*
X64389002Y-107066325D01*
X64424910Y-107062279D01*
X64438794Y-107061499D01*
X64464102Y-107061499D01*
X64475473Y-107059236D01*
X64501144Y-107054129D01*
X64511420Y-107052531D01*
X64559746Y-107047087D01*
X64582073Y-107039273D01*
X64598832Y-107034698D01*
X64611413Y-107032197D01*
X64657837Y-107012966D01*
X64664260Y-107010514D01*
X64721930Y-106990336D01*
X64731364Y-106984407D01*
X64749895Y-106974835D01*
X64750179Y-106974718D01*
X64802322Y-106939875D01*
X64805153Y-106938042D01*
X64867418Y-106898920D01*
X64867421Y-106898918D01*
X64988918Y-106777421D01*
X64988920Y-106777418D01*
X65028042Y-106715153D01*
X65029875Y-106712322D01*
X65064718Y-106660179D01*
X65064835Y-106659895D01*
X65074409Y-106641362D01*
X65080336Y-106631930D01*
X65100514Y-106574260D01*
X65102966Y-106567837D01*
X65122197Y-106521413D01*
X65124698Y-106508832D01*
X65129273Y-106492073D01*
X65137087Y-106469746D01*
X65142531Y-106421420D01*
X65144129Y-106411144D01*
X65151499Y-106374100D01*
X65151499Y-106348793D01*
X65152279Y-106334908D01*
X65156325Y-106299001D01*
X65156325Y-106298998D01*
X65152279Y-106263090D01*
X65151499Y-106249206D01*
X65151499Y-106223900D01*
X65144133Y-106186873D01*
X65142530Y-106176561D01*
X65137088Y-106128257D01*
X65129274Y-106105927D01*
X65124696Y-106089154D01*
X65122198Y-106076592D01*
X65122197Y-106076591D01*
X65122197Y-106076587D01*
X65102975Y-106030182D01*
X65100500Y-106023697D01*
X65080337Y-105966072D01*
X65080336Y-105966070D01*
X65074403Y-105956628D01*
X65064840Y-105938116D01*
X65064718Y-105937821D01*
X65029908Y-105885724D01*
X65028022Y-105882814D01*
X64988920Y-105820583D01*
X64988918Y-105820580D01*
X64959219Y-105790881D01*
X64925734Y-105729558D01*
X64922900Y-105703200D01*
X64922900Y-101454982D01*
X64942585Y-101387943D01*
X64995389Y-101342188D01*
X65064547Y-101332244D01*
X65128103Y-101361269D01*
X65151894Y-101389010D01*
X65186081Y-101443419D01*
X65307580Y-101564918D01*
X65307583Y-101564920D01*
X65369814Y-101604022D01*
X65372724Y-101605908D01*
X65424821Y-101640718D01*
X65425116Y-101640840D01*
X65443628Y-101650403D01*
X65453070Y-101656336D01*
X65453072Y-101656337D01*
X65491296Y-101669711D01*
X65510701Y-101676501D01*
X65517198Y-101678982D01*
X65563578Y-101698194D01*
X65563582Y-101698195D01*
X65563587Y-101698197D01*
X65576174Y-101700700D01*
X65592917Y-101705271D01*
X65615254Y-101713087D01*
X65663559Y-101718528D01*
X65673840Y-101720127D01*
X65710900Y-101727500D01*
X65736215Y-101727500D01*
X65750099Y-101728280D01*
X65785998Y-101732325D01*
X65786000Y-101732325D01*
X65786002Y-101732325D01*
X65821901Y-101728280D01*
X65835785Y-101727500D01*
X65861103Y-101727500D01*
X65890642Y-101721622D01*
X65898139Y-101720131D01*
X65908439Y-101718528D01*
X65956746Y-101713087D01*
X65979080Y-101705271D01*
X65995831Y-101700699D01*
X66008413Y-101698197D01*
X66054825Y-101678971D01*
X66061292Y-101676503D01*
X66085732Y-101667951D01*
X66118928Y-101656337D01*
X66128362Y-101650409D01*
X66146895Y-101640835D01*
X66147179Y-101640718D01*
X66199322Y-101605875D01*
X66202153Y-101604042D01*
X66264418Y-101564920D01*
X66264421Y-101564918D01*
X66385918Y-101443421D01*
X66385920Y-101443418D01*
X66407566Y-101408966D01*
X66425051Y-101381137D01*
X66426875Y-101378322D01*
X66461718Y-101326179D01*
X66461835Y-101325895D01*
X66471409Y-101307362D01*
X66477303Y-101297983D01*
X66477336Y-101297930D01*
X66478187Y-101295500D01*
X66497501Y-101240299D01*
X66499971Y-101233825D01*
X66519197Y-101187413D01*
X66521699Y-101174831D01*
X66526271Y-101158080D01*
X66534087Y-101135746D01*
X66539528Y-101087439D01*
X66541132Y-101077136D01*
X66548500Y-101040103D01*
X66548500Y-101014784D01*
X66549280Y-101000899D01*
X66549363Y-101000168D01*
X66553325Y-100965000D01*
X66551057Y-100944874D01*
X66549280Y-100929098D01*
X66548500Y-100915214D01*
X66548500Y-68883784D01*
X66549280Y-68869899D01*
X66553325Y-68834001D01*
X66553325Y-68833998D01*
X66549280Y-68798098D01*
X66548500Y-68784214D01*
X66548500Y-68758901D01*
X66548500Y-68758900D01*
X66541127Y-68721840D01*
X66539528Y-68711559D01*
X66534087Y-68663254D01*
X66526271Y-68640917D01*
X66521700Y-68624174D01*
X66519197Y-68611587D01*
X66519195Y-68611582D01*
X66519194Y-68611578D01*
X66499982Y-68565198D01*
X66497500Y-68558697D01*
X66477337Y-68501072D01*
X66477336Y-68501070D01*
X66471403Y-68491628D01*
X66461840Y-68473116D01*
X66461718Y-68472821D01*
X66426908Y-68420724D01*
X66425022Y-68417814D01*
X66385920Y-68355583D01*
X66385918Y-68355580D01*
X66264419Y-68234081D01*
X66202168Y-68194966D01*
X66199249Y-68193074D01*
X66147181Y-68158283D01*
X66147179Y-68158282D01*
X66146870Y-68158154D01*
X66128372Y-68148596D01*
X66123441Y-68145498D01*
X66118929Y-68142663D01*
X66083836Y-68130384D01*
X66061290Y-68122494D01*
X66054805Y-68120019D01*
X66008414Y-68100803D01*
X66008407Y-68100801D01*
X65995823Y-68098297D01*
X65979066Y-68093722D01*
X65971142Y-68090949D01*
X65914367Y-68050226D01*
X65888622Y-67985272D01*
X65888100Y-67973909D01*
X65888100Y-66644212D01*
X65895060Y-66603253D01*
X65899086Y-66591748D01*
X65899087Y-66591746D01*
X65904531Y-66543420D01*
X65906129Y-66533144D01*
X65913499Y-66496100D01*
X65913499Y-66470793D01*
X65914279Y-66456908D01*
X65918325Y-66421001D01*
X65918325Y-66420998D01*
X65914279Y-66385090D01*
X65913499Y-66371206D01*
X65913499Y-66345900D01*
X65906133Y-66308873D01*
X65904530Y-66298561D01*
X65899088Y-66250257D01*
X65891274Y-66227927D01*
X65886696Y-66211154D01*
X65884198Y-66198592D01*
X65884197Y-66198591D01*
X65884197Y-66198587D01*
X65864975Y-66152182D01*
X65862500Y-66145697D01*
X65842336Y-66088069D01*
X65836408Y-66078635D01*
X65826842Y-66060120D01*
X65826719Y-66059823D01*
X65826713Y-66059813D01*
X65813248Y-66039661D01*
X65791911Y-66007728D01*
X65790036Y-66004836D01*
X65750919Y-65942581D01*
X65629419Y-65821081D01*
X65629417Y-65821079D01*
X65629414Y-65821077D01*
X65567186Y-65781977D01*
X65564291Y-65780101D01*
X65512179Y-65745282D01*
X65511876Y-65745156D01*
X65493366Y-65735593D01*
X65483930Y-65729664D01*
X65426278Y-65709490D01*
X65419810Y-65707021D01*
X65373413Y-65687803D01*
X65373410Y-65687802D01*
X65360831Y-65685300D01*
X65344072Y-65680725D01*
X65321741Y-65672911D01*
X65321742Y-65672911D01*
X65273450Y-65667471D01*
X65263143Y-65665869D01*
X65262504Y-65665742D01*
X65226100Y-65658501D01*
X65226099Y-65658501D01*
X65200794Y-65658501D01*
X65186910Y-65657721D01*
X65151002Y-65653675D01*
X65150998Y-65653675D01*
X65115090Y-65657721D01*
X65101206Y-65658501D01*
X65075900Y-65658501D01*
X65071088Y-65659458D01*
X65001497Y-65653229D01*
X64946321Y-65610364D01*
X64923078Y-65544474D01*
X64922900Y-65537840D01*
X64922900Y-47293784D01*
X64923680Y-47279899D01*
X64927725Y-47244001D01*
X64927725Y-47243998D01*
X64923680Y-47208098D01*
X64922900Y-47194214D01*
X64922900Y-47168901D01*
X64922900Y-47168900D01*
X64915527Y-47131840D01*
X64913928Y-47121559D01*
X64908487Y-47073254D01*
X64900671Y-47050917D01*
X64896100Y-47034174D01*
X64893597Y-47021587D01*
X64893595Y-47021582D01*
X64893594Y-47021578D01*
X64874382Y-46975198D01*
X64871900Y-46968697D01*
X64851737Y-46911072D01*
X64851736Y-46911070D01*
X64845803Y-46901628D01*
X64836240Y-46883116D01*
X64836118Y-46882821D01*
X64801308Y-46830724D01*
X64799422Y-46827814D01*
X64760320Y-46765583D01*
X64760318Y-46765580D01*
X64638819Y-46644081D01*
X64576568Y-46604966D01*
X64573649Y-46603074D01*
X64521581Y-46568283D01*
X64521579Y-46568282D01*
X64521270Y-46568154D01*
X64502772Y-46558596D01*
X64493330Y-46552664D01*
X64493329Y-46552663D01*
X64493328Y-46552663D01*
X64489031Y-46550594D01*
X64437169Y-46503774D01*
X64418853Y-46436347D01*
X64439898Y-46369722D01*
X64455140Y-46351196D01*
X65616272Y-45190066D01*
X65623919Y-45182419D01*
X65663055Y-45120132D01*
X65664894Y-45117295D01*
X65699718Y-45065179D01*
X65699835Y-45064895D01*
X65709409Y-45046362D01*
X65715336Y-45036930D01*
X65735514Y-44979260D01*
X65737966Y-44972837D01*
X65757197Y-44926413D01*
X65759698Y-44913832D01*
X65764273Y-44897073D01*
X65772087Y-44874746D01*
X65777531Y-44826420D01*
X65779129Y-44816144D01*
X65786499Y-44779100D01*
X65786499Y-44753793D01*
X65787279Y-44739908D01*
X65791325Y-44704001D01*
X65791325Y-44703998D01*
X65787279Y-44668090D01*
X65786499Y-44654206D01*
X65786499Y-44628901D01*
X65779130Y-44591858D01*
X65777528Y-44581557D01*
X65772087Y-44533254D01*
X65764272Y-44510921D01*
X65759699Y-44494170D01*
X65757197Y-44481588D01*
X65737972Y-44435176D01*
X65735518Y-44428746D01*
X65715336Y-44371070D01*
X65709404Y-44361630D01*
X65699838Y-44343112D01*
X65699718Y-44342822D01*
X65664919Y-44290741D01*
X65663034Y-44287832D01*
X65623919Y-44225581D01*
X65502421Y-44104083D01*
X65502419Y-44104081D01*
X65440158Y-44064959D01*
X65437242Y-44063069D01*
X65385178Y-44028282D01*
X65385179Y-44028282D01*
X65384876Y-44028157D01*
X65366371Y-44018596D01*
X65356930Y-44012664D01*
X65299281Y-43992491D01*
X65292789Y-43990012D01*
X65246410Y-43970802D01*
X65246405Y-43970801D01*
X65233837Y-43968301D01*
X65217075Y-43963726D01*
X65194743Y-43955912D01*
X65146440Y-43950470D01*
X65136131Y-43948867D01*
X65099101Y-43941501D01*
X65099099Y-43941501D01*
X65073794Y-43941501D01*
X65059910Y-43940721D01*
X65024002Y-43936675D01*
X65023998Y-43936675D01*
X64988090Y-43940721D01*
X64974206Y-43941501D01*
X64948900Y-43941501D01*
X64911854Y-43948869D01*
X64901549Y-43950471D01*
X64853259Y-43955911D01*
X64853253Y-43955913D01*
X64830920Y-43963727D01*
X64814164Y-43968301D01*
X64801589Y-43970802D01*
X64801585Y-43970803D01*
X64755202Y-43990015D01*
X64748709Y-43992494D01*
X64691067Y-44012664D01*
X64681622Y-44018599D01*
X64663130Y-44028154D01*
X64662821Y-44028282D01*
X64662814Y-44028285D01*
X64610739Y-44063080D01*
X64607824Y-44064969D01*
X64545585Y-44104077D01*
X64545578Y-44104083D01*
X64537934Y-44111728D01*
X62907731Y-45741929D01*
X62907725Y-45741936D01*
X62838602Y-45845388D01*
X62784990Y-45890194D01*
X62715665Y-45898901D01*
X62652638Y-45868747D01*
X62615918Y-45809304D01*
X62611500Y-45776498D01*
X62611500Y-34293051D01*
X62611575Y-34290005D01*
X63621728Y-34290005D01*
X63640795Y-34593079D01*
X63640796Y-34593086D01*
X63697703Y-34891404D01*
X63791548Y-35180226D01*
X63791550Y-35180231D01*
X63920850Y-35455007D01*
X63920856Y-35455018D01*
X64083575Y-35711423D01*
X64083578Y-35711427D01*
X64277152Y-35945417D01*
X64277154Y-35945419D01*
X64498533Y-36153309D01*
X64498543Y-36153317D01*
X64744213Y-36331807D01*
X64744219Y-36331810D01*
X64744225Y-36331815D01*
X65010350Y-36478118D01*
X65010351Y-36478118D01*
X65010356Y-36478121D01*
X65010359Y-36478122D01*
X65280125Y-36584929D01*
X65292713Y-36589913D01*
X65586861Y-36665438D01*
X65650066Y-36673422D01*
X65888143Y-36703499D01*
X65888152Y-36703499D01*
X65888155Y-36703500D01*
X65888157Y-36703500D01*
X66191843Y-36703500D01*
X66191845Y-36703500D01*
X66191848Y-36703499D01*
X66191856Y-36703499D01*
X66371639Y-36680786D01*
X66493139Y-36665438D01*
X66787287Y-36589913D01*
X67069640Y-36478122D01*
X67069643Y-36478121D01*
X67069644Y-36478120D01*
X67069650Y-36478118D01*
X67335775Y-36331815D01*
X67581465Y-36153311D01*
X67802844Y-35945421D01*
X67996423Y-35711425D01*
X68159148Y-35455011D01*
X68288452Y-35180225D01*
X68382298Y-34891400D01*
X68439203Y-34593090D01*
X68439204Y-34593079D01*
X68458272Y-34290005D01*
X68458272Y-34289994D01*
X68439204Y-33986920D01*
X68439203Y-33986913D01*
X68439203Y-33986910D01*
X68382298Y-33688600D01*
X68288452Y-33399775D01*
X68159148Y-33124989D01*
X68159143Y-33124981D01*
X67996424Y-32868576D01*
X67996421Y-32868572D01*
X67802847Y-32634582D01*
X67802845Y-32634580D01*
X67581466Y-32426690D01*
X67581456Y-32426682D01*
X67335786Y-32248192D01*
X67335768Y-32248181D01*
X67069643Y-32101878D01*
X67069640Y-32101877D01*
X66822432Y-32004001D01*
X76067675Y-32004001D01*
X76071721Y-32039908D01*
X76072501Y-32053793D01*
X76072501Y-32079100D01*
X76078741Y-32110471D01*
X76079869Y-32116143D01*
X76081471Y-32126450D01*
X76086911Y-32174742D01*
X76094725Y-32197072D01*
X76099300Y-32213831D01*
X76101802Y-32226410D01*
X76101803Y-32226413D01*
X76121019Y-32272804D01*
X76123490Y-32279278D01*
X76143664Y-32336930D01*
X76149593Y-32346366D01*
X76159158Y-32364879D01*
X76159281Y-32365177D01*
X76159284Y-32365182D01*
X76178603Y-32394096D01*
X76199480Y-32460774D01*
X76199500Y-32462985D01*
X76199500Y-97994214D01*
X76198720Y-98008098D01*
X76194675Y-98043998D01*
X76194675Y-98044001D01*
X76198720Y-98079899D01*
X76199500Y-98093784D01*
X76199500Y-98119101D01*
X76206868Y-98156140D01*
X76208471Y-98166450D01*
X76213911Y-98214739D01*
X76213912Y-98214742D01*
X76221725Y-98237072D01*
X76226297Y-98253823D01*
X76228801Y-98266407D01*
X76228803Y-98266414D01*
X76248019Y-98312805D01*
X76250500Y-98319304D01*
X76270663Y-98376929D01*
X76270664Y-98376930D01*
X76276590Y-98386362D01*
X76276595Y-98386369D01*
X76286156Y-98404874D01*
X76286283Y-98405181D01*
X76286283Y-98405182D01*
X76321074Y-98457249D01*
X76322966Y-98460168D01*
X76362081Y-98522419D01*
X76483580Y-98643918D01*
X76483583Y-98643920D01*
X76545814Y-98683022D01*
X76548724Y-98684908D01*
X76600821Y-98719718D01*
X76601116Y-98719840D01*
X76619628Y-98729403D01*
X76629070Y-98735336D01*
X76629072Y-98735337D01*
X76667296Y-98748711D01*
X76686701Y-98755501D01*
X76693198Y-98757982D01*
X76739578Y-98777194D01*
X76739582Y-98777195D01*
X76739587Y-98777197D01*
X76752174Y-98779700D01*
X76768917Y-98784271D01*
X76791254Y-98792087D01*
X76839559Y-98797528D01*
X76849840Y-98799127D01*
X76886900Y-98806500D01*
X76912215Y-98806500D01*
X76926099Y-98807280D01*
X76961998Y-98811325D01*
X76962000Y-98811325D01*
X76962002Y-98811325D01*
X76997901Y-98807280D01*
X77011785Y-98806500D01*
X77037103Y-98806500D01*
X77066642Y-98800622D01*
X77074139Y-98799131D01*
X77084439Y-98797528D01*
X77132746Y-98792087D01*
X77155080Y-98784271D01*
X77171831Y-98779699D01*
X77184413Y-98777197D01*
X77230825Y-98757971D01*
X77237292Y-98755503D01*
X77261732Y-98746951D01*
X77294928Y-98735337D01*
X77304362Y-98729409D01*
X77322895Y-98719835D01*
X77323179Y-98719718D01*
X77375322Y-98684875D01*
X77378153Y-98683042D01*
X77440418Y-98643920D01*
X77440421Y-98643918D01*
X77561918Y-98522421D01*
X77561920Y-98522418D01*
X77601042Y-98460153D01*
X77602875Y-98457322D01*
X77637718Y-98405179D01*
X77637835Y-98404895D01*
X77647409Y-98386362D01*
X77653337Y-98376928D01*
X77673501Y-98319299D01*
X77675971Y-98312825D01*
X77695197Y-98266413D01*
X77697699Y-98253831D01*
X77702269Y-98237085D01*
X77710087Y-98214746D01*
X77710087Y-98214739D01*
X77711894Y-98209578D01*
X77752617Y-98152803D01*
X77787978Y-98133494D01*
X77793139Y-98131687D01*
X77793146Y-98131687D01*
X77815485Y-98123869D01*
X77832231Y-98119299D01*
X77844813Y-98116797D01*
X77891225Y-98097571D01*
X77897692Y-98095103D01*
X77922132Y-98086551D01*
X77955328Y-98074937D01*
X77964762Y-98069009D01*
X77983295Y-98059435D01*
X77983579Y-98059318D01*
X78035722Y-98024475D01*
X78038553Y-98022642D01*
X78100818Y-97983520D01*
X78100821Y-97983518D01*
X78222318Y-97862021D01*
X78222320Y-97862018D01*
X78261442Y-97799753D01*
X78263275Y-97796922D01*
X78298118Y-97744779D01*
X78298235Y-97744495D01*
X78307809Y-97725962D01*
X78313737Y-97716528D01*
X78333901Y-97658899D01*
X78336371Y-97652425D01*
X78355597Y-97606013D01*
X78358099Y-97593431D01*
X78362671Y-97576680D01*
X78370487Y-97554346D01*
X78375928Y-97506039D01*
X78377532Y-97495736D01*
X78384900Y-97458703D01*
X78384900Y-97433384D01*
X78385680Y-97419499D01*
X78389725Y-97383601D01*
X78389725Y-97383598D01*
X78385680Y-97347698D01*
X78384900Y-97333814D01*
X78384900Y-38862001D01*
X86481675Y-38862001D01*
X86485721Y-38897908D01*
X86486501Y-38911793D01*
X86486501Y-38937098D01*
X86493869Y-38974143D01*
X86495471Y-38984450D01*
X86500911Y-39032742D01*
X86508725Y-39055072D01*
X86513300Y-39071831D01*
X86515802Y-39084410D01*
X86515803Y-39084413D01*
X86527861Y-39113523D01*
X86537300Y-39160976D01*
X86537300Y-100534214D01*
X86536520Y-100548098D01*
X86532475Y-100583998D01*
X86532475Y-100584001D01*
X86536520Y-100619899D01*
X86537300Y-100633784D01*
X86537300Y-100659101D01*
X86544668Y-100696140D01*
X86546271Y-100706450D01*
X86551711Y-100754739D01*
X86551712Y-100754742D01*
X86559525Y-100777072D01*
X86564097Y-100793823D01*
X86566601Y-100806407D01*
X86566603Y-100806414D01*
X86585819Y-100852805D01*
X86588300Y-100859304D01*
X86608463Y-100916929D01*
X86608464Y-100916930D01*
X86614390Y-100926362D01*
X86614395Y-100926369D01*
X86623956Y-100944874D01*
X86624083Y-100945181D01*
X86624083Y-100945182D01*
X86658874Y-100997249D01*
X86660766Y-101000168D01*
X86699881Y-101062419D01*
X86821381Y-101183919D01*
X86883614Y-101223022D01*
X86886524Y-101224908D01*
X86938621Y-101259718D01*
X86938916Y-101259840D01*
X86957428Y-101269403D01*
X86966870Y-101275336D01*
X86966872Y-101275337D01*
X87005096Y-101288711D01*
X87024501Y-101295501D01*
X87030998Y-101297982D01*
X87077378Y-101317194D01*
X87077382Y-101317195D01*
X87077387Y-101317197D01*
X87089974Y-101319700D01*
X87106717Y-101324271D01*
X87129054Y-101332087D01*
X87177359Y-101337528D01*
X87187640Y-101339127D01*
X87224700Y-101346500D01*
X87250015Y-101346500D01*
X87263899Y-101347280D01*
X87299798Y-101351325D01*
X87299800Y-101351325D01*
X87299802Y-101351325D01*
X87335701Y-101347280D01*
X87349585Y-101346500D01*
X87374903Y-101346500D01*
X87404442Y-101340622D01*
X87411939Y-101339131D01*
X87422239Y-101337528D01*
X87470546Y-101332087D01*
X87492880Y-101324271D01*
X87509631Y-101319699D01*
X87522213Y-101317197D01*
X87568625Y-101297971D01*
X87575092Y-101295503D01*
X87599532Y-101286951D01*
X87632728Y-101275337D01*
X87642162Y-101269409D01*
X87660695Y-101259835D01*
X87660979Y-101259718D01*
X87713122Y-101224875D01*
X87715953Y-101223042D01*
X87778218Y-101183920D01*
X87778221Y-101183918D01*
X87899718Y-101062421D01*
X87899720Y-101062418D01*
X87934022Y-101007824D01*
X87938851Y-101000137D01*
X87940675Y-100997322D01*
X87975518Y-100945179D01*
X87975635Y-100944895D01*
X87985209Y-100926362D01*
X87991137Y-100916928D01*
X88011301Y-100859299D01*
X88013771Y-100852825D01*
X88032997Y-100806413D01*
X88035499Y-100793831D01*
X88040074Y-100777072D01*
X88047887Y-100754746D01*
X88053328Y-100706439D01*
X88054932Y-100696136D01*
X88062300Y-100659103D01*
X88062300Y-100633784D01*
X88063080Y-100619899D01*
X88067125Y-100584001D01*
X88067125Y-100583998D01*
X88063080Y-100548098D01*
X88062300Y-100534214D01*
X88062300Y-68940000D01*
X88081985Y-68872961D01*
X88134789Y-68827206D01*
X88203947Y-68817262D01*
X88267503Y-68846287D01*
X88273981Y-68852319D01*
X91417929Y-71996268D01*
X91417932Y-71996271D01*
X91417935Y-71996273D01*
X91482630Y-72039500D01*
X91542821Y-72079718D01*
X91681587Y-72137197D01*
X91681591Y-72137197D01*
X91681592Y-72137198D01*
X91828897Y-72166500D01*
X91828900Y-72166500D01*
X97664215Y-72166500D01*
X97678099Y-72167280D01*
X97713998Y-72171325D01*
X97714000Y-72171325D01*
X97714002Y-72171325D01*
X97749901Y-72167280D01*
X97763785Y-72166500D01*
X97789103Y-72166500D01*
X97818642Y-72160622D01*
X97826139Y-72159131D01*
X97836439Y-72157528D01*
X97884746Y-72152087D01*
X97907080Y-72144271D01*
X97923831Y-72139699D01*
X97936413Y-72137197D01*
X97982825Y-72117971D01*
X97989292Y-72115503D01*
X98013732Y-72106951D01*
X98046928Y-72095337D01*
X98056362Y-72089409D01*
X98074895Y-72079835D01*
X98075179Y-72079718D01*
X98127322Y-72044875D01*
X98130153Y-72043042D01*
X98135791Y-72039500D01*
X98157966Y-72025566D01*
X98192418Y-72003920D01*
X98192421Y-72003918D01*
X98313918Y-71882421D01*
X98313920Y-71882418D01*
X98353042Y-71820153D01*
X98354875Y-71817322D01*
X98389718Y-71765179D01*
X98389835Y-71764895D01*
X98399409Y-71746362D01*
X98405337Y-71736928D01*
X98425501Y-71679299D01*
X98427971Y-71672825D01*
X98447197Y-71626413D01*
X98449699Y-71613831D01*
X98454271Y-71597080D01*
X98462087Y-71574746D01*
X98467528Y-71526439D01*
X98469132Y-71516136D01*
X98476500Y-71479103D01*
X98476500Y-71453784D01*
X98477280Y-71439899D01*
X98481325Y-71404001D01*
X98481325Y-71403998D01*
X98477280Y-71368098D01*
X98476500Y-71354214D01*
X98476500Y-71328901D01*
X98474959Y-71321154D01*
X98469127Y-71291840D01*
X98467528Y-71281559D01*
X98462087Y-71233254D01*
X98454271Y-71210917D01*
X98449700Y-71194174D01*
X98447197Y-71181587D01*
X98447195Y-71181582D01*
X98447194Y-71181578D01*
X98427982Y-71135198D01*
X98425500Y-71128697D01*
X98405337Y-71071072D01*
X98405336Y-71071070D01*
X98399403Y-71061628D01*
X98389840Y-71043116D01*
X98389718Y-71042821D01*
X98354908Y-70990724D01*
X98353022Y-70987814D01*
X98317375Y-70931081D01*
X98313919Y-70925581D01*
X98192419Y-70804081D01*
X98130168Y-70764966D01*
X98127249Y-70763074D01*
X98075181Y-70728283D01*
X98075179Y-70728282D01*
X98074870Y-70728154D01*
X98056372Y-70718596D01*
X98051441Y-70715498D01*
X98046929Y-70712663D01*
X98011836Y-70700384D01*
X97989290Y-70692494D01*
X97982805Y-70690019D01*
X97936414Y-70670803D01*
X97936407Y-70670801D01*
X97923823Y-70668297D01*
X97907072Y-70663725D01*
X97884746Y-70655913D01*
X97884744Y-70655912D01*
X97884742Y-70655912D01*
X97884739Y-70655911D01*
X97836450Y-70650471D01*
X97826145Y-70648868D01*
X97806114Y-70644884D01*
X97789101Y-70641500D01*
X97789100Y-70641500D01*
X97763785Y-70641500D01*
X97749901Y-70640720D01*
X97714002Y-70636675D01*
X97713998Y-70636675D01*
X97678099Y-70640720D01*
X97664215Y-70641500D01*
X92271200Y-70641500D01*
X92204161Y-70621815D01*
X92183519Y-70605181D01*
X91052519Y-69474181D01*
X91019034Y-69412858D01*
X91024018Y-69343166D01*
X91065890Y-69287233D01*
X91131354Y-69262816D01*
X91140200Y-69262500D01*
X97363800Y-69262500D01*
X97430839Y-69282185D01*
X97451481Y-69298819D01*
X100157740Y-72005077D01*
X100157750Y-72005088D01*
X100162080Y-72009418D01*
X100162081Y-72009419D01*
X100283581Y-72130919D01*
X100340208Y-72166500D01*
X100345814Y-72170022D01*
X100348724Y-72171908D01*
X100400821Y-72206718D01*
X100401116Y-72206840D01*
X100419628Y-72216403D01*
X100429070Y-72222336D01*
X100429072Y-72222337D01*
X100486697Y-72242500D01*
X100493182Y-72244975D01*
X100539587Y-72264197D01*
X100552157Y-72266696D01*
X100568927Y-72271274D01*
X100591257Y-72279088D01*
X100639561Y-72284530D01*
X100649862Y-72286131D01*
X100686900Y-72293499D01*
X100712206Y-72293499D01*
X100726090Y-72294279D01*
X100761998Y-72298325D01*
X100762000Y-72298325D01*
X100762002Y-72298325D01*
X100797910Y-72294279D01*
X100811794Y-72293499D01*
X100837102Y-72293499D01*
X100866684Y-72287613D01*
X100874128Y-72286132D01*
X100884431Y-72284529D01*
X100932746Y-72279087D01*
X100955075Y-72271272D01*
X100971843Y-72266696D01*
X100977219Y-72265627D01*
X100984403Y-72264199D01*
X100984405Y-72264198D01*
X100984412Y-72264197D01*
X101030795Y-72244984D01*
X101037297Y-72242502D01*
X101094928Y-72222337D01*
X101104362Y-72216409D01*
X101122895Y-72206835D01*
X101123179Y-72206718D01*
X101175322Y-72171875D01*
X101178153Y-72170042D01*
X101183791Y-72166500D01*
X101219161Y-72144276D01*
X101240418Y-72130920D01*
X101240421Y-72130918D01*
X101361918Y-72009421D01*
X101361920Y-72009418D01*
X101401042Y-71947153D01*
X101402875Y-71944322D01*
X101437718Y-71892179D01*
X101437835Y-71891895D01*
X101447409Y-71873362D01*
X101453337Y-71863928D01*
X101473502Y-71806297D01*
X101475984Y-71799795D01*
X101495195Y-71753417D01*
X101495195Y-71753416D01*
X101495197Y-71753412D01*
X101497696Y-71740843D01*
X101502272Y-71724075D01*
X101510087Y-71701746D01*
X101515529Y-71653431D01*
X101517133Y-71643125D01*
X101524499Y-71606102D01*
X101524499Y-71580793D01*
X101525279Y-71566908D01*
X101529325Y-71531001D01*
X101529325Y-71530998D01*
X101525279Y-71495090D01*
X101524499Y-71481206D01*
X101524499Y-71455900D01*
X101524078Y-71453784D01*
X101517131Y-71418862D01*
X101515530Y-71408561D01*
X101510088Y-71360257D01*
X101502274Y-71337927D01*
X101497696Y-71321154D01*
X101495198Y-71308592D01*
X101495197Y-71308591D01*
X101495197Y-71308587D01*
X101475975Y-71262182D01*
X101473500Y-71255697D01*
X101453337Y-71198072D01*
X101450877Y-71194157D01*
X101447403Y-71188628D01*
X101437840Y-71170116D01*
X101437718Y-71169821D01*
X101402908Y-71117724D01*
X101401022Y-71114814D01*
X101361921Y-71052584D01*
X101361920Y-71052583D01*
X101361919Y-71052581D01*
X101240419Y-70931081D01*
X101240418Y-70931080D01*
X101236088Y-70926750D01*
X101236077Y-70926740D01*
X98217070Y-67907731D01*
X98217069Y-67907730D01*
X98217065Y-67907727D01*
X98092179Y-67824282D01*
X97953413Y-67766803D01*
X97953411Y-67766802D01*
X97946479Y-67765423D01*
X97941837Y-67764500D01*
X97941835Y-67764499D01*
X97941835Y-67764500D01*
X97806102Y-67737500D01*
X97806100Y-67737500D01*
X90367200Y-67737500D01*
X90300161Y-67717815D01*
X90279519Y-67701181D01*
X89478417Y-66900079D01*
X89478414Y-66900077D01*
X89416186Y-66860977D01*
X89413291Y-66859101D01*
X89361179Y-66824282D01*
X89360876Y-66824156D01*
X89342366Y-66814593D01*
X89332930Y-66808664D01*
X89275278Y-66788490D01*
X89268810Y-66786021D01*
X89222413Y-66766803D01*
X89222410Y-66766802D01*
X89209831Y-66764300D01*
X89193071Y-66759725D01*
X89185146Y-66756952D01*
X89128370Y-66716231D01*
X89102622Y-66651278D01*
X89102100Y-66639910D01*
X89102100Y-66527600D01*
X89121785Y-66460561D01*
X89138419Y-66439919D01*
X89367184Y-66211154D01*
X89592273Y-65986065D01*
X89599919Y-65978419D01*
X89639024Y-65916182D01*
X89640892Y-65913299D01*
X89675719Y-65861179D01*
X89675838Y-65860889D01*
X89685411Y-65842357D01*
X89691336Y-65832930D01*
X89711509Y-65775277D01*
X89713970Y-65768829D01*
X89733197Y-65722412D01*
X89735697Y-65709840D01*
X89740275Y-65693069D01*
X89742118Y-65687802D01*
X89748087Y-65670746D01*
X89753531Y-65622426D01*
X89755127Y-65612159D01*
X89762500Y-65575099D01*
X89762500Y-65549784D01*
X89763280Y-65535899D01*
X89767325Y-65500001D01*
X89767325Y-65499998D01*
X89763280Y-65464098D01*
X89762500Y-65450214D01*
X89762500Y-65424901D01*
X89762500Y-65424900D01*
X89755127Y-65387840D01*
X89753528Y-65377559D01*
X89748087Y-65329254D01*
X89740271Y-65306917D01*
X89735700Y-65290174D01*
X89733197Y-65277587D01*
X89713976Y-65231186D01*
X89711496Y-65224686D01*
X89691337Y-65167072D01*
X89685410Y-65157639D01*
X89675838Y-65139108D01*
X89675719Y-65138821D01*
X89672705Y-65134310D01*
X89640902Y-65086713D01*
X89639028Y-65083822D01*
X89599919Y-65021581D01*
X89478421Y-64900083D01*
X89478419Y-64900081D01*
X89416209Y-64860991D01*
X89413293Y-64859101D01*
X89361183Y-64824283D01*
X89361175Y-64824279D01*
X89360875Y-64824155D01*
X89342360Y-64814589D01*
X89332928Y-64808662D01*
X89275293Y-64788495D01*
X89268795Y-64786015D01*
X89222414Y-64766803D01*
X89222407Y-64766801D01*
X89209823Y-64764297D01*
X89193072Y-64759725D01*
X89170746Y-64751913D01*
X89170744Y-64751912D01*
X89170742Y-64751912D01*
X89170739Y-64751911D01*
X89122450Y-64746471D01*
X89112145Y-64744868D01*
X89092114Y-64740884D01*
X89075101Y-64737500D01*
X89075100Y-64737500D01*
X89049785Y-64737500D01*
X89035901Y-64736720D01*
X89000002Y-64732675D01*
X88999998Y-64732675D01*
X88964099Y-64736720D01*
X88950215Y-64737500D01*
X88924895Y-64737500D01*
X88887849Y-64744868D01*
X88877551Y-64746470D01*
X88850552Y-64749512D01*
X88829254Y-64751913D01*
X88829252Y-64751913D01*
X88829248Y-64751914D01*
X88806922Y-64759726D01*
X88790169Y-64764300D01*
X88777585Y-64766803D01*
X88777576Y-64766806D01*
X88731197Y-64786016D01*
X88724706Y-64788494D01*
X88667069Y-64808663D01*
X88657634Y-64814592D01*
X88639127Y-64824154D01*
X88638824Y-64824279D01*
X88586735Y-64859082D01*
X88583824Y-64860969D01*
X88521578Y-64900083D01*
X88273981Y-65147681D01*
X88212658Y-65181166D01*
X88142966Y-65176182D01*
X88087033Y-65134310D01*
X88062616Y-65068846D01*
X88062300Y-65060000D01*
X88062300Y-38837697D01*
X88032998Y-38690392D01*
X88032997Y-38690391D01*
X88032997Y-38690387D01*
X87975518Y-38551621D01*
X87941575Y-38500821D01*
X87941575Y-38500820D01*
X87892072Y-38426734D01*
X87848916Y-38383578D01*
X87735065Y-38269727D01*
X87727419Y-38262081D01*
X87727417Y-38262079D01*
X87727414Y-38262077D01*
X87665186Y-38222977D01*
X87662291Y-38221101D01*
X87610179Y-38186282D01*
X87609876Y-38186156D01*
X87591366Y-38176593D01*
X87581930Y-38170664D01*
X87524278Y-38150490D01*
X87517810Y-38148021D01*
X87471413Y-38128803D01*
X87471410Y-38128802D01*
X87458831Y-38126300D01*
X87442072Y-38121725D01*
X87419741Y-38113911D01*
X87419742Y-38113911D01*
X87371450Y-38108471D01*
X87361143Y-38106869D01*
X87360504Y-38106742D01*
X87324100Y-38099501D01*
X87324099Y-38099501D01*
X87298794Y-38099501D01*
X87284910Y-38098721D01*
X87249002Y-38094675D01*
X87248998Y-38094675D01*
X87213090Y-38098721D01*
X87199206Y-38099501D01*
X87173900Y-38099501D01*
X87136854Y-38106869D01*
X87126549Y-38108471D01*
X87078259Y-38113911D01*
X87078253Y-38113913D01*
X87055920Y-38121727D01*
X87039164Y-38126301D01*
X87026589Y-38128802D01*
X87026585Y-38128803D01*
X86980202Y-38148015D01*
X86973709Y-38150494D01*
X86916067Y-38170664D01*
X86906622Y-38176599D01*
X86888130Y-38186154D01*
X86887821Y-38186282D01*
X86887814Y-38186285D01*
X86835736Y-38221082D01*
X86832821Y-38222971D01*
X86770585Y-38262078D01*
X86770578Y-38262083D01*
X86649083Y-38383578D01*
X86649078Y-38383585D01*
X86609971Y-38445821D01*
X86608082Y-38448736D01*
X86573285Y-38500814D01*
X86573282Y-38500821D01*
X86573154Y-38501130D01*
X86563599Y-38519622D01*
X86557664Y-38529067D01*
X86537494Y-38586709D01*
X86535015Y-38593202D01*
X86515803Y-38639585D01*
X86515802Y-38639589D01*
X86513301Y-38652164D01*
X86508727Y-38668920D01*
X86500913Y-38691253D01*
X86500911Y-38691259D01*
X86495471Y-38739549D01*
X86493869Y-38749854D01*
X86486501Y-38786899D01*
X86486501Y-38812206D01*
X86485721Y-38826090D01*
X86481675Y-38861998D01*
X86481675Y-38862001D01*
X78384900Y-38862001D01*
X78384900Y-34593784D01*
X78385680Y-34579899D01*
X78389725Y-34544001D01*
X78389725Y-34543998D01*
X78385680Y-34508098D01*
X78384900Y-34494214D01*
X78384900Y-34468901D01*
X78384900Y-34468900D01*
X78377527Y-34431840D01*
X78375928Y-34421559D01*
X78370487Y-34373254D01*
X78362671Y-34350917D01*
X78358100Y-34334174D01*
X78355597Y-34321587D01*
X78355595Y-34321582D01*
X78355594Y-34321578D01*
X78342516Y-34290005D01*
X99181728Y-34290005D01*
X99200795Y-34593079D01*
X99200796Y-34593086D01*
X99257703Y-34891404D01*
X99351548Y-35180226D01*
X99351550Y-35180231D01*
X99480850Y-35455007D01*
X99480856Y-35455018D01*
X99643575Y-35711423D01*
X99643578Y-35711427D01*
X99837152Y-35945417D01*
X99837154Y-35945419D01*
X100058533Y-36153309D01*
X100058543Y-36153317D01*
X100304213Y-36331807D01*
X100304219Y-36331810D01*
X100304225Y-36331815D01*
X100570350Y-36478118D01*
X100570351Y-36478118D01*
X100570356Y-36478121D01*
X100570359Y-36478122D01*
X100840125Y-36584929D01*
X100852713Y-36589913D01*
X101146861Y-36665438D01*
X101210066Y-36673422D01*
X101448143Y-36703499D01*
X101448152Y-36703499D01*
X101448155Y-36703500D01*
X101448157Y-36703500D01*
X101751843Y-36703500D01*
X101751845Y-36703500D01*
X101751848Y-36703499D01*
X101751856Y-36703499D01*
X101931639Y-36680786D01*
X102053139Y-36665438D01*
X102347287Y-36589913D01*
X102629640Y-36478122D01*
X102629643Y-36478121D01*
X102629644Y-36478120D01*
X102629650Y-36478118D01*
X102895775Y-36331815D01*
X103141465Y-36153311D01*
X103362844Y-35945421D01*
X103556423Y-35711425D01*
X103719148Y-35455011D01*
X103848452Y-35180225D01*
X103942298Y-34891400D01*
X103999203Y-34593090D01*
X103999204Y-34593079D01*
X104018272Y-34290005D01*
X104018272Y-34289994D01*
X103999204Y-33986920D01*
X103999203Y-33986913D01*
X103999203Y-33986910D01*
X103942298Y-33688600D01*
X103848452Y-33399775D01*
X103719148Y-33124989D01*
X103719143Y-33124981D01*
X103556424Y-32868576D01*
X103556421Y-32868572D01*
X103362847Y-32634582D01*
X103362845Y-32634580D01*
X103141466Y-32426690D01*
X103141456Y-32426682D01*
X102895786Y-32248192D01*
X102895768Y-32248181D01*
X102629643Y-32101878D01*
X102629640Y-32101877D01*
X102347291Y-31990088D01*
X102234652Y-31961167D01*
X102053139Y-31914562D01*
X102053136Y-31914561D01*
X102053129Y-31914560D01*
X101751856Y-31876500D01*
X101751845Y-31876500D01*
X101448155Y-31876500D01*
X101448143Y-31876500D01*
X101146870Y-31914560D01*
X101146861Y-31914562D01*
X100852708Y-31990088D01*
X100570359Y-32101877D01*
X100570356Y-32101878D01*
X100304231Y-32248181D01*
X100304213Y-32248192D01*
X100058543Y-32426682D01*
X100058533Y-32426690D01*
X99837154Y-32634580D01*
X99837152Y-32634582D01*
X99643578Y-32868572D01*
X99643575Y-32868576D01*
X99480856Y-33124981D01*
X99480850Y-33124992D01*
X99351550Y-33399768D01*
X99351548Y-33399773D01*
X99257703Y-33688595D01*
X99200796Y-33986913D01*
X99200795Y-33986920D01*
X99181728Y-34289994D01*
X99181728Y-34290005D01*
X78342516Y-34290005D01*
X78336382Y-34275198D01*
X78333900Y-34268697D01*
X78313737Y-34211072D01*
X78313736Y-34211070D01*
X78307803Y-34201628D01*
X78298240Y-34183116D01*
X78298118Y-34182821D01*
X78263308Y-34130724D01*
X78261422Y-34127814D01*
X78222320Y-34065583D01*
X78222318Y-34065580D01*
X78100819Y-33944081D01*
X78038568Y-33904966D01*
X78035649Y-33903074D01*
X77983581Y-33868283D01*
X77983579Y-33868282D01*
X77983270Y-33868154D01*
X77964772Y-33858596D01*
X77959841Y-33855498D01*
X77955329Y-33852663D01*
X77920236Y-33840384D01*
X77897690Y-33832494D01*
X77891205Y-33830019D01*
X77844814Y-33810803D01*
X77844807Y-33810801D01*
X77832223Y-33808297D01*
X77815466Y-33803722D01*
X77807542Y-33800949D01*
X77750767Y-33760226D01*
X77725022Y-33695272D01*
X77724500Y-33683909D01*
X77724500Y-32055897D01*
X77695198Y-31908592D01*
X77695197Y-31908591D01*
X77695197Y-31908587D01*
X77637718Y-31769821D01*
X77595408Y-31706499D01*
X77595408Y-31706498D01*
X77554271Y-31644932D01*
X77554268Y-31644929D01*
X77321065Y-31411727D01*
X77313417Y-31404079D01*
X77313414Y-31404077D01*
X77251186Y-31364977D01*
X77248291Y-31363101D01*
X77196179Y-31328282D01*
X77195876Y-31328156D01*
X77177366Y-31318593D01*
X77167930Y-31312664D01*
X77110278Y-31292490D01*
X77103810Y-31290021D01*
X77057413Y-31270803D01*
X77057410Y-31270802D01*
X77044831Y-31268300D01*
X77028072Y-31263725D01*
X77005741Y-31255911D01*
X77005742Y-31255911D01*
X76957450Y-31250471D01*
X76947143Y-31248869D01*
X76946504Y-31248742D01*
X76910100Y-31241501D01*
X76910099Y-31241501D01*
X76884794Y-31241501D01*
X76870910Y-31240721D01*
X76835002Y-31236675D01*
X76834998Y-31236675D01*
X76799090Y-31240721D01*
X76785206Y-31241501D01*
X76759900Y-31241501D01*
X76722854Y-31248869D01*
X76712549Y-31250471D01*
X76664259Y-31255911D01*
X76664253Y-31255913D01*
X76641920Y-31263727D01*
X76625164Y-31268301D01*
X76612589Y-31270802D01*
X76612585Y-31270803D01*
X76566202Y-31290015D01*
X76559709Y-31292494D01*
X76502067Y-31312664D01*
X76492622Y-31318599D01*
X76474130Y-31328154D01*
X76473821Y-31328282D01*
X76473814Y-31328285D01*
X76421736Y-31363082D01*
X76418821Y-31364971D01*
X76356585Y-31404078D01*
X76356578Y-31404083D01*
X76235083Y-31525578D01*
X76235078Y-31525585D01*
X76195971Y-31587821D01*
X76194082Y-31590736D01*
X76159285Y-31642814D01*
X76159282Y-31642821D01*
X76159154Y-31643130D01*
X76149599Y-31661622D01*
X76143664Y-31671067D01*
X76123494Y-31728709D01*
X76121015Y-31735202D01*
X76101803Y-31781585D01*
X76101802Y-31781589D01*
X76099301Y-31794164D01*
X76094727Y-31810920D01*
X76086913Y-31833253D01*
X76086911Y-31833259D01*
X76081471Y-31881549D01*
X76079869Y-31891854D01*
X76072501Y-31928899D01*
X76072501Y-31954206D01*
X76071721Y-31968090D01*
X76067675Y-32003998D01*
X76067675Y-32004001D01*
X66822432Y-32004001D01*
X66787291Y-31990088D01*
X66674652Y-31961167D01*
X66493139Y-31914562D01*
X66493136Y-31914561D01*
X66493129Y-31914560D01*
X66191856Y-31876500D01*
X66191845Y-31876500D01*
X65888155Y-31876500D01*
X65888143Y-31876500D01*
X65586870Y-31914560D01*
X65586861Y-31914562D01*
X65292708Y-31990088D01*
X65010359Y-32101877D01*
X65010356Y-32101878D01*
X64744231Y-32248181D01*
X64744213Y-32248192D01*
X64498543Y-32426682D01*
X64498533Y-32426690D01*
X64277154Y-32634580D01*
X64277152Y-32634582D01*
X64083578Y-32868572D01*
X64083575Y-32868576D01*
X63920856Y-33124981D01*
X63920850Y-33124992D01*
X63791550Y-33399768D01*
X63791548Y-33399773D01*
X63697703Y-33688595D01*
X63640796Y-33986913D01*
X63640795Y-33986920D01*
X63621728Y-34289994D01*
X63621728Y-34290005D01*
X62611575Y-34290005D01*
X62611649Y-34286967D01*
X62626389Y-33986920D01*
X62627710Y-33960027D01*
X62628903Y-33947920D01*
X62628903Y-33947919D01*
X62676486Y-33627144D01*
X62678854Y-33615237D01*
X62757653Y-33300654D01*
X62761176Y-33289039D01*
X62870434Y-32983682D01*
X62875073Y-32972485D01*
X63013740Y-32679297D01*
X63019456Y-32668605D01*
X63186185Y-32390433D01*
X63192915Y-32380360D01*
X63386126Y-32119847D01*
X63393808Y-32110487D01*
X63611609Y-31870179D01*
X63620179Y-31861609D01*
X63860487Y-31643808D01*
X63869847Y-31636126D01*
X64130360Y-31442915D01*
X64140433Y-31436185D01*
X64418605Y-31269456D01*
X64429297Y-31263740D01*
X64722485Y-31125073D01*
X64733682Y-31120434D01*
X65039039Y-31011176D01*
X65050654Y-31007653D01*
X65365237Y-30928854D01*
X65377144Y-30926486D01*
X65697923Y-30878902D01*
X65710027Y-30877710D01*
X66036967Y-30861648D01*
X66043051Y-30861500D01*
X66094851Y-30861500D01*
X101545149Y-30861500D01*
X101596949Y-30861500D01*
X101603032Y-30861648D01*
G37*
%TD.AperFunction*%
%TD*%
M02*
