M48
; DRILL file {KiCad (6.0.7)} date Tue Jan 30 15:32:44 2024
; FORMAT={-:-/ absolute / inch / decimal}
; #@! TF.CreationDate,2024-01-30T15:32:44-06:00
; #@! TF.GenerationSoftware,Kicad,Pcbnew,(6.0.7)
; #@! TF.FileFunction,Plated,1,2,PTH
FMAT,2
INCH
; #@! TA.AperFunction,Plated,PTH,ViaDrill
T1C0.0100
; #@! TA.AperFunction,Plated,PTH,ComponentDrill
T2C0.0390
; #@! TA.AperFunction,Plated,PTH,ComponentDrill
T3C0.0433
; #@! TA.AperFunction,Plated,PTH,ComponentDrill
T4C0.0472
; #@! TA.AperFunction,Plated,PTH,ComponentDrill
T5C0.0512
%
G90
G05
T1
X3.95Y-4.47
X4.0057Y-4.1431
X4.6094Y-4.1587
X4.74Y-4.05
X4.98Y-4.12
X4.98Y-4.51
X5.01Y-5.6
X5.0503Y-3.418
X5.296Y-4.602
X5.306Y-4.898
X5.65Y-3.198
X5.68Y-3.54
X5.68Y-5.3
X5.9Y-3.042
X6.0Y-5.4
X6.0Y-5.6
X6.0Y-5.7
X6.11Y-4.27
X6.11Y-4.4
X6.17Y-4.27
X6.17Y-4.37
X6.23Y-4.27
X6.23Y-4.34
X6.34Y-4.13
X6.98Y-5.08
X6.98Y-5.22
X7.34Y-5.14
X7.48Y-4.37
X7.56Y-4.37
X7.56Y-4.73
X7.68Y-5.14
T2
X3.4991Y-4.6665
X3.4991Y-4.7665
X3.4991Y-4.8665
T3
X3.6027Y-5.2941
X3.7616Y-5.2941
X3.9227Y-5.2941
X4.0816Y-5.2941
T4
X4.3388Y-4.7149
X4.8112Y-4.7149
T5
X5.4311Y-2.818
X5.5689Y-2.818
T0
M30
