%TF.GenerationSoftware,KiCad,Pcbnew,9.0.3*%
%TF.CreationDate,2025-10-21T13:29:53-05:00*%
%TF.ProjectId,Cutdown,43757464-6f77-46e2-9e6b-696361645f70,2.2.0*%
%TF.SameCoordinates,Original*%
%TF.FileFunction,Paste,Top*%
%TF.FilePolarity,Positive*%
%FSLAX46Y46*%
G04 Gerber Fmt 4.6, Leading zero omitted, Abs format (unit mm)*
G04 Created by KiCad (PCBNEW 9.0.3) date 2025-10-21 13:29:53*
%MOMM*%
%LPD*%
G01*
G04 APERTURE LIST*
G04 Aperture macros list*
%AMRoundRect*
0 Rectangle with rounded corners*
0 $1 Rounding radius*
0 $2 $3 $4 $5 $6 $7 $8 $9 X,Y pos of 4 corners*
0 Add a 4 corners polygon primitive as box body*
4,1,4,$2,$3,$4,$5,$6,$7,$8,$9,$2,$3,0*
0 Add four circle primitives for the rounded corners*
1,1,$1+$1,$2,$3*
1,1,$1+$1,$4,$5*
1,1,$1+$1,$6,$7*
1,1,$1+$1,$8,$9*
0 Add four rect primitives between the rounded corners*
20,1,$1+$1,$2,$3,$4,$5,0*
20,1,$1+$1,$4,$5,$6,$7,0*
20,1,$1+$1,$6,$7,$8,$9,0*
20,1,$1+$1,$8,$9,$2,$3,0*%
G04 Aperture macros list end*
%ADD10RoundRect,0.218750X0.218750X0.256250X-0.218750X0.256250X-0.218750X-0.256250X0.218750X-0.256250X0*%
%ADD11R,0.650000X1.060000*%
%ADD12RoundRect,0.218750X0.256250X-0.218750X0.256250X0.218750X-0.256250X0.218750X-0.256250X-0.218750X0*%
%ADD13R,1.752600X2.616200*%
%ADD14RoundRect,0.243750X0.243750X0.456250X-0.243750X0.456250X-0.243750X-0.456250X0.243750X-0.456250X0*%
%ADD15R,1.800000X1.200000*%
%ADD16R,1.550000X0.600000*%
%ADD17RoundRect,0.218750X-0.256250X0.218750X-0.256250X-0.218750X0.256250X-0.218750X0.256250X0.218750X0*%
%ADD18R,1.500000X1.000000*%
%ADD19R,2.184400X1.701800*%
%ADD20R,3.500000X1.000000*%
%ADD21R,3.400000X1.500000*%
%ADD22R,0.900000X1.700000*%
%ADD23R,0.882000X1.700000*%
%ADD24RoundRect,0.243750X-0.243750X-0.456250X0.243750X-0.456250X0.243750X0.456250X-0.243750X0.456250X0*%
%ADD25R,0.400000X1.200000*%
%ADD26RoundRect,0.218750X-0.218750X-0.256250X0.218750X-0.256250X0.218750X0.256250X-0.218750X0.256250X0*%
%ADD27RoundRect,0.150000X0.150000X-0.825000X0.150000X0.825000X-0.150000X0.825000X-0.150000X-0.825000X0*%
%ADD28RoundRect,0.243750X-0.456250X0.243750X-0.456250X-0.243750X0.456250X-0.243750X0.456250X0.243750X0*%
%ADD29RoundRect,0.150000X-0.150000X0.587500X-0.150000X-0.587500X0.150000X-0.587500X0.150000X0.587500X0*%
%ADD30R,0.400000X0.400000*%
%ADD31R,1.549400X1.295400*%
%ADD32R,1.500000X0.900000*%
%ADD33R,0.900000X1.500000*%
%ADD34R,0.900000X0.900000*%
%ADD35R,0.787400X0.304800*%
%ADD36R,2.000000X0.700000*%
%ADD37R,1.400000X2.700000*%
%ADD38R,2.600000X1.000000*%
%ADD39R,2.600000X1.500000*%
%ADD40R,1.200000X1.200000*%
%ADD41R,0.580000X0.720000*%
%ADD42R,0.720000X0.580000*%
%ADD43RoundRect,0.243750X0.456250X-0.243750X0.456250X0.243750X-0.456250X0.243750X-0.456250X-0.243750X0*%
%ADD44R,0.900000X0.800000*%
G04 APERTURE END LIST*
D10*
%TO.C,C14*%
X154838499Y-45338999D03*
X153263499Y-45338999D03*
%TD*%
D11*
%TO.C,U7*%
X120715999Y-83649999D03*
X121665999Y-83649999D03*
X122615999Y-83649999D03*
X122615999Y-81449999D03*
X120715999Y-81449999D03*
%TD*%
D10*
%TO.C,C12*%
X124104499Y-25526999D03*
X122529499Y-25526999D03*
%TD*%
D12*
%TO.C,R17*%
X143509999Y-55778499D03*
X143509999Y-54203499D03*
%TD*%
D13*
%TO.C,R37*%
X130543299Y-87375999D03*
X135902699Y-87375999D03*
%TD*%
D14*
%TO.C,C16*%
X123327399Y-87099098D03*
X121452399Y-87099098D03*
%TD*%
D10*
%TO.C,R22*%
X124104499Y-30098999D03*
X122529499Y-30098999D03*
%TD*%
D15*
%TO.C,J2*%
X159460999Y-37216999D03*
X159460999Y-31616999D03*
D16*
X163335999Y-32916999D03*
X163335999Y-33916999D03*
X163335999Y-34916999D03*
X163335999Y-35916999D03*
%TD*%
D10*
%TO.C,R11*%
X155346499Y-75945999D03*
X153771499Y-75945999D03*
%TD*%
D17*
%TO.C,C10*%
X120650000Y-111125000D03*
X120650000Y-112700000D03*
%TD*%
D18*
%TO.C,D1*%
X116167999Y-40055999D03*
X116167999Y-43255999D03*
X121067999Y-43255999D03*
X121067999Y-40055999D03*
%TD*%
D19*
%TO.C,D4*%
X131330699Y-90804999D03*
X135115299Y-90804999D03*
%TD*%
D20*
%TO.C,J6*%
X117008499Y-62721999D03*
X117008499Y-60721999D03*
D21*
X122758499Y-65071999D03*
X122758499Y-58371999D03*
%TD*%
D17*
%TO.C,C5*%
X148081999Y-60045499D03*
X148081999Y-61620499D03*
%TD*%
D22*
%TO.C,D7*%
X131975249Y-95564999D03*
D23*
X128784249Y-95564999D03*
%TD*%
D12*
%TO.C,R14*%
X143509999Y-61620499D03*
X143509999Y-60045499D03*
%TD*%
D10*
%TO.C,R6*%
X150901499Y-63372999D03*
X149326499Y-63372999D03*
%TD*%
D17*
%TO.C,R8*%
X128396999Y-34391499D03*
X128396999Y-35966499D03*
%TD*%
D24*
%TO.C,D3*%
X157050499Y-75945999D03*
X158925499Y-75945999D03*
%TD*%
D20*
%TO.C,J1*%
X117012499Y-75659999D03*
X117012499Y-73659999D03*
X117012499Y-71659999D03*
X117012499Y-69659999D03*
D21*
X122762499Y-78009999D03*
X122762499Y-67309999D03*
%TD*%
D25*
%TO.C,U3*%
X144843499Y-70290999D03*
X145478499Y-70290999D03*
X146113499Y-70290999D03*
X146748499Y-70290999D03*
X147383499Y-70290999D03*
X148018499Y-70290999D03*
X148653499Y-70290999D03*
X149288499Y-70290999D03*
X149923499Y-70290999D03*
X150558499Y-70290999D03*
X150558499Y-65090999D03*
X149923499Y-65090999D03*
X149288499Y-65090999D03*
X148653499Y-65090999D03*
X148018499Y-65090999D03*
X147383499Y-65090999D03*
X146748499Y-65090999D03*
X146113499Y-65090999D03*
X145478499Y-65090999D03*
X144843499Y-65090999D03*
%TD*%
D26*
%TO.C,R24*%
X132943499Y-64642999D03*
X134518499Y-64642999D03*
%TD*%
D27*
%TO.C,U1*%
X124967999Y-46543999D03*
X126237999Y-46543999D03*
X127507999Y-46543999D03*
X128777999Y-46543999D03*
X128777999Y-41593999D03*
X127507999Y-41593999D03*
X126237999Y-41593999D03*
X124967999Y-41593999D03*
%TD*%
D26*
%TO.C,C18*%
X118173399Y-87099098D03*
X119748399Y-87099098D03*
%TD*%
D12*
%TO.C,R7*%
X122935999Y-42443499D03*
X122935999Y-40868499D03*
%TD*%
D17*
%TO.C,R30*%
X131063999Y-60045499D03*
X131063999Y-61620499D03*
%TD*%
D12*
%TO.C,R16*%
X141985999Y-55778499D03*
X141985999Y-54203499D03*
%TD*%
D28*
%TO.C,C19*%
X118744999Y-81612499D03*
X118744999Y-83487499D03*
%TD*%
D10*
%TO.C,R1*%
X162077499Y-73024999D03*
X160502499Y-73024999D03*
%TD*%
%TO.C,R38*%
X131162749Y-93405999D03*
X129587749Y-93405999D03*
%TD*%
D12*
%TO.C,R12*%
X146557999Y-61620499D03*
X146557999Y-60045499D03*
%TD*%
D17*
%TO.C,R31*%
X129539999Y-60045499D03*
X129539999Y-61620499D03*
%TD*%
%TO.C,R9*%
X126872999Y-34391499D03*
X126872999Y-35966499D03*
%TD*%
D26*
%TO.C,C7*%
X131014499Y-73513999D03*
X132589499Y-73513999D03*
%TD*%
D29*
%TO.C,Q2*%
X130997999Y-66499499D03*
X129097999Y-66499499D03*
X130047999Y-68374499D03*
%TD*%
D30*
%TO.C,U2*%
X133058999Y-74999999D03*
X133058999Y-75799999D03*
X133058999Y-76599999D03*
X133058999Y-77399999D03*
X130658999Y-77399999D03*
X130658999Y-76599999D03*
X130658999Y-75799999D03*
X130658999Y-74999999D03*
%TD*%
D17*
%TO.C,R20*%
X162178999Y-38836499D03*
X162178999Y-40411499D03*
%TD*%
D14*
%TO.C,C1*%
X162227499Y-71246999D03*
X160352499Y-71246999D03*
%TD*%
D12*
%TO.C,C4*%
X128753999Y-76968499D03*
X128753999Y-75393499D03*
%TD*%
D17*
%TO.C,R28*%
X138938000Y-96875500D03*
X138938000Y-98450500D03*
%TD*%
D12*
%TO.C,C11*%
X122554999Y-28600499D03*
X122554999Y-27025499D03*
%TD*%
D17*
%TO.C,C2*%
X154050999Y-69189499D03*
X154050999Y-70764499D03*
%TD*%
D19*
%TO.C,D6*%
X131330699Y-83946999D03*
X135115299Y-83946999D03*
%TD*%
D26*
%TO.C,R19*%
X135711999Y-73405999D03*
X137286999Y-73405999D03*
%TD*%
D10*
%TO.C,R36*%
X155854499Y-62102999D03*
X154279499Y-62102999D03*
%TD*%
%TO.C,R4*%
X155600499Y-67690999D03*
X154025499Y-67690999D03*
%TD*%
%TO.C,C8*%
X147726499Y-72008999D03*
X146151499Y-72008999D03*
%TD*%
D12*
%TO.C,R18*%
X124078999Y-28600499D03*
X124078999Y-27025499D03*
%TD*%
D17*
%TO.C,R32*%
X134111999Y-60045499D03*
X134111999Y-61620499D03*
%TD*%
D26*
%TO.C,R34*%
X132943499Y-70230999D03*
X134518499Y-70230999D03*
%TD*%
D17*
%TO.C,R26*%
X141986000Y-96875500D03*
X141986000Y-98450500D03*
%TD*%
D24*
%TO.C,D2*%
X157050499Y-73786999D03*
X158925499Y-73786999D03*
%TD*%
D19*
%TO.C,D5*%
X131330699Y-80390999D03*
X135115299Y-80390999D03*
%TD*%
D26*
%TO.C,R35*%
X149580499Y-45338999D03*
X151155499Y-45338999D03*
%TD*%
D31*
%TO.C,SW1*%
X124116997Y-36540000D03*
X116167001Y-36540000D03*
X124116997Y-32039998D03*
X116167001Y-32039998D03*
%TD*%
D29*
%TO.C,Q3*%
X134680999Y-66499499D03*
X132780999Y-66499499D03*
X133730999Y-68374499D03*
%TD*%
D32*
%TO.C,U5*%
X130949999Y-24515999D03*
X130949999Y-25785999D03*
X130949999Y-27055999D03*
X130949999Y-28325999D03*
X130949999Y-29595999D03*
X130949999Y-30865999D03*
X130949999Y-32135999D03*
X130949999Y-33405999D03*
X130949999Y-34675999D03*
X130949999Y-35945999D03*
X130949999Y-37215999D03*
X130949999Y-38485999D03*
X130949999Y-39755999D03*
X130949999Y-41025999D03*
D33*
X133989999Y-42275999D03*
X135259999Y-42275999D03*
X136529999Y-42275999D03*
X137799999Y-42275999D03*
X139069999Y-42275999D03*
X140339999Y-42275999D03*
X141609999Y-42275999D03*
X142879999Y-42275999D03*
X144149999Y-42275999D03*
X145419999Y-42275999D03*
D32*
X148449999Y-41025999D03*
X148449999Y-39755999D03*
X148449999Y-38485999D03*
X148449999Y-37215999D03*
X148449999Y-35945999D03*
X148449999Y-34675999D03*
X148449999Y-33405999D03*
X148449999Y-32135999D03*
X148449999Y-30865999D03*
X148449999Y-29595999D03*
X148449999Y-28325999D03*
X148449999Y-27055999D03*
X148449999Y-25785999D03*
X148449999Y-24515999D03*
D34*
X136799999Y-30835999D03*
X136799999Y-32235999D03*
X136799999Y-33635999D03*
X138199999Y-30835999D03*
X138199999Y-32235999D03*
X138199999Y-33635999D03*
X139599999Y-30835999D03*
X139599999Y-32235999D03*
X139599999Y-33635999D03*
%TD*%
D35*
%TO.C,Q1*%
X141731999Y-51166000D03*
X141731999Y-51815999D03*
X141731999Y-52465998D03*
X143763999Y-52465998D03*
X143763999Y-51815999D03*
X143763999Y-51166000D03*
%TD*%
D26*
%TO.C,R33*%
X129260499Y-70230999D03*
X130835499Y-70230999D03*
%TD*%
D10*
%TO.C,C9*%
X139370000Y-134112000D03*
X137795000Y-134112000D03*
%TD*%
D26*
%TO.C,R23*%
X129260499Y-64642999D03*
X130835499Y-64642999D03*
%TD*%
%TO.C,R3*%
X120116499Y-45592999D03*
X121691499Y-45592999D03*
%TD*%
D17*
%TO.C,R27*%
X140462000Y-96875500D03*
X140462000Y-98450500D03*
%TD*%
D26*
%TO.C,C6*%
X123037499Y-38480999D03*
X124612499Y-38480999D03*
%TD*%
D17*
%TO.C,C3*%
X155574999Y-69189499D03*
X155574999Y-70764499D03*
%TD*%
%TO.C,R29*%
X132587999Y-60045499D03*
X132587999Y-61620499D03*
%TD*%
%TO.C,R25*%
X137414000Y-96875500D03*
X137414000Y-98450500D03*
%TD*%
D12*
%TO.C,R15*%
X141985999Y-61620499D03*
X141985999Y-60045499D03*
%TD*%
D26*
%TO.C,R2*%
X120116499Y-47116999D03*
X121691499Y-47116999D03*
%TD*%
D17*
%TO.C,R13*%
X145033999Y-60045499D03*
X145033999Y-61620499D03*
%TD*%
D26*
%TO.C,R10*%
X153771499Y-73786999D03*
X155346499Y-73786999D03*
%TD*%
%TO.C,R5*%
X154025499Y-66166999D03*
X155600499Y-66166999D03*
%TD*%
D10*
%TO.C,C13*%
X124104499Y-24002999D03*
X122529499Y-24002999D03*
%TD*%
D36*
%TO.C,J9*%
X150748999Y-56793999D03*
X150748999Y-55693999D03*
X150748999Y-54593999D03*
X150748999Y-53493999D03*
X150748999Y-52393999D03*
X150748999Y-51293999D03*
X150748999Y-50193999D03*
X150748999Y-49093999D03*
D37*
X163448999Y-55393999D03*
D38*
X151248999Y-46993999D03*
D39*
X151248999Y-60343999D03*
D37*
X163448999Y-50493999D03*
D40*
X163548999Y-58443999D03*
%TD*%
D41*
%TO.C,U4*%
X135475000Y-122670000D03*
X136325000Y-122670000D03*
X137375000Y-122670000D03*
X138225000Y-122670000D03*
X139275000Y-122670000D03*
X140125000Y-122670000D03*
X141175000Y-122670000D03*
X142025000Y-122670000D03*
X143075000Y-122670000D03*
X143925000Y-122670000D03*
X135475000Y-121670000D03*
X136325000Y-121670000D03*
X137375000Y-121670000D03*
X138225000Y-121670000D03*
X139275000Y-121670000D03*
X140125000Y-121670000D03*
X141175000Y-121670000D03*
X142025000Y-121670000D03*
X143075000Y-121670000D03*
X143925000Y-121670000D03*
D42*
X132600000Y-119795000D03*
X133600000Y-119795000D03*
X145800000Y-119795000D03*
X146800000Y-119795000D03*
X132600000Y-118945000D03*
X133600000Y-118945000D03*
X145800000Y-118945000D03*
X146800000Y-118945000D03*
X132600000Y-117895000D03*
X133600000Y-117895000D03*
X145800000Y-117895000D03*
X146800000Y-117895000D03*
X132600000Y-117045000D03*
X133600000Y-117045000D03*
X145800000Y-117045000D03*
X146800000Y-117045000D03*
X132600000Y-115995000D03*
X133600000Y-115995000D03*
X145800000Y-115995000D03*
X146800000Y-115995000D03*
X132600000Y-115145000D03*
X133600000Y-115145000D03*
X145800000Y-115145000D03*
X146800000Y-115145000D03*
X132600000Y-114095000D03*
X133600000Y-114095000D03*
X145800000Y-114095000D03*
X146800000Y-114095000D03*
X132600000Y-113245000D03*
X133600000Y-113245000D03*
X145800000Y-113245000D03*
X146800000Y-113245000D03*
X132600000Y-112195000D03*
X133600000Y-112195000D03*
X145800000Y-112195000D03*
X146800000Y-112195000D03*
X132600000Y-111345000D03*
X133600000Y-111345000D03*
X145800000Y-111345000D03*
X146800000Y-111345000D03*
D41*
X135475000Y-109470000D03*
X136325000Y-109470000D03*
X137375000Y-109470000D03*
X138225000Y-109470000D03*
X139275000Y-109470000D03*
X140125000Y-109470000D03*
X141175000Y-109470000D03*
X142025000Y-109470000D03*
X143075000Y-109470000D03*
X143925000Y-109470000D03*
X135475000Y-108470000D03*
X136325000Y-108470000D03*
X137375000Y-108470000D03*
X138225000Y-108470000D03*
X139275000Y-108470000D03*
X140125000Y-108470000D03*
X141175000Y-108470000D03*
X142025000Y-108470000D03*
X143075000Y-108470000D03*
X143925000Y-108470000D03*
%TD*%
D43*
%TO.C,C17*%
X124586999Y-83487499D03*
X124586999Y-81612499D03*
%TD*%
D20*
%TO.C,J5*%
X117008499Y-53704999D03*
X117008499Y-51704999D03*
D21*
X122758499Y-56054999D03*
X122758499Y-49354999D03*
%TD*%
D44*
%TO.C,Q4*%
X133566249Y-93598999D03*
X133566249Y-95498999D03*
X135566249Y-94548999D03*
%TD*%
D17*
%TO.C,R21*%
X163702999Y-38836499D03*
X163702999Y-40411499D03*
%TD*%
M02*
