%TF.GenerationSoftware,KiCad,Pcbnew,9.0.3*%
%TF.CreationDate,2025-12-17T10:26:56-06:00*%
%TF.ProjectId,Cutdown,43757464-6f77-46e2-9e6b-696361645f70,2.3.0*%
%TF.SameCoordinates,Original*%
%TF.FileFunction,Legend,Top*%
%TF.FilePolarity,Positive*%
%FSLAX46Y46*%
G04 Gerber Fmt 4.6, Leading zero omitted, Abs format (unit mm)*
G04 Created by KiCad (PCBNEW 9.0.3) date 2025-12-17 10:26:56*
%MOMM*%
%LPD*%
G01*
G04 APERTURE LIST*
%ADD10C,0.300000*%
%ADD11C,0.150000*%
%ADD12C,0.120000*%
%ADD13C,1.000000*%
%ADD14C,0.500000*%
%ADD15C,0.152400*%
%ADD16C,0.127000*%
%ADD17C,0.063500*%
%ADD18C,0.200000*%
%ADD19C,0.508000*%
%ADD20C,0.000000*%
%ADD21C,0.254000*%
G04 APERTURE END LIST*
D10*
X125851949Y-75169760D02*
X125912425Y-74988331D01*
X125912425Y-74988331D02*
X125912425Y-74685950D01*
X125912425Y-74685950D02*
X125851949Y-74564998D01*
X125851949Y-74564998D02*
X125791472Y-74504522D01*
X125791472Y-74504522D02*
X125670520Y-74444045D01*
X125670520Y-74444045D02*
X125549568Y-74444045D01*
X125549568Y-74444045D02*
X125428615Y-74504522D01*
X125428615Y-74504522D02*
X125368139Y-74564998D01*
X125368139Y-74564998D02*
X125307663Y-74685950D01*
X125307663Y-74685950D02*
X125247187Y-74927855D01*
X125247187Y-74927855D02*
X125186710Y-75048807D01*
X125186710Y-75048807D02*
X125126234Y-75109284D01*
X125126234Y-75109284D02*
X125005282Y-75169760D01*
X125005282Y-75169760D02*
X124884329Y-75169760D01*
X124884329Y-75169760D02*
X124763377Y-75109284D01*
X124763377Y-75109284D02*
X124702901Y-75048807D01*
X124702901Y-75048807D02*
X124642425Y-74927855D01*
X124642425Y-74927855D02*
X124642425Y-74625474D01*
X124642425Y-74625474D02*
X124702901Y-74444045D01*
X125851949Y-73415950D02*
X125912425Y-73536902D01*
X125912425Y-73536902D02*
X125912425Y-73778807D01*
X125912425Y-73778807D02*
X125851949Y-73899760D01*
X125851949Y-73899760D02*
X125730996Y-73960236D01*
X125730996Y-73960236D02*
X125247187Y-73960236D01*
X125247187Y-73960236D02*
X125126234Y-73899760D01*
X125126234Y-73899760D02*
X125065758Y-73778807D01*
X125065758Y-73778807D02*
X125065758Y-73536902D01*
X125065758Y-73536902D02*
X125126234Y-73415950D01*
X125126234Y-73415950D02*
X125247187Y-73355474D01*
X125247187Y-73355474D02*
X125368139Y-73355474D01*
X125368139Y-73355474D02*
X125489091Y-73960236D01*
X125912425Y-72811189D02*
X125065758Y-72811189D01*
X125307663Y-72811189D02*
X125186710Y-72750712D01*
X125186710Y-72750712D02*
X125126234Y-72690236D01*
X125126234Y-72690236D02*
X125065758Y-72569284D01*
X125065758Y-72569284D02*
X125065758Y-72448331D01*
X125912425Y-72024999D02*
X125065758Y-72024999D01*
X124642425Y-72024999D02*
X124702901Y-72085475D01*
X124702901Y-72085475D02*
X124763377Y-72024999D01*
X124763377Y-72024999D02*
X124702901Y-71964522D01*
X124702901Y-71964522D02*
X124642425Y-72024999D01*
X124642425Y-72024999D02*
X124763377Y-72024999D01*
X125912425Y-70875951D02*
X125247187Y-70875951D01*
X125247187Y-70875951D02*
X125126234Y-70936427D01*
X125126234Y-70936427D02*
X125065758Y-71057379D01*
X125065758Y-71057379D02*
X125065758Y-71299284D01*
X125065758Y-71299284D02*
X125126234Y-71420237D01*
X125851949Y-70875951D02*
X125912425Y-70996903D01*
X125912425Y-70996903D02*
X125912425Y-71299284D01*
X125912425Y-71299284D02*
X125851949Y-71420237D01*
X125851949Y-71420237D02*
X125730996Y-71480713D01*
X125730996Y-71480713D02*
X125610044Y-71480713D01*
X125610044Y-71480713D02*
X125489091Y-71420237D01*
X125489091Y-71420237D02*
X125428615Y-71299284D01*
X125428615Y-71299284D02*
X125428615Y-70996903D01*
X125428615Y-70996903D02*
X125368139Y-70875951D01*
X125912425Y-70089760D02*
X125851949Y-70210712D01*
X125851949Y-70210712D02*
X125730996Y-70271189D01*
X125730996Y-70271189D02*
X124642425Y-70271189D01*
X156262883Y-128796142D02*
X156262883Y-129763762D01*
X155779073Y-129279952D02*
X156746692Y-129279952D01*
X155779073Y-130429000D02*
X155779073Y-130670904D01*
X155779073Y-130670904D02*
X155839550Y-130791857D01*
X155839550Y-130791857D02*
X155900026Y-130852333D01*
X155900026Y-130852333D02*
X156081454Y-130973285D01*
X156081454Y-130973285D02*
X156323359Y-131033762D01*
X156323359Y-131033762D02*
X156807169Y-131033762D01*
X156807169Y-131033762D02*
X156928121Y-130973285D01*
X156928121Y-130973285D02*
X156988597Y-130912809D01*
X156988597Y-130912809D02*
X157049073Y-130791857D01*
X157049073Y-130791857D02*
X157049073Y-130549952D01*
X157049073Y-130549952D02*
X156988597Y-130429000D01*
X156988597Y-130429000D02*
X156928121Y-130368523D01*
X156928121Y-130368523D02*
X156807169Y-130308047D01*
X156807169Y-130308047D02*
X156504788Y-130308047D01*
X156504788Y-130308047D02*
X156383835Y-130368523D01*
X156383835Y-130368523D02*
X156323359Y-130429000D01*
X156323359Y-130429000D02*
X156262883Y-130549952D01*
X156262883Y-130549952D02*
X156262883Y-130791857D01*
X156262883Y-130791857D02*
X156323359Y-130912809D01*
X156323359Y-130912809D02*
X156383835Y-130973285D01*
X156383835Y-130973285D02*
X156504788Y-131033762D01*
X157049073Y-131396619D02*
X155779073Y-131819952D01*
X155779073Y-131819952D02*
X157049073Y-132243286D01*
X122551550Y-127870857D02*
X122491073Y-128052286D01*
X122491073Y-128052286D02*
X122491073Y-128354667D01*
X122491073Y-128354667D02*
X122551550Y-128475619D01*
X122551550Y-128475619D02*
X122612026Y-128536095D01*
X122612026Y-128536095D02*
X122732978Y-128596572D01*
X122732978Y-128596572D02*
X122853930Y-128596572D01*
X122853930Y-128596572D02*
X122974883Y-128536095D01*
X122974883Y-128536095D02*
X123035359Y-128475619D01*
X123035359Y-128475619D02*
X123095835Y-128354667D01*
X123095835Y-128354667D02*
X123156311Y-128112762D01*
X123156311Y-128112762D02*
X123216788Y-127991810D01*
X123216788Y-127991810D02*
X123277264Y-127931333D01*
X123277264Y-127931333D02*
X123398216Y-127870857D01*
X123398216Y-127870857D02*
X123519169Y-127870857D01*
X123519169Y-127870857D02*
X123640121Y-127931333D01*
X123640121Y-127931333D02*
X123700597Y-127991810D01*
X123700597Y-127991810D02*
X123761073Y-128112762D01*
X123761073Y-128112762D02*
X123761073Y-128415143D01*
X123761073Y-128415143D02*
X123700597Y-128596572D01*
X123337740Y-129019905D02*
X122491073Y-129261810D01*
X122491073Y-129261810D02*
X123095835Y-129503715D01*
X123095835Y-129503715D02*
X122491073Y-129745619D01*
X122491073Y-129745619D02*
X123337740Y-129987524D01*
X122491073Y-130471333D02*
X123337740Y-130471333D01*
X123761073Y-130471333D02*
X123700597Y-130410857D01*
X123700597Y-130410857D02*
X123640121Y-130471333D01*
X123640121Y-130471333D02*
X123700597Y-130531810D01*
X123700597Y-130531810D02*
X123761073Y-130471333D01*
X123761073Y-130471333D02*
X123640121Y-130471333D01*
X123337740Y-130894667D02*
X123337740Y-131378476D01*
X123761073Y-131076095D02*
X122672502Y-131076095D01*
X122672502Y-131076095D02*
X122551550Y-131136572D01*
X122551550Y-131136572D02*
X122491073Y-131257524D01*
X122491073Y-131257524D02*
X122491073Y-131378476D01*
X122551550Y-132346095D02*
X122491073Y-132225143D01*
X122491073Y-132225143D02*
X122491073Y-131983238D01*
X122491073Y-131983238D02*
X122551550Y-131862286D01*
X122551550Y-131862286D02*
X122612026Y-131801809D01*
X122612026Y-131801809D02*
X122732978Y-131741333D01*
X122732978Y-131741333D02*
X123095835Y-131741333D01*
X123095835Y-131741333D02*
X123216788Y-131801809D01*
X123216788Y-131801809D02*
X123277264Y-131862286D01*
X123277264Y-131862286D02*
X123337740Y-131983238D01*
X123337740Y-131983238D02*
X123337740Y-132225143D01*
X123337740Y-132225143D02*
X123277264Y-132346095D01*
X122491073Y-132890380D02*
X123761073Y-132890380D01*
X122491073Y-133434666D02*
X123156311Y-133434666D01*
X123156311Y-133434666D02*
X123277264Y-133374190D01*
X123277264Y-133374190D02*
X123337740Y-133253238D01*
X123337740Y-133253238D02*
X123337740Y-133071809D01*
X123337740Y-133071809D02*
X123277264Y-132950857D01*
X123277264Y-132950857D02*
X123216788Y-132890380D01*
X157035925Y-67642618D02*
X158064020Y-67642618D01*
X158064020Y-67642618D02*
X158184972Y-67582141D01*
X158184972Y-67582141D02*
X158245449Y-67521665D01*
X158245449Y-67521665D02*
X158305925Y-67400713D01*
X158305925Y-67400713D02*
X158305925Y-67158808D01*
X158305925Y-67158808D02*
X158245449Y-67037856D01*
X158245449Y-67037856D02*
X158184972Y-66977379D01*
X158184972Y-66977379D02*
X158064020Y-66916903D01*
X158064020Y-66916903D02*
X157035925Y-66916903D01*
X158245449Y-66372618D02*
X158305925Y-66191189D01*
X158305925Y-66191189D02*
X158305925Y-65888808D01*
X158305925Y-65888808D02*
X158245449Y-65767856D01*
X158245449Y-65767856D02*
X158184972Y-65707380D01*
X158184972Y-65707380D02*
X158064020Y-65646903D01*
X158064020Y-65646903D02*
X157943068Y-65646903D01*
X157943068Y-65646903D02*
X157822115Y-65707380D01*
X157822115Y-65707380D02*
X157761639Y-65767856D01*
X157761639Y-65767856D02*
X157701163Y-65888808D01*
X157701163Y-65888808D02*
X157640687Y-66130713D01*
X157640687Y-66130713D02*
X157580210Y-66251665D01*
X157580210Y-66251665D02*
X157519734Y-66312142D01*
X157519734Y-66312142D02*
X157398782Y-66372618D01*
X157398782Y-66372618D02*
X157277829Y-66372618D01*
X157277829Y-66372618D02*
X157156877Y-66312142D01*
X157156877Y-66312142D02*
X157096401Y-66251665D01*
X157096401Y-66251665D02*
X157035925Y-66130713D01*
X157035925Y-66130713D02*
X157035925Y-65828332D01*
X157035925Y-65828332D02*
X157096401Y-65646903D01*
X157640687Y-64679284D02*
X157701163Y-64497856D01*
X157701163Y-64497856D02*
X157761639Y-64437379D01*
X157761639Y-64437379D02*
X157882591Y-64376903D01*
X157882591Y-64376903D02*
X158064020Y-64376903D01*
X158064020Y-64376903D02*
X158184972Y-64437379D01*
X158184972Y-64437379D02*
X158245449Y-64497856D01*
X158245449Y-64497856D02*
X158305925Y-64618808D01*
X158305925Y-64618808D02*
X158305925Y-65102618D01*
X158305925Y-65102618D02*
X157035925Y-65102618D01*
X157035925Y-65102618D02*
X157035925Y-64679284D01*
X157035925Y-64679284D02*
X157096401Y-64558332D01*
X157096401Y-64558332D02*
X157156877Y-64497856D01*
X157156877Y-64497856D02*
X157277829Y-64437379D01*
X157277829Y-64437379D02*
X157398782Y-64437379D01*
X157398782Y-64437379D02*
X157519734Y-64497856D01*
X157519734Y-64497856D02*
X157580210Y-64558332D01*
X157580210Y-64558332D02*
X157640687Y-64679284D01*
X157640687Y-64679284D02*
X157640687Y-65102618D01*
X125226187Y-54670475D02*
X125226187Y-54247141D01*
X125891425Y-54065713D02*
X125891425Y-54670475D01*
X125891425Y-54670475D02*
X124621425Y-54670475D01*
X124621425Y-54670475D02*
X124621425Y-54065713D01*
X124621425Y-53642379D02*
X125891425Y-52795712D01*
X124621425Y-52795712D02*
X125891425Y-53642379D01*
X124621425Y-52493331D02*
X124621425Y-51767617D01*
X125891425Y-52130474D02*
X124621425Y-52130474D01*
X125891425Y-50679045D02*
X125891425Y-51404760D01*
X125891425Y-51041903D02*
X124621425Y-51041903D01*
X124621425Y-51041903D02*
X124802853Y-51162855D01*
X124802853Y-51162855D02*
X124923806Y-51283807D01*
X124923806Y-51283807D02*
X124984282Y-51404760D01*
X126615550Y-127870857D02*
X126555073Y-128052286D01*
X126555073Y-128052286D02*
X126555073Y-128354667D01*
X126555073Y-128354667D02*
X126615550Y-128475619D01*
X126615550Y-128475619D02*
X126676026Y-128536095D01*
X126676026Y-128536095D02*
X126796978Y-128596572D01*
X126796978Y-128596572D02*
X126917930Y-128596572D01*
X126917930Y-128596572D02*
X127038883Y-128536095D01*
X127038883Y-128536095D02*
X127099359Y-128475619D01*
X127099359Y-128475619D02*
X127159835Y-128354667D01*
X127159835Y-128354667D02*
X127220311Y-128112762D01*
X127220311Y-128112762D02*
X127280788Y-127991810D01*
X127280788Y-127991810D02*
X127341264Y-127931333D01*
X127341264Y-127931333D02*
X127462216Y-127870857D01*
X127462216Y-127870857D02*
X127583169Y-127870857D01*
X127583169Y-127870857D02*
X127704121Y-127931333D01*
X127704121Y-127931333D02*
X127764597Y-127991810D01*
X127764597Y-127991810D02*
X127825073Y-128112762D01*
X127825073Y-128112762D02*
X127825073Y-128415143D01*
X127825073Y-128415143D02*
X127764597Y-128596572D01*
X127401740Y-129019905D02*
X126555073Y-129261810D01*
X126555073Y-129261810D02*
X127159835Y-129503715D01*
X127159835Y-129503715D02*
X126555073Y-129745619D01*
X126555073Y-129745619D02*
X127401740Y-129987524D01*
X126555073Y-130471333D02*
X127401740Y-130471333D01*
X127825073Y-130471333D02*
X127764597Y-130410857D01*
X127764597Y-130410857D02*
X127704121Y-130471333D01*
X127704121Y-130471333D02*
X127764597Y-130531810D01*
X127764597Y-130531810D02*
X127825073Y-130471333D01*
X127825073Y-130471333D02*
X127704121Y-130471333D01*
X127401740Y-130894667D02*
X127401740Y-131378476D01*
X127825073Y-131076095D02*
X126736502Y-131076095D01*
X126736502Y-131076095D02*
X126615550Y-131136572D01*
X126615550Y-131136572D02*
X126555073Y-131257524D01*
X126555073Y-131257524D02*
X126555073Y-131378476D01*
X126615550Y-132346095D02*
X126555073Y-132225143D01*
X126555073Y-132225143D02*
X126555073Y-131983238D01*
X126555073Y-131983238D02*
X126615550Y-131862286D01*
X126615550Y-131862286D02*
X126676026Y-131801809D01*
X126676026Y-131801809D02*
X126796978Y-131741333D01*
X126796978Y-131741333D02*
X127159835Y-131741333D01*
X127159835Y-131741333D02*
X127280788Y-131801809D01*
X127280788Y-131801809D02*
X127341264Y-131862286D01*
X127341264Y-131862286D02*
X127401740Y-131983238D01*
X127401740Y-131983238D02*
X127401740Y-132225143D01*
X127401740Y-132225143D02*
X127341264Y-132346095D01*
X126555073Y-132890380D02*
X127825073Y-132890380D01*
X126555073Y-133434666D02*
X127220311Y-133434666D01*
X127220311Y-133434666D02*
X127341264Y-133374190D01*
X127341264Y-133374190D02*
X127401740Y-133253238D01*
X127401740Y-133253238D02*
X127401740Y-133071809D01*
X127401740Y-133071809D02*
X127341264Y-132950857D01*
X127341264Y-132950857D02*
X127280788Y-132890380D01*
X125226187Y-63687475D02*
X125226187Y-63264141D01*
X125891425Y-63082713D02*
X125891425Y-63687475D01*
X125891425Y-63687475D02*
X124621425Y-63687475D01*
X124621425Y-63687475D02*
X124621425Y-63082713D01*
X124621425Y-62659379D02*
X125891425Y-61812712D01*
X124621425Y-61812712D02*
X125891425Y-62659379D01*
X124621425Y-61510331D02*
X124621425Y-60784617D01*
X125891425Y-61147474D02*
X124621425Y-61147474D01*
X124742377Y-60421760D02*
X124681901Y-60361284D01*
X124681901Y-60361284D02*
X124621425Y-60240331D01*
X124621425Y-60240331D02*
X124621425Y-59937950D01*
X124621425Y-59937950D02*
X124681901Y-59816998D01*
X124681901Y-59816998D02*
X124742377Y-59756522D01*
X124742377Y-59756522D02*
X124863329Y-59696045D01*
X124863329Y-59696045D02*
X124984282Y-59696045D01*
X124984282Y-59696045D02*
X125165710Y-59756522D01*
X125165710Y-59756522D02*
X125891425Y-60482236D01*
X125891425Y-60482236D02*
X125891425Y-59696045D01*
X152924597Y-129461381D02*
X152985073Y-129340428D01*
X152985073Y-129340428D02*
X152985073Y-129159000D01*
X152985073Y-129159000D02*
X152924597Y-128977571D01*
X152924597Y-128977571D02*
X152803645Y-128856619D01*
X152803645Y-128856619D02*
X152682692Y-128796142D01*
X152682692Y-128796142D02*
X152440788Y-128735666D01*
X152440788Y-128735666D02*
X152259359Y-128735666D01*
X152259359Y-128735666D02*
X152017454Y-128796142D01*
X152017454Y-128796142D02*
X151896502Y-128856619D01*
X151896502Y-128856619D02*
X151775550Y-128977571D01*
X151775550Y-128977571D02*
X151715073Y-129159000D01*
X151715073Y-129159000D02*
X151715073Y-129279952D01*
X151715073Y-129279952D02*
X151775550Y-129461381D01*
X151775550Y-129461381D02*
X151836026Y-129521857D01*
X151836026Y-129521857D02*
X152259359Y-129521857D01*
X152259359Y-129521857D02*
X152259359Y-129279952D01*
X151715073Y-130066142D02*
X152985073Y-130066142D01*
X152985073Y-130066142D02*
X151715073Y-130791857D01*
X151715073Y-130791857D02*
X152985073Y-130791857D01*
X151715073Y-131396618D02*
X152985073Y-131396618D01*
X152985073Y-131396618D02*
X152985073Y-131698999D01*
X152985073Y-131698999D02*
X152924597Y-131880428D01*
X152924597Y-131880428D02*
X152803645Y-132001380D01*
X152803645Y-132001380D02*
X152682692Y-132061857D01*
X152682692Y-132061857D02*
X152440788Y-132122333D01*
X152440788Y-132122333D02*
X152259359Y-132122333D01*
X152259359Y-132122333D02*
X152017454Y-132061857D01*
X152017454Y-132061857D02*
X151896502Y-132001380D01*
X151896502Y-132001380D02*
X151775550Y-131880428D01*
X151775550Y-131880428D02*
X151715073Y-131698999D01*
X151715073Y-131698999D02*
X151715073Y-131396618D01*
D11*
X153408141Y-44428579D02*
X153360522Y-44476199D01*
X153360522Y-44476199D02*
X153217665Y-44523818D01*
X153217665Y-44523818D02*
X153122427Y-44523818D01*
X153122427Y-44523818D02*
X152979570Y-44476199D01*
X152979570Y-44476199D02*
X152884332Y-44380960D01*
X152884332Y-44380960D02*
X152836713Y-44285722D01*
X152836713Y-44285722D02*
X152789094Y-44095246D01*
X152789094Y-44095246D02*
X152789094Y-43952389D01*
X152789094Y-43952389D02*
X152836713Y-43761913D01*
X152836713Y-43761913D02*
X152884332Y-43666675D01*
X152884332Y-43666675D02*
X152979570Y-43571437D01*
X152979570Y-43571437D02*
X153122427Y-43523818D01*
X153122427Y-43523818D02*
X153217665Y-43523818D01*
X153217665Y-43523818D02*
X153360522Y-43571437D01*
X153360522Y-43571437D02*
X153408141Y-43619056D01*
X154360522Y-44523818D02*
X153789094Y-44523818D01*
X154074808Y-44523818D02*
X154074808Y-43523818D01*
X154074808Y-43523818D02*
X153979570Y-43666675D01*
X153979570Y-43666675D02*
X153884332Y-43761913D01*
X153884332Y-43761913D02*
X153789094Y-43809532D01*
X155217665Y-43857151D02*
X155217665Y-44523818D01*
X154979570Y-43476199D02*
X154741475Y-44190484D01*
X154741475Y-44190484D02*
X155360522Y-44190484D01*
X140569579Y-88018856D02*
X140617199Y-88066475D01*
X140617199Y-88066475D02*
X140664818Y-88209332D01*
X140664818Y-88209332D02*
X140664818Y-88304570D01*
X140664818Y-88304570D02*
X140617199Y-88447427D01*
X140617199Y-88447427D02*
X140521960Y-88542665D01*
X140521960Y-88542665D02*
X140426722Y-88590284D01*
X140426722Y-88590284D02*
X140236246Y-88637903D01*
X140236246Y-88637903D02*
X140093389Y-88637903D01*
X140093389Y-88637903D02*
X139902913Y-88590284D01*
X139902913Y-88590284D02*
X139807675Y-88542665D01*
X139807675Y-88542665D02*
X139712437Y-88447427D01*
X139712437Y-88447427D02*
X139664818Y-88304570D01*
X139664818Y-88304570D02*
X139664818Y-88209332D01*
X139664818Y-88209332D02*
X139712437Y-88066475D01*
X139712437Y-88066475D02*
X139760056Y-88018856D01*
X140664818Y-87066475D02*
X140664818Y-87637903D01*
X140664818Y-87352189D02*
X139664818Y-87352189D01*
X139664818Y-87352189D02*
X139807675Y-87447427D01*
X139807675Y-87447427D02*
X139902913Y-87542665D01*
X139902913Y-87542665D02*
X139950532Y-87637903D01*
X139664818Y-86161713D02*
X139664818Y-86637903D01*
X139664818Y-86637903D02*
X140141008Y-86685522D01*
X140141008Y-86685522D02*
X140093389Y-86637903D01*
X140093389Y-86637903D02*
X140045770Y-86542665D01*
X140045770Y-86542665D02*
X140045770Y-86304570D01*
X140045770Y-86304570D02*
X140093389Y-86209332D01*
X140093389Y-86209332D02*
X140141008Y-86161713D01*
X140141008Y-86161713D02*
X140236246Y-86114094D01*
X140236246Y-86114094D02*
X140474341Y-86114094D01*
X140474341Y-86114094D02*
X140569579Y-86161713D01*
X140569579Y-86161713D02*
X140617199Y-86209332D01*
X140617199Y-86209332D02*
X140664818Y-86304570D01*
X140664818Y-86304570D02*
X140664818Y-86542665D01*
X140664818Y-86542665D02*
X140617199Y-86637903D01*
X140617199Y-86637903D02*
X140569579Y-86685522D01*
X120904094Y-79464818D02*
X120904094Y-80274341D01*
X120904094Y-80274341D02*
X120951713Y-80369579D01*
X120951713Y-80369579D02*
X120999332Y-80417199D01*
X120999332Y-80417199D02*
X121094570Y-80464818D01*
X121094570Y-80464818D02*
X121285046Y-80464818D01*
X121285046Y-80464818D02*
X121380284Y-80417199D01*
X121380284Y-80417199D02*
X121427903Y-80369579D01*
X121427903Y-80369579D02*
X121475522Y-80274341D01*
X121475522Y-80274341D02*
X121475522Y-79464818D01*
X121856475Y-79464818D02*
X122523141Y-79464818D01*
X122523141Y-79464818D02*
X122094570Y-80464818D01*
X145361818Y-55633856D02*
X144885627Y-55967189D01*
X145361818Y-56205284D02*
X144361818Y-56205284D01*
X144361818Y-56205284D02*
X144361818Y-55824332D01*
X144361818Y-55824332D02*
X144409437Y-55729094D01*
X144409437Y-55729094D02*
X144457056Y-55681475D01*
X144457056Y-55681475D02*
X144552294Y-55633856D01*
X144552294Y-55633856D02*
X144695151Y-55633856D01*
X144695151Y-55633856D02*
X144790389Y-55681475D01*
X144790389Y-55681475D02*
X144838008Y-55729094D01*
X144838008Y-55729094D02*
X144885627Y-55824332D01*
X144885627Y-55824332D02*
X144885627Y-56205284D01*
X145361818Y-54681475D02*
X145361818Y-55252903D01*
X145361818Y-54967189D02*
X144361818Y-54967189D01*
X144361818Y-54967189D02*
X144504675Y-55062427D01*
X144504675Y-55062427D02*
X144599913Y-55157665D01*
X144599913Y-55157665D02*
X144647532Y-55252903D01*
X144361818Y-54348141D02*
X144361818Y-53681475D01*
X144361818Y-53681475D02*
X145361818Y-54110046D01*
X129232818Y-88018856D02*
X128756627Y-88352189D01*
X129232818Y-88590284D02*
X128232818Y-88590284D01*
X128232818Y-88590284D02*
X128232818Y-88209332D01*
X128232818Y-88209332D02*
X128280437Y-88114094D01*
X128280437Y-88114094D02*
X128328056Y-88066475D01*
X128328056Y-88066475D02*
X128423294Y-88018856D01*
X128423294Y-88018856D02*
X128566151Y-88018856D01*
X128566151Y-88018856D02*
X128661389Y-88066475D01*
X128661389Y-88066475D02*
X128709008Y-88114094D01*
X128709008Y-88114094D02*
X128756627Y-88209332D01*
X128756627Y-88209332D02*
X128756627Y-88590284D01*
X128328056Y-87637903D02*
X128280437Y-87590284D01*
X128280437Y-87590284D02*
X128232818Y-87495046D01*
X128232818Y-87495046D02*
X128232818Y-87256951D01*
X128232818Y-87256951D02*
X128280437Y-87161713D01*
X128280437Y-87161713D02*
X128328056Y-87114094D01*
X128328056Y-87114094D02*
X128423294Y-87066475D01*
X128423294Y-87066475D02*
X128518532Y-87066475D01*
X128518532Y-87066475D02*
X128661389Y-87114094D01*
X128661389Y-87114094D02*
X129232818Y-87685522D01*
X129232818Y-87685522D02*
X129232818Y-87066475D01*
X129232818Y-86590284D02*
X129232818Y-86399808D01*
X129232818Y-86399808D02*
X129185199Y-86304570D01*
X129185199Y-86304570D02*
X129137579Y-86256951D01*
X129137579Y-86256951D02*
X128994722Y-86161713D01*
X128994722Y-86161713D02*
X128804246Y-86114094D01*
X128804246Y-86114094D02*
X128423294Y-86114094D01*
X128423294Y-86114094D02*
X128328056Y-86161713D01*
X128328056Y-86161713D02*
X128280437Y-86209332D01*
X128280437Y-86209332D02*
X128232818Y-86304570D01*
X128232818Y-86304570D02*
X128232818Y-86495046D01*
X128232818Y-86495046D02*
X128280437Y-86590284D01*
X128280437Y-86590284D02*
X128328056Y-86637903D01*
X128328056Y-86637903D02*
X128423294Y-86685522D01*
X128423294Y-86685522D02*
X128661389Y-86685522D01*
X128661389Y-86685522D02*
X128756627Y-86637903D01*
X128756627Y-86637903D02*
X128804246Y-86590284D01*
X128804246Y-86590284D02*
X128851865Y-86495046D01*
X128851865Y-86495046D02*
X128851865Y-86304570D01*
X128851865Y-86304570D02*
X128804246Y-86209332D01*
X128804246Y-86209332D02*
X128756627Y-86161713D01*
X128756627Y-86161713D02*
X128661389Y-86114094D01*
X124922041Y-87458678D02*
X124874422Y-87506298D01*
X124874422Y-87506298D02*
X124731565Y-87553917D01*
X124731565Y-87553917D02*
X124636327Y-87553917D01*
X124636327Y-87553917D02*
X124493470Y-87506298D01*
X124493470Y-87506298D02*
X124398232Y-87411059D01*
X124398232Y-87411059D02*
X124350613Y-87315821D01*
X124350613Y-87315821D02*
X124302994Y-87125345D01*
X124302994Y-87125345D02*
X124302994Y-86982488D01*
X124302994Y-86982488D02*
X124350613Y-86792012D01*
X124350613Y-86792012D02*
X124398232Y-86696774D01*
X124398232Y-86696774D02*
X124493470Y-86601536D01*
X124493470Y-86601536D02*
X124636327Y-86553917D01*
X124636327Y-86553917D02*
X124731565Y-86553917D01*
X124731565Y-86553917D02*
X124874422Y-86601536D01*
X124874422Y-86601536D02*
X124922041Y-86649155D01*
X125874422Y-87553917D02*
X125302994Y-87553917D01*
X125588708Y-87553917D02*
X125588708Y-86553917D01*
X125588708Y-86553917D02*
X125493470Y-86696774D01*
X125493470Y-86696774D02*
X125398232Y-86792012D01*
X125398232Y-86792012D02*
X125302994Y-86839631D01*
X126731565Y-86553917D02*
X126541089Y-86553917D01*
X126541089Y-86553917D02*
X126445851Y-86601536D01*
X126445851Y-86601536D02*
X126398232Y-86649155D01*
X126398232Y-86649155D02*
X126302994Y-86792012D01*
X126302994Y-86792012D02*
X126255375Y-86982488D01*
X126255375Y-86982488D02*
X126255375Y-87363440D01*
X126255375Y-87363440D02*
X126302994Y-87458678D01*
X126302994Y-87458678D02*
X126350613Y-87506298D01*
X126350613Y-87506298D02*
X126445851Y-87553917D01*
X126445851Y-87553917D02*
X126636327Y-87553917D01*
X126636327Y-87553917D02*
X126731565Y-87506298D01*
X126731565Y-87506298D02*
X126779184Y-87458678D01*
X126779184Y-87458678D02*
X126826803Y-87363440D01*
X126826803Y-87363440D02*
X126826803Y-87125345D01*
X126826803Y-87125345D02*
X126779184Y-87030107D01*
X126779184Y-87030107D02*
X126731565Y-86982488D01*
X126731565Y-86982488D02*
X126636327Y-86934869D01*
X126636327Y-86934869D02*
X126445851Y-86934869D01*
X126445851Y-86934869D02*
X126350613Y-86982488D01*
X126350613Y-86982488D02*
X126302994Y-87030107D01*
X126302994Y-87030107D02*
X126255375Y-87125345D01*
X119753141Y-30553818D02*
X119419808Y-30077627D01*
X119181713Y-30553818D02*
X119181713Y-29553818D01*
X119181713Y-29553818D02*
X119562665Y-29553818D01*
X119562665Y-29553818D02*
X119657903Y-29601437D01*
X119657903Y-29601437D02*
X119705522Y-29649056D01*
X119705522Y-29649056D02*
X119753141Y-29744294D01*
X119753141Y-29744294D02*
X119753141Y-29887151D01*
X119753141Y-29887151D02*
X119705522Y-29982389D01*
X119705522Y-29982389D02*
X119657903Y-30030008D01*
X119657903Y-30030008D02*
X119562665Y-30077627D01*
X119562665Y-30077627D02*
X119181713Y-30077627D01*
X120134094Y-29649056D02*
X120181713Y-29601437D01*
X120181713Y-29601437D02*
X120276951Y-29553818D01*
X120276951Y-29553818D02*
X120515046Y-29553818D01*
X120515046Y-29553818D02*
X120610284Y-29601437D01*
X120610284Y-29601437D02*
X120657903Y-29649056D01*
X120657903Y-29649056D02*
X120705522Y-29744294D01*
X120705522Y-29744294D02*
X120705522Y-29839532D01*
X120705522Y-29839532D02*
X120657903Y-29982389D01*
X120657903Y-29982389D02*
X120086475Y-30553818D01*
X120086475Y-30553818D02*
X120705522Y-30553818D01*
X121086475Y-29649056D02*
X121134094Y-29601437D01*
X121134094Y-29601437D02*
X121229332Y-29553818D01*
X121229332Y-29553818D02*
X121467427Y-29553818D01*
X121467427Y-29553818D02*
X121562665Y-29601437D01*
X121562665Y-29601437D02*
X121610284Y-29649056D01*
X121610284Y-29649056D02*
X121657903Y-29744294D01*
X121657903Y-29744294D02*
X121657903Y-29839532D01*
X121657903Y-29839532D02*
X121610284Y-29982389D01*
X121610284Y-29982389D02*
X121038856Y-30553818D01*
X121038856Y-30553818D02*
X121657903Y-30553818D01*
X122439580Y-112555357D02*
X122487200Y-112602976D01*
X122487200Y-112602976D02*
X122534819Y-112745833D01*
X122534819Y-112745833D02*
X122534819Y-112841071D01*
X122534819Y-112841071D02*
X122487200Y-112983928D01*
X122487200Y-112983928D02*
X122391961Y-113079166D01*
X122391961Y-113079166D02*
X122296723Y-113126785D01*
X122296723Y-113126785D02*
X122106247Y-113174404D01*
X122106247Y-113174404D02*
X121963390Y-113174404D01*
X121963390Y-113174404D02*
X121772914Y-113126785D01*
X121772914Y-113126785D02*
X121677676Y-113079166D01*
X121677676Y-113079166D02*
X121582438Y-112983928D01*
X121582438Y-112983928D02*
X121534819Y-112841071D01*
X121534819Y-112841071D02*
X121534819Y-112745833D01*
X121534819Y-112745833D02*
X121582438Y-112602976D01*
X121582438Y-112602976D02*
X121630057Y-112555357D01*
X122534819Y-111602976D02*
X122534819Y-112174404D01*
X122534819Y-111888690D02*
X121534819Y-111888690D01*
X121534819Y-111888690D02*
X121677676Y-111983928D01*
X121677676Y-111983928D02*
X121772914Y-112079166D01*
X121772914Y-112079166D02*
X121820533Y-112174404D01*
X121534819Y-110983928D02*
X121534819Y-110888690D01*
X121534819Y-110888690D02*
X121582438Y-110793452D01*
X121582438Y-110793452D02*
X121630057Y-110745833D01*
X121630057Y-110745833D02*
X121725295Y-110698214D01*
X121725295Y-110698214D02*
X121915771Y-110650595D01*
X121915771Y-110650595D02*
X122153866Y-110650595D01*
X122153866Y-110650595D02*
X122344342Y-110698214D01*
X122344342Y-110698214D02*
X122439580Y-110745833D01*
X122439580Y-110745833D02*
X122487200Y-110793452D01*
X122487200Y-110793452D02*
X122534819Y-110888690D01*
X122534819Y-110888690D02*
X122534819Y-110983928D01*
X122534819Y-110983928D02*
X122487200Y-111079166D01*
X122487200Y-111079166D02*
X122439580Y-111126785D01*
X122439580Y-111126785D02*
X122344342Y-111174404D01*
X122344342Y-111174404D02*
X122153866Y-111222023D01*
X122153866Y-111222023D02*
X121915771Y-111222023D01*
X121915771Y-111222023D02*
X121725295Y-111174404D01*
X121725295Y-111174404D02*
X121630057Y-111126785D01*
X121630057Y-111126785D02*
X121582438Y-111079166D01*
X121582438Y-111079166D02*
X121534819Y-110983928D01*
X117879904Y-38935818D02*
X117879904Y-37935818D01*
X117879904Y-37935818D02*
X118117999Y-37935818D01*
X118117999Y-37935818D02*
X118260856Y-37983437D01*
X118260856Y-37983437D02*
X118356094Y-38078675D01*
X118356094Y-38078675D02*
X118403713Y-38173913D01*
X118403713Y-38173913D02*
X118451332Y-38364389D01*
X118451332Y-38364389D02*
X118451332Y-38507246D01*
X118451332Y-38507246D02*
X118403713Y-38697722D01*
X118403713Y-38697722D02*
X118356094Y-38792960D01*
X118356094Y-38792960D02*
X118260856Y-38888199D01*
X118260856Y-38888199D02*
X118117999Y-38935818D01*
X118117999Y-38935818D02*
X117879904Y-38935818D01*
X119403713Y-38935818D02*
X118832285Y-38935818D01*
X119117999Y-38935818D02*
X119117999Y-37935818D01*
X119117999Y-37935818D02*
X119022761Y-38078675D01*
X119022761Y-38078675D02*
X118927523Y-38173913D01*
X118927523Y-38173913D02*
X118832285Y-38221532D01*
X137741818Y-91543093D02*
X136741818Y-91543093D01*
X136741818Y-91543093D02*
X136741818Y-91304998D01*
X136741818Y-91304998D02*
X136789437Y-91162141D01*
X136789437Y-91162141D02*
X136884675Y-91066903D01*
X136884675Y-91066903D02*
X136979913Y-91019284D01*
X136979913Y-91019284D02*
X137170389Y-90971665D01*
X137170389Y-90971665D02*
X137313246Y-90971665D01*
X137313246Y-90971665D02*
X137503722Y-91019284D01*
X137503722Y-91019284D02*
X137598960Y-91066903D01*
X137598960Y-91066903D02*
X137694199Y-91162141D01*
X137694199Y-91162141D02*
X137741818Y-91304998D01*
X137741818Y-91304998D02*
X137741818Y-91543093D01*
X137075151Y-90114522D02*
X137741818Y-90114522D01*
X136694199Y-90352617D02*
X137408484Y-90590712D01*
X137408484Y-90590712D02*
X137408484Y-89971665D01*
X148441579Y-58459665D02*
X148489199Y-58507284D01*
X148489199Y-58507284D02*
X148536818Y-58650141D01*
X148536818Y-58650141D02*
X148536818Y-58745379D01*
X148536818Y-58745379D02*
X148489199Y-58888236D01*
X148489199Y-58888236D02*
X148393960Y-58983474D01*
X148393960Y-58983474D02*
X148298722Y-59031093D01*
X148298722Y-59031093D02*
X148108246Y-59078712D01*
X148108246Y-59078712D02*
X147965389Y-59078712D01*
X147965389Y-59078712D02*
X147774913Y-59031093D01*
X147774913Y-59031093D02*
X147679675Y-58983474D01*
X147679675Y-58983474D02*
X147584437Y-58888236D01*
X147584437Y-58888236D02*
X147536818Y-58745379D01*
X147536818Y-58745379D02*
X147536818Y-58650141D01*
X147536818Y-58650141D02*
X147584437Y-58507284D01*
X147584437Y-58507284D02*
X147632056Y-58459665D01*
X147536818Y-57554903D02*
X147536818Y-58031093D01*
X147536818Y-58031093D02*
X148013008Y-58078712D01*
X148013008Y-58078712D02*
X147965389Y-58031093D01*
X147965389Y-58031093D02*
X147917770Y-57935855D01*
X147917770Y-57935855D02*
X147917770Y-57697760D01*
X147917770Y-57697760D02*
X147965389Y-57602522D01*
X147965389Y-57602522D02*
X148013008Y-57554903D01*
X148013008Y-57554903D02*
X148108246Y-57507284D01*
X148108246Y-57507284D02*
X148346341Y-57507284D01*
X148346341Y-57507284D02*
X148441579Y-57554903D01*
X148441579Y-57554903D02*
X148489199Y-57602522D01*
X148489199Y-57602522D02*
X148536818Y-57697760D01*
X148536818Y-57697760D02*
X148536818Y-57935855D01*
X148536818Y-57935855D02*
X148489199Y-58031093D01*
X148489199Y-58031093D02*
X148441579Y-58078712D01*
X129637154Y-98051818D02*
X129637154Y-97051818D01*
X129637154Y-97051818D02*
X129875249Y-97051818D01*
X129875249Y-97051818D02*
X130018106Y-97099437D01*
X130018106Y-97099437D02*
X130113344Y-97194675D01*
X130113344Y-97194675D02*
X130160963Y-97289913D01*
X130160963Y-97289913D02*
X130208582Y-97480389D01*
X130208582Y-97480389D02*
X130208582Y-97623246D01*
X130208582Y-97623246D02*
X130160963Y-97813722D01*
X130160963Y-97813722D02*
X130113344Y-97908960D01*
X130113344Y-97908960D02*
X130018106Y-98004199D01*
X130018106Y-98004199D02*
X129875249Y-98051818D01*
X129875249Y-98051818D02*
X129637154Y-98051818D01*
X130541916Y-97051818D02*
X131208582Y-97051818D01*
X131208582Y-97051818D02*
X130780011Y-98051818D01*
X143964818Y-58554856D02*
X143488627Y-58888189D01*
X143964818Y-59126284D02*
X142964818Y-59126284D01*
X142964818Y-59126284D02*
X142964818Y-58745332D01*
X142964818Y-58745332D02*
X143012437Y-58650094D01*
X143012437Y-58650094D02*
X143060056Y-58602475D01*
X143060056Y-58602475D02*
X143155294Y-58554856D01*
X143155294Y-58554856D02*
X143298151Y-58554856D01*
X143298151Y-58554856D02*
X143393389Y-58602475D01*
X143393389Y-58602475D02*
X143441008Y-58650094D01*
X143441008Y-58650094D02*
X143488627Y-58745332D01*
X143488627Y-58745332D02*
X143488627Y-59126284D01*
X143964818Y-57602475D02*
X143964818Y-58173903D01*
X143964818Y-57888189D02*
X142964818Y-57888189D01*
X142964818Y-57888189D02*
X143107675Y-57983427D01*
X143107675Y-57983427D02*
X143202913Y-58078665D01*
X143202913Y-58078665D02*
X143250532Y-58173903D01*
X143298151Y-56745332D02*
X143964818Y-56745332D01*
X142917199Y-56983427D02*
X143631484Y-57221522D01*
X143631484Y-57221522D02*
X143631484Y-56602475D01*
X152360332Y-63827818D02*
X152026999Y-63351627D01*
X151788904Y-63827818D02*
X151788904Y-62827818D01*
X151788904Y-62827818D02*
X152169856Y-62827818D01*
X152169856Y-62827818D02*
X152265094Y-62875437D01*
X152265094Y-62875437D02*
X152312713Y-62923056D01*
X152312713Y-62923056D02*
X152360332Y-63018294D01*
X152360332Y-63018294D02*
X152360332Y-63161151D01*
X152360332Y-63161151D02*
X152312713Y-63256389D01*
X152312713Y-63256389D02*
X152265094Y-63304008D01*
X152265094Y-63304008D02*
X152169856Y-63351627D01*
X152169856Y-63351627D02*
X151788904Y-63351627D01*
X153217475Y-62827818D02*
X153026999Y-62827818D01*
X153026999Y-62827818D02*
X152931761Y-62875437D01*
X152931761Y-62875437D02*
X152884142Y-62923056D01*
X152884142Y-62923056D02*
X152788904Y-63065913D01*
X152788904Y-63065913D02*
X152741285Y-63256389D01*
X152741285Y-63256389D02*
X152741285Y-63637341D01*
X152741285Y-63637341D02*
X152788904Y-63732579D01*
X152788904Y-63732579D02*
X152836523Y-63780199D01*
X152836523Y-63780199D02*
X152931761Y-63827818D01*
X152931761Y-63827818D02*
X153122237Y-63827818D01*
X153122237Y-63827818D02*
X153217475Y-63780199D01*
X153217475Y-63780199D02*
X153265094Y-63732579D01*
X153265094Y-63732579D02*
X153312713Y-63637341D01*
X153312713Y-63637341D02*
X153312713Y-63399246D01*
X153312713Y-63399246D02*
X153265094Y-63304008D01*
X153265094Y-63304008D02*
X153217475Y-63256389D01*
X153217475Y-63256389D02*
X153122237Y-63208770D01*
X153122237Y-63208770D02*
X152931761Y-63208770D01*
X152931761Y-63208770D02*
X152836523Y-63256389D01*
X152836523Y-63256389D02*
X152788904Y-63304008D01*
X152788904Y-63304008D02*
X152741285Y-63399246D01*
X128851818Y-37758665D02*
X128375627Y-38091998D01*
X128851818Y-38330093D02*
X127851818Y-38330093D01*
X127851818Y-38330093D02*
X127851818Y-37949141D01*
X127851818Y-37949141D02*
X127899437Y-37853903D01*
X127899437Y-37853903D02*
X127947056Y-37806284D01*
X127947056Y-37806284D02*
X128042294Y-37758665D01*
X128042294Y-37758665D02*
X128185151Y-37758665D01*
X128185151Y-37758665D02*
X128280389Y-37806284D01*
X128280389Y-37806284D02*
X128328008Y-37853903D01*
X128328008Y-37853903D02*
X128375627Y-37949141D01*
X128375627Y-37949141D02*
X128375627Y-38330093D01*
X128280389Y-37187236D02*
X128232770Y-37282474D01*
X128232770Y-37282474D02*
X128185151Y-37330093D01*
X128185151Y-37330093D02*
X128089913Y-37377712D01*
X128089913Y-37377712D02*
X128042294Y-37377712D01*
X128042294Y-37377712D02*
X127947056Y-37330093D01*
X127947056Y-37330093D02*
X127899437Y-37282474D01*
X127899437Y-37282474D02*
X127851818Y-37187236D01*
X127851818Y-37187236D02*
X127851818Y-36996760D01*
X127851818Y-36996760D02*
X127899437Y-36901522D01*
X127899437Y-36901522D02*
X127947056Y-36853903D01*
X127947056Y-36853903D02*
X128042294Y-36806284D01*
X128042294Y-36806284D02*
X128089913Y-36806284D01*
X128089913Y-36806284D02*
X128185151Y-36853903D01*
X128185151Y-36853903D02*
X128232770Y-36901522D01*
X128232770Y-36901522D02*
X128280389Y-36996760D01*
X128280389Y-36996760D02*
X128280389Y-37187236D01*
X128280389Y-37187236D02*
X128328008Y-37282474D01*
X128328008Y-37282474D02*
X128375627Y-37330093D01*
X128375627Y-37330093D02*
X128470865Y-37377712D01*
X128470865Y-37377712D02*
X128661341Y-37377712D01*
X128661341Y-37377712D02*
X128756579Y-37330093D01*
X128756579Y-37330093D02*
X128804199Y-37282474D01*
X128804199Y-37282474D02*
X128851818Y-37187236D01*
X128851818Y-37187236D02*
X128851818Y-36996760D01*
X128851818Y-36996760D02*
X128804199Y-36901522D01*
X128804199Y-36901522D02*
X128756579Y-36853903D01*
X128756579Y-36853903D02*
X128661341Y-36806284D01*
X128661341Y-36806284D02*
X128470865Y-36806284D01*
X128470865Y-36806284D02*
X128375627Y-36853903D01*
X128375627Y-36853903D02*
X128328008Y-36901522D01*
X128328008Y-36901522D02*
X128280389Y-36996760D01*
X159916904Y-76400818D02*
X159916904Y-75400818D01*
X159916904Y-75400818D02*
X160154999Y-75400818D01*
X160154999Y-75400818D02*
X160297856Y-75448437D01*
X160297856Y-75448437D02*
X160393094Y-75543675D01*
X160393094Y-75543675D02*
X160440713Y-75638913D01*
X160440713Y-75638913D02*
X160488332Y-75829389D01*
X160488332Y-75829389D02*
X160488332Y-75972246D01*
X160488332Y-75972246D02*
X160440713Y-76162722D01*
X160440713Y-76162722D02*
X160393094Y-76257960D01*
X160393094Y-76257960D02*
X160297856Y-76353199D01*
X160297856Y-76353199D02*
X160154999Y-76400818D01*
X160154999Y-76400818D02*
X159916904Y-76400818D01*
X160821666Y-75400818D02*
X161440713Y-75400818D01*
X161440713Y-75400818D02*
X161107380Y-75781770D01*
X161107380Y-75781770D02*
X161250237Y-75781770D01*
X161250237Y-75781770D02*
X161345475Y-75829389D01*
X161345475Y-75829389D02*
X161393094Y-75877008D01*
X161393094Y-75877008D02*
X161440713Y-75972246D01*
X161440713Y-75972246D02*
X161440713Y-76210341D01*
X161440713Y-76210341D02*
X161393094Y-76305579D01*
X161393094Y-76305579D02*
X161345475Y-76353199D01*
X161345475Y-76353199D02*
X161250237Y-76400818D01*
X161250237Y-76400818D02*
X160964523Y-76400818D01*
X160964523Y-76400818D02*
X160869285Y-76353199D01*
X160869285Y-76353199D02*
X160821666Y-76305579D01*
X141821818Y-67944903D02*
X142631341Y-67944903D01*
X142631341Y-67944903D02*
X142726579Y-67897284D01*
X142726579Y-67897284D02*
X142774199Y-67849665D01*
X142774199Y-67849665D02*
X142821818Y-67754427D01*
X142821818Y-67754427D02*
X142821818Y-67563951D01*
X142821818Y-67563951D02*
X142774199Y-67468713D01*
X142774199Y-67468713D02*
X142726579Y-67421094D01*
X142726579Y-67421094D02*
X142631341Y-67373475D01*
X142631341Y-67373475D02*
X141821818Y-67373475D01*
X141821818Y-66992522D02*
X141821818Y-66373475D01*
X141821818Y-66373475D02*
X142202770Y-66706808D01*
X142202770Y-66706808D02*
X142202770Y-66563951D01*
X142202770Y-66563951D02*
X142250389Y-66468713D01*
X142250389Y-66468713D02*
X142298008Y-66421094D01*
X142298008Y-66421094D02*
X142393246Y-66373475D01*
X142393246Y-66373475D02*
X142631341Y-66373475D01*
X142631341Y-66373475D02*
X142726579Y-66421094D01*
X142726579Y-66421094D02*
X142774199Y-66468713D01*
X142774199Y-66468713D02*
X142821818Y-66563951D01*
X142821818Y-66563951D02*
X142821818Y-66849665D01*
X142821818Y-66849665D02*
X142774199Y-66944903D01*
X142774199Y-66944903D02*
X142726579Y-66992522D01*
X133088141Y-63667818D02*
X132754808Y-63191627D01*
X132516713Y-63667818D02*
X132516713Y-62667818D01*
X132516713Y-62667818D02*
X132897665Y-62667818D01*
X132897665Y-62667818D02*
X132992903Y-62715437D01*
X132992903Y-62715437D02*
X133040522Y-62763056D01*
X133040522Y-62763056D02*
X133088141Y-62858294D01*
X133088141Y-62858294D02*
X133088141Y-63001151D01*
X133088141Y-63001151D02*
X133040522Y-63096389D01*
X133040522Y-63096389D02*
X132992903Y-63144008D01*
X132992903Y-63144008D02*
X132897665Y-63191627D01*
X132897665Y-63191627D02*
X132516713Y-63191627D01*
X133469094Y-62763056D02*
X133516713Y-62715437D01*
X133516713Y-62715437D02*
X133611951Y-62667818D01*
X133611951Y-62667818D02*
X133850046Y-62667818D01*
X133850046Y-62667818D02*
X133945284Y-62715437D01*
X133945284Y-62715437D02*
X133992903Y-62763056D01*
X133992903Y-62763056D02*
X134040522Y-62858294D01*
X134040522Y-62858294D02*
X134040522Y-62953532D01*
X134040522Y-62953532D02*
X133992903Y-63096389D01*
X133992903Y-63096389D02*
X133421475Y-63667818D01*
X133421475Y-63667818D02*
X134040522Y-63667818D01*
X134897665Y-63001151D02*
X134897665Y-63667818D01*
X134659570Y-62620199D02*
X134421475Y-63334484D01*
X134421475Y-63334484D02*
X135040522Y-63334484D01*
X122898818Y-47370903D02*
X123708341Y-47370903D01*
X123708341Y-47370903D02*
X123803579Y-47323284D01*
X123803579Y-47323284D02*
X123851199Y-47275665D01*
X123851199Y-47275665D02*
X123898818Y-47180427D01*
X123898818Y-47180427D02*
X123898818Y-46989951D01*
X123898818Y-46989951D02*
X123851199Y-46894713D01*
X123851199Y-46894713D02*
X123803579Y-46847094D01*
X123803579Y-46847094D02*
X123708341Y-46799475D01*
X123708341Y-46799475D02*
X122898818Y-46799475D01*
X123898818Y-45799475D02*
X123898818Y-46370903D01*
X123898818Y-46085189D02*
X122898818Y-46085189D01*
X122898818Y-46085189D02*
X123041675Y-46180427D01*
X123041675Y-46180427D02*
X123136913Y-46275665D01*
X123136913Y-46275665D02*
X123184532Y-46370903D01*
X115397041Y-87458678D02*
X115349422Y-87506298D01*
X115349422Y-87506298D02*
X115206565Y-87553917D01*
X115206565Y-87553917D02*
X115111327Y-87553917D01*
X115111327Y-87553917D02*
X114968470Y-87506298D01*
X114968470Y-87506298D02*
X114873232Y-87411059D01*
X114873232Y-87411059D02*
X114825613Y-87315821D01*
X114825613Y-87315821D02*
X114777994Y-87125345D01*
X114777994Y-87125345D02*
X114777994Y-86982488D01*
X114777994Y-86982488D02*
X114825613Y-86792012D01*
X114825613Y-86792012D02*
X114873232Y-86696774D01*
X114873232Y-86696774D02*
X114968470Y-86601536D01*
X114968470Y-86601536D02*
X115111327Y-86553917D01*
X115111327Y-86553917D02*
X115206565Y-86553917D01*
X115206565Y-86553917D02*
X115349422Y-86601536D01*
X115349422Y-86601536D02*
X115397041Y-86649155D01*
X116349422Y-87553917D02*
X115777994Y-87553917D01*
X116063708Y-87553917D02*
X116063708Y-86553917D01*
X116063708Y-86553917D02*
X115968470Y-86696774D01*
X115968470Y-86696774D02*
X115873232Y-86792012D01*
X115873232Y-86792012D02*
X115777994Y-86839631D01*
X116920851Y-86982488D02*
X116825613Y-86934869D01*
X116825613Y-86934869D02*
X116777994Y-86887250D01*
X116777994Y-86887250D02*
X116730375Y-86792012D01*
X116730375Y-86792012D02*
X116730375Y-86744393D01*
X116730375Y-86744393D02*
X116777994Y-86649155D01*
X116777994Y-86649155D02*
X116825613Y-86601536D01*
X116825613Y-86601536D02*
X116920851Y-86553917D01*
X116920851Y-86553917D02*
X117111327Y-86553917D01*
X117111327Y-86553917D02*
X117206565Y-86601536D01*
X117206565Y-86601536D02*
X117254184Y-86649155D01*
X117254184Y-86649155D02*
X117301803Y-86744393D01*
X117301803Y-86744393D02*
X117301803Y-86792012D01*
X117301803Y-86792012D02*
X117254184Y-86887250D01*
X117254184Y-86887250D02*
X117206565Y-86934869D01*
X117206565Y-86934869D02*
X117111327Y-86982488D01*
X117111327Y-86982488D02*
X116920851Y-86982488D01*
X116920851Y-86982488D02*
X116825613Y-87030107D01*
X116825613Y-87030107D02*
X116777994Y-87077726D01*
X116777994Y-87077726D02*
X116730375Y-87172964D01*
X116730375Y-87172964D02*
X116730375Y-87363440D01*
X116730375Y-87363440D02*
X116777994Y-87458678D01*
X116777994Y-87458678D02*
X116825613Y-87506298D01*
X116825613Y-87506298D02*
X116920851Y-87553917D01*
X116920851Y-87553917D02*
X117111327Y-87553917D01*
X117111327Y-87553917D02*
X117206565Y-87506298D01*
X117206565Y-87506298D02*
X117254184Y-87458678D01*
X117254184Y-87458678D02*
X117301803Y-87363440D01*
X117301803Y-87363440D02*
X117301803Y-87172964D01*
X117301803Y-87172964D02*
X117254184Y-87077726D01*
X117254184Y-87077726D02*
X117206565Y-87030107D01*
X117206565Y-87030107D02*
X117111327Y-86982488D01*
X123390818Y-44235665D02*
X122914627Y-44568998D01*
X123390818Y-44807093D02*
X122390818Y-44807093D01*
X122390818Y-44807093D02*
X122390818Y-44426141D01*
X122390818Y-44426141D02*
X122438437Y-44330903D01*
X122438437Y-44330903D02*
X122486056Y-44283284D01*
X122486056Y-44283284D02*
X122581294Y-44235665D01*
X122581294Y-44235665D02*
X122724151Y-44235665D01*
X122724151Y-44235665D02*
X122819389Y-44283284D01*
X122819389Y-44283284D02*
X122867008Y-44330903D01*
X122867008Y-44330903D02*
X122914627Y-44426141D01*
X122914627Y-44426141D02*
X122914627Y-44807093D01*
X122390818Y-43902331D02*
X122390818Y-43235665D01*
X122390818Y-43235665D02*
X123390818Y-43664236D01*
X141043818Y-55633856D02*
X140567627Y-55967189D01*
X141043818Y-56205284D02*
X140043818Y-56205284D01*
X140043818Y-56205284D02*
X140043818Y-55824332D01*
X140043818Y-55824332D02*
X140091437Y-55729094D01*
X140091437Y-55729094D02*
X140139056Y-55681475D01*
X140139056Y-55681475D02*
X140234294Y-55633856D01*
X140234294Y-55633856D02*
X140377151Y-55633856D01*
X140377151Y-55633856D02*
X140472389Y-55681475D01*
X140472389Y-55681475D02*
X140520008Y-55729094D01*
X140520008Y-55729094D02*
X140567627Y-55824332D01*
X140567627Y-55824332D02*
X140567627Y-56205284D01*
X141043818Y-54681475D02*
X141043818Y-55252903D01*
X141043818Y-54967189D02*
X140043818Y-54967189D01*
X140043818Y-54967189D02*
X140186675Y-55062427D01*
X140186675Y-55062427D02*
X140281913Y-55157665D01*
X140281913Y-55157665D02*
X140329532Y-55252903D01*
X140043818Y-53824332D02*
X140043818Y-54014808D01*
X140043818Y-54014808D02*
X140091437Y-54110046D01*
X140091437Y-54110046D02*
X140139056Y-54157665D01*
X140139056Y-54157665D02*
X140281913Y-54252903D01*
X140281913Y-54252903D02*
X140472389Y-54300522D01*
X140472389Y-54300522D02*
X140853341Y-54300522D01*
X140853341Y-54300522D02*
X140948579Y-54252903D01*
X140948579Y-54252903D02*
X140996199Y-54205284D01*
X140996199Y-54205284D02*
X141043818Y-54110046D01*
X141043818Y-54110046D02*
X141043818Y-53919570D01*
X141043818Y-53919570D02*
X140996199Y-53824332D01*
X140996199Y-53824332D02*
X140948579Y-53776713D01*
X140948579Y-53776713D02*
X140853341Y-53729094D01*
X140853341Y-53729094D02*
X140615246Y-53729094D01*
X140615246Y-53729094D02*
X140520008Y-53776713D01*
X140520008Y-53776713D02*
X140472389Y-53824332D01*
X140472389Y-53824332D02*
X140424770Y-53919570D01*
X140424770Y-53919570D02*
X140424770Y-54110046D01*
X140424770Y-54110046D02*
X140472389Y-54205284D01*
X140472389Y-54205284D02*
X140520008Y-54252903D01*
X140520008Y-54252903D02*
X140615246Y-54300522D01*
X117580579Y-83192856D02*
X117628199Y-83240475D01*
X117628199Y-83240475D02*
X117675818Y-83383332D01*
X117675818Y-83383332D02*
X117675818Y-83478570D01*
X117675818Y-83478570D02*
X117628199Y-83621427D01*
X117628199Y-83621427D02*
X117532960Y-83716665D01*
X117532960Y-83716665D02*
X117437722Y-83764284D01*
X117437722Y-83764284D02*
X117247246Y-83811903D01*
X117247246Y-83811903D02*
X117104389Y-83811903D01*
X117104389Y-83811903D02*
X116913913Y-83764284D01*
X116913913Y-83764284D02*
X116818675Y-83716665D01*
X116818675Y-83716665D02*
X116723437Y-83621427D01*
X116723437Y-83621427D02*
X116675818Y-83478570D01*
X116675818Y-83478570D02*
X116675818Y-83383332D01*
X116675818Y-83383332D02*
X116723437Y-83240475D01*
X116723437Y-83240475D02*
X116771056Y-83192856D01*
X117675818Y-82240475D02*
X117675818Y-82811903D01*
X117675818Y-82526189D02*
X116675818Y-82526189D01*
X116675818Y-82526189D02*
X116818675Y-82621427D01*
X116818675Y-82621427D02*
X116913913Y-82716665D01*
X116913913Y-82716665D02*
X116961532Y-82811903D01*
X117675818Y-81764284D02*
X117675818Y-81573808D01*
X117675818Y-81573808D02*
X117628199Y-81478570D01*
X117628199Y-81478570D02*
X117580579Y-81430951D01*
X117580579Y-81430951D02*
X117437722Y-81335713D01*
X117437722Y-81335713D02*
X117247246Y-81288094D01*
X117247246Y-81288094D02*
X116866294Y-81288094D01*
X116866294Y-81288094D02*
X116771056Y-81335713D01*
X116771056Y-81335713D02*
X116723437Y-81383332D01*
X116723437Y-81383332D02*
X116675818Y-81478570D01*
X116675818Y-81478570D02*
X116675818Y-81669046D01*
X116675818Y-81669046D02*
X116723437Y-81764284D01*
X116723437Y-81764284D02*
X116771056Y-81811903D01*
X116771056Y-81811903D02*
X116866294Y-81859522D01*
X116866294Y-81859522D02*
X117104389Y-81859522D01*
X117104389Y-81859522D02*
X117199627Y-81811903D01*
X117199627Y-81811903D02*
X117247246Y-81764284D01*
X117247246Y-81764284D02*
X117294865Y-81669046D01*
X117294865Y-81669046D02*
X117294865Y-81478570D01*
X117294865Y-81478570D02*
X117247246Y-81383332D01*
X117247246Y-81383332D02*
X117199627Y-81335713D01*
X117199627Y-81335713D02*
X117104389Y-81288094D01*
X163637832Y-73479818D02*
X163304499Y-73003627D01*
X163066404Y-73479818D02*
X163066404Y-72479818D01*
X163066404Y-72479818D02*
X163447356Y-72479818D01*
X163447356Y-72479818D02*
X163542594Y-72527437D01*
X163542594Y-72527437D02*
X163590213Y-72575056D01*
X163590213Y-72575056D02*
X163637832Y-72670294D01*
X163637832Y-72670294D02*
X163637832Y-72813151D01*
X163637832Y-72813151D02*
X163590213Y-72908389D01*
X163590213Y-72908389D02*
X163542594Y-72956008D01*
X163542594Y-72956008D02*
X163447356Y-73003627D01*
X163447356Y-73003627D02*
X163066404Y-73003627D01*
X164590213Y-73479818D02*
X164018785Y-73479818D01*
X164304499Y-73479818D02*
X164304499Y-72479818D01*
X164304499Y-72479818D02*
X164209261Y-72622675D01*
X164209261Y-72622675D02*
X164114023Y-72717913D01*
X164114023Y-72717913D02*
X164018785Y-72765532D01*
X147012818Y-58554856D02*
X146536627Y-58888189D01*
X147012818Y-59126284D02*
X146012818Y-59126284D01*
X146012818Y-59126284D02*
X146012818Y-58745332D01*
X146012818Y-58745332D02*
X146060437Y-58650094D01*
X146060437Y-58650094D02*
X146108056Y-58602475D01*
X146108056Y-58602475D02*
X146203294Y-58554856D01*
X146203294Y-58554856D02*
X146346151Y-58554856D01*
X146346151Y-58554856D02*
X146441389Y-58602475D01*
X146441389Y-58602475D02*
X146489008Y-58650094D01*
X146489008Y-58650094D02*
X146536627Y-58745332D01*
X146536627Y-58745332D02*
X146536627Y-59126284D01*
X147012818Y-57602475D02*
X147012818Y-58173903D01*
X147012818Y-57888189D02*
X146012818Y-57888189D01*
X146012818Y-57888189D02*
X146155675Y-57983427D01*
X146155675Y-57983427D02*
X146250913Y-58078665D01*
X146250913Y-58078665D02*
X146298532Y-58173903D01*
X146108056Y-57221522D02*
X146060437Y-57173903D01*
X146060437Y-57173903D02*
X146012818Y-57078665D01*
X146012818Y-57078665D02*
X146012818Y-56840570D01*
X146012818Y-56840570D02*
X146060437Y-56745332D01*
X146060437Y-56745332D02*
X146108056Y-56697713D01*
X146108056Y-56697713D02*
X146203294Y-56650094D01*
X146203294Y-56650094D02*
X146298532Y-56650094D01*
X146298532Y-56650094D02*
X146441389Y-56697713D01*
X146441389Y-56697713D02*
X147012818Y-57269141D01*
X147012818Y-57269141D02*
X147012818Y-56650094D01*
X127327818Y-37758665D02*
X126851627Y-38091998D01*
X127327818Y-38330093D02*
X126327818Y-38330093D01*
X126327818Y-38330093D02*
X126327818Y-37949141D01*
X126327818Y-37949141D02*
X126375437Y-37853903D01*
X126375437Y-37853903D02*
X126423056Y-37806284D01*
X126423056Y-37806284D02*
X126518294Y-37758665D01*
X126518294Y-37758665D02*
X126661151Y-37758665D01*
X126661151Y-37758665D02*
X126756389Y-37806284D01*
X126756389Y-37806284D02*
X126804008Y-37853903D01*
X126804008Y-37853903D02*
X126851627Y-37949141D01*
X126851627Y-37949141D02*
X126851627Y-38330093D01*
X127327818Y-37282474D02*
X127327818Y-37091998D01*
X127327818Y-37091998D02*
X127280199Y-36996760D01*
X127280199Y-36996760D02*
X127232579Y-36949141D01*
X127232579Y-36949141D02*
X127089722Y-36853903D01*
X127089722Y-36853903D02*
X126899246Y-36806284D01*
X126899246Y-36806284D02*
X126518294Y-36806284D01*
X126518294Y-36806284D02*
X126423056Y-36853903D01*
X126423056Y-36853903D02*
X126375437Y-36901522D01*
X126375437Y-36901522D02*
X126327818Y-36996760D01*
X126327818Y-36996760D02*
X126327818Y-37187236D01*
X126327818Y-37187236D02*
X126375437Y-37282474D01*
X126375437Y-37282474D02*
X126423056Y-37330093D01*
X126423056Y-37330093D02*
X126518294Y-37377712D01*
X126518294Y-37377712D02*
X126756389Y-37377712D01*
X126756389Y-37377712D02*
X126851627Y-37330093D01*
X126851627Y-37330093D02*
X126899246Y-37282474D01*
X126899246Y-37282474D02*
X126946865Y-37187236D01*
X126946865Y-37187236D02*
X126946865Y-36996760D01*
X126946865Y-36996760D02*
X126899246Y-36901522D01*
X126899246Y-36901522D02*
X126851627Y-36853903D01*
X126851627Y-36853903D02*
X126756389Y-36806284D01*
X129222332Y-73873579D02*
X129174713Y-73921199D01*
X129174713Y-73921199D02*
X129031856Y-73968818D01*
X129031856Y-73968818D02*
X128936618Y-73968818D01*
X128936618Y-73968818D02*
X128793761Y-73921199D01*
X128793761Y-73921199D02*
X128698523Y-73825960D01*
X128698523Y-73825960D02*
X128650904Y-73730722D01*
X128650904Y-73730722D02*
X128603285Y-73540246D01*
X128603285Y-73540246D02*
X128603285Y-73397389D01*
X128603285Y-73397389D02*
X128650904Y-73206913D01*
X128650904Y-73206913D02*
X128698523Y-73111675D01*
X128698523Y-73111675D02*
X128793761Y-73016437D01*
X128793761Y-73016437D02*
X128936618Y-72968818D01*
X128936618Y-72968818D02*
X129031856Y-72968818D01*
X129031856Y-72968818D02*
X129174713Y-73016437D01*
X129174713Y-73016437D02*
X129222332Y-73064056D01*
X129555666Y-72968818D02*
X130222332Y-72968818D01*
X130222332Y-72968818D02*
X129793761Y-73968818D01*
X128185056Y-67532237D02*
X128137437Y-67627475D01*
X128137437Y-67627475D02*
X128042199Y-67722713D01*
X128042199Y-67722713D02*
X127899341Y-67865570D01*
X127899341Y-67865570D02*
X127851722Y-67960808D01*
X127851722Y-67960808D02*
X127851722Y-68056046D01*
X128089818Y-68008427D02*
X128042199Y-68103665D01*
X128042199Y-68103665D02*
X127946960Y-68198903D01*
X127946960Y-68198903D02*
X127756484Y-68246522D01*
X127756484Y-68246522D02*
X127423151Y-68246522D01*
X127423151Y-68246522D02*
X127232675Y-68198903D01*
X127232675Y-68198903D02*
X127137437Y-68103665D01*
X127137437Y-68103665D02*
X127089818Y-68008427D01*
X127089818Y-68008427D02*
X127089818Y-67817951D01*
X127089818Y-67817951D02*
X127137437Y-67722713D01*
X127137437Y-67722713D02*
X127232675Y-67627475D01*
X127232675Y-67627475D02*
X127423151Y-67579856D01*
X127423151Y-67579856D02*
X127756484Y-67579856D01*
X127756484Y-67579856D02*
X127946960Y-67627475D01*
X127946960Y-67627475D02*
X128042199Y-67722713D01*
X128042199Y-67722713D02*
X128089818Y-67817951D01*
X128089818Y-67817951D02*
X128089818Y-68008427D01*
X127185056Y-67198903D02*
X127137437Y-67151284D01*
X127137437Y-67151284D02*
X127089818Y-67056046D01*
X127089818Y-67056046D02*
X127089818Y-66817951D01*
X127089818Y-66817951D02*
X127137437Y-66722713D01*
X127137437Y-66722713D02*
X127185056Y-66675094D01*
X127185056Y-66675094D02*
X127280294Y-66627475D01*
X127280294Y-66627475D02*
X127375532Y-66627475D01*
X127375532Y-66627475D02*
X127518389Y-66675094D01*
X127518389Y-66675094D02*
X128089818Y-67246522D01*
X128089818Y-67246522D02*
X128089818Y-66627475D01*
X133731095Y-77051819D02*
X133731095Y-77861342D01*
X133731095Y-77861342D02*
X133778714Y-77956580D01*
X133778714Y-77956580D02*
X133826333Y-78004200D01*
X133826333Y-78004200D02*
X133921571Y-78051819D01*
X133921571Y-78051819D02*
X134112047Y-78051819D01*
X134112047Y-78051819D02*
X134207285Y-78004200D01*
X134207285Y-78004200D02*
X134254904Y-77956580D01*
X134254904Y-77956580D02*
X134302523Y-77861342D01*
X134302523Y-77861342D02*
X134302523Y-77051819D01*
X134731095Y-77147057D02*
X134778714Y-77099438D01*
X134778714Y-77099438D02*
X134873952Y-77051819D01*
X134873952Y-77051819D02*
X135112047Y-77051819D01*
X135112047Y-77051819D02*
X135207285Y-77099438D01*
X135207285Y-77099438D02*
X135254904Y-77147057D01*
X135254904Y-77147057D02*
X135302523Y-77242295D01*
X135302523Y-77242295D02*
X135302523Y-77337533D01*
X135302523Y-77337533D02*
X135254904Y-77480390D01*
X135254904Y-77480390D02*
X134683476Y-78051819D01*
X134683476Y-78051819D02*
X135302523Y-78051819D01*
X159839818Y-40266856D02*
X159363627Y-40600189D01*
X159839818Y-40838284D02*
X158839818Y-40838284D01*
X158839818Y-40838284D02*
X158839818Y-40457332D01*
X158839818Y-40457332D02*
X158887437Y-40362094D01*
X158887437Y-40362094D02*
X158935056Y-40314475D01*
X158935056Y-40314475D02*
X159030294Y-40266856D01*
X159030294Y-40266856D02*
X159173151Y-40266856D01*
X159173151Y-40266856D02*
X159268389Y-40314475D01*
X159268389Y-40314475D02*
X159316008Y-40362094D01*
X159316008Y-40362094D02*
X159363627Y-40457332D01*
X159363627Y-40457332D02*
X159363627Y-40838284D01*
X158935056Y-39885903D02*
X158887437Y-39838284D01*
X158887437Y-39838284D02*
X158839818Y-39743046D01*
X158839818Y-39743046D02*
X158839818Y-39504951D01*
X158839818Y-39504951D02*
X158887437Y-39409713D01*
X158887437Y-39409713D02*
X158935056Y-39362094D01*
X158935056Y-39362094D02*
X159030294Y-39314475D01*
X159030294Y-39314475D02*
X159125532Y-39314475D01*
X159125532Y-39314475D02*
X159268389Y-39362094D01*
X159268389Y-39362094D02*
X159839818Y-39933522D01*
X159839818Y-39933522D02*
X159839818Y-39314475D01*
X158839818Y-38695427D02*
X158839818Y-38600189D01*
X158839818Y-38600189D02*
X158887437Y-38504951D01*
X158887437Y-38504951D02*
X158935056Y-38457332D01*
X158935056Y-38457332D02*
X159030294Y-38409713D01*
X159030294Y-38409713D02*
X159220770Y-38362094D01*
X159220770Y-38362094D02*
X159458865Y-38362094D01*
X159458865Y-38362094D02*
X159649341Y-38409713D01*
X159649341Y-38409713D02*
X159744579Y-38457332D01*
X159744579Y-38457332D02*
X159792199Y-38504951D01*
X159792199Y-38504951D02*
X159839818Y-38600189D01*
X159839818Y-38600189D02*
X159839818Y-38695427D01*
X159839818Y-38695427D02*
X159792199Y-38790665D01*
X159792199Y-38790665D02*
X159744579Y-38838284D01*
X159744579Y-38838284D02*
X159649341Y-38885903D01*
X159649341Y-38885903D02*
X159458865Y-38933522D01*
X159458865Y-38933522D02*
X159220770Y-38933522D01*
X159220770Y-38933522D02*
X159030294Y-38885903D01*
X159030294Y-38885903D02*
X158935056Y-38838284D01*
X158935056Y-38838284D02*
X158887437Y-38790665D01*
X158887437Y-38790665D02*
X158839818Y-38695427D01*
X163813332Y-71606579D02*
X163765713Y-71654199D01*
X163765713Y-71654199D02*
X163622856Y-71701818D01*
X163622856Y-71701818D02*
X163527618Y-71701818D01*
X163527618Y-71701818D02*
X163384761Y-71654199D01*
X163384761Y-71654199D02*
X163289523Y-71558960D01*
X163289523Y-71558960D02*
X163241904Y-71463722D01*
X163241904Y-71463722D02*
X163194285Y-71273246D01*
X163194285Y-71273246D02*
X163194285Y-71130389D01*
X163194285Y-71130389D02*
X163241904Y-70939913D01*
X163241904Y-70939913D02*
X163289523Y-70844675D01*
X163289523Y-70844675D02*
X163384761Y-70749437D01*
X163384761Y-70749437D02*
X163527618Y-70701818D01*
X163527618Y-70701818D02*
X163622856Y-70701818D01*
X163622856Y-70701818D02*
X163765713Y-70749437D01*
X163765713Y-70749437D02*
X163813332Y-70797056D01*
X164765713Y-71701818D02*
X164194285Y-71701818D01*
X164479999Y-71701818D02*
X164479999Y-70701818D01*
X164479999Y-70701818D02*
X164384761Y-70844675D01*
X164384761Y-70844675D02*
X164289523Y-70939913D01*
X164289523Y-70939913D02*
X164194285Y-70987532D01*
X127683579Y-76347665D02*
X127731199Y-76395284D01*
X127731199Y-76395284D02*
X127778818Y-76538141D01*
X127778818Y-76538141D02*
X127778818Y-76633379D01*
X127778818Y-76633379D02*
X127731199Y-76776236D01*
X127731199Y-76776236D02*
X127635960Y-76871474D01*
X127635960Y-76871474D02*
X127540722Y-76919093D01*
X127540722Y-76919093D02*
X127350246Y-76966712D01*
X127350246Y-76966712D02*
X127207389Y-76966712D01*
X127207389Y-76966712D02*
X127016913Y-76919093D01*
X127016913Y-76919093D02*
X126921675Y-76871474D01*
X126921675Y-76871474D02*
X126826437Y-76776236D01*
X126826437Y-76776236D02*
X126778818Y-76633379D01*
X126778818Y-76633379D02*
X126778818Y-76538141D01*
X126778818Y-76538141D02*
X126826437Y-76395284D01*
X126826437Y-76395284D02*
X126874056Y-76347665D01*
X127112151Y-75490522D02*
X127778818Y-75490522D01*
X126731199Y-75728617D02*
X127445484Y-75966712D01*
X127445484Y-75966712D02*
X127445484Y-75347665D01*
X120469344Y-94765817D02*
X120469344Y-95575340D01*
X120469344Y-95575340D02*
X120516963Y-95670578D01*
X120516963Y-95670578D02*
X120564582Y-95718198D01*
X120564582Y-95718198D02*
X120659820Y-95765817D01*
X120659820Y-95765817D02*
X120850296Y-95765817D01*
X120850296Y-95765817D02*
X120945534Y-95718198D01*
X120945534Y-95718198D02*
X120993153Y-95670578D01*
X120993153Y-95670578D02*
X121040772Y-95575340D01*
X121040772Y-95575340D02*
X121040772Y-94765817D01*
X121945534Y-94765817D02*
X121755058Y-94765817D01*
X121755058Y-94765817D02*
X121659820Y-94813436D01*
X121659820Y-94813436D02*
X121612201Y-94861055D01*
X121612201Y-94861055D02*
X121516963Y-95003912D01*
X121516963Y-95003912D02*
X121469344Y-95194388D01*
X121469344Y-95194388D02*
X121469344Y-95575340D01*
X121469344Y-95575340D02*
X121516963Y-95670578D01*
X121516963Y-95670578D02*
X121564582Y-95718198D01*
X121564582Y-95718198D02*
X121659820Y-95765817D01*
X121659820Y-95765817D02*
X121850296Y-95765817D01*
X121850296Y-95765817D02*
X121945534Y-95718198D01*
X121945534Y-95718198D02*
X121993153Y-95670578D01*
X121993153Y-95670578D02*
X122040772Y-95575340D01*
X122040772Y-95575340D02*
X122040772Y-95337245D01*
X122040772Y-95337245D02*
X121993153Y-95242007D01*
X121993153Y-95242007D02*
X121945534Y-95194388D01*
X121945534Y-95194388D02*
X121850296Y-95146769D01*
X121850296Y-95146769D02*
X121659820Y-95146769D01*
X121659820Y-95146769D02*
X121564582Y-95194388D01*
X121564582Y-95194388D02*
X121516963Y-95242007D01*
X121516963Y-95242007D02*
X121469344Y-95337245D01*
X153267579Y-70143665D02*
X153315199Y-70191284D01*
X153315199Y-70191284D02*
X153362818Y-70334141D01*
X153362818Y-70334141D02*
X153362818Y-70429379D01*
X153362818Y-70429379D02*
X153315199Y-70572236D01*
X153315199Y-70572236D02*
X153219960Y-70667474D01*
X153219960Y-70667474D02*
X153124722Y-70715093D01*
X153124722Y-70715093D02*
X152934246Y-70762712D01*
X152934246Y-70762712D02*
X152791389Y-70762712D01*
X152791389Y-70762712D02*
X152600913Y-70715093D01*
X152600913Y-70715093D02*
X152505675Y-70667474D01*
X152505675Y-70667474D02*
X152410437Y-70572236D01*
X152410437Y-70572236D02*
X152362818Y-70429379D01*
X152362818Y-70429379D02*
X152362818Y-70334141D01*
X152362818Y-70334141D02*
X152410437Y-70191284D01*
X152410437Y-70191284D02*
X152458056Y-70143665D01*
X152458056Y-69762712D02*
X152410437Y-69715093D01*
X152410437Y-69715093D02*
X152362818Y-69619855D01*
X152362818Y-69619855D02*
X152362818Y-69381760D01*
X152362818Y-69381760D02*
X152410437Y-69286522D01*
X152410437Y-69286522D02*
X152458056Y-69238903D01*
X152458056Y-69238903D02*
X152553294Y-69191284D01*
X152553294Y-69191284D02*
X152648532Y-69191284D01*
X152648532Y-69191284D02*
X152791389Y-69238903D01*
X152791389Y-69238903D02*
X153362818Y-69810331D01*
X153362818Y-69810331D02*
X153362818Y-69191284D01*
X129486818Y-84685093D02*
X128486818Y-84685093D01*
X128486818Y-84685093D02*
X128486818Y-84446998D01*
X128486818Y-84446998D02*
X128534437Y-84304141D01*
X128534437Y-84304141D02*
X128629675Y-84208903D01*
X128629675Y-84208903D02*
X128724913Y-84161284D01*
X128724913Y-84161284D02*
X128915389Y-84113665D01*
X128915389Y-84113665D02*
X129058246Y-84113665D01*
X129058246Y-84113665D02*
X129248722Y-84161284D01*
X129248722Y-84161284D02*
X129343960Y-84208903D01*
X129343960Y-84208903D02*
X129439199Y-84304141D01*
X129439199Y-84304141D02*
X129486818Y-84446998D01*
X129486818Y-84446998D02*
X129486818Y-84685093D01*
X128486818Y-83256522D02*
X128486818Y-83446998D01*
X128486818Y-83446998D02*
X128534437Y-83542236D01*
X128534437Y-83542236D02*
X128582056Y-83589855D01*
X128582056Y-83589855D02*
X128724913Y-83685093D01*
X128724913Y-83685093D02*
X128915389Y-83732712D01*
X128915389Y-83732712D02*
X129296341Y-83732712D01*
X129296341Y-83732712D02*
X129391579Y-83685093D01*
X129391579Y-83685093D02*
X129439199Y-83637474D01*
X129439199Y-83637474D02*
X129486818Y-83542236D01*
X129486818Y-83542236D02*
X129486818Y-83351760D01*
X129486818Y-83351760D02*
X129439199Y-83256522D01*
X129439199Y-83256522D02*
X129391579Y-83208903D01*
X129391579Y-83208903D02*
X129296341Y-83161284D01*
X129296341Y-83161284D02*
X129058246Y-83161284D01*
X129058246Y-83161284D02*
X128963008Y-83208903D01*
X128963008Y-83208903D02*
X128915389Y-83256522D01*
X128915389Y-83256522D02*
X128867770Y-83351760D01*
X128867770Y-83351760D02*
X128867770Y-83542236D01*
X128867770Y-83542236D02*
X128915389Y-83637474D01*
X128915389Y-83637474D02*
X128963008Y-83685093D01*
X128963008Y-83685093D02*
X129058246Y-83732712D01*
X138803141Y-73860818D02*
X138469808Y-73384627D01*
X138231713Y-73860818D02*
X138231713Y-72860818D01*
X138231713Y-72860818D02*
X138612665Y-72860818D01*
X138612665Y-72860818D02*
X138707903Y-72908437D01*
X138707903Y-72908437D02*
X138755522Y-72956056D01*
X138755522Y-72956056D02*
X138803141Y-73051294D01*
X138803141Y-73051294D02*
X138803141Y-73194151D01*
X138803141Y-73194151D02*
X138755522Y-73289389D01*
X138755522Y-73289389D02*
X138707903Y-73337008D01*
X138707903Y-73337008D02*
X138612665Y-73384627D01*
X138612665Y-73384627D02*
X138231713Y-73384627D01*
X139755522Y-73860818D02*
X139184094Y-73860818D01*
X139469808Y-73860818D02*
X139469808Y-72860818D01*
X139469808Y-72860818D02*
X139374570Y-73003675D01*
X139374570Y-73003675D02*
X139279332Y-73098913D01*
X139279332Y-73098913D02*
X139184094Y-73146532D01*
X140231713Y-73860818D02*
X140422189Y-73860818D01*
X140422189Y-73860818D02*
X140517427Y-73813199D01*
X140517427Y-73813199D02*
X140565046Y-73765579D01*
X140565046Y-73765579D02*
X140660284Y-73622722D01*
X140660284Y-73622722D02*
X140707903Y-73432246D01*
X140707903Y-73432246D02*
X140707903Y-73051294D01*
X140707903Y-73051294D02*
X140660284Y-72956056D01*
X140660284Y-72956056D02*
X140612665Y-72908437D01*
X140612665Y-72908437D02*
X140517427Y-72860818D01*
X140517427Y-72860818D02*
X140326951Y-72860818D01*
X140326951Y-72860818D02*
X140231713Y-72908437D01*
X140231713Y-72908437D02*
X140184094Y-72956056D01*
X140184094Y-72956056D02*
X140136475Y-73051294D01*
X140136475Y-73051294D02*
X140136475Y-73289389D01*
X140136475Y-73289389D02*
X140184094Y-73384627D01*
X140184094Y-73384627D02*
X140231713Y-73432246D01*
X140231713Y-73432246D02*
X140326951Y-73479865D01*
X140326951Y-73479865D02*
X140517427Y-73479865D01*
X140517427Y-73479865D02*
X140612665Y-73432246D01*
X140612665Y-73432246D02*
X140660284Y-73384627D01*
X140660284Y-73384627D02*
X140707903Y-73289389D01*
X151503141Y-62557818D02*
X151169808Y-62081627D01*
X150931713Y-62557818D02*
X150931713Y-61557818D01*
X150931713Y-61557818D02*
X151312665Y-61557818D01*
X151312665Y-61557818D02*
X151407903Y-61605437D01*
X151407903Y-61605437D02*
X151455522Y-61653056D01*
X151455522Y-61653056D02*
X151503141Y-61748294D01*
X151503141Y-61748294D02*
X151503141Y-61891151D01*
X151503141Y-61891151D02*
X151455522Y-61986389D01*
X151455522Y-61986389D02*
X151407903Y-62034008D01*
X151407903Y-62034008D02*
X151312665Y-62081627D01*
X151312665Y-62081627D02*
X150931713Y-62081627D01*
X151884094Y-61653056D02*
X151931713Y-61605437D01*
X151931713Y-61605437D02*
X152026951Y-61557818D01*
X152026951Y-61557818D02*
X152265046Y-61557818D01*
X152265046Y-61557818D02*
X152360284Y-61605437D01*
X152360284Y-61605437D02*
X152407903Y-61653056D01*
X152407903Y-61653056D02*
X152455522Y-61748294D01*
X152455522Y-61748294D02*
X152455522Y-61843532D01*
X152455522Y-61843532D02*
X152407903Y-61986389D01*
X152407903Y-61986389D02*
X151836475Y-62557818D01*
X151836475Y-62557818D02*
X152455522Y-62557818D01*
X153026951Y-61986389D02*
X152931713Y-61938770D01*
X152931713Y-61938770D02*
X152884094Y-61891151D01*
X152884094Y-61891151D02*
X152836475Y-61795913D01*
X152836475Y-61795913D02*
X152836475Y-61748294D01*
X152836475Y-61748294D02*
X152884094Y-61653056D01*
X152884094Y-61653056D02*
X152931713Y-61605437D01*
X152931713Y-61605437D02*
X153026951Y-61557818D01*
X153026951Y-61557818D02*
X153217427Y-61557818D01*
X153217427Y-61557818D02*
X153312665Y-61605437D01*
X153312665Y-61605437D02*
X153360284Y-61653056D01*
X153360284Y-61653056D02*
X153407903Y-61748294D01*
X153407903Y-61748294D02*
X153407903Y-61795913D01*
X153407903Y-61795913D02*
X153360284Y-61891151D01*
X153360284Y-61891151D02*
X153312665Y-61938770D01*
X153312665Y-61938770D02*
X153217427Y-61986389D01*
X153217427Y-61986389D02*
X153026951Y-61986389D01*
X153026951Y-61986389D02*
X152931713Y-62034008D01*
X152931713Y-62034008D02*
X152884094Y-62081627D01*
X152884094Y-62081627D02*
X152836475Y-62176865D01*
X152836475Y-62176865D02*
X152836475Y-62367341D01*
X152836475Y-62367341D02*
X152884094Y-62462579D01*
X152884094Y-62462579D02*
X152931713Y-62510199D01*
X152931713Y-62510199D02*
X153026951Y-62557818D01*
X153026951Y-62557818D02*
X153217427Y-62557818D01*
X153217427Y-62557818D02*
X153312665Y-62510199D01*
X153312665Y-62510199D02*
X153360284Y-62462579D01*
X153360284Y-62462579D02*
X153407903Y-62367341D01*
X153407903Y-62367341D02*
X153407903Y-62176865D01*
X153407903Y-62176865D02*
X153360284Y-62081627D01*
X153360284Y-62081627D02*
X153312665Y-62034008D01*
X153312665Y-62034008D02*
X153217427Y-61986389D01*
X154646332Y-65351818D02*
X154312999Y-64875627D01*
X154074904Y-65351818D02*
X154074904Y-64351818D01*
X154074904Y-64351818D02*
X154455856Y-64351818D01*
X154455856Y-64351818D02*
X154551094Y-64399437D01*
X154551094Y-64399437D02*
X154598713Y-64447056D01*
X154598713Y-64447056D02*
X154646332Y-64542294D01*
X154646332Y-64542294D02*
X154646332Y-64685151D01*
X154646332Y-64685151D02*
X154598713Y-64780389D01*
X154598713Y-64780389D02*
X154551094Y-64828008D01*
X154551094Y-64828008D02*
X154455856Y-64875627D01*
X154455856Y-64875627D02*
X154074904Y-64875627D01*
X155503475Y-64685151D02*
X155503475Y-65351818D01*
X155265380Y-64304199D02*
X155027285Y-65018484D01*
X155027285Y-65018484D02*
X155646332Y-65018484D01*
X149312332Y-72368579D02*
X149264713Y-72416199D01*
X149264713Y-72416199D02*
X149121856Y-72463818D01*
X149121856Y-72463818D02*
X149026618Y-72463818D01*
X149026618Y-72463818D02*
X148883761Y-72416199D01*
X148883761Y-72416199D02*
X148788523Y-72320960D01*
X148788523Y-72320960D02*
X148740904Y-72225722D01*
X148740904Y-72225722D02*
X148693285Y-72035246D01*
X148693285Y-72035246D02*
X148693285Y-71892389D01*
X148693285Y-71892389D02*
X148740904Y-71701913D01*
X148740904Y-71701913D02*
X148788523Y-71606675D01*
X148788523Y-71606675D02*
X148883761Y-71511437D01*
X148883761Y-71511437D02*
X149026618Y-71463818D01*
X149026618Y-71463818D02*
X149121856Y-71463818D01*
X149121856Y-71463818D02*
X149264713Y-71511437D01*
X149264713Y-71511437D02*
X149312332Y-71559056D01*
X149883761Y-71892389D02*
X149788523Y-71844770D01*
X149788523Y-71844770D02*
X149740904Y-71797151D01*
X149740904Y-71797151D02*
X149693285Y-71701913D01*
X149693285Y-71701913D02*
X149693285Y-71654294D01*
X149693285Y-71654294D02*
X149740904Y-71559056D01*
X149740904Y-71559056D02*
X149788523Y-71511437D01*
X149788523Y-71511437D02*
X149883761Y-71463818D01*
X149883761Y-71463818D02*
X150074237Y-71463818D01*
X150074237Y-71463818D02*
X150169475Y-71511437D01*
X150169475Y-71511437D02*
X150217094Y-71559056D01*
X150217094Y-71559056D02*
X150264713Y-71654294D01*
X150264713Y-71654294D02*
X150264713Y-71701913D01*
X150264713Y-71701913D02*
X150217094Y-71797151D01*
X150217094Y-71797151D02*
X150169475Y-71844770D01*
X150169475Y-71844770D02*
X150074237Y-71892389D01*
X150074237Y-71892389D02*
X149883761Y-71892389D01*
X149883761Y-71892389D02*
X149788523Y-71940008D01*
X149788523Y-71940008D02*
X149740904Y-71987627D01*
X149740904Y-71987627D02*
X149693285Y-72082865D01*
X149693285Y-72082865D02*
X149693285Y-72273341D01*
X149693285Y-72273341D02*
X149740904Y-72368579D01*
X149740904Y-72368579D02*
X149788523Y-72416199D01*
X149788523Y-72416199D02*
X149883761Y-72463818D01*
X149883761Y-72463818D02*
X150074237Y-72463818D01*
X150074237Y-72463818D02*
X150169475Y-72416199D01*
X150169475Y-72416199D02*
X150217094Y-72368579D01*
X150217094Y-72368579D02*
X150264713Y-72273341D01*
X150264713Y-72273341D02*
X150264713Y-72082865D01*
X150264713Y-72082865D02*
X150217094Y-71987627D01*
X150217094Y-71987627D02*
X150169475Y-71940008D01*
X150169475Y-71940008D02*
X150074237Y-71892389D01*
X133088141Y-72209818D02*
X132754808Y-71733627D01*
X132516713Y-72209818D02*
X132516713Y-71209818D01*
X132516713Y-71209818D02*
X132897665Y-71209818D01*
X132897665Y-71209818D02*
X132992903Y-71257437D01*
X132992903Y-71257437D02*
X133040522Y-71305056D01*
X133040522Y-71305056D02*
X133088141Y-71400294D01*
X133088141Y-71400294D02*
X133088141Y-71543151D01*
X133088141Y-71543151D02*
X133040522Y-71638389D01*
X133040522Y-71638389D02*
X132992903Y-71686008D01*
X132992903Y-71686008D02*
X132897665Y-71733627D01*
X132897665Y-71733627D02*
X132516713Y-71733627D01*
X133469094Y-71305056D02*
X133516713Y-71257437D01*
X133516713Y-71257437D02*
X133611951Y-71209818D01*
X133611951Y-71209818D02*
X133850046Y-71209818D01*
X133850046Y-71209818D02*
X133945284Y-71257437D01*
X133945284Y-71257437D02*
X133992903Y-71305056D01*
X133992903Y-71305056D02*
X134040522Y-71400294D01*
X134040522Y-71400294D02*
X134040522Y-71495532D01*
X134040522Y-71495532D02*
X133992903Y-71638389D01*
X133992903Y-71638389D02*
X133421475Y-72209818D01*
X133421475Y-72209818D02*
X134040522Y-72209818D01*
X134897665Y-71209818D02*
X134707189Y-71209818D01*
X134707189Y-71209818D02*
X134611951Y-71257437D01*
X134611951Y-71257437D02*
X134564332Y-71305056D01*
X134564332Y-71305056D02*
X134469094Y-71447913D01*
X134469094Y-71447913D02*
X134421475Y-71638389D01*
X134421475Y-71638389D02*
X134421475Y-72019341D01*
X134421475Y-72019341D02*
X134469094Y-72114579D01*
X134469094Y-72114579D02*
X134516713Y-72162199D01*
X134516713Y-72162199D02*
X134611951Y-72209818D01*
X134611951Y-72209818D02*
X134802427Y-72209818D01*
X134802427Y-72209818D02*
X134897665Y-72162199D01*
X134897665Y-72162199D02*
X134945284Y-72114579D01*
X134945284Y-72114579D02*
X134992903Y-72019341D01*
X134992903Y-72019341D02*
X134992903Y-71781246D01*
X134992903Y-71781246D02*
X134945284Y-71686008D01*
X134945284Y-71686008D02*
X134897665Y-71638389D01*
X134897665Y-71638389D02*
X134802427Y-71590770D01*
X134802427Y-71590770D02*
X134611951Y-71590770D01*
X134611951Y-71590770D02*
X134516713Y-71638389D01*
X134516713Y-71638389D02*
X134469094Y-71686008D01*
X134469094Y-71686008D02*
X134421475Y-71781246D01*
X157249904Y-72590818D02*
X157249904Y-71590818D01*
X157249904Y-71590818D02*
X157487999Y-71590818D01*
X157487999Y-71590818D02*
X157630856Y-71638437D01*
X157630856Y-71638437D02*
X157726094Y-71733675D01*
X157726094Y-71733675D02*
X157773713Y-71828913D01*
X157773713Y-71828913D02*
X157821332Y-72019389D01*
X157821332Y-72019389D02*
X157821332Y-72162246D01*
X157821332Y-72162246D02*
X157773713Y-72352722D01*
X157773713Y-72352722D02*
X157726094Y-72447960D01*
X157726094Y-72447960D02*
X157630856Y-72543199D01*
X157630856Y-72543199D02*
X157487999Y-72590818D01*
X157487999Y-72590818D02*
X157249904Y-72590818D01*
X158202285Y-71686056D02*
X158249904Y-71638437D01*
X158249904Y-71638437D02*
X158345142Y-71590818D01*
X158345142Y-71590818D02*
X158583237Y-71590818D01*
X158583237Y-71590818D02*
X158678475Y-71638437D01*
X158678475Y-71638437D02*
X158726094Y-71686056D01*
X158726094Y-71686056D02*
X158773713Y-71781294D01*
X158773713Y-71781294D02*
X158773713Y-71876532D01*
X158773713Y-71876532D02*
X158726094Y-72019389D01*
X158726094Y-72019389D02*
X158154666Y-72590818D01*
X158154666Y-72590818D02*
X158773713Y-72590818D01*
X129486818Y-81129093D02*
X128486818Y-81129093D01*
X128486818Y-81129093D02*
X128486818Y-80890998D01*
X128486818Y-80890998D02*
X128534437Y-80748141D01*
X128534437Y-80748141D02*
X128629675Y-80652903D01*
X128629675Y-80652903D02*
X128724913Y-80605284D01*
X128724913Y-80605284D02*
X128915389Y-80557665D01*
X128915389Y-80557665D02*
X129058246Y-80557665D01*
X129058246Y-80557665D02*
X129248722Y-80605284D01*
X129248722Y-80605284D02*
X129343960Y-80652903D01*
X129343960Y-80652903D02*
X129439199Y-80748141D01*
X129439199Y-80748141D02*
X129486818Y-80890998D01*
X129486818Y-80890998D02*
X129486818Y-81129093D01*
X128486818Y-79652903D02*
X128486818Y-80129093D01*
X128486818Y-80129093D02*
X128963008Y-80176712D01*
X128963008Y-80176712D02*
X128915389Y-80129093D01*
X128915389Y-80129093D02*
X128867770Y-80033855D01*
X128867770Y-80033855D02*
X128867770Y-79795760D01*
X128867770Y-79795760D02*
X128915389Y-79700522D01*
X128915389Y-79700522D02*
X128963008Y-79652903D01*
X128963008Y-79652903D02*
X129058246Y-79605284D01*
X129058246Y-79605284D02*
X129296341Y-79605284D01*
X129296341Y-79605284D02*
X129391579Y-79652903D01*
X129391579Y-79652903D02*
X129439199Y-79700522D01*
X129439199Y-79700522D02*
X129486818Y-79795760D01*
X129486818Y-79795760D02*
X129486818Y-80033855D01*
X129486818Y-80033855D02*
X129439199Y-80129093D01*
X129439199Y-80129093D02*
X129391579Y-80176712D01*
X149725141Y-44523818D02*
X149391808Y-44047627D01*
X149153713Y-44523818D02*
X149153713Y-43523818D01*
X149153713Y-43523818D02*
X149534665Y-43523818D01*
X149534665Y-43523818D02*
X149629903Y-43571437D01*
X149629903Y-43571437D02*
X149677522Y-43619056D01*
X149677522Y-43619056D02*
X149725141Y-43714294D01*
X149725141Y-43714294D02*
X149725141Y-43857151D01*
X149725141Y-43857151D02*
X149677522Y-43952389D01*
X149677522Y-43952389D02*
X149629903Y-44000008D01*
X149629903Y-44000008D02*
X149534665Y-44047627D01*
X149534665Y-44047627D02*
X149153713Y-44047627D01*
X150106094Y-43619056D02*
X150153713Y-43571437D01*
X150153713Y-43571437D02*
X150248951Y-43523818D01*
X150248951Y-43523818D02*
X150487046Y-43523818D01*
X150487046Y-43523818D02*
X150582284Y-43571437D01*
X150582284Y-43571437D02*
X150629903Y-43619056D01*
X150629903Y-43619056D02*
X150677522Y-43714294D01*
X150677522Y-43714294D02*
X150677522Y-43809532D01*
X150677522Y-43809532D02*
X150629903Y-43952389D01*
X150629903Y-43952389D02*
X150058475Y-44523818D01*
X150058475Y-44523818D02*
X150677522Y-44523818D01*
X151010856Y-43523818D02*
X151677522Y-43523818D01*
X151677522Y-43523818D02*
X151248951Y-44523818D01*
X121475331Y-33882799D02*
X121332474Y-33835179D01*
X121332474Y-33835179D02*
X121094379Y-33835179D01*
X121094379Y-33835179D02*
X120999141Y-33882799D01*
X120999141Y-33882799D02*
X120951522Y-33930418D01*
X120951522Y-33930418D02*
X120903903Y-34025656D01*
X120903903Y-34025656D02*
X120903903Y-34120894D01*
X120903903Y-34120894D02*
X120951522Y-34216132D01*
X120951522Y-34216132D02*
X120999141Y-34263751D01*
X120999141Y-34263751D02*
X121094379Y-34311370D01*
X121094379Y-34311370D02*
X121284855Y-34358989D01*
X121284855Y-34358989D02*
X121380093Y-34406608D01*
X121380093Y-34406608D02*
X121427712Y-34454227D01*
X121427712Y-34454227D02*
X121475331Y-34549465D01*
X121475331Y-34549465D02*
X121475331Y-34644703D01*
X121475331Y-34644703D02*
X121427712Y-34739941D01*
X121427712Y-34739941D02*
X121380093Y-34787560D01*
X121380093Y-34787560D02*
X121284855Y-34835179D01*
X121284855Y-34835179D02*
X121046760Y-34835179D01*
X121046760Y-34835179D02*
X120903903Y-34787560D01*
X120570569Y-34835179D02*
X120332474Y-33835179D01*
X120332474Y-33835179D02*
X120141998Y-34549465D01*
X120141998Y-34549465D02*
X119951522Y-33835179D01*
X119951522Y-33835179D02*
X119713427Y-34835179D01*
X118808665Y-33835179D02*
X119380093Y-33835179D01*
X119094379Y-33835179D02*
X119094379Y-34835179D01*
X119094379Y-34835179D02*
X119189617Y-34692322D01*
X119189617Y-34692322D02*
X119284855Y-34597084D01*
X119284855Y-34597084D02*
X119380093Y-34549465D01*
X136681056Y-67532237D02*
X136633437Y-67627475D01*
X136633437Y-67627475D02*
X136538199Y-67722713D01*
X136538199Y-67722713D02*
X136395341Y-67865570D01*
X136395341Y-67865570D02*
X136347722Y-67960808D01*
X136347722Y-67960808D02*
X136347722Y-68056046D01*
X136585818Y-68008427D02*
X136538199Y-68103665D01*
X136538199Y-68103665D02*
X136442960Y-68198903D01*
X136442960Y-68198903D02*
X136252484Y-68246522D01*
X136252484Y-68246522D02*
X135919151Y-68246522D01*
X135919151Y-68246522D02*
X135728675Y-68198903D01*
X135728675Y-68198903D02*
X135633437Y-68103665D01*
X135633437Y-68103665D02*
X135585818Y-68008427D01*
X135585818Y-68008427D02*
X135585818Y-67817951D01*
X135585818Y-67817951D02*
X135633437Y-67722713D01*
X135633437Y-67722713D02*
X135728675Y-67627475D01*
X135728675Y-67627475D02*
X135919151Y-67579856D01*
X135919151Y-67579856D02*
X136252484Y-67579856D01*
X136252484Y-67579856D02*
X136442960Y-67627475D01*
X136442960Y-67627475D02*
X136538199Y-67722713D01*
X136538199Y-67722713D02*
X136585818Y-67817951D01*
X136585818Y-67817951D02*
X136585818Y-68008427D01*
X135585818Y-67246522D02*
X135585818Y-66627475D01*
X135585818Y-66627475D02*
X135966770Y-66960808D01*
X135966770Y-66960808D02*
X135966770Y-66817951D01*
X135966770Y-66817951D02*
X136014389Y-66722713D01*
X136014389Y-66722713D02*
X136062008Y-66675094D01*
X136062008Y-66675094D02*
X136157246Y-66627475D01*
X136157246Y-66627475D02*
X136395341Y-66627475D01*
X136395341Y-66627475D02*
X136490579Y-66675094D01*
X136490579Y-66675094D02*
X136538199Y-66722713D01*
X136538199Y-66722713D02*
X136585818Y-66817951D01*
X136585818Y-66817951D02*
X136585818Y-67103665D01*
X136585818Y-67103665D02*
X136538199Y-67198903D01*
X136538199Y-67198903D02*
X136490579Y-67246522D01*
X130810094Y-42888818D02*
X130810094Y-43698341D01*
X130810094Y-43698341D02*
X130857713Y-43793579D01*
X130857713Y-43793579D02*
X130905332Y-43841199D01*
X130905332Y-43841199D02*
X131000570Y-43888818D01*
X131000570Y-43888818D02*
X131191046Y-43888818D01*
X131191046Y-43888818D02*
X131286284Y-43841199D01*
X131286284Y-43841199D02*
X131333903Y-43793579D01*
X131333903Y-43793579D02*
X131381522Y-43698341D01*
X131381522Y-43698341D02*
X131381522Y-42888818D01*
X132333903Y-42888818D02*
X131857713Y-42888818D01*
X131857713Y-42888818D02*
X131810094Y-43365008D01*
X131810094Y-43365008D02*
X131857713Y-43317389D01*
X131857713Y-43317389D02*
X131952951Y-43269770D01*
X131952951Y-43269770D02*
X132191046Y-43269770D01*
X132191046Y-43269770D02*
X132286284Y-43317389D01*
X132286284Y-43317389D02*
X132333903Y-43365008D01*
X132333903Y-43365008D02*
X132381522Y-43460246D01*
X132381522Y-43460246D02*
X132381522Y-43698341D01*
X132381522Y-43698341D02*
X132333903Y-43793579D01*
X132333903Y-43793579D02*
X132286284Y-43841199D01*
X132286284Y-43841199D02*
X132191046Y-43888818D01*
X132191046Y-43888818D02*
X131952951Y-43888818D01*
X131952951Y-43888818D02*
X131857713Y-43841199D01*
X131857713Y-43841199D02*
X131810094Y-43793579D01*
X142652760Y-50461056D02*
X142557522Y-50413437D01*
X142557522Y-50413437D02*
X142462284Y-50318199D01*
X142462284Y-50318199D02*
X142319427Y-50175341D01*
X142319427Y-50175341D02*
X142224189Y-50127722D01*
X142224189Y-50127722D02*
X142128951Y-50127722D01*
X142176570Y-50365818D02*
X142081332Y-50318199D01*
X142081332Y-50318199D02*
X141986094Y-50222960D01*
X141986094Y-50222960D02*
X141938475Y-50032484D01*
X141938475Y-50032484D02*
X141938475Y-49699151D01*
X141938475Y-49699151D02*
X141986094Y-49508675D01*
X141986094Y-49508675D02*
X142081332Y-49413437D01*
X142081332Y-49413437D02*
X142176570Y-49365818D01*
X142176570Y-49365818D02*
X142367046Y-49365818D01*
X142367046Y-49365818D02*
X142462284Y-49413437D01*
X142462284Y-49413437D02*
X142557522Y-49508675D01*
X142557522Y-49508675D02*
X142605141Y-49699151D01*
X142605141Y-49699151D02*
X142605141Y-50032484D01*
X142605141Y-50032484D02*
X142557522Y-50222960D01*
X142557522Y-50222960D02*
X142462284Y-50318199D01*
X142462284Y-50318199D02*
X142367046Y-50365818D01*
X142367046Y-50365818D02*
X142176570Y-50365818D01*
X143557522Y-50365818D02*
X142986094Y-50365818D01*
X143271808Y-50365818D02*
X143271808Y-49365818D01*
X143271808Y-49365818D02*
X143176570Y-49508675D01*
X143176570Y-49508675D02*
X143081332Y-49603913D01*
X143081332Y-49603913D02*
X142986094Y-49651532D01*
X129405141Y-72209818D02*
X129071808Y-71733627D01*
X128833713Y-72209818D02*
X128833713Y-71209818D01*
X128833713Y-71209818D02*
X129214665Y-71209818D01*
X129214665Y-71209818D02*
X129309903Y-71257437D01*
X129309903Y-71257437D02*
X129357522Y-71305056D01*
X129357522Y-71305056D02*
X129405141Y-71400294D01*
X129405141Y-71400294D02*
X129405141Y-71543151D01*
X129405141Y-71543151D02*
X129357522Y-71638389D01*
X129357522Y-71638389D02*
X129309903Y-71686008D01*
X129309903Y-71686008D02*
X129214665Y-71733627D01*
X129214665Y-71733627D02*
X128833713Y-71733627D01*
X129786094Y-71305056D02*
X129833713Y-71257437D01*
X129833713Y-71257437D02*
X129928951Y-71209818D01*
X129928951Y-71209818D02*
X130167046Y-71209818D01*
X130167046Y-71209818D02*
X130262284Y-71257437D01*
X130262284Y-71257437D02*
X130309903Y-71305056D01*
X130309903Y-71305056D02*
X130357522Y-71400294D01*
X130357522Y-71400294D02*
X130357522Y-71495532D01*
X130357522Y-71495532D02*
X130309903Y-71638389D01*
X130309903Y-71638389D02*
X129738475Y-72209818D01*
X129738475Y-72209818D02*
X130357522Y-72209818D01*
X131262284Y-71209818D02*
X130786094Y-71209818D01*
X130786094Y-71209818D02*
X130738475Y-71686008D01*
X130738475Y-71686008D02*
X130786094Y-71638389D01*
X130786094Y-71638389D02*
X130881332Y-71590770D01*
X130881332Y-71590770D02*
X131119427Y-71590770D01*
X131119427Y-71590770D02*
X131214665Y-71638389D01*
X131214665Y-71638389D02*
X131262284Y-71686008D01*
X131262284Y-71686008D02*
X131309903Y-71781246D01*
X131309903Y-71781246D02*
X131309903Y-72019341D01*
X131309903Y-72019341D02*
X131262284Y-72114579D01*
X131262284Y-72114579D02*
X131214665Y-72162199D01*
X131214665Y-72162199D02*
X131119427Y-72209818D01*
X131119427Y-72209818D02*
X130881332Y-72209818D01*
X130881332Y-72209818D02*
X130786094Y-72162199D01*
X130786094Y-72162199D02*
X130738475Y-72114579D01*
X140828833Y-134471580D02*
X140781214Y-134519200D01*
X140781214Y-134519200D02*
X140638357Y-134566819D01*
X140638357Y-134566819D02*
X140543119Y-134566819D01*
X140543119Y-134566819D02*
X140400262Y-134519200D01*
X140400262Y-134519200D02*
X140305024Y-134423961D01*
X140305024Y-134423961D02*
X140257405Y-134328723D01*
X140257405Y-134328723D02*
X140209786Y-134138247D01*
X140209786Y-134138247D02*
X140209786Y-133995390D01*
X140209786Y-133995390D02*
X140257405Y-133804914D01*
X140257405Y-133804914D02*
X140305024Y-133709676D01*
X140305024Y-133709676D02*
X140400262Y-133614438D01*
X140400262Y-133614438D02*
X140543119Y-133566819D01*
X140543119Y-133566819D02*
X140638357Y-133566819D01*
X140638357Y-133566819D02*
X140781214Y-133614438D01*
X140781214Y-133614438D02*
X140828833Y-133662057D01*
X141305024Y-134566819D02*
X141495500Y-134566819D01*
X141495500Y-134566819D02*
X141590738Y-134519200D01*
X141590738Y-134519200D02*
X141638357Y-134471580D01*
X141638357Y-134471580D02*
X141733595Y-134328723D01*
X141733595Y-134328723D02*
X141781214Y-134138247D01*
X141781214Y-134138247D02*
X141781214Y-133757295D01*
X141781214Y-133757295D02*
X141733595Y-133662057D01*
X141733595Y-133662057D02*
X141685976Y-133614438D01*
X141685976Y-133614438D02*
X141590738Y-133566819D01*
X141590738Y-133566819D02*
X141400262Y-133566819D01*
X141400262Y-133566819D02*
X141305024Y-133614438D01*
X141305024Y-133614438D02*
X141257405Y-133662057D01*
X141257405Y-133662057D02*
X141209786Y-133757295D01*
X141209786Y-133757295D02*
X141209786Y-133995390D01*
X141209786Y-133995390D02*
X141257405Y-134090628D01*
X141257405Y-134090628D02*
X141305024Y-134138247D01*
X141305024Y-134138247D02*
X141400262Y-134185866D01*
X141400262Y-134185866D02*
X141590738Y-134185866D01*
X141590738Y-134185866D02*
X141685976Y-134138247D01*
X141685976Y-134138247D02*
X141733595Y-134090628D01*
X141733595Y-134090628D02*
X141781214Y-133995390D01*
X129405141Y-63667818D02*
X129071808Y-63191627D01*
X128833713Y-63667818D02*
X128833713Y-62667818D01*
X128833713Y-62667818D02*
X129214665Y-62667818D01*
X129214665Y-62667818D02*
X129309903Y-62715437D01*
X129309903Y-62715437D02*
X129357522Y-62763056D01*
X129357522Y-62763056D02*
X129405141Y-62858294D01*
X129405141Y-62858294D02*
X129405141Y-63001151D01*
X129405141Y-63001151D02*
X129357522Y-63096389D01*
X129357522Y-63096389D02*
X129309903Y-63144008D01*
X129309903Y-63144008D02*
X129214665Y-63191627D01*
X129214665Y-63191627D02*
X128833713Y-63191627D01*
X129786094Y-62763056D02*
X129833713Y-62715437D01*
X129833713Y-62715437D02*
X129928951Y-62667818D01*
X129928951Y-62667818D02*
X130167046Y-62667818D01*
X130167046Y-62667818D02*
X130262284Y-62715437D01*
X130262284Y-62715437D02*
X130309903Y-62763056D01*
X130309903Y-62763056D02*
X130357522Y-62858294D01*
X130357522Y-62858294D02*
X130357522Y-62953532D01*
X130357522Y-62953532D02*
X130309903Y-63096389D01*
X130309903Y-63096389D02*
X129738475Y-63667818D01*
X129738475Y-63667818D02*
X130357522Y-63667818D01*
X130690856Y-62667818D02*
X131309903Y-62667818D01*
X131309903Y-62667818D02*
X130976570Y-63048770D01*
X130976570Y-63048770D02*
X131119427Y-63048770D01*
X131119427Y-63048770D02*
X131214665Y-63096389D01*
X131214665Y-63096389D02*
X131262284Y-63144008D01*
X131262284Y-63144008D02*
X131309903Y-63239246D01*
X131309903Y-63239246D02*
X131309903Y-63477341D01*
X131309903Y-63477341D02*
X131262284Y-63572579D01*
X131262284Y-63572579D02*
X131214665Y-63620199D01*
X131214665Y-63620199D02*
X131119427Y-63667818D01*
X131119427Y-63667818D02*
X130833713Y-63667818D01*
X130833713Y-63667818D02*
X130738475Y-63620199D01*
X130738475Y-63620199D02*
X130690856Y-63572579D01*
X118324332Y-46047818D02*
X117990999Y-45571627D01*
X117752904Y-46047818D02*
X117752904Y-45047818D01*
X117752904Y-45047818D02*
X118133856Y-45047818D01*
X118133856Y-45047818D02*
X118229094Y-45095437D01*
X118229094Y-45095437D02*
X118276713Y-45143056D01*
X118276713Y-45143056D02*
X118324332Y-45238294D01*
X118324332Y-45238294D02*
X118324332Y-45381151D01*
X118324332Y-45381151D02*
X118276713Y-45476389D01*
X118276713Y-45476389D02*
X118229094Y-45524008D01*
X118229094Y-45524008D02*
X118133856Y-45571627D01*
X118133856Y-45571627D02*
X117752904Y-45571627D01*
X118657666Y-45047818D02*
X119276713Y-45047818D01*
X119276713Y-45047818D02*
X118943380Y-45428770D01*
X118943380Y-45428770D02*
X119086237Y-45428770D01*
X119086237Y-45428770D02*
X119181475Y-45476389D01*
X119181475Y-45476389D02*
X119229094Y-45524008D01*
X119229094Y-45524008D02*
X119276713Y-45619246D01*
X119276713Y-45619246D02*
X119276713Y-45857341D01*
X119276713Y-45857341D02*
X119229094Y-45952579D01*
X119229094Y-45952579D02*
X119181475Y-46000199D01*
X119181475Y-46000199D02*
X119086237Y-46047818D01*
X119086237Y-46047818D02*
X118800523Y-46047818D01*
X118800523Y-46047818D02*
X118705285Y-46000199D01*
X118705285Y-46000199D02*
X118657666Y-45952579D01*
X121245332Y-38713579D02*
X121197713Y-38761199D01*
X121197713Y-38761199D02*
X121054856Y-38808818D01*
X121054856Y-38808818D02*
X120959618Y-38808818D01*
X120959618Y-38808818D02*
X120816761Y-38761199D01*
X120816761Y-38761199D02*
X120721523Y-38665960D01*
X120721523Y-38665960D02*
X120673904Y-38570722D01*
X120673904Y-38570722D02*
X120626285Y-38380246D01*
X120626285Y-38380246D02*
X120626285Y-38237389D01*
X120626285Y-38237389D02*
X120673904Y-38046913D01*
X120673904Y-38046913D02*
X120721523Y-37951675D01*
X120721523Y-37951675D02*
X120816761Y-37856437D01*
X120816761Y-37856437D02*
X120959618Y-37808818D01*
X120959618Y-37808818D02*
X121054856Y-37808818D01*
X121054856Y-37808818D02*
X121197713Y-37856437D01*
X121197713Y-37856437D02*
X121245332Y-37904056D01*
X122102475Y-37808818D02*
X121911999Y-37808818D01*
X121911999Y-37808818D02*
X121816761Y-37856437D01*
X121816761Y-37856437D02*
X121769142Y-37904056D01*
X121769142Y-37904056D02*
X121673904Y-38046913D01*
X121673904Y-38046913D02*
X121626285Y-38237389D01*
X121626285Y-38237389D02*
X121626285Y-38618341D01*
X121626285Y-38618341D02*
X121673904Y-38713579D01*
X121673904Y-38713579D02*
X121721523Y-38761199D01*
X121721523Y-38761199D02*
X121816761Y-38808818D01*
X121816761Y-38808818D02*
X122007237Y-38808818D01*
X122007237Y-38808818D02*
X122102475Y-38761199D01*
X122102475Y-38761199D02*
X122150094Y-38713579D01*
X122150094Y-38713579D02*
X122197713Y-38618341D01*
X122197713Y-38618341D02*
X122197713Y-38380246D01*
X122197713Y-38380246D02*
X122150094Y-38285008D01*
X122150094Y-38285008D02*
X122102475Y-38237389D01*
X122102475Y-38237389D02*
X122007237Y-38189770D01*
X122007237Y-38189770D02*
X121816761Y-38189770D01*
X121816761Y-38189770D02*
X121721523Y-38237389D01*
X121721523Y-38237389D02*
X121673904Y-38285008D01*
X121673904Y-38285008D02*
X121626285Y-38380246D01*
X157331579Y-70143665D02*
X157379199Y-70191284D01*
X157379199Y-70191284D02*
X157426818Y-70334141D01*
X157426818Y-70334141D02*
X157426818Y-70429379D01*
X157426818Y-70429379D02*
X157379199Y-70572236D01*
X157379199Y-70572236D02*
X157283960Y-70667474D01*
X157283960Y-70667474D02*
X157188722Y-70715093D01*
X157188722Y-70715093D02*
X156998246Y-70762712D01*
X156998246Y-70762712D02*
X156855389Y-70762712D01*
X156855389Y-70762712D02*
X156664913Y-70715093D01*
X156664913Y-70715093D02*
X156569675Y-70667474D01*
X156569675Y-70667474D02*
X156474437Y-70572236D01*
X156474437Y-70572236D02*
X156426818Y-70429379D01*
X156426818Y-70429379D02*
X156426818Y-70334141D01*
X156426818Y-70334141D02*
X156474437Y-70191284D01*
X156474437Y-70191284D02*
X156522056Y-70143665D01*
X156426818Y-69810331D02*
X156426818Y-69191284D01*
X156426818Y-69191284D02*
X156807770Y-69524617D01*
X156807770Y-69524617D02*
X156807770Y-69381760D01*
X156807770Y-69381760D02*
X156855389Y-69286522D01*
X156855389Y-69286522D02*
X156903008Y-69238903D01*
X156903008Y-69238903D02*
X156998246Y-69191284D01*
X156998246Y-69191284D02*
X157236341Y-69191284D01*
X157236341Y-69191284D02*
X157331579Y-69238903D01*
X157331579Y-69238903D02*
X157379199Y-69286522D01*
X157379199Y-69286522D02*
X157426818Y-69381760D01*
X157426818Y-69381760D02*
X157426818Y-69667474D01*
X157426818Y-69667474D02*
X157379199Y-69762712D01*
X157379199Y-69762712D02*
X157331579Y-69810331D01*
X142440818Y-58554856D02*
X141964627Y-58888189D01*
X142440818Y-59126284D02*
X141440818Y-59126284D01*
X141440818Y-59126284D02*
X141440818Y-58745332D01*
X141440818Y-58745332D02*
X141488437Y-58650094D01*
X141488437Y-58650094D02*
X141536056Y-58602475D01*
X141536056Y-58602475D02*
X141631294Y-58554856D01*
X141631294Y-58554856D02*
X141774151Y-58554856D01*
X141774151Y-58554856D02*
X141869389Y-58602475D01*
X141869389Y-58602475D02*
X141917008Y-58650094D01*
X141917008Y-58650094D02*
X141964627Y-58745332D01*
X141964627Y-58745332D02*
X141964627Y-59126284D01*
X142440818Y-57602475D02*
X142440818Y-58173903D01*
X142440818Y-57888189D02*
X141440818Y-57888189D01*
X141440818Y-57888189D02*
X141583675Y-57983427D01*
X141583675Y-57983427D02*
X141678913Y-58078665D01*
X141678913Y-58078665D02*
X141726532Y-58173903D01*
X141440818Y-56697713D02*
X141440818Y-57173903D01*
X141440818Y-57173903D02*
X141917008Y-57221522D01*
X141917008Y-57221522D02*
X141869389Y-57173903D01*
X141869389Y-57173903D02*
X141821770Y-57078665D01*
X141821770Y-57078665D02*
X141821770Y-56840570D01*
X141821770Y-56840570D02*
X141869389Y-56745332D01*
X141869389Y-56745332D02*
X141917008Y-56697713D01*
X141917008Y-56697713D02*
X142012246Y-56650094D01*
X142012246Y-56650094D02*
X142250341Y-56650094D01*
X142250341Y-56650094D02*
X142345579Y-56697713D01*
X142345579Y-56697713D02*
X142393199Y-56745332D01*
X142393199Y-56745332D02*
X142440818Y-56840570D01*
X142440818Y-56840570D02*
X142440818Y-57078665D01*
X142440818Y-57078665D02*
X142393199Y-57173903D01*
X142393199Y-57173903D02*
X142345579Y-57221522D01*
X118324332Y-47571818D02*
X117990999Y-47095627D01*
X117752904Y-47571818D02*
X117752904Y-46571818D01*
X117752904Y-46571818D02*
X118133856Y-46571818D01*
X118133856Y-46571818D02*
X118229094Y-46619437D01*
X118229094Y-46619437D02*
X118276713Y-46667056D01*
X118276713Y-46667056D02*
X118324332Y-46762294D01*
X118324332Y-46762294D02*
X118324332Y-46905151D01*
X118324332Y-46905151D02*
X118276713Y-47000389D01*
X118276713Y-47000389D02*
X118229094Y-47048008D01*
X118229094Y-47048008D02*
X118133856Y-47095627D01*
X118133856Y-47095627D02*
X117752904Y-47095627D01*
X118705285Y-46667056D02*
X118752904Y-46619437D01*
X118752904Y-46619437D02*
X118848142Y-46571818D01*
X118848142Y-46571818D02*
X119086237Y-46571818D01*
X119086237Y-46571818D02*
X119181475Y-46619437D01*
X119181475Y-46619437D02*
X119229094Y-46667056D01*
X119229094Y-46667056D02*
X119276713Y-46762294D01*
X119276713Y-46762294D02*
X119276713Y-46857532D01*
X119276713Y-46857532D02*
X119229094Y-47000389D01*
X119229094Y-47000389D02*
X118657666Y-47571818D01*
X118657666Y-47571818D02*
X119276713Y-47571818D01*
X145488818Y-58554856D02*
X145012627Y-58888189D01*
X145488818Y-59126284D02*
X144488818Y-59126284D01*
X144488818Y-59126284D02*
X144488818Y-58745332D01*
X144488818Y-58745332D02*
X144536437Y-58650094D01*
X144536437Y-58650094D02*
X144584056Y-58602475D01*
X144584056Y-58602475D02*
X144679294Y-58554856D01*
X144679294Y-58554856D02*
X144822151Y-58554856D01*
X144822151Y-58554856D02*
X144917389Y-58602475D01*
X144917389Y-58602475D02*
X144965008Y-58650094D01*
X144965008Y-58650094D02*
X145012627Y-58745332D01*
X145012627Y-58745332D02*
X145012627Y-59126284D01*
X145488818Y-57602475D02*
X145488818Y-58173903D01*
X145488818Y-57888189D02*
X144488818Y-57888189D01*
X144488818Y-57888189D02*
X144631675Y-57983427D01*
X144631675Y-57983427D02*
X144726913Y-58078665D01*
X144726913Y-58078665D02*
X144774532Y-58173903D01*
X144488818Y-57269141D02*
X144488818Y-56650094D01*
X144488818Y-56650094D02*
X144869770Y-56983427D01*
X144869770Y-56983427D02*
X144869770Y-56840570D01*
X144869770Y-56840570D02*
X144917389Y-56745332D01*
X144917389Y-56745332D02*
X144965008Y-56697713D01*
X144965008Y-56697713D02*
X145060246Y-56650094D01*
X145060246Y-56650094D02*
X145298341Y-56650094D01*
X145298341Y-56650094D02*
X145393579Y-56697713D01*
X145393579Y-56697713D02*
X145441199Y-56745332D01*
X145441199Y-56745332D02*
X145488818Y-56840570D01*
X145488818Y-56840570D02*
X145488818Y-57126284D01*
X145488818Y-57126284D02*
X145441199Y-57221522D01*
X145441199Y-57221522D02*
X145393579Y-57269141D01*
X153916141Y-72971818D02*
X153582808Y-72495627D01*
X153344713Y-72971818D02*
X153344713Y-71971818D01*
X153344713Y-71971818D02*
X153725665Y-71971818D01*
X153725665Y-71971818D02*
X153820903Y-72019437D01*
X153820903Y-72019437D02*
X153868522Y-72067056D01*
X153868522Y-72067056D02*
X153916141Y-72162294D01*
X153916141Y-72162294D02*
X153916141Y-72305151D01*
X153916141Y-72305151D02*
X153868522Y-72400389D01*
X153868522Y-72400389D02*
X153820903Y-72448008D01*
X153820903Y-72448008D02*
X153725665Y-72495627D01*
X153725665Y-72495627D02*
X153344713Y-72495627D01*
X154868522Y-72971818D02*
X154297094Y-72971818D01*
X154582808Y-72971818D02*
X154582808Y-71971818D01*
X154582808Y-71971818D02*
X154487570Y-72114675D01*
X154487570Y-72114675D02*
X154392332Y-72209913D01*
X154392332Y-72209913D02*
X154297094Y-72257532D01*
X155487570Y-71971818D02*
X155582808Y-71971818D01*
X155582808Y-71971818D02*
X155678046Y-72019437D01*
X155678046Y-72019437D02*
X155725665Y-72067056D01*
X155725665Y-72067056D02*
X155773284Y-72162294D01*
X155773284Y-72162294D02*
X155820903Y-72352770D01*
X155820903Y-72352770D02*
X155820903Y-72590865D01*
X155820903Y-72590865D02*
X155773284Y-72781341D01*
X155773284Y-72781341D02*
X155725665Y-72876579D01*
X155725665Y-72876579D02*
X155678046Y-72924199D01*
X155678046Y-72924199D02*
X155582808Y-72971818D01*
X155582808Y-72971818D02*
X155487570Y-72971818D01*
X155487570Y-72971818D02*
X155392332Y-72924199D01*
X155392332Y-72924199D02*
X155344713Y-72876579D01*
X155344713Y-72876579D02*
X155297094Y-72781341D01*
X155297094Y-72781341D02*
X155249475Y-72590865D01*
X155249475Y-72590865D02*
X155249475Y-72352770D01*
X155249475Y-72352770D02*
X155297094Y-72162294D01*
X155297094Y-72162294D02*
X155344713Y-72067056D01*
X155344713Y-72067056D02*
X155392332Y-72019437D01*
X155392332Y-72019437D02*
X155487570Y-71971818D01*
X154646332Y-64081818D02*
X154312999Y-63605627D01*
X154074904Y-64081818D02*
X154074904Y-63081818D01*
X154074904Y-63081818D02*
X154455856Y-63081818D01*
X154455856Y-63081818D02*
X154551094Y-63129437D01*
X154551094Y-63129437D02*
X154598713Y-63177056D01*
X154598713Y-63177056D02*
X154646332Y-63272294D01*
X154646332Y-63272294D02*
X154646332Y-63415151D01*
X154646332Y-63415151D02*
X154598713Y-63510389D01*
X154598713Y-63510389D02*
X154551094Y-63558008D01*
X154551094Y-63558008D02*
X154455856Y-63605627D01*
X154455856Y-63605627D02*
X154074904Y-63605627D01*
X155551094Y-63081818D02*
X155074904Y-63081818D01*
X155074904Y-63081818D02*
X155027285Y-63558008D01*
X155027285Y-63558008D02*
X155074904Y-63510389D01*
X155074904Y-63510389D02*
X155170142Y-63462770D01*
X155170142Y-63462770D02*
X155408237Y-63462770D01*
X155408237Y-63462770D02*
X155503475Y-63510389D01*
X155503475Y-63510389D02*
X155551094Y-63558008D01*
X155551094Y-63558008D02*
X155598713Y-63653246D01*
X155598713Y-63653246D02*
X155598713Y-63891341D01*
X155598713Y-63891341D02*
X155551094Y-63986579D01*
X155551094Y-63986579D02*
X155503475Y-64034199D01*
X155503475Y-64034199D02*
X155408237Y-64081818D01*
X155408237Y-64081818D02*
X155170142Y-64081818D01*
X155170142Y-64081818D02*
X155074904Y-64034199D01*
X155074904Y-64034199D02*
X155027285Y-63986579D01*
X130404819Y-116331904D02*
X131214342Y-116331904D01*
X131214342Y-116331904D02*
X131309580Y-116284285D01*
X131309580Y-116284285D02*
X131357200Y-116236666D01*
X131357200Y-116236666D02*
X131404819Y-116141428D01*
X131404819Y-116141428D02*
X131404819Y-115950952D01*
X131404819Y-115950952D02*
X131357200Y-115855714D01*
X131357200Y-115855714D02*
X131309580Y-115808095D01*
X131309580Y-115808095D02*
X131214342Y-115760476D01*
X131214342Y-115760476D02*
X130404819Y-115760476D01*
X130738152Y-114855714D02*
X131404819Y-114855714D01*
X130357200Y-115093809D02*
X131071485Y-115331904D01*
X131071485Y-115331904D02*
X131071485Y-114712857D01*
X126597579Y-83192856D02*
X126645199Y-83240475D01*
X126645199Y-83240475D02*
X126692818Y-83383332D01*
X126692818Y-83383332D02*
X126692818Y-83478570D01*
X126692818Y-83478570D02*
X126645199Y-83621427D01*
X126645199Y-83621427D02*
X126549960Y-83716665D01*
X126549960Y-83716665D02*
X126454722Y-83764284D01*
X126454722Y-83764284D02*
X126264246Y-83811903D01*
X126264246Y-83811903D02*
X126121389Y-83811903D01*
X126121389Y-83811903D02*
X125930913Y-83764284D01*
X125930913Y-83764284D02*
X125835675Y-83716665D01*
X125835675Y-83716665D02*
X125740437Y-83621427D01*
X125740437Y-83621427D02*
X125692818Y-83478570D01*
X125692818Y-83478570D02*
X125692818Y-83383332D01*
X125692818Y-83383332D02*
X125740437Y-83240475D01*
X125740437Y-83240475D02*
X125788056Y-83192856D01*
X126692818Y-82240475D02*
X126692818Y-82811903D01*
X126692818Y-82526189D02*
X125692818Y-82526189D01*
X125692818Y-82526189D02*
X125835675Y-82621427D01*
X125835675Y-82621427D02*
X125930913Y-82716665D01*
X125930913Y-82716665D02*
X125978532Y-82811903D01*
X125692818Y-81907141D02*
X125692818Y-81240475D01*
X125692818Y-81240475D02*
X126692818Y-81669046D01*
X134471010Y-97705056D02*
X134375772Y-97657437D01*
X134375772Y-97657437D02*
X134280534Y-97562199D01*
X134280534Y-97562199D02*
X134137677Y-97419341D01*
X134137677Y-97419341D02*
X134042439Y-97371722D01*
X134042439Y-97371722D02*
X133947201Y-97371722D01*
X133994820Y-97609818D02*
X133899582Y-97562199D01*
X133899582Y-97562199D02*
X133804344Y-97466960D01*
X133804344Y-97466960D02*
X133756725Y-97276484D01*
X133756725Y-97276484D02*
X133756725Y-96943151D01*
X133756725Y-96943151D02*
X133804344Y-96752675D01*
X133804344Y-96752675D02*
X133899582Y-96657437D01*
X133899582Y-96657437D02*
X133994820Y-96609818D01*
X133994820Y-96609818D02*
X134185296Y-96609818D01*
X134185296Y-96609818D02*
X134280534Y-96657437D01*
X134280534Y-96657437D02*
X134375772Y-96752675D01*
X134375772Y-96752675D02*
X134423391Y-96943151D01*
X134423391Y-96943151D02*
X134423391Y-97276484D01*
X134423391Y-97276484D02*
X134375772Y-97466960D01*
X134375772Y-97466960D02*
X134280534Y-97562199D01*
X134280534Y-97562199D02*
X134185296Y-97609818D01*
X134185296Y-97609818D02*
X133994820Y-97609818D01*
X135280534Y-96943151D02*
X135280534Y-97609818D01*
X135042439Y-96562199D02*
X134804344Y-97276484D01*
X134804344Y-97276484D02*
X135423391Y-97276484D01*
X161109818Y-40266856D02*
X160633627Y-40600189D01*
X161109818Y-40838284D02*
X160109818Y-40838284D01*
X160109818Y-40838284D02*
X160109818Y-40457332D01*
X160109818Y-40457332D02*
X160157437Y-40362094D01*
X160157437Y-40362094D02*
X160205056Y-40314475D01*
X160205056Y-40314475D02*
X160300294Y-40266856D01*
X160300294Y-40266856D02*
X160443151Y-40266856D01*
X160443151Y-40266856D02*
X160538389Y-40314475D01*
X160538389Y-40314475D02*
X160586008Y-40362094D01*
X160586008Y-40362094D02*
X160633627Y-40457332D01*
X160633627Y-40457332D02*
X160633627Y-40838284D01*
X160205056Y-39885903D02*
X160157437Y-39838284D01*
X160157437Y-39838284D02*
X160109818Y-39743046D01*
X160109818Y-39743046D02*
X160109818Y-39504951D01*
X160109818Y-39504951D02*
X160157437Y-39409713D01*
X160157437Y-39409713D02*
X160205056Y-39362094D01*
X160205056Y-39362094D02*
X160300294Y-39314475D01*
X160300294Y-39314475D02*
X160395532Y-39314475D01*
X160395532Y-39314475D02*
X160538389Y-39362094D01*
X160538389Y-39362094D02*
X161109818Y-39933522D01*
X161109818Y-39933522D02*
X161109818Y-39314475D01*
X161109818Y-38362094D02*
X161109818Y-38933522D01*
X161109818Y-38647808D02*
X160109818Y-38647808D01*
X160109818Y-38647808D02*
X160252675Y-38743046D01*
X160252675Y-38743046D02*
X160347913Y-38838284D01*
X160347913Y-38838284D02*
X160395532Y-38933522D01*
D12*
%TO.C,C14*%
X154213778Y-44828999D02*
X153888220Y-44828999D01*
X154213778Y-45848999D02*
X153888220Y-45848999D01*
D13*
%TO.C,C15*%
X138175999Y-85375999D02*
X138175999Y-83375999D01*
D14*
X164175999Y-95875999D02*
X141175999Y-95875999D01*
X141175999Y-78875999D01*
X164175999Y-78875999D01*
X164175999Y-95875999D01*
D12*
%TO.C,U7*%
X120055999Y-81649999D02*
X120055999Y-84099999D01*
X123275999Y-83449999D02*
X123275999Y-81649999D01*
%TO.C,C12*%
X123479778Y-25016999D02*
X123154220Y-25016999D01*
X123479778Y-26036999D02*
X123154220Y-26036999D01*
%TO.C,R17*%
X142999999Y-55153778D02*
X142999999Y-54828220D01*
X144019999Y-55153778D02*
X144019999Y-54828220D01*
D15*
%TO.C,R29*%
X131727149Y-88811099D02*
X134718849Y-88811099D01*
X134718849Y-85940899D02*
X131727149Y-85940899D01*
D12*
%TO.C,C16*%
X122648477Y-86389098D02*
X122131321Y-86389098D01*
X122648477Y-87809098D02*
X122131321Y-87809098D01*
%TO.C,R22*%
X123479778Y-29588999D02*
X123154220Y-29588999D01*
X123479778Y-30608999D02*
X123154220Y-30608999D01*
%TO.C,J2*%
X158760999Y-36541999D02*
X158760999Y-32291999D01*
X160435999Y-37591999D02*
X162935999Y-37591999D01*
X162935999Y-31241999D02*
X160435999Y-31241999D01*
X162935999Y-32541999D02*
X162935999Y-31241999D01*
X162935999Y-37591999D02*
X162935999Y-36291999D01*
%TO.C,R11*%
X154721778Y-75435999D02*
X154396220Y-75435999D01*
X154721778Y-76455999D02*
X154396220Y-76455999D01*
%TO.C,C10*%
X120140000Y-111749721D02*
X120140000Y-112075279D01*
X121160000Y-111749721D02*
X121160000Y-112075279D01*
%TO.C,D1*%
X116077999Y-39115999D02*
X116077999Y-39369999D01*
X116077999Y-40639999D02*
X116077999Y-42671999D01*
X116077999Y-43941999D02*
X116077999Y-44195999D01*
X116077999Y-44195999D02*
X121157999Y-44195999D01*
X121157999Y-39115999D02*
X116077999Y-39115999D01*
X121157999Y-39369999D02*
X121157999Y-39115999D01*
X121157999Y-40639999D02*
X121157999Y-42671999D01*
X121157999Y-44195999D02*
X121157999Y-43941999D01*
X122025209Y-44449999D02*
G75*
G02*
X121306789Y-44449999I-359210J0D01*
G01*
X121306789Y-44449999D02*
G75*
G02*
X122025209Y-44449999I359210J0D01*
G01*
D15*
%TO.C,D4*%
X129666999Y-92354399D02*
X129666999Y-89255599D01*
X129666999Y-92354399D02*
X136182099Y-92354399D01*
X130263899Y-89255599D02*
X130263899Y-89621359D01*
X130263899Y-91988639D02*
X130263899Y-92354399D01*
X136182099Y-89255599D02*
X129666999Y-89255599D01*
X136182099Y-89621359D02*
X136182099Y-89255599D01*
X136182099Y-92354399D02*
X136182099Y-91988639D01*
D16*
%TO.C,J5*%
X116658499Y-57771999D02*
X116658499Y-59821999D01*
X116658499Y-63621999D02*
X116658499Y-65671999D01*
X116658499Y-65671999D02*
X120658499Y-65671999D01*
X120658499Y-57771999D02*
X116658499Y-57771999D01*
X124258499Y-63921999D02*
X124258499Y-59521999D01*
D10*
X115758499Y-63871999D02*
G75*
G02*
X115558499Y-63871999I-100000J0D01*
G01*
X115558499Y-63871999D02*
G75*
G02*
X115758499Y-63871999I100000J0D01*
G01*
D12*
%TO.C,C5*%
X147571999Y-60670220D02*
X147571999Y-60995778D01*
X148591999Y-60670220D02*
X148591999Y-60995778D01*
D11*
%TO.C,D7*%
X130057749Y-95183999D02*
X130692749Y-95564999D01*
X130057749Y-95564999D02*
X129676749Y-95564999D01*
X130057749Y-95945999D02*
X130057749Y-95183999D01*
X130692749Y-95564999D02*
X130057749Y-95945999D01*
X130692749Y-96072999D02*
X130692749Y-95056999D01*
X131073749Y-95564999D02*
X130692749Y-95564999D01*
X132375249Y-94410999D02*
X128835249Y-94410999D01*
X132375249Y-96718999D02*
X128835249Y-96718999D01*
D12*
%TO.C,R14*%
X142999999Y-60995778D02*
X142999999Y-60670220D01*
X144019999Y-60995778D02*
X144019999Y-60670220D01*
%TO.C,R6*%
X150276778Y-62862999D02*
X149951220Y-62862999D01*
X150276778Y-63882999D02*
X149951220Y-63882999D01*
%TO.C,R8*%
X127886999Y-35016220D02*
X127886999Y-35341778D01*
X128906999Y-35016220D02*
X128906999Y-35341778D01*
%TO.C,D3*%
X156302999Y-74985999D02*
X156302999Y-76905999D01*
X156302999Y-76905999D02*
X158987999Y-76905999D01*
X158987999Y-74985999D02*
X156302999Y-74985999D01*
D16*
%TO.C,J1*%
X116658499Y-76559999D02*
X116658499Y-78609999D01*
X116658499Y-78609999D02*
X120658499Y-78609999D01*
X116662499Y-66709999D02*
X116662499Y-68759999D01*
X120662499Y-66709999D02*
X116662499Y-66709999D01*
X124258499Y-68459999D02*
X124258499Y-72659999D01*
X124258499Y-76859999D02*
X124258499Y-72659999D01*
D10*
X115758499Y-76809999D02*
G75*
G02*
X115558499Y-76809999I-100000J0D01*
G01*
X115558499Y-76809999D02*
G75*
G02*
X115758499Y-76809999I100000J0D01*
G01*
D11*
%TO.C,U3*%
X143225999Y-65615999D02*
X144335999Y-65615999D01*
X143225999Y-69765999D02*
X143225999Y-65615999D01*
X144335999Y-69765999D02*
X143225999Y-69765999D01*
X144335999Y-69765999D02*
X144335999Y-70890999D01*
X152175999Y-65615999D02*
X151065999Y-65615999D01*
X152175999Y-69765999D02*
X151065999Y-69765999D01*
X152175999Y-69765999D02*
X152175999Y-65615999D01*
D12*
%TO.C,R24*%
X133568220Y-64132999D02*
X133893778Y-64132999D01*
X133568220Y-65152999D02*
X133893778Y-65152999D01*
%TO.C,U1*%
X124312999Y-44068999D02*
X124312999Y-42118999D01*
X124312999Y-44068999D02*
X124312999Y-47518999D01*
X129432999Y-44068999D02*
X129432999Y-42118999D01*
X129432999Y-44068999D02*
X129432999Y-46018999D01*
%TO.C,C18*%
X118798120Y-86589098D02*
X119123678Y-86589098D01*
X118798120Y-87609098D02*
X119123678Y-87609098D01*
%TO.C,R7*%
X122425999Y-41818778D02*
X122425999Y-41493220D01*
X123445999Y-41818778D02*
X123445999Y-41493220D01*
%TO.C,R16*%
X141475999Y-55153778D02*
X141475999Y-54828220D01*
X142495999Y-55153778D02*
X142495999Y-54828220D01*
%TO.C,C19*%
X118034999Y-82291421D02*
X118034999Y-82808577D01*
X119454999Y-82291421D02*
X119454999Y-82808577D01*
%TO.C,R1*%
X161452778Y-72514999D02*
X161127220Y-72514999D01*
X161452778Y-73534999D02*
X161127220Y-73534999D01*
%TO.C,R30*%
X130538028Y-92895999D02*
X130212470Y-92895999D01*
X130538028Y-93915999D02*
X130212470Y-93915999D01*
%TO.C,R12*%
X146047999Y-60995778D02*
X146047999Y-60670220D01*
X147067999Y-60995778D02*
X147067999Y-60670220D01*
%TO.C,R9*%
X126362999Y-35016220D02*
X126362999Y-35341778D01*
X127382999Y-35016220D02*
X127382999Y-35341778D01*
%TO.C,C7*%
X131639220Y-73003999D02*
X131964778Y-73003999D01*
X131639220Y-74023999D02*
X131964778Y-74023999D01*
%TO.C,Q2*%
X128487999Y-67436999D02*
X128487999Y-66786999D01*
X128487999Y-67436999D02*
X128487999Y-68086999D01*
X131607999Y-67436999D02*
X131607999Y-65761999D01*
X131607999Y-67436999D02*
X131607999Y-68086999D01*
D17*
%TO.C,U2*%
X130334999Y-74675999D02*
X130334999Y-77723999D01*
X130334999Y-74675999D02*
X133382999Y-74675999D01*
X130334999Y-77723999D02*
X133382999Y-77723999D01*
X133382999Y-74675999D02*
X133382999Y-77723999D01*
D18*
X133975999Y-74971999D02*
G75*
G02*
X133775999Y-74971999I-100000J0D01*
G01*
X133775999Y-74971999D02*
G75*
G02*
X133975999Y-74971999I100000J0D01*
G01*
D12*
%TO.C,R20*%
X161668999Y-39461220D02*
X161668999Y-39786778D01*
X162688999Y-39461220D02*
X162688999Y-39786778D01*
%TO.C,C1*%
X161548577Y-70536999D02*
X161031421Y-70536999D01*
X161548577Y-71956999D02*
X161031421Y-71956999D01*
%TO.C,J10*%
X121917000Y-133967000D02*
X121917000Y-126856000D01*
X124237000Y-133967000D02*
X124237000Y-126856000D01*
X125953000Y-133967000D02*
X125953000Y-126856000D01*
X128273000Y-133967000D02*
X128273000Y-126856000D01*
%TO.C,C4*%
X128243999Y-76343778D02*
X128243999Y-76018220D01*
X129263999Y-76343778D02*
X129263999Y-76018220D01*
D15*
%TO.C,U6*%
X114846099Y-88788198D02*
X114846099Y-96585998D01*
X114846099Y-96585998D02*
X126707899Y-96585998D01*
X126707899Y-88788198D02*
X114846099Y-88788198D01*
X126707899Y-96585998D02*
X126707899Y-88788198D01*
D19*
X128866899Y-91058999D02*
G75*
G02*
X128104899Y-91058999I-381000J0D01*
G01*
X128104899Y-91058999D02*
G75*
G02*
X128866899Y-91058999I381000J0D01*
G01*
D12*
%TO.C,C11*%
X122044999Y-27975778D02*
X122044999Y-27650220D01*
X123064999Y-27975778D02*
X123064999Y-27650220D01*
%TO.C,C2*%
X153540999Y-69814220D02*
X153540999Y-70139778D01*
X154560999Y-69814220D02*
X154560999Y-70139778D01*
D15*
%TO.C,D6*%
X129666999Y-85496399D02*
X129666999Y-82397599D01*
X129666999Y-85496399D02*
X136182099Y-85496399D01*
X130263899Y-82397599D02*
X130263899Y-82763359D01*
X130263899Y-85130639D02*
X130263899Y-85496399D01*
X136182099Y-82397599D02*
X129666999Y-82397599D01*
X136182099Y-82763359D02*
X136182099Y-82397599D01*
X136182099Y-85496399D02*
X136182099Y-85130639D01*
D20*
%TO.C,G\u002A\u002A\u002A*%
G36*
X157331338Y-32087905D02*
G01*
X157394815Y-32099935D01*
X157449761Y-32123291D01*
X157497481Y-32158433D01*
X157516894Y-32178158D01*
X157547958Y-32221300D01*
X157566549Y-32269017D01*
X157573809Y-32324478D01*
X157574001Y-32336530D01*
X157568993Y-32393136D01*
X157553068Y-32441556D01*
X157524872Y-32485470D01*
X157515059Y-32496944D01*
X157471752Y-32536191D01*
X157422046Y-32563933D01*
X157364417Y-32580696D01*
X157297343Y-32587005D01*
X157256017Y-32586215D01*
X157219539Y-32583716D01*
X157192388Y-32579719D01*
X157168649Y-32572708D01*
X157142409Y-32561168D01*
X157125742Y-32552839D01*
X157073840Y-32520159D01*
X157035242Y-32481136D01*
X157008916Y-32434212D01*
X156993829Y-32377829D01*
X156990405Y-32348621D01*
X156990633Y-32317136D01*
X156994873Y-32284697D01*
X156997180Y-32275026D01*
X157020700Y-32216770D01*
X157055251Y-32168912D01*
X157100505Y-32131691D01*
X157156132Y-32105342D01*
X157221805Y-32090104D01*
X157258028Y-32086740D01*
X157331338Y-32087905D01*
G37*
G36*
X156546075Y-37411958D02*
G01*
X156583302Y-37411958D01*
X156583260Y-37451967D01*
X156580562Y-37492633D01*
X156573120Y-37525878D01*
X156561769Y-37548811D01*
X156552987Y-37556663D01*
X156527543Y-37563919D01*
X156499336Y-37562821D01*
X156475262Y-37554010D01*
X156468688Y-37548829D01*
X156457287Y-37538741D01*
X156448114Y-37538020D01*
X156434160Y-37546425D01*
X156432489Y-37547579D01*
X156411002Y-37562035D01*
X156399123Y-37567676D01*
X156394006Y-37564475D01*
X156392805Y-37552403D01*
X156392783Y-37547183D01*
X156395042Y-37528771D01*
X156404613Y-37517009D01*
X156419456Y-37508752D01*
X156437725Y-37497602D01*
X156445172Y-37484413D01*
X156446129Y-37473047D01*
X156444654Y-37457606D01*
X156437147Y-37451273D01*
X156419456Y-37450062D01*
X156483356Y-37450062D01*
X156485699Y-37481674D01*
X156491060Y-37507452D01*
X156501379Y-37521644D01*
X156518873Y-37526049D01*
X156532883Y-37516873D01*
X156541769Y-37495668D01*
X156543732Y-37481674D01*
X156546075Y-37450062D01*
X156483356Y-37450062D01*
X156419456Y-37450062D01*
X156401418Y-37448638D01*
X156394034Y-37442233D01*
X156392783Y-37431010D01*
X156392783Y-37411958D01*
X156546075Y-37411958D01*
G37*
G36*
X156542120Y-37301695D02*
G01*
X156566038Y-37311856D01*
X156609864Y-37342044D01*
X156642751Y-37380849D01*
X156664128Y-37425790D01*
X156673426Y-37474387D01*
X156670073Y-37524158D01*
X156653499Y-37572623D01*
X156633393Y-37604881D01*
X156615387Y-37623180D01*
X156590347Y-37642397D01*
X156573809Y-37652637D01*
X156548007Y-37665313D01*
X156524507Y-37672029D01*
X156496158Y-37674469D01*
X156480422Y-37674622D01*
X156425662Y-37667624D01*
X156378050Y-37647246D01*
X156338298Y-37613926D01*
X156307275Y-37568408D01*
X156296528Y-37538123D01*
X156290144Y-37500970D01*
X156289747Y-37490911D01*
X156332752Y-37490911D01*
X156341766Y-37535104D01*
X156343612Y-37539747D01*
X156367073Y-37578646D01*
X156399167Y-37607702D01*
X156437107Y-37626244D01*
X156478106Y-37633601D01*
X156519380Y-37629101D01*
X156558141Y-37612074D01*
X156578285Y-37596277D01*
X156608056Y-37558705D01*
X156624362Y-37516798D01*
X156627331Y-37473115D01*
X156617088Y-37430216D01*
X156593762Y-37390660D01*
X156566725Y-37363898D01*
X156529786Y-37343691D01*
X156487875Y-37335591D01*
X156445141Y-37339494D01*
X156405729Y-37355294D01*
X156387614Y-37368449D01*
X156356381Y-37404836D01*
X156337859Y-37446573D01*
X156332752Y-37490911D01*
X156289747Y-37490911D01*
X156288655Y-37463236D01*
X156292592Y-37431211D01*
X156295012Y-37423389D01*
X156320048Y-37376457D01*
X156354768Y-37338858D01*
X156396752Y-37311588D01*
X156443585Y-37295640D01*
X156487875Y-37292377D01*
X156492846Y-37292011D01*
X156542120Y-37301695D01*
G37*
G36*
X157382740Y-31261005D02*
G01*
X157509263Y-31280008D01*
X157628476Y-31312364D01*
X157740640Y-31358198D01*
X157846016Y-31417636D01*
X157944864Y-31490803D01*
X158032510Y-31572674D01*
X158112298Y-31665419D01*
X158178857Y-31764724D01*
X158232820Y-31871739D01*
X158274823Y-31987615D01*
X158288551Y-32037233D01*
X158309405Y-32119339D01*
X158309405Y-34390326D01*
X158309403Y-34610910D01*
X158309394Y-34816775D01*
X158309375Y-35008445D01*
X158309342Y-35186443D01*
X158309294Y-35351292D01*
X158309226Y-35503516D01*
X158309135Y-35643637D01*
X158309018Y-35772179D01*
X158308872Y-35889665D01*
X158308694Y-35996617D01*
X158308480Y-36093560D01*
X158308228Y-36181016D01*
X158307933Y-36259509D01*
X158307593Y-36329561D01*
X158307205Y-36391696D01*
X158306766Y-36446437D01*
X158306271Y-36494308D01*
X158305719Y-36535831D01*
X158305105Y-36571529D01*
X158304427Y-36601926D01*
X158303681Y-36627545D01*
X158302865Y-36648909D01*
X158301975Y-36666541D01*
X158301007Y-36680964D01*
X158299959Y-36692702D01*
X158298827Y-36702278D01*
X158297609Y-36710215D01*
X158296301Y-36717035D01*
X158295131Y-36722279D01*
X158258823Y-36846112D01*
X158209978Y-36961892D01*
X158149051Y-37069028D01*
X158076494Y-37166927D01*
X157992760Y-37254998D01*
X157898302Y-37332649D01*
X157793574Y-37399288D01*
X157765270Y-37414453D01*
X157660270Y-37462078D01*
X157555044Y-37496031D01*
X157446512Y-37517051D01*
X157331593Y-37525880D01*
X157299999Y-37526269D01*
X157173342Y-37519431D01*
X157053164Y-37498824D01*
X156939127Y-37464314D01*
X156830894Y-37415765D01*
X156728125Y-37353040D01*
X156630484Y-37276006D01*
X156594802Y-37243093D01*
X156513755Y-37156959D01*
X156445564Y-37066023D01*
X156389204Y-36968445D01*
X156343654Y-36862385D01*
X156307891Y-36746004D01*
X156299732Y-36712364D01*
X156288867Y-36665123D01*
X156692700Y-36665123D01*
X156693803Y-36737521D01*
X157000565Y-36741641D01*
X157003786Y-36674272D01*
X157010265Y-36619804D01*
X157024769Y-36575971D01*
X157048622Y-36539719D01*
X157071968Y-36516900D01*
X157120854Y-36484545D01*
X157176946Y-36462084D01*
X157237488Y-36449434D01*
X157299727Y-36446510D01*
X157360905Y-36453228D01*
X157418270Y-36469506D01*
X157469064Y-36495258D01*
X157510396Y-36530250D01*
X157538841Y-36567273D01*
X157556366Y-36605239D01*
X157564777Y-36649073D01*
X157566213Y-36682425D01*
X157566381Y-36741640D01*
X157724511Y-36739580D01*
X157882642Y-36737521D01*
X157881418Y-36642261D01*
X157877554Y-36566409D01*
X157867291Y-36499788D01*
X157849452Y-36437308D01*
X157822860Y-36373883D01*
X157816216Y-36360293D01*
X157778802Y-36299047D01*
X157730195Y-36240312D01*
X157674116Y-36187862D01*
X157614284Y-36145472D01*
X157592622Y-36133441D01*
X157542711Y-36109464D01*
X157497209Y-36091778D01*
X157452174Y-36079532D01*
X157403660Y-36071875D01*
X157347723Y-36067954D01*
X157284412Y-36066915D01*
X157223373Y-36067653D01*
X157173706Y-36070377D01*
X157131587Y-36075882D01*
X157093195Y-36084963D01*
X157054706Y-36098417D01*
X157012297Y-36117039D01*
X156988449Y-36128526D01*
X156914204Y-36173289D01*
X156849704Y-36229617D01*
X156795689Y-36296782D01*
X156764864Y-36349171D01*
X156732688Y-36419267D01*
X156710705Y-36486038D01*
X156697768Y-36554508D01*
X156692728Y-36629703D01*
X156692700Y-36665123D01*
X156288867Y-36665123D01*
X156282733Y-36638451D01*
X156281921Y-35986876D01*
X156705235Y-35986876D01*
X157284412Y-35986876D01*
X157871211Y-35986876D01*
X157871211Y-35605837D01*
X156705235Y-35605837D01*
X156705235Y-35986876D01*
X156281921Y-35986876D01*
X156281351Y-35529630D01*
X156705235Y-35529630D01*
X157871211Y-35529630D01*
X157871211Y-35148592D01*
X156705235Y-35148592D01*
X156705235Y-35529630D01*
X156281351Y-35529630D01*
X156279248Y-33842648D01*
X156705235Y-33842648D01*
X157057695Y-33951889D01*
X157128036Y-33973755D01*
X157193938Y-33994368D01*
X157253967Y-34013269D01*
X157306690Y-34030002D01*
X157350675Y-34044109D01*
X157384489Y-34055134D01*
X157406699Y-34062619D01*
X157415872Y-34066107D01*
X157415986Y-34066188D01*
X157410099Y-34069345D01*
X157390987Y-34076475D01*
X157360015Y-34087132D01*
X157318544Y-34100870D01*
X157267939Y-34117246D01*
X157209562Y-34135813D01*
X157144777Y-34156128D01*
X157074947Y-34177744D01*
X157063535Y-34181251D01*
X156705253Y-34291256D01*
X156705244Y-34481821D01*
X156705235Y-34672387D01*
X157283298Y-34883817D01*
X157373005Y-34916606D01*
X157458570Y-34947838D01*
X157538915Y-34977124D01*
X157612962Y-35004071D01*
X157679633Y-35028289D01*
X157737850Y-35049387D01*
X157786535Y-35066974D01*
X157824610Y-35080659D01*
X157850998Y-35090051D01*
X157864620Y-35094759D01*
X157866286Y-35095246D01*
X157867651Y-35087971D01*
X157868870Y-35067523D01*
X157869889Y-35035972D01*
X157870653Y-34995388D01*
X157871107Y-34947839D01*
X157871211Y-34909981D01*
X157871211Y-34724715D01*
X157499699Y-34615544D01*
X157426624Y-34594027D01*
X157357441Y-34573572D01*
X157293635Y-34554623D01*
X157236693Y-34537627D01*
X157188101Y-34523028D01*
X157149344Y-34511273D01*
X157121909Y-34502804D01*
X157107282Y-34498069D01*
X157105906Y-34497564D01*
X157102096Y-34495874D01*
X157099906Y-34494054D01*
X157100194Y-34491830D01*
X157103816Y-34488933D01*
X157111630Y-34485091D01*
X157124492Y-34480034D01*
X157143260Y-34473489D01*
X157168790Y-34465185D01*
X157201941Y-34454852D01*
X157243568Y-34442219D01*
X157294529Y-34427014D01*
X157355682Y-34408966D01*
X157427882Y-34387804D01*
X157511988Y-34363257D01*
X157608855Y-34335053D01*
X157719342Y-34302922D01*
X157741658Y-34296435D01*
X157867401Y-34259879D01*
X157869440Y-34076024D01*
X157871480Y-33892170D01*
X157808474Y-33873175D01*
X157787707Y-33867016D01*
X157754172Y-33857197D01*
X157709752Y-33844265D01*
X157656329Y-33828765D01*
X157595786Y-33811242D01*
X157530006Y-33792243D01*
X157460870Y-33772313D01*
X157421586Y-33761006D01*
X157354023Y-33741498D01*
X157290980Y-33723156D01*
X157233970Y-33706429D01*
X157184501Y-33691769D01*
X157144085Y-33679624D01*
X157114233Y-33670444D01*
X157096455Y-33664678D01*
X157091991Y-33662905D01*
X157097971Y-33659883D01*
X157117261Y-33653022D01*
X157148537Y-33642734D01*
X157190472Y-33629434D01*
X157241742Y-33613533D01*
X157301021Y-33595447D01*
X157366984Y-33575588D01*
X157438305Y-33554369D01*
X157470534Y-33544858D01*
X157544294Y-33523094D01*
X157613716Y-33502513D01*
X157677411Y-33483534D01*
X157733988Y-33466576D01*
X157782057Y-33452058D01*
X157820227Y-33440398D01*
X157847109Y-33432015D01*
X157861312Y-33427329D01*
X157863134Y-33426581D01*
X157865987Y-33418449D01*
X157868046Y-33397676D01*
X157869332Y-33363665D01*
X157869863Y-33315818D01*
X157869659Y-33253537D01*
X157869440Y-33230271D01*
X157867401Y-33039118D01*
X157286449Y-33249855D01*
X156705497Y-33460593D01*
X156705366Y-33651620D01*
X156705235Y-33842648D01*
X156279248Y-33842648D01*
X156278169Y-32976675D01*
X157867401Y-32976675D01*
X157871211Y-32976675D01*
X157871211Y-32588016D01*
X157723127Y-32588016D01*
X157762129Y-32548007D01*
X157811342Y-32488533D01*
X157848329Y-32422616D01*
X157864332Y-32382255D01*
X157873969Y-32342992D01*
X157880131Y-32293531D01*
X157882753Y-32238527D01*
X157881770Y-32182637D01*
X157877118Y-32130516D01*
X157868733Y-32086822D01*
X157868428Y-32085705D01*
X157837862Y-32002716D01*
X157794618Y-31927932D01*
X157739295Y-31862077D01*
X157672493Y-31805873D01*
X157600674Y-31762941D01*
X157530052Y-31734286D01*
X157450098Y-31713483D01*
X157364911Y-31701176D01*
X157278586Y-31698009D01*
X157213852Y-31702210D01*
X157152586Y-31710475D01*
X157101328Y-31720745D01*
X157054850Y-31734484D01*
X157007927Y-31753154D01*
X156971961Y-31769971D01*
X156899648Y-31813044D01*
X156836077Y-31866655D01*
X156783176Y-31928900D01*
X156744900Y-31993596D01*
X156712898Y-32076686D01*
X156694782Y-32164069D01*
X156689993Y-32243159D01*
X156696661Y-32326672D01*
X156716539Y-32403188D01*
X156749443Y-32472218D01*
X156795186Y-32533275D01*
X156804280Y-32542882D01*
X156848443Y-32588016D01*
X156278472Y-32588016D01*
X156279753Y-32403212D01*
X156280228Y-32349793D01*
X156280869Y-32299833D01*
X156281627Y-32255885D01*
X156282455Y-32220500D01*
X156283304Y-32196232D01*
X156283816Y-32187926D01*
X156302094Y-32068043D01*
X156334179Y-31952166D01*
X156379211Y-31841449D01*
X156436331Y-31737046D01*
X156504680Y-31640114D01*
X156583398Y-31551808D01*
X156671626Y-31473282D01*
X156768505Y-31405691D01*
X156873175Y-31350192D01*
X156922426Y-31329532D01*
X157037553Y-31292160D01*
X157154235Y-31268061D01*
X157270186Y-31257575D01*
X157382740Y-31261005D01*
G37*
D12*
%TO.C,R19*%
X136336720Y-72895999D02*
X136662278Y-72895999D01*
X136336720Y-73915999D02*
X136662278Y-73915999D01*
%TO.C,J9*%
X151127000Y-133967000D02*
X151127000Y-126856000D01*
X153447000Y-133967000D02*
X153447000Y-126856000D01*
X155163000Y-133967000D02*
X155163000Y-126856000D01*
X157483000Y-133967000D02*
X157483000Y-126856000D01*
%TO.C,R28*%
X155229778Y-61592999D02*
X154904220Y-61592999D01*
X155229778Y-62612999D02*
X154904220Y-62612999D01*
%TO.C,R4*%
X154975778Y-67180999D02*
X154650220Y-67180999D01*
X154975778Y-68200999D02*
X154650220Y-68200999D01*
%TO.C,C8*%
X147101778Y-71498999D02*
X146776220Y-71498999D01*
X147101778Y-72518999D02*
X146776220Y-72518999D01*
%TO.C,R18*%
X123568999Y-27975778D02*
X123568999Y-27650220D01*
X124588999Y-27975778D02*
X124588999Y-27650220D01*
%TO.C,R26*%
X133568220Y-69720999D02*
X133893778Y-69720999D01*
X133568220Y-70740999D02*
X133893778Y-70740999D01*
%TO.C,D2*%
X156302999Y-72826999D02*
X156302999Y-74746999D01*
X156302999Y-74746999D02*
X158987999Y-74746999D01*
X158987999Y-72826999D02*
X156302999Y-72826999D01*
D15*
%TO.C,D5*%
X129666999Y-81940399D02*
X129666999Y-78841599D01*
X129666999Y-81940399D02*
X136182099Y-81940399D01*
X130263899Y-78841599D02*
X130263899Y-79207359D01*
X130263899Y-81574639D02*
X130263899Y-81940399D01*
X136182099Y-78841599D02*
X129666999Y-78841599D01*
X136182099Y-79207359D02*
X136182099Y-78841599D01*
X136182099Y-81940399D02*
X136182099Y-81574639D01*
D12*
%TO.C,R27*%
X150205220Y-44828999D02*
X150530778Y-44828999D01*
X150205220Y-45848999D02*
X150530778Y-45848999D01*
D15*
%TO.C,SW1*%
X117017799Y-33011620D02*
X117017799Y-35568378D01*
X117185450Y-37414199D02*
X124840999Y-37414199D01*
X123098548Y-31165799D02*
X117185450Y-31165799D01*
X123266199Y-35568378D02*
X123266199Y-33011620D01*
D21*
X122808999Y-36575999D02*
G75*
G02*
X122554999Y-36575999I-127000J0D01*
G01*
X122554999Y-36575999D02*
G75*
G02*
X122808999Y-36575999I127000J0D01*
G01*
D12*
%TO.C,Q3*%
X132170999Y-67436999D02*
X132170999Y-66786999D01*
X132170999Y-67436999D02*
X132170999Y-68086999D01*
X135290999Y-67436999D02*
X135290999Y-65761999D01*
X135290999Y-67436999D02*
X135290999Y-68086999D01*
%TO.C,U5*%
X130579999Y-41865999D02*
X130579999Y-42645999D01*
X130579999Y-42645999D02*
X131579999Y-42645999D01*
X148819999Y-23113999D02*
X148819999Y-23875999D01*
X148819999Y-41865999D02*
X148819999Y-42645999D01*
X148819999Y-42645999D02*
X147819999Y-42645999D01*
X130574999Y-23790999D02*
X130074999Y-23790999D01*
X130574999Y-23290999D01*
X130574999Y-23790999D01*
G36*
X130574999Y-23790999D02*
G01*
X130074999Y-23790999D01*
X130574999Y-23290999D01*
X130574999Y-23790999D01*
G37*
D15*
%TO.C,Q1*%
X142182238Y-52946299D02*
X143313760Y-52946299D01*
X143313760Y-50685699D02*
X141223999Y-50685699D01*
D12*
%TO.C,R25*%
X129885220Y-69720999D02*
X130210778Y-69720999D01*
X129885220Y-70740999D02*
X130210778Y-70740999D01*
%TO.C,C9*%
X138745279Y-133602000D02*
X138419721Y-133602000D01*
X138745279Y-134622000D02*
X138419721Y-134622000D01*
%TO.C,R23*%
X129885220Y-64132999D02*
X130210778Y-64132999D01*
X129885220Y-65152999D02*
X130210778Y-65152999D01*
%TO.C,R3*%
X120741220Y-45082999D02*
X121066778Y-45082999D01*
X120741220Y-46102999D02*
X121066778Y-46102999D01*
%TO.C,C6*%
X123662220Y-37970999D02*
X123987778Y-37970999D01*
X123662220Y-38990999D02*
X123987778Y-38990999D01*
%TO.C,C3*%
X155064999Y-69814220D02*
X155064999Y-70139778D01*
X156084999Y-69814220D02*
X156084999Y-70139778D01*
%TO.C,R15*%
X141475999Y-60995778D02*
X141475999Y-60670220D01*
X142495999Y-60995778D02*
X142495999Y-60670220D01*
%TO.C,R2*%
X120741220Y-46606999D02*
X121066778Y-46606999D01*
X120741220Y-47626999D02*
X121066778Y-47626999D01*
%TO.C,R13*%
X144523999Y-60670220D02*
X144523999Y-60995778D01*
X145543999Y-60670220D02*
X145543999Y-60995778D01*
%TO.C,R10*%
X154396220Y-73276999D02*
X154721778Y-73276999D01*
X154396220Y-74296999D02*
X154721778Y-74296999D01*
%TO.C,R5*%
X154650220Y-65656999D02*
X154975778Y-65656999D01*
X154650220Y-66676999D02*
X154975778Y-66676999D01*
%TO.C,C13*%
X123479778Y-23492999D02*
X123154220Y-23492999D01*
X123479778Y-24512999D02*
X123154220Y-24512999D01*
D16*
%TO.C,J8*%
X152898999Y-46893999D02*
X164148999Y-46893999D01*
X164148999Y-46893999D02*
X164148999Y-48767999D01*
X164148999Y-60693999D02*
X152898999Y-60693999D01*
X164148999Y-60693999D02*
X164148999Y-59293999D01*
D12*
%TO.C,U4*%
X131840000Y-107710000D02*
X147560000Y-107710000D01*
X131840000Y-123320000D02*
X131840000Y-107710000D01*
X136900000Y-123430000D02*
X147560000Y-123430000D01*
X147560000Y-123430000D02*
X147560000Y-107710000D01*
%TO.C,C17*%
X123876999Y-82808577D02*
X123876999Y-82291421D01*
X125296999Y-82808577D02*
X125296999Y-82291421D01*
D16*
%TO.C,J4*%
X116658499Y-48754999D02*
X116658499Y-50804999D01*
X116658499Y-54604999D02*
X116658499Y-56654999D01*
X116658499Y-56654999D02*
X120658499Y-56654999D01*
X120658499Y-48754999D02*
X116658499Y-48754999D01*
X124258499Y-54904999D02*
X124258499Y-50504999D01*
D10*
X115758499Y-54854999D02*
G75*
G02*
X115558499Y-54854999I-100000J0D01*
G01*
X115558499Y-54854999D02*
G75*
G02*
X115758499Y-54854999I100000J0D01*
G01*
D12*
%TO.C,Q4*%
X135326249Y-92968999D02*
X133166249Y-92968999D01*
X135326249Y-92968999D02*
X135326249Y-93898999D01*
X135326249Y-96128999D02*
X133866249Y-96128999D01*
X135326249Y-96128999D02*
X135326249Y-95198999D01*
%TO.C,R21*%
X163192999Y-39461220D02*
X163192999Y-39786778D01*
X164212999Y-39461220D02*
X164212999Y-39786778D01*
D16*
%TO.C,J6*%
X159535999Y-65666999D02*
X159535999Y-66416999D01*
X163535999Y-62416999D02*
X160785999Y-62416999D01*
X163535999Y-62416999D02*
X163535999Y-64416999D01*
X163535999Y-67916999D02*
X163535999Y-69916999D01*
X163535999Y-69916999D02*
X159535999Y-69916999D01*
%TD*%
M02*
