%TF.GenerationSoftware,KiCad,Pcbnew,8.0.1-rc1*%
%TF.CreationDate,2024-06-07T10:26:59-05:00*%
%TF.ProjectId,Cutdown,43757464-6f77-46e2-9e6b-696361645f70,2.0.0*%
%TF.SameCoordinates,Original*%
%TF.FileFunction,Soldermask,Top*%
%TF.FilePolarity,Negative*%
%FSLAX46Y46*%
G04 Gerber Fmt 4.6, Leading zero omitted, Abs format (unit mm)*
G04 Created by KiCad (PCBNEW 8.0.1-rc1) date 2024-06-07 10:26:59*
%MOMM*%
%LPD*%
G01*
G04 APERTURE LIST*
G04 Aperture macros list*
%AMRoundRect*
0 Rectangle with rounded corners*
0 $1 Rounding radius*
0 $2 $3 $4 $5 $6 $7 $8 $9 X,Y pos of 4 corners*
0 Add a 4 corners polygon primitive as box body*
4,1,4,$2,$3,$4,$5,$6,$7,$8,$9,$2,$3,0*
0 Add four circle primitives for the rounded corners*
1,1,$1+$1,$2,$3*
1,1,$1+$1,$4,$5*
1,1,$1+$1,$6,$7*
1,1,$1+$1,$8,$9*
0 Add four rect primitives between the rounded corners*
20,1,$1+$1,$2,$3,$4,$5,0*
20,1,$1+$1,$4,$5,$6,$7,0*
20,1,$1+$1,$6,$7,$8,$9,0*
20,1,$1+$1,$8,$9,$2,$3,0*%
G04 Aperture macros list end*
%ADD10C,0.010000*%
%ADD11RoundRect,0.218750X0.218750X0.256250X-0.218750X0.256250X-0.218750X-0.256250X0.218750X-0.256250X0*%
%ADD12RoundRect,0.218750X-0.256250X0.218750X-0.256250X-0.218750X0.256250X-0.218750X0.256250X0.218750X0*%
%ADD13R,1.800000X1.200000*%
%ADD14R,1.550000X0.600000*%
%ADD15R,3.500000X1.000000*%
%ADD16R,3.400000X1.500000*%
%ADD17C,2.200000*%
%ADD18RoundRect,0.218750X-0.218750X-0.256250X0.218750X-0.256250X0.218750X0.256250X-0.218750X0.256250X0*%
%ADD19C,3.302000*%
%ADD20RoundRect,0.302260X-0.967740X-0.967740X0.967740X-0.967740X0.967740X0.967740X-0.967740X0.967740X0*%
%ADD21C,2.540000*%
%ADD22RoundRect,0.218750X0.256250X-0.218750X0.256250X0.218750X-0.256250X0.218750X-0.256250X-0.218750X0*%
%ADD23R,0.800000X0.900000*%
%ADD24R,2.616200X1.752600*%
%ADD25R,1.000000X1.500000*%
%ADD26RoundRect,0.102000X-1.750000X0.500000X-1.750000X-0.500000X1.750000X-0.500000X1.750000X0.500000X0*%
%ADD27RoundRect,0.102000X-1.700000X0.750000X-1.700000X-0.750000X1.700000X-0.750000X1.700000X0.750000X0*%
%ADD28C,1.498600*%
%ADD29RoundRect,0.243750X-0.243750X-0.456250X0.243750X-0.456250X0.243750X0.456250X-0.243750X0.456250X0*%
%ADD30C,2.000000*%
%ADD31RoundRect,0.243750X0.243750X0.456250X-0.243750X0.456250X-0.243750X-0.456250X0.243750X-0.456250X0*%
%ADD32RoundRect,0.000001X0.750000X-0.900000X0.750000X0.900000X-0.750000X0.900000X-0.750000X-0.900000X0*%
%ADD33RoundRect,0.000001X0.900000X-0.750000X0.900000X0.750000X-0.900000X0.750000X-0.900000X-0.750000X0*%
%ADD34RoundRect,0.150000X-0.825000X-0.150000X0.825000X-0.150000X0.825000X0.150000X-0.825000X0.150000X0*%
%ADD35R,0.900000X1.700000*%
%ADD36R,0.882000X1.700000*%
%ADD37C,1.050000*%
%ADD38C,1.300000*%
%ADD39R,2.300000X4.500000*%
%ADD40C,3.810000*%
%ADD41RoundRect,0.076200X-0.200000X0.200000X-0.200000X-0.200000X0.200000X-0.200000X0.200000X0.200000X0*%
%ADD42O,1.304000X2.004000*%
%ADD43O,1.254000X1.654000*%
%ADD44RoundRect,0.102000X-0.787400X-0.787400X0.787400X-0.787400X0.787400X0.787400X-0.787400X0.787400X0*%
%ADD45C,1.778800*%
%ADD46RoundRect,0.511200X-0.340800X-0.340800X0.340800X-0.340800X0.340800X0.340800X-0.340800X0.340800X0*%
%ADD47R,2.184400X1.701800*%
%ADD48RoundRect,0.243750X0.456250X-0.243750X0.456250X0.243750X-0.456250X0.243750X-0.456250X-0.243750X0*%
%ADD49C,2.600000*%
%ADD50RoundRect,0.249900X0.800100X0.800100X-0.800100X0.800100X-0.800100X-0.800100X0.800100X-0.800100X0*%
%ADD51C,2.100000*%
%ADD52R,1.060000X0.650000*%
%ADD53R,1.701800X2.184400*%
G04 APERTURE END LIST*
D10*
%TO.C,U5*%
X74977000Y-46091000D02*
X75024000Y-46095000D01*
X75071000Y-46101000D01*
X75117000Y-46110000D01*
X75163000Y-46121000D01*
X75208000Y-46134000D01*
X75253000Y-46150000D01*
X75296000Y-46168000D01*
X75339000Y-46188000D01*
X75380000Y-46211000D01*
X75420000Y-46235000D01*
X75459000Y-46262000D01*
X75496000Y-46291000D01*
X75532000Y-46321000D01*
X75566000Y-46354000D01*
X75599000Y-46388000D01*
X75629000Y-46424000D01*
X75658000Y-46461000D01*
X75685000Y-46500000D01*
X75709000Y-46540000D01*
X75732000Y-46581000D01*
X75752000Y-46624000D01*
X75770000Y-46667000D01*
X75786000Y-46712000D01*
X75799000Y-46757000D01*
X75810000Y-46803000D01*
X75819000Y-46849000D01*
X75825000Y-46896000D01*
X75829000Y-46943000D01*
X75830000Y-46990000D01*
X75829000Y-47037000D01*
X75825000Y-47084000D01*
X75819000Y-47131000D01*
X75810000Y-47177000D01*
X75799000Y-47223000D01*
X75786000Y-47268000D01*
X75770000Y-47313000D01*
X75752000Y-47356000D01*
X75732000Y-47399000D01*
X75709000Y-47440000D01*
X75685000Y-47480000D01*
X75658000Y-47519000D01*
X75629000Y-47556000D01*
X75599000Y-47592000D01*
X75566000Y-47626000D01*
X75532000Y-47659000D01*
X75496000Y-47689000D01*
X75459000Y-47718000D01*
X75420000Y-47745000D01*
X75380000Y-47769000D01*
X75339000Y-47792000D01*
X75296000Y-47812000D01*
X75253000Y-47830000D01*
X75208000Y-47846000D01*
X75163000Y-47859000D01*
X75117000Y-47870000D01*
X75071000Y-47879000D01*
X75024000Y-47885000D01*
X74977000Y-47889000D01*
X74930000Y-47890000D01*
X72430000Y-47890000D01*
X72430000Y-46090000D01*
X74930000Y-46090000D01*
X74977000Y-46091000D01*
G36*
X74977000Y-46091000D02*
G01*
X75024000Y-46095000D01*
X75071000Y-46101000D01*
X75117000Y-46110000D01*
X75163000Y-46121000D01*
X75208000Y-46134000D01*
X75253000Y-46150000D01*
X75296000Y-46168000D01*
X75339000Y-46188000D01*
X75380000Y-46211000D01*
X75420000Y-46235000D01*
X75459000Y-46262000D01*
X75496000Y-46291000D01*
X75532000Y-46321000D01*
X75566000Y-46354000D01*
X75599000Y-46388000D01*
X75629000Y-46424000D01*
X75658000Y-46461000D01*
X75685000Y-46500000D01*
X75709000Y-46540000D01*
X75732000Y-46581000D01*
X75752000Y-46624000D01*
X75770000Y-46667000D01*
X75786000Y-46712000D01*
X75799000Y-46757000D01*
X75810000Y-46803000D01*
X75819000Y-46849000D01*
X75825000Y-46896000D01*
X75829000Y-46943000D01*
X75830000Y-46990000D01*
X75829000Y-47037000D01*
X75825000Y-47084000D01*
X75819000Y-47131000D01*
X75810000Y-47177000D01*
X75799000Y-47223000D01*
X75786000Y-47268000D01*
X75770000Y-47313000D01*
X75752000Y-47356000D01*
X75732000Y-47399000D01*
X75709000Y-47440000D01*
X75685000Y-47480000D01*
X75658000Y-47519000D01*
X75629000Y-47556000D01*
X75599000Y-47592000D01*
X75566000Y-47626000D01*
X75532000Y-47659000D01*
X75496000Y-47689000D01*
X75459000Y-47718000D01*
X75420000Y-47745000D01*
X75380000Y-47769000D01*
X75339000Y-47792000D01*
X75296000Y-47812000D01*
X75253000Y-47830000D01*
X75208000Y-47846000D01*
X75163000Y-47859000D01*
X75117000Y-47870000D01*
X75071000Y-47879000D01*
X75024000Y-47885000D01*
X74977000Y-47889000D01*
X74930000Y-47890000D01*
X72430000Y-47890000D01*
X72430000Y-46090000D01*
X74930000Y-46090000D01*
X74977000Y-46091000D01*
G37*
X74977000Y-48631000D02*
X75024000Y-48635000D01*
X75071000Y-48641000D01*
X75117000Y-48650000D01*
X75163000Y-48661000D01*
X75208000Y-48674000D01*
X75253000Y-48690000D01*
X75296000Y-48708000D01*
X75339000Y-48728000D01*
X75380000Y-48751000D01*
X75420000Y-48775000D01*
X75459000Y-48802000D01*
X75496000Y-48831000D01*
X75532000Y-48861000D01*
X75566000Y-48894000D01*
X75599000Y-48928000D01*
X75629000Y-48964000D01*
X75658000Y-49001000D01*
X75685000Y-49040000D01*
X75709000Y-49080000D01*
X75732000Y-49121000D01*
X75752000Y-49164000D01*
X75770000Y-49207000D01*
X75786000Y-49252000D01*
X75799000Y-49297000D01*
X75810000Y-49343000D01*
X75819000Y-49389000D01*
X75825000Y-49436000D01*
X75829000Y-49483000D01*
X75830000Y-49530000D01*
X75829000Y-49577000D01*
X75825000Y-49624000D01*
X75819000Y-49671000D01*
X75810000Y-49717000D01*
X75799000Y-49763000D01*
X75786000Y-49808000D01*
X75770000Y-49853000D01*
X75752000Y-49896000D01*
X75732000Y-49939000D01*
X75709000Y-49980000D01*
X75685000Y-50020000D01*
X75658000Y-50059000D01*
X75629000Y-50096000D01*
X75599000Y-50132000D01*
X75566000Y-50166000D01*
X75532000Y-50199000D01*
X75496000Y-50229000D01*
X75459000Y-50258000D01*
X75420000Y-50285000D01*
X75380000Y-50309000D01*
X75339000Y-50332000D01*
X75296000Y-50352000D01*
X75253000Y-50370000D01*
X75208000Y-50386000D01*
X75163000Y-50399000D01*
X75117000Y-50410000D01*
X75071000Y-50419000D01*
X75024000Y-50425000D01*
X74977000Y-50429000D01*
X74930000Y-50430000D01*
X72430000Y-50430000D01*
X72430000Y-48630000D01*
X74930000Y-48630000D01*
X74977000Y-48631000D01*
G36*
X74977000Y-48631000D02*
G01*
X75024000Y-48635000D01*
X75071000Y-48641000D01*
X75117000Y-48650000D01*
X75163000Y-48661000D01*
X75208000Y-48674000D01*
X75253000Y-48690000D01*
X75296000Y-48708000D01*
X75339000Y-48728000D01*
X75380000Y-48751000D01*
X75420000Y-48775000D01*
X75459000Y-48802000D01*
X75496000Y-48831000D01*
X75532000Y-48861000D01*
X75566000Y-48894000D01*
X75599000Y-48928000D01*
X75629000Y-48964000D01*
X75658000Y-49001000D01*
X75685000Y-49040000D01*
X75709000Y-49080000D01*
X75732000Y-49121000D01*
X75752000Y-49164000D01*
X75770000Y-49207000D01*
X75786000Y-49252000D01*
X75799000Y-49297000D01*
X75810000Y-49343000D01*
X75819000Y-49389000D01*
X75825000Y-49436000D01*
X75829000Y-49483000D01*
X75830000Y-49530000D01*
X75829000Y-49577000D01*
X75825000Y-49624000D01*
X75819000Y-49671000D01*
X75810000Y-49717000D01*
X75799000Y-49763000D01*
X75786000Y-49808000D01*
X75770000Y-49853000D01*
X75752000Y-49896000D01*
X75732000Y-49939000D01*
X75709000Y-49980000D01*
X75685000Y-50020000D01*
X75658000Y-50059000D01*
X75629000Y-50096000D01*
X75599000Y-50132000D01*
X75566000Y-50166000D01*
X75532000Y-50199000D01*
X75496000Y-50229000D01*
X75459000Y-50258000D01*
X75420000Y-50285000D01*
X75380000Y-50309000D01*
X75339000Y-50332000D01*
X75296000Y-50352000D01*
X75253000Y-50370000D01*
X75208000Y-50386000D01*
X75163000Y-50399000D01*
X75117000Y-50410000D01*
X75071000Y-50419000D01*
X75024000Y-50425000D01*
X74977000Y-50429000D01*
X74930000Y-50430000D01*
X72430000Y-50430000D01*
X72430000Y-48630000D01*
X74930000Y-48630000D01*
X74977000Y-48631000D01*
G37*
X74977000Y-53711000D02*
X75024000Y-53715000D01*
X75071000Y-53721000D01*
X75117000Y-53730000D01*
X75163000Y-53741000D01*
X75208000Y-53754000D01*
X75253000Y-53770000D01*
X75296000Y-53788000D01*
X75339000Y-53808000D01*
X75380000Y-53831000D01*
X75420000Y-53855000D01*
X75459000Y-53882000D01*
X75496000Y-53911000D01*
X75532000Y-53941000D01*
X75566000Y-53974000D01*
X75599000Y-54008000D01*
X75629000Y-54044000D01*
X75658000Y-54081000D01*
X75685000Y-54120000D01*
X75709000Y-54160000D01*
X75732000Y-54201000D01*
X75752000Y-54244000D01*
X75770000Y-54287000D01*
X75786000Y-54332000D01*
X75799000Y-54377000D01*
X75810000Y-54423000D01*
X75819000Y-54469000D01*
X75825000Y-54516000D01*
X75829000Y-54563000D01*
X75830000Y-54610000D01*
X75829000Y-54657000D01*
X75825000Y-54704000D01*
X75819000Y-54751000D01*
X75810000Y-54797000D01*
X75799000Y-54843000D01*
X75786000Y-54888000D01*
X75770000Y-54933000D01*
X75752000Y-54976000D01*
X75732000Y-55019000D01*
X75709000Y-55060000D01*
X75685000Y-55100000D01*
X75658000Y-55139000D01*
X75629000Y-55176000D01*
X75599000Y-55212000D01*
X75566000Y-55246000D01*
X75532000Y-55279000D01*
X75496000Y-55309000D01*
X75459000Y-55338000D01*
X75420000Y-55365000D01*
X75380000Y-55389000D01*
X75339000Y-55412000D01*
X75296000Y-55432000D01*
X75253000Y-55450000D01*
X75208000Y-55466000D01*
X75163000Y-55479000D01*
X75117000Y-55490000D01*
X75071000Y-55499000D01*
X75024000Y-55505000D01*
X74977000Y-55509000D01*
X74930000Y-55510000D01*
X72430000Y-55510000D01*
X72430000Y-53710000D01*
X74930000Y-53710000D01*
X74977000Y-53711000D01*
G36*
X74977000Y-53711000D02*
G01*
X75024000Y-53715000D01*
X75071000Y-53721000D01*
X75117000Y-53730000D01*
X75163000Y-53741000D01*
X75208000Y-53754000D01*
X75253000Y-53770000D01*
X75296000Y-53788000D01*
X75339000Y-53808000D01*
X75380000Y-53831000D01*
X75420000Y-53855000D01*
X75459000Y-53882000D01*
X75496000Y-53911000D01*
X75532000Y-53941000D01*
X75566000Y-53974000D01*
X75599000Y-54008000D01*
X75629000Y-54044000D01*
X75658000Y-54081000D01*
X75685000Y-54120000D01*
X75709000Y-54160000D01*
X75732000Y-54201000D01*
X75752000Y-54244000D01*
X75770000Y-54287000D01*
X75786000Y-54332000D01*
X75799000Y-54377000D01*
X75810000Y-54423000D01*
X75819000Y-54469000D01*
X75825000Y-54516000D01*
X75829000Y-54563000D01*
X75830000Y-54610000D01*
X75829000Y-54657000D01*
X75825000Y-54704000D01*
X75819000Y-54751000D01*
X75810000Y-54797000D01*
X75799000Y-54843000D01*
X75786000Y-54888000D01*
X75770000Y-54933000D01*
X75752000Y-54976000D01*
X75732000Y-55019000D01*
X75709000Y-55060000D01*
X75685000Y-55100000D01*
X75658000Y-55139000D01*
X75629000Y-55176000D01*
X75599000Y-55212000D01*
X75566000Y-55246000D01*
X75532000Y-55279000D01*
X75496000Y-55309000D01*
X75459000Y-55338000D01*
X75420000Y-55365000D01*
X75380000Y-55389000D01*
X75339000Y-55412000D01*
X75296000Y-55432000D01*
X75253000Y-55450000D01*
X75208000Y-55466000D01*
X75163000Y-55479000D01*
X75117000Y-55490000D01*
X75071000Y-55499000D01*
X75024000Y-55505000D01*
X74977000Y-55509000D01*
X74930000Y-55510000D01*
X72430000Y-55510000D01*
X72430000Y-53710000D01*
X74930000Y-53710000D01*
X74977000Y-53711000D01*
G37*
X74977000Y-56251000D02*
X75024000Y-56255000D01*
X75071000Y-56261000D01*
X75117000Y-56270000D01*
X75163000Y-56281000D01*
X75208000Y-56294000D01*
X75253000Y-56310000D01*
X75296000Y-56328000D01*
X75339000Y-56348000D01*
X75380000Y-56371000D01*
X75420000Y-56395000D01*
X75459000Y-56422000D01*
X75496000Y-56451000D01*
X75532000Y-56481000D01*
X75566000Y-56514000D01*
X75599000Y-56548000D01*
X75629000Y-56584000D01*
X75658000Y-56621000D01*
X75685000Y-56660000D01*
X75709000Y-56700000D01*
X75732000Y-56741000D01*
X75752000Y-56784000D01*
X75770000Y-56827000D01*
X75786000Y-56872000D01*
X75799000Y-56917000D01*
X75810000Y-56963000D01*
X75819000Y-57009000D01*
X75825000Y-57056000D01*
X75829000Y-57103000D01*
X75830000Y-57150000D01*
X75829000Y-57197000D01*
X75825000Y-57244000D01*
X75819000Y-57291000D01*
X75810000Y-57337000D01*
X75799000Y-57383000D01*
X75786000Y-57428000D01*
X75770000Y-57473000D01*
X75752000Y-57516000D01*
X75732000Y-57559000D01*
X75709000Y-57600000D01*
X75685000Y-57640000D01*
X75658000Y-57679000D01*
X75629000Y-57716000D01*
X75599000Y-57752000D01*
X75566000Y-57786000D01*
X75532000Y-57819000D01*
X75496000Y-57849000D01*
X75459000Y-57878000D01*
X75420000Y-57905000D01*
X75380000Y-57929000D01*
X75339000Y-57952000D01*
X75296000Y-57972000D01*
X75253000Y-57990000D01*
X75208000Y-58006000D01*
X75163000Y-58019000D01*
X75117000Y-58030000D01*
X75071000Y-58039000D01*
X75024000Y-58045000D01*
X74977000Y-58049000D01*
X74930000Y-58050000D01*
X72430000Y-58050000D01*
X72430000Y-56250000D01*
X74930000Y-56250000D01*
X74977000Y-56251000D01*
G36*
X74977000Y-56251000D02*
G01*
X75024000Y-56255000D01*
X75071000Y-56261000D01*
X75117000Y-56270000D01*
X75163000Y-56281000D01*
X75208000Y-56294000D01*
X75253000Y-56310000D01*
X75296000Y-56328000D01*
X75339000Y-56348000D01*
X75380000Y-56371000D01*
X75420000Y-56395000D01*
X75459000Y-56422000D01*
X75496000Y-56451000D01*
X75532000Y-56481000D01*
X75566000Y-56514000D01*
X75599000Y-56548000D01*
X75629000Y-56584000D01*
X75658000Y-56621000D01*
X75685000Y-56660000D01*
X75709000Y-56700000D01*
X75732000Y-56741000D01*
X75752000Y-56784000D01*
X75770000Y-56827000D01*
X75786000Y-56872000D01*
X75799000Y-56917000D01*
X75810000Y-56963000D01*
X75819000Y-57009000D01*
X75825000Y-57056000D01*
X75829000Y-57103000D01*
X75830000Y-57150000D01*
X75829000Y-57197000D01*
X75825000Y-57244000D01*
X75819000Y-57291000D01*
X75810000Y-57337000D01*
X75799000Y-57383000D01*
X75786000Y-57428000D01*
X75770000Y-57473000D01*
X75752000Y-57516000D01*
X75732000Y-57559000D01*
X75709000Y-57600000D01*
X75685000Y-57640000D01*
X75658000Y-57679000D01*
X75629000Y-57716000D01*
X75599000Y-57752000D01*
X75566000Y-57786000D01*
X75532000Y-57819000D01*
X75496000Y-57849000D01*
X75459000Y-57878000D01*
X75420000Y-57905000D01*
X75380000Y-57929000D01*
X75339000Y-57952000D01*
X75296000Y-57972000D01*
X75253000Y-57990000D01*
X75208000Y-58006000D01*
X75163000Y-58019000D01*
X75117000Y-58030000D01*
X75071000Y-58039000D01*
X75024000Y-58045000D01*
X74977000Y-58049000D01*
X74930000Y-58050000D01*
X72430000Y-58050000D01*
X72430000Y-56250000D01*
X74930000Y-56250000D01*
X74977000Y-56251000D01*
G37*
X74977000Y-58791000D02*
X75024000Y-58795000D01*
X75071000Y-58801000D01*
X75117000Y-58810000D01*
X75163000Y-58821000D01*
X75208000Y-58834000D01*
X75253000Y-58850000D01*
X75296000Y-58868000D01*
X75339000Y-58888000D01*
X75380000Y-58911000D01*
X75420000Y-58935000D01*
X75459000Y-58962000D01*
X75496000Y-58991000D01*
X75532000Y-59021000D01*
X75566000Y-59054000D01*
X75599000Y-59088000D01*
X75629000Y-59124000D01*
X75658000Y-59161000D01*
X75685000Y-59200000D01*
X75709000Y-59240000D01*
X75732000Y-59281000D01*
X75752000Y-59324000D01*
X75770000Y-59367000D01*
X75786000Y-59412000D01*
X75799000Y-59457000D01*
X75810000Y-59503000D01*
X75819000Y-59549000D01*
X75825000Y-59596000D01*
X75829000Y-59643000D01*
X75830000Y-59690000D01*
X75829000Y-59737000D01*
X75825000Y-59784000D01*
X75819000Y-59831000D01*
X75810000Y-59877000D01*
X75799000Y-59923000D01*
X75786000Y-59968000D01*
X75770000Y-60013000D01*
X75752000Y-60056000D01*
X75732000Y-60099000D01*
X75709000Y-60140000D01*
X75685000Y-60180000D01*
X75658000Y-60219000D01*
X75629000Y-60256000D01*
X75599000Y-60292000D01*
X75566000Y-60326000D01*
X75532000Y-60359000D01*
X75496000Y-60389000D01*
X75459000Y-60418000D01*
X75420000Y-60445000D01*
X75380000Y-60469000D01*
X75339000Y-60492000D01*
X75296000Y-60512000D01*
X75253000Y-60530000D01*
X75208000Y-60546000D01*
X75163000Y-60559000D01*
X75117000Y-60570000D01*
X75071000Y-60579000D01*
X75024000Y-60585000D01*
X74977000Y-60589000D01*
X74930000Y-60590000D01*
X72430000Y-60590000D01*
X72430000Y-58790000D01*
X74930000Y-58790000D01*
X74977000Y-58791000D01*
G36*
X74977000Y-58791000D02*
G01*
X75024000Y-58795000D01*
X75071000Y-58801000D01*
X75117000Y-58810000D01*
X75163000Y-58821000D01*
X75208000Y-58834000D01*
X75253000Y-58850000D01*
X75296000Y-58868000D01*
X75339000Y-58888000D01*
X75380000Y-58911000D01*
X75420000Y-58935000D01*
X75459000Y-58962000D01*
X75496000Y-58991000D01*
X75532000Y-59021000D01*
X75566000Y-59054000D01*
X75599000Y-59088000D01*
X75629000Y-59124000D01*
X75658000Y-59161000D01*
X75685000Y-59200000D01*
X75709000Y-59240000D01*
X75732000Y-59281000D01*
X75752000Y-59324000D01*
X75770000Y-59367000D01*
X75786000Y-59412000D01*
X75799000Y-59457000D01*
X75810000Y-59503000D01*
X75819000Y-59549000D01*
X75825000Y-59596000D01*
X75829000Y-59643000D01*
X75830000Y-59690000D01*
X75829000Y-59737000D01*
X75825000Y-59784000D01*
X75819000Y-59831000D01*
X75810000Y-59877000D01*
X75799000Y-59923000D01*
X75786000Y-59968000D01*
X75770000Y-60013000D01*
X75752000Y-60056000D01*
X75732000Y-60099000D01*
X75709000Y-60140000D01*
X75685000Y-60180000D01*
X75658000Y-60219000D01*
X75629000Y-60256000D01*
X75599000Y-60292000D01*
X75566000Y-60326000D01*
X75532000Y-60359000D01*
X75496000Y-60389000D01*
X75459000Y-60418000D01*
X75420000Y-60445000D01*
X75380000Y-60469000D01*
X75339000Y-60492000D01*
X75296000Y-60512000D01*
X75253000Y-60530000D01*
X75208000Y-60546000D01*
X75163000Y-60559000D01*
X75117000Y-60570000D01*
X75071000Y-60579000D01*
X75024000Y-60585000D01*
X74977000Y-60589000D01*
X74930000Y-60590000D01*
X72430000Y-60590000D01*
X72430000Y-58790000D01*
X74930000Y-58790000D01*
X74977000Y-58791000D01*
G37*
X74977000Y-61331000D02*
X75024000Y-61335000D01*
X75071000Y-61341000D01*
X75117000Y-61350000D01*
X75163000Y-61361000D01*
X75208000Y-61374000D01*
X75253000Y-61390000D01*
X75296000Y-61408000D01*
X75339000Y-61428000D01*
X75380000Y-61451000D01*
X75420000Y-61475000D01*
X75459000Y-61502000D01*
X75496000Y-61531000D01*
X75532000Y-61561000D01*
X75566000Y-61594000D01*
X75599000Y-61628000D01*
X75629000Y-61664000D01*
X75658000Y-61701000D01*
X75685000Y-61740000D01*
X75709000Y-61780000D01*
X75732000Y-61821000D01*
X75752000Y-61864000D01*
X75770000Y-61907000D01*
X75786000Y-61952000D01*
X75799000Y-61997000D01*
X75810000Y-62043000D01*
X75819000Y-62089000D01*
X75825000Y-62136000D01*
X75829000Y-62183000D01*
X75830000Y-62230000D01*
X75829000Y-62277000D01*
X75825000Y-62324000D01*
X75819000Y-62371000D01*
X75810000Y-62417000D01*
X75799000Y-62463000D01*
X75786000Y-62508000D01*
X75770000Y-62553000D01*
X75752000Y-62596000D01*
X75732000Y-62639000D01*
X75709000Y-62680000D01*
X75685000Y-62720000D01*
X75658000Y-62759000D01*
X75629000Y-62796000D01*
X75599000Y-62832000D01*
X75566000Y-62866000D01*
X75532000Y-62899000D01*
X75496000Y-62929000D01*
X75459000Y-62958000D01*
X75420000Y-62985000D01*
X75380000Y-63009000D01*
X75339000Y-63032000D01*
X75296000Y-63052000D01*
X75253000Y-63070000D01*
X75208000Y-63086000D01*
X75163000Y-63099000D01*
X75117000Y-63110000D01*
X75071000Y-63119000D01*
X75024000Y-63125000D01*
X74977000Y-63129000D01*
X74930000Y-63130000D01*
X72430000Y-63130000D01*
X72430000Y-61330000D01*
X74930000Y-61330000D01*
X74977000Y-61331000D01*
G36*
X74977000Y-61331000D02*
G01*
X75024000Y-61335000D01*
X75071000Y-61341000D01*
X75117000Y-61350000D01*
X75163000Y-61361000D01*
X75208000Y-61374000D01*
X75253000Y-61390000D01*
X75296000Y-61408000D01*
X75339000Y-61428000D01*
X75380000Y-61451000D01*
X75420000Y-61475000D01*
X75459000Y-61502000D01*
X75496000Y-61531000D01*
X75532000Y-61561000D01*
X75566000Y-61594000D01*
X75599000Y-61628000D01*
X75629000Y-61664000D01*
X75658000Y-61701000D01*
X75685000Y-61740000D01*
X75709000Y-61780000D01*
X75732000Y-61821000D01*
X75752000Y-61864000D01*
X75770000Y-61907000D01*
X75786000Y-61952000D01*
X75799000Y-61997000D01*
X75810000Y-62043000D01*
X75819000Y-62089000D01*
X75825000Y-62136000D01*
X75829000Y-62183000D01*
X75830000Y-62230000D01*
X75829000Y-62277000D01*
X75825000Y-62324000D01*
X75819000Y-62371000D01*
X75810000Y-62417000D01*
X75799000Y-62463000D01*
X75786000Y-62508000D01*
X75770000Y-62553000D01*
X75752000Y-62596000D01*
X75732000Y-62639000D01*
X75709000Y-62680000D01*
X75685000Y-62720000D01*
X75658000Y-62759000D01*
X75629000Y-62796000D01*
X75599000Y-62832000D01*
X75566000Y-62866000D01*
X75532000Y-62899000D01*
X75496000Y-62929000D01*
X75459000Y-62958000D01*
X75420000Y-62985000D01*
X75380000Y-63009000D01*
X75339000Y-63032000D01*
X75296000Y-63052000D01*
X75253000Y-63070000D01*
X75208000Y-63086000D01*
X75163000Y-63099000D01*
X75117000Y-63110000D01*
X75071000Y-63119000D01*
X75024000Y-63125000D01*
X74977000Y-63129000D01*
X74930000Y-63130000D01*
X72430000Y-63130000D01*
X72430000Y-61330000D01*
X74930000Y-61330000D01*
X74977000Y-61331000D01*
G37*
X74977000Y-66411000D02*
X75024000Y-66415000D01*
X75071000Y-66421000D01*
X75117000Y-66430000D01*
X75163000Y-66441000D01*
X75208000Y-66454000D01*
X75253000Y-66470000D01*
X75296000Y-66488000D01*
X75339000Y-66508000D01*
X75380000Y-66531000D01*
X75420000Y-66555000D01*
X75459000Y-66582000D01*
X75496000Y-66611000D01*
X75532000Y-66641000D01*
X75566000Y-66674000D01*
X75599000Y-66708000D01*
X75629000Y-66744000D01*
X75658000Y-66781000D01*
X75685000Y-66820000D01*
X75709000Y-66860000D01*
X75732000Y-66901000D01*
X75752000Y-66944000D01*
X75770000Y-66987000D01*
X75786000Y-67032000D01*
X75799000Y-67077000D01*
X75810000Y-67123000D01*
X75819000Y-67169000D01*
X75825000Y-67216000D01*
X75829000Y-67263000D01*
X75830000Y-67310000D01*
X75829000Y-67357000D01*
X75825000Y-67404000D01*
X75819000Y-67451000D01*
X75810000Y-67497000D01*
X75799000Y-67543000D01*
X75786000Y-67588000D01*
X75770000Y-67633000D01*
X75752000Y-67676000D01*
X75732000Y-67719000D01*
X75709000Y-67760000D01*
X75685000Y-67800000D01*
X75658000Y-67839000D01*
X75629000Y-67876000D01*
X75599000Y-67912000D01*
X75566000Y-67946000D01*
X75532000Y-67979000D01*
X75496000Y-68009000D01*
X75459000Y-68038000D01*
X75420000Y-68065000D01*
X75380000Y-68089000D01*
X75339000Y-68112000D01*
X75296000Y-68132000D01*
X75253000Y-68150000D01*
X75208000Y-68166000D01*
X75163000Y-68179000D01*
X75117000Y-68190000D01*
X75071000Y-68199000D01*
X75024000Y-68205000D01*
X74977000Y-68209000D01*
X74930000Y-68210000D01*
X72430000Y-68210000D01*
X72430000Y-66410000D01*
X74930000Y-66410000D01*
X74977000Y-66411000D01*
G36*
X74977000Y-66411000D02*
G01*
X75024000Y-66415000D01*
X75071000Y-66421000D01*
X75117000Y-66430000D01*
X75163000Y-66441000D01*
X75208000Y-66454000D01*
X75253000Y-66470000D01*
X75296000Y-66488000D01*
X75339000Y-66508000D01*
X75380000Y-66531000D01*
X75420000Y-66555000D01*
X75459000Y-66582000D01*
X75496000Y-66611000D01*
X75532000Y-66641000D01*
X75566000Y-66674000D01*
X75599000Y-66708000D01*
X75629000Y-66744000D01*
X75658000Y-66781000D01*
X75685000Y-66820000D01*
X75709000Y-66860000D01*
X75732000Y-66901000D01*
X75752000Y-66944000D01*
X75770000Y-66987000D01*
X75786000Y-67032000D01*
X75799000Y-67077000D01*
X75810000Y-67123000D01*
X75819000Y-67169000D01*
X75825000Y-67216000D01*
X75829000Y-67263000D01*
X75830000Y-67310000D01*
X75829000Y-67357000D01*
X75825000Y-67404000D01*
X75819000Y-67451000D01*
X75810000Y-67497000D01*
X75799000Y-67543000D01*
X75786000Y-67588000D01*
X75770000Y-67633000D01*
X75752000Y-67676000D01*
X75732000Y-67719000D01*
X75709000Y-67760000D01*
X75685000Y-67800000D01*
X75658000Y-67839000D01*
X75629000Y-67876000D01*
X75599000Y-67912000D01*
X75566000Y-67946000D01*
X75532000Y-67979000D01*
X75496000Y-68009000D01*
X75459000Y-68038000D01*
X75420000Y-68065000D01*
X75380000Y-68089000D01*
X75339000Y-68112000D01*
X75296000Y-68132000D01*
X75253000Y-68150000D01*
X75208000Y-68166000D01*
X75163000Y-68179000D01*
X75117000Y-68190000D01*
X75071000Y-68199000D01*
X75024000Y-68205000D01*
X74977000Y-68209000D01*
X74930000Y-68210000D01*
X72430000Y-68210000D01*
X72430000Y-66410000D01*
X74930000Y-66410000D01*
X74977000Y-66411000D01*
G37*
X74977000Y-68951000D02*
X75024000Y-68955000D01*
X75071000Y-68961000D01*
X75117000Y-68970000D01*
X75163000Y-68981000D01*
X75208000Y-68994000D01*
X75253000Y-69010000D01*
X75296000Y-69028000D01*
X75339000Y-69048000D01*
X75380000Y-69071000D01*
X75420000Y-69095000D01*
X75459000Y-69122000D01*
X75496000Y-69151000D01*
X75532000Y-69181000D01*
X75566000Y-69214000D01*
X75599000Y-69248000D01*
X75629000Y-69284000D01*
X75658000Y-69321000D01*
X75685000Y-69360000D01*
X75709000Y-69400000D01*
X75732000Y-69441000D01*
X75752000Y-69484000D01*
X75770000Y-69527000D01*
X75786000Y-69572000D01*
X75799000Y-69617000D01*
X75810000Y-69663000D01*
X75819000Y-69709000D01*
X75825000Y-69756000D01*
X75829000Y-69803000D01*
X75830000Y-69850000D01*
X75829000Y-69897000D01*
X75825000Y-69944000D01*
X75819000Y-69991000D01*
X75810000Y-70037000D01*
X75799000Y-70083000D01*
X75786000Y-70128000D01*
X75770000Y-70173000D01*
X75752000Y-70216000D01*
X75732000Y-70259000D01*
X75709000Y-70300000D01*
X75685000Y-70340000D01*
X75658000Y-70379000D01*
X75629000Y-70416000D01*
X75599000Y-70452000D01*
X75566000Y-70486000D01*
X75532000Y-70519000D01*
X75496000Y-70549000D01*
X75459000Y-70578000D01*
X75420000Y-70605000D01*
X75380000Y-70629000D01*
X75339000Y-70652000D01*
X75296000Y-70672000D01*
X75253000Y-70690000D01*
X75208000Y-70706000D01*
X75163000Y-70719000D01*
X75117000Y-70730000D01*
X75071000Y-70739000D01*
X75024000Y-70745000D01*
X74977000Y-70749000D01*
X74930000Y-70750000D01*
X72430000Y-70750000D01*
X72430000Y-68950000D01*
X74930000Y-68950000D01*
X74977000Y-68951000D01*
G36*
X74977000Y-68951000D02*
G01*
X75024000Y-68955000D01*
X75071000Y-68961000D01*
X75117000Y-68970000D01*
X75163000Y-68981000D01*
X75208000Y-68994000D01*
X75253000Y-69010000D01*
X75296000Y-69028000D01*
X75339000Y-69048000D01*
X75380000Y-69071000D01*
X75420000Y-69095000D01*
X75459000Y-69122000D01*
X75496000Y-69151000D01*
X75532000Y-69181000D01*
X75566000Y-69214000D01*
X75599000Y-69248000D01*
X75629000Y-69284000D01*
X75658000Y-69321000D01*
X75685000Y-69360000D01*
X75709000Y-69400000D01*
X75732000Y-69441000D01*
X75752000Y-69484000D01*
X75770000Y-69527000D01*
X75786000Y-69572000D01*
X75799000Y-69617000D01*
X75810000Y-69663000D01*
X75819000Y-69709000D01*
X75825000Y-69756000D01*
X75829000Y-69803000D01*
X75830000Y-69850000D01*
X75829000Y-69897000D01*
X75825000Y-69944000D01*
X75819000Y-69991000D01*
X75810000Y-70037000D01*
X75799000Y-70083000D01*
X75786000Y-70128000D01*
X75770000Y-70173000D01*
X75752000Y-70216000D01*
X75732000Y-70259000D01*
X75709000Y-70300000D01*
X75685000Y-70340000D01*
X75658000Y-70379000D01*
X75629000Y-70416000D01*
X75599000Y-70452000D01*
X75566000Y-70486000D01*
X75532000Y-70519000D01*
X75496000Y-70549000D01*
X75459000Y-70578000D01*
X75420000Y-70605000D01*
X75380000Y-70629000D01*
X75339000Y-70652000D01*
X75296000Y-70672000D01*
X75253000Y-70690000D01*
X75208000Y-70706000D01*
X75163000Y-70719000D01*
X75117000Y-70730000D01*
X75071000Y-70739000D01*
X75024000Y-70745000D01*
X74977000Y-70749000D01*
X74930000Y-70750000D01*
X72430000Y-70750000D01*
X72430000Y-68950000D01*
X74930000Y-68950000D01*
X74977000Y-68951000D01*
G37*
X74977000Y-71491000D02*
X75024000Y-71495000D01*
X75071000Y-71501000D01*
X75117000Y-71510000D01*
X75163000Y-71521000D01*
X75208000Y-71534000D01*
X75253000Y-71550000D01*
X75296000Y-71568000D01*
X75339000Y-71588000D01*
X75380000Y-71611000D01*
X75420000Y-71635000D01*
X75459000Y-71662000D01*
X75496000Y-71691000D01*
X75532000Y-71721000D01*
X75566000Y-71754000D01*
X75599000Y-71788000D01*
X75629000Y-71824000D01*
X75658000Y-71861000D01*
X75685000Y-71900000D01*
X75709000Y-71940000D01*
X75732000Y-71981000D01*
X75752000Y-72024000D01*
X75770000Y-72067000D01*
X75786000Y-72112000D01*
X75799000Y-72157000D01*
X75810000Y-72203000D01*
X75819000Y-72249000D01*
X75825000Y-72296000D01*
X75829000Y-72343000D01*
X75830000Y-72390000D01*
X75829000Y-72437000D01*
X75825000Y-72484000D01*
X75819000Y-72531000D01*
X75810000Y-72577000D01*
X75799000Y-72623000D01*
X75786000Y-72668000D01*
X75770000Y-72713000D01*
X75752000Y-72756000D01*
X75732000Y-72799000D01*
X75709000Y-72840000D01*
X75685000Y-72880000D01*
X75658000Y-72919000D01*
X75629000Y-72956000D01*
X75599000Y-72992000D01*
X75566000Y-73026000D01*
X75532000Y-73059000D01*
X75496000Y-73089000D01*
X75459000Y-73118000D01*
X75420000Y-73145000D01*
X75380000Y-73169000D01*
X75339000Y-73192000D01*
X75296000Y-73212000D01*
X75253000Y-73230000D01*
X75208000Y-73246000D01*
X75163000Y-73259000D01*
X75117000Y-73270000D01*
X75071000Y-73279000D01*
X75024000Y-73285000D01*
X74977000Y-73289000D01*
X74930000Y-73290000D01*
X72430000Y-73290000D01*
X72430000Y-71490000D01*
X74930000Y-71490000D01*
X74977000Y-71491000D01*
G36*
X74977000Y-71491000D02*
G01*
X75024000Y-71495000D01*
X75071000Y-71501000D01*
X75117000Y-71510000D01*
X75163000Y-71521000D01*
X75208000Y-71534000D01*
X75253000Y-71550000D01*
X75296000Y-71568000D01*
X75339000Y-71588000D01*
X75380000Y-71611000D01*
X75420000Y-71635000D01*
X75459000Y-71662000D01*
X75496000Y-71691000D01*
X75532000Y-71721000D01*
X75566000Y-71754000D01*
X75599000Y-71788000D01*
X75629000Y-71824000D01*
X75658000Y-71861000D01*
X75685000Y-71900000D01*
X75709000Y-71940000D01*
X75732000Y-71981000D01*
X75752000Y-72024000D01*
X75770000Y-72067000D01*
X75786000Y-72112000D01*
X75799000Y-72157000D01*
X75810000Y-72203000D01*
X75819000Y-72249000D01*
X75825000Y-72296000D01*
X75829000Y-72343000D01*
X75830000Y-72390000D01*
X75829000Y-72437000D01*
X75825000Y-72484000D01*
X75819000Y-72531000D01*
X75810000Y-72577000D01*
X75799000Y-72623000D01*
X75786000Y-72668000D01*
X75770000Y-72713000D01*
X75752000Y-72756000D01*
X75732000Y-72799000D01*
X75709000Y-72840000D01*
X75685000Y-72880000D01*
X75658000Y-72919000D01*
X75629000Y-72956000D01*
X75599000Y-72992000D01*
X75566000Y-73026000D01*
X75532000Y-73059000D01*
X75496000Y-73089000D01*
X75459000Y-73118000D01*
X75420000Y-73145000D01*
X75380000Y-73169000D01*
X75339000Y-73192000D01*
X75296000Y-73212000D01*
X75253000Y-73230000D01*
X75208000Y-73246000D01*
X75163000Y-73259000D01*
X75117000Y-73270000D01*
X75071000Y-73279000D01*
X75024000Y-73285000D01*
X74977000Y-73289000D01*
X74930000Y-73290000D01*
X72430000Y-73290000D01*
X72430000Y-71490000D01*
X74930000Y-71490000D01*
X74977000Y-71491000D01*
G37*
X74977000Y-74031000D02*
X75024000Y-74035000D01*
X75071000Y-74041000D01*
X75117000Y-74050000D01*
X75163000Y-74061000D01*
X75208000Y-74074000D01*
X75253000Y-74090000D01*
X75296000Y-74108000D01*
X75339000Y-74128000D01*
X75380000Y-74151000D01*
X75420000Y-74175000D01*
X75459000Y-74202000D01*
X75496000Y-74231000D01*
X75532000Y-74261000D01*
X75566000Y-74294000D01*
X75599000Y-74328000D01*
X75629000Y-74364000D01*
X75658000Y-74401000D01*
X75685000Y-74440000D01*
X75709000Y-74480000D01*
X75732000Y-74521000D01*
X75752000Y-74564000D01*
X75770000Y-74607000D01*
X75786000Y-74652000D01*
X75799000Y-74697000D01*
X75810000Y-74743000D01*
X75819000Y-74789000D01*
X75825000Y-74836000D01*
X75829000Y-74883000D01*
X75830000Y-74930000D01*
X75829000Y-74977000D01*
X75825000Y-75024000D01*
X75819000Y-75071000D01*
X75810000Y-75117000D01*
X75799000Y-75163000D01*
X75786000Y-75208000D01*
X75770000Y-75253000D01*
X75752000Y-75296000D01*
X75732000Y-75339000D01*
X75709000Y-75380000D01*
X75685000Y-75420000D01*
X75658000Y-75459000D01*
X75629000Y-75496000D01*
X75599000Y-75532000D01*
X75566000Y-75566000D01*
X75532000Y-75599000D01*
X75496000Y-75629000D01*
X75459000Y-75658000D01*
X75420000Y-75685000D01*
X75380000Y-75709000D01*
X75339000Y-75732000D01*
X75296000Y-75752000D01*
X75253000Y-75770000D01*
X75208000Y-75786000D01*
X75163000Y-75799000D01*
X75117000Y-75810000D01*
X75071000Y-75819000D01*
X75024000Y-75825000D01*
X74977000Y-75829000D01*
X74930000Y-75830000D01*
X72430000Y-75830000D01*
X72430000Y-74030000D01*
X74930000Y-74030000D01*
X74977000Y-74031000D01*
G36*
X74977000Y-74031000D02*
G01*
X75024000Y-74035000D01*
X75071000Y-74041000D01*
X75117000Y-74050000D01*
X75163000Y-74061000D01*
X75208000Y-74074000D01*
X75253000Y-74090000D01*
X75296000Y-74108000D01*
X75339000Y-74128000D01*
X75380000Y-74151000D01*
X75420000Y-74175000D01*
X75459000Y-74202000D01*
X75496000Y-74231000D01*
X75532000Y-74261000D01*
X75566000Y-74294000D01*
X75599000Y-74328000D01*
X75629000Y-74364000D01*
X75658000Y-74401000D01*
X75685000Y-74440000D01*
X75709000Y-74480000D01*
X75732000Y-74521000D01*
X75752000Y-74564000D01*
X75770000Y-74607000D01*
X75786000Y-74652000D01*
X75799000Y-74697000D01*
X75810000Y-74743000D01*
X75819000Y-74789000D01*
X75825000Y-74836000D01*
X75829000Y-74883000D01*
X75830000Y-74930000D01*
X75829000Y-74977000D01*
X75825000Y-75024000D01*
X75819000Y-75071000D01*
X75810000Y-75117000D01*
X75799000Y-75163000D01*
X75786000Y-75208000D01*
X75770000Y-75253000D01*
X75752000Y-75296000D01*
X75732000Y-75339000D01*
X75709000Y-75380000D01*
X75685000Y-75420000D01*
X75658000Y-75459000D01*
X75629000Y-75496000D01*
X75599000Y-75532000D01*
X75566000Y-75566000D01*
X75532000Y-75599000D01*
X75496000Y-75629000D01*
X75459000Y-75658000D01*
X75420000Y-75685000D01*
X75380000Y-75709000D01*
X75339000Y-75732000D01*
X75296000Y-75752000D01*
X75253000Y-75770000D01*
X75208000Y-75786000D01*
X75163000Y-75799000D01*
X75117000Y-75810000D01*
X75071000Y-75819000D01*
X75024000Y-75825000D01*
X74977000Y-75829000D01*
X74930000Y-75830000D01*
X72430000Y-75830000D01*
X72430000Y-74030000D01*
X74930000Y-74030000D01*
X74977000Y-74031000D01*
G37*
X74977000Y-79111000D02*
X75024000Y-79115000D01*
X75071000Y-79121000D01*
X75117000Y-79130000D01*
X75163000Y-79141000D01*
X75208000Y-79154000D01*
X75253000Y-79170000D01*
X75296000Y-79188000D01*
X75339000Y-79208000D01*
X75380000Y-79231000D01*
X75420000Y-79255000D01*
X75459000Y-79282000D01*
X75496000Y-79311000D01*
X75532000Y-79341000D01*
X75566000Y-79374000D01*
X75599000Y-79408000D01*
X75629000Y-79444000D01*
X75658000Y-79481000D01*
X75685000Y-79520000D01*
X75709000Y-79560000D01*
X75732000Y-79601000D01*
X75752000Y-79644000D01*
X75770000Y-79687000D01*
X75786000Y-79732000D01*
X75799000Y-79777000D01*
X75810000Y-79823000D01*
X75819000Y-79869000D01*
X75825000Y-79916000D01*
X75829000Y-79963000D01*
X75830000Y-80010000D01*
X75829000Y-80057000D01*
X75825000Y-80104000D01*
X75819000Y-80151000D01*
X75810000Y-80197000D01*
X75799000Y-80243000D01*
X75786000Y-80288000D01*
X75770000Y-80333000D01*
X75752000Y-80376000D01*
X75732000Y-80419000D01*
X75709000Y-80460000D01*
X75685000Y-80500000D01*
X75658000Y-80539000D01*
X75629000Y-80576000D01*
X75599000Y-80612000D01*
X75566000Y-80646000D01*
X75532000Y-80679000D01*
X75496000Y-80709000D01*
X75459000Y-80738000D01*
X75420000Y-80765000D01*
X75380000Y-80789000D01*
X75339000Y-80812000D01*
X75296000Y-80832000D01*
X75253000Y-80850000D01*
X75208000Y-80866000D01*
X75163000Y-80879000D01*
X75117000Y-80890000D01*
X75071000Y-80899000D01*
X75024000Y-80905000D01*
X74977000Y-80909000D01*
X74930000Y-80910000D01*
X72430000Y-80910000D01*
X72430000Y-79110000D01*
X74930000Y-79110000D01*
X74977000Y-79111000D01*
G36*
X74977000Y-79111000D02*
G01*
X75024000Y-79115000D01*
X75071000Y-79121000D01*
X75117000Y-79130000D01*
X75163000Y-79141000D01*
X75208000Y-79154000D01*
X75253000Y-79170000D01*
X75296000Y-79188000D01*
X75339000Y-79208000D01*
X75380000Y-79231000D01*
X75420000Y-79255000D01*
X75459000Y-79282000D01*
X75496000Y-79311000D01*
X75532000Y-79341000D01*
X75566000Y-79374000D01*
X75599000Y-79408000D01*
X75629000Y-79444000D01*
X75658000Y-79481000D01*
X75685000Y-79520000D01*
X75709000Y-79560000D01*
X75732000Y-79601000D01*
X75752000Y-79644000D01*
X75770000Y-79687000D01*
X75786000Y-79732000D01*
X75799000Y-79777000D01*
X75810000Y-79823000D01*
X75819000Y-79869000D01*
X75825000Y-79916000D01*
X75829000Y-79963000D01*
X75830000Y-80010000D01*
X75829000Y-80057000D01*
X75825000Y-80104000D01*
X75819000Y-80151000D01*
X75810000Y-80197000D01*
X75799000Y-80243000D01*
X75786000Y-80288000D01*
X75770000Y-80333000D01*
X75752000Y-80376000D01*
X75732000Y-80419000D01*
X75709000Y-80460000D01*
X75685000Y-80500000D01*
X75658000Y-80539000D01*
X75629000Y-80576000D01*
X75599000Y-80612000D01*
X75566000Y-80646000D01*
X75532000Y-80679000D01*
X75496000Y-80709000D01*
X75459000Y-80738000D01*
X75420000Y-80765000D01*
X75380000Y-80789000D01*
X75339000Y-80812000D01*
X75296000Y-80832000D01*
X75253000Y-80850000D01*
X75208000Y-80866000D01*
X75163000Y-80879000D01*
X75117000Y-80890000D01*
X75071000Y-80899000D01*
X75024000Y-80905000D01*
X74977000Y-80909000D01*
X74930000Y-80910000D01*
X72430000Y-80910000D01*
X72430000Y-79110000D01*
X74930000Y-79110000D01*
X74977000Y-79111000D01*
G37*
X74977000Y-81651000D02*
X75024000Y-81655000D01*
X75071000Y-81661000D01*
X75117000Y-81670000D01*
X75163000Y-81681000D01*
X75208000Y-81694000D01*
X75253000Y-81710000D01*
X75296000Y-81728000D01*
X75339000Y-81748000D01*
X75380000Y-81771000D01*
X75420000Y-81795000D01*
X75459000Y-81822000D01*
X75496000Y-81851000D01*
X75532000Y-81881000D01*
X75566000Y-81914000D01*
X75599000Y-81948000D01*
X75629000Y-81984000D01*
X75658000Y-82021000D01*
X75685000Y-82060000D01*
X75709000Y-82100000D01*
X75732000Y-82141000D01*
X75752000Y-82184000D01*
X75770000Y-82227000D01*
X75786000Y-82272000D01*
X75799000Y-82317000D01*
X75810000Y-82363000D01*
X75819000Y-82409000D01*
X75825000Y-82456000D01*
X75829000Y-82503000D01*
X75830000Y-82550000D01*
X75829000Y-82597000D01*
X75825000Y-82644000D01*
X75819000Y-82691000D01*
X75810000Y-82737000D01*
X75799000Y-82783000D01*
X75786000Y-82828000D01*
X75770000Y-82873000D01*
X75752000Y-82916000D01*
X75732000Y-82959000D01*
X75709000Y-83000000D01*
X75685000Y-83040000D01*
X75658000Y-83079000D01*
X75629000Y-83116000D01*
X75599000Y-83152000D01*
X75566000Y-83186000D01*
X75532000Y-83219000D01*
X75496000Y-83249000D01*
X75459000Y-83278000D01*
X75420000Y-83305000D01*
X75380000Y-83329000D01*
X75339000Y-83352000D01*
X75296000Y-83372000D01*
X75253000Y-83390000D01*
X75208000Y-83406000D01*
X75163000Y-83419000D01*
X75117000Y-83430000D01*
X75071000Y-83439000D01*
X75024000Y-83445000D01*
X74977000Y-83449000D01*
X74930000Y-83450000D01*
X72430000Y-83450000D01*
X72430000Y-81650000D01*
X74930000Y-81650000D01*
X74977000Y-81651000D01*
G36*
X74977000Y-81651000D02*
G01*
X75024000Y-81655000D01*
X75071000Y-81661000D01*
X75117000Y-81670000D01*
X75163000Y-81681000D01*
X75208000Y-81694000D01*
X75253000Y-81710000D01*
X75296000Y-81728000D01*
X75339000Y-81748000D01*
X75380000Y-81771000D01*
X75420000Y-81795000D01*
X75459000Y-81822000D01*
X75496000Y-81851000D01*
X75532000Y-81881000D01*
X75566000Y-81914000D01*
X75599000Y-81948000D01*
X75629000Y-81984000D01*
X75658000Y-82021000D01*
X75685000Y-82060000D01*
X75709000Y-82100000D01*
X75732000Y-82141000D01*
X75752000Y-82184000D01*
X75770000Y-82227000D01*
X75786000Y-82272000D01*
X75799000Y-82317000D01*
X75810000Y-82363000D01*
X75819000Y-82409000D01*
X75825000Y-82456000D01*
X75829000Y-82503000D01*
X75830000Y-82550000D01*
X75829000Y-82597000D01*
X75825000Y-82644000D01*
X75819000Y-82691000D01*
X75810000Y-82737000D01*
X75799000Y-82783000D01*
X75786000Y-82828000D01*
X75770000Y-82873000D01*
X75752000Y-82916000D01*
X75732000Y-82959000D01*
X75709000Y-83000000D01*
X75685000Y-83040000D01*
X75658000Y-83079000D01*
X75629000Y-83116000D01*
X75599000Y-83152000D01*
X75566000Y-83186000D01*
X75532000Y-83219000D01*
X75496000Y-83249000D01*
X75459000Y-83278000D01*
X75420000Y-83305000D01*
X75380000Y-83329000D01*
X75339000Y-83352000D01*
X75296000Y-83372000D01*
X75253000Y-83390000D01*
X75208000Y-83406000D01*
X75163000Y-83419000D01*
X75117000Y-83430000D01*
X75071000Y-83439000D01*
X75024000Y-83445000D01*
X74977000Y-83449000D01*
X74930000Y-83450000D01*
X72430000Y-83450000D01*
X72430000Y-81650000D01*
X74930000Y-81650000D01*
X74977000Y-81651000D01*
G37*
X74977000Y-84191000D02*
X75024000Y-84195000D01*
X75071000Y-84201000D01*
X75117000Y-84210000D01*
X75163000Y-84221000D01*
X75208000Y-84234000D01*
X75253000Y-84250000D01*
X75296000Y-84268000D01*
X75339000Y-84288000D01*
X75380000Y-84311000D01*
X75420000Y-84335000D01*
X75459000Y-84362000D01*
X75496000Y-84391000D01*
X75532000Y-84421000D01*
X75566000Y-84454000D01*
X75599000Y-84488000D01*
X75629000Y-84524000D01*
X75658000Y-84561000D01*
X75685000Y-84600000D01*
X75709000Y-84640000D01*
X75732000Y-84681000D01*
X75752000Y-84724000D01*
X75770000Y-84767000D01*
X75786000Y-84812000D01*
X75799000Y-84857000D01*
X75810000Y-84903000D01*
X75819000Y-84949000D01*
X75825000Y-84996000D01*
X75829000Y-85043000D01*
X75830000Y-85090000D01*
X75829000Y-85137000D01*
X75825000Y-85184000D01*
X75819000Y-85231000D01*
X75810000Y-85277000D01*
X75799000Y-85323000D01*
X75786000Y-85368000D01*
X75770000Y-85413000D01*
X75752000Y-85456000D01*
X75732000Y-85499000D01*
X75709000Y-85540000D01*
X75685000Y-85580000D01*
X75658000Y-85619000D01*
X75629000Y-85656000D01*
X75599000Y-85692000D01*
X75566000Y-85726000D01*
X75532000Y-85759000D01*
X75496000Y-85789000D01*
X75459000Y-85818000D01*
X75420000Y-85845000D01*
X75380000Y-85869000D01*
X75339000Y-85892000D01*
X75296000Y-85912000D01*
X75253000Y-85930000D01*
X75208000Y-85946000D01*
X75163000Y-85959000D01*
X75117000Y-85970000D01*
X75071000Y-85979000D01*
X75024000Y-85985000D01*
X74977000Y-85989000D01*
X74930000Y-85990000D01*
X72430000Y-85990000D01*
X72430000Y-84190000D01*
X74930000Y-84190000D01*
X74977000Y-84191000D01*
G36*
X74977000Y-84191000D02*
G01*
X75024000Y-84195000D01*
X75071000Y-84201000D01*
X75117000Y-84210000D01*
X75163000Y-84221000D01*
X75208000Y-84234000D01*
X75253000Y-84250000D01*
X75296000Y-84268000D01*
X75339000Y-84288000D01*
X75380000Y-84311000D01*
X75420000Y-84335000D01*
X75459000Y-84362000D01*
X75496000Y-84391000D01*
X75532000Y-84421000D01*
X75566000Y-84454000D01*
X75599000Y-84488000D01*
X75629000Y-84524000D01*
X75658000Y-84561000D01*
X75685000Y-84600000D01*
X75709000Y-84640000D01*
X75732000Y-84681000D01*
X75752000Y-84724000D01*
X75770000Y-84767000D01*
X75786000Y-84812000D01*
X75799000Y-84857000D01*
X75810000Y-84903000D01*
X75819000Y-84949000D01*
X75825000Y-84996000D01*
X75829000Y-85043000D01*
X75830000Y-85090000D01*
X75829000Y-85137000D01*
X75825000Y-85184000D01*
X75819000Y-85231000D01*
X75810000Y-85277000D01*
X75799000Y-85323000D01*
X75786000Y-85368000D01*
X75770000Y-85413000D01*
X75752000Y-85456000D01*
X75732000Y-85499000D01*
X75709000Y-85540000D01*
X75685000Y-85580000D01*
X75658000Y-85619000D01*
X75629000Y-85656000D01*
X75599000Y-85692000D01*
X75566000Y-85726000D01*
X75532000Y-85759000D01*
X75496000Y-85789000D01*
X75459000Y-85818000D01*
X75420000Y-85845000D01*
X75380000Y-85869000D01*
X75339000Y-85892000D01*
X75296000Y-85912000D01*
X75253000Y-85930000D01*
X75208000Y-85946000D01*
X75163000Y-85959000D01*
X75117000Y-85970000D01*
X75071000Y-85979000D01*
X75024000Y-85985000D01*
X74977000Y-85989000D01*
X74930000Y-85990000D01*
X72430000Y-85990000D01*
X72430000Y-84190000D01*
X74930000Y-84190000D01*
X74977000Y-84191000D01*
G37*
X74977000Y-86731000D02*
X75024000Y-86735000D01*
X75071000Y-86741000D01*
X75117000Y-86750000D01*
X75163000Y-86761000D01*
X75208000Y-86774000D01*
X75253000Y-86790000D01*
X75296000Y-86808000D01*
X75339000Y-86828000D01*
X75380000Y-86851000D01*
X75420000Y-86875000D01*
X75459000Y-86902000D01*
X75496000Y-86931000D01*
X75532000Y-86961000D01*
X75566000Y-86994000D01*
X75599000Y-87028000D01*
X75629000Y-87064000D01*
X75658000Y-87101000D01*
X75685000Y-87140000D01*
X75709000Y-87180000D01*
X75732000Y-87221000D01*
X75752000Y-87264000D01*
X75770000Y-87307000D01*
X75786000Y-87352000D01*
X75799000Y-87397000D01*
X75810000Y-87443000D01*
X75819000Y-87489000D01*
X75825000Y-87536000D01*
X75829000Y-87583000D01*
X75830000Y-87630000D01*
X75829000Y-87677000D01*
X75825000Y-87724000D01*
X75819000Y-87771000D01*
X75810000Y-87817000D01*
X75799000Y-87863000D01*
X75786000Y-87908000D01*
X75770000Y-87953000D01*
X75752000Y-87996000D01*
X75732000Y-88039000D01*
X75709000Y-88080000D01*
X75685000Y-88120000D01*
X75658000Y-88159000D01*
X75629000Y-88196000D01*
X75599000Y-88232000D01*
X75566000Y-88266000D01*
X75532000Y-88299000D01*
X75496000Y-88329000D01*
X75459000Y-88358000D01*
X75420000Y-88385000D01*
X75380000Y-88409000D01*
X75339000Y-88432000D01*
X75296000Y-88452000D01*
X75253000Y-88470000D01*
X75208000Y-88486000D01*
X75163000Y-88499000D01*
X75117000Y-88510000D01*
X75071000Y-88519000D01*
X75024000Y-88525000D01*
X74977000Y-88529000D01*
X74930000Y-88530000D01*
X72430000Y-88530000D01*
X72430000Y-86730000D01*
X74930000Y-86730000D01*
X74977000Y-86731000D01*
G36*
X74977000Y-86731000D02*
G01*
X75024000Y-86735000D01*
X75071000Y-86741000D01*
X75117000Y-86750000D01*
X75163000Y-86761000D01*
X75208000Y-86774000D01*
X75253000Y-86790000D01*
X75296000Y-86808000D01*
X75339000Y-86828000D01*
X75380000Y-86851000D01*
X75420000Y-86875000D01*
X75459000Y-86902000D01*
X75496000Y-86931000D01*
X75532000Y-86961000D01*
X75566000Y-86994000D01*
X75599000Y-87028000D01*
X75629000Y-87064000D01*
X75658000Y-87101000D01*
X75685000Y-87140000D01*
X75709000Y-87180000D01*
X75732000Y-87221000D01*
X75752000Y-87264000D01*
X75770000Y-87307000D01*
X75786000Y-87352000D01*
X75799000Y-87397000D01*
X75810000Y-87443000D01*
X75819000Y-87489000D01*
X75825000Y-87536000D01*
X75829000Y-87583000D01*
X75830000Y-87630000D01*
X75829000Y-87677000D01*
X75825000Y-87724000D01*
X75819000Y-87771000D01*
X75810000Y-87817000D01*
X75799000Y-87863000D01*
X75786000Y-87908000D01*
X75770000Y-87953000D01*
X75752000Y-87996000D01*
X75732000Y-88039000D01*
X75709000Y-88080000D01*
X75685000Y-88120000D01*
X75658000Y-88159000D01*
X75629000Y-88196000D01*
X75599000Y-88232000D01*
X75566000Y-88266000D01*
X75532000Y-88299000D01*
X75496000Y-88329000D01*
X75459000Y-88358000D01*
X75420000Y-88385000D01*
X75380000Y-88409000D01*
X75339000Y-88432000D01*
X75296000Y-88452000D01*
X75253000Y-88470000D01*
X75208000Y-88486000D01*
X75163000Y-88499000D01*
X75117000Y-88510000D01*
X75071000Y-88519000D01*
X75024000Y-88525000D01*
X74977000Y-88529000D01*
X74930000Y-88530000D01*
X72430000Y-88530000D01*
X72430000Y-86730000D01*
X74930000Y-86730000D01*
X74977000Y-86731000D01*
G37*
X74977000Y-91811000D02*
X75024000Y-91815000D01*
X75071000Y-91821000D01*
X75117000Y-91830000D01*
X75163000Y-91841000D01*
X75208000Y-91854000D01*
X75253000Y-91870000D01*
X75296000Y-91888000D01*
X75339000Y-91908000D01*
X75380000Y-91931000D01*
X75420000Y-91955000D01*
X75459000Y-91982000D01*
X75496000Y-92011000D01*
X75532000Y-92041000D01*
X75566000Y-92074000D01*
X75599000Y-92108000D01*
X75629000Y-92144000D01*
X75658000Y-92181000D01*
X75685000Y-92220000D01*
X75709000Y-92260000D01*
X75732000Y-92301000D01*
X75752000Y-92344000D01*
X75770000Y-92387000D01*
X75786000Y-92432000D01*
X75799000Y-92477000D01*
X75810000Y-92523000D01*
X75819000Y-92569000D01*
X75825000Y-92616000D01*
X75829000Y-92663000D01*
X75830000Y-92710000D01*
X75829000Y-92757000D01*
X75825000Y-92804000D01*
X75819000Y-92851000D01*
X75810000Y-92897000D01*
X75799000Y-92943000D01*
X75786000Y-92988000D01*
X75770000Y-93033000D01*
X75752000Y-93076000D01*
X75732000Y-93119000D01*
X75709000Y-93160000D01*
X75685000Y-93200000D01*
X75658000Y-93239000D01*
X75629000Y-93276000D01*
X75599000Y-93312000D01*
X75566000Y-93346000D01*
X75532000Y-93379000D01*
X75496000Y-93409000D01*
X75459000Y-93438000D01*
X75420000Y-93465000D01*
X75380000Y-93489000D01*
X75339000Y-93512000D01*
X75296000Y-93532000D01*
X75253000Y-93550000D01*
X75208000Y-93566000D01*
X75163000Y-93579000D01*
X75117000Y-93590000D01*
X75071000Y-93599000D01*
X75024000Y-93605000D01*
X74977000Y-93609000D01*
X74930000Y-93610000D01*
X72430000Y-93610000D01*
X72430000Y-91810000D01*
X74930000Y-91810000D01*
X74977000Y-91811000D01*
G36*
X74977000Y-91811000D02*
G01*
X75024000Y-91815000D01*
X75071000Y-91821000D01*
X75117000Y-91830000D01*
X75163000Y-91841000D01*
X75208000Y-91854000D01*
X75253000Y-91870000D01*
X75296000Y-91888000D01*
X75339000Y-91908000D01*
X75380000Y-91931000D01*
X75420000Y-91955000D01*
X75459000Y-91982000D01*
X75496000Y-92011000D01*
X75532000Y-92041000D01*
X75566000Y-92074000D01*
X75599000Y-92108000D01*
X75629000Y-92144000D01*
X75658000Y-92181000D01*
X75685000Y-92220000D01*
X75709000Y-92260000D01*
X75732000Y-92301000D01*
X75752000Y-92344000D01*
X75770000Y-92387000D01*
X75786000Y-92432000D01*
X75799000Y-92477000D01*
X75810000Y-92523000D01*
X75819000Y-92569000D01*
X75825000Y-92616000D01*
X75829000Y-92663000D01*
X75830000Y-92710000D01*
X75829000Y-92757000D01*
X75825000Y-92804000D01*
X75819000Y-92851000D01*
X75810000Y-92897000D01*
X75799000Y-92943000D01*
X75786000Y-92988000D01*
X75770000Y-93033000D01*
X75752000Y-93076000D01*
X75732000Y-93119000D01*
X75709000Y-93160000D01*
X75685000Y-93200000D01*
X75658000Y-93239000D01*
X75629000Y-93276000D01*
X75599000Y-93312000D01*
X75566000Y-93346000D01*
X75532000Y-93379000D01*
X75496000Y-93409000D01*
X75459000Y-93438000D01*
X75420000Y-93465000D01*
X75380000Y-93489000D01*
X75339000Y-93512000D01*
X75296000Y-93532000D01*
X75253000Y-93550000D01*
X75208000Y-93566000D01*
X75163000Y-93579000D01*
X75117000Y-93590000D01*
X75071000Y-93599000D01*
X75024000Y-93605000D01*
X74977000Y-93609000D01*
X74930000Y-93610000D01*
X72430000Y-93610000D01*
X72430000Y-91810000D01*
X74930000Y-91810000D01*
X74977000Y-91811000D01*
G37*
X74977000Y-94351000D02*
X75024000Y-94355000D01*
X75071000Y-94361000D01*
X75117000Y-94370000D01*
X75163000Y-94381000D01*
X75208000Y-94394000D01*
X75253000Y-94410000D01*
X75296000Y-94428000D01*
X75339000Y-94448000D01*
X75380000Y-94471000D01*
X75420000Y-94495000D01*
X75459000Y-94522000D01*
X75496000Y-94551000D01*
X75532000Y-94581000D01*
X75566000Y-94614000D01*
X75599000Y-94648000D01*
X75629000Y-94684000D01*
X75658000Y-94721000D01*
X75685000Y-94760000D01*
X75709000Y-94800000D01*
X75732000Y-94841000D01*
X75752000Y-94884000D01*
X75770000Y-94927000D01*
X75786000Y-94972000D01*
X75799000Y-95017000D01*
X75810000Y-95063000D01*
X75819000Y-95109000D01*
X75825000Y-95156000D01*
X75829000Y-95203000D01*
X75830000Y-95250000D01*
X75829000Y-95297000D01*
X75825000Y-95344000D01*
X75819000Y-95391000D01*
X75810000Y-95437000D01*
X75799000Y-95483000D01*
X75786000Y-95528000D01*
X75770000Y-95573000D01*
X75752000Y-95616000D01*
X75732000Y-95659000D01*
X75709000Y-95700000D01*
X75685000Y-95740000D01*
X75658000Y-95779000D01*
X75629000Y-95816000D01*
X75599000Y-95852000D01*
X75566000Y-95886000D01*
X75532000Y-95919000D01*
X75496000Y-95949000D01*
X75459000Y-95978000D01*
X75420000Y-96005000D01*
X75380000Y-96029000D01*
X75339000Y-96052000D01*
X75296000Y-96072000D01*
X75253000Y-96090000D01*
X75208000Y-96106000D01*
X75163000Y-96119000D01*
X75117000Y-96130000D01*
X75071000Y-96139000D01*
X75024000Y-96145000D01*
X74977000Y-96149000D01*
X74930000Y-96150000D01*
X72430000Y-96150000D01*
X72430000Y-94350000D01*
X74930000Y-94350000D01*
X74977000Y-94351000D01*
G36*
X74977000Y-94351000D02*
G01*
X75024000Y-94355000D01*
X75071000Y-94361000D01*
X75117000Y-94370000D01*
X75163000Y-94381000D01*
X75208000Y-94394000D01*
X75253000Y-94410000D01*
X75296000Y-94428000D01*
X75339000Y-94448000D01*
X75380000Y-94471000D01*
X75420000Y-94495000D01*
X75459000Y-94522000D01*
X75496000Y-94551000D01*
X75532000Y-94581000D01*
X75566000Y-94614000D01*
X75599000Y-94648000D01*
X75629000Y-94684000D01*
X75658000Y-94721000D01*
X75685000Y-94760000D01*
X75709000Y-94800000D01*
X75732000Y-94841000D01*
X75752000Y-94884000D01*
X75770000Y-94927000D01*
X75786000Y-94972000D01*
X75799000Y-95017000D01*
X75810000Y-95063000D01*
X75819000Y-95109000D01*
X75825000Y-95156000D01*
X75829000Y-95203000D01*
X75830000Y-95250000D01*
X75829000Y-95297000D01*
X75825000Y-95344000D01*
X75819000Y-95391000D01*
X75810000Y-95437000D01*
X75799000Y-95483000D01*
X75786000Y-95528000D01*
X75770000Y-95573000D01*
X75752000Y-95616000D01*
X75732000Y-95659000D01*
X75709000Y-95700000D01*
X75685000Y-95740000D01*
X75658000Y-95779000D01*
X75629000Y-95816000D01*
X75599000Y-95852000D01*
X75566000Y-95886000D01*
X75532000Y-95919000D01*
X75496000Y-95949000D01*
X75459000Y-95978000D01*
X75420000Y-96005000D01*
X75380000Y-96029000D01*
X75339000Y-96052000D01*
X75296000Y-96072000D01*
X75253000Y-96090000D01*
X75208000Y-96106000D01*
X75163000Y-96119000D01*
X75117000Y-96130000D01*
X75071000Y-96139000D01*
X75024000Y-96145000D01*
X74977000Y-96149000D01*
X74930000Y-96150000D01*
X72430000Y-96150000D01*
X72430000Y-94350000D01*
X74930000Y-94350000D01*
X74977000Y-94351000D01*
G37*
X95210000Y-47890000D02*
X92710000Y-47890000D01*
X92663000Y-47889000D01*
X92616000Y-47885000D01*
X92569000Y-47879000D01*
X92523000Y-47870000D01*
X92477000Y-47859000D01*
X92432000Y-47846000D01*
X92387000Y-47830000D01*
X92344000Y-47812000D01*
X92301000Y-47792000D01*
X92260000Y-47769000D01*
X92220000Y-47745000D01*
X92181000Y-47718000D01*
X92144000Y-47689000D01*
X92108000Y-47659000D01*
X92074000Y-47626000D01*
X92041000Y-47592000D01*
X92011000Y-47556000D01*
X91982000Y-47519000D01*
X91955000Y-47480000D01*
X91931000Y-47440000D01*
X91908000Y-47399000D01*
X91888000Y-47356000D01*
X91870000Y-47313000D01*
X91854000Y-47268000D01*
X91841000Y-47223000D01*
X91830000Y-47177000D01*
X91821000Y-47131000D01*
X91815000Y-47084000D01*
X91811000Y-47037000D01*
X91810000Y-46990000D01*
X91811000Y-46943000D01*
X91815000Y-46896000D01*
X91821000Y-46849000D01*
X91830000Y-46803000D01*
X91841000Y-46757000D01*
X91854000Y-46712000D01*
X91870000Y-46667000D01*
X91888000Y-46624000D01*
X91908000Y-46581000D01*
X91931000Y-46540000D01*
X91955000Y-46500000D01*
X91982000Y-46461000D01*
X92011000Y-46424000D01*
X92041000Y-46388000D01*
X92074000Y-46354000D01*
X92108000Y-46321000D01*
X92144000Y-46291000D01*
X92181000Y-46262000D01*
X92220000Y-46235000D01*
X92260000Y-46211000D01*
X92301000Y-46188000D01*
X92344000Y-46168000D01*
X92387000Y-46150000D01*
X92432000Y-46134000D01*
X92477000Y-46121000D01*
X92523000Y-46110000D01*
X92569000Y-46101000D01*
X92616000Y-46095000D01*
X92663000Y-46091000D01*
X92710000Y-46090000D01*
X95210000Y-46090000D01*
X95210000Y-47890000D01*
G36*
X95210000Y-47890000D02*
G01*
X92710000Y-47890000D01*
X92663000Y-47889000D01*
X92616000Y-47885000D01*
X92569000Y-47879000D01*
X92523000Y-47870000D01*
X92477000Y-47859000D01*
X92432000Y-47846000D01*
X92387000Y-47830000D01*
X92344000Y-47812000D01*
X92301000Y-47792000D01*
X92260000Y-47769000D01*
X92220000Y-47745000D01*
X92181000Y-47718000D01*
X92144000Y-47689000D01*
X92108000Y-47659000D01*
X92074000Y-47626000D01*
X92041000Y-47592000D01*
X92011000Y-47556000D01*
X91982000Y-47519000D01*
X91955000Y-47480000D01*
X91931000Y-47440000D01*
X91908000Y-47399000D01*
X91888000Y-47356000D01*
X91870000Y-47313000D01*
X91854000Y-47268000D01*
X91841000Y-47223000D01*
X91830000Y-47177000D01*
X91821000Y-47131000D01*
X91815000Y-47084000D01*
X91811000Y-47037000D01*
X91810000Y-46990000D01*
X91811000Y-46943000D01*
X91815000Y-46896000D01*
X91821000Y-46849000D01*
X91830000Y-46803000D01*
X91841000Y-46757000D01*
X91854000Y-46712000D01*
X91870000Y-46667000D01*
X91888000Y-46624000D01*
X91908000Y-46581000D01*
X91931000Y-46540000D01*
X91955000Y-46500000D01*
X91982000Y-46461000D01*
X92011000Y-46424000D01*
X92041000Y-46388000D01*
X92074000Y-46354000D01*
X92108000Y-46321000D01*
X92144000Y-46291000D01*
X92181000Y-46262000D01*
X92220000Y-46235000D01*
X92260000Y-46211000D01*
X92301000Y-46188000D01*
X92344000Y-46168000D01*
X92387000Y-46150000D01*
X92432000Y-46134000D01*
X92477000Y-46121000D01*
X92523000Y-46110000D01*
X92569000Y-46101000D01*
X92616000Y-46095000D01*
X92663000Y-46091000D01*
X92710000Y-46090000D01*
X95210000Y-46090000D01*
X95210000Y-47890000D01*
G37*
X95210000Y-50430000D02*
X92710000Y-50430000D01*
X92663000Y-50429000D01*
X92616000Y-50425000D01*
X92569000Y-50419000D01*
X92523000Y-50410000D01*
X92477000Y-50399000D01*
X92432000Y-50386000D01*
X92387000Y-50370000D01*
X92344000Y-50352000D01*
X92301000Y-50332000D01*
X92260000Y-50309000D01*
X92220000Y-50285000D01*
X92181000Y-50258000D01*
X92144000Y-50229000D01*
X92108000Y-50199000D01*
X92074000Y-50166000D01*
X92041000Y-50132000D01*
X92011000Y-50096000D01*
X91982000Y-50059000D01*
X91955000Y-50020000D01*
X91931000Y-49980000D01*
X91908000Y-49939000D01*
X91888000Y-49896000D01*
X91870000Y-49853000D01*
X91854000Y-49808000D01*
X91841000Y-49763000D01*
X91830000Y-49717000D01*
X91821000Y-49671000D01*
X91815000Y-49624000D01*
X91811000Y-49577000D01*
X91810000Y-49530000D01*
X91811000Y-49483000D01*
X91815000Y-49436000D01*
X91821000Y-49389000D01*
X91830000Y-49343000D01*
X91841000Y-49297000D01*
X91854000Y-49252000D01*
X91870000Y-49207000D01*
X91888000Y-49164000D01*
X91908000Y-49121000D01*
X91931000Y-49080000D01*
X91955000Y-49040000D01*
X91982000Y-49001000D01*
X92011000Y-48964000D01*
X92041000Y-48928000D01*
X92074000Y-48894000D01*
X92108000Y-48861000D01*
X92144000Y-48831000D01*
X92181000Y-48802000D01*
X92220000Y-48775000D01*
X92260000Y-48751000D01*
X92301000Y-48728000D01*
X92344000Y-48708000D01*
X92387000Y-48690000D01*
X92432000Y-48674000D01*
X92477000Y-48661000D01*
X92523000Y-48650000D01*
X92569000Y-48641000D01*
X92616000Y-48635000D01*
X92663000Y-48631000D01*
X92710000Y-48630000D01*
X95210000Y-48630000D01*
X95210000Y-50430000D01*
G36*
X95210000Y-50430000D02*
G01*
X92710000Y-50430000D01*
X92663000Y-50429000D01*
X92616000Y-50425000D01*
X92569000Y-50419000D01*
X92523000Y-50410000D01*
X92477000Y-50399000D01*
X92432000Y-50386000D01*
X92387000Y-50370000D01*
X92344000Y-50352000D01*
X92301000Y-50332000D01*
X92260000Y-50309000D01*
X92220000Y-50285000D01*
X92181000Y-50258000D01*
X92144000Y-50229000D01*
X92108000Y-50199000D01*
X92074000Y-50166000D01*
X92041000Y-50132000D01*
X92011000Y-50096000D01*
X91982000Y-50059000D01*
X91955000Y-50020000D01*
X91931000Y-49980000D01*
X91908000Y-49939000D01*
X91888000Y-49896000D01*
X91870000Y-49853000D01*
X91854000Y-49808000D01*
X91841000Y-49763000D01*
X91830000Y-49717000D01*
X91821000Y-49671000D01*
X91815000Y-49624000D01*
X91811000Y-49577000D01*
X91810000Y-49530000D01*
X91811000Y-49483000D01*
X91815000Y-49436000D01*
X91821000Y-49389000D01*
X91830000Y-49343000D01*
X91841000Y-49297000D01*
X91854000Y-49252000D01*
X91870000Y-49207000D01*
X91888000Y-49164000D01*
X91908000Y-49121000D01*
X91931000Y-49080000D01*
X91955000Y-49040000D01*
X91982000Y-49001000D01*
X92011000Y-48964000D01*
X92041000Y-48928000D01*
X92074000Y-48894000D01*
X92108000Y-48861000D01*
X92144000Y-48831000D01*
X92181000Y-48802000D01*
X92220000Y-48775000D01*
X92260000Y-48751000D01*
X92301000Y-48728000D01*
X92344000Y-48708000D01*
X92387000Y-48690000D01*
X92432000Y-48674000D01*
X92477000Y-48661000D01*
X92523000Y-48650000D01*
X92569000Y-48641000D01*
X92616000Y-48635000D01*
X92663000Y-48631000D01*
X92710000Y-48630000D01*
X95210000Y-48630000D01*
X95210000Y-50430000D01*
G37*
X95210000Y-55510000D02*
X92710000Y-55510000D01*
X92663000Y-55509000D01*
X92616000Y-55505000D01*
X92569000Y-55499000D01*
X92523000Y-55490000D01*
X92477000Y-55479000D01*
X92432000Y-55466000D01*
X92387000Y-55450000D01*
X92344000Y-55432000D01*
X92301000Y-55412000D01*
X92260000Y-55389000D01*
X92220000Y-55365000D01*
X92181000Y-55338000D01*
X92144000Y-55309000D01*
X92108000Y-55279000D01*
X92074000Y-55246000D01*
X92041000Y-55212000D01*
X92011000Y-55176000D01*
X91982000Y-55139000D01*
X91955000Y-55100000D01*
X91931000Y-55060000D01*
X91908000Y-55019000D01*
X91888000Y-54976000D01*
X91870000Y-54933000D01*
X91854000Y-54888000D01*
X91841000Y-54843000D01*
X91830000Y-54797000D01*
X91821000Y-54751000D01*
X91815000Y-54704000D01*
X91811000Y-54657000D01*
X91810000Y-54610000D01*
X91811000Y-54563000D01*
X91815000Y-54516000D01*
X91821000Y-54469000D01*
X91830000Y-54423000D01*
X91841000Y-54377000D01*
X91854000Y-54332000D01*
X91870000Y-54287000D01*
X91888000Y-54244000D01*
X91908000Y-54201000D01*
X91931000Y-54160000D01*
X91955000Y-54120000D01*
X91982000Y-54081000D01*
X92011000Y-54044000D01*
X92041000Y-54008000D01*
X92074000Y-53974000D01*
X92108000Y-53941000D01*
X92144000Y-53911000D01*
X92181000Y-53882000D01*
X92220000Y-53855000D01*
X92260000Y-53831000D01*
X92301000Y-53808000D01*
X92344000Y-53788000D01*
X92387000Y-53770000D01*
X92432000Y-53754000D01*
X92477000Y-53741000D01*
X92523000Y-53730000D01*
X92569000Y-53721000D01*
X92616000Y-53715000D01*
X92663000Y-53711000D01*
X92710000Y-53710000D01*
X95210000Y-53710000D01*
X95210000Y-55510000D01*
G36*
X95210000Y-55510000D02*
G01*
X92710000Y-55510000D01*
X92663000Y-55509000D01*
X92616000Y-55505000D01*
X92569000Y-55499000D01*
X92523000Y-55490000D01*
X92477000Y-55479000D01*
X92432000Y-55466000D01*
X92387000Y-55450000D01*
X92344000Y-55432000D01*
X92301000Y-55412000D01*
X92260000Y-55389000D01*
X92220000Y-55365000D01*
X92181000Y-55338000D01*
X92144000Y-55309000D01*
X92108000Y-55279000D01*
X92074000Y-55246000D01*
X92041000Y-55212000D01*
X92011000Y-55176000D01*
X91982000Y-55139000D01*
X91955000Y-55100000D01*
X91931000Y-55060000D01*
X91908000Y-55019000D01*
X91888000Y-54976000D01*
X91870000Y-54933000D01*
X91854000Y-54888000D01*
X91841000Y-54843000D01*
X91830000Y-54797000D01*
X91821000Y-54751000D01*
X91815000Y-54704000D01*
X91811000Y-54657000D01*
X91810000Y-54610000D01*
X91811000Y-54563000D01*
X91815000Y-54516000D01*
X91821000Y-54469000D01*
X91830000Y-54423000D01*
X91841000Y-54377000D01*
X91854000Y-54332000D01*
X91870000Y-54287000D01*
X91888000Y-54244000D01*
X91908000Y-54201000D01*
X91931000Y-54160000D01*
X91955000Y-54120000D01*
X91982000Y-54081000D01*
X92011000Y-54044000D01*
X92041000Y-54008000D01*
X92074000Y-53974000D01*
X92108000Y-53941000D01*
X92144000Y-53911000D01*
X92181000Y-53882000D01*
X92220000Y-53855000D01*
X92260000Y-53831000D01*
X92301000Y-53808000D01*
X92344000Y-53788000D01*
X92387000Y-53770000D01*
X92432000Y-53754000D01*
X92477000Y-53741000D01*
X92523000Y-53730000D01*
X92569000Y-53721000D01*
X92616000Y-53715000D01*
X92663000Y-53711000D01*
X92710000Y-53710000D01*
X95210000Y-53710000D01*
X95210000Y-55510000D01*
G37*
X95210000Y-58050000D02*
X92710000Y-58050000D01*
X92663000Y-58049000D01*
X92616000Y-58045000D01*
X92569000Y-58039000D01*
X92523000Y-58030000D01*
X92477000Y-58019000D01*
X92432000Y-58006000D01*
X92387000Y-57990000D01*
X92344000Y-57972000D01*
X92301000Y-57952000D01*
X92260000Y-57929000D01*
X92220000Y-57905000D01*
X92181000Y-57878000D01*
X92144000Y-57849000D01*
X92108000Y-57819000D01*
X92074000Y-57786000D01*
X92041000Y-57752000D01*
X92011000Y-57716000D01*
X91982000Y-57679000D01*
X91955000Y-57640000D01*
X91931000Y-57600000D01*
X91908000Y-57559000D01*
X91888000Y-57516000D01*
X91870000Y-57473000D01*
X91854000Y-57428000D01*
X91841000Y-57383000D01*
X91830000Y-57337000D01*
X91821000Y-57291000D01*
X91815000Y-57244000D01*
X91811000Y-57197000D01*
X91810000Y-57150000D01*
X91811000Y-57103000D01*
X91815000Y-57056000D01*
X91821000Y-57009000D01*
X91830000Y-56963000D01*
X91841000Y-56917000D01*
X91854000Y-56872000D01*
X91870000Y-56827000D01*
X91888000Y-56784000D01*
X91908000Y-56741000D01*
X91931000Y-56700000D01*
X91955000Y-56660000D01*
X91982000Y-56621000D01*
X92011000Y-56584000D01*
X92041000Y-56548000D01*
X92074000Y-56514000D01*
X92108000Y-56481000D01*
X92144000Y-56451000D01*
X92181000Y-56422000D01*
X92220000Y-56395000D01*
X92260000Y-56371000D01*
X92301000Y-56348000D01*
X92344000Y-56328000D01*
X92387000Y-56310000D01*
X92432000Y-56294000D01*
X92477000Y-56281000D01*
X92523000Y-56270000D01*
X92569000Y-56261000D01*
X92616000Y-56255000D01*
X92663000Y-56251000D01*
X92710000Y-56250000D01*
X95210000Y-56250000D01*
X95210000Y-58050000D01*
G36*
X95210000Y-58050000D02*
G01*
X92710000Y-58050000D01*
X92663000Y-58049000D01*
X92616000Y-58045000D01*
X92569000Y-58039000D01*
X92523000Y-58030000D01*
X92477000Y-58019000D01*
X92432000Y-58006000D01*
X92387000Y-57990000D01*
X92344000Y-57972000D01*
X92301000Y-57952000D01*
X92260000Y-57929000D01*
X92220000Y-57905000D01*
X92181000Y-57878000D01*
X92144000Y-57849000D01*
X92108000Y-57819000D01*
X92074000Y-57786000D01*
X92041000Y-57752000D01*
X92011000Y-57716000D01*
X91982000Y-57679000D01*
X91955000Y-57640000D01*
X91931000Y-57600000D01*
X91908000Y-57559000D01*
X91888000Y-57516000D01*
X91870000Y-57473000D01*
X91854000Y-57428000D01*
X91841000Y-57383000D01*
X91830000Y-57337000D01*
X91821000Y-57291000D01*
X91815000Y-57244000D01*
X91811000Y-57197000D01*
X91810000Y-57150000D01*
X91811000Y-57103000D01*
X91815000Y-57056000D01*
X91821000Y-57009000D01*
X91830000Y-56963000D01*
X91841000Y-56917000D01*
X91854000Y-56872000D01*
X91870000Y-56827000D01*
X91888000Y-56784000D01*
X91908000Y-56741000D01*
X91931000Y-56700000D01*
X91955000Y-56660000D01*
X91982000Y-56621000D01*
X92011000Y-56584000D01*
X92041000Y-56548000D01*
X92074000Y-56514000D01*
X92108000Y-56481000D01*
X92144000Y-56451000D01*
X92181000Y-56422000D01*
X92220000Y-56395000D01*
X92260000Y-56371000D01*
X92301000Y-56348000D01*
X92344000Y-56328000D01*
X92387000Y-56310000D01*
X92432000Y-56294000D01*
X92477000Y-56281000D01*
X92523000Y-56270000D01*
X92569000Y-56261000D01*
X92616000Y-56255000D01*
X92663000Y-56251000D01*
X92710000Y-56250000D01*
X95210000Y-56250000D01*
X95210000Y-58050000D01*
G37*
X95210000Y-60590000D02*
X92710000Y-60590000D01*
X92663000Y-60589000D01*
X92616000Y-60585000D01*
X92569000Y-60579000D01*
X92523000Y-60570000D01*
X92477000Y-60559000D01*
X92432000Y-60546000D01*
X92387000Y-60530000D01*
X92344000Y-60512000D01*
X92301000Y-60492000D01*
X92260000Y-60469000D01*
X92220000Y-60445000D01*
X92181000Y-60418000D01*
X92144000Y-60389000D01*
X92108000Y-60359000D01*
X92074000Y-60326000D01*
X92041000Y-60292000D01*
X92011000Y-60256000D01*
X91982000Y-60219000D01*
X91955000Y-60180000D01*
X91931000Y-60140000D01*
X91908000Y-60099000D01*
X91888000Y-60056000D01*
X91870000Y-60013000D01*
X91854000Y-59968000D01*
X91841000Y-59923000D01*
X91830000Y-59877000D01*
X91821000Y-59831000D01*
X91815000Y-59784000D01*
X91811000Y-59737000D01*
X91810000Y-59690000D01*
X91811000Y-59643000D01*
X91815000Y-59596000D01*
X91821000Y-59549000D01*
X91830000Y-59503000D01*
X91841000Y-59457000D01*
X91854000Y-59412000D01*
X91870000Y-59367000D01*
X91888000Y-59324000D01*
X91908000Y-59281000D01*
X91931000Y-59240000D01*
X91955000Y-59200000D01*
X91982000Y-59161000D01*
X92011000Y-59124000D01*
X92041000Y-59088000D01*
X92074000Y-59054000D01*
X92108000Y-59021000D01*
X92144000Y-58991000D01*
X92181000Y-58962000D01*
X92220000Y-58935000D01*
X92260000Y-58911000D01*
X92301000Y-58888000D01*
X92344000Y-58868000D01*
X92387000Y-58850000D01*
X92432000Y-58834000D01*
X92477000Y-58821000D01*
X92523000Y-58810000D01*
X92569000Y-58801000D01*
X92616000Y-58795000D01*
X92663000Y-58791000D01*
X92710000Y-58790000D01*
X95210000Y-58790000D01*
X95210000Y-60590000D01*
G36*
X95210000Y-60590000D02*
G01*
X92710000Y-60590000D01*
X92663000Y-60589000D01*
X92616000Y-60585000D01*
X92569000Y-60579000D01*
X92523000Y-60570000D01*
X92477000Y-60559000D01*
X92432000Y-60546000D01*
X92387000Y-60530000D01*
X92344000Y-60512000D01*
X92301000Y-60492000D01*
X92260000Y-60469000D01*
X92220000Y-60445000D01*
X92181000Y-60418000D01*
X92144000Y-60389000D01*
X92108000Y-60359000D01*
X92074000Y-60326000D01*
X92041000Y-60292000D01*
X92011000Y-60256000D01*
X91982000Y-60219000D01*
X91955000Y-60180000D01*
X91931000Y-60140000D01*
X91908000Y-60099000D01*
X91888000Y-60056000D01*
X91870000Y-60013000D01*
X91854000Y-59968000D01*
X91841000Y-59923000D01*
X91830000Y-59877000D01*
X91821000Y-59831000D01*
X91815000Y-59784000D01*
X91811000Y-59737000D01*
X91810000Y-59690000D01*
X91811000Y-59643000D01*
X91815000Y-59596000D01*
X91821000Y-59549000D01*
X91830000Y-59503000D01*
X91841000Y-59457000D01*
X91854000Y-59412000D01*
X91870000Y-59367000D01*
X91888000Y-59324000D01*
X91908000Y-59281000D01*
X91931000Y-59240000D01*
X91955000Y-59200000D01*
X91982000Y-59161000D01*
X92011000Y-59124000D01*
X92041000Y-59088000D01*
X92074000Y-59054000D01*
X92108000Y-59021000D01*
X92144000Y-58991000D01*
X92181000Y-58962000D01*
X92220000Y-58935000D01*
X92260000Y-58911000D01*
X92301000Y-58888000D01*
X92344000Y-58868000D01*
X92387000Y-58850000D01*
X92432000Y-58834000D01*
X92477000Y-58821000D01*
X92523000Y-58810000D01*
X92569000Y-58801000D01*
X92616000Y-58795000D01*
X92663000Y-58791000D01*
X92710000Y-58790000D01*
X95210000Y-58790000D01*
X95210000Y-60590000D01*
G37*
X95210000Y-63130000D02*
X92710000Y-63130000D01*
X92663000Y-63129000D01*
X92616000Y-63125000D01*
X92569000Y-63119000D01*
X92523000Y-63110000D01*
X92477000Y-63099000D01*
X92432000Y-63086000D01*
X92387000Y-63070000D01*
X92344000Y-63052000D01*
X92301000Y-63032000D01*
X92260000Y-63009000D01*
X92220000Y-62985000D01*
X92181000Y-62958000D01*
X92144000Y-62929000D01*
X92108000Y-62899000D01*
X92074000Y-62866000D01*
X92041000Y-62832000D01*
X92011000Y-62796000D01*
X91982000Y-62759000D01*
X91955000Y-62720000D01*
X91931000Y-62680000D01*
X91908000Y-62639000D01*
X91888000Y-62596000D01*
X91870000Y-62553000D01*
X91854000Y-62508000D01*
X91841000Y-62463000D01*
X91830000Y-62417000D01*
X91821000Y-62371000D01*
X91815000Y-62324000D01*
X91811000Y-62277000D01*
X91810000Y-62230000D01*
X91811000Y-62183000D01*
X91815000Y-62136000D01*
X91821000Y-62089000D01*
X91830000Y-62043000D01*
X91841000Y-61997000D01*
X91854000Y-61952000D01*
X91870000Y-61907000D01*
X91888000Y-61864000D01*
X91908000Y-61821000D01*
X91931000Y-61780000D01*
X91955000Y-61740000D01*
X91982000Y-61701000D01*
X92011000Y-61664000D01*
X92041000Y-61628000D01*
X92074000Y-61594000D01*
X92108000Y-61561000D01*
X92144000Y-61531000D01*
X92181000Y-61502000D01*
X92220000Y-61475000D01*
X92260000Y-61451000D01*
X92301000Y-61428000D01*
X92344000Y-61408000D01*
X92387000Y-61390000D01*
X92432000Y-61374000D01*
X92477000Y-61361000D01*
X92523000Y-61350000D01*
X92569000Y-61341000D01*
X92616000Y-61335000D01*
X92663000Y-61331000D01*
X92710000Y-61330000D01*
X95210000Y-61330000D01*
X95210000Y-63130000D01*
G36*
X95210000Y-63130000D02*
G01*
X92710000Y-63130000D01*
X92663000Y-63129000D01*
X92616000Y-63125000D01*
X92569000Y-63119000D01*
X92523000Y-63110000D01*
X92477000Y-63099000D01*
X92432000Y-63086000D01*
X92387000Y-63070000D01*
X92344000Y-63052000D01*
X92301000Y-63032000D01*
X92260000Y-63009000D01*
X92220000Y-62985000D01*
X92181000Y-62958000D01*
X92144000Y-62929000D01*
X92108000Y-62899000D01*
X92074000Y-62866000D01*
X92041000Y-62832000D01*
X92011000Y-62796000D01*
X91982000Y-62759000D01*
X91955000Y-62720000D01*
X91931000Y-62680000D01*
X91908000Y-62639000D01*
X91888000Y-62596000D01*
X91870000Y-62553000D01*
X91854000Y-62508000D01*
X91841000Y-62463000D01*
X91830000Y-62417000D01*
X91821000Y-62371000D01*
X91815000Y-62324000D01*
X91811000Y-62277000D01*
X91810000Y-62230000D01*
X91811000Y-62183000D01*
X91815000Y-62136000D01*
X91821000Y-62089000D01*
X91830000Y-62043000D01*
X91841000Y-61997000D01*
X91854000Y-61952000D01*
X91870000Y-61907000D01*
X91888000Y-61864000D01*
X91908000Y-61821000D01*
X91931000Y-61780000D01*
X91955000Y-61740000D01*
X91982000Y-61701000D01*
X92011000Y-61664000D01*
X92041000Y-61628000D01*
X92074000Y-61594000D01*
X92108000Y-61561000D01*
X92144000Y-61531000D01*
X92181000Y-61502000D01*
X92220000Y-61475000D01*
X92260000Y-61451000D01*
X92301000Y-61428000D01*
X92344000Y-61408000D01*
X92387000Y-61390000D01*
X92432000Y-61374000D01*
X92477000Y-61361000D01*
X92523000Y-61350000D01*
X92569000Y-61341000D01*
X92616000Y-61335000D01*
X92663000Y-61331000D01*
X92710000Y-61330000D01*
X95210000Y-61330000D01*
X95210000Y-63130000D01*
G37*
X95210000Y-68210000D02*
X92710000Y-68210000D01*
X92663000Y-68209000D01*
X92616000Y-68205000D01*
X92569000Y-68199000D01*
X92523000Y-68190000D01*
X92477000Y-68179000D01*
X92432000Y-68166000D01*
X92387000Y-68150000D01*
X92344000Y-68132000D01*
X92301000Y-68112000D01*
X92260000Y-68089000D01*
X92220000Y-68065000D01*
X92181000Y-68038000D01*
X92144000Y-68009000D01*
X92108000Y-67979000D01*
X92074000Y-67946000D01*
X92041000Y-67912000D01*
X92011000Y-67876000D01*
X91982000Y-67839000D01*
X91955000Y-67800000D01*
X91931000Y-67760000D01*
X91908000Y-67719000D01*
X91888000Y-67676000D01*
X91870000Y-67633000D01*
X91854000Y-67588000D01*
X91841000Y-67543000D01*
X91830000Y-67497000D01*
X91821000Y-67451000D01*
X91815000Y-67404000D01*
X91811000Y-67357000D01*
X91810000Y-67310000D01*
X91811000Y-67263000D01*
X91815000Y-67216000D01*
X91821000Y-67169000D01*
X91830000Y-67123000D01*
X91841000Y-67077000D01*
X91854000Y-67032000D01*
X91870000Y-66987000D01*
X91888000Y-66944000D01*
X91908000Y-66901000D01*
X91931000Y-66860000D01*
X91955000Y-66820000D01*
X91982000Y-66781000D01*
X92011000Y-66744000D01*
X92041000Y-66708000D01*
X92074000Y-66674000D01*
X92108000Y-66641000D01*
X92144000Y-66611000D01*
X92181000Y-66582000D01*
X92220000Y-66555000D01*
X92260000Y-66531000D01*
X92301000Y-66508000D01*
X92344000Y-66488000D01*
X92387000Y-66470000D01*
X92432000Y-66454000D01*
X92477000Y-66441000D01*
X92523000Y-66430000D01*
X92569000Y-66421000D01*
X92616000Y-66415000D01*
X92663000Y-66411000D01*
X92710000Y-66410000D01*
X95210000Y-66410000D01*
X95210000Y-68210000D01*
G36*
X95210000Y-68210000D02*
G01*
X92710000Y-68210000D01*
X92663000Y-68209000D01*
X92616000Y-68205000D01*
X92569000Y-68199000D01*
X92523000Y-68190000D01*
X92477000Y-68179000D01*
X92432000Y-68166000D01*
X92387000Y-68150000D01*
X92344000Y-68132000D01*
X92301000Y-68112000D01*
X92260000Y-68089000D01*
X92220000Y-68065000D01*
X92181000Y-68038000D01*
X92144000Y-68009000D01*
X92108000Y-67979000D01*
X92074000Y-67946000D01*
X92041000Y-67912000D01*
X92011000Y-67876000D01*
X91982000Y-67839000D01*
X91955000Y-67800000D01*
X91931000Y-67760000D01*
X91908000Y-67719000D01*
X91888000Y-67676000D01*
X91870000Y-67633000D01*
X91854000Y-67588000D01*
X91841000Y-67543000D01*
X91830000Y-67497000D01*
X91821000Y-67451000D01*
X91815000Y-67404000D01*
X91811000Y-67357000D01*
X91810000Y-67310000D01*
X91811000Y-67263000D01*
X91815000Y-67216000D01*
X91821000Y-67169000D01*
X91830000Y-67123000D01*
X91841000Y-67077000D01*
X91854000Y-67032000D01*
X91870000Y-66987000D01*
X91888000Y-66944000D01*
X91908000Y-66901000D01*
X91931000Y-66860000D01*
X91955000Y-66820000D01*
X91982000Y-66781000D01*
X92011000Y-66744000D01*
X92041000Y-66708000D01*
X92074000Y-66674000D01*
X92108000Y-66641000D01*
X92144000Y-66611000D01*
X92181000Y-66582000D01*
X92220000Y-66555000D01*
X92260000Y-66531000D01*
X92301000Y-66508000D01*
X92344000Y-66488000D01*
X92387000Y-66470000D01*
X92432000Y-66454000D01*
X92477000Y-66441000D01*
X92523000Y-66430000D01*
X92569000Y-66421000D01*
X92616000Y-66415000D01*
X92663000Y-66411000D01*
X92710000Y-66410000D01*
X95210000Y-66410000D01*
X95210000Y-68210000D01*
G37*
X95210000Y-70750000D02*
X92710000Y-70750000D01*
X92663000Y-70749000D01*
X92616000Y-70745000D01*
X92569000Y-70739000D01*
X92523000Y-70730000D01*
X92477000Y-70719000D01*
X92432000Y-70706000D01*
X92387000Y-70690000D01*
X92344000Y-70672000D01*
X92301000Y-70652000D01*
X92260000Y-70629000D01*
X92220000Y-70605000D01*
X92181000Y-70578000D01*
X92144000Y-70549000D01*
X92108000Y-70519000D01*
X92074000Y-70486000D01*
X92041000Y-70452000D01*
X92011000Y-70416000D01*
X91982000Y-70379000D01*
X91955000Y-70340000D01*
X91931000Y-70300000D01*
X91908000Y-70259000D01*
X91888000Y-70216000D01*
X91870000Y-70173000D01*
X91854000Y-70128000D01*
X91841000Y-70083000D01*
X91830000Y-70037000D01*
X91821000Y-69991000D01*
X91815000Y-69944000D01*
X91811000Y-69897000D01*
X91810000Y-69850000D01*
X91811000Y-69803000D01*
X91815000Y-69756000D01*
X91821000Y-69709000D01*
X91830000Y-69663000D01*
X91841000Y-69617000D01*
X91854000Y-69572000D01*
X91870000Y-69527000D01*
X91888000Y-69484000D01*
X91908000Y-69441000D01*
X91931000Y-69400000D01*
X91955000Y-69360000D01*
X91982000Y-69321000D01*
X92011000Y-69284000D01*
X92041000Y-69248000D01*
X92074000Y-69214000D01*
X92108000Y-69181000D01*
X92144000Y-69151000D01*
X92181000Y-69122000D01*
X92220000Y-69095000D01*
X92260000Y-69071000D01*
X92301000Y-69048000D01*
X92344000Y-69028000D01*
X92387000Y-69010000D01*
X92432000Y-68994000D01*
X92477000Y-68981000D01*
X92523000Y-68970000D01*
X92569000Y-68961000D01*
X92616000Y-68955000D01*
X92663000Y-68951000D01*
X92710000Y-68950000D01*
X95210000Y-68950000D01*
X95210000Y-70750000D01*
G36*
X95210000Y-70750000D02*
G01*
X92710000Y-70750000D01*
X92663000Y-70749000D01*
X92616000Y-70745000D01*
X92569000Y-70739000D01*
X92523000Y-70730000D01*
X92477000Y-70719000D01*
X92432000Y-70706000D01*
X92387000Y-70690000D01*
X92344000Y-70672000D01*
X92301000Y-70652000D01*
X92260000Y-70629000D01*
X92220000Y-70605000D01*
X92181000Y-70578000D01*
X92144000Y-70549000D01*
X92108000Y-70519000D01*
X92074000Y-70486000D01*
X92041000Y-70452000D01*
X92011000Y-70416000D01*
X91982000Y-70379000D01*
X91955000Y-70340000D01*
X91931000Y-70300000D01*
X91908000Y-70259000D01*
X91888000Y-70216000D01*
X91870000Y-70173000D01*
X91854000Y-70128000D01*
X91841000Y-70083000D01*
X91830000Y-70037000D01*
X91821000Y-69991000D01*
X91815000Y-69944000D01*
X91811000Y-69897000D01*
X91810000Y-69850000D01*
X91811000Y-69803000D01*
X91815000Y-69756000D01*
X91821000Y-69709000D01*
X91830000Y-69663000D01*
X91841000Y-69617000D01*
X91854000Y-69572000D01*
X91870000Y-69527000D01*
X91888000Y-69484000D01*
X91908000Y-69441000D01*
X91931000Y-69400000D01*
X91955000Y-69360000D01*
X91982000Y-69321000D01*
X92011000Y-69284000D01*
X92041000Y-69248000D01*
X92074000Y-69214000D01*
X92108000Y-69181000D01*
X92144000Y-69151000D01*
X92181000Y-69122000D01*
X92220000Y-69095000D01*
X92260000Y-69071000D01*
X92301000Y-69048000D01*
X92344000Y-69028000D01*
X92387000Y-69010000D01*
X92432000Y-68994000D01*
X92477000Y-68981000D01*
X92523000Y-68970000D01*
X92569000Y-68961000D01*
X92616000Y-68955000D01*
X92663000Y-68951000D01*
X92710000Y-68950000D01*
X95210000Y-68950000D01*
X95210000Y-70750000D01*
G37*
X95210000Y-73290000D02*
X92710000Y-73290000D01*
X92663000Y-73289000D01*
X92616000Y-73285000D01*
X92569000Y-73279000D01*
X92523000Y-73270000D01*
X92477000Y-73259000D01*
X92432000Y-73246000D01*
X92387000Y-73230000D01*
X92344000Y-73212000D01*
X92301000Y-73192000D01*
X92260000Y-73169000D01*
X92220000Y-73145000D01*
X92181000Y-73118000D01*
X92144000Y-73089000D01*
X92108000Y-73059000D01*
X92074000Y-73026000D01*
X92041000Y-72992000D01*
X92011000Y-72956000D01*
X91982000Y-72919000D01*
X91955000Y-72880000D01*
X91931000Y-72840000D01*
X91908000Y-72799000D01*
X91888000Y-72756000D01*
X91870000Y-72713000D01*
X91854000Y-72668000D01*
X91841000Y-72623000D01*
X91830000Y-72577000D01*
X91821000Y-72531000D01*
X91815000Y-72484000D01*
X91811000Y-72437000D01*
X91810000Y-72390000D01*
X91811000Y-72343000D01*
X91815000Y-72296000D01*
X91821000Y-72249000D01*
X91830000Y-72203000D01*
X91841000Y-72157000D01*
X91854000Y-72112000D01*
X91870000Y-72067000D01*
X91888000Y-72024000D01*
X91908000Y-71981000D01*
X91931000Y-71940000D01*
X91955000Y-71900000D01*
X91982000Y-71861000D01*
X92011000Y-71824000D01*
X92041000Y-71788000D01*
X92074000Y-71754000D01*
X92108000Y-71721000D01*
X92144000Y-71691000D01*
X92181000Y-71662000D01*
X92220000Y-71635000D01*
X92260000Y-71611000D01*
X92301000Y-71588000D01*
X92344000Y-71568000D01*
X92387000Y-71550000D01*
X92432000Y-71534000D01*
X92477000Y-71521000D01*
X92523000Y-71510000D01*
X92569000Y-71501000D01*
X92616000Y-71495000D01*
X92663000Y-71491000D01*
X92710000Y-71490000D01*
X95210000Y-71490000D01*
X95210000Y-73290000D01*
G36*
X95210000Y-73290000D02*
G01*
X92710000Y-73290000D01*
X92663000Y-73289000D01*
X92616000Y-73285000D01*
X92569000Y-73279000D01*
X92523000Y-73270000D01*
X92477000Y-73259000D01*
X92432000Y-73246000D01*
X92387000Y-73230000D01*
X92344000Y-73212000D01*
X92301000Y-73192000D01*
X92260000Y-73169000D01*
X92220000Y-73145000D01*
X92181000Y-73118000D01*
X92144000Y-73089000D01*
X92108000Y-73059000D01*
X92074000Y-73026000D01*
X92041000Y-72992000D01*
X92011000Y-72956000D01*
X91982000Y-72919000D01*
X91955000Y-72880000D01*
X91931000Y-72840000D01*
X91908000Y-72799000D01*
X91888000Y-72756000D01*
X91870000Y-72713000D01*
X91854000Y-72668000D01*
X91841000Y-72623000D01*
X91830000Y-72577000D01*
X91821000Y-72531000D01*
X91815000Y-72484000D01*
X91811000Y-72437000D01*
X91810000Y-72390000D01*
X91811000Y-72343000D01*
X91815000Y-72296000D01*
X91821000Y-72249000D01*
X91830000Y-72203000D01*
X91841000Y-72157000D01*
X91854000Y-72112000D01*
X91870000Y-72067000D01*
X91888000Y-72024000D01*
X91908000Y-71981000D01*
X91931000Y-71940000D01*
X91955000Y-71900000D01*
X91982000Y-71861000D01*
X92011000Y-71824000D01*
X92041000Y-71788000D01*
X92074000Y-71754000D01*
X92108000Y-71721000D01*
X92144000Y-71691000D01*
X92181000Y-71662000D01*
X92220000Y-71635000D01*
X92260000Y-71611000D01*
X92301000Y-71588000D01*
X92344000Y-71568000D01*
X92387000Y-71550000D01*
X92432000Y-71534000D01*
X92477000Y-71521000D01*
X92523000Y-71510000D01*
X92569000Y-71501000D01*
X92616000Y-71495000D01*
X92663000Y-71491000D01*
X92710000Y-71490000D01*
X95210000Y-71490000D01*
X95210000Y-73290000D01*
G37*
X95210000Y-75830000D02*
X92710000Y-75830000D01*
X92663000Y-75829000D01*
X92616000Y-75825000D01*
X92569000Y-75819000D01*
X92523000Y-75810000D01*
X92477000Y-75799000D01*
X92432000Y-75786000D01*
X92387000Y-75770000D01*
X92344000Y-75752000D01*
X92301000Y-75732000D01*
X92260000Y-75709000D01*
X92220000Y-75685000D01*
X92181000Y-75658000D01*
X92144000Y-75629000D01*
X92108000Y-75599000D01*
X92074000Y-75566000D01*
X92041000Y-75532000D01*
X92011000Y-75496000D01*
X91982000Y-75459000D01*
X91955000Y-75420000D01*
X91931000Y-75380000D01*
X91908000Y-75339000D01*
X91888000Y-75296000D01*
X91870000Y-75253000D01*
X91854000Y-75208000D01*
X91841000Y-75163000D01*
X91830000Y-75117000D01*
X91821000Y-75071000D01*
X91815000Y-75024000D01*
X91811000Y-74977000D01*
X91810000Y-74930000D01*
X91811000Y-74883000D01*
X91815000Y-74836000D01*
X91821000Y-74789000D01*
X91830000Y-74743000D01*
X91841000Y-74697000D01*
X91854000Y-74652000D01*
X91870000Y-74607000D01*
X91888000Y-74564000D01*
X91908000Y-74521000D01*
X91931000Y-74480000D01*
X91955000Y-74440000D01*
X91982000Y-74401000D01*
X92011000Y-74364000D01*
X92041000Y-74328000D01*
X92074000Y-74294000D01*
X92108000Y-74261000D01*
X92144000Y-74231000D01*
X92181000Y-74202000D01*
X92220000Y-74175000D01*
X92260000Y-74151000D01*
X92301000Y-74128000D01*
X92344000Y-74108000D01*
X92387000Y-74090000D01*
X92432000Y-74074000D01*
X92477000Y-74061000D01*
X92523000Y-74050000D01*
X92569000Y-74041000D01*
X92616000Y-74035000D01*
X92663000Y-74031000D01*
X92710000Y-74030000D01*
X95210000Y-74030000D01*
X95210000Y-75830000D01*
G36*
X95210000Y-75830000D02*
G01*
X92710000Y-75830000D01*
X92663000Y-75829000D01*
X92616000Y-75825000D01*
X92569000Y-75819000D01*
X92523000Y-75810000D01*
X92477000Y-75799000D01*
X92432000Y-75786000D01*
X92387000Y-75770000D01*
X92344000Y-75752000D01*
X92301000Y-75732000D01*
X92260000Y-75709000D01*
X92220000Y-75685000D01*
X92181000Y-75658000D01*
X92144000Y-75629000D01*
X92108000Y-75599000D01*
X92074000Y-75566000D01*
X92041000Y-75532000D01*
X92011000Y-75496000D01*
X91982000Y-75459000D01*
X91955000Y-75420000D01*
X91931000Y-75380000D01*
X91908000Y-75339000D01*
X91888000Y-75296000D01*
X91870000Y-75253000D01*
X91854000Y-75208000D01*
X91841000Y-75163000D01*
X91830000Y-75117000D01*
X91821000Y-75071000D01*
X91815000Y-75024000D01*
X91811000Y-74977000D01*
X91810000Y-74930000D01*
X91811000Y-74883000D01*
X91815000Y-74836000D01*
X91821000Y-74789000D01*
X91830000Y-74743000D01*
X91841000Y-74697000D01*
X91854000Y-74652000D01*
X91870000Y-74607000D01*
X91888000Y-74564000D01*
X91908000Y-74521000D01*
X91931000Y-74480000D01*
X91955000Y-74440000D01*
X91982000Y-74401000D01*
X92011000Y-74364000D01*
X92041000Y-74328000D01*
X92074000Y-74294000D01*
X92108000Y-74261000D01*
X92144000Y-74231000D01*
X92181000Y-74202000D01*
X92220000Y-74175000D01*
X92260000Y-74151000D01*
X92301000Y-74128000D01*
X92344000Y-74108000D01*
X92387000Y-74090000D01*
X92432000Y-74074000D01*
X92477000Y-74061000D01*
X92523000Y-74050000D01*
X92569000Y-74041000D01*
X92616000Y-74035000D01*
X92663000Y-74031000D01*
X92710000Y-74030000D01*
X95210000Y-74030000D01*
X95210000Y-75830000D01*
G37*
X95210000Y-80910000D02*
X92710000Y-80910000D01*
X92663000Y-80909000D01*
X92616000Y-80905000D01*
X92569000Y-80899000D01*
X92523000Y-80890000D01*
X92477000Y-80879000D01*
X92432000Y-80866000D01*
X92387000Y-80850000D01*
X92344000Y-80832000D01*
X92301000Y-80812000D01*
X92260000Y-80789000D01*
X92220000Y-80765000D01*
X92181000Y-80738000D01*
X92144000Y-80709000D01*
X92108000Y-80679000D01*
X92074000Y-80646000D01*
X92041000Y-80612000D01*
X92011000Y-80576000D01*
X91982000Y-80539000D01*
X91955000Y-80500000D01*
X91931000Y-80460000D01*
X91908000Y-80419000D01*
X91888000Y-80376000D01*
X91870000Y-80333000D01*
X91854000Y-80288000D01*
X91841000Y-80243000D01*
X91830000Y-80197000D01*
X91821000Y-80151000D01*
X91815000Y-80104000D01*
X91811000Y-80057000D01*
X91810000Y-80010000D01*
X91811000Y-79963000D01*
X91815000Y-79916000D01*
X91821000Y-79869000D01*
X91830000Y-79823000D01*
X91841000Y-79777000D01*
X91854000Y-79732000D01*
X91870000Y-79687000D01*
X91888000Y-79644000D01*
X91908000Y-79601000D01*
X91931000Y-79560000D01*
X91955000Y-79520000D01*
X91982000Y-79481000D01*
X92011000Y-79444000D01*
X92041000Y-79408000D01*
X92074000Y-79374000D01*
X92108000Y-79341000D01*
X92144000Y-79311000D01*
X92181000Y-79282000D01*
X92220000Y-79255000D01*
X92260000Y-79231000D01*
X92301000Y-79208000D01*
X92344000Y-79188000D01*
X92387000Y-79170000D01*
X92432000Y-79154000D01*
X92477000Y-79141000D01*
X92523000Y-79130000D01*
X92569000Y-79121000D01*
X92616000Y-79115000D01*
X92663000Y-79111000D01*
X92710000Y-79110000D01*
X95210000Y-79110000D01*
X95210000Y-80910000D01*
G36*
X95210000Y-80910000D02*
G01*
X92710000Y-80910000D01*
X92663000Y-80909000D01*
X92616000Y-80905000D01*
X92569000Y-80899000D01*
X92523000Y-80890000D01*
X92477000Y-80879000D01*
X92432000Y-80866000D01*
X92387000Y-80850000D01*
X92344000Y-80832000D01*
X92301000Y-80812000D01*
X92260000Y-80789000D01*
X92220000Y-80765000D01*
X92181000Y-80738000D01*
X92144000Y-80709000D01*
X92108000Y-80679000D01*
X92074000Y-80646000D01*
X92041000Y-80612000D01*
X92011000Y-80576000D01*
X91982000Y-80539000D01*
X91955000Y-80500000D01*
X91931000Y-80460000D01*
X91908000Y-80419000D01*
X91888000Y-80376000D01*
X91870000Y-80333000D01*
X91854000Y-80288000D01*
X91841000Y-80243000D01*
X91830000Y-80197000D01*
X91821000Y-80151000D01*
X91815000Y-80104000D01*
X91811000Y-80057000D01*
X91810000Y-80010000D01*
X91811000Y-79963000D01*
X91815000Y-79916000D01*
X91821000Y-79869000D01*
X91830000Y-79823000D01*
X91841000Y-79777000D01*
X91854000Y-79732000D01*
X91870000Y-79687000D01*
X91888000Y-79644000D01*
X91908000Y-79601000D01*
X91931000Y-79560000D01*
X91955000Y-79520000D01*
X91982000Y-79481000D01*
X92011000Y-79444000D01*
X92041000Y-79408000D01*
X92074000Y-79374000D01*
X92108000Y-79341000D01*
X92144000Y-79311000D01*
X92181000Y-79282000D01*
X92220000Y-79255000D01*
X92260000Y-79231000D01*
X92301000Y-79208000D01*
X92344000Y-79188000D01*
X92387000Y-79170000D01*
X92432000Y-79154000D01*
X92477000Y-79141000D01*
X92523000Y-79130000D01*
X92569000Y-79121000D01*
X92616000Y-79115000D01*
X92663000Y-79111000D01*
X92710000Y-79110000D01*
X95210000Y-79110000D01*
X95210000Y-80910000D01*
G37*
X95210000Y-83450000D02*
X92710000Y-83450000D01*
X92663000Y-83449000D01*
X92616000Y-83445000D01*
X92569000Y-83439000D01*
X92523000Y-83430000D01*
X92477000Y-83419000D01*
X92432000Y-83406000D01*
X92387000Y-83390000D01*
X92344000Y-83372000D01*
X92301000Y-83352000D01*
X92260000Y-83329000D01*
X92220000Y-83305000D01*
X92181000Y-83278000D01*
X92144000Y-83249000D01*
X92108000Y-83219000D01*
X92074000Y-83186000D01*
X92041000Y-83152000D01*
X92011000Y-83116000D01*
X91982000Y-83079000D01*
X91955000Y-83040000D01*
X91931000Y-83000000D01*
X91908000Y-82959000D01*
X91888000Y-82916000D01*
X91870000Y-82873000D01*
X91854000Y-82828000D01*
X91841000Y-82783000D01*
X91830000Y-82737000D01*
X91821000Y-82691000D01*
X91815000Y-82644000D01*
X91811000Y-82597000D01*
X91810000Y-82550000D01*
X91811000Y-82503000D01*
X91815000Y-82456000D01*
X91821000Y-82409000D01*
X91830000Y-82363000D01*
X91841000Y-82317000D01*
X91854000Y-82272000D01*
X91870000Y-82227000D01*
X91888000Y-82184000D01*
X91908000Y-82141000D01*
X91931000Y-82100000D01*
X91955000Y-82060000D01*
X91982000Y-82021000D01*
X92011000Y-81984000D01*
X92041000Y-81948000D01*
X92074000Y-81914000D01*
X92108000Y-81881000D01*
X92144000Y-81851000D01*
X92181000Y-81822000D01*
X92220000Y-81795000D01*
X92260000Y-81771000D01*
X92301000Y-81748000D01*
X92344000Y-81728000D01*
X92387000Y-81710000D01*
X92432000Y-81694000D01*
X92477000Y-81681000D01*
X92523000Y-81670000D01*
X92569000Y-81661000D01*
X92616000Y-81655000D01*
X92663000Y-81651000D01*
X92710000Y-81650000D01*
X95210000Y-81650000D01*
X95210000Y-83450000D01*
G36*
X95210000Y-83450000D02*
G01*
X92710000Y-83450000D01*
X92663000Y-83449000D01*
X92616000Y-83445000D01*
X92569000Y-83439000D01*
X92523000Y-83430000D01*
X92477000Y-83419000D01*
X92432000Y-83406000D01*
X92387000Y-83390000D01*
X92344000Y-83372000D01*
X92301000Y-83352000D01*
X92260000Y-83329000D01*
X92220000Y-83305000D01*
X92181000Y-83278000D01*
X92144000Y-83249000D01*
X92108000Y-83219000D01*
X92074000Y-83186000D01*
X92041000Y-83152000D01*
X92011000Y-83116000D01*
X91982000Y-83079000D01*
X91955000Y-83040000D01*
X91931000Y-83000000D01*
X91908000Y-82959000D01*
X91888000Y-82916000D01*
X91870000Y-82873000D01*
X91854000Y-82828000D01*
X91841000Y-82783000D01*
X91830000Y-82737000D01*
X91821000Y-82691000D01*
X91815000Y-82644000D01*
X91811000Y-82597000D01*
X91810000Y-82550000D01*
X91811000Y-82503000D01*
X91815000Y-82456000D01*
X91821000Y-82409000D01*
X91830000Y-82363000D01*
X91841000Y-82317000D01*
X91854000Y-82272000D01*
X91870000Y-82227000D01*
X91888000Y-82184000D01*
X91908000Y-82141000D01*
X91931000Y-82100000D01*
X91955000Y-82060000D01*
X91982000Y-82021000D01*
X92011000Y-81984000D01*
X92041000Y-81948000D01*
X92074000Y-81914000D01*
X92108000Y-81881000D01*
X92144000Y-81851000D01*
X92181000Y-81822000D01*
X92220000Y-81795000D01*
X92260000Y-81771000D01*
X92301000Y-81748000D01*
X92344000Y-81728000D01*
X92387000Y-81710000D01*
X92432000Y-81694000D01*
X92477000Y-81681000D01*
X92523000Y-81670000D01*
X92569000Y-81661000D01*
X92616000Y-81655000D01*
X92663000Y-81651000D01*
X92710000Y-81650000D01*
X95210000Y-81650000D01*
X95210000Y-83450000D01*
G37*
X95210000Y-85990000D02*
X92710000Y-85990000D01*
X92663000Y-85989000D01*
X92616000Y-85985000D01*
X92569000Y-85979000D01*
X92523000Y-85970000D01*
X92477000Y-85959000D01*
X92432000Y-85946000D01*
X92387000Y-85930000D01*
X92344000Y-85912000D01*
X92301000Y-85892000D01*
X92260000Y-85869000D01*
X92220000Y-85845000D01*
X92181000Y-85818000D01*
X92144000Y-85789000D01*
X92108000Y-85759000D01*
X92074000Y-85726000D01*
X92041000Y-85692000D01*
X92011000Y-85656000D01*
X91982000Y-85619000D01*
X91955000Y-85580000D01*
X91931000Y-85540000D01*
X91908000Y-85499000D01*
X91888000Y-85456000D01*
X91870000Y-85413000D01*
X91854000Y-85368000D01*
X91841000Y-85323000D01*
X91830000Y-85277000D01*
X91821000Y-85231000D01*
X91815000Y-85184000D01*
X91811000Y-85137000D01*
X91810000Y-85090000D01*
X91811000Y-85043000D01*
X91815000Y-84996000D01*
X91821000Y-84949000D01*
X91830000Y-84903000D01*
X91841000Y-84857000D01*
X91854000Y-84812000D01*
X91870000Y-84767000D01*
X91888000Y-84724000D01*
X91908000Y-84681000D01*
X91931000Y-84640000D01*
X91955000Y-84600000D01*
X91982000Y-84561000D01*
X92011000Y-84524000D01*
X92041000Y-84488000D01*
X92074000Y-84454000D01*
X92108000Y-84421000D01*
X92144000Y-84391000D01*
X92181000Y-84362000D01*
X92220000Y-84335000D01*
X92260000Y-84311000D01*
X92301000Y-84288000D01*
X92344000Y-84268000D01*
X92387000Y-84250000D01*
X92432000Y-84234000D01*
X92477000Y-84221000D01*
X92523000Y-84210000D01*
X92569000Y-84201000D01*
X92616000Y-84195000D01*
X92663000Y-84191000D01*
X92710000Y-84190000D01*
X95210000Y-84190000D01*
X95210000Y-85990000D01*
G36*
X95210000Y-85990000D02*
G01*
X92710000Y-85990000D01*
X92663000Y-85989000D01*
X92616000Y-85985000D01*
X92569000Y-85979000D01*
X92523000Y-85970000D01*
X92477000Y-85959000D01*
X92432000Y-85946000D01*
X92387000Y-85930000D01*
X92344000Y-85912000D01*
X92301000Y-85892000D01*
X92260000Y-85869000D01*
X92220000Y-85845000D01*
X92181000Y-85818000D01*
X92144000Y-85789000D01*
X92108000Y-85759000D01*
X92074000Y-85726000D01*
X92041000Y-85692000D01*
X92011000Y-85656000D01*
X91982000Y-85619000D01*
X91955000Y-85580000D01*
X91931000Y-85540000D01*
X91908000Y-85499000D01*
X91888000Y-85456000D01*
X91870000Y-85413000D01*
X91854000Y-85368000D01*
X91841000Y-85323000D01*
X91830000Y-85277000D01*
X91821000Y-85231000D01*
X91815000Y-85184000D01*
X91811000Y-85137000D01*
X91810000Y-85090000D01*
X91811000Y-85043000D01*
X91815000Y-84996000D01*
X91821000Y-84949000D01*
X91830000Y-84903000D01*
X91841000Y-84857000D01*
X91854000Y-84812000D01*
X91870000Y-84767000D01*
X91888000Y-84724000D01*
X91908000Y-84681000D01*
X91931000Y-84640000D01*
X91955000Y-84600000D01*
X91982000Y-84561000D01*
X92011000Y-84524000D01*
X92041000Y-84488000D01*
X92074000Y-84454000D01*
X92108000Y-84421000D01*
X92144000Y-84391000D01*
X92181000Y-84362000D01*
X92220000Y-84335000D01*
X92260000Y-84311000D01*
X92301000Y-84288000D01*
X92344000Y-84268000D01*
X92387000Y-84250000D01*
X92432000Y-84234000D01*
X92477000Y-84221000D01*
X92523000Y-84210000D01*
X92569000Y-84201000D01*
X92616000Y-84195000D01*
X92663000Y-84191000D01*
X92710000Y-84190000D01*
X95210000Y-84190000D01*
X95210000Y-85990000D01*
G37*
X95210000Y-88530000D02*
X92710000Y-88530000D01*
X92663000Y-88529000D01*
X92616000Y-88525000D01*
X92569000Y-88519000D01*
X92523000Y-88510000D01*
X92477000Y-88499000D01*
X92432000Y-88486000D01*
X92387000Y-88470000D01*
X92344000Y-88452000D01*
X92301000Y-88432000D01*
X92260000Y-88409000D01*
X92220000Y-88385000D01*
X92181000Y-88358000D01*
X92144000Y-88329000D01*
X92108000Y-88299000D01*
X92074000Y-88266000D01*
X92041000Y-88232000D01*
X92011000Y-88196000D01*
X91982000Y-88159000D01*
X91955000Y-88120000D01*
X91931000Y-88080000D01*
X91908000Y-88039000D01*
X91888000Y-87996000D01*
X91870000Y-87953000D01*
X91854000Y-87908000D01*
X91841000Y-87863000D01*
X91830000Y-87817000D01*
X91821000Y-87771000D01*
X91815000Y-87724000D01*
X91811000Y-87677000D01*
X91810000Y-87630000D01*
X91811000Y-87583000D01*
X91815000Y-87536000D01*
X91821000Y-87489000D01*
X91830000Y-87443000D01*
X91841000Y-87397000D01*
X91854000Y-87352000D01*
X91870000Y-87307000D01*
X91888000Y-87264000D01*
X91908000Y-87221000D01*
X91931000Y-87180000D01*
X91955000Y-87140000D01*
X91982000Y-87101000D01*
X92011000Y-87064000D01*
X92041000Y-87028000D01*
X92074000Y-86994000D01*
X92108000Y-86961000D01*
X92144000Y-86931000D01*
X92181000Y-86902000D01*
X92220000Y-86875000D01*
X92260000Y-86851000D01*
X92301000Y-86828000D01*
X92344000Y-86808000D01*
X92387000Y-86790000D01*
X92432000Y-86774000D01*
X92477000Y-86761000D01*
X92523000Y-86750000D01*
X92569000Y-86741000D01*
X92616000Y-86735000D01*
X92663000Y-86731000D01*
X92710000Y-86730000D01*
X95210000Y-86730000D01*
X95210000Y-88530000D01*
G36*
X95210000Y-88530000D02*
G01*
X92710000Y-88530000D01*
X92663000Y-88529000D01*
X92616000Y-88525000D01*
X92569000Y-88519000D01*
X92523000Y-88510000D01*
X92477000Y-88499000D01*
X92432000Y-88486000D01*
X92387000Y-88470000D01*
X92344000Y-88452000D01*
X92301000Y-88432000D01*
X92260000Y-88409000D01*
X92220000Y-88385000D01*
X92181000Y-88358000D01*
X92144000Y-88329000D01*
X92108000Y-88299000D01*
X92074000Y-88266000D01*
X92041000Y-88232000D01*
X92011000Y-88196000D01*
X91982000Y-88159000D01*
X91955000Y-88120000D01*
X91931000Y-88080000D01*
X91908000Y-88039000D01*
X91888000Y-87996000D01*
X91870000Y-87953000D01*
X91854000Y-87908000D01*
X91841000Y-87863000D01*
X91830000Y-87817000D01*
X91821000Y-87771000D01*
X91815000Y-87724000D01*
X91811000Y-87677000D01*
X91810000Y-87630000D01*
X91811000Y-87583000D01*
X91815000Y-87536000D01*
X91821000Y-87489000D01*
X91830000Y-87443000D01*
X91841000Y-87397000D01*
X91854000Y-87352000D01*
X91870000Y-87307000D01*
X91888000Y-87264000D01*
X91908000Y-87221000D01*
X91931000Y-87180000D01*
X91955000Y-87140000D01*
X91982000Y-87101000D01*
X92011000Y-87064000D01*
X92041000Y-87028000D01*
X92074000Y-86994000D01*
X92108000Y-86961000D01*
X92144000Y-86931000D01*
X92181000Y-86902000D01*
X92220000Y-86875000D01*
X92260000Y-86851000D01*
X92301000Y-86828000D01*
X92344000Y-86808000D01*
X92387000Y-86790000D01*
X92432000Y-86774000D01*
X92477000Y-86761000D01*
X92523000Y-86750000D01*
X92569000Y-86741000D01*
X92616000Y-86735000D01*
X92663000Y-86731000D01*
X92710000Y-86730000D01*
X95210000Y-86730000D01*
X95210000Y-88530000D01*
G37*
X95210000Y-93610000D02*
X92710000Y-93610000D01*
X92663000Y-93609000D01*
X92616000Y-93605000D01*
X92569000Y-93599000D01*
X92523000Y-93590000D01*
X92477000Y-93579000D01*
X92432000Y-93566000D01*
X92387000Y-93550000D01*
X92344000Y-93532000D01*
X92301000Y-93512000D01*
X92260000Y-93489000D01*
X92220000Y-93465000D01*
X92181000Y-93438000D01*
X92144000Y-93409000D01*
X92108000Y-93379000D01*
X92074000Y-93346000D01*
X92041000Y-93312000D01*
X92011000Y-93276000D01*
X91982000Y-93239000D01*
X91955000Y-93200000D01*
X91931000Y-93160000D01*
X91908000Y-93119000D01*
X91888000Y-93076000D01*
X91870000Y-93033000D01*
X91854000Y-92988000D01*
X91841000Y-92943000D01*
X91830000Y-92897000D01*
X91821000Y-92851000D01*
X91815000Y-92804000D01*
X91811000Y-92757000D01*
X91810000Y-92710000D01*
X91811000Y-92663000D01*
X91815000Y-92616000D01*
X91821000Y-92569000D01*
X91830000Y-92523000D01*
X91841000Y-92477000D01*
X91854000Y-92432000D01*
X91870000Y-92387000D01*
X91888000Y-92344000D01*
X91908000Y-92301000D01*
X91931000Y-92260000D01*
X91955000Y-92220000D01*
X91982000Y-92181000D01*
X92011000Y-92144000D01*
X92041000Y-92108000D01*
X92074000Y-92074000D01*
X92108000Y-92041000D01*
X92144000Y-92011000D01*
X92181000Y-91982000D01*
X92220000Y-91955000D01*
X92260000Y-91931000D01*
X92301000Y-91908000D01*
X92344000Y-91888000D01*
X92387000Y-91870000D01*
X92432000Y-91854000D01*
X92477000Y-91841000D01*
X92523000Y-91830000D01*
X92569000Y-91821000D01*
X92616000Y-91815000D01*
X92663000Y-91811000D01*
X92710000Y-91810000D01*
X95210000Y-91810000D01*
X95210000Y-93610000D01*
G36*
X95210000Y-93610000D02*
G01*
X92710000Y-93610000D01*
X92663000Y-93609000D01*
X92616000Y-93605000D01*
X92569000Y-93599000D01*
X92523000Y-93590000D01*
X92477000Y-93579000D01*
X92432000Y-93566000D01*
X92387000Y-93550000D01*
X92344000Y-93532000D01*
X92301000Y-93512000D01*
X92260000Y-93489000D01*
X92220000Y-93465000D01*
X92181000Y-93438000D01*
X92144000Y-93409000D01*
X92108000Y-93379000D01*
X92074000Y-93346000D01*
X92041000Y-93312000D01*
X92011000Y-93276000D01*
X91982000Y-93239000D01*
X91955000Y-93200000D01*
X91931000Y-93160000D01*
X91908000Y-93119000D01*
X91888000Y-93076000D01*
X91870000Y-93033000D01*
X91854000Y-92988000D01*
X91841000Y-92943000D01*
X91830000Y-92897000D01*
X91821000Y-92851000D01*
X91815000Y-92804000D01*
X91811000Y-92757000D01*
X91810000Y-92710000D01*
X91811000Y-92663000D01*
X91815000Y-92616000D01*
X91821000Y-92569000D01*
X91830000Y-92523000D01*
X91841000Y-92477000D01*
X91854000Y-92432000D01*
X91870000Y-92387000D01*
X91888000Y-92344000D01*
X91908000Y-92301000D01*
X91931000Y-92260000D01*
X91955000Y-92220000D01*
X91982000Y-92181000D01*
X92011000Y-92144000D01*
X92041000Y-92108000D01*
X92074000Y-92074000D01*
X92108000Y-92041000D01*
X92144000Y-92011000D01*
X92181000Y-91982000D01*
X92220000Y-91955000D01*
X92260000Y-91931000D01*
X92301000Y-91908000D01*
X92344000Y-91888000D01*
X92387000Y-91870000D01*
X92432000Y-91854000D01*
X92477000Y-91841000D01*
X92523000Y-91830000D01*
X92569000Y-91821000D01*
X92616000Y-91815000D01*
X92663000Y-91811000D01*
X92710000Y-91810000D01*
X95210000Y-91810000D01*
X95210000Y-93610000D01*
G37*
X95210000Y-96150000D02*
X92710000Y-96150000D01*
X92663000Y-96149000D01*
X92616000Y-96145000D01*
X92569000Y-96139000D01*
X92523000Y-96130000D01*
X92477000Y-96119000D01*
X92432000Y-96106000D01*
X92387000Y-96090000D01*
X92344000Y-96072000D01*
X92301000Y-96052000D01*
X92260000Y-96029000D01*
X92220000Y-96005000D01*
X92181000Y-95978000D01*
X92144000Y-95949000D01*
X92108000Y-95919000D01*
X92074000Y-95886000D01*
X92041000Y-95852000D01*
X92011000Y-95816000D01*
X91982000Y-95779000D01*
X91955000Y-95740000D01*
X91931000Y-95700000D01*
X91908000Y-95659000D01*
X91888000Y-95616000D01*
X91870000Y-95573000D01*
X91854000Y-95528000D01*
X91841000Y-95483000D01*
X91830000Y-95437000D01*
X91821000Y-95391000D01*
X91815000Y-95344000D01*
X91811000Y-95297000D01*
X91810000Y-95250000D01*
X91811000Y-95203000D01*
X91815000Y-95156000D01*
X91821000Y-95109000D01*
X91830000Y-95063000D01*
X91841000Y-95017000D01*
X91854000Y-94972000D01*
X91870000Y-94927000D01*
X91888000Y-94884000D01*
X91908000Y-94841000D01*
X91931000Y-94800000D01*
X91955000Y-94760000D01*
X91982000Y-94721000D01*
X92011000Y-94684000D01*
X92041000Y-94648000D01*
X92074000Y-94614000D01*
X92108000Y-94581000D01*
X92144000Y-94551000D01*
X92181000Y-94522000D01*
X92220000Y-94495000D01*
X92260000Y-94471000D01*
X92301000Y-94448000D01*
X92344000Y-94428000D01*
X92387000Y-94410000D01*
X92432000Y-94394000D01*
X92477000Y-94381000D01*
X92523000Y-94370000D01*
X92569000Y-94361000D01*
X92616000Y-94355000D01*
X92663000Y-94351000D01*
X92710000Y-94350000D01*
X95210000Y-94350000D01*
X95210000Y-96150000D01*
G36*
X95210000Y-96150000D02*
G01*
X92710000Y-96150000D01*
X92663000Y-96149000D01*
X92616000Y-96145000D01*
X92569000Y-96139000D01*
X92523000Y-96130000D01*
X92477000Y-96119000D01*
X92432000Y-96106000D01*
X92387000Y-96090000D01*
X92344000Y-96072000D01*
X92301000Y-96052000D01*
X92260000Y-96029000D01*
X92220000Y-96005000D01*
X92181000Y-95978000D01*
X92144000Y-95949000D01*
X92108000Y-95919000D01*
X92074000Y-95886000D01*
X92041000Y-95852000D01*
X92011000Y-95816000D01*
X91982000Y-95779000D01*
X91955000Y-95740000D01*
X91931000Y-95700000D01*
X91908000Y-95659000D01*
X91888000Y-95616000D01*
X91870000Y-95573000D01*
X91854000Y-95528000D01*
X91841000Y-95483000D01*
X91830000Y-95437000D01*
X91821000Y-95391000D01*
X91815000Y-95344000D01*
X91811000Y-95297000D01*
X91810000Y-95250000D01*
X91811000Y-95203000D01*
X91815000Y-95156000D01*
X91821000Y-95109000D01*
X91830000Y-95063000D01*
X91841000Y-95017000D01*
X91854000Y-94972000D01*
X91870000Y-94927000D01*
X91888000Y-94884000D01*
X91908000Y-94841000D01*
X91931000Y-94800000D01*
X91955000Y-94760000D01*
X91982000Y-94721000D01*
X92011000Y-94684000D01*
X92041000Y-94648000D01*
X92074000Y-94614000D01*
X92108000Y-94581000D01*
X92144000Y-94551000D01*
X92181000Y-94522000D01*
X92220000Y-94495000D01*
X92260000Y-94471000D01*
X92301000Y-94448000D01*
X92344000Y-94428000D01*
X92387000Y-94410000D01*
X92432000Y-94394000D01*
X92477000Y-94381000D01*
X92523000Y-94370000D01*
X92569000Y-94361000D01*
X92616000Y-94355000D01*
X92663000Y-94351000D01*
X92710000Y-94350000D01*
X95210000Y-94350000D01*
X95210000Y-96150000D01*
G37*
X75561000Y-51172000D02*
X75577000Y-51174000D01*
X75592000Y-51177000D01*
X75608000Y-51180000D01*
X75623000Y-51185000D01*
X75638000Y-51190000D01*
X75652000Y-51196000D01*
X75666000Y-51203000D01*
X75680000Y-51210000D01*
X75693000Y-51218000D01*
X75706000Y-51227000D01*
X75719000Y-51237000D01*
X75731000Y-51247000D01*
X75742000Y-51258000D01*
X75753000Y-51269000D01*
X75763000Y-51281000D01*
X75773000Y-51294000D01*
X75782000Y-51307000D01*
X75790000Y-51320000D01*
X75797000Y-51334000D01*
X75804000Y-51348000D01*
X75810000Y-51362000D01*
X75815000Y-51377000D01*
X75820000Y-51392000D01*
X75823000Y-51408000D01*
X75826000Y-51423000D01*
X75828000Y-51439000D01*
X75830000Y-51454000D01*
X75830000Y-51470000D01*
X75830000Y-52670000D01*
X75830000Y-52686000D01*
X75828000Y-52701000D01*
X75826000Y-52717000D01*
X75823000Y-52732000D01*
X75820000Y-52748000D01*
X75815000Y-52763000D01*
X75810000Y-52778000D01*
X75804000Y-52792000D01*
X75797000Y-52806000D01*
X75790000Y-52820000D01*
X75782000Y-52833000D01*
X75773000Y-52846000D01*
X75763000Y-52859000D01*
X75753000Y-52871000D01*
X75742000Y-52882000D01*
X75731000Y-52893000D01*
X75719000Y-52903000D01*
X75706000Y-52913000D01*
X75693000Y-52922000D01*
X75680000Y-52930000D01*
X75666000Y-52937000D01*
X75652000Y-52944000D01*
X75638000Y-52950000D01*
X75623000Y-52955000D01*
X75608000Y-52960000D01*
X75592000Y-52963000D01*
X75577000Y-52966000D01*
X75561000Y-52968000D01*
X75546000Y-52970000D01*
X75530000Y-52970000D01*
X72430000Y-52970000D01*
X72430000Y-51170000D01*
X75530000Y-51170000D01*
X75546000Y-51170000D01*
X75561000Y-51172000D01*
G36*
X75561000Y-51172000D02*
G01*
X75577000Y-51174000D01*
X75592000Y-51177000D01*
X75608000Y-51180000D01*
X75623000Y-51185000D01*
X75638000Y-51190000D01*
X75652000Y-51196000D01*
X75666000Y-51203000D01*
X75680000Y-51210000D01*
X75693000Y-51218000D01*
X75706000Y-51227000D01*
X75719000Y-51237000D01*
X75731000Y-51247000D01*
X75742000Y-51258000D01*
X75753000Y-51269000D01*
X75763000Y-51281000D01*
X75773000Y-51294000D01*
X75782000Y-51307000D01*
X75790000Y-51320000D01*
X75797000Y-51334000D01*
X75804000Y-51348000D01*
X75810000Y-51362000D01*
X75815000Y-51377000D01*
X75820000Y-51392000D01*
X75823000Y-51408000D01*
X75826000Y-51423000D01*
X75828000Y-51439000D01*
X75830000Y-51454000D01*
X75830000Y-51470000D01*
X75830000Y-52670000D01*
X75830000Y-52686000D01*
X75828000Y-52701000D01*
X75826000Y-52717000D01*
X75823000Y-52732000D01*
X75820000Y-52748000D01*
X75815000Y-52763000D01*
X75810000Y-52778000D01*
X75804000Y-52792000D01*
X75797000Y-52806000D01*
X75790000Y-52820000D01*
X75782000Y-52833000D01*
X75773000Y-52846000D01*
X75763000Y-52859000D01*
X75753000Y-52871000D01*
X75742000Y-52882000D01*
X75731000Y-52893000D01*
X75719000Y-52903000D01*
X75706000Y-52913000D01*
X75693000Y-52922000D01*
X75680000Y-52930000D01*
X75666000Y-52937000D01*
X75652000Y-52944000D01*
X75638000Y-52950000D01*
X75623000Y-52955000D01*
X75608000Y-52960000D01*
X75592000Y-52963000D01*
X75577000Y-52966000D01*
X75561000Y-52968000D01*
X75546000Y-52970000D01*
X75530000Y-52970000D01*
X72430000Y-52970000D01*
X72430000Y-51170000D01*
X75530000Y-51170000D01*
X75546000Y-51170000D01*
X75561000Y-51172000D01*
G37*
X75561000Y-63872000D02*
X75577000Y-63874000D01*
X75592000Y-63877000D01*
X75608000Y-63880000D01*
X75623000Y-63885000D01*
X75638000Y-63890000D01*
X75652000Y-63896000D01*
X75666000Y-63903000D01*
X75680000Y-63910000D01*
X75693000Y-63918000D01*
X75706000Y-63927000D01*
X75719000Y-63937000D01*
X75731000Y-63947000D01*
X75742000Y-63958000D01*
X75753000Y-63969000D01*
X75763000Y-63981000D01*
X75773000Y-63994000D01*
X75782000Y-64007000D01*
X75790000Y-64020000D01*
X75797000Y-64034000D01*
X75804000Y-64048000D01*
X75810000Y-64062000D01*
X75815000Y-64077000D01*
X75820000Y-64092000D01*
X75823000Y-64108000D01*
X75826000Y-64123000D01*
X75828000Y-64139000D01*
X75830000Y-64154000D01*
X75830000Y-64170000D01*
X75830000Y-65370000D01*
X75830000Y-65386000D01*
X75828000Y-65401000D01*
X75826000Y-65417000D01*
X75823000Y-65432000D01*
X75820000Y-65448000D01*
X75815000Y-65463000D01*
X75810000Y-65478000D01*
X75804000Y-65492000D01*
X75797000Y-65506000D01*
X75790000Y-65520000D01*
X75782000Y-65533000D01*
X75773000Y-65546000D01*
X75763000Y-65559000D01*
X75753000Y-65571000D01*
X75742000Y-65582000D01*
X75731000Y-65593000D01*
X75719000Y-65603000D01*
X75706000Y-65613000D01*
X75693000Y-65622000D01*
X75680000Y-65630000D01*
X75666000Y-65637000D01*
X75652000Y-65644000D01*
X75638000Y-65650000D01*
X75623000Y-65655000D01*
X75608000Y-65660000D01*
X75592000Y-65663000D01*
X75577000Y-65666000D01*
X75561000Y-65668000D01*
X75546000Y-65670000D01*
X75530000Y-65670000D01*
X72430000Y-65670000D01*
X72430000Y-63870000D01*
X75530000Y-63870000D01*
X75546000Y-63870000D01*
X75561000Y-63872000D01*
G36*
X75561000Y-63872000D02*
G01*
X75577000Y-63874000D01*
X75592000Y-63877000D01*
X75608000Y-63880000D01*
X75623000Y-63885000D01*
X75638000Y-63890000D01*
X75652000Y-63896000D01*
X75666000Y-63903000D01*
X75680000Y-63910000D01*
X75693000Y-63918000D01*
X75706000Y-63927000D01*
X75719000Y-63937000D01*
X75731000Y-63947000D01*
X75742000Y-63958000D01*
X75753000Y-63969000D01*
X75763000Y-63981000D01*
X75773000Y-63994000D01*
X75782000Y-64007000D01*
X75790000Y-64020000D01*
X75797000Y-64034000D01*
X75804000Y-64048000D01*
X75810000Y-64062000D01*
X75815000Y-64077000D01*
X75820000Y-64092000D01*
X75823000Y-64108000D01*
X75826000Y-64123000D01*
X75828000Y-64139000D01*
X75830000Y-64154000D01*
X75830000Y-64170000D01*
X75830000Y-65370000D01*
X75830000Y-65386000D01*
X75828000Y-65401000D01*
X75826000Y-65417000D01*
X75823000Y-65432000D01*
X75820000Y-65448000D01*
X75815000Y-65463000D01*
X75810000Y-65478000D01*
X75804000Y-65492000D01*
X75797000Y-65506000D01*
X75790000Y-65520000D01*
X75782000Y-65533000D01*
X75773000Y-65546000D01*
X75763000Y-65559000D01*
X75753000Y-65571000D01*
X75742000Y-65582000D01*
X75731000Y-65593000D01*
X75719000Y-65603000D01*
X75706000Y-65613000D01*
X75693000Y-65622000D01*
X75680000Y-65630000D01*
X75666000Y-65637000D01*
X75652000Y-65644000D01*
X75638000Y-65650000D01*
X75623000Y-65655000D01*
X75608000Y-65660000D01*
X75592000Y-65663000D01*
X75577000Y-65666000D01*
X75561000Y-65668000D01*
X75546000Y-65670000D01*
X75530000Y-65670000D01*
X72430000Y-65670000D01*
X72430000Y-63870000D01*
X75530000Y-63870000D01*
X75546000Y-63870000D01*
X75561000Y-63872000D01*
G37*
X75561000Y-76572000D02*
X75577000Y-76574000D01*
X75592000Y-76577000D01*
X75608000Y-76580000D01*
X75623000Y-76585000D01*
X75638000Y-76590000D01*
X75652000Y-76596000D01*
X75666000Y-76603000D01*
X75680000Y-76610000D01*
X75693000Y-76618000D01*
X75706000Y-76627000D01*
X75719000Y-76637000D01*
X75731000Y-76647000D01*
X75742000Y-76658000D01*
X75753000Y-76669000D01*
X75763000Y-76681000D01*
X75773000Y-76694000D01*
X75782000Y-76707000D01*
X75790000Y-76720000D01*
X75797000Y-76734000D01*
X75804000Y-76748000D01*
X75810000Y-76762000D01*
X75815000Y-76777000D01*
X75820000Y-76792000D01*
X75823000Y-76808000D01*
X75826000Y-76823000D01*
X75828000Y-76839000D01*
X75830000Y-76854000D01*
X75830000Y-76870000D01*
X75830000Y-78070000D01*
X75830000Y-78086000D01*
X75828000Y-78101000D01*
X75826000Y-78117000D01*
X75823000Y-78132000D01*
X75820000Y-78148000D01*
X75815000Y-78163000D01*
X75810000Y-78178000D01*
X75804000Y-78192000D01*
X75797000Y-78206000D01*
X75790000Y-78220000D01*
X75782000Y-78233000D01*
X75773000Y-78246000D01*
X75763000Y-78259000D01*
X75753000Y-78271000D01*
X75742000Y-78282000D01*
X75731000Y-78293000D01*
X75719000Y-78303000D01*
X75706000Y-78313000D01*
X75693000Y-78322000D01*
X75680000Y-78330000D01*
X75666000Y-78337000D01*
X75652000Y-78344000D01*
X75638000Y-78350000D01*
X75623000Y-78355000D01*
X75608000Y-78360000D01*
X75592000Y-78363000D01*
X75577000Y-78366000D01*
X75561000Y-78368000D01*
X75546000Y-78370000D01*
X75530000Y-78370000D01*
X72430000Y-78370000D01*
X72430000Y-76570000D01*
X75530000Y-76570000D01*
X75546000Y-76570000D01*
X75561000Y-76572000D01*
G36*
X75561000Y-76572000D02*
G01*
X75577000Y-76574000D01*
X75592000Y-76577000D01*
X75608000Y-76580000D01*
X75623000Y-76585000D01*
X75638000Y-76590000D01*
X75652000Y-76596000D01*
X75666000Y-76603000D01*
X75680000Y-76610000D01*
X75693000Y-76618000D01*
X75706000Y-76627000D01*
X75719000Y-76637000D01*
X75731000Y-76647000D01*
X75742000Y-76658000D01*
X75753000Y-76669000D01*
X75763000Y-76681000D01*
X75773000Y-76694000D01*
X75782000Y-76707000D01*
X75790000Y-76720000D01*
X75797000Y-76734000D01*
X75804000Y-76748000D01*
X75810000Y-76762000D01*
X75815000Y-76777000D01*
X75820000Y-76792000D01*
X75823000Y-76808000D01*
X75826000Y-76823000D01*
X75828000Y-76839000D01*
X75830000Y-76854000D01*
X75830000Y-76870000D01*
X75830000Y-78070000D01*
X75830000Y-78086000D01*
X75828000Y-78101000D01*
X75826000Y-78117000D01*
X75823000Y-78132000D01*
X75820000Y-78148000D01*
X75815000Y-78163000D01*
X75810000Y-78178000D01*
X75804000Y-78192000D01*
X75797000Y-78206000D01*
X75790000Y-78220000D01*
X75782000Y-78233000D01*
X75773000Y-78246000D01*
X75763000Y-78259000D01*
X75753000Y-78271000D01*
X75742000Y-78282000D01*
X75731000Y-78293000D01*
X75719000Y-78303000D01*
X75706000Y-78313000D01*
X75693000Y-78322000D01*
X75680000Y-78330000D01*
X75666000Y-78337000D01*
X75652000Y-78344000D01*
X75638000Y-78350000D01*
X75623000Y-78355000D01*
X75608000Y-78360000D01*
X75592000Y-78363000D01*
X75577000Y-78366000D01*
X75561000Y-78368000D01*
X75546000Y-78370000D01*
X75530000Y-78370000D01*
X72430000Y-78370000D01*
X72430000Y-76570000D01*
X75530000Y-76570000D01*
X75546000Y-76570000D01*
X75561000Y-76572000D01*
G37*
X75561000Y-89272000D02*
X75577000Y-89274000D01*
X75592000Y-89277000D01*
X75608000Y-89280000D01*
X75623000Y-89285000D01*
X75638000Y-89290000D01*
X75652000Y-89296000D01*
X75666000Y-89303000D01*
X75680000Y-89310000D01*
X75693000Y-89318000D01*
X75706000Y-89327000D01*
X75719000Y-89337000D01*
X75731000Y-89347000D01*
X75742000Y-89358000D01*
X75753000Y-89369000D01*
X75763000Y-89381000D01*
X75773000Y-89394000D01*
X75782000Y-89407000D01*
X75790000Y-89420000D01*
X75797000Y-89434000D01*
X75804000Y-89448000D01*
X75810000Y-89462000D01*
X75815000Y-89477000D01*
X75820000Y-89492000D01*
X75823000Y-89508000D01*
X75826000Y-89523000D01*
X75828000Y-89539000D01*
X75830000Y-89554000D01*
X75830000Y-89570000D01*
X75830000Y-90770000D01*
X75830000Y-90786000D01*
X75828000Y-90801000D01*
X75826000Y-90817000D01*
X75823000Y-90832000D01*
X75820000Y-90848000D01*
X75815000Y-90863000D01*
X75810000Y-90878000D01*
X75804000Y-90892000D01*
X75797000Y-90906000D01*
X75790000Y-90920000D01*
X75782000Y-90933000D01*
X75773000Y-90946000D01*
X75763000Y-90959000D01*
X75753000Y-90971000D01*
X75742000Y-90982000D01*
X75731000Y-90993000D01*
X75719000Y-91003000D01*
X75706000Y-91013000D01*
X75693000Y-91022000D01*
X75680000Y-91030000D01*
X75666000Y-91037000D01*
X75652000Y-91044000D01*
X75638000Y-91050000D01*
X75623000Y-91055000D01*
X75608000Y-91060000D01*
X75592000Y-91063000D01*
X75577000Y-91066000D01*
X75561000Y-91068000D01*
X75546000Y-91070000D01*
X75530000Y-91070000D01*
X72430000Y-91070000D01*
X72430000Y-89270000D01*
X75530000Y-89270000D01*
X75546000Y-89270000D01*
X75561000Y-89272000D01*
G36*
X75561000Y-89272000D02*
G01*
X75577000Y-89274000D01*
X75592000Y-89277000D01*
X75608000Y-89280000D01*
X75623000Y-89285000D01*
X75638000Y-89290000D01*
X75652000Y-89296000D01*
X75666000Y-89303000D01*
X75680000Y-89310000D01*
X75693000Y-89318000D01*
X75706000Y-89327000D01*
X75719000Y-89337000D01*
X75731000Y-89347000D01*
X75742000Y-89358000D01*
X75753000Y-89369000D01*
X75763000Y-89381000D01*
X75773000Y-89394000D01*
X75782000Y-89407000D01*
X75790000Y-89420000D01*
X75797000Y-89434000D01*
X75804000Y-89448000D01*
X75810000Y-89462000D01*
X75815000Y-89477000D01*
X75820000Y-89492000D01*
X75823000Y-89508000D01*
X75826000Y-89523000D01*
X75828000Y-89539000D01*
X75830000Y-89554000D01*
X75830000Y-89570000D01*
X75830000Y-90770000D01*
X75830000Y-90786000D01*
X75828000Y-90801000D01*
X75826000Y-90817000D01*
X75823000Y-90832000D01*
X75820000Y-90848000D01*
X75815000Y-90863000D01*
X75810000Y-90878000D01*
X75804000Y-90892000D01*
X75797000Y-90906000D01*
X75790000Y-90920000D01*
X75782000Y-90933000D01*
X75773000Y-90946000D01*
X75763000Y-90959000D01*
X75753000Y-90971000D01*
X75742000Y-90982000D01*
X75731000Y-90993000D01*
X75719000Y-91003000D01*
X75706000Y-91013000D01*
X75693000Y-91022000D01*
X75680000Y-91030000D01*
X75666000Y-91037000D01*
X75652000Y-91044000D01*
X75638000Y-91050000D01*
X75623000Y-91055000D01*
X75608000Y-91060000D01*
X75592000Y-91063000D01*
X75577000Y-91066000D01*
X75561000Y-91068000D01*
X75546000Y-91070000D01*
X75530000Y-91070000D01*
X72430000Y-91070000D01*
X72430000Y-89270000D01*
X75530000Y-89270000D01*
X75546000Y-89270000D01*
X75561000Y-89272000D01*
G37*
X95210000Y-52970000D02*
X92110000Y-52970000D01*
X92094000Y-52970000D01*
X92079000Y-52968000D01*
X92063000Y-52966000D01*
X92048000Y-52963000D01*
X92032000Y-52960000D01*
X92017000Y-52955000D01*
X92002000Y-52950000D01*
X91988000Y-52944000D01*
X91974000Y-52937000D01*
X91960000Y-52930000D01*
X91947000Y-52922000D01*
X91934000Y-52913000D01*
X91921000Y-52903000D01*
X91909000Y-52893000D01*
X91898000Y-52882000D01*
X91887000Y-52871000D01*
X91877000Y-52859000D01*
X91867000Y-52846000D01*
X91858000Y-52833000D01*
X91850000Y-52820000D01*
X91843000Y-52806000D01*
X91836000Y-52792000D01*
X91830000Y-52778000D01*
X91825000Y-52763000D01*
X91820000Y-52748000D01*
X91817000Y-52732000D01*
X91814000Y-52717000D01*
X91812000Y-52701000D01*
X91810000Y-52686000D01*
X91810000Y-52670000D01*
X91810000Y-51470000D01*
X91810000Y-51454000D01*
X91812000Y-51439000D01*
X91814000Y-51423000D01*
X91817000Y-51408000D01*
X91820000Y-51392000D01*
X91825000Y-51377000D01*
X91830000Y-51362000D01*
X91836000Y-51348000D01*
X91843000Y-51334000D01*
X91850000Y-51320000D01*
X91858000Y-51307000D01*
X91867000Y-51294000D01*
X91877000Y-51281000D01*
X91887000Y-51269000D01*
X91898000Y-51258000D01*
X91909000Y-51247000D01*
X91921000Y-51237000D01*
X91934000Y-51227000D01*
X91947000Y-51218000D01*
X91960000Y-51210000D01*
X91974000Y-51203000D01*
X91988000Y-51196000D01*
X92002000Y-51190000D01*
X92017000Y-51185000D01*
X92032000Y-51180000D01*
X92048000Y-51177000D01*
X92063000Y-51174000D01*
X92079000Y-51172000D01*
X92094000Y-51170000D01*
X92110000Y-51170000D01*
X95210000Y-51170000D01*
X95210000Y-52970000D01*
G36*
X95210000Y-52970000D02*
G01*
X92110000Y-52970000D01*
X92094000Y-52970000D01*
X92079000Y-52968000D01*
X92063000Y-52966000D01*
X92048000Y-52963000D01*
X92032000Y-52960000D01*
X92017000Y-52955000D01*
X92002000Y-52950000D01*
X91988000Y-52944000D01*
X91974000Y-52937000D01*
X91960000Y-52930000D01*
X91947000Y-52922000D01*
X91934000Y-52913000D01*
X91921000Y-52903000D01*
X91909000Y-52893000D01*
X91898000Y-52882000D01*
X91887000Y-52871000D01*
X91877000Y-52859000D01*
X91867000Y-52846000D01*
X91858000Y-52833000D01*
X91850000Y-52820000D01*
X91843000Y-52806000D01*
X91836000Y-52792000D01*
X91830000Y-52778000D01*
X91825000Y-52763000D01*
X91820000Y-52748000D01*
X91817000Y-52732000D01*
X91814000Y-52717000D01*
X91812000Y-52701000D01*
X91810000Y-52686000D01*
X91810000Y-52670000D01*
X91810000Y-51470000D01*
X91810000Y-51454000D01*
X91812000Y-51439000D01*
X91814000Y-51423000D01*
X91817000Y-51408000D01*
X91820000Y-51392000D01*
X91825000Y-51377000D01*
X91830000Y-51362000D01*
X91836000Y-51348000D01*
X91843000Y-51334000D01*
X91850000Y-51320000D01*
X91858000Y-51307000D01*
X91867000Y-51294000D01*
X91877000Y-51281000D01*
X91887000Y-51269000D01*
X91898000Y-51258000D01*
X91909000Y-51247000D01*
X91921000Y-51237000D01*
X91934000Y-51227000D01*
X91947000Y-51218000D01*
X91960000Y-51210000D01*
X91974000Y-51203000D01*
X91988000Y-51196000D01*
X92002000Y-51190000D01*
X92017000Y-51185000D01*
X92032000Y-51180000D01*
X92048000Y-51177000D01*
X92063000Y-51174000D01*
X92079000Y-51172000D01*
X92094000Y-51170000D01*
X92110000Y-51170000D01*
X95210000Y-51170000D01*
X95210000Y-52970000D01*
G37*
X95210000Y-65670000D02*
X92110000Y-65670000D01*
X92094000Y-65670000D01*
X92079000Y-65668000D01*
X92063000Y-65666000D01*
X92048000Y-65663000D01*
X92032000Y-65660000D01*
X92017000Y-65655000D01*
X92002000Y-65650000D01*
X91988000Y-65644000D01*
X91974000Y-65637000D01*
X91960000Y-65630000D01*
X91947000Y-65622000D01*
X91934000Y-65613000D01*
X91921000Y-65603000D01*
X91909000Y-65593000D01*
X91898000Y-65582000D01*
X91887000Y-65571000D01*
X91877000Y-65559000D01*
X91867000Y-65546000D01*
X91858000Y-65533000D01*
X91850000Y-65520000D01*
X91843000Y-65506000D01*
X91836000Y-65492000D01*
X91830000Y-65478000D01*
X91825000Y-65463000D01*
X91820000Y-65448000D01*
X91817000Y-65432000D01*
X91814000Y-65417000D01*
X91812000Y-65401000D01*
X91810000Y-65386000D01*
X91810000Y-65370000D01*
X91810000Y-64170000D01*
X91810000Y-64154000D01*
X91812000Y-64139000D01*
X91814000Y-64123000D01*
X91817000Y-64108000D01*
X91820000Y-64092000D01*
X91825000Y-64077000D01*
X91830000Y-64062000D01*
X91836000Y-64048000D01*
X91843000Y-64034000D01*
X91850000Y-64020000D01*
X91858000Y-64007000D01*
X91867000Y-63994000D01*
X91877000Y-63981000D01*
X91887000Y-63969000D01*
X91898000Y-63958000D01*
X91909000Y-63947000D01*
X91921000Y-63937000D01*
X91934000Y-63927000D01*
X91947000Y-63918000D01*
X91960000Y-63910000D01*
X91974000Y-63903000D01*
X91988000Y-63896000D01*
X92002000Y-63890000D01*
X92017000Y-63885000D01*
X92032000Y-63880000D01*
X92048000Y-63877000D01*
X92063000Y-63874000D01*
X92079000Y-63872000D01*
X92094000Y-63870000D01*
X92110000Y-63870000D01*
X95210000Y-63870000D01*
X95210000Y-65670000D01*
G36*
X95210000Y-65670000D02*
G01*
X92110000Y-65670000D01*
X92094000Y-65670000D01*
X92079000Y-65668000D01*
X92063000Y-65666000D01*
X92048000Y-65663000D01*
X92032000Y-65660000D01*
X92017000Y-65655000D01*
X92002000Y-65650000D01*
X91988000Y-65644000D01*
X91974000Y-65637000D01*
X91960000Y-65630000D01*
X91947000Y-65622000D01*
X91934000Y-65613000D01*
X91921000Y-65603000D01*
X91909000Y-65593000D01*
X91898000Y-65582000D01*
X91887000Y-65571000D01*
X91877000Y-65559000D01*
X91867000Y-65546000D01*
X91858000Y-65533000D01*
X91850000Y-65520000D01*
X91843000Y-65506000D01*
X91836000Y-65492000D01*
X91830000Y-65478000D01*
X91825000Y-65463000D01*
X91820000Y-65448000D01*
X91817000Y-65432000D01*
X91814000Y-65417000D01*
X91812000Y-65401000D01*
X91810000Y-65386000D01*
X91810000Y-65370000D01*
X91810000Y-64170000D01*
X91810000Y-64154000D01*
X91812000Y-64139000D01*
X91814000Y-64123000D01*
X91817000Y-64108000D01*
X91820000Y-64092000D01*
X91825000Y-64077000D01*
X91830000Y-64062000D01*
X91836000Y-64048000D01*
X91843000Y-64034000D01*
X91850000Y-64020000D01*
X91858000Y-64007000D01*
X91867000Y-63994000D01*
X91877000Y-63981000D01*
X91887000Y-63969000D01*
X91898000Y-63958000D01*
X91909000Y-63947000D01*
X91921000Y-63937000D01*
X91934000Y-63927000D01*
X91947000Y-63918000D01*
X91960000Y-63910000D01*
X91974000Y-63903000D01*
X91988000Y-63896000D01*
X92002000Y-63890000D01*
X92017000Y-63885000D01*
X92032000Y-63880000D01*
X92048000Y-63877000D01*
X92063000Y-63874000D01*
X92079000Y-63872000D01*
X92094000Y-63870000D01*
X92110000Y-63870000D01*
X95210000Y-63870000D01*
X95210000Y-65670000D01*
G37*
X95210000Y-78370000D02*
X92110000Y-78370000D01*
X92094000Y-78370000D01*
X92079000Y-78368000D01*
X92063000Y-78366000D01*
X92048000Y-78363000D01*
X92032000Y-78360000D01*
X92017000Y-78355000D01*
X92002000Y-78350000D01*
X91988000Y-78344000D01*
X91974000Y-78337000D01*
X91960000Y-78330000D01*
X91947000Y-78322000D01*
X91934000Y-78313000D01*
X91921000Y-78303000D01*
X91909000Y-78293000D01*
X91898000Y-78282000D01*
X91887000Y-78271000D01*
X91877000Y-78259000D01*
X91867000Y-78246000D01*
X91858000Y-78233000D01*
X91850000Y-78220000D01*
X91843000Y-78206000D01*
X91836000Y-78192000D01*
X91830000Y-78178000D01*
X91825000Y-78163000D01*
X91820000Y-78148000D01*
X91817000Y-78132000D01*
X91814000Y-78117000D01*
X91812000Y-78101000D01*
X91810000Y-78086000D01*
X91810000Y-78070000D01*
X91810000Y-76870000D01*
X91810000Y-76854000D01*
X91812000Y-76839000D01*
X91814000Y-76823000D01*
X91817000Y-76808000D01*
X91820000Y-76792000D01*
X91825000Y-76777000D01*
X91830000Y-76762000D01*
X91836000Y-76748000D01*
X91843000Y-76734000D01*
X91850000Y-76720000D01*
X91858000Y-76707000D01*
X91867000Y-76694000D01*
X91877000Y-76681000D01*
X91887000Y-76669000D01*
X91898000Y-76658000D01*
X91909000Y-76647000D01*
X91921000Y-76637000D01*
X91934000Y-76627000D01*
X91947000Y-76618000D01*
X91960000Y-76610000D01*
X91974000Y-76603000D01*
X91988000Y-76596000D01*
X92002000Y-76590000D01*
X92017000Y-76585000D01*
X92032000Y-76580000D01*
X92048000Y-76577000D01*
X92063000Y-76574000D01*
X92079000Y-76572000D01*
X92094000Y-76570000D01*
X92110000Y-76570000D01*
X95210000Y-76570000D01*
X95210000Y-78370000D01*
G36*
X95210000Y-78370000D02*
G01*
X92110000Y-78370000D01*
X92094000Y-78370000D01*
X92079000Y-78368000D01*
X92063000Y-78366000D01*
X92048000Y-78363000D01*
X92032000Y-78360000D01*
X92017000Y-78355000D01*
X92002000Y-78350000D01*
X91988000Y-78344000D01*
X91974000Y-78337000D01*
X91960000Y-78330000D01*
X91947000Y-78322000D01*
X91934000Y-78313000D01*
X91921000Y-78303000D01*
X91909000Y-78293000D01*
X91898000Y-78282000D01*
X91887000Y-78271000D01*
X91877000Y-78259000D01*
X91867000Y-78246000D01*
X91858000Y-78233000D01*
X91850000Y-78220000D01*
X91843000Y-78206000D01*
X91836000Y-78192000D01*
X91830000Y-78178000D01*
X91825000Y-78163000D01*
X91820000Y-78148000D01*
X91817000Y-78132000D01*
X91814000Y-78117000D01*
X91812000Y-78101000D01*
X91810000Y-78086000D01*
X91810000Y-78070000D01*
X91810000Y-76870000D01*
X91810000Y-76854000D01*
X91812000Y-76839000D01*
X91814000Y-76823000D01*
X91817000Y-76808000D01*
X91820000Y-76792000D01*
X91825000Y-76777000D01*
X91830000Y-76762000D01*
X91836000Y-76748000D01*
X91843000Y-76734000D01*
X91850000Y-76720000D01*
X91858000Y-76707000D01*
X91867000Y-76694000D01*
X91877000Y-76681000D01*
X91887000Y-76669000D01*
X91898000Y-76658000D01*
X91909000Y-76647000D01*
X91921000Y-76637000D01*
X91934000Y-76627000D01*
X91947000Y-76618000D01*
X91960000Y-76610000D01*
X91974000Y-76603000D01*
X91988000Y-76596000D01*
X92002000Y-76590000D01*
X92017000Y-76585000D01*
X92032000Y-76580000D01*
X92048000Y-76577000D01*
X92063000Y-76574000D01*
X92079000Y-76572000D01*
X92094000Y-76570000D01*
X92110000Y-76570000D01*
X95210000Y-76570000D01*
X95210000Y-78370000D01*
G37*
X95210000Y-91070000D02*
X92110000Y-91070000D01*
X92094000Y-91070000D01*
X92079000Y-91068000D01*
X92063000Y-91066000D01*
X92048000Y-91063000D01*
X92032000Y-91060000D01*
X92017000Y-91055000D01*
X92002000Y-91050000D01*
X91988000Y-91044000D01*
X91974000Y-91037000D01*
X91960000Y-91030000D01*
X91947000Y-91022000D01*
X91934000Y-91013000D01*
X91921000Y-91003000D01*
X91909000Y-90993000D01*
X91898000Y-90982000D01*
X91887000Y-90971000D01*
X91877000Y-90959000D01*
X91867000Y-90946000D01*
X91858000Y-90933000D01*
X91850000Y-90920000D01*
X91843000Y-90906000D01*
X91836000Y-90892000D01*
X91830000Y-90878000D01*
X91825000Y-90863000D01*
X91820000Y-90848000D01*
X91817000Y-90832000D01*
X91814000Y-90817000D01*
X91812000Y-90801000D01*
X91810000Y-90786000D01*
X91810000Y-90770000D01*
X91810000Y-89570000D01*
X91810000Y-89554000D01*
X91812000Y-89539000D01*
X91814000Y-89523000D01*
X91817000Y-89508000D01*
X91820000Y-89492000D01*
X91825000Y-89477000D01*
X91830000Y-89462000D01*
X91836000Y-89448000D01*
X91843000Y-89434000D01*
X91850000Y-89420000D01*
X91858000Y-89407000D01*
X91867000Y-89394000D01*
X91877000Y-89381000D01*
X91887000Y-89369000D01*
X91898000Y-89358000D01*
X91909000Y-89347000D01*
X91921000Y-89337000D01*
X91934000Y-89327000D01*
X91947000Y-89318000D01*
X91960000Y-89310000D01*
X91974000Y-89303000D01*
X91988000Y-89296000D01*
X92002000Y-89290000D01*
X92017000Y-89285000D01*
X92032000Y-89280000D01*
X92048000Y-89277000D01*
X92063000Y-89274000D01*
X92079000Y-89272000D01*
X92094000Y-89270000D01*
X92110000Y-89270000D01*
X95210000Y-89270000D01*
X95210000Y-91070000D01*
G36*
X95210000Y-91070000D02*
G01*
X92110000Y-91070000D01*
X92094000Y-91070000D01*
X92079000Y-91068000D01*
X92063000Y-91066000D01*
X92048000Y-91063000D01*
X92032000Y-91060000D01*
X92017000Y-91055000D01*
X92002000Y-91050000D01*
X91988000Y-91044000D01*
X91974000Y-91037000D01*
X91960000Y-91030000D01*
X91947000Y-91022000D01*
X91934000Y-91013000D01*
X91921000Y-91003000D01*
X91909000Y-90993000D01*
X91898000Y-90982000D01*
X91887000Y-90971000D01*
X91877000Y-90959000D01*
X91867000Y-90946000D01*
X91858000Y-90933000D01*
X91850000Y-90920000D01*
X91843000Y-90906000D01*
X91836000Y-90892000D01*
X91830000Y-90878000D01*
X91825000Y-90863000D01*
X91820000Y-90848000D01*
X91817000Y-90832000D01*
X91814000Y-90817000D01*
X91812000Y-90801000D01*
X91810000Y-90786000D01*
X91810000Y-90770000D01*
X91810000Y-89570000D01*
X91810000Y-89554000D01*
X91812000Y-89539000D01*
X91814000Y-89523000D01*
X91817000Y-89508000D01*
X91820000Y-89492000D01*
X91825000Y-89477000D01*
X91830000Y-89462000D01*
X91836000Y-89448000D01*
X91843000Y-89434000D01*
X91850000Y-89420000D01*
X91858000Y-89407000D01*
X91867000Y-89394000D01*
X91877000Y-89381000D01*
X91887000Y-89369000D01*
X91898000Y-89358000D01*
X91909000Y-89347000D01*
X91921000Y-89337000D01*
X91934000Y-89327000D01*
X91947000Y-89318000D01*
X91960000Y-89310000D01*
X91974000Y-89303000D01*
X91988000Y-89296000D01*
X92002000Y-89290000D01*
X92017000Y-89285000D01*
X92032000Y-89280000D01*
X92048000Y-89277000D01*
X92063000Y-89274000D01*
X92079000Y-89272000D01*
X92094000Y-89270000D01*
X92110000Y-89270000D01*
X95210000Y-89270000D01*
X95210000Y-91070000D01*
G37*
%TD*%
D11*
%TO.C,R14*%
X99365000Y-82550000D03*
X97790000Y-82550000D03*
%TD*%
D12*
%TO.C,R8*%
X79383839Y-153702392D03*
X79383839Y-155277392D03*
%TD*%
%TO.C,C9*%
X103174800Y-73634500D03*
X103174800Y-75209500D03*
%TD*%
D13*
%TO.C,J5*%
X71425000Y-98657000D03*
X71425000Y-104257000D03*
D14*
X67550000Y-102957000D03*
X67550000Y-101957000D03*
X67550000Y-100957000D03*
X67550000Y-99957000D03*
%TD*%
D15*
%TO.C,J3*%
X64735000Y-132477000D03*
X64735000Y-130477000D03*
D16*
X70485000Y-134827000D03*
X70485000Y-128127000D03*
%TD*%
D17*
%TO.C,C1*%
X88996000Y-137539000D03*
X100996000Y-137539000D03*
%TD*%
D18*
%TO.C,R13*%
X94792900Y-39688700D03*
X96367900Y-39688700D03*
%TD*%
D19*
%TO.C,J1*%
X79502000Y-170472800D03*
X83538000Y-170472800D03*
D20*
X83538000Y-160772800D03*
D21*
X79502000Y-160772800D03*
%TD*%
D22*
%TO.C,C7*%
X88239600Y-106095900D03*
X88239600Y-104520900D03*
%TD*%
D23*
%TO.C,Q1*%
X77658000Y-153702000D03*
X75758000Y-153702000D03*
X76708000Y-155702000D03*
%TD*%
D24*
%TO.C,R1*%
X84328000Y-142887700D03*
X84328000Y-137528300D03*
%TD*%
D25*
%TO.C,D5*%
X97180400Y-32641200D03*
X93980400Y-32641200D03*
X93980400Y-37541200D03*
X97180400Y-37541200D03*
%TD*%
D18*
%TO.C,C10*%
X99845900Y-71526400D03*
X101420900Y-71526400D03*
%TD*%
D26*
%TO.C,J4*%
X64718000Y-114617000D03*
X64718000Y-112617000D03*
X64718000Y-110617000D03*
X64718000Y-108617000D03*
D27*
X70468000Y-116967000D03*
X70468000Y-106267000D03*
%TD*%
D28*
%TO.C,U1*%
X68549500Y-153416000D03*
X68549500Y-150876000D03*
X68549500Y-148336000D03*
%TD*%
D29*
%TO.C,C5*%
X68023500Y-143256000D03*
X69898500Y-143256000D03*
%TD*%
D18*
%TO.C,C6*%
X92176500Y-115316000D03*
X93751500Y-115316000D03*
%TD*%
D30*
%TO.C,FID2*%
X63754000Y-163210000D03*
%TD*%
D12*
%TO.C,C3*%
X72636401Y-148399400D03*
X72636401Y-149974400D03*
%TD*%
D31*
%TO.C,C4*%
X69898500Y-137414000D03*
X68023500Y-137414000D03*
%TD*%
D19*
%TO.C,J6*%
X71247000Y-170472800D03*
X75283000Y-170472800D03*
D20*
X75283000Y-160772800D03*
D21*
X71247000Y-160772800D03*
%TD*%
D12*
%TO.C,C8*%
X91135200Y-35712400D03*
X91135200Y-37287400D03*
%TD*%
D32*
%TO.C,U4*%
X93355000Y-113026000D03*
X95255000Y-113026000D03*
X97155000Y-113026000D03*
X99055000Y-113026000D03*
X100955000Y-113026000D03*
D33*
X103755000Y-110226000D03*
X103755000Y-108326000D03*
X103755000Y-106426000D03*
X103755000Y-104526000D03*
X103755000Y-102626000D03*
D32*
X100955000Y-99826000D03*
X99055000Y-99826000D03*
X97155000Y-99826000D03*
X95255000Y-99826000D03*
X93355000Y-99826000D03*
D33*
X90555000Y-102626000D03*
X90555000Y-104526000D03*
X90555000Y-106426000D03*
X90555000Y-108326000D03*
X90555000Y-110226000D03*
%TD*%
D22*
%TO.C,R9*%
X85979000Y-126136500D03*
X85979000Y-124561500D03*
%TD*%
%TO.C,R10*%
X85979000Y-129184500D03*
X85979000Y-127609500D03*
%TD*%
D34*
%TO.C,U2*%
X78932000Y-124968000D03*
X78932000Y-126238000D03*
X78932000Y-127508000D03*
X78932000Y-128778000D03*
X83882000Y-128778000D03*
X83882000Y-127508000D03*
X83882000Y-126238000D03*
X83882000Y-124968000D03*
%TD*%
D22*
%TO.C,R4*%
X76835000Y-126136500D03*
X76835000Y-124561500D03*
%TD*%
D35*
%TO.C,D4*%
X75108000Y-151491387D03*
D36*
X78299000Y-151491387D03*
%TD*%
D30*
%TO.C,FID1*%
X103632000Y-38608000D03*
%TD*%
D37*
%TO.C,BT1*%
X97155000Y-128824000D03*
D38*
X97155000Y-121374000D03*
D39*
X97155000Y-117124000D03*
X97155000Y-133524000D03*
%TD*%
D40*
%TO.C,H3*%
X66040000Y-168910000D03*
%TD*%
D41*
%TO.C,U6*%
X101833400Y-75369400D03*
X101033400Y-75369400D03*
X100233400Y-75369400D03*
X99433400Y-75369400D03*
X99433400Y-72969400D03*
X100233400Y-72969400D03*
X101033400Y-72969400D03*
X101833400Y-72969400D03*
%TD*%
D11*
%TO.C,R15*%
X99365000Y-80010000D03*
X97790000Y-80010000D03*
%TD*%
D42*
%TO.C,U5*%
X81095000Y-47120000D03*
X86545000Y-47120000D03*
D43*
X81395000Y-50150000D03*
X86245000Y-50150000D03*
D44*
X84404100Y-76820000D03*
D45*
X86944100Y-76820000D03*
X89484100Y-76820000D03*
D46*
X83820000Y-50120000D03*
X84820000Y-46820000D03*
X82820000Y-46820000D03*
X81320000Y-55120000D03*
X81320000Y-57620000D03*
X81320000Y-60120000D03*
%TD*%
D47*
%TO.C,D2*%
X73672700Y-138115800D03*
X77457300Y-138115800D03*
%TD*%
%TO.C,D3*%
X73672700Y-142621000D03*
X77457300Y-142621000D03*
%TD*%
D48*
%TO.C,C2*%
X72636401Y-153299400D03*
X72636401Y-151424400D03*
%TD*%
D40*
%TO.C,H4*%
X101600000Y-168910000D03*
%TD*%
%TO.C,H1*%
X66040000Y-34290000D03*
%TD*%
D49*
%TO.C,J7*%
X87529900Y-32400000D03*
X83465900Y-32400000D03*
X79429900Y-32400000D03*
D50*
X79429900Y-42100000D03*
D51*
X83465900Y-42100000D03*
X87529900Y-42100000D03*
%TD*%
D40*
%TO.C,H2*%
X101600000Y-34290000D03*
%TD*%
D52*
%TO.C,U3*%
X70061000Y-141285000D03*
X70061000Y-140335000D03*
X70061000Y-139385000D03*
X67861000Y-139385000D03*
X67861000Y-141285000D03*
%TD*%
D53*
%TO.C,D1*%
X80789000Y-142063100D03*
X80789000Y-138278500D03*
%TD*%
D22*
%TO.C,R5*%
X76835000Y-129184500D03*
X76835000Y-127609500D03*
%TD*%
D15*
%TO.C,J2*%
X64735000Y-123587000D03*
X64735000Y-121587000D03*
D16*
X70485000Y-125937000D03*
X70485000Y-119237000D03*
%TD*%
M02*
