M48
; DRILL file {KiCad 9.0.3} date 2025-12-17T10:26:58-0600
; FORMAT={-:-/ absolute / inch / decimal}
; #@! TF.CreationDate,2025-12-17T10:26:58-06:00
; #@! TF.GenerationSoftware,Kicad,Pcbnew,9.0.3
; #@! TF.FileFunction,Plated,1,2,PTH
FMAT,2
INCH
; #@! TA.AperFunction,Plated,PTH,ViaDrill
T1C0.0100
; #@! TA.AperFunction,Plated,PTH,ComponentDrill
T2C0.0276
; #@! TA.AperFunction,Plated,PTH,ComponentDrill
T3C0.0390
; #@! TA.AperFunction,Plated,PTH,ComponentDrill
T4C0.0394
; #@! TA.AperFunction,Plated,PTH,ComponentDrill
T5C0.0472
; #@! TA.AperFunction,Plated,PTH,ComponentDrill
T6C0.0600
%
G90
G05
T1
X4.56Y-1.965
X4.56Y-2.18
X4.56Y-2.55
X4.56Y-3.05
X4.5735Y-1.3165
X4.61Y-3.215
X4.6564Y-3.9154
X4.7Y-2.035
X4.7238Y-2.9006
X4.73Y-1.9
X4.74Y-1.45
X4.77Y-0.945
X4.775Y-1.185
X4.79Y-1.515
X4.885Y-1.32
X4.9Y-3.95
X4.9Y-4.15
X4.9Y-4.35
X4.9Y-4.55
X4.9Y-4.75
X4.9Y-5.15
X4.91Y-3.675
X4.94Y-0.945
X4.945Y-1.005
X4.97Y-1.5782
X5.015Y-2.765
X5.07Y-2.92
X5.095Y-1.01
X5.1Y-1.355
X5.1Y-3.95
X5.1Y-4.15
X5.1Y-4.35
X5.1Y-4.55
X5.1Y-4.75
X5.1Y-4.95
X5.1Y-5.15
X5.155Y-2.815
X5.19Y-2.545
X5.195Y-2.765
X5.195Y-2.86
X5.212Y-2.342
X5.245Y-1.0
X5.245Y-1.075
X5.245Y-3.22
X5.256Y-2.342
X5.3Y-2.81
X5.3Y-2.935
X5.3Y-3.95
X5.3Y-4.15
X5.3Y-4.95
X5.3Y-5.15
X5.335Y-2.545
X5.3376Y-1.85
X5.345Y-1.21
X5.345Y-2.85
X5.35Y-4.4
X5.35Y-4.475
X5.35Y-4.55
X5.35Y-4.625
X5.35Y-4.7
X5.355Y-1.41
X5.3555Y-1.8296
X5.3737Y-1.811
X5.3917Y-1.791
X5.4018Y-1.5602
X5.405Y-2.945
X5.4087Y-2.7389
X5.4098Y-1.7699
X5.4234Y-1.1105
X5.425Y-4.4
X5.425Y-4.475
X5.425Y-4.55
X5.425Y-4.625
X5.425Y-4.7
X5.4278Y-1.7483
X5.4458Y-1.7291
X5.45Y-1.465
X5.4678Y-1.5122
X5.4678Y-1.715
X5.4898Y-1.7314
X5.49Y-1.06
X5.5Y-4.4
X5.5Y-4.475
X5.5Y-4.55
X5.5Y-4.625
X5.5Y-4.7
X5.5Y-4.94
X5.5079Y-1.7515
X5.5118Y-1.17
X5.5259Y-1.7716
X5.5339Y-1.36
X5.544Y-1.7916
X5.5559Y-1.5822
X5.562Y-1.8117
X5.575Y-1.0382
X5.575Y-4.4
X5.575Y-4.475
X5.575Y-4.55
X5.575Y-4.625
X5.575Y-4.7
X5.58Y-1.985
X5.58Y-1.8307
X5.5859Y-2.9141
X5.5991Y-1.8484
X5.5999Y-1.16
X5.6043Y-2.9325
X5.62Y-2.165
X5.625Y-1.11
X5.6444Y-2.8537
X5.6453Y-2.8858
X5.65Y-2.23
X5.65Y-4.4
X5.65Y-4.475
X5.65Y-4.55
X5.65Y-4.625
X5.65Y-4.7
X5.66Y-2.095
X5.6972Y-1.725
X5.6975Y-1.3856
X5.7Y-3.95
X5.7Y-4.15
X5.7Y-4.95
X5.7Y-5.15
X5.705Y-2.0989
X5.71Y-2.835
X5.7152Y-1.7451
X5.72Y-1.015
X5.7335Y-1.7636
X5.7374Y-2.1287
X5.7415Y-1.36
X5.7521Y-1.7818
X5.7637Y-1.3105
X5.805Y-2.52
X5.81Y-2.995
X5.815Y-1.85
X5.82Y-2.18
X5.8275Y-2.48
X5.83Y-2.325
X5.882Y-1.85
X5.9Y-3.95
X5.9Y-4.15
X5.9Y-4.35
X5.9Y-4.55
X5.9Y-4.75
X5.9Y-4.95
X5.9Y-5.15
X5.98Y-2.495
X5.9929Y-1.7843
X6.1Y-3.95
X6.1Y-4.15
X6.1Y-4.35
X6.1Y-4.55
X6.1Y-4.75
X6.1Y-5.15
X6.18Y-1.24
X6.18Y-1.36
X6.18Y-2.445
X6.235Y-2.1809
X6.265Y-3.1083
X6.31Y-2.99
X6.375Y-1.335
X6.39Y-2.755
X6.445Y-1.64
T2
X6.34Y-2.542
X6.34Y-2.605
X6.34Y-2.668
X6.3794Y-2.5735
X6.3794Y-2.6365
T3
X4.655Y-3.585
X4.755Y-3.585
X4.855Y-3.585
T4
X5.28Y-1.9244
X5.28Y-2.0244
X5.28Y-2.1244
T5
X5.44Y-3.2038
X5.44Y-3.6762
T6
X4.8456Y-5.3259
X5.0044Y-5.3259
X5.9956Y-5.3259
X6.1544Y-5.3259
T2
G00X6.2908Y-2.5381
M15
G01X6.2908Y-2.483
M16
G05
G00X6.2908Y-2.7034
M15
G01X6.2908Y-2.6562
M16
G05
G00X6.4286Y-2.6286
M15
G01X6.4286Y-2.5814
M16
G05
M30
