%TF.GenerationSoftware,KiCad,Pcbnew,9.0.3*%
%TF.CreationDate,2025-12-17T10:26:56-06:00*%
%TF.ProjectId,Cutdown,43757464-6f77-46e2-9e6b-696361645f70,2.3.0*%
%TF.SameCoordinates,Original*%
%TF.FileFunction,Soldermask,Bot*%
%TF.FilePolarity,Negative*%
%FSLAX46Y46*%
G04 Gerber Fmt 4.6, Leading zero omitted, Abs format (unit mm)*
G04 Created by KiCad (PCBNEW 9.0.3) date 2025-12-17 10:26:56*
%MOMM*%
%LPD*%
G01*
G04 APERTURE LIST*
G04 Aperture macros list*
%AMRoundRect*
0 Rectangle with rounded corners*
0 $1 Rounding radius*
0 $2 $3 $4 $5 $6 $7 $8 $9 X,Y pos of 4 corners*
0 Add a 4 corners polygon primitive as box body*
4,1,4,$2,$3,$4,$5,$6,$7,$8,$9,$2,$3,0*
0 Add four circle primitives for the rounded corners*
1,1,$1+$1,$2,$3*
1,1,$1+$1,$4,$5*
1,1,$1+$1,$6,$7*
1,1,$1+$1,$8,$9*
0 Add four rect primitives between the rounded corners*
20,1,$1+$1,$2,$3,$4,$5,0*
20,1,$1+$1,$4,$5,$6,$7,0*
20,1,$1+$1,$6,$7,$8,$9,0*
20,1,$1+$1,$8,$9,$2,$3,0*%
G04 Aperture macros list end*
%ADD10C,0.010000*%
%ADD11C,2.200000*%
%ADD12C,3.302000*%
%ADD13RoundRect,0.302260X0.967740X0.967740X-0.967740X0.967740X-0.967740X-0.967740X0.967740X-0.967740X0*%
%ADD14C,2.540000*%
%ADD15C,1.498600*%
%ADD16C,3.810000*%
%ADD17C,1.204000*%
%ADD18O,0.939800X2.159000*%
%ADD19O,0.939800X2.413000*%
%ADD20C,1.300000*%
%ADD21C,1.050000*%
%ADD22R,2.300000X4.500000*%
%ADD23R,1.700000X1.700000*%
%ADD24C,1.700000*%
G04 APERTURE END LIST*
D10*
%TO.C,J7*%
X132086199Y-80300199D02*
X129833799Y-80300199D01*
X129833799Y-77147799D01*
X132086199Y-77147799D01*
X132086199Y-80300199D01*
G36*
X132086199Y-80300199D02*
G01*
X129833799Y-80300199D01*
X129833799Y-77147799D01*
X132086199Y-77147799D01*
X132086199Y-80300199D01*
G37*
X133986199Y-76700199D02*
X133033799Y-76700199D01*
X133033799Y-75247799D01*
X133986199Y-75247799D01*
X133986199Y-76700199D01*
G36*
X133986199Y-76700199D02*
G01*
X133033799Y-76700199D01*
X133033799Y-75247799D01*
X133986199Y-75247799D01*
X133986199Y-76700199D01*
G37*
X135236199Y-76700199D02*
X134283799Y-76700199D01*
X134283799Y-75247799D01*
X135236199Y-75247799D01*
X135236199Y-76700199D01*
G36*
X135236199Y-76700199D02*
G01*
X134283799Y-76700199D01*
X134283799Y-75247799D01*
X135236199Y-75247799D01*
X135236199Y-76700199D01*
G37*
X136486199Y-76700199D02*
X135533799Y-76700199D01*
X135533799Y-75247799D01*
X136486199Y-75247799D01*
X136486199Y-76700199D01*
G36*
X136486199Y-76700199D02*
G01*
X135533799Y-76700199D01*
X135533799Y-75247799D01*
X136486199Y-75247799D01*
X136486199Y-76700199D01*
G37*
X137736199Y-76700199D02*
X136783799Y-76700199D01*
X136783799Y-75247799D01*
X137736199Y-75247799D01*
X137736199Y-76700199D01*
G36*
X137736199Y-76700199D02*
G01*
X136783799Y-76700199D01*
X136783799Y-75247799D01*
X137736199Y-75247799D01*
X137736199Y-76700199D01*
G37*
X138986199Y-76700199D02*
X138033799Y-76700199D01*
X138033799Y-75247799D01*
X138986199Y-75247799D01*
X138986199Y-76700199D01*
G36*
X138986199Y-76700199D02*
G01*
X138033799Y-76700199D01*
X138033799Y-75247799D01*
X138986199Y-75247799D01*
X138986199Y-76700199D01*
G37*
X140236199Y-76700199D02*
X139283799Y-76700199D01*
X139283799Y-75247799D01*
X140236199Y-75247799D01*
X140236199Y-76700199D01*
G36*
X140236199Y-76700199D02*
G01*
X139283799Y-76700199D01*
X139283799Y-75247799D01*
X140236199Y-75247799D01*
X140236199Y-76700199D01*
G37*
X141486199Y-76700199D02*
X140533799Y-76700199D01*
X140533799Y-75247799D01*
X141486199Y-75247799D01*
X141486199Y-76700199D01*
G36*
X141486199Y-76700199D02*
G01*
X140533799Y-76700199D01*
X140533799Y-75247799D01*
X141486199Y-75247799D01*
X141486199Y-76700199D01*
G37*
X142736199Y-76700199D02*
X141783799Y-76700199D01*
X141783799Y-75247799D01*
X142736199Y-75247799D01*
X142736199Y-76700199D01*
G36*
X142736199Y-76700199D02*
G01*
X141783799Y-76700199D01*
X141783799Y-75247799D01*
X142736199Y-75247799D01*
X142736199Y-76700199D01*
G37*
X143986199Y-76700199D02*
X143033799Y-76700199D01*
X143033799Y-75247799D01*
X143986199Y-75247799D01*
X143986199Y-76700199D01*
G36*
X143986199Y-76700199D02*
G01*
X143033799Y-76700199D01*
X143033799Y-75247799D01*
X143986199Y-75247799D01*
X143986199Y-76700199D01*
G37*
X145236199Y-76700199D02*
X144283799Y-76700199D01*
X144283799Y-75247799D01*
X145236199Y-75247799D01*
X145236199Y-76700199D01*
G36*
X145236199Y-76700199D02*
G01*
X144283799Y-76700199D01*
X144283799Y-75247799D01*
X145236199Y-75247799D01*
X145236199Y-76700199D01*
G37*
X148436199Y-80300199D02*
X146183799Y-80300199D01*
X146183799Y-77147799D01*
X148436199Y-77147799D01*
X148436199Y-80300199D01*
G36*
X148436199Y-80300199D02*
G01*
X146183799Y-80300199D01*
X146183799Y-77147799D01*
X148436199Y-77147799D01*
X148436199Y-80300199D01*
G37*
%TD*%
D11*
%TO.C,C15*%
X138175999Y-93375999D03*
X138175999Y-81375999D03*
%TD*%
D12*
%TO.C,J10*%
X127113000Y-125577000D03*
X123077000Y-125577000D03*
D13*
X123077000Y-135277000D03*
D14*
X127113000Y-135277000D03*
%TD*%
D15*
%TO.C,U6*%
X123316999Y-91058999D03*
X120776999Y-91058999D03*
X118236999Y-91058999D03*
%TD*%
D12*
%TO.C,J9*%
X156323000Y-125577000D03*
X152287000Y-125577000D03*
D13*
X152287000Y-135277000D03*
D14*
X156323000Y-135277000D03*
%TD*%
D16*
%TO.C,H3*%
X118110000Y-133350000D03*
%TD*%
%TO.C,H4*%
X161290000Y-133350000D03*
%TD*%
%TO.C,H1*%
X118109999Y-26669999D03*
%TD*%
%TO.C,H2*%
X161289999Y-26669999D03*
%TD*%
D17*
%TO.C,J6*%
X161035999Y-67766999D03*
X162035999Y-66966999D03*
X161035999Y-66166999D03*
X162035999Y-65366999D03*
X161035999Y-64566999D03*
D18*
X159785999Y-68066999D03*
D19*
X159785999Y-63766999D03*
D18*
X163285999Y-66166999D03*
%TD*%
D20*
%TO.C,BT1*%
X156845000Y-91100999D03*
D21*
X156845000Y-83650999D03*
D22*
X156845000Y-95350999D03*
X156845000Y-78950999D03*
%TD*%
D23*
%TO.C,J3*%
X134111999Y-53959999D03*
D24*
X134111999Y-51419999D03*
X134111999Y-48879999D03*
%TD*%
M02*
