%TF.GenerationSoftware,KiCad,Pcbnew,8.0.1-rc1*%
%TF.CreationDate,2024-06-07T10:26:59-05:00*%
%TF.ProjectId,Cutdown,43757464-6f77-46e2-9e6b-696361645f70,2.0.0*%
%TF.SameCoordinates,Original*%
%TF.FileFunction,Legend,Bot*%
%TF.FilePolarity,Positive*%
%FSLAX46Y46*%
G04 Gerber Fmt 4.6, Leading zero omitted, Abs format (unit mm)*
G04 Created by KiCad (PCBNEW 8.0.1-rc1) date 2024-06-07 10:26:59*
%MOMM*%
%LPD*%
G01*
G04 APERTURE LIST*
%ADD10C,0.300000*%
%ADD11C,0.508000*%
G04 APERTURE END LIST*
D10*
X70589500Y-168216727D02*
X70529023Y-168035298D01*
X70529023Y-168035298D02*
X70529023Y-167732917D01*
X70529023Y-167732917D02*
X70589500Y-167611965D01*
X70589500Y-167611965D02*
X70649976Y-167551489D01*
X70649976Y-167551489D02*
X70770928Y-167491012D01*
X70770928Y-167491012D02*
X70891880Y-167491012D01*
X70891880Y-167491012D02*
X71012833Y-167551489D01*
X71012833Y-167551489D02*
X71073309Y-167611965D01*
X71073309Y-167611965D02*
X71133785Y-167732917D01*
X71133785Y-167732917D02*
X71194261Y-167974822D01*
X71194261Y-167974822D02*
X71254738Y-168095774D01*
X71254738Y-168095774D02*
X71315214Y-168156251D01*
X71315214Y-168156251D02*
X71436166Y-168216727D01*
X71436166Y-168216727D02*
X71557119Y-168216727D01*
X71557119Y-168216727D02*
X71678071Y-168156251D01*
X71678071Y-168156251D02*
X71738547Y-168095774D01*
X71738547Y-168095774D02*
X71799023Y-167974822D01*
X71799023Y-167974822D02*
X71799023Y-167672441D01*
X71799023Y-167672441D02*
X71738547Y-167491012D01*
X71375690Y-167067679D02*
X70529023Y-166825774D01*
X70529023Y-166825774D02*
X71133785Y-166583869D01*
X71133785Y-166583869D02*
X70529023Y-166341965D01*
X70529023Y-166341965D02*
X71375690Y-166100060D01*
X70529023Y-165616251D02*
X71375690Y-165616251D01*
X71799023Y-165616251D02*
X71738547Y-165676727D01*
X71738547Y-165676727D02*
X71678071Y-165616251D01*
X71678071Y-165616251D02*
X71738547Y-165555774D01*
X71738547Y-165555774D02*
X71799023Y-165616251D01*
X71799023Y-165616251D02*
X71678071Y-165616251D01*
X71375690Y-165192917D02*
X71375690Y-164709108D01*
X71799023Y-165011489D02*
X70710452Y-165011489D01*
X70710452Y-165011489D02*
X70589500Y-164951012D01*
X70589500Y-164951012D02*
X70529023Y-164830060D01*
X70529023Y-164830060D02*
X70529023Y-164709108D01*
X70589500Y-163741489D02*
X70529023Y-163862441D01*
X70529023Y-163862441D02*
X70529023Y-164104346D01*
X70529023Y-164104346D02*
X70589500Y-164225298D01*
X70589500Y-164225298D02*
X70649976Y-164285775D01*
X70649976Y-164285775D02*
X70770928Y-164346251D01*
X70770928Y-164346251D02*
X71133785Y-164346251D01*
X71133785Y-164346251D02*
X71254738Y-164285775D01*
X71254738Y-164285775D02*
X71315214Y-164225298D01*
X71315214Y-164225298D02*
X71375690Y-164104346D01*
X71375690Y-164104346D02*
X71375690Y-163862441D01*
X71375690Y-163862441D02*
X71315214Y-163741489D01*
X70529023Y-163197204D02*
X71799023Y-163197204D01*
X70529023Y-162652918D02*
X71194261Y-162652918D01*
X71194261Y-162652918D02*
X71315214Y-162713394D01*
X71315214Y-162713394D02*
X71375690Y-162834346D01*
X71375690Y-162834346D02*
X71375690Y-163015775D01*
X71375690Y-163015775D02*
X71315214Y-163136727D01*
X71315214Y-163136727D02*
X71254738Y-163197204D01*
X79394833Y-167394251D02*
X79394833Y-166426632D01*
X78911023Y-166910441D02*
X79878642Y-166910441D01*
X78911023Y-165761393D02*
X78911023Y-165519489D01*
X78911023Y-165519489D02*
X78971500Y-165398536D01*
X78971500Y-165398536D02*
X79031976Y-165338060D01*
X79031976Y-165338060D02*
X79213404Y-165217108D01*
X79213404Y-165217108D02*
X79455309Y-165156631D01*
X79455309Y-165156631D02*
X79939119Y-165156631D01*
X79939119Y-165156631D02*
X80060071Y-165217108D01*
X80060071Y-165217108D02*
X80120547Y-165277584D01*
X80120547Y-165277584D02*
X80181023Y-165398536D01*
X80181023Y-165398536D02*
X80181023Y-165640441D01*
X80181023Y-165640441D02*
X80120547Y-165761393D01*
X80120547Y-165761393D02*
X80060071Y-165821870D01*
X80060071Y-165821870D02*
X79939119Y-165882346D01*
X79939119Y-165882346D02*
X79636738Y-165882346D01*
X79636738Y-165882346D02*
X79515785Y-165821870D01*
X79515785Y-165821870D02*
X79455309Y-165761393D01*
X79455309Y-165761393D02*
X79394833Y-165640441D01*
X79394833Y-165640441D02*
X79394833Y-165398536D01*
X79394833Y-165398536D02*
X79455309Y-165277584D01*
X79455309Y-165277584D02*
X79515785Y-165217108D01*
X79515785Y-165217108D02*
X79636738Y-165156631D01*
X80181023Y-164793774D02*
X78911023Y-164370441D01*
X78911023Y-164370441D02*
X80181023Y-163947107D01*
X83095976Y-38398536D02*
X83035500Y-38459012D01*
X83035500Y-38459012D02*
X82975023Y-38640441D01*
X82975023Y-38640441D02*
X82975023Y-38761393D01*
X82975023Y-38761393D02*
X83035500Y-38942822D01*
X83035500Y-38942822D02*
X83156452Y-39063774D01*
X83156452Y-39063774D02*
X83277404Y-39124251D01*
X83277404Y-39124251D02*
X83519309Y-39184727D01*
X83519309Y-39184727D02*
X83700738Y-39184727D01*
X83700738Y-39184727D02*
X83942642Y-39124251D01*
X83942642Y-39124251D02*
X84063595Y-39063774D01*
X84063595Y-39063774D02*
X84184547Y-38942822D01*
X84184547Y-38942822D02*
X84245023Y-38761393D01*
X84245023Y-38761393D02*
X84245023Y-38640441D01*
X84245023Y-38640441D02*
X84184547Y-38459012D01*
X84184547Y-38459012D02*
X84124071Y-38398536D01*
X84245023Y-38035679D02*
X84245023Y-37309965D01*
X82975023Y-37672822D02*
X84245023Y-37672822D01*
X82975023Y-36160917D02*
X83579785Y-36584251D01*
X82975023Y-36886632D02*
X84245023Y-36886632D01*
X84245023Y-36886632D02*
X84245023Y-36402822D01*
X84245023Y-36402822D02*
X84184547Y-36281870D01*
X84184547Y-36281870D02*
X84124071Y-36221393D01*
X84124071Y-36221393D02*
X84003119Y-36160917D01*
X84003119Y-36160917D02*
X83821690Y-36160917D01*
X83821690Y-36160917D02*
X83700738Y-36221393D01*
X83700738Y-36221393D02*
X83640261Y-36281870D01*
X83640261Y-36281870D02*
X83579785Y-36402822D01*
X83579785Y-36402822D02*
X83579785Y-36886632D01*
X82975023Y-35011870D02*
X82975023Y-35616632D01*
X82975023Y-35616632D02*
X84245023Y-35616632D01*
X84184547Y-166729012D02*
X84245023Y-166849965D01*
X84245023Y-166849965D02*
X84245023Y-167031393D01*
X84245023Y-167031393D02*
X84184547Y-167212822D01*
X84184547Y-167212822D02*
X84063595Y-167333774D01*
X84063595Y-167333774D02*
X83942642Y-167394251D01*
X83942642Y-167394251D02*
X83700738Y-167454727D01*
X83700738Y-167454727D02*
X83519309Y-167454727D01*
X83519309Y-167454727D02*
X83277404Y-167394251D01*
X83277404Y-167394251D02*
X83156452Y-167333774D01*
X83156452Y-167333774D02*
X83035500Y-167212822D01*
X83035500Y-167212822D02*
X82975023Y-167031393D01*
X82975023Y-167031393D02*
X82975023Y-166910441D01*
X82975023Y-166910441D02*
X83035500Y-166729012D01*
X83035500Y-166729012D02*
X83095976Y-166668536D01*
X83095976Y-166668536D02*
X83519309Y-166668536D01*
X83519309Y-166668536D02*
X83519309Y-166910441D01*
X82975023Y-166124251D02*
X84245023Y-166124251D01*
X84245023Y-166124251D02*
X82975023Y-165398536D01*
X82975023Y-165398536D02*
X84245023Y-165398536D01*
X82975023Y-164793775D02*
X84245023Y-164793775D01*
X84245023Y-164793775D02*
X84245023Y-164491394D01*
X84245023Y-164491394D02*
X84184547Y-164309965D01*
X84184547Y-164309965D02*
X84063595Y-164189013D01*
X84063595Y-164189013D02*
X83942642Y-164128536D01*
X83942642Y-164128536D02*
X83700738Y-164068060D01*
X83700738Y-164068060D02*
X83519309Y-164068060D01*
X83519309Y-164068060D02*
X83277404Y-164128536D01*
X83277404Y-164128536D02*
X83156452Y-164189013D01*
X83156452Y-164189013D02*
X83035500Y-164309965D01*
X83035500Y-164309965D02*
X82975023Y-164491394D01*
X82975023Y-164491394D02*
X82975023Y-164793775D01*
X80120547Y-38205012D02*
X80181023Y-38325965D01*
X80181023Y-38325965D02*
X80181023Y-38507393D01*
X80181023Y-38507393D02*
X80120547Y-38688822D01*
X80120547Y-38688822D02*
X79999595Y-38809774D01*
X79999595Y-38809774D02*
X79878642Y-38870251D01*
X79878642Y-38870251D02*
X79636738Y-38930727D01*
X79636738Y-38930727D02*
X79455309Y-38930727D01*
X79455309Y-38930727D02*
X79213404Y-38870251D01*
X79213404Y-38870251D02*
X79092452Y-38809774D01*
X79092452Y-38809774D02*
X78971500Y-38688822D01*
X78971500Y-38688822D02*
X78911023Y-38507393D01*
X78911023Y-38507393D02*
X78911023Y-38386441D01*
X78911023Y-38386441D02*
X78971500Y-38205012D01*
X78971500Y-38205012D02*
X79031976Y-38144536D01*
X79031976Y-38144536D02*
X79455309Y-38144536D01*
X79455309Y-38144536D02*
X79455309Y-38386441D01*
X78911023Y-37600251D02*
X80181023Y-37600251D01*
X80181023Y-37600251D02*
X78911023Y-36874536D01*
X78911023Y-36874536D02*
X80181023Y-36874536D01*
X78911023Y-36269775D02*
X80181023Y-36269775D01*
X80181023Y-36269775D02*
X80181023Y-35967394D01*
X80181023Y-35967394D02*
X80120547Y-35785965D01*
X80120547Y-35785965D02*
X79999595Y-35665013D01*
X79999595Y-35665013D02*
X79878642Y-35604536D01*
X79878642Y-35604536D02*
X79636738Y-35544060D01*
X79636738Y-35544060D02*
X79455309Y-35544060D01*
X79455309Y-35544060D02*
X79213404Y-35604536D01*
X79213404Y-35604536D02*
X79092452Y-35665013D01*
X79092452Y-35665013D02*
X78971500Y-35785965D01*
X78971500Y-35785965D02*
X78911023Y-35967394D01*
X78911023Y-35967394D02*
X78911023Y-36269775D01*
X74653500Y-168216727D02*
X74593023Y-168035298D01*
X74593023Y-168035298D02*
X74593023Y-167732917D01*
X74593023Y-167732917D02*
X74653500Y-167611965D01*
X74653500Y-167611965D02*
X74713976Y-167551489D01*
X74713976Y-167551489D02*
X74834928Y-167491012D01*
X74834928Y-167491012D02*
X74955880Y-167491012D01*
X74955880Y-167491012D02*
X75076833Y-167551489D01*
X75076833Y-167551489D02*
X75137309Y-167611965D01*
X75137309Y-167611965D02*
X75197785Y-167732917D01*
X75197785Y-167732917D02*
X75258261Y-167974822D01*
X75258261Y-167974822D02*
X75318738Y-168095774D01*
X75318738Y-168095774D02*
X75379214Y-168156251D01*
X75379214Y-168156251D02*
X75500166Y-168216727D01*
X75500166Y-168216727D02*
X75621119Y-168216727D01*
X75621119Y-168216727D02*
X75742071Y-168156251D01*
X75742071Y-168156251D02*
X75802547Y-168095774D01*
X75802547Y-168095774D02*
X75863023Y-167974822D01*
X75863023Y-167974822D02*
X75863023Y-167672441D01*
X75863023Y-167672441D02*
X75802547Y-167491012D01*
X75439690Y-167067679D02*
X74593023Y-166825774D01*
X74593023Y-166825774D02*
X75197785Y-166583869D01*
X75197785Y-166583869D02*
X74593023Y-166341965D01*
X74593023Y-166341965D02*
X75439690Y-166100060D01*
X74593023Y-165616251D02*
X75439690Y-165616251D01*
X75863023Y-165616251D02*
X75802547Y-165676727D01*
X75802547Y-165676727D02*
X75742071Y-165616251D01*
X75742071Y-165616251D02*
X75802547Y-165555774D01*
X75802547Y-165555774D02*
X75863023Y-165616251D01*
X75863023Y-165616251D02*
X75742071Y-165616251D01*
X75439690Y-165192917D02*
X75439690Y-164709108D01*
X75863023Y-165011489D02*
X74774452Y-165011489D01*
X74774452Y-165011489D02*
X74653500Y-164951012D01*
X74653500Y-164951012D02*
X74593023Y-164830060D01*
X74593023Y-164830060D02*
X74593023Y-164709108D01*
X74653500Y-163741489D02*
X74593023Y-163862441D01*
X74593023Y-163862441D02*
X74593023Y-164104346D01*
X74593023Y-164104346D02*
X74653500Y-164225298D01*
X74653500Y-164225298D02*
X74713976Y-164285775D01*
X74713976Y-164285775D02*
X74834928Y-164346251D01*
X74834928Y-164346251D02*
X75197785Y-164346251D01*
X75197785Y-164346251D02*
X75318738Y-164285775D01*
X75318738Y-164285775D02*
X75379214Y-164225298D01*
X75379214Y-164225298D02*
X75439690Y-164104346D01*
X75439690Y-164104346D02*
X75439690Y-163862441D01*
X75439690Y-163862441D02*
X75379214Y-163741489D01*
X74593023Y-163197204D02*
X75863023Y-163197204D01*
X74593023Y-162652918D02*
X75258261Y-162652918D01*
X75258261Y-162652918D02*
X75379214Y-162713394D01*
X75379214Y-162713394D02*
X75439690Y-162834346D01*
X75439690Y-162834346D02*
X75439690Y-163015775D01*
X75439690Y-163015775D02*
X75379214Y-163136727D01*
X75379214Y-163136727D02*
X75318738Y-163197204D01*
X87268833Y-38870251D02*
X87268833Y-37902632D01*
X86785023Y-38386441D02*
X87752642Y-38386441D01*
X88055023Y-36693108D02*
X88055023Y-37297870D01*
X88055023Y-37297870D02*
X87450261Y-37358346D01*
X87450261Y-37358346D02*
X87510738Y-37297870D01*
X87510738Y-37297870D02*
X87571214Y-37176917D01*
X87571214Y-37176917D02*
X87571214Y-36874536D01*
X87571214Y-36874536D02*
X87510738Y-36753584D01*
X87510738Y-36753584D02*
X87450261Y-36693108D01*
X87450261Y-36693108D02*
X87329309Y-36632631D01*
X87329309Y-36632631D02*
X87026928Y-36632631D01*
X87026928Y-36632631D02*
X86905976Y-36693108D01*
X86905976Y-36693108D02*
X86845500Y-36753584D01*
X86845500Y-36753584D02*
X86785023Y-36874536D01*
X86785023Y-36874536D02*
X86785023Y-37176917D01*
X86785023Y-37176917D02*
X86845500Y-37297870D01*
X86845500Y-37297870D02*
X86905976Y-37358346D01*
X88055023Y-36269774D02*
X86785023Y-35846441D01*
X86785023Y-35846441D02*
X88055023Y-35423107D01*
D11*
%TO.C,U1*%
X68930500Y-158584900D02*
G75*
G02*
X68168500Y-158584900I-381000J0D01*
G01*
X68168500Y-158584900D02*
G75*
G02*
X68930500Y-158584900I381000J0D01*
G01*
%TD*%
M02*
