%TF.GenerationSoftware,KiCad,Pcbnew,(6.0.7)*%
%TF.CreationDate,2024-01-30T15:32:42-06:00*%
%TF.ProjectId,Cutdown,43757464-6f77-46e2-9e6b-696361645f70,1.0.0*%
%TF.SameCoordinates,Original*%
%TF.FileFunction,Paste,Top*%
%TF.FilePolarity,Positive*%
%FSLAX46Y46*%
G04 Gerber Fmt 4.6, Leading zero omitted, Abs format (unit mm)*
G04 Created by KiCad (PCBNEW (6.0.7)) date 2024-01-30 15:32:42*
%MOMM*%
%LPD*%
G01*
G04 APERTURE LIST*
G04 Aperture macros list*
%AMRoundRect*
0 Rectangle with rounded corners*
0 $1 Rounding radius*
0 $2 $3 $4 $5 $6 $7 $8 $9 X,Y pos of 4 corners*
0 Add a 4 corners polygon primitive as box body*
4,1,4,$2,$3,$4,$5,$6,$7,$8,$9,$2,$3,0*
0 Add four circle primitives for the rounded corners*
1,1,$1+$1,$2,$3*
1,1,$1+$1,$4,$5*
1,1,$1+$1,$6,$7*
1,1,$1+$1,$8,$9*
0 Add four rect primitives between the rounded corners*
20,1,$1+$1,$2,$3,$4,$5,0*
20,1,$1+$1,$4,$5,$6,$7,0*
20,1,$1+$1,$6,$7,$8,$9,0*
20,1,$1+$1,$8,$9,$2,$3,0*%
G04 Aperture macros list end*
%ADD10C,0.010000*%
%ADD11RoundRect,0.218750X-0.256250X0.218750X-0.256250X-0.218750X0.256250X-0.218750X0.256250X0.218750X0*%
%ADD12RoundRect,0.150000X-0.825000X-0.150000X0.825000X-0.150000X0.825000X0.150000X-0.825000X0.150000X0*%
%ADD13R,1.752600X2.616200*%
%ADD14RoundRect,0.218750X0.256250X-0.218750X0.256250X0.218750X-0.256250X0.218750X-0.256250X-0.218750X0*%
%ADD15R,1.500000X1.000000*%
%ADD16R,4.500000X2.300000*%
%ADD17R,1.000000X3.500000*%
%ADD18R,1.500000X3.400000*%
%ADD19RoundRect,0.218750X-0.218750X-0.256250X0.218750X-0.256250X0.218750X0.256250X-0.218750X0.256250X0*%
%ADD20R,0.800000X0.900000*%
%ADD21RoundRect,0.236300X0.458700X-0.808700X0.458700X0.808700X-0.458700X0.808700X-0.458700X-0.808700X0*%
%ADD22RoundRect,0.243750X0.456250X-0.243750X0.456250X0.243750X-0.456250X0.243750X-0.456250X-0.243750X0*%
%ADD23R,0.400000X0.400000*%
%ADD24R,1.060000X0.650000*%
%ADD25R,2.184400X1.701800*%
%ADD26R,0.720000X0.580000*%
%ADD27R,0.580000X0.720000*%
%ADD28RoundRect,0.243750X-0.456250X0.243750X-0.456250X-0.243750X0.456250X-0.243750X0.456250X0.243750X0*%
%ADD29RoundRect,0.218750X0.218750X0.256250X-0.218750X0.256250X-0.218750X-0.256250X0.218750X-0.256250X0*%
%ADD30R,0.900000X1.700000*%
%ADD31R,0.882000X1.700000*%
G04 APERTURE END LIST*
%TO.C,U5*%
G36*
X150990000Y-143040000D02*
G01*
X148590000Y-143040000D01*
X148548000Y-143039000D01*
X148506000Y-143036000D01*
X148465000Y-143030000D01*
X148424000Y-143023000D01*
X148383000Y-143013000D01*
X148343000Y-143001000D01*
X148303000Y-142987000D01*
X148265000Y-142971000D01*
X148227000Y-142953000D01*
X148190000Y-142933000D01*
X148154000Y-142911000D01*
X148120000Y-142887000D01*
X148087000Y-142862000D01*
X148055000Y-142835000D01*
X148024000Y-142806000D01*
X147995000Y-142775000D01*
X147968000Y-142743000D01*
X147943000Y-142710000D01*
X147919000Y-142676000D01*
X147897000Y-142640000D01*
X147877000Y-142603000D01*
X147859000Y-142565000D01*
X147843000Y-142527000D01*
X147829000Y-142487000D01*
X147817000Y-142447000D01*
X147807000Y-142406000D01*
X147800000Y-142365000D01*
X147794000Y-142324000D01*
X147791000Y-142282000D01*
X147790000Y-142240000D01*
X147791000Y-142198000D01*
X147794000Y-142156000D01*
X147800000Y-142115000D01*
X147807000Y-142074000D01*
X147817000Y-142033000D01*
X147829000Y-141993000D01*
X147843000Y-141953000D01*
X147859000Y-141915000D01*
X147877000Y-141877000D01*
X147897000Y-141840000D01*
X147919000Y-141804000D01*
X147943000Y-141770000D01*
X147968000Y-141737000D01*
X147995000Y-141705000D01*
X148024000Y-141674000D01*
X148055000Y-141645000D01*
X148087000Y-141618000D01*
X148120000Y-141593000D01*
X148154000Y-141569000D01*
X148190000Y-141547000D01*
X148227000Y-141527000D01*
X148265000Y-141509000D01*
X148303000Y-141493000D01*
X148343000Y-141479000D01*
X148383000Y-141467000D01*
X148424000Y-141457000D01*
X148465000Y-141450000D01*
X148506000Y-141444000D01*
X148548000Y-141441000D01*
X148590000Y-141440000D01*
X150990000Y-141440000D01*
X150990000Y-143040000D01*
G37*
D10*
X150990000Y-143040000D02*
X148590000Y-143040000D01*
X148548000Y-143039000D01*
X148506000Y-143036000D01*
X148465000Y-143030000D01*
X148424000Y-143023000D01*
X148383000Y-143013000D01*
X148343000Y-143001000D01*
X148303000Y-142987000D01*
X148265000Y-142971000D01*
X148227000Y-142953000D01*
X148190000Y-142933000D01*
X148154000Y-142911000D01*
X148120000Y-142887000D01*
X148087000Y-142862000D01*
X148055000Y-142835000D01*
X148024000Y-142806000D01*
X147995000Y-142775000D01*
X147968000Y-142743000D01*
X147943000Y-142710000D01*
X147919000Y-142676000D01*
X147897000Y-142640000D01*
X147877000Y-142603000D01*
X147859000Y-142565000D01*
X147843000Y-142527000D01*
X147829000Y-142487000D01*
X147817000Y-142447000D01*
X147807000Y-142406000D01*
X147800000Y-142365000D01*
X147794000Y-142324000D01*
X147791000Y-142282000D01*
X147790000Y-142240000D01*
X147791000Y-142198000D01*
X147794000Y-142156000D01*
X147800000Y-142115000D01*
X147807000Y-142074000D01*
X147817000Y-142033000D01*
X147829000Y-141993000D01*
X147843000Y-141953000D01*
X147859000Y-141915000D01*
X147877000Y-141877000D01*
X147897000Y-141840000D01*
X147919000Y-141804000D01*
X147943000Y-141770000D01*
X147968000Y-141737000D01*
X147995000Y-141705000D01*
X148024000Y-141674000D01*
X148055000Y-141645000D01*
X148087000Y-141618000D01*
X148120000Y-141593000D01*
X148154000Y-141569000D01*
X148190000Y-141547000D01*
X148227000Y-141527000D01*
X148265000Y-141509000D01*
X148303000Y-141493000D01*
X148343000Y-141479000D01*
X148383000Y-141467000D01*
X148424000Y-141457000D01*
X148465000Y-141450000D01*
X148506000Y-141444000D01*
X148548000Y-141441000D01*
X148590000Y-141440000D01*
X150990000Y-141440000D01*
X150990000Y-143040000D01*
G36*
X150990000Y-102400000D02*
G01*
X147980000Y-102400000D01*
X147969000Y-102399000D01*
X147959000Y-102398000D01*
X147948000Y-102396000D01*
X147918000Y-102387000D01*
X147909000Y-102383000D01*
X147899000Y-102378000D01*
X147881000Y-102368000D01*
X147872000Y-102362000D01*
X147864000Y-102355000D01*
X147856000Y-102349000D01*
X147849000Y-102341000D01*
X147841000Y-102334000D01*
X147835000Y-102326000D01*
X147828000Y-102318000D01*
X147822000Y-102309000D01*
X147812000Y-102291000D01*
X147807000Y-102281000D01*
X147803000Y-102272000D01*
X147794000Y-102242000D01*
X147792000Y-102231000D01*
X147791000Y-102221000D01*
X147790000Y-102210000D01*
X147790000Y-100990000D01*
X147791000Y-100979000D01*
X147792000Y-100969000D01*
X147794000Y-100958000D01*
X147803000Y-100928000D01*
X147807000Y-100919000D01*
X147812000Y-100909000D01*
X147822000Y-100891000D01*
X147828000Y-100882000D01*
X147835000Y-100874000D01*
X147841000Y-100866000D01*
X147849000Y-100859000D01*
X147856000Y-100851000D01*
X147864000Y-100845000D01*
X147872000Y-100838000D01*
X147881000Y-100832000D01*
X147899000Y-100822000D01*
X147909000Y-100817000D01*
X147918000Y-100813000D01*
X147948000Y-100804000D01*
X147959000Y-100802000D01*
X147969000Y-100801000D01*
X147980000Y-100800000D01*
X150990000Y-100800000D01*
X150990000Y-102400000D01*
G37*
X150990000Y-102400000D02*
X147980000Y-102400000D01*
X147969000Y-102399000D01*
X147959000Y-102398000D01*
X147948000Y-102396000D01*
X147918000Y-102387000D01*
X147909000Y-102383000D01*
X147899000Y-102378000D01*
X147881000Y-102368000D01*
X147872000Y-102362000D01*
X147864000Y-102355000D01*
X147856000Y-102349000D01*
X147849000Y-102341000D01*
X147841000Y-102334000D01*
X147835000Y-102326000D01*
X147828000Y-102318000D01*
X147822000Y-102309000D01*
X147812000Y-102291000D01*
X147807000Y-102281000D01*
X147803000Y-102272000D01*
X147794000Y-102242000D01*
X147792000Y-102231000D01*
X147791000Y-102221000D01*
X147790000Y-102210000D01*
X147790000Y-100990000D01*
X147791000Y-100979000D01*
X147792000Y-100969000D01*
X147794000Y-100958000D01*
X147803000Y-100928000D01*
X147807000Y-100919000D01*
X147812000Y-100909000D01*
X147822000Y-100891000D01*
X147828000Y-100882000D01*
X147835000Y-100874000D01*
X147841000Y-100866000D01*
X147849000Y-100859000D01*
X147856000Y-100851000D01*
X147864000Y-100845000D01*
X147872000Y-100838000D01*
X147881000Y-100832000D01*
X147899000Y-100822000D01*
X147909000Y-100817000D01*
X147918000Y-100813000D01*
X147948000Y-100804000D01*
X147959000Y-100802000D01*
X147969000Y-100801000D01*
X147980000Y-100800000D01*
X150990000Y-100800000D01*
X150990000Y-102400000D01*
G36*
X150990000Y-120180000D02*
G01*
X148590000Y-120180000D01*
X148548000Y-120179000D01*
X148506000Y-120176000D01*
X148465000Y-120170000D01*
X148424000Y-120163000D01*
X148383000Y-120153000D01*
X148343000Y-120141000D01*
X148303000Y-120127000D01*
X148265000Y-120111000D01*
X148227000Y-120093000D01*
X148190000Y-120073000D01*
X148154000Y-120051000D01*
X148120000Y-120027000D01*
X148087000Y-120002000D01*
X148055000Y-119975000D01*
X148024000Y-119946000D01*
X147995000Y-119915000D01*
X147968000Y-119883000D01*
X147943000Y-119850000D01*
X147919000Y-119816000D01*
X147897000Y-119780000D01*
X147877000Y-119743000D01*
X147859000Y-119705000D01*
X147843000Y-119667000D01*
X147829000Y-119627000D01*
X147817000Y-119587000D01*
X147807000Y-119546000D01*
X147800000Y-119505000D01*
X147794000Y-119464000D01*
X147791000Y-119422000D01*
X147790000Y-119380000D01*
X147791000Y-119338000D01*
X147794000Y-119296000D01*
X147800000Y-119255000D01*
X147807000Y-119214000D01*
X147817000Y-119173000D01*
X147829000Y-119133000D01*
X147843000Y-119093000D01*
X147859000Y-119055000D01*
X147877000Y-119017000D01*
X147897000Y-118980000D01*
X147919000Y-118944000D01*
X147943000Y-118910000D01*
X147968000Y-118877000D01*
X147995000Y-118845000D01*
X148024000Y-118814000D01*
X148055000Y-118785000D01*
X148087000Y-118758000D01*
X148120000Y-118733000D01*
X148154000Y-118709000D01*
X148190000Y-118687000D01*
X148227000Y-118667000D01*
X148265000Y-118649000D01*
X148303000Y-118633000D01*
X148343000Y-118619000D01*
X148383000Y-118607000D01*
X148424000Y-118597000D01*
X148465000Y-118590000D01*
X148506000Y-118584000D01*
X148548000Y-118581000D01*
X148590000Y-118580000D01*
X150990000Y-118580000D01*
X150990000Y-120180000D01*
G37*
X150990000Y-120180000D02*
X148590000Y-120180000D01*
X148548000Y-120179000D01*
X148506000Y-120176000D01*
X148465000Y-120170000D01*
X148424000Y-120163000D01*
X148383000Y-120153000D01*
X148343000Y-120141000D01*
X148303000Y-120127000D01*
X148265000Y-120111000D01*
X148227000Y-120093000D01*
X148190000Y-120073000D01*
X148154000Y-120051000D01*
X148120000Y-120027000D01*
X148087000Y-120002000D01*
X148055000Y-119975000D01*
X148024000Y-119946000D01*
X147995000Y-119915000D01*
X147968000Y-119883000D01*
X147943000Y-119850000D01*
X147919000Y-119816000D01*
X147897000Y-119780000D01*
X147877000Y-119743000D01*
X147859000Y-119705000D01*
X147843000Y-119667000D01*
X147829000Y-119627000D01*
X147817000Y-119587000D01*
X147807000Y-119546000D01*
X147800000Y-119505000D01*
X147794000Y-119464000D01*
X147791000Y-119422000D01*
X147790000Y-119380000D01*
X147791000Y-119338000D01*
X147794000Y-119296000D01*
X147800000Y-119255000D01*
X147807000Y-119214000D01*
X147817000Y-119173000D01*
X147829000Y-119133000D01*
X147843000Y-119093000D01*
X147859000Y-119055000D01*
X147877000Y-119017000D01*
X147897000Y-118980000D01*
X147919000Y-118944000D01*
X147943000Y-118910000D01*
X147968000Y-118877000D01*
X147995000Y-118845000D01*
X148024000Y-118814000D01*
X148055000Y-118785000D01*
X148087000Y-118758000D01*
X148120000Y-118733000D01*
X148154000Y-118709000D01*
X148190000Y-118687000D01*
X148227000Y-118667000D01*
X148265000Y-118649000D01*
X148303000Y-118633000D01*
X148343000Y-118619000D01*
X148383000Y-118607000D01*
X148424000Y-118597000D01*
X148465000Y-118590000D01*
X148506000Y-118584000D01*
X148548000Y-118581000D01*
X148590000Y-118580000D01*
X150990000Y-118580000D01*
X150990000Y-120180000D01*
G36*
X150990000Y-99860000D02*
G01*
X148590000Y-99860000D01*
X148548000Y-99859000D01*
X148506000Y-99856000D01*
X148465000Y-99850000D01*
X148424000Y-99843000D01*
X148383000Y-99833000D01*
X148343000Y-99821000D01*
X148303000Y-99807000D01*
X148265000Y-99791000D01*
X148227000Y-99773000D01*
X148190000Y-99753000D01*
X148154000Y-99731000D01*
X148120000Y-99707000D01*
X148087000Y-99682000D01*
X148055000Y-99655000D01*
X148024000Y-99626000D01*
X147995000Y-99595000D01*
X147968000Y-99563000D01*
X147943000Y-99530000D01*
X147919000Y-99496000D01*
X147897000Y-99460000D01*
X147877000Y-99423000D01*
X147859000Y-99385000D01*
X147843000Y-99347000D01*
X147829000Y-99307000D01*
X147817000Y-99267000D01*
X147807000Y-99226000D01*
X147800000Y-99185000D01*
X147794000Y-99144000D01*
X147791000Y-99102000D01*
X147790000Y-99060000D01*
X147791000Y-99018000D01*
X147794000Y-98976000D01*
X147800000Y-98935000D01*
X147807000Y-98894000D01*
X147817000Y-98853000D01*
X147829000Y-98813000D01*
X147843000Y-98773000D01*
X147859000Y-98735000D01*
X147877000Y-98697000D01*
X147897000Y-98660000D01*
X147919000Y-98624000D01*
X147943000Y-98590000D01*
X147968000Y-98557000D01*
X147995000Y-98525000D01*
X148024000Y-98494000D01*
X148055000Y-98465000D01*
X148087000Y-98438000D01*
X148120000Y-98413000D01*
X148154000Y-98389000D01*
X148190000Y-98367000D01*
X148227000Y-98347000D01*
X148265000Y-98329000D01*
X148303000Y-98313000D01*
X148343000Y-98299000D01*
X148383000Y-98287000D01*
X148424000Y-98277000D01*
X148465000Y-98270000D01*
X148506000Y-98264000D01*
X148548000Y-98261000D01*
X148590000Y-98260000D01*
X150990000Y-98260000D01*
X150990000Y-99860000D01*
G37*
X150990000Y-99860000D02*
X148590000Y-99860000D01*
X148548000Y-99859000D01*
X148506000Y-99856000D01*
X148465000Y-99850000D01*
X148424000Y-99843000D01*
X148383000Y-99833000D01*
X148343000Y-99821000D01*
X148303000Y-99807000D01*
X148265000Y-99791000D01*
X148227000Y-99773000D01*
X148190000Y-99753000D01*
X148154000Y-99731000D01*
X148120000Y-99707000D01*
X148087000Y-99682000D01*
X148055000Y-99655000D01*
X148024000Y-99626000D01*
X147995000Y-99595000D01*
X147968000Y-99563000D01*
X147943000Y-99530000D01*
X147919000Y-99496000D01*
X147897000Y-99460000D01*
X147877000Y-99423000D01*
X147859000Y-99385000D01*
X147843000Y-99347000D01*
X147829000Y-99307000D01*
X147817000Y-99267000D01*
X147807000Y-99226000D01*
X147800000Y-99185000D01*
X147794000Y-99144000D01*
X147791000Y-99102000D01*
X147790000Y-99060000D01*
X147791000Y-99018000D01*
X147794000Y-98976000D01*
X147800000Y-98935000D01*
X147807000Y-98894000D01*
X147817000Y-98853000D01*
X147829000Y-98813000D01*
X147843000Y-98773000D01*
X147859000Y-98735000D01*
X147877000Y-98697000D01*
X147897000Y-98660000D01*
X147919000Y-98624000D01*
X147943000Y-98590000D01*
X147968000Y-98557000D01*
X147995000Y-98525000D01*
X148024000Y-98494000D01*
X148055000Y-98465000D01*
X148087000Y-98438000D01*
X148120000Y-98413000D01*
X148154000Y-98389000D01*
X148190000Y-98367000D01*
X148227000Y-98347000D01*
X148265000Y-98329000D01*
X148303000Y-98313000D01*
X148343000Y-98299000D01*
X148383000Y-98287000D01*
X148424000Y-98277000D01*
X148465000Y-98270000D01*
X148506000Y-98264000D01*
X148548000Y-98261000D01*
X148590000Y-98260000D01*
X150990000Y-98260000D01*
X150990000Y-99860000D01*
G36*
X130852000Y-116041000D02*
G01*
X130894000Y-116044000D01*
X130935000Y-116050000D01*
X130976000Y-116057000D01*
X131017000Y-116067000D01*
X131057000Y-116079000D01*
X131097000Y-116093000D01*
X131135000Y-116109000D01*
X131173000Y-116127000D01*
X131210000Y-116147000D01*
X131246000Y-116169000D01*
X131280000Y-116193000D01*
X131313000Y-116218000D01*
X131345000Y-116245000D01*
X131376000Y-116274000D01*
X131405000Y-116305000D01*
X131432000Y-116337000D01*
X131457000Y-116370000D01*
X131481000Y-116404000D01*
X131503000Y-116440000D01*
X131523000Y-116477000D01*
X131541000Y-116515000D01*
X131557000Y-116553000D01*
X131571000Y-116593000D01*
X131583000Y-116633000D01*
X131593000Y-116674000D01*
X131600000Y-116715000D01*
X131606000Y-116756000D01*
X131609000Y-116798000D01*
X131610000Y-116840000D01*
X131609000Y-116882000D01*
X131606000Y-116924000D01*
X131600000Y-116965000D01*
X131593000Y-117006000D01*
X131583000Y-117047000D01*
X131571000Y-117087000D01*
X131557000Y-117127000D01*
X131541000Y-117165000D01*
X131523000Y-117203000D01*
X131503000Y-117240000D01*
X131481000Y-117276000D01*
X131457000Y-117310000D01*
X131432000Y-117343000D01*
X131405000Y-117375000D01*
X131376000Y-117406000D01*
X131345000Y-117435000D01*
X131313000Y-117462000D01*
X131280000Y-117487000D01*
X131246000Y-117511000D01*
X131210000Y-117533000D01*
X131173000Y-117553000D01*
X131135000Y-117571000D01*
X131097000Y-117587000D01*
X131057000Y-117601000D01*
X131017000Y-117613000D01*
X130976000Y-117623000D01*
X130935000Y-117630000D01*
X130894000Y-117636000D01*
X130852000Y-117639000D01*
X130810000Y-117640000D01*
X128410000Y-117640000D01*
X128410000Y-116040000D01*
X130810000Y-116040000D01*
X130852000Y-116041000D01*
G37*
X130852000Y-116041000D02*
X130894000Y-116044000D01*
X130935000Y-116050000D01*
X130976000Y-116057000D01*
X131017000Y-116067000D01*
X131057000Y-116079000D01*
X131097000Y-116093000D01*
X131135000Y-116109000D01*
X131173000Y-116127000D01*
X131210000Y-116147000D01*
X131246000Y-116169000D01*
X131280000Y-116193000D01*
X131313000Y-116218000D01*
X131345000Y-116245000D01*
X131376000Y-116274000D01*
X131405000Y-116305000D01*
X131432000Y-116337000D01*
X131457000Y-116370000D01*
X131481000Y-116404000D01*
X131503000Y-116440000D01*
X131523000Y-116477000D01*
X131541000Y-116515000D01*
X131557000Y-116553000D01*
X131571000Y-116593000D01*
X131583000Y-116633000D01*
X131593000Y-116674000D01*
X131600000Y-116715000D01*
X131606000Y-116756000D01*
X131609000Y-116798000D01*
X131610000Y-116840000D01*
X131609000Y-116882000D01*
X131606000Y-116924000D01*
X131600000Y-116965000D01*
X131593000Y-117006000D01*
X131583000Y-117047000D01*
X131571000Y-117087000D01*
X131557000Y-117127000D01*
X131541000Y-117165000D01*
X131523000Y-117203000D01*
X131503000Y-117240000D01*
X131481000Y-117276000D01*
X131457000Y-117310000D01*
X131432000Y-117343000D01*
X131405000Y-117375000D01*
X131376000Y-117406000D01*
X131345000Y-117435000D01*
X131313000Y-117462000D01*
X131280000Y-117487000D01*
X131246000Y-117511000D01*
X131210000Y-117533000D01*
X131173000Y-117553000D01*
X131135000Y-117571000D01*
X131097000Y-117587000D01*
X131057000Y-117601000D01*
X131017000Y-117613000D01*
X130976000Y-117623000D01*
X130935000Y-117630000D01*
X130894000Y-117636000D01*
X130852000Y-117639000D01*
X130810000Y-117640000D01*
X128410000Y-117640000D01*
X128410000Y-116040000D01*
X130810000Y-116040000D01*
X130852000Y-116041000D01*
G36*
X130852000Y-105881000D02*
G01*
X130894000Y-105884000D01*
X130935000Y-105890000D01*
X130976000Y-105897000D01*
X131017000Y-105907000D01*
X131057000Y-105919000D01*
X131097000Y-105933000D01*
X131135000Y-105949000D01*
X131173000Y-105967000D01*
X131210000Y-105987000D01*
X131246000Y-106009000D01*
X131280000Y-106033000D01*
X131313000Y-106058000D01*
X131345000Y-106085000D01*
X131376000Y-106114000D01*
X131405000Y-106145000D01*
X131432000Y-106177000D01*
X131457000Y-106210000D01*
X131481000Y-106244000D01*
X131503000Y-106280000D01*
X131523000Y-106317000D01*
X131541000Y-106355000D01*
X131557000Y-106393000D01*
X131571000Y-106433000D01*
X131583000Y-106473000D01*
X131593000Y-106514000D01*
X131600000Y-106555000D01*
X131606000Y-106596000D01*
X131609000Y-106638000D01*
X131610000Y-106680000D01*
X131609000Y-106722000D01*
X131606000Y-106764000D01*
X131600000Y-106805000D01*
X131593000Y-106846000D01*
X131583000Y-106887000D01*
X131571000Y-106927000D01*
X131557000Y-106967000D01*
X131541000Y-107005000D01*
X131523000Y-107043000D01*
X131503000Y-107080000D01*
X131481000Y-107116000D01*
X131457000Y-107150000D01*
X131432000Y-107183000D01*
X131405000Y-107215000D01*
X131376000Y-107246000D01*
X131345000Y-107275000D01*
X131313000Y-107302000D01*
X131280000Y-107327000D01*
X131246000Y-107351000D01*
X131210000Y-107373000D01*
X131173000Y-107393000D01*
X131135000Y-107411000D01*
X131097000Y-107427000D01*
X131057000Y-107441000D01*
X131017000Y-107453000D01*
X130976000Y-107463000D01*
X130935000Y-107470000D01*
X130894000Y-107476000D01*
X130852000Y-107479000D01*
X130810000Y-107480000D01*
X128410000Y-107480000D01*
X128410000Y-105880000D01*
X130810000Y-105880000D01*
X130852000Y-105881000D01*
G37*
X130852000Y-105881000D02*
X130894000Y-105884000D01*
X130935000Y-105890000D01*
X130976000Y-105897000D01*
X131017000Y-105907000D01*
X131057000Y-105919000D01*
X131097000Y-105933000D01*
X131135000Y-105949000D01*
X131173000Y-105967000D01*
X131210000Y-105987000D01*
X131246000Y-106009000D01*
X131280000Y-106033000D01*
X131313000Y-106058000D01*
X131345000Y-106085000D01*
X131376000Y-106114000D01*
X131405000Y-106145000D01*
X131432000Y-106177000D01*
X131457000Y-106210000D01*
X131481000Y-106244000D01*
X131503000Y-106280000D01*
X131523000Y-106317000D01*
X131541000Y-106355000D01*
X131557000Y-106393000D01*
X131571000Y-106433000D01*
X131583000Y-106473000D01*
X131593000Y-106514000D01*
X131600000Y-106555000D01*
X131606000Y-106596000D01*
X131609000Y-106638000D01*
X131610000Y-106680000D01*
X131609000Y-106722000D01*
X131606000Y-106764000D01*
X131600000Y-106805000D01*
X131593000Y-106846000D01*
X131583000Y-106887000D01*
X131571000Y-106927000D01*
X131557000Y-106967000D01*
X131541000Y-107005000D01*
X131523000Y-107043000D01*
X131503000Y-107080000D01*
X131481000Y-107116000D01*
X131457000Y-107150000D01*
X131432000Y-107183000D01*
X131405000Y-107215000D01*
X131376000Y-107246000D01*
X131345000Y-107275000D01*
X131313000Y-107302000D01*
X131280000Y-107327000D01*
X131246000Y-107351000D01*
X131210000Y-107373000D01*
X131173000Y-107393000D01*
X131135000Y-107411000D01*
X131097000Y-107427000D01*
X131057000Y-107441000D01*
X131017000Y-107453000D01*
X130976000Y-107463000D01*
X130935000Y-107470000D01*
X130894000Y-107476000D01*
X130852000Y-107479000D01*
X130810000Y-107480000D01*
X128410000Y-107480000D01*
X128410000Y-105880000D01*
X130810000Y-105880000D01*
X130852000Y-105881000D01*
G36*
X130852000Y-121121000D02*
G01*
X130894000Y-121124000D01*
X130935000Y-121130000D01*
X130976000Y-121137000D01*
X131017000Y-121147000D01*
X131057000Y-121159000D01*
X131097000Y-121173000D01*
X131135000Y-121189000D01*
X131173000Y-121207000D01*
X131210000Y-121227000D01*
X131246000Y-121249000D01*
X131280000Y-121273000D01*
X131313000Y-121298000D01*
X131345000Y-121325000D01*
X131376000Y-121354000D01*
X131405000Y-121385000D01*
X131432000Y-121417000D01*
X131457000Y-121450000D01*
X131481000Y-121484000D01*
X131503000Y-121520000D01*
X131523000Y-121557000D01*
X131541000Y-121595000D01*
X131557000Y-121633000D01*
X131571000Y-121673000D01*
X131583000Y-121713000D01*
X131593000Y-121754000D01*
X131600000Y-121795000D01*
X131606000Y-121836000D01*
X131609000Y-121878000D01*
X131610000Y-121920000D01*
X131609000Y-121962000D01*
X131606000Y-122004000D01*
X131600000Y-122045000D01*
X131593000Y-122086000D01*
X131583000Y-122127000D01*
X131571000Y-122167000D01*
X131557000Y-122207000D01*
X131541000Y-122245000D01*
X131523000Y-122283000D01*
X131503000Y-122320000D01*
X131481000Y-122356000D01*
X131457000Y-122390000D01*
X131432000Y-122423000D01*
X131405000Y-122455000D01*
X131376000Y-122486000D01*
X131345000Y-122515000D01*
X131313000Y-122542000D01*
X131280000Y-122567000D01*
X131246000Y-122591000D01*
X131210000Y-122613000D01*
X131173000Y-122633000D01*
X131135000Y-122651000D01*
X131097000Y-122667000D01*
X131057000Y-122681000D01*
X131017000Y-122693000D01*
X130976000Y-122703000D01*
X130935000Y-122710000D01*
X130894000Y-122716000D01*
X130852000Y-122719000D01*
X130810000Y-122720000D01*
X128410000Y-122720000D01*
X128410000Y-121120000D01*
X130810000Y-121120000D01*
X130852000Y-121121000D01*
G37*
X130852000Y-121121000D02*
X130894000Y-121124000D01*
X130935000Y-121130000D01*
X130976000Y-121137000D01*
X131017000Y-121147000D01*
X131057000Y-121159000D01*
X131097000Y-121173000D01*
X131135000Y-121189000D01*
X131173000Y-121207000D01*
X131210000Y-121227000D01*
X131246000Y-121249000D01*
X131280000Y-121273000D01*
X131313000Y-121298000D01*
X131345000Y-121325000D01*
X131376000Y-121354000D01*
X131405000Y-121385000D01*
X131432000Y-121417000D01*
X131457000Y-121450000D01*
X131481000Y-121484000D01*
X131503000Y-121520000D01*
X131523000Y-121557000D01*
X131541000Y-121595000D01*
X131557000Y-121633000D01*
X131571000Y-121673000D01*
X131583000Y-121713000D01*
X131593000Y-121754000D01*
X131600000Y-121795000D01*
X131606000Y-121836000D01*
X131609000Y-121878000D01*
X131610000Y-121920000D01*
X131609000Y-121962000D01*
X131606000Y-122004000D01*
X131600000Y-122045000D01*
X131593000Y-122086000D01*
X131583000Y-122127000D01*
X131571000Y-122167000D01*
X131557000Y-122207000D01*
X131541000Y-122245000D01*
X131523000Y-122283000D01*
X131503000Y-122320000D01*
X131481000Y-122356000D01*
X131457000Y-122390000D01*
X131432000Y-122423000D01*
X131405000Y-122455000D01*
X131376000Y-122486000D01*
X131345000Y-122515000D01*
X131313000Y-122542000D01*
X131280000Y-122567000D01*
X131246000Y-122591000D01*
X131210000Y-122613000D01*
X131173000Y-122633000D01*
X131135000Y-122651000D01*
X131097000Y-122667000D01*
X131057000Y-122681000D01*
X131017000Y-122693000D01*
X130976000Y-122703000D01*
X130935000Y-122710000D01*
X130894000Y-122716000D01*
X130852000Y-122719000D01*
X130810000Y-122720000D01*
X128410000Y-122720000D01*
X128410000Y-121120000D01*
X130810000Y-121120000D01*
X130852000Y-121121000D01*
G36*
X150990000Y-97320000D02*
G01*
X148590000Y-97320000D01*
X148548000Y-97319000D01*
X148506000Y-97316000D01*
X148465000Y-97310000D01*
X148424000Y-97303000D01*
X148383000Y-97293000D01*
X148343000Y-97281000D01*
X148303000Y-97267000D01*
X148265000Y-97251000D01*
X148227000Y-97233000D01*
X148190000Y-97213000D01*
X148154000Y-97191000D01*
X148120000Y-97167000D01*
X148087000Y-97142000D01*
X148055000Y-97115000D01*
X148024000Y-97086000D01*
X147995000Y-97055000D01*
X147968000Y-97023000D01*
X147943000Y-96990000D01*
X147919000Y-96956000D01*
X147897000Y-96920000D01*
X147877000Y-96883000D01*
X147859000Y-96845000D01*
X147843000Y-96807000D01*
X147829000Y-96767000D01*
X147817000Y-96727000D01*
X147807000Y-96686000D01*
X147800000Y-96645000D01*
X147794000Y-96604000D01*
X147791000Y-96562000D01*
X147790000Y-96520000D01*
X147791000Y-96478000D01*
X147794000Y-96436000D01*
X147800000Y-96395000D01*
X147807000Y-96354000D01*
X147817000Y-96313000D01*
X147829000Y-96273000D01*
X147843000Y-96233000D01*
X147859000Y-96195000D01*
X147877000Y-96157000D01*
X147897000Y-96120000D01*
X147919000Y-96084000D01*
X147943000Y-96050000D01*
X147968000Y-96017000D01*
X147995000Y-95985000D01*
X148024000Y-95954000D01*
X148055000Y-95925000D01*
X148087000Y-95898000D01*
X148120000Y-95873000D01*
X148154000Y-95849000D01*
X148190000Y-95827000D01*
X148227000Y-95807000D01*
X148265000Y-95789000D01*
X148303000Y-95773000D01*
X148343000Y-95759000D01*
X148383000Y-95747000D01*
X148424000Y-95737000D01*
X148465000Y-95730000D01*
X148506000Y-95724000D01*
X148548000Y-95721000D01*
X148590000Y-95720000D01*
X150990000Y-95720000D01*
X150990000Y-97320000D01*
G37*
X150990000Y-97320000D02*
X148590000Y-97320000D01*
X148548000Y-97319000D01*
X148506000Y-97316000D01*
X148465000Y-97310000D01*
X148424000Y-97303000D01*
X148383000Y-97293000D01*
X148343000Y-97281000D01*
X148303000Y-97267000D01*
X148265000Y-97251000D01*
X148227000Y-97233000D01*
X148190000Y-97213000D01*
X148154000Y-97191000D01*
X148120000Y-97167000D01*
X148087000Y-97142000D01*
X148055000Y-97115000D01*
X148024000Y-97086000D01*
X147995000Y-97055000D01*
X147968000Y-97023000D01*
X147943000Y-96990000D01*
X147919000Y-96956000D01*
X147897000Y-96920000D01*
X147877000Y-96883000D01*
X147859000Y-96845000D01*
X147843000Y-96807000D01*
X147829000Y-96767000D01*
X147817000Y-96727000D01*
X147807000Y-96686000D01*
X147800000Y-96645000D01*
X147794000Y-96604000D01*
X147791000Y-96562000D01*
X147790000Y-96520000D01*
X147791000Y-96478000D01*
X147794000Y-96436000D01*
X147800000Y-96395000D01*
X147807000Y-96354000D01*
X147817000Y-96313000D01*
X147829000Y-96273000D01*
X147843000Y-96233000D01*
X147859000Y-96195000D01*
X147877000Y-96157000D01*
X147897000Y-96120000D01*
X147919000Y-96084000D01*
X147943000Y-96050000D01*
X147968000Y-96017000D01*
X147995000Y-95985000D01*
X148024000Y-95954000D01*
X148055000Y-95925000D01*
X148087000Y-95898000D01*
X148120000Y-95873000D01*
X148154000Y-95849000D01*
X148190000Y-95827000D01*
X148227000Y-95807000D01*
X148265000Y-95789000D01*
X148303000Y-95773000D01*
X148343000Y-95759000D01*
X148383000Y-95747000D01*
X148424000Y-95737000D01*
X148465000Y-95730000D01*
X148506000Y-95724000D01*
X148548000Y-95721000D01*
X148590000Y-95720000D01*
X150990000Y-95720000D01*
X150990000Y-97320000D01*
G36*
X130852000Y-128741000D02*
G01*
X130894000Y-128744000D01*
X130935000Y-128750000D01*
X130976000Y-128757000D01*
X131017000Y-128767000D01*
X131057000Y-128779000D01*
X131097000Y-128793000D01*
X131135000Y-128809000D01*
X131173000Y-128827000D01*
X131210000Y-128847000D01*
X131246000Y-128869000D01*
X131280000Y-128893000D01*
X131313000Y-128918000D01*
X131345000Y-128945000D01*
X131376000Y-128974000D01*
X131405000Y-129005000D01*
X131432000Y-129037000D01*
X131457000Y-129070000D01*
X131481000Y-129104000D01*
X131503000Y-129140000D01*
X131523000Y-129177000D01*
X131541000Y-129215000D01*
X131557000Y-129253000D01*
X131571000Y-129293000D01*
X131583000Y-129333000D01*
X131593000Y-129374000D01*
X131600000Y-129415000D01*
X131606000Y-129456000D01*
X131609000Y-129498000D01*
X131610000Y-129540000D01*
X131609000Y-129582000D01*
X131606000Y-129624000D01*
X131600000Y-129665000D01*
X131593000Y-129706000D01*
X131583000Y-129747000D01*
X131571000Y-129787000D01*
X131557000Y-129827000D01*
X131541000Y-129865000D01*
X131523000Y-129903000D01*
X131503000Y-129940000D01*
X131481000Y-129976000D01*
X131457000Y-130010000D01*
X131432000Y-130043000D01*
X131405000Y-130075000D01*
X131376000Y-130106000D01*
X131345000Y-130135000D01*
X131313000Y-130162000D01*
X131280000Y-130187000D01*
X131246000Y-130211000D01*
X131210000Y-130233000D01*
X131173000Y-130253000D01*
X131135000Y-130271000D01*
X131097000Y-130287000D01*
X131057000Y-130301000D01*
X131017000Y-130313000D01*
X130976000Y-130323000D01*
X130935000Y-130330000D01*
X130894000Y-130336000D01*
X130852000Y-130339000D01*
X130810000Y-130340000D01*
X128410000Y-130340000D01*
X128410000Y-128740000D01*
X130810000Y-128740000D01*
X130852000Y-128741000D01*
G37*
X130852000Y-128741000D02*
X130894000Y-128744000D01*
X130935000Y-128750000D01*
X130976000Y-128757000D01*
X131017000Y-128767000D01*
X131057000Y-128779000D01*
X131097000Y-128793000D01*
X131135000Y-128809000D01*
X131173000Y-128827000D01*
X131210000Y-128847000D01*
X131246000Y-128869000D01*
X131280000Y-128893000D01*
X131313000Y-128918000D01*
X131345000Y-128945000D01*
X131376000Y-128974000D01*
X131405000Y-129005000D01*
X131432000Y-129037000D01*
X131457000Y-129070000D01*
X131481000Y-129104000D01*
X131503000Y-129140000D01*
X131523000Y-129177000D01*
X131541000Y-129215000D01*
X131557000Y-129253000D01*
X131571000Y-129293000D01*
X131583000Y-129333000D01*
X131593000Y-129374000D01*
X131600000Y-129415000D01*
X131606000Y-129456000D01*
X131609000Y-129498000D01*
X131610000Y-129540000D01*
X131609000Y-129582000D01*
X131606000Y-129624000D01*
X131600000Y-129665000D01*
X131593000Y-129706000D01*
X131583000Y-129747000D01*
X131571000Y-129787000D01*
X131557000Y-129827000D01*
X131541000Y-129865000D01*
X131523000Y-129903000D01*
X131503000Y-129940000D01*
X131481000Y-129976000D01*
X131457000Y-130010000D01*
X131432000Y-130043000D01*
X131405000Y-130075000D01*
X131376000Y-130106000D01*
X131345000Y-130135000D01*
X131313000Y-130162000D01*
X131280000Y-130187000D01*
X131246000Y-130211000D01*
X131210000Y-130233000D01*
X131173000Y-130253000D01*
X131135000Y-130271000D01*
X131097000Y-130287000D01*
X131057000Y-130301000D01*
X131017000Y-130313000D01*
X130976000Y-130323000D01*
X130935000Y-130330000D01*
X130894000Y-130336000D01*
X130852000Y-130339000D01*
X130810000Y-130340000D01*
X128410000Y-130340000D01*
X128410000Y-128740000D01*
X130810000Y-128740000D01*
X130852000Y-128741000D01*
G36*
X150990000Y-137960000D02*
G01*
X148590000Y-137960000D01*
X148548000Y-137959000D01*
X148506000Y-137956000D01*
X148465000Y-137950000D01*
X148424000Y-137943000D01*
X148383000Y-137933000D01*
X148343000Y-137921000D01*
X148303000Y-137907000D01*
X148265000Y-137891000D01*
X148227000Y-137873000D01*
X148190000Y-137853000D01*
X148154000Y-137831000D01*
X148120000Y-137807000D01*
X148087000Y-137782000D01*
X148055000Y-137755000D01*
X148024000Y-137726000D01*
X147995000Y-137695000D01*
X147968000Y-137663000D01*
X147943000Y-137630000D01*
X147919000Y-137596000D01*
X147897000Y-137560000D01*
X147877000Y-137523000D01*
X147859000Y-137485000D01*
X147843000Y-137447000D01*
X147829000Y-137407000D01*
X147817000Y-137367000D01*
X147807000Y-137326000D01*
X147800000Y-137285000D01*
X147794000Y-137244000D01*
X147791000Y-137202000D01*
X147790000Y-137160000D01*
X147791000Y-137118000D01*
X147794000Y-137076000D01*
X147800000Y-137035000D01*
X147807000Y-136994000D01*
X147817000Y-136953000D01*
X147829000Y-136913000D01*
X147843000Y-136873000D01*
X147859000Y-136835000D01*
X147877000Y-136797000D01*
X147897000Y-136760000D01*
X147919000Y-136724000D01*
X147943000Y-136690000D01*
X147968000Y-136657000D01*
X147995000Y-136625000D01*
X148024000Y-136594000D01*
X148055000Y-136565000D01*
X148087000Y-136538000D01*
X148120000Y-136513000D01*
X148154000Y-136489000D01*
X148190000Y-136467000D01*
X148227000Y-136447000D01*
X148265000Y-136429000D01*
X148303000Y-136413000D01*
X148343000Y-136399000D01*
X148383000Y-136387000D01*
X148424000Y-136377000D01*
X148465000Y-136370000D01*
X148506000Y-136364000D01*
X148548000Y-136361000D01*
X148590000Y-136360000D01*
X150990000Y-136360000D01*
X150990000Y-137960000D01*
G37*
X150990000Y-137960000D02*
X148590000Y-137960000D01*
X148548000Y-137959000D01*
X148506000Y-137956000D01*
X148465000Y-137950000D01*
X148424000Y-137943000D01*
X148383000Y-137933000D01*
X148343000Y-137921000D01*
X148303000Y-137907000D01*
X148265000Y-137891000D01*
X148227000Y-137873000D01*
X148190000Y-137853000D01*
X148154000Y-137831000D01*
X148120000Y-137807000D01*
X148087000Y-137782000D01*
X148055000Y-137755000D01*
X148024000Y-137726000D01*
X147995000Y-137695000D01*
X147968000Y-137663000D01*
X147943000Y-137630000D01*
X147919000Y-137596000D01*
X147897000Y-137560000D01*
X147877000Y-137523000D01*
X147859000Y-137485000D01*
X147843000Y-137447000D01*
X147829000Y-137407000D01*
X147817000Y-137367000D01*
X147807000Y-137326000D01*
X147800000Y-137285000D01*
X147794000Y-137244000D01*
X147791000Y-137202000D01*
X147790000Y-137160000D01*
X147791000Y-137118000D01*
X147794000Y-137076000D01*
X147800000Y-137035000D01*
X147807000Y-136994000D01*
X147817000Y-136953000D01*
X147829000Y-136913000D01*
X147843000Y-136873000D01*
X147859000Y-136835000D01*
X147877000Y-136797000D01*
X147897000Y-136760000D01*
X147919000Y-136724000D01*
X147943000Y-136690000D01*
X147968000Y-136657000D01*
X147995000Y-136625000D01*
X148024000Y-136594000D01*
X148055000Y-136565000D01*
X148087000Y-136538000D01*
X148120000Y-136513000D01*
X148154000Y-136489000D01*
X148190000Y-136467000D01*
X148227000Y-136447000D01*
X148265000Y-136429000D01*
X148303000Y-136413000D01*
X148343000Y-136399000D01*
X148383000Y-136387000D01*
X148424000Y-136377000D01*
X148465000Y-136370000D01*
X148506000Y-136364000D01*
X148548000Y-136361000D01*
X148590000Y-136360000D01*
X150990000Y-136360000D01*
X150990000Y-137960000D01*
G36*
X150990000Y-110020000D02*
G01*
X148590000Y-110020000D01*
X148548000Y-110019000D01*
X148506000Y-110016000D01*
X148465000Y-110010000D01*
X148424000Y-110003000D01*
X148383000Y-109993000D01*
X148343000Y-109981000D01*
X148303000Y-109967000D01*
X148265000Y-109951000D01*
X148227000Y-109933000D01*
X148190000Y-109913000D01*
X148154000Y-109891000D01*
X148120000Y-109867000D01*
X148087000Y-109842000D01*
X148055000Y-109815000D01*
X148024000Y-109786000D01*
X147995000Y-109755000D01*
X147968000Y-109723000D01*
X147943000Y-109690000D01*
X147919000Y-109656000D01*
X147897000Y-109620000D01*
X147877000Y-109583000D01*
X147859000Y-109545000D01*
X147843000Y-109507000D01*
X147829000Y-109467000D01*
X147817000Y-109427000D01*
X147807000Y-109386000D01*
X147800000Y-109345000D01*
X147794000Y-109304000D01*
X147791000Y-109262000D01*
X147790000Y-109220000D01*
X147791000Y-109178000D01*
X147794000Y-109136000D01*
X147800000Y-109095000D01*
X147807000Y-109054000D01*
X147817000Y-109013000D01*
X147829000Y-108973000D01*
X147843000Y-108933000D01*
X147859000Y-108895000D01*
X147877000Y-108857000D01*
X147897000Y-108820000D01*
X147919000Y-108784000D01*
X147943000Y-108750000D01*
X147968000Y-108717000D01*
X147995000Y-108685000D01*
X148024000Y-108654000D01*
X148055000Y-108625000D01*
X148087000Y-108598000D01*
X148120000Y-108573000D01*
X148154000Y-108549000D01*
X148190000Y-108527000D01*
X148227000Y-108507000D01*
X148265000Y-108489000D01*
X148303000Y-108473000D01*
X148343000Y-108459000D01*
X148383000Y-108447000D01*
X148424000Y-108437000D01*
X148465000Y-108430000D01*
X148506000Y-108424000D01*
X148548000Y-108421000D01*
X148590000Y-108420000D01*
X150990000Y-108420000D01*
X150990000Y-110020000D01*
G37*
X150990000Y-110020000D02*
X148590000Y-110020000D01*
X148548000Y-110019000D01*
X148506000Y-110016000D01*
X148465000Y-110010000D01*
X148424000Y-110003000D01*
X148383000Y-109993000D01*
X148343000Y-109981000D01*
X148303000Y-109967000D01*
X148265000Y-109951000D01*
X148227000Y-109933000D01*
X148190000Y-109913000D01*
X148154000Y-109891000D01*
X148120000Y-109867000D01*
X148087000Y-109842000D01*
X148055000Y-109815000D01*
X148024000Y-109786000D01*
X147995000Y-109755000D01*
X147968000Y-109723000D01*
X147943000Y-109690000D01*
X147919000Y-109656000D01*
X147897000Y-109620000D01*
X147877000Y-109583000D01*
X147859000Y-109545000D01*
X147843000Y-109507000D01*
X147829000Y-109467000D01*
X147817000Y-109427000D01*
X147807000Y-109386000D01*
X147800000Y-109345000D01*
X147794000Y-109304000D01*
X147791000Y-109262000D01*
X147790000Y-109220000D01*
X147791000Y-109178000D01*
X147794000Y-109136000D01*
X147800000Y-109095000D01*
X147807000Y-109054000D01*
X147817000Y-109013000D01*
X147829000Y-108973000D01*
X147843000Y-108933000D01*
X147859000Y-108895000D01*
X147877000Y-108857000D01*
X147897000Y-108820000D01*
X147919000Y-108784000D01*
X147943000Y-108750000D01*
X147968000Y-108717000D01*
X147995000Y-108685000D01*
X148024000Y-108654000D01*
X148055000Y-108625000D01*
X148087000Y-108598000D01*
X148120000Y-108573000D01*
X148154000Y-108549000D01*
X148190000Y-108527000D01*
X148227000Y-108507000D01*
X148265000Y-108489000D01*
X148303000Y-108473000D01*
X148343000Y-108459000D01*
X148383000Y-108447000D01*
X148424000Y-108437000D01*
X148465000Y-108430000D01*
X148506000Y-108424000D01*
X148548000Y-108421000D01*
X148590000Y-108420000D01*
X150990000Y-108420000D01*
X150990000Y-110020000D01*
G36*
X150990000Y-117640000D02*
G01*
X148590000Y-117640000D01*
X148548000Y-117639000D01*
X148506000Y-117636000D01*
X148465000Y-117630000D01*
X148424000Y-117623000D01*
X148383000Y-117613000D01*
X148343000Y-117601000D01*
X148303000Y-117587000D01*
X148265000Y-117571000D01*
X148227000Y-117553000D01*
X148190000Y-117533000D01*
X148154000Y-117511000D01*
X148120000Y-117487000D01*
X148087000Y-117462000D01*
X148055000Y-117435000D01*
X148024000Y-117406000D01*
X147995000Y-117375000D01*
X147968000Y-117343000D01*
X147943000Y-117310000D01*
X147919000Y-117276000D01*
X147897000Y-117240000D01*
X147877000Y-117203000D01*
X147859000Y-117165000D01*
X147843000Y-117127000D01*
X147829000Y-117087000D01*
X147817000Y-117047000D01*
X147807000Y-117006000D01*
X147800000Y-116965000D01*
X147794000Y-116924000D01*
X147791000Y-116882000D01*
X147790000Y-116840000D01*
X147791000Y-116798000D01*
X147794000Y-116756000D01*
X147800000Y-116715000D01*
X147807000Y-116674000D01*
X147817000Y-116633000D01*
X147829000Y-116593000D01*
X147843000Y-116553000D01*
X147859000Y-116515000D01*
X147877000Y-116477000D01*
X147897000Y-116440000D01*
X147919000Y-116404000D01*
X147943000Y-116370000D01*
X147968000Y-116337000D01*
X147995000Y-116305000D01*
X148024000Y-116274000D01*
X148055000Y-116245000D01*
X148087000Y-116218000D01*
X148120000Y-116193000D01*
X148154000Y-116169000D01*
X148190000Y-116147000D01*
X148227000Y-116127000D01*
X148265000Y-116109000D01*
X148303000Y-116093000D01*
X148343000Y-116079000D01*
X148383000Y-116067000D01*
X148424000Y-116057000D01*
X148465000Y-116050000D01*
X148506000Y-116044000D01*
X148548000Y-116041000D01*
X148590000Y-116040000D01*
X150990000Y-116040000D01*
X150990000Y-117640000D01*
G37*
X150990000Y-117640000D02*
X148590000Y-117640000D01*
X148548000Y-117639000D01*
X148506000Y-117636000D01*
X148465000Y-117630000D01*
X148424000Y-117623000D01*
X148383000Y-117613000D01*
X148343000Y-117601000D01*
X148303000Y-117587000D01*
X148265000Y-117571000D01*
X148227000Y-117553000D01*
X148190000Y-117533000D01*
X148154000Y-117511000D01*
X148120000Y-117487000D01*
X148087000Y-117462000D01*
X148055000Y-117435000D01*
X148024000Y-117406000D01*
X147995000Y-117375000D01*
X147968000Y-117343000D01*
X147943000Y-117310000D01*
X147919000Y-117276000D01*
X147897000Y-117240000D01*
X147877000Y-117203000D01*
X147859000Y-117165000D01*
X147843000Y-117127000D01*
X147829000Y-117087000D01*
X147817000Y-117047000D01*
X147807000Y-117006000D01*
X147800000Y-116965000D01*
X147794000Y-116924000D01*
X147791000Y-116882000D01*
X147790000Y-116840000D01*
X147791000Y-116798000D01*
X147794000Y-116756000D01*
X147800000Y-116715000D01*
X147807000Y-116674000D01*
X147817000Y-116633000D01*
X147829000Y-116593000D01*
X147843000Y-116553000D01*
X147859000Y-116515000D01*
X147877000Y-116477000D01*
X147897000Y-116440000D01*
X147919000Y-116404000D01*
X147943000Y-116370000D01*
X147968000Y-116337000D01*
X147995000Y-116305000D01*
X148024000Y-116274000D01*
X148055000Y-116245000D01*
X148087000Y-116218000D01*
X148120000Y-116193000D01*
X148154000Y-116169000D01*
X148190000Y-116147000D01*
X148227000Y-116127000D01*
X148265000Y-116109000D01*
X148303000Y-116093000D01*
X148343000Y-116079000D01*
X148383000Y-116067000D01*
X148424000Y-116057000D01*
X148465000Y-116050000D01*
X148506000Y-116044000D01*
X148548000Y-116041000D01*
X148590000Y-116040000D01*
X150990000Y-116040000D01*
X150990000Y-117640000D01*
G36*
X130852000Y-133821000D02*
G01*
X130894000Y-133824000D01*
X130935000Y-133830000D01*
X130976000Y-133837000D01*
X131017000Y-133847000D01*
X131057000Y-133859000D01*
X131097000Y-133873000D01*
X131135000Y-133889000D01*
X131173000Y-133907000D01*
X131210000Y-133927000D01*
X131246000Y-133949000D01*
X131280000Y-133973000D01*
X131313000Y-133998000D01*
X131345000Y-134025000D01*
X131376000Y-134054000D01*
X131405000Y-134085000D01*
X131432000Y-134117000D01*
X131457000Y-134150000D01*
X131481000Y-134184000D01*
X131503000Y-134220000D01*
X131523000Y-134257000D01*
X131541000Y-134295000D01*
X131557000Y-134333000D01*
X131571000Y-134373000D01*
X131583000Y-134413000D01*
X131593000Y-134454000D01*
X131600000Y-134495000D01*
X131606000Y-134536000D01*
X131609000Y-134578000D01*
X131610000Y-134620000D01*
X131609000Y-134662000D01*
X131606000Y-134704000D01*
X131600000Y-134745000D01*
X131593000Y-134786000D01*
X131583000Y-134827000D01*
X131571000Y-134867000D01*
X131557000Y-134907000D01*
X131541000Y-134945000D01*
X131523000Y-134983000D01*
X131503000Y-135020000D01*
X131481000Y-135056000D01*
X131457000Y-135090000D01*
X131432000Y-135123000D01*
X131405000Y-135155000D01*
X131376000Y-135186000D01*
X131345000Y-135215000D01*
X131313000Y-135242000D01*
X131280000Y-135267000D01*
X131246000Y-135291000D01*
X131210000Y-135313000D01*
X131173000Y-135333000D01*
X131135000Y-135351000D01*
X131097000Y-135367000D01*
X131057000Y-135381000D01*
X131017000Y-135393000D01*
X130976000Y-135403000D01*
X130935000Y-135410000D01*
X130894000Y-135416000D01*
X130852000Y-135419000D01*
X130810000Y-135420000D01*
X128410000Y-135420000D01*
X128410000Y-133820000D01*
X130810000Y-133820000D01*
X130852000Y-133821000D01*
G37*
X130852000Y-133821000D02*
X130894000Y-133824000D01*
X130935000Y-133830000D01*
X130976000Y-133837000D01*
X131017000Y-133847000D01*
X131057000Y-133859000D01*
X131097000Y-133873000D01*
X131135000Y-133889000D01*
X131173000Y-133907000D01*
X131210000Y-133927000D01*
X131246000Y-133949000D01*
X131280000Y-133973000D01*
X131313000Y-133998000D01*
X131345000Y-134025000D01*
X131376000Y-134054000D01*
X131405000Y-134085000D01*
X131432000Y-134117000D01*
X131457000Y-134150000D01*
X131481000Y-134184000D01*
X131503000Y-134220000D01*
X131523000Y-134257000D01*
X131541000Y-134295000D01*
X131557000Y-134333000D01*
X131571000Y-134373000D01*
X131583000Y-134413000D01*
X131593000Y-134454000D01*
X131600000Y-134495000D01*
X131606000Y-134536000D01*
X131609000Y-134578000D01*
X131610000Y-134620000D01*
X131609000Y-134662000D01*
X131606000Y-134704000D01*
X131600000Y-134745000D01*
X131593000Y-134786000D01*
X131583000Y-134827000D01*
X131571000Y-134867000D01*
X131557000Y-134907000D01*
X131541000Y-134945000D01*
X131523000Y-134983000D01*
X131503000Y-135020000D01*
X131481000Y-135056000D01*
X131457000Y-135090000D01*
X131432000Y-135123000D01*
X131405000Y-135155000D01*
X131376000Y-135186000D01*
X131345000Y-135215000D01*
X131313000Y-135242000D01*
X131280000Y-135267000D01*
X131246000Y-135291000D01*
X131210000Y-135313000D01*
X131173000Y-135333000D01*
X131135000Y-135351000D01*
X131097000Y-135367000D01*
X131057000Y-135381000D01*
X131017000Y-135393000D01*
X130976000Y-135403000D01*
X130935000Y-135410000D01*
X130894000Y-135416000D01*
X130852000Y-135419000D01*
X130810000Y-135420000D01*
X128410000Y-135420000D01*
X128410000Y-133820000D01*
X130810000Y-133820000D01*
X130852000Y-133821000D01*
G36*
X131431000Y-138901000D02*
G01*
X131441000Y-138902000D01*
X131452000Y-138904000D01*
X131482000Y-138913000D01*
X131491000Y-138917000D01*
X131501000Y-138922000D01*
X131519000Y-138932000D01*
X131528000Y-138938000D01*
X131536000Y-138945000D01*
X131544000Y-138951000D01*
X131551000Y-138959000D01*
X131559000Y-138966000D01*
X131565000Y-138974000D01*
X131572000Y-138982000D01*
X131578000Y-138991000D01*
X131588000Y-139009000D01*
X131593000Y-139019000D01*
X131597000Y-139028000D01*
X131606000Y-139058000D01*
X131608000Y-139069000D01*
X131609000Y-139079000D01*
X131610000Y-139090000D01*
X131610000Y-140310000D01*
X131609000Y-140321000D01*
X131608000Y-140331000D01*
X131606000Y-140342000D01*
X131597000Y-140372000D01*
X131593000Y-140381000D01*
X131588000Y-140391000D01*
X131578000Y-140409000D01*
X131572000Y-140418000D01*
X131565000Y-140426000D01*
X131559000Y-140434000D01*
X131551000Y-140441000D01*
X131544000Y-140449000D01*
X131536000Y-140455000D01*
X131528000Y-140462000D01*
X131519000Y-140468000D01*
X131501000Y-140478000D01*
X131491000Y-140483000D01*
X131482000Y-140487000D01*
X131452000Y-140496000D01*
X131441000Y-140498000D01*
X131431000Y-140499000D01*
X131420000Y-140500000D01*
X128410000Y-140500000D01*
X128410000Y-138900000D01*
X131420000Y-138900000D01*
X131431000Y-138901000D01*
G37*
X131431000Y-138901000D02*
X131441000Y-138902000D01*
X131452000Y-138904000D01*
X131482000Y-138913000D01*
X131491000Y-138917000D01*
X131501000Y-138922000D01*
X131519000Y-138932000D01*
X131528000Y-138938000D01*
X131536000Y-138945000D01*
X131544000Y-138951000D01*
X131551000Y-138959000D01*
X131559000Y-138966000D01*
X131565000Y-138974000D01*
X131572000Y-138982000D01*
X131578000Y-138991000D01*
X131588000Y-139009000D01*
X131593000Y-139019000D01*
X131597000Y-139028000D01*
X131606000Y-139058000D01*
X131608000Y-139069000D01*
X131609000Y-139079000D01*
X131610000Y-139090000D01*
X131610000Y-140310000D01*
X131609000Y-140321000D01*
X131608000Y-140331000D01*
X131606000Y-140342000D01*
X131597000Y-140372000D01*
X131593000Y-140381000D01*
X131588000Y-140391000D01*
X131578000Y-140409000D01*
X131572000Y-140418000D01*
X131565000Y-140426000D01*
X131559000Y-140434000D01*
X131551000Y-140441000D01*
X131544000Y-140449000D01*
X131536000Y-140455000D01*
X131528000Y-140462000D01*
X131519000Y-140468000D01*
X131501000Y-140478000D01*
X131491000Y-140483000D01*
X131482000Y-140487000D01*
X131452000Y-140496000D01*
X131441000Y-140498000D01*
X131431000Y-140499000D01*
X131420000Y-140500000D01*
X128410000Y-140500000D01*
X128410000Y-138900000D01*
X131420000Y-138900000D01*
X131431000Y-138901000D01*
G36*
X130852000Y-136361000D02*
G01*
X130894000Y-136364000D01*
X130935000Y-136370000D01*
X130976000Y-136377000D01*
X131017000Y-136387000D01*
X131057000Y-136399000D01*
X131097000Y-136413000D01*
X131135000Y-136429000D01*
X131173000Y-136447000D01*
X131210000Y-136467000D01*
X131246000Y-136489000D01*
X131280000Y-136513000D01*
X131313000Y-136538000D01*
X131345000Y-136565000D01*
X131376000Y-136594000D01*
X131405000Y-136625000D01*
X131432000Y-136657000D01*
X131457000Y-136690000D01*
X131481000Y-136724000D01*
X131503000Y-136760000D01*
X131523000Y-136797000D01*
X131541000Y-136835000D01*
X131557000Y-136873000D01*
X131571000Y-136913000D01*
X131583000Y-136953000D01*
X131593000Y-136994000D01*
X131600000Y-137035000D01*
X131606000Y-137076000D01*
X131609000Y-137118000D01*
X131610000Y-137160000D01*
X131609000Y-137202000D01*
X131606000Y-137244000D01*
X131600000Y-137285000D01*
X131593000Y-137326000D01*
X131583000Y-137367000D01*
X131571000Y-137407000D01*
X131557000Y-137447000D01*
X131541000Y-137485000D01*
X131523000Y-137523000D01*
X131503000Y-137560000D01*
X131481000Y-137596000D01*
X131457000Y-137630000D01*
X131432000Y-137663000D01*
X131405000Y-137695000D01*
X131376000Y-137726000D01*
X131345000Y-137755000D01*
X131313000Y-137782000D01*
X131280000Y-137807000D01*
X131246000Y-137831000D01*
X131210000Y-137853000D01*
X131173000Y-137873000D01*
X131135000Y-137891000D01*
X131097000Y-137907000D01*
X131057000Y-137921000D01*
X131017000Y-137933000D01*
X130976000Y-137943000D01*
X130935000Y-137950000D01*
X130894000Y-137956000D01*
X130852000Y-137959000D01*
X130810000Y-137960000D01*
X128410000Y-137960000D01*
X128410000Y-136360000D01*
X130810000Y-136360000D01*
X130852000Y-136361000D01*
G37*
X130852000Y-136361000D02*
X130894000Y-136364000D01*
X130935000Y-136370000D01*
X130976000Y-136377000D01*
X131017000Y-136387000D01*
X131057000Y-136399000D01*
X131097000Y-136413000D01*
X131135000Y-136429000D01*
X131173000Y-136447000D01*
X131210000Y-136467000D01*
X131246000Y-136489000D01*
X131280000Y-136513000D01*
X131313000Y-136538000D01*
X131345000Y-136565000D01*
X131376000Y-136594000D01*
X131405000Y-136625000D01*
X131432000Y-136657000D01*
X131457000Y-136690000D01*
X131481000Y-136724000D01*
X131503000Y-136760000D01*
X131523000Y-136797000D01*
X131541000Y-136835000D01*
X131557000Y-136873000D01*
X131571000Y-136913000D01*
X131583000Y-136953000D01*
X131593000Y-136994000D01*
X131600000Y-137035000D01*
X131606000Y-137076000D01*
X131609000Y-137118000D01*
X131610000Y-137160000D01*
X131609000Y-137202000D01*
X131606000Y-137244000D01*
X131600000Y-137285000D01*
X131593000Y-137326000D01*
X131583000Y-137367000D01*
X131571000Y-137407000D01*
X131557000Y-137447000D01*
X131541000Y-137485000D01*
X131523000Y-137523000D01*
X131503000Y-137560000D01*
X131481000Y-137596000D01*
X131457000Y-137630000D01*
X131432000Y-137663000D01*
X131405000Y-137695000D01*
X131376000Y-137726000D01*
X131345000Y-137755000D01*
X131313000Y-137782000D01*
X131280000Y-137807000D01*
X131246000Y-137831000D01*
X131210000Y-137853000D01*
X131173000Y-137873000D01*
X131135000Y-137891000D01*
X131097000Y-137907000D01*
X131057000Y-137921000D01*
X131017000Y-137933000D01*
X130976000Y-137943000D01*
X130935000Y-137950000D01*
X130894000Y-137956000D01*
X130852000Y-137959000D01*
X130810000Y-137960000D01*
X128410000Y-137960000D01*
X128410000Y-136360000D01*
X130810000Y-136360000D01*
X130852000Y-136361000D01*
G36*
X150990000Y-140500000D02*
G01*
X147980000Y-140500000D01*
X147969000Y-140499000D01*
X147959000Y-140498000D01*
X147948000Y-140496000D01*
X147918000Y-140487000D01*
X147909000Y-140483000D01*
X147899000Y-140478000D01*
X147881000Y-140468000D01*
X147872000Y-140462000D01*
X147864000Y-140455000D01*
X147856000Y-140449000D01*
X147849000Y-140441000D01*
X147841000Y-140434000D01*
X147835000Y-140426000D01*
X147828000Y-140418000D01*
X147822000Y-140409000D01*
X147812000Y-140391000D01*
X147807000Y-140381000D01*
X147803000Y-140372000D01*
X147794000Y-140342000D01*
X147792000Y-140331000D01*
X147791000Y-140321000D01*
X147790000Y-140310000D01*
X147790000Y-139090000D01*
X147791000Y-139079000D01*
X147792000Y-139069000D01*
X147794000Y-139058000D01*
X147803000Y-139028000D01*
X147807000Y-139019000D01*
X147812000Y-139009000D01*
X147822000Y-138991000D01*
X147828000Y-138982000D01*
X147835000Y-138974000D01*
X147841000Y-138966000D01*
X147849000Y-138959000D01*
X147856000Y-138951000D01*
X147864000Y-138945000D01*
X147872000Y-138938000D01*
X147881000Y-138932000D01*
X147899000Y-138922000D01*
X147909000Y-138917000D01*
X147918000Y-138913000D01*
X147948000Y-138904000D01*
X147959000Y-138902000D01*
X147969000Y-138901000D01*
X147980000Y-138900000D01*
X150990000Y-138900000D01*
X150990000Y-140500000D01*
G37*
X150990000Y-140500000D02*
X147980000Y-140500000D01*
X147969000Y-140499000D01*
X147959000Y-140498000D01*
X147948000Y-140496000D01*
X147918000Y-140487000D01*
X147909000Y-140483000D01*
X147899000Y-140478000D01*
X147881000Y-140468000D01*
X147872000Y-140462000D01*
X147864000Y-140455000D01*
X147856000Y-140449000D01*
X147849000Y-140441000D01*
X147841000Y-140434000D01*
X147835000Y-140426000D01*
X147828000Y-140418000D01*
X147822000Y-140409000D01*
X147812000Y-140391000D01*
X147807000Y-140381000D01*
X147803000Y-140372000D01*
X147794000Y-140342000D01*
X147792000Y-140331000D01*
X147791000Y-140321000D01*
X147790000Y-140310000D01*
X147790000Y-139090000D01*
X147791000Y-139079000D01*
X147792000Y-139069000D01*
X147794000Y-139058000D01*
X147803000Y-139028000D01*
X147807000Y-139019000D01*
X147812000Y-139009000D01*
X147822000Y-138991000D01*
X147828000Y-138982000D01*
X147835000Y-138974000D01*
X147841000Y-138966000D01*
X147849000Y-138959000D01*
X147856000Y-138951000D01*
X147864000Y-138945000D01*
X147872000Y-138938000D01*
X147881000Y-138932000D01*
X147899000Y-138922000D01*
X147909000Y-138917000D01*
X147918000Y-138913000D01*
X147948000Y-138904000D01*
X147959000Y-138902000D01*
X147969000Y-138901000D01*
X147980000Y-138900000D01*
X150990000Y-138900000D01*
X150990000Y-140500000D01*
G36*
X150990000Y-122720000D02*
G01*
X148590000Y-122720000D01*
X148548000Y-122719000D01*
X148506000Y-122716000D01*
X148465000Y-122710000D01*
X148424000Y-122703000D01*
X148383000Y-122693000D01*
X148343000Y-122681000D01*
X148303000Y-122667000D01*
X148265000Y-122651000D01*
X148227000Y-122633000D01*
X148190000Y-122613000D01*
X148154000Y-122591000D01*
X148120000Y-122567000D01*
X148087000Y-122542000D01*
X148055000Y-122515000D01*
X148024000Y-122486000D01*
X147995000Y-122455000D01*
X147968000Y-122423000D01*
X147943000Y-122390000D01*
X147919000Y-122356000D01*
X147897000Y-122320000D01*
X147877000Y-122283000D01*
X147859000Y-122245000D01*
X147843000Y-122207000D01*
X147829000Y-122167000D01*
X147817000Y-122127000D01*
X147807000Y-122086000D01*
X147800000Y-122045000D01*
X147794000Y-122004000D01*
X147791000Y-121962000D01*
X147790000Y-121920000D01*
X147791000Y-121878000D01*
X147794000Y-121836000D01*
X147800000Y-121795000D01*
X147807000Y-121754000D01*
X147817000Y-121713000D01*
X147829000Y-121673000D01*
X147843000Y-121633000D01*
X147859000Y-121595000D01*
X147877000Y-121557000D01*
X147897000Y-121520000D01*
X147919000Y-121484000D01*
X147943000Y-121450000D01*
X147968000Y-121417000D01*
X147995000Y-121385000D01*
X148024000Y-121354000D01*
X148055000Y-121325000D01*
X148087000Y-121298000D01*
X148120000Y-121273000D01*
X148154000Y-121249000D01*
X148190000Y-121227000D01*
X148227000Y-121207000D01*
X148265000Y-121189000D01*
X148303000Y-121173000D01*
X148343000Y-121159000D01*
X148383000Y-121147000D01*
X148424000Y-121137000D01*
X148465000Y-121130000D01*
X148506000Y-121124000D01*
X148548000Y-121121000D01*
X148590000Y-121120000D01*
X150990000Y-121120000D01*
X150990000Y-122720000D01*
G37*
X150990000Y-122720000D02*
X148590000Y-122720000D01*
X148548000Y-122719000D01*
X148506000Y-122716000D01*
X148465000Y-122710000D01*
X148424000Y-122703000D01*
X148383000Y-122693000D01*
X148343000Y-122681000D01*
X148303000Y-122667000D01*
X148265000Y-122651000D01*
X148227000Y-122633000D01*
X148190000Y-122613000D01*
X148154000Y-122591000D01*
X148120000Y-122567000D01*
X148087000Y-122542000D01*
X148055000Y-122515000D01*
X148024000Y-122486000D01*
X147995000Y-122455000D01*
X147968000Y-122423000D01*
X147943000Y-122390000D01*
X147919000Y-122356000D01*
X147897000Y-122320000D01*
X147877000Y-122283000D01*
X147859000Y-122245000D01*
X147843000Y-122207000D01*
X147829000Y-122167000D01*
X147817000Y-122127000D01*
X147807000Y-122086000D01*
X147800000Y-122045000D01*
X147794000Y-122004000D01*
X147791000Y-121962000D01*
X147790000Y-121920000D01*
X147791000Y-121878000D01*
X147794000Y-121836000D01*
X147800000Y-121795000D01*
X147807000Y-121754000D01*
X147817000Y-121713000D01*
X147829000Y-121673000D01*
X147843000Y-121633000D01*
X147859000Y-121595000D01*
X147877000Y-121557000D01*
X147897000Y-121520000D01*
X147919000Y-121484000D01*
X147943000Y-121450000D01*
X147968000Y-121417000D01*
X147995000Y-121385000D01*
X148024000Y-121354000D01*
X148055000Y-121325000D01*
X148087000Y-121298000D01*
X148120000Y-121273000D01*
X148154000Y-121249000D01*
X148190000Y-121227000D01*
X148227000Y-121207000D01*
X148265000Y-121189000D01*
X148303000Y-121173000D01*
X148343000Y-121159000D01*
X148383000Y-121147000D01*
X148424000Y-121137000D01*
X148465000Y-121130000D01*
X148506000Y-121124000D01*
X148548000Y-121121000D01*
X148590000Y-121120000D01*
X150990000Y-121120000D01*
X150990000Y-122720000D01*
G36*
X150990000Y-132880000D02*
G01*
X148590000Y-132880000D01*
X148548000Y-132879000D01*
X148506000Y-132876000D01*
X148465000Y-132870000D01*
X148424000Y-132863000D01*
X148383000Y-132853000D01*
X148343000Y-132841000D01*
X148303000Y-132827000D01*
X148265000Y-132811000D01*
X148227000Y-132793000D01*
X148190000Y-132773000D01*
X148154000Y-132751000D01*
X148120000Y-132727000D01*
X148087000Y-132702000D01*
X148055000Y-132675000D01*
X148024000Y-132646000D01*
X147995000Y-132615000D01*
X147968000Y-132583000D01*
X147943000Y-132550000D01*
X147919000Y-132516000D01*
X147897000Y-132480000D01*
X147877000Y-132443000D01*
X147859000Y-132405000D01*
X147843000Y-132367000D01*
X147829000Y-132327000D01*
X147817000Y-132287000D01*
X147807000Y-132246000D01*
X147800000Y-132205000D01*
X147794000Y-132164000D01*
X147791000Y-132122000D01*
X147790000Y-132080000D01*
X147791000Y-132038000D01*
X147794000Y-131996000D01*
X147800000Y-131955000D01*
X147807000Y-131914000D01*
X147817000Y-131873000D01*
X147829000Y-131833000D01*
X147843000Y-131793000D01*
X147859000Y-131755000D01*
X147877000Y-131717000D01*
X147897000Y-131680000D01*
X147919000Y-131644000D01*
X147943000Y-131610000D01*
X147968000Y-131577000D01*
X147995000Y-131545000D01*
X148024000Y-131514000D01*
X148055000Y-131485000D01*
X148087000Y-131458000D01*
X148120000Y-131433000D01*
X148154000Y-131409000D01*
X148190000Y-131387000D01*
X148227000Y-131367000D01*
X148265000Y-131349000D01*
X148303000Y-131333000D01*
X148343000Y-131319000D01*
X148383000Y-131307000D01*
X148424000Y-131297000D01*
X148465000Y-131290000D01*
X148506000Y-131284000D01*
X148548000Y-131281000D01*
X148590000Y-131280000D01*
X150990000Y-131280000D01*
X150990000Y-132880000D01*
G37*
X150990000Y-132880000D02*
X148590000Y-132880000D01*
X148548000Y-132879000D01*
X148506000Y-132876000D01*
X148465000Y-132870000D01*
X148424000Y-132863000D01*
X148383000Y-132853000D01*
X148343000Y-132841000D01*
X148303000Y-132827000D01*
X148265000Y-132811000D01*
X148227000Y-132793000D01*
X148190000Y-132773000D01*
X148154000Y-132751000D01*
X148120000Y-132727000D01*
X148087000Y-132702000D01*
X148055000Y-132675000D01*
X148024000Y-132646000D01*
X147995000Y-132615000D01*
X147968000Y-132583000D01*
X147943000Y-132550000D01*
X147919000Y-132516000D01*
X147897000Y-132480000D01*
X147877000Y-132443000D01*
X147859000Y-132405000D01*
X147843000Y-132367000D01*
X147829000Y-132327000D01*
X147817000Y-132287000D01*
X147807000Y-132246000D01*
X147800000Y-132205000D01*
X147794000Y-132164000D01*
X147791000Y-132122000D01*
X147790000Y-132080000D01*
X147791000Y-132038000D01*
X147794000Y-131996000D01*
X147800000Y-131955000D01*
X147807000Y-131914000D01*
X147817000Y-131873000D01*
X147829000Y-131833000D01*
X147843000Y-131793000D01*
X147859000Y-131755000D01*
X147877000Y-131717000D01*
X147897000Y-131680000D01*
X147919000Y-131644000D01*
X147943000Y-131610000D01*
X147968000Y-131577000D01*
X147995000Y-131545000D01*
X148024000Y-131514000D01*
X148055000Y-131485000D01*
X148087000Y-131458000D01*
X148120000Y-131433000D01*
X148154000Y-131409000D01*
X148190000Y-131387000D01*
X148227000Y-131367000D01*
X148265000Y-131349000D01*
X148303000Y-131333000D01*
X148343000Y-131319000D01*
X148383000Y-131307000D01*
X148424000Y-131297000D01*
X148465000Y-131290000D01*
X148506000Y-131284000D01*
X148548000Y-131281000D01*
X148590000Y-131280000D01*
X150990000Y-131280000D01*
X150990000Y-132880000D01*
G36*
X130852000Y-103341000D02*
G01*
X130894000Y-103344000D01*
X130935000Y-103350000D01*
X130976000Y-103357000D01*
X131017000Y-103367000D01*
X131057000Y-103379000D01*
X131097000Y-103393000D01*
X131135000Y-103409000D01*
X131173000Y-103427000D01*
X131210000Y-103447000D01*
X131246000Y-103469000D01*
X131280000Y-103493000D01*
X131313000Y-103518000D01*
X131345000Y-103545000D01*
X131376000Y-103574000D01*
X131405000Y-103605000D01*
X131432000Y-103637000D01*
X131457000Y-103670000D01*
X131481000Y-103704000D01*
X131503000Y-103740000D01*
X131523000Y-103777000D01*
X131541000Y-103815000D01*
X131557000Y-103853000D01*
X131571000Y-103893000D01*
X131583000Y-103933000D01*
X131593000Y-103974000D01*
X131600000Y-104015000D01*
X131606000Y-104056000D01*
X131609000Y-104098000D01*
X131610000Y-104140000D01*
X131609000Y-104182000D01*
X131606000Y-104224000D01*
X131600000Y-104265000D01*
X131593000Y-104306000D01*
X131583000Y-104347000D01*
X131571000Y-104387000D01*
X131557000Y-104427000D01*
X131541000Y-104465000D01*
X131523000Y-104503000D01*
X131503000Y-104540000D01*
X131481000Y-104576000D01*
X131457000Y-104610000D01*
X131432000Y-104643000D01*
X131405000Y-104675000D01*
X131376000Y-104706000D01*
X131345000Y-104735000D01*
X131313000Y-104762000D01*
X131280000Y-104787000D01*
X131246000Y-104811000D01*
X131210000Y-104833000D01*
X131173000Y-104853000D01*
X131135000Y-104871000D01*
X131097000Y-104887000D01*
X131057000Y-104901000D01*
X131017000Y-104913000D01*
X130976000Y-104923000D01*
X130935000Y-104930000D01*
X130894000Y-104936000D01*
X130852000Y-104939000D01*
X130810000Y-104940000D01*
X128410000Y-104940000D01*
X128410000Y-103340000D01*
X130810000Y-103340000D01*
X130852000Y-103341000D01*
G37*
X130852000Y-103341000D02*
X130894000Y-103344000D01*
X130935000Y-103350000D01*
X130976000Y-103357000D01*
X131017000Y-103367000D01*
X131057000Y-103379000D01*
X131097000Y-103393000D01*
X131135000Y-103409000D01*
X131173000Y-103427000D01*
X131210000Y-103447000D01*
X131246000Y-103469000D01*
X131280000Y-103493000D01*
X131313000Y-103518000D01*
X131345000Y-103545000D01*
X131376000Y-103574000D01*
X131405000Y-103605000D01*
X131432000Y-103637000D01*
X131457000Y-103670000D01*
X131481000Y-103704000D01*
X131503000Y-103740000D01*
X131523000Y-103777000D01*
X131541000Y-103815000D01*
X131557000Y-103853000D01*
X131571000Y-103893000D01*
X131583000Y-103933000D01*
X131593000Y-103974000D01*
X131600000Y-104015000D01*
X131606000Y-104056000D01*
X131609000Y-104098000D01*
X131610000Y-104140000D01*
X131609000Y-104182000D01*
X131606000Y-104224000D01*
X131600000Y-104265000D01*
X131593000Y-104306000D01*
X131583000Y-104347000D01*
X131571000Y-104387000D01*
X131557000Y-104427000D01*
X131541000Y-104465000D01*
X131523000Y-104503000D01*
X131503000Y-104540000D01*
X131481000Y-104576000D01*
X131457000Y-104610000D01*
X131432000Y-104643000D01*
X131405000Y-104675000D01*
X131376000Y-104706000D01*
X131345000Y-104735000D01*
X131313000Y-104762000D01*
X131280000Y-104787000D01*
X131246000Y-104811000D01*
X131210000Y-104833000D01*
X131173000Y-104853000D01*
X131135000Y-104871000D01*
X131097000Y-104887000D01*
X131057000Y-104901000D01*
X131017000Y-104913000D01*
X130976000Y-104923000D01*
X130935000Y-104930000D01*
X130894000Y-104936000D01*
X130852000Y-104939000D01*
X130810000Y-104940000D01*
X128410000Y-104940000D01*
X128410000Y-103340000D01*
X130810000Y-103340000D01*
X130852000Y-103341000D01*
G36*
X130852000Y-95721000D02*
G01*
X130894000Y-95724000D01*
X130935000Y-95730000D01*
X130976000Y-95737000D01*
X131017000Y-95747000D01*
X131057000Y-95759000D01*
X131097000Y-95773000D01*
X131135000Y-95789000D01*
X131173000Y-95807000D01*
X131210000Y-95827000D01*
X131246000Y-95849000D01*
X131280000Y-95873000D01*
X131313000Y-95898000D01*
X131345000Y-95925000D01*
X131376000Y-95954000D01*
X131405000Y-95985000D01*
X131432000Y-96017000D01*
X131457000Y-96050000D01*
X131481000Y-96084000D01*
X131503000Y-96120000D01*
X131523000Y-96157000D01*
X131541000Y-96195000D01*
X131557000Y-96233000D01*
X131571000Y-96273000D01*
X131583000Y-96313000D01*
X131593000Y-96354000D01*
X131600000Y-96395000D01*
X131606000Y-96436000D01*
X131609000Y-96478000D01*
X131610000Y-96520000D01*
X131609000Y-96562000D01*
X131606000Y-96604000D01*
X131600000Y-96645000D01*
X131593000Y-96686000D01*
X131583000Y-96727000D01*
X131571000Y-96767000D01*
X131557000Y-96807000D01*
X131541000Y-96845000D01*
X131523000Y-96883000D01*
X131503000Y-96920000D01*
X131481000Y-96956000D01*
X131457000Y-96990000D01*
X131432000Y-97023000D01*
X131405000Y-97055000D01*
X131376000Y-97086000D01*
X131345000Y-97115000D01*
X131313000Y-97142000D01*
X131280000Y-97167000D01*
X131246000Y-97191000D01*
X131210000Y-97213000D01*
X131173000Y-97233000D01*
X131135000Y-97251000D01*
X131097000Y-97267000D01*
X131057000Y-97281000D01*
X131017000Y-97293000D01*
X130976000Y-97303000D01*
X130935000Y-97310000D01*
X130894000Y-97316000D01*
X130852000Y-97319000D01*
X130810000Y-97320000D01*
X128410000Y-97320000D01*
X128410000Y-95720000D01*
X130810000Y-95720000D01*
X130852000Y-95721000D01*
G37*
X130852000Y-95721000D02*
X130894000Y-95724000D01*
X130935000Y-95730000D01*
X130976000Y-95737000D01*
X131017000Y-95747000D01*
X131057000Y-95759000D01*
X131097000Y-95773000D01*
X131135000Y-95789000D01*
X131173000Y-95807000D01*
X131210000Y-95827000D01*
X131246000Y-95849000D01*
X131280000Y-95873000D01*
X131313000Y-95898000D01*
X131345000Y-95925000D01*
X131376000Y-95954000D01*
X131405000Y-95985000D01*
X131432000Y-96017000D01*
X131457000Y-96050000D01*
X131481000Y-96084000D01*
X131503000Y-96120000D01*
X131523000Y-96157000D01*
X131541000Y-96195000D01*
X131557000Y-96233000D01*
X131571000Y-96273000D01*
X131583000Y-96313000D01*
X131593000Y-96354000D01*
X131600000Y-96395000D01*
X131606000Y-96436000D01*
X131609000Y-96478000D01*
X131610000Y-96520000D01*
X131609000Y-96562000D01*
X131606000Y-96604000D01*
X131600000Y-96645000D01*
X131593000Y-96686000D01*
X131583000Y-96727000D01*
X131571000Y-96767000D01*
X131557000Y-96807000D01*
X131541000Y-96845000D01*
X131523000Y-96883000D01*
X131503000Y-96920000D01*
X131481000Y-96956000D01*
X131457000Y-96990000D01*
X131432000Y-97023000D01*
X131405000Y-97055000D01*
X131376000Y-97086000D01*
X131345000Y-97115000D01*
X131313000Y-97142000D01*
X131280000Y-97167000D01*
X131246000Y-97191000D01*
X131210000Y-97213000D01*
X131173000Y-97233000D01*
X131135000Y-97251000D01*
X131097000Y-97267000D01*
X131057000Y-97281000D01*
X131017000Y-97293000D01*
X130976000Y-97303000D01*
X130935000Y-97310000D01*
X130894000Y-97316000D01*
X130852000Y-97319000D01*
X130810000Y-97320000D01*
X128410000Y-97320000D01*
X128410000Y-95720000D01*
X130810000Y-95720000D01*
X130852000Y-95721000D01*
G36*
X150990000Y-112560000D02*
G01*
X148590000Y-112560000D01*
X148548000Y-112559000D01*
X148506000Y-112556000D01*
X148465000Y-112550000D01*
X148424000Y-112543000D01*
X148383000Y-112533000D01*
X148343000Y-112521000D01*
X148303000Y-112507000D01*
X148265000Y-112491000D01*
X148227000Y-112473000D01*
X148190000Y-112453000D01*
X148154000Y-112431000D01*
X148120000Y-112407000D01*
X148087000Y-112382000D01*
X148055000Y-112355000D01*
X148024000Y-112326000D01*
X147995000Y-112295000D01*
X147968000Y-112263000D01*
X147943000Y-112230000D01*
X147919000Y-112196000D01*
X147897000Y-112160000D01*
X147877000Y-112123000D01*
X147859000Y-112085000D01*
X147843000Y-112047000D01*
X147829000Y-112007000D01*
X147817000Y-111967000D01*
X147807000Y-111926000D01*
X147800000Y-111885000D01*
X147794000Y-111844000D01*
X147791000Y-111802000D01*
X147790000Y-111760000D01*
X147791000Y-111718000D01*
X147794000Y-111676000D01*
X147800000Y-111635000D01*
X147807000Y-111594000D01*
X147817000Y-111553000D01*
X147829000Y-111513000D01*
X147843000Y-111473000D01*
X147859000Y-111435000D01*
X147877000Y-111397000D01*
X147897000Y-111360000D01*
X147919000Y-111324000D01*
X147943000Y-111290000D01*
X147968000Y-111257000D01*
X147995000Y-111225000D01*
X148024000Y-111194000D01*
X148055000Y-111165000D01*
X148087000Y-111138000D01*
X148120000Y-111113000D01*
X148154000Y-111089000D01*
X148190000Y-111067000D01*
X148227000Y-111047000D01*
X148265000Y-111029000D01*
X148303000Y-111013000D01*
X148343000Y-110999000D01*
X148383000Y-110987000D01*
X148424000Y-110977000D01*
X148465000Y-110970000D01*
X148506000Y-110964000D01*
X148548000Y-110961000D01*
X148590000Y-110960000D01*
X150990000Y-110960000D01*
X150990000Y-112560000D01*
G37*
X150990000Y-112560000D02*
X148590000Y-112560000D01*
X148548000Y-112559000D01*
X148506000Y-112556000D01*
X148465000Y-112550000D01*
X148424000Y-112543000D01*
X148383000Y-112533000D01*
X148343000Y-112521000D01*
X148303000Y-112507000D01*
X148265000Y-112491000D01*
X148227000Y-112473000D01*
X148190000Y-112453000D01*
X148154000Y-112431000D01*
X148120000Y-112407000D01*
X148087000Y-112382000D01*
X148055000Y-112355000D01*
X148024000Y-112326000D01*
X147995000Y-112295000D01*
X147968000Y-112263000D01*
X147943000Y-112230000D01*
X147919000Y-112196000D01*
X147897000Y-112160000D01*
X147877000Y-112123000D01*
X147859000Y-112085000D01*
X147843000Y-112047000D01*
X147829000Y-112007000D01*
X147817000Y-111967000D01*
X147807000Y-111926000D01*
X147800000Y-111885000D01*
X147794000Y-111844000D01*
X147791000Y-111802000D01*
X147790000Y-111760000D01*
X147791000Y-111718000D01*
X147794000Y-111676000D01*
X147800000Y-111635000D01*
X147807000Y-111594000D01*
X147817000Y-111553000D01*
X147829000Y-111513000D01*
X147843000Y-111473000D01*
X147859000Y-111435000D01*
X147877000Y-111397000D01*
X147897000Y-111360000D01*
X147919000Y-111324000D01*
X147943000Y-111290000D01*
X147968000Y-111257000D01*
X147995000Y-111225000D01*
X148024000Y-111194000D01*
X148055000Y-111165000D01*
X148087000Y-111138000D01*
X148120000Y-111113000D01*
X148154000Y-111089000D01*
X148190000Y-111067000D01*
X148227000Y-111047000D01*
X148265000Y-111029000D01*
X148303000Y-111013000D01*
X148343000Y-110999000D01*
X148383000Y-110987000D01*
X148424000Y-110977000D01*
X148465000Y-110970000D01*
X148506000Y-110964000D01*
X148548000Y-110961000D01*
X148590000Y-110960000D01*
X150990000Y-110960000D01*
X150990000Y-112560000D01*
G36*
X150990000Y-130340000D02*
G01*
X148590000Y-130340000D01*
X148548000Y-130339000D01*
X148506000Y-130336000D01*
X148465000Y-130330000D01*
X148424000Y-130323000D01*
X148383000Y-130313000D01*
X148343000Y-130301000D01*
X148303000Y-130287000D01*
X148265000Y-130271000D01*
X148227000Y-130253000D01*
X148190000Y-130233000D01*
X148154000Y-130211000D01*
X148120000Y-130187000D01*
X148087000Y-130162000D01*
X148055000Y-130135000D01*
X148024000Y-130106000D01*
X147995000Y-130075000D01*
X147968000Y-130043000D01*
X147943000Y-130010000D01*
X147919000Y-129976000D01*
X147897000Y-129940000D01*
X147877000Y-129903000D01*
X147859000Y-129865000D01*
X147843000Y-129827000D01*
X147829000Y-129787000D01*
X147817000Y-129747000D01*
X147807000Y-129706000D01*
X147800000Y-129665000D01*
X147794000Y-129624000D01*
X147791000Y-129582000D01*
X147790000Y-129540000D01*
X147791000Y-129498000D01*
X147794000Y-129456000D01*
X147800000Y-129415000D01*
X147807000Y-129374000D01*
X147817000Y-129333000D01*
X147829000Y-129293000D01*
X147843000Y-129253000D01*
X147859000Y-129215000D01*
X147877000Y-129177000D01*
X147897000Y-129140000D01*
X147919000Y-129104000D01*
X147943000Y-129070000D01*
X147968000Y-129037000D01*
X147995000Y-129005000D01*
X148024000Y-128974000D01*
X148055000Y-128945000D01*
X148087000Y-128918000D01*
X148120000Y-128893000D01*
X148154000Y-128869000D01*
X148190000Y-128847000D01*
X148227000Y-128827000D01*
X148265000Y-128809000D01*
X148303000Y-128793000D01*
X148343000Y-128779000D01*
X148383000Y-128767000D01*
X148424000Y-128757000D01*
X148465000Y-128750000D01*
X148506000Y-128744000D01*
X148548000Y-128741000D01*
X148590000Y-128740000D01*
X150990000Y-128740000D01*
X150990000Y-130340000D01*
G37*
X150990000Y-130340000D02*
X148590000Y-130340000D01*
X148548000Y-130339000D01*
X148506000Y-130336000D01*
X148465000Y-130330000D01*
X148424000Y-130323000D01*
X148383000Y-130313000D01*
X148343000Y-130301000D01*
X148303000Y-130287000D01*
X148265000Y-130271000D01*
X148227000Y-130253000D01*
X148190000Y-130233000D01*
X148154000Y-130211000D01*
X148120000Y-130187000D01*
X148087000Y-130162000D01*
X148055000Y-130135000D01*
X148024000Y-130106000D01*
X147995000Y-130075000D01*
X147968000Y-130043000D01*
X147943000Y-130010000D01*
X147919000Y-129976000D01*
X147897000Y-129940000D01*
X147877000Y-129903000D01*
X147859000Y-129865000D01*
X147843000Y-129827000D01*
X147829000Y-129787000D01*
X147817000Y-129747000D01*
X147807000Y-129706000D01*
X147800000Y-129665000D01*
X147794000Y-129624000D01*
X147791000Y-129582000D01*
X147790000Y-129540000D01*
X147791000Y-129498000D01*
X147794000Y-129456000D01*
X147800000Y-129415000D01*
X147807000Y-129374000D01*
X147817000Y-129333000D01*
X147829000Y-129293000D01*
X147843000Y-129253000D01*
X147859000Y-129215000D01*
X147877000Y-129177000D01*
X147897000Y-129140000D01*
X147919000Y-129104000D01*
X147943000Y-129070000D01*
X147968000Y-129037000D01*
X147995000Y-129005000D01*
X148024000Y-128974000D01*
X148055000Y-128945000D01*
X148087000Y-128918000D01*
X148120000Y-128893000D01*
X148154000Y-128869000D01*
X148190000Y-128847000D01*
X148227000Y-128827000D01*
X148265000Y-128809000D01*
X148303000Y-128793000D01*
X148343000Y-128779000D01*
X148383000Y-128767000D01*
X148424000Y-128757000D01*
X148465000Y-128750000D01*
X148506000Y-128744000D01*
X148548000Y-128741000D01*
X148590000Y-128740000D01*
X150990000Y-128740000D01*
X150990000Y-130340000D01*
G36*
X130852000Y-143981000D02*
G01*
X130894000Y-143984000D01*
X130935000Y-143990000D01*
X130976000Y-143997000D01*
X131017000Y-144007000D01*
X131057000Y-144019000D01*
X131097000Y-144033000D01*
X131135000Y-144049000D01*
X131173000Y-144067000D01*
X131210000Y-144087000D01*
X131246000Y-144109000D01*
X131280000Y-144133000D01*
X131313000Y-144158000D01*
X131345000Y-144185000D01*
X131376000Y-144214000D01*
X131405000Y-144245000D01*
X131432000Y-144277000D01*
X131457000Y-144310000D01*
X131481000Y-144344000D01*
X131503000Y-144380000D01*
X131523000Y-144417000D01*
X131541000Y-144455000D01*
X131557000Y-144493000D01*
X131571000Y-144533000D01*
X131583000Y-144573000D01*
X131593000Y-144614000D01*
X131600000Y-144655000D01*
X131606000Y-144696000D01*
X131609000Y-144738000D01*
X131610000Y-144780000D01*
X131609000Y-144822000D01*
X131606000Y-144864000D01*
X131600000Y-144905000D01*
X131593000Y-144946000D01*
X131583000Y-144987000D01*
X131571000Y-145027000D01*
X131557000Y-145067000D01*
X131541000Y-145105000D01*
X131523000Y-145143000D01*
X131503000Y-145180000D01*
X131481000Y-145216000D01*
X131457000Y-145250000D01*
X131432000Y-145283000D01*
X131405000Y-145315000D01*
X131376000Y-145346000D01*
X131345000Y-145375000D01*
X131313000Y-145402000D01*
X131280000Y-145427000D01*
X131246000Y-145451000D01*
X131210000Y-145473000D01*
X131173000Y-145493000D01*
X131135000Y-145511000D01*
X131097000Y-145527000D01*
X131057000Y-145541000D01*
X131017000Y-145553000D01*
X130976000Y-145563000D01*
X130935000Y-145570000D01*
X130894000Y-145576000D01*
X130852000Y-145579000D01*
X130810000Y-145580000D01*
X128410000Y-145580000D01*
X128410000Y-143980000D01*
X130810000Y-143980000D01*
X130852000Y-143981000D01*
G37*
X130852000Y-143981000D02*
X130894000Y-143984000D01*
X130935000Y-143990000D01*
X130976000Y-143997000D01*
X131017000Y-144007000D01*
X131057000Y-144019000D01*
X131097000Y-144033000D01*
X131135000Y-144049000D01*
X131173000Y-144067000D01*
X131210000Y-144087000D01*
X131246000Y-144109000D01*
X131280000Y-144133000D01*
X131313000Y-144158000D01*
X131345000Y-144185000D01*
X131376000Y-144214000D01*
X131405000Y-144245000D01*
X131432000Y-144277000D01*
X131457000Y-144310000D01*
X131481000Y-144344000D01*
X131503000Y-144380000D01*
X131523000Y-144417000D01*
X131541000Y-144455000D01*
X131557000Y-144493000D01*
X131571000Y-144533000D01*
X131583000Y-144573000D01*
X131593000Y-144614000D01*
X131600000Y-144655000D01*
X131606000Y-144696000D01*
X131609000Y-144738000D01*
X131610000Y-144780000D01*
X131609000Y-144822000D01*
X131606000Y-144864000D01*
X131600000Y-144905000D01*
X131593000Y-144946000D01*
X131583000Y-144987000D01*
X131571000Y-145027000D01*
X131557000Y-145067000D01*
X131541000Y-145105000D01*
X131523000Y-145143000D01*
X131503000Y-145180000D01*
X131481000Y-145216000D01*
X131457000Y-145250000D01*
X131432000Y-145283000D01*
X131405000Y-145315000D01*
X131376000Y-145346000D01*
X131345000Y-145375000D01*
X131313000Y-145402000D01*
X131280000Y-145427000D01*
X131246000Y-145451000D01*
X131210000Y-145473000D01*
X131173000Y-145493000D01*
X131135000Y-145511000D01*
X131097000Y-145527000D01*
X131057000Y-145541000D01*
X131017000Y-145553000D01*
X130976000Y-145563000D01*
X130935000Y-145570000D01*
X130894000Y-145576000D01*
X130852000Y-145579000D01*
X130810000Y-145580000D01*
X128410000Y-145580000D01*
X128410000Y-143980000D01*
X130810000Y-143980000D01*
X130852000Y-143981000D01*
G36*
X150990000Y-135420000D02*
G01*
X148590000Y-135420000D01*
X148548000Y-135419000D01*
X148506000Y-135416000D01*
X148465000Y-135410000D01*
X148424000Y-135403000D01*
X148383000Y-135393000D01*
X148343000Y-135381000D01*
X148303000Y-135367000D01*
X148265000Y-135351000D01*
X148227000Y-135333000D01*
X148190000Y-135313000D01*
X148154000Y-135291000D01*
X148120000Y-135267000D01*
X148087000Y-135242000D01*
X148055000Y-135215000D01*
X148024000Y-135186000D01*
X147995000Y-135155000D01*
X147968000Y-135123000D01*
X147943000Y-135090000D01*
X147919000Y-135056000D01*
X147897000Y-135020000D01*
X147877000Y-134983000D01*
X147859000Y-134945000D01*
X147843000Y-134907000D01*
X147829000Y-134867000D01*
X147817000Y-134827000D01*
X147807000Y-134786000D01*
X147800000Y-134745000D01*
X147794000Y-134704000D01*
X147791000Y-134662000D01*
X147790000Y-134620000D01*
X147791000Y-134578000D01*
X147794000Y-134536000D01*
X147800000Y-134495000D01*
X147807000Y-134454000D01*
X147817000Y-134413000D01*
X147829000Y-134373000D01*
X147843000Y-134333000D01*
X147859000Y-134295000D01*
X147877000Y-134257000D01*
X147897000Y-134220000D01*
X147919000Y-134184000D01*
X147943000Y-134150000D01*
X147968000Y-134117000D01*
X147995000Y-134085000D01*
X148024000Y-134054000D01*
X148055000Y-134025000D01*
X148087000Y-133998000D01*
X148120000Y-133973000D01*
X148154000Y-133949000D01*
X148190000Y-133927000D01*
X148227000Y-133907000D01*
X148265000Y-133889000D01*
X148303000Y-133873000D01*
X148343000Y-133859000D01*
X148383000Y-133847000D01*
X148424000Y-133837000D01*
X148465000Y-133830000D01*
X148506000Y-133824000D01*
X148548000Y-133821000D01*
X148590000Y-133820000D01*
X150990000Y-133820000D01*
X150990000Y-135420000D01*
G37*
X150990000Y-135420000D02*
X148590000Y-135420000D01*
X148548000Y-135419000D01*
X148506000Y-135416000D01*
X148465000Y-135410000D01*
X148424000Y-135403000D01*
X148383000Y-135393000D01*
X148343000Y-135381000D01*
X148303000Y-135367000D01*
X148265000Y-135351000D01*
X148227000Y-135333000D01*
X148190000Y-135313000D01*
X148154000Y-135291000D01*
X148120000Y-135267000D01*
X148087000Y-135242000D01*
X148055000Y-135215000D01*
X148024000Y-135186000D01*
X147995000Y-135155000D01*
X147968000Y-135123000D01*
X147943000Y-135090000D01*
X147919000Y-135056000D01*
X147897000Y-135020000D01*
X147877000Y-134983000D01*
X147859000Y-134945000D01*
X147843000Y-134907000D01*
X147829000Y-134867000D01*
X147817000Y-134827000D01*
X147807000Y-134786000D01*
X147800000Y-134745000D01*
X147794000Y-134704000D01*
X147791000Y-134662000D01*
X147790000Y-134620000D01*
X147791000Y-134578000D01*
X147794000Y-134536000D01*
X147800000Y-134495000D01*
X147807000Y-134454000D01*
X147817000Y-134413000D01*
X147829000Y-134373000D01*
X147843000Y-134333000D01*
X147859000Y-134295000D01*
X147877000Y-134257000D01*
X147897000Y-134220000D01*
X147919000Y-134184000D01*
X147943000Y-134150000D01*
X147968000Y-134117000D01*
X147995000Y-134085000D01*
X148024000Y-134054000D01*
X148055000Y-134025000D01*
X148087000Y-133998000D01*
X148120000Y-133973000D01*
X148154000Y-133949000D01*
X148190000Y-133927000D01*
X148227000Y-133907000D01*
X148265000Y-133889000D01*
X148303000Y-133873000D01*
X148343000Y-133859000D01*
X148383000Y-133847000D01*
X148424000Y-133837000D01*
X148465000Y-133830000D01*
X148506000Y-133824000D01*
X148548000Y-133821000D01*
X148590000Y-133820000D01*
X150990000Y-133820000D01*
X150990000Y-135420000D01*
G36*
X150990000Y-104940000D02*
G01*
X148590000Y-104940000D01*
X148548000Y-104939000D01*
X148506000Y-104936000D01*
X148465000Y-104930000D01*
X148424000Y-104923000D01*
X148383000Y-104913000D01*
X148343000Y-104901000D01*
X148303000Y-104887000D01*
X148265000Y-104871000D01*
X148227000Y-104853000D01*
X148190000Y-104833000D01*
X148154000Y-104811000D01*
X148120000Y-104787000D01*
X148087000Y-104762000D01*
X148055000Y-104735000D01*
X148024000Y-104706000D01*
X147995000Y-104675000D01*
X147968000Y-104643000D01*
X147943000Y-104610000D01*
X147919000Y-104576000D01*
X147897000Y-104540000D01*
X147877000Y-104503000D01*
X147859000Y-104465000D01*
X147843000Y-104427000D01*
X147829000Y-104387000D01*
X147817000Y-104347000D01*
X147807000Y-104306000D01*
X147800000Y-104265000D01*
X147794000Y-104224000D01*
X147791000Y-104182000D01*
X147790000Y-104140000D01*
X147791000Y-104098000D01*
X147794000Y-104056000D01*
X147800000Y-104015000D01*
X147807000Y-103974000D01*
X147817000Y-103933000D01*
X147829000Y-103893000D01*
X147843000Y-103853000D01*
X147859000Y-103815000D01*
X147877000Y-103777000D01*
X147897000Y-103740000D01*
X147919000Y-103704000D01*
X147943000Y-103670000D01*
X147968000Y-103637000D01*
X147995000Y-103605000D01*
X148024000Y-103574000D01*
X148055000Y-103545000D01*
X148087000Y-103518000D01*
X148120000Y-103493000D01*
X148154000Y-103469000D01*
X148190000Y-103447000D01*
X148227000Y-103427000D01*
X148265000Y-103409000D01*
X148303000Y-103393000D01*
X148343000Y-103379000D01*
X148383000Y-103367000D01*
X148424000Y-103357000D01*
X148465000Y-103350000D01*
X148506000Y-103344000D01*
X148548000Y-103341000D01*
X148590000Y-103340000D01*
X150990000Y-103340000D01*
X150990000Y-104940000D01*
G37*
X150990000Y-104940000D02*
X148590000Y-104940000D01*
X148548000Y-104939000D01*
X148506000Y-104936000D01*
X148465000Y-104930000D01*
X148424000Y-104923000D01*
X148383000Y-104913000D01*
X148343000Y-104901000D01*
X148303000Y-104887000D01*
X148265000Y-104871000D01*
X148227000Y-104853000D01*
X148190000Y-104833000D01*
X148154000Y-104811000D01*
X148120000Y-104787000D01*
X148087000Y-104762000D01*
X148055000Y-104735000D01*
X148024000Y-104706000D01*
X147995000Y-104675000D01*
X147968000Y-104643000D01*
X147943000Y-104610000D01*
X147919000Y-104576000D01*
X147897000Y-104540000D01*
X147877000Y-104503000D01*
X147859000Y-104465000D01*
X147843000Y-104427000D01*
X147829000Y-104387000D01*
X147817000Y-104347000D01*
X147807000Y-104306000D01*
X147800000Y-104265000D01*
X147794000Y-104224000D01*
X147791000Y-104182000D01*
X147790000Y-104140000D01*
X147791000Y-104098000D01*
X147794000Y-104056000D01*
X147800000Y-104015000D01*
X147807000Y-103974000D01*
X147817000Y-103933000D01*
X147829000Y-103893000D01*
X147843000Y-103853000D01*
X147859000Y-103815000D01*
X147877000Y-103777000D01*
X147897000Y-103740000D01*
X147919000Y-103704000D01*
X147943000Y-103670000D01*
X147968000Y-103637000D01*
X147995000Y-103605000D01*
X148024000Y-103574000D01*
X148055000Y-103545000D01*
X148087000Y-103518000D01*
X148120000Y-103493000D01*
X148154000Y-103469000D01*
X148190000Y-103447000D01*
X148227000Y-103427000D01*
X148265000Y-103409000D01*
X148303000Y-103393000D01*
X148343000Y-103379000D01*
X148383000Y-103367000D01*
X148424000Y-103357000D01*
X148465000Y-103350000D01*
X148506000Y-103344000D01*
X148548000Y-103341000D01*
X148590000Y-103340000D01*
X150990000Y-103340000D01*
X150990000Y-104940000D01*
G36*
X150990000Y-115100000D02*
G01*
X147980000Y-115100000D01*
X147969000Y-115099000D01*
X147959000Y-115098000D01*
X147948000Y-115096000D01*
X147918000Y-115087000D01*
X147909000Y-115083000D01*
X147899000Y-115078000D01*
X147881000Y-115068000D01*
X147872000Y-115062000D01*
X147864000Y-115055000D01*
X147856000Y-115049000D01*
X147849000Y-115041000D01*
X147841000Y-115034000D01*
X147835000Y-115026000D01*
X147828000Y-115018000D01*
X147822000Y-115009000D01*
X147812000Y-114991000D01*
X147807000Y-114981000D01*
X147803000Y-114972000D01*
X147794000Y-114942000D01*
X147792000Y-114931000D01*
X147791000Y-114921000D01*
X147790000Y-114910000D01*
X147790000Y-113690000D01*
X147791000Y-113679000D01*
X147792000Y-113669000D01*
X147794000Y-113658000D01*
X147803000Y-113628000D01*
X147807000Y-113619000D01*
X147812000Y-113609000D01*
X147822000Y-113591000D01*
X147828000Y-113582000D01*
X147835000Y-113574000D01*
X147841000Y-113566000D01*
X147849000Y-113559000D01*
X147856000Y-113551000D01*
X147864000Y-113545000D01*
X147872000Y-113538000D01*
X147881000Y-113532000D01*
X147899000Y-113522000D01*
X147909000Y-113517000D01*
X147918000Y-113513000D01*
X147948000Y-113504000D01*
X147959000Y-113502000D01*
X147969000Y-113501000D01*
X147980000Y-113500000D01*
X150990000Y-113500000D01*
X150990000Y-115100000D01*
G37*
X150990000Y-115100000D02*
X147980000Y-115100000D01*
X147969000Y-115099000D01*
X147959000Y-115098000D01*
X147948000Y-115096000D01*
X147918000Y-115087000D01*
X147909000Y-115083000D01*
X147899000Y-115078000D01*
X147881000Y-115068000D01*
X147872000Y-115062000D01*
X147864000Y-115055000D01*
X147856000Y-115049000D01*
X147849000Y-115041000D01*
X147841000Y-115034000D01*
X147835000Y-115026000D01*
X147828000Y-115018000D01*
X147822000Y-115009000D01*
X147812000Y-114991000D01*
X147807000Y-114981000D01*
X147803000Y-114972000D01*
X147794000Y-114942000D01*
X147792000Y-114931000D01*
X147791000Y-114921000D01*
X147790000Y-114910000D01*
X147790000Y-113690000D01*
X147791000Y-113679000D01*
X147792000Y-113669000D01*
X147794000Y-113658000D01*
X147803000Y-113628000D01*
X147807000Y-113619000D01*
X147812000Y-113609000D01*
X147822000Y-113591000D01*
X147828000Y-113582000D01*
X147835000Y-113574000D01*
X147841000Y-113566000D01*
X147849000Y-113559000D01*
X147856000Y-113551000D01*
X147864000Y-113545000D01*
X147872000Y-113538000D01*
X147881000Y-113532000D01*
X147899000Y-113522000D01*
X147909000Y-113517000D01*
X147918000Y-113513000D01*
X147948000Y-113504000D01*
X147959000Y-113502000D01*
X147969000Y-113501000D01*
X147980000Y-113500000D01*
X150990000Y-113500000D01*
X150990000Y-115100000D01*
G36*
X130852000Y-141441000D02*
G01*
X130894000Y-141444000D01*
X130935000Y-141450000D01*
X130976000Y-141457000D01*
X131017000Y-141467000D01*
X131057000Y-141479000D01*
X131097000Y-141493000D01*
X131135000Y-141509000D01*
X131173000Y-141527000D01*
X131210000Y-141547000D01*
X131246000Y-141569000D01*
X131280000Y-141593000D01*
X131313000Y-141618000D01*
X131345000Y-141645000D01*
X131376000Y-141674000D01*
X131405000Y-141705000D01*
X131432000Y-141737000D01*
X131457000Y-141770000D01*
X131481000Y-141804000D01*
X131503000Y-141840000D01*
X131523000Y-141877000D01*
X131541000Y-141915000D01*
X131557000Y-141953000D01*
X131571000Y-141993000D01*
X131583000Y-142033000D01*
X131593000Y-142074000D01*
X131600000Y-142115000D01*
X131606000Y-142156000D01*
X131609000Y-142198000D01*
X131610000Y-142240000D01*
X131609000Y-142282000D01*
X131606000Y-142324000D01*
X131600000Y-142365000D01*
X131593000Y-142406000D01*
X131583000Y-142447000D01*
X131571000Y-142487000D01*
X131557000Y-142527000D01*
X131541000Y-142565000D01*
X131523000Y-142603000D01*
X131503000Y-142640000D01*
X131481000Y-142676000D01*
X131457000Y-142710000D01*
X131432000Y-142743000D01*
X131405000Y-142775000D01*
X131376000Y-142806000D01*
X131345000Y-142835000D01*
X131313000Y-142862000D01*
X131280000Y-142887000D01*
X131246000Y-142911000D01*
X131210000Y-142933000D01*
X131173000Y-142953000D01*
X131135000Y-142971000D01*
X131097000Y-142987000D01*
X131057000Y-143001000D01*
X131017000Y-143013000D01*
X130976000Y-143023000D01*
X130935000Y-143030000D01*
X130894000Y-143036000D01*
X130852000Y-143039000D01*
X130810000Y-143040000D01*
X128410000Y-143040000D01*
X128410000Y-141440000D01*
X130810000Y-141440000D01*
X130852000Y-141441000D01*
G37*
X130852000Y-141441000D02*
X130894000Y-141444000D01*
X130935000Y-141450000D01*
X130976000Y-141457000D01*
X131017000Y-141467000D01*
X131057000Y-141479000D01*
X131097000Y-141493000D01*
X131135000Y-141509000D01*
X131173000Y-141527000D01*
X131210000Y-141547000D01*
X131246000Y-141569000D01*
X131280000Y-141593000D01*
X131313000Y-141618000D01*
X131345000Y-141645000D01*
X131376000Y-141674000D01*
X131405000Y-141705000D01*
X131432000Y-141737000D01*
X131457000Y-141770000D01*
X131481000Y-141804000D01*
X131503000Y-141840000D01*
X131523000Y-141877000D01*
X131541000Y-141915000D01*
X131557000Y-141953000D01*
X131571000Y-141993000D01*
X131583000Y-142033000D01*
X131593000Y-142074000D01*
X131600000Y-142115000D01*
X131606000Y-142156000D01*
X131609000Y-142198000D01*
X131610000Y-142240000D01*
X131609000Y-142282000D01*
X131606000Y-142324000D01*
X131600000Y-142365000D01*
X131593000Y-142406000D01*
X131583000Y-142447000D01*
X131571000Y-142487000D01*
X131557000Y-142527000D01*
X131541000Y-142565000D01*
X131523000Y-142603000D01*
X131503000Y-142640000D01*
X131481000Y-142676000D01*
X131457000Y-142710000D01*
X131432000Y-142743000D01*
X131405000Y-142775000D01*
X131376000Y-142806000D01*
X131345000Y-142835000D01*
X131313000Y-142862000D01*
X131280000Y-142887000D01*
X131246000Y-142911000D01*
X131210000Y-142933000D01*
X131173000Y-142953000D01*
X131135000Y-142971000D01*
X131097000Y-142987000D01*
X131057000Y-143001000D01*
X131017000Y-143013000D01*
X130976000Y-143023000D01*
X130935000Y-143030000D01*
X130894000Y-143036000D01*
X130852000Y-143039000D01*
X130810000Y-143040000D01*
X128410000Y-143040000D01*
X128410000Y-141440000D01*
X130810000Y-141440000D01*
X130852000Y-141441000D01*
G36*
X130852000Y-118581000D02*
G01*
X130894000Y-118584000D01*
X130935000Y-118590000D01*
X130976000Y-118597000D01*
X131017000Y-118607000D01*
X131057000Y-118619000D01*
X131097000Y-118633000D01*
X131135000Y-118649000D01*
X131173000Y-118667000D01*
X131210000Y-118687000D01*
X131246000Y-118709000D01*
X131280000Y-118733000D01*
X131313000Y-118758000D01*
X131345000Y-118785000D01*
X131376000Y-118814000D01*
X131405000Y-118845000D01*
X131432000Y-118877000D01*
X131457000Y-118910000D01*
X131481000Y-118944000D01*
X131503000Y-118980000D01*
X131523000Y-119017000D01*
X131541000Y-119055000D01*
X131557000Y-119093000D01*
X131571000Y-119133000D01*
X131583000Y-119173000D01*
X131593000Y-119214000D01*
X131600000Y-119255000D01*
X131606000Y-119296000D01*
X131609000Y-119338000D01*
X131610000Y-119380000D01*
X131609000Y-119422000D01*
X131606000Y-119464000D01*
X131600000Y-119505000D01*
X131593000Y-119546000D01*
X131583000Y-119587000D01*
X131571000Y-119627000D01*
X131557000Y-119667000D01*
X131541000Y-119705000D01*
X131523000Y-119743000D01*
X131503000Y-119780000D01*
X131481000Y-119816000D01*
X131457000Y-119850000D01*
X131432000Y-119883000D01*
X131405000Y-119915000D01*
X131376000Y-119946000D01*
X131345000Y-119975000D01*
X131313000Y-120002000D01*
X131280000Y-120027000D01*
X131246000Y-120051000D01*
X131210000Y-120073000D01*
X131173000Y-120093000D01*
X131135000Y-120111000D01*
X131097000Y-120127000D01*
X131057000Y-120141000D01*
X131017000Y-120153000D01*
X130976000Y-120163000D01*
X130935000Y-120170000D01*
X130894000Y-120176000D01*
X130852000Y-120179000D01*
X130810000Y-120180000D01*
X128410000Y-120180000D01*
X128410000Y-118580000D01*
X130810000Y-118580000D01*
X130852000Y-118581000D01*
G37*
X130852000Y-118581000D02*
X130894000Y-118584000D01*
X130935000Y-118590000D01*
X130976000Y-118597000D01*
X131017000Y-118607000D01*
X131057000Y-118619000D01*
X131097000Y-118633000D01*
X131135000Y-118649000D01*
X131173000Y-118667000D01*
X131210000Y-118687000D01*
X131246000Y-118709000D01*
X131280000Y-118733000D01*
X131313000Y-118758000D01*
X131345000Y-118785000D01*
X131376000Y-118814000D01*
X131405000Y-118845000D01*
X131432000Y-118877000D01*
X131457000Y-118910000D01*
X131481000Y-118944000D01*
X131503000Y-118980000D01*
X131523000Y-119017000D01*
X131541000Y-119055000D01*
X131557000Y-119093000D01*
X131571000Y-119133000D01*
X131583000Y-119173000D01*
X131593000Y-119214000D01*
X131600000Y-119255000D01*
X131606000Y-119296000D01*
X131609000Y-119338000D01*
X131610000Y-119380000D01*
X131609000Y-119422000D01*
X131606000Y-119464000D01*
X131600000Y-119505000D01*
X131593000Y-119546000D01*
X131583000Y-119587000D01*
X131571000Y-119627000D01*
X131557000Y-119667000D01*
X131541000Y-119705000D01*
X131523000Y-119743000D01*
X131503000Y-119780000D01*
X131481000Y-119816000D01*
X131457000Y-119850000D01*
X131432000Y-119883000D01*
X131405000Y-119915000D01*
X131376000Y-119946000D01*
X131345000Y-119975000D01*
X131313000Y-120002000D01*
X131280000Y-120027000D01*
X131246000Y-120051000D01*
X131210000Y-120073000D01*
X131173000Y-120093000D01*
X131135000Y-120111000D01*
X131097000Y-120127000D01*
X131057000Y-120141000D01*
X131017000Y-120153000D01*
X130976000Y-120163000D01*
X130935000Y-120170000D01*
X130894000Y-120176000D01*
X130852000Y-120179000D01*
X130810000Y-120180000D01*
X128410000Y-120180000D01*
X128410000Y-118580000D01*
X130810000Y-118580000D01*
X130852000Y-118581000D01*
G36*
X150990000Y-107480000D02*
G01*
X148590000Y-107480000D01*
X148548000Y-107479000D01*
X148506000Y-107476000D01*
X148465000Y-107470000D01*
X148424000Y-107463000D01*
X148383000Y-107453000D01*
X148343000Y-107441000D01*
X148303000Y-107427000D01*
X148265000Y-107411000D01*
X148227000Y-107393000D01*
X148190000Y-107373000D01*
X148154000Y-107351000D01*
X148120000Y-107327000D01*
X148087000Y-107302000D01*
X148055000Y-107275000D01*
X148024000Y-107246000D01*
X147995000Y-107215000D01*
X147968000Y-107183000D01*
X147943000Y-107150000D01*
X147919000Y-107116000D01*
X147897000Y-107080000D01*
X147877000Y-107043000D01*
X147859000Y-107005000D01*
X147843000Y-106967000D01*
X147829000Y-106927000D01*
X147817000Y-106887000D01*
X147807000Y-106846000D01*
X147800000Y-106805000D01*
X147794000Y-106764000D01*
X147791000Y-106722000D01*
X147790000Y-106680000D01*
X147791000Y-106638000D01*
X147794000Y-106596000D01*
X147800000Y-106555000D01*
X147807000Y-106514000D01*
X147817000Y-106473000D01*
X147829000Y-106433000D01*
X147843000Y-106393000D01*
X147859000Y-106355000D01*
X147877000Y-106317000D01*
X147897000Y-106280000D01*
X147919000Y-106244000D01*
X147943000Y-106210000D01*
X147968000Y-106177000D01*
X147995000Y-106145000D01*
X148024000Y-106114000D01*
X148055000Y-106085000D01*
X148087000Y-106058000D01*
X148120000Y-106033000D01*
X148154000Y-106009000D01*
X148190000Y-105987000D01*
X148227000Y-105967000D01*
X148265000Y-105949000D01*
X148303000Y-105933000D01*
X148343000Y-105919000D01*
X148383000Y-105907000D01*
X148424000Y-105897000D01*
X148465000Y-105890000D01*
X148506000Y-105884000D01*
X148548000Y-105881000D01*
X148590000Y-105880000D01*
X150990000Y-105880000D01*
X150990000Y-107480000D01*
G37*
X150990000Y-107480000D02*
X148590000Y-107480000D01*
X148548000Y-107479000D01*
X148506000Y-107476000D01*
X148465000Y-107470000D01*
X148424000Y-107463000D01*
X148383000Y-107453000D01*
X148343000Y-107441000D01*
X148303000Y-107427000D01*
X148265000Y-107411000D01*
X148227000Y-107393000D01*
X148190000Y-107373000D01*
X148154000Y-107351000D01*
X148120000Y-107327000D01*
X148087000Y-107302000D01*
X148055000Y-107275000D01*
X148024000Y-107246000D01*
X147995000Y-107215000D01*
X147968000Y-107183000D01*
X147943000Y-107150000D01*
X147919000Y-107116000D01*
X147897000Y-107080000D01*
X147877000Y-107043000D01*
X147859000Y-107005000D01*
X147843000Y-106967000D01*
X147829000Y-106927000D01*
X147817000Y-106887000D01*
X147807000Y-106846000D01*
X147800000Y-106805000D01*
X147794000Y-106764000D01*
X147791000Y-106722000D01*
X147790000Y-106680000D01*
X147791000Y-106638000D01*
X147794000Y-106596000D01*
X147800000Y-106555000D01*
X147807000Y-106514000D01*
X147817000Y-106473000D01*
X147829000Y-106433000D01*
X147843000Y-106393000D01*
X147859000Y-106355000D01*
X147877000Y-106317000D01*
X147897000Y-106280000D01*
X147919000Y-106244000D01*
X147943000Y-106210000D01*
X147968000Y-106177000D01*
X147995000Y-106145000D01*
X148024000Y-106114000D01*
X148055000Y-106085000D01*
X148087000Y-106058000D01*
X148120000Y-106033000D01*
X148154000Y-106009000D01*
X148190000Y-105987000D01*
X148227000Y-105967000D01*
X148265000Y-105949000D01*
X148303000Y-105933000D01*
X148343000Y-105919000D01*
X148383000Y-105907000D01*
X148424000Y-105897000D01*
X148465000Y-105890000D01*
X148506000Y-105884000D01*
X148548000Y-105881000D01*
X148590000Y-105880000D01*
X150990000Y-105880000D01*
X150990000Y-107480000D01*
G36*
X131431000Y-100801000D02*
G01*
X131441000Y-100802000D01*
X131452000Y-100804000D01*
X131482000Y-100813000D01*
X131491000Y-100817000D01*
X131501000Y-100822000D01*
X131519000Y-100832000D01*
X131528000Y-100838000D01*
X131536000Y-100845000D01*
X131544000Y-100851000D01*
X131551000Y-100859000D01*
X131559000Y-100866000D01*
X131565000Y-100874000D01*
X131572000Y-100882000D01*
X131578000Y-100891000D01*
X131588000Y-100909000D01*
X131593000Y-100919000D01*
X131597000Y-100928000D01*
X131606000Y-100958000D01*
X131608000Y-100969000D01*
X131609000Y-100979000D01*
X131610000Y-100990000D01*
X131610000Y-102210000D01*
X131609000Y-102221000D01*
X131608000Y-102231000D01*
X131606000Y-102242000D01*
X131597000Y-102272000D01*
X131593000Y-102281000D01*
X131588000Y-102291000D01*
X131578000Y-102309000D01*
X131572000Y-102318000D01*
X131565000Y-102326000D01*
X131559000Y-102334000D01*
X131551000Y-102341000D01*
X131544000Y-102349000D01*
X131536000Y-102355000D01*
X131528000Y-102362000D01*
X131519000Y-102368000D01*
X131501000Y-102378000D01*
X131491000Y-102383000D01*
X131482000Y-102387000D01*
X131452000Y-102396000D01*
X131441000Y-102398000D01*
X131431000Y-102399000D01*
X131420000Y-102400000D01*
X128410000Y-102400000D01*
X128410000Y-100800000D01*
X131420000Y-100800000D01*
X131431000Y-100801000D01*
G37*
X131431000Y-100801000D02*
X131441000Y-100802000D01*
X131452000Y-100804000D01*
X131482000Y-100813000D01*
X131491000Y-100817000D01*
X131501000Y-100822000D01*
X131519000Y-100832000D01*
X131528000Y-100838000D01*
X131536000Y-100845000D01*
X131544000Y-100851000D01*
X131551000Y-100859000D01*
X131559000Y-100866000D01*
X131565000Y-100874000D01*
X131572000Y-100882000D01*
X131578000Y-100891000D01*
X131588000Y-100909000D01*
X131593000Y-100919000D01*
X131597000Y-100928000D01*
X131606000Y-100958000D01*
X131608000Y-100969000D01*
X131609000Y-100979000D01*
X131610000Y-100990000D01*
X131610000Y-102210000D01*
X131609000Y-102221000D01*
X131608000Y-102231000D01*
X131606000Y-102242000D01*
X131597000Y-102272000D01*
X131593000Y-102281000D01*
X131588000Y-102291000D01*
X131578000Y-102309000D01*
X131572000Y-102318000D01*
X131565000Y-102326000D01*
X131559000Y-102334000D01*
X131551000Y-102341000D01*
X131544000Y-102349000D01*
X131536000Y-102355000D01*
X131528000Y-102362000D01*
X131519000Y-102368000D01*
X131501000Y-102378000D01*
X131491000Y-102383000D01*
X131482000Y-102387000D01*
X131452000Y-102396000D01*
X131441000Y-102398000D01*
X131431000Y-102399000D01*
X131420000Y-102400000D01*
X128410000Y-102400000D01*
X128410000Y-100800000D01*
X131420000Y-100800000D01*
X131431000Y-100801000D01*
G36*
X130852000Y-123661000D02*
G01*
X130894000Y-123664000D01*
X130935000Y-123670000D01*
X130976000Y-123677000D01*
X131017000Y-123687000D01*
X131057000Y-123699000D01*
X131097000Y-123713000D01*
X131135000Y-123729000D01*
X131173000Y-123747000D01*
X131210000Y-123767000D01*
X131246000Y-123789000D01*
X131280000Y-123813000D01*
X131313000Y-123838000D01*
X131345000Y-123865000D01*
X131376000Y-123894000D01*
X131405000Y-123925000D01*
X131432000Y-123957000D01*
X131457000Y-123990000D01*
X131481000Y-124024000D01*
X131503000Y-124060000D01*
X131523000Y-124097000D01*
X131541000Y-124135000D01*
X131557000Y-124173000D01*
X131571000Y-124213000D01*
X131583000Y-124253000D01*
X131593000Y-124294000D01*
X131600000Y-124335000D01*
X131606000Y-124376000D01*
X131609000Y-124418000D01*
X131610000Y-124460000D01*
X131609000Y-124502000D01*
X131606000Y-124544000D01*
X131600000Y-124585000D01*
X131593000Y-124626000D01*
X131583000Y-124667000D01*
X131571000Y-124707000D01*
X131557000Y-124747000D01*
X131541000Y-124785000D01*
X131523000Y-124823000D01*
X131503000Y-124860000D01*
X131481000Y-124896000D01*
X131457000Y-124930000D01*
X131432000Y-124963000D01*
X131405000Y-124995000D01*
X131376000Y-125026000D01*
X131345000Y-125055000D01*
X131313000Y-125082000D01*
X131280000Y-125107000D01*
X131246000Y-125131000D01*
X131210000Y-125153000D01*
X131173000Y-125173000D01*
X131135000Y-125191000D01*
X131097000Y-125207000D01*
X131057000Y-125221000D01*
X131017000Y-125233000D01*
X130976000Y-125243000D01*
X130935000Y-125250000D01*
X130894000Y-125256000D01*
X130852000Y-125259000D01*
X130810000Y-125260000D01*
X128410000Y-125260000D01*
X128410000Y-123660000D01*
X130810000Y-123660000D01*
X130852000Y-123661000D01*
G37*
X130852000Y-123661000D02*
X130894000Y-123664000D01*
X130935000Y-123670000D01*
X130976000Y-123677000D01*
X131017000Y-123687000D01*
X131057000Y-123699000D01*
X131097000Y-123713000D01*
X131135000Y-123729000D01*
X131173000Y-123747000D01*
X131210000Y-123767000D01*
X131246000Y-123789000D01*
X131280000Y-123813000D01*
X131313000Y-123838000D01*
X131345000Y-123865000D01*
X131376000Y-123894000D01*
X131405000Y-123925000D01*
X131432000Y-123957000D01*
X131457000Y-123990000D01*
X131481000Y-124024000D01*
X131503000Y-124060000D01*
X131523000Y-124097000D01*
X131541000Y-124135000D01*
X131557000Y-124173000D01*
X131571000Y-124213000D01*
X131583000Y-124253000D01*
X131593000Y-124294000D01*
X131600000Y-124335000D01*
X131606000Y-124376000D01*
X131609000Y-124418000D01*
X131610000Y-124460000D01*
X131609000Y-124502000D01*
X131606000Y-124544000D01*
X131600000Y-124585000D01*
X131593000Y-124626000D01*
X131583000Y-124667000D01*
X131571000Y-124707000D01*
X131557000Y-124747000D01*
X131541000Y-124785000D01*
X131523000Y-124823000D01*
X131503000Y-124860000D01*
X131481000Y-124896000D01*
X131457000Y-124930000D01*
X131432000Y-124963000D01*
X131405000Y-124995000D01*
X131376000Y-125026000D01*
X131345000Y-125055000D01*
X131313000Y-125082000D01*
X131280000Y-125107000D01*
X131246000Y-125131000D01*
X131210000Y-125153000D01*
X131173000Y-125173000D01*
X131135000Y-125191000D01*
X131097000Y-125207000D01*
X131057000Y-125221000D01*
X131017000Y-125233000D01*
X130976000Y-125243000D01*
X130935000Y-125250000D01*
X130894000Y-125256000D01*
X130852000Y-125259000D01*
X130810000Y-125260000D01*
X128410000Y-125260000D01*
X128410000Y-123660000D01*
X130810000Y-123660000D01*
X130852000Y-123661000D01*
G36*
X130852000Y-98261000D02*
G01*
X130894000Y-98264000D01*
X130935000Y-98270000D01*
X130976000Y-98277000D01*
X131017000Y-98287000D01*
X131057000Y-98299000D01*
X131097000Y-98313000D01*
X131135000Y-98329000D01*
X131173000Y-98347000D01*
X131210000Y-98367000D01*
X131246000Y-98389000D01*
X131280000Y-98413000D01*
X131313000Y-98438000D01*
X131345000Y-98465000D01*
X131376000Y-98494000D01*
X131405000Y-98525000D01*
X131432000Y-98557000D01*
X131457000Y-98590000D01*
X131481000Y-98624000D01*
X131503000Y-98660000D01*
X131523000Y-98697000D01*
X131541000Y-98735000D01*
X131557000Y-98773000D01*
X131571000Y-98813000D01*
X131583000Y-98853000D01*
X131593000Y-98894000D01*
X131600000Y-98935000D01*
X131606000Y-98976000D01*
X131609000Y-99018000D01*
X131610000Y-99060000D01*
X131609000Y-99102000D01*
X131606000Y-99144000D01*
X131600000Y-99185000D01*
X131593000Y-99226000D01*
X131583000Y-99267000D01*
X131571000Y-99307000D01*
X131557000Y-99347000D01*
X131541000Y-99385000D01*
X131523000Y-99423000D01*
X131503000Y-99460000D01*
X131481000Y-99496000D01*
X131457000Y-99530000D01*
X131432000Y-99563000D01*
X131405000Y-99595000D01*
X131376000Y-99626000D01*
X131345000Y-99655000D01*
X131313000Y-99682000D01*
X131280000Y-99707000D01*
X131246000Y-99731000D01*
X131210000Y-99753000D01*
X131173000Y-99773000D01*
X131135000Y-99791000D01*
X131097000Y-99807000D01*
X131057000Y-99821000D01*
X131017000Y-99833000D01*
X130976000Y-99843000D01*
X130935000Y-99850000D01*
X130894000Y-99856000D01*
X130852000Y-99859000D01*
X130810000Y-99860000D01*
X128410000Y-99860000D01*
X128410000Y-98260000D01*
X130810000Y-98260000D01*
X130852000Y-98261000D01*
G37*
X130852000Y-98261000D02*
X130894000Y-98264000D01*
X130935000Y-98270000D01*
X130976000Y-98277000D01*
X131017000Y-98287000D01*
X131057000Y-98299000D01*
X131097000Y-98313000D01*
X131135000Y-98329000D01*
X131173000Y-98347000D01*
X131210000Y-98367000D01*
X131246000Y-98389000D01*
X131280000Y-98413000D01*
X131313000Y-98438000D01*
X131345000Y-98465000D01*
X131376000Y-98494000D01*
X131405000Y-98525000D01*
X131432000Y-98557000D01*
X131457000Y-98590000D01*
X131481000Y-98624000D01*
X131503000Y-98660000D01*
X131523000Y-98697000D01*
X131541000Y-98735000D01*
X131557000Y-98773000D01*
X131571000Y-98813000D01*
X131583000Y-98853000D01*
X131593000Y-98894000D01*
X131600000Y-98935000D01*
X131606000Y-98976000D01*
X131609000Y-99018000D01*
X131610000Y-99060000D01*
X131609000Y-99102000D01*
X131606000Y-99144000D01*
X131600000Y-99185000D01*
X131593000Y-99226000D01*
X131583000Y-99267000D01*
X131571000Y-99307000D01*
X131557000Y-99347000D01*
X131541000Y-99385000D01*
X131523000Y-99423000D01*
X131503000Y-99460000D01*
X131481000Y-99496000D01*
X131457000Y-99530000D01*
X131432000Y-99563000D01*
X131405000Y-99595000D01*
X131376000Y-99626000D01*
X131345000Y-99655000D01*
X131313000Y-99682000D01*
X131280000Y-99707000D01*
X131246000Y-99731000D01*
X131210000Y-99753000D01*
X131173000Y-99773000D01*
X131135000Y-99791000D01*
X131097000Y-99807000D01*
X131057000Y-99821000D01*
X131017000Y-99833000D01*
X130976000Y-99843000D01*
X130935000Y-99850000D01*
X130894000Y-99856000D01*
X130852000Y-99859000D01*
X130810000Y-99860000D01*
X128410000Y-99860000D01*
X128410000Y-98260000D01*
X130810000Y-98260000D01*
X130852000Y-98261000D01*
G36*
X150990000Y-127800000D02*
G01*
X147980000Y-127800000D01*
X147969000Y-127799000D01*
X147959000Y-127798000D01*
X147948000Y-127796000D01*
X147918000Y-127787000D01*
X147909000Y-127783000D01*
X147899000Y-127778000D01*
X147881000Y-127768000D01*
X147872000Y-127762000D01*
X147864000Y-127755000D01*
X147856000Y-127749000D01*
X147849000Y-127741000D01*
X147841000Y-127734000D01*
X147835000Y-127726000D01*
X147828000Y-127718000D01*
X147822000Y-127709000D01*
X147812000Y-127691000D01*
X147807000Y-127681000D01*
X147803000Y-127672000D01*
X147794000Y-127642000D01*
X147792000Y-127631000D01*
X147791000Y-127621000D01*
X147790000Y-127610000D01*
X147790000Y-126390000D01*
X147791000Y-126379000D01*
X147792000Y-126369000D01*
X147794000Y-126358000D01*
X147803000Y-126328000D01*
X147807000Y-126319000D01*
X147812000Y-126309000D01*
X147822000Y-126291000D01*
X147828000Y-126282000D01*
X147835000Y-126274000D01*
X147841000Y-126266000D01*
X147849000Y-126259000D01*
X147856000Y-126251000D01*
X147864000Y-126245000D01*
X147872000Y-126238000D01*
X147881000Y-126232000D01*
X147899000Y-126222000D01*
X147909000Y-126217000D01*
X147918000Y-126213000D01*
X147948000Y-126204000D01*
X147959000Y-126202000D01*
X147969000Y-126201000D01*
X147980000Y-126200000D01*
X150990000Y-126200000D01*
X150990000Y-127800000D01*
G37*
X150990000Y-127800000D02*
X147980000Y-127800000D01*
X147969000Y-127799000D01*
X147959000Y-127798000D01*
X147948000Y-127796000D01*
X147918000Y-127787000D01*
X147909000Y-127783000D01*
X147899000Y-127778000D01*
X147881000Y-127768000D01*
X147872000Y-127762000D01*
X147864000Y-127755000D01*
X147856000Y-127749000D01*
X147849000Y-127741000D01*
X147841000Y-127734000D01*
X147835000Y-127726000D01*
X147828000Y-127718000D01*
X147822000Y-127709000D01*
X147812000Y-127691000D01*
X147807000Y-127681000D01*
X147803000Y-127672000D01*
X147794000Y-127642000D01*
X147792000Y-127631000D01*
X147791000Y-127621000D01*
X147790000Y-127610000D01*
X147790000Y-126390000D01*
X147791000Y-126379000D01*
X147792000Y-126369000D01*
X147794000Y-126358000D01*
X147803000Y-126328000D01*
X147807000Y-126319000D01*
X147812000Y-126309000D01*
X147822000Y-126291000D01*
X147828000Y-126282000D01*
X147835000Y-126274000D01*
X147841000Y-126266000D01*
X147849000Y-126259000D01*
X147856000Y-126251000D01*
X147864000Y-126245000D01*
X147872000Y-126238000D01*
X147881000Y-126232000D01*
X147899000Y-126222000D01*
X147909000Y-126217000D01*
X147918000Y-126213000D01*
X147948000Y-126204000D01*
X147959000Y-126202000D01*
X147969000Y-126201000D01*
X147980000Y-126200000D01*
X150990000Y-126200000D01*
X150990000Y-127800000D01*
G36*
X130852000Y-108421000D02*
G01*
X130894000Y-108424000D01*
X130935000Y-108430000D01*
X130976000Y-108437000D01*
X131017000Y-108447000D01*
X131057000Y-108459000D01*
X131097000Y-108473000D01*
X131135000Y-108489000D01*
X131173000Y-108507000D01*
X131210000Y-108527000D01*
X131246000Y-108549000D01*
X131280000Y-108573000D01*
X131313000Y-108598000D01*
X131345000Y-108625000D01*
X131376000Y-108654000D01*
X131405000Y-108685000D01*
X131432000Y-108717000D01*
X131457000Y-108750000D01*
X131481000Y-108784000D01*
X131503000Y-108820000D01*
X131523000Y-108857000D01*
X131541000Y-108895000D01*
X131557000Y-108933000D01*
X131571000Y-108973000D01*
X131583000Y-109013000D01*
X131593000Y-109054000D01*
X131600000Y-109095000D01*
X131606000Y-109136000D01*
X131609000Y-109178000D01*
X131610000Y-109220000D01*
X131609000Y-109262000D01*
X131606000Y-109304000D01*
X131600000Y-109345000D01*
X131593000Y-109386000D01*
X131583000Y-109427000D01*
X131571000Y-109467000D01*
X131557000Y-109507000D01*
X131541000Y-109545000D01*
X131523000Y-109583000D01*
X131503000Y-109620000D01*
X131481000Y-109656000D01*
X131457000Y-109690000D01*
X131432000Y-109723000D01*
X131405000Y-109755000D01*
X131376000Y-109786000D01*
X131345000Y-109815000D01*
X131313000Y-109842000D01*
X131280000Y-109867000D01*
X131246000Y-109891000D01*
X131210000Y-109913000D01*
X131173000Y-109933000D01*
X131135000Y-109951000D01*
X131097000Y-109967000D01*
X131057000Y-109981000D01*
X131017000Y-109993000D01*
X130976000Y-110003000D01*
X130935000Y-110010000D01*
X130894000Y-110016000D01*
X130852000Y-110019000D01*
X130810000Y-110020000D01*
X128410000Y-110020000D01*
X128410000Y-108420000D01*
X130810000Y-108420000D01*
X130852000Y-108421000D01*
G37*
X130852000Y-108421000D02*
X130894000Y-108424000D01*
X130935000Y-108430000D01*
X130976000Y-108437000D01*
X131017000Y-108447000D01*
X131057000Y-108459000D01*
X131097000Y-108473000D01*
X131135000Y-108489000D01*
X131173000Y-108507000D01*
X131210000Y-108527000D01*
X131246000Y-108549000D01*
X131280000Y-108573000D01*
X131313000Y-108598000D01*
X131345000Y-108625000D01*
X131376000Y-108654000D01*
X131405000Y-108685000D01*
X131432000Y-108717000D01*
X131457000Y-108750000D01*
X131481000Y-108784000D01*
X131503000Y-108820000D01*
X131523000Y-108857000D01*
X131541000Y-108895000D01*
X131557000Y-108933000D01*
X131571000Y-108973000D01*
X131583000Y-109013000D01*
X131593000Y-109054000D01*
X131600000Y-109095000D01*
X131606000Y-109136000D01*
X131609000Y-109178000D01*
X131610000Y-109220000D01*
X131609000Y-109262000D01*
X131606000Y-109304000D01*
X131600000Y-109345000D01*
X131593000Y-109386000D01*
X131583000Y-109427000D01*
X131571000Y-109467000D01*
X131557000Y-109507000D01*
X131541000Y-109545000D01*
X131523000Y-109583000D01*
X131503000Y-109620000D01*
X131481000Y-109656000D01*
X131457000Y-109690000D01*
X131432000Y-109723000D01*
X131405000Y-109755000D01*
X131376000Y-109786000D01*
X131345000Y-109815000D01*
X131313000Y-109842000D01*
X131280000Y-109867000D01*
X131246000Y-109891000D01*
X131210000Y-109913000D01*
X131173000Y-109933000D01*
X131135000Y-109951000D01*
X131097000Y-109967000D01*
X131057000Y-109981000D01*
X131017000Y-109993000D01*
X130976000Y-110003000D01*
X130935000Y-110010000D01*
X130894000Y-110016000D01*
X130852000Y-110019000D01*
X130810000Y-110020000D01*
X128410000Y-110020000D01*
X128410000Y-108420000D01*
X130810000Y-108420000D01*
X130852000Y-108421000D01*
G36*
X130852000Y-131281000D02*
G01*
X130894000Y-131284000D01*
X130935000Y-131290000D01*
X130976000Y-131297000D01*
X131017000Y-131307000D01*
X131057000Y-131319000D01*
X131097000Y-131333000D01*
X131135000Y-131349000D01*
X131173000Y-131367000D01*
X131210000Y-131387000D01*
X131246000Y-131409000D01*
X131280000Y-131433000D01*
X131313000Y-131458000D01*
X131345000Y-131485000D01*
X131376000Y-131514000D01*
X131405000Y-131545000D01*
X131432000Y-131577000D01*
X131457000Y-131610000D01*
X131481000Y-131644000D01*
X131503000Y-131680000D01*
X131523000Y-131717000D01*
X131541000Y-131755000D01*
X131557000Y-131793000D01*
X131571000Y-131833000D01*
X131583000Y-131873000D01*
X131593000Y-131914000D01*
X131600000Y-131955000D01*
X131606000Y-131996000D01*
X131609000Y-132038000D01*
X131610000Y-132080000D01*
X131609000Y-132122000D01*
X131606000Y-132164000D01*
X131600000Y-132205000D01*
X131593000Y-132246000D01*
X131583000Y-132287000D01*
X131571000Y-132327000D01*
X131557000Y-132367000D01*
X131541000Y-132405000D01*
X131523000Y-132443000D01*
X131503000Y-132480000D01*
X131481000Y-132516000D01*
X131457000Y-132550000D01*
X131432000Y-132583000D01*
X131405000Y-132615000D01*
X131376000Y-132646000D01*
X131345000Y-132675000D01*
X131313000Y-132702000D01*
X131280000Y-132727000D01*
X131246000Y-132751000D01*
X131210000Y-132773000D01*
X131173000Y-132793000D01*
X131135000Y-132811000D01*
X131097000Y-132827000D01*
X131057000Y-132841000D01*
X131017000Y-132853000D01*
X130976000Y-132863000D01*
X130935000Y-132870000D01*
X130894000Y-132876000D01*
X130852000Y-132879000D01*
X130810000Y-132880000D01*
X128410000Y-132880000D01*
X128410000Y-131280000D01*
X130810000Y-131280000D01*
X130852000Y-131281000D01*
G37*
X130852000Y-131281000D02*
X130894000Y-131284000D01*
X130935000Y-131290000D01*
X130976000Y-131297000D01*
X131017000Y-131307000D01*
X131057000Y-131319000D01*
X131097000Y-131333000D01*
X131135000Y-131349000D01*
X131173000Y-131367000D01*
X131210000Y-131387000D01*
X131246000Y-131409000D01*
X131280000Y-131433000D01*
X131313000Y-131458000D01*
X131345000Y-131485000D01*
X131376000Y-131514000D01*
X131405000Y-131545000D01*
X131432000Y-131577000D01*
X131457000Y-131610000D01*
X131481000Y-131644000D01*
X131503000Y-131680000D01*
X131523000Y-131717000D01*
X131541000Y-131755000D01*
X131557000Y-131793000D01*
X131571000Y-131833000D01*
X131583000Y-131873000D01*
X131593000Y-131914000D01*
X131600000Y-131955000D01*
X131606000Y-131996000D01*
X131609000Y-132038000D01*
X131610000Y-132080000D01*
X131609000Y-132122000D01*
X131606000Y-132164000D01*
X131600000Y-132205000D01*
X131593000Y-132246000D01*
X131583000Y-132287000D01*
X131571000Y-132327000D01*
X131557000Y-132367000D01*
X131541000Y-132405000D01*
X131523000Y-132443000D01*
X131503000Y-132480000D01*
X131481000Y-132516000D01*
X131457000Y-132550000D01*
X131432000Y-132583000D01*
X131405000Y-132615000D01*
X131376000Y-132646000D01*
X131345000Y-132675000D01*
X131313000Y-132702000D01*
X131280000Y-132727000D01*
X131246000Y-132751000D01*
X131210000Y-132773000D01*
X131173000Y-132793000D01*
X131135000Y-132811000D01*
X131097000Y-132827000D01*
X131057000Y-132841000D01*
X131017000Y-132853000D01*
X130976000Y-132863000D01*
X130935000Y-132870000D01*
X130894000Y-132876000D01*
X130852000Y-132879000D01*
X130810000Y-132880000D01*
X128410000Y-132880000D01*
X128410000Y-131280000D01*
X130810000Y-131280000D01*
X130852000Y-131281000D01*
G36*
X130852000Y-110961000D02*
G01*
X130894000Y-110964000D01*
X130935000Y-110970000D01*
X130976000Y-110977000D01*
X131017000Y-110987000D01*
X131057000Y-110999000D01*
X131097000Y-111013000D01*
X131135000Y-111029000D01*
X131173000Y-111047000D01*
X131210000Y-111067000D01*
X131246000Y-111089000D01*
X131280000Y-111113000D01*
X131313000Y-111138000D01*
X131345000Y-111165000D01*
X131376000Y-111194000D01*
X131405000Y-111225000D01*
X131432000Y-111257000D01*
X131457000Y-111290000D01*
X131481000Y-111324000D01*
X131503000Y-111360000D01*
X131523000Y-111397000D01*
X131541000Y-111435000D01*
X131557000Y-111473000D01*
X131571000Y-111513000D01*
X131583000Y-111553000D01*
X131593000Y-111594000D01*
X131600000Y-111635000D01*
X131606000Y-111676000D01*
X131609000Y-111718000D01*
X131610000Y-111760000D01*
X131609000Y-111802000D01*
X131606000Y-111844000D01*
X131600000Y-111885000D01*
X131593000Y-111926000D01*
X131583000Y-111967000D01*
X131571000Y-112007000D01*
X131557000Y-112047000D01*
X131541000Y-112085000D01*
X131523000Y-112123000D01*
X131503000Y-112160000D01*
X131481000Y-112196000D01*
X131457000Y-112230000D01*
X131432000Y-112263000D01*
X131405000Y-112295000D01*
X131376000Y-112326000D01*
X131345000Y-112355000D01*
X131313000Y-112382000D01*
X131280000Y-112407000D01*
X131246000Y-112431000D01*
X131210000Y-112453000D01*
X131173000Y-112473000D01*
X131135000Y-112491000D01*
X131097000Y-112507000D01*
X131057000Y-112521000D01*
X131017000Y-112533000D01*
X130976000Y-112543000D01*
X130935000Y-112550000D01*
X130894000Y-112556000D01*
X130852000Y-112559000D01*
X130810000Y-112560000D01*
X128410000Y-112560000D01*
X128410000Y-110960000D01*
X130810000Y-110960000D01*
X130852000Y-110961000D01*
G37*
X130852000Y-110961000D02*
X130894000Y-110964000D01*
X130935000Y-110970000D01*
X130976000Y-110977000D01*
X131017000Y-110987000D01*
X131057000Y-110999000D01*
X131097000Y-111013000D01*
X131135000Y-111029000D01*
X131173000Y-111047000D01*
X131210000Y-111067000D01*
X131246000Y-111089000D01*
X131280000Y-111113000D01*
X131313000Y-111138000D01*
X131345000Y-111165000D01*
X131376000Y-111194000D01*
X131405000Y-111225000D01*
X131432000Y-111257000D01*
X131457000Y-111290000D01*
X131481000Y-111324000D01*
X131503000Y-111360000D01*
X131523000Y-111397000D01*
X131541000Y-111435000D01*
X131557000Y-111473000D01*
X131571000Y-111513000D01*
X131583000Y-111553000D01*
X131593000Y-111594000D01*
X131600000Y-111635000D01*
X131606000Y-111676000D01*
X131609000Y-111718000D01*
X131610000Y-111760000D01*
X131609000Y-111802000D01*
X131606000Y-111844000D01*
X131600000Y-111885000D01*
X131593000Y-111926000D01*
X131583000Y-111967000D01*
X131571000Y-112007000D01*
X131557000Y-112047000D01*
X131541000Y-112085000D01*
X131523000Y-112123000D01*
X131503000Y-112160000D01*
X131481000Y-112196000D01*
X131457000Y-112230000D01*
X131432000Y-112263000D01*
X131405000Y-112295000D01*
X131376000Y-112326000D01*
X131345000Y-112355000D01*
X131313000Y-112382000D01*
X131280000Y-112407000D01*
X131246000Y-112431000D01*
X131210000Y-112453000D01*
X131173000Y-112473000D01*
X131135000Y-112491000D01*
X131097000Y-112507000D01*
X131057000Y-112521000D01*
X131017000Y-112533000D01*
X130976000Y-112543000D01*
X130935000Y-112550000D01*
X130894000Y-112556000D01*
X130852000Y-112559000D01*
X130810000Y-112560000D01*
X128410000Y-112560000D01*
X128410000Y-110960000D01*
X130810000Y-110960000D01*
X130852000Y-110961000D01*
G36*
X150990000Y-125260000D02*
G01*
X148590000Y-125260000D01*
X148548000Y-125259000D01*
X148506000Y-125256000D01*
X148465000Y-125250000D01*
X148424000Y-125243000D01*
X148383000Y-125233000D01*
X148343000Y-125221000D01*
X148303000Y-125207000D01*
X148265000Y-125191000D01*
X148227000Y-125173000D01*
X148190000Y-125153000D01*
X148154000Y-125131000D01*
X148120000Y-125107000D01*
X148087000Y-125082000D01*
X148055000Y-125055000D01*
X148024000Y-125026000D01*
X147995000Y-124995000D01*
X147968000Y-124963000D01*
X147943000Y-124930000D01*
X147919000Y-124896000D01*
X147897000Y-124860000D01*
X147877000Y-124823000D01*
X147859000Y-124785000D01*
X147843000Y-124747000D01*
X147829000Y-124707000D01*
X147817000Y-124667000D01*
X147807000Y-124626000D01*
X147800000Y-124585000D01*
X147794000Y-124544000D01*
X147791000Y-124502000D01*
X147790000Y-124460000D01*
X147791000Y-124418000D01*
X147794000Y-124376000D01*
X147800000Y-124335000D01*
X147807000Y-124294000D01*
X147817000Y-124253000D01*
X147829000Y-124213000D01*
X147843000Y-124173000D01*
X147859000Y-124135000D01*
X147877000Y-124097000D01*
X147897000Y-124060000D01*
X147919000Y-124024000D01*
X147943000Y-123990000D01*
X147968000Y-123957000D01*
X147995000Y-123925000D01*
X148024000Y-123894000D01*
X148055000Y-123865000D01*
X148087000Y-123838000D01*
X148120000Y-123813000D01*
X148154000Y-123789000D01*
X148190000Y-123767000D01*
X148227000Y-123747000D01*
X148265000Y-123729000D01*
X148303000Y-123713000D01*
X148343000Y-123699000D01*
X148383000Y-123687000D01*
X148424000Y-123677000D01*
X148465000Y-123670000D01*
X148506000Y-123664000D01*
X148548000Y-123661000D01*
X148590000Y-123660000D01*
X150990000Y-123660000D01*
X150990000Y-125260000D01*
G37*
X150990000Y-125260000D02*
X148590000Y-125260000D01*
X148548000Y-125259000D01*
X148506000Y-125256000D01*
X148465000Y-125250000D01*
X148424000Y-125243000D01*
X148383000Y-125233000D01*
X148343000Y-125221000D01*
X148303000Y-125207000D01*
X148265000Y-125191000D01*
X148227000Y-125173000D01*
X148190000Y-125153000D01*
X148154000Y-125131000D01*
X148120000Y-125107000D01*
X148087000Y-125082000D01*
X148055000Y-125055000D01*
X148024000Y-125026000D01*
X147995000Y-124995000D01*
X147968000Y-124963000D01*
X147943000Y-124930000D01*
X147919000Y-124896000D01*
X147897000Y-124860000D01*
X147877000Y-124823000D01*
X147859000Y-124785000D01*
X147843000Y-124747000D01*
X147829000Y-124707000D01*
X147817000Y-124667000D01*
X147807000Y-124626000D01*
X147800000Y-124585000D01*
X147794000Y-124544000D01*
X147791000Y-124502000D01*
X147790000Y-124460000D01*
X147791000Y-124418000D01*
X147794000Y-124376000D01*
X147800000Y-124335000D01*
X147807000Y-124294000D01*
X147817000Y-124253000D01*
X147829000Y-124213000D01*
X147843000Y-124173000D01*
X147859000Y-124135000D01*
X147877000Y-124097000D01*
X147897000Y-124060000D01*
X147919000Y-124024000D01*
X147943000Y-123990000D01*
X147968000Y-123957000D01*
X147995000Y-123925000D01*
X148024000Y-123894000D01*
X148055000Y-123865000D01*
X148087000Y-123838000D01*
X148120000Y-123813000D01*
X148154000Y-123789000D01*
X148190000Y-123767000D01*
X148227000Y-123747000D01*
X148265000Y-123729000D01*
X148303000Y-123713000D01*
X148343000Y-123699000D01*
X148383000Y-123687000D01*
X148424000Y-123677000D01*
X148465000Y-123670000D01*
X148506000Y-123664000D01*
X148548000Y-123661000D01*
X148590000Y-123660000D01*
X150990000Y-123660000D01*
X150990000Y-125260000D01*
G36*
X150990000Y-145580000D02*
G01*
X148590000Y-145580000D01*
X148548000Y-145579000D01*
X148506000Y-145576000D01*
X148465000Y-145570000D01*
X148424000Y-145563000D01*
X148383000Y-145553000D01*
X148343000Y-145541000D01*
X148303000Y-145527000D01*
X148265000Y-145511000D01*
X148227000Y-145493000D01*
X148190000Y-145473000D01*
X148154000Y-145451000D01*
X148120000Y-145427000D01*
X148087000Y-145402000D01*
X148055000Y-145375000D01*
X148024000Y-145346000D01*
X147995000Y-145315000D01*
X147968000Y-145283000D01*
X147943000Y-145250000D01*
X147919000Y-145216000D01*
X147897000Y-145180000D01*
X147877000Y-145143000D01*
X147859000Y-145105000D01*
X147843000Y-145067000D01*
X147829000Y-145027000D01*
X147817000Y-144987000D01*
X147807000Y-144946000D01*
X147800000Y-144905000D01*
X147794000Y-144864000D01*
X147791000Y-144822000D01*
X147790000Y-144780000D01*
X147791000Y-144738000D01*
X147794000Y-144696000D01*
X147800000Y-144655000D01*
X147807000Y-144614000D01*
X147817000Y-144573000D01*
X147829000Y-144533000D01*
X147843000Y-144493000D01*
X147859000Y-144455000D01*
X147877000Y-144417000D01*
X147897000Y-144380000D01*
X147919000Y-144344000D01*
X147943000Y-144310000D01*
X147968000Y-144277000D01*
X147995000Y-144245000D01*
X148024000Y-144214000D01*
X148055000Y-144185000D01*
X148087000Y-144158000D01*
X148120000Y-144133000D01*
X148154000Y-144109000D01*
X148190000Y-144087000D01*
X148227000Y-144067000D01*
X148265000Y-144049000D01*
X148303000Y-144033000D01*
X148343000Y-144019000D01*
X148383000Y-144007000D01*
X148424000Y-143997000D01*
X148465000Y-143990000D01*
X148506000Y-143984000D01*
X148548000Y-143981000D01*
X148590000Y-143980000D01*
X150990000Y-143980000D01*
X150990000Y-145580000D01*
G37*
X150990000Y-145580000D02*
X148590000Y-145580000D01*
X148548000Y-145579000D01*
X148506000Y-145576000D01*
X148465000Y-145570000D01*
X148424000Y-145563000D01*
X148383000Y-145553000D01*
X148343000Y-145541000D01*
X148303000Y-145527000D01*
X148265000Y-145511000D01*
X148227000Y-145493000D01*
X148190000Y-145473000D01*
X148154000Y-145451000D01*
X148120000Y-145427000D01*
X148087000Y-145402000D01*
X148055000Y-145375000D01*
X148024000Y-145346000D01*
X147995000Y-145315000D01*
X147968000Y-145283000D01*
X147943000Y-145250000D01*
X147919000Y-145216000D01*
X147897000Y-145180000D01*
X147877000Y-145143000D01*
X147859000Y-145105000D01*
X147843000Y-145067000D01*
X147829000Y-145027000D01*
X147817000Y-144987000D01*
X147807000Y-144946000D01*
X147800000Y-144905000D01*
X147794000Y-144864000D01*
X147791000Y-144822000D01*
X147790000Y-144780000D01*
X147791000Y-144738000D01*
X147794000Y-144696000D01*
X147800000Y-144655000D01*
X147807000Y-144614000D01*
X147817000Y-144573000D01*
X147829000Y-144533000D01*
X147843000Y-144493000D01*
X147859000Y-144455000D01*
X147877000Y-144417000D01*
X147897000Y-144380000D01*
X147919000Y-144344000D01*
X147943000Y-144310000D01*
X147968000Y-144277000D01*
X147995000Y-144245000D01*
X148024000Y-144214000D01*
X148055000Y-144185000D01*
X148087000Y-144158000D01*
X148120000Y-144133000D01*
X148154000Y-144109000D01*
X148190000Y-144087000D01*
X148227000Y-144067000D01*
X148265000Y-144049000D01*
X148303000Y-144033000D01*
X148343000Y-144019000D01*
X148383000Y-144007000D01*
X148424000Y-143997000D01*
X148465000Y-143990000D01*
X148506000Y-143984000D01*
X148548000Y-143981000D01*
X148590000Y-143980000D01*
X150990000Y-143980000D01*
X150990000Y-145580000D01*
G36*
X131431000Y-113501000D02*
G01*
X131441000Y-113502000D01*
X131452000Y-113504000D01*
X131482000Y-113513000D01*
X131491000Y-113517000D01*
X131501000Y-113522000D01*
X131519000Y-113532000D01*
X131528000Y-113538000D01*
X131536000Y-113545000D01*
X131544000Y-113551000D01*
X131551000Y-113559000D01*
X131559000Y-113566000D01*
X131565000Y-113574000D01*
X131572000Y-113582000D01*
X131578000Y-113591000D01*
X131588000Y-113609000D01*
X131593000Y-113619000D01*
X131597000Y-113628000D01*
X131606000Y-113658000D01*
X131608000Y-113669000D01*
X131609000Y-113679000D01*
X131610000Y-113690000D01*
X131610000Y-114910000D01*
X131609000Y-114921000D01*
X131608000Y-114931000D01*
X131606000Y-114942000D01*
X131597000Y-114972000D01*
X131593000Y-114981000D01*
X131588000Y-114991000D01*
X131578000Y-115009000D01*
X131572000Y-115018000D01*
X131565000Y-115026000D01*
X131559000Y-115034000D01*
X131551000Y-115041000D01*
X131544000Y-115049000D01*
X131536000Y-115055000D01*
X131528000Y-115062000D01*
X131519000Y-115068000D01*
X131501000Y-115078000D01*
X131491000Y-115083000D01*
X131482000Y-115087000D01*
X131452000Y-115096000D01*
X131441000Y-115098000D01*
X131431000Y-115099000D01*
X131420000Y-115100000D01*
X128410000Y-115100000D01*
X128410000Y-113500000D01*
X131420000Y-113500000D01*
X131431000Y-113501000D01*
G37*
X131431000Y-113501000D02*
X131441000Y-113502000D01*
X131452000Y-113504000D01*
X131482000Y-113513000D01*
X131491000Y-113517000D01*
X131501000Y-113522000D01*
X131519000Y-113532000D01*
X131528000Y-113538000D01*
X131536000Y-113545000D01*
X131544000Y-113551000D01*
X131551000Y-113559000D01*
X131559000Y-113566000D01*
X131565000Y-113574000D01*
X131572000Y-113582000D01*
X131578000Y-113591000D01*
X131588000Y-113609000D01*
X131593000Y-113619000D01*
X131597000Y-113628000D01*
X131606000Y-113658000D01*
X131608000Y-113669000D01*
X131609000Y-113679000D01*
X131610000Y-113690000D01*
X131610000Y-114910000D01*
X131609000Y-114921000D01*
X131608000Y-114931000D01*
X131606000Y-114942000D01*
X131597000Y-114972000D01*
X131593000Y-114981000D01*
X131588000Y-114991000D01*
X131578000Y-115009000D01*
X131572000Y-115018000D01*
X131565000Y-115026000D01*
X131559000Y-115034000D01*
X131551000Y-115041000D01*
X131544000Y-115049000D01*
X131536000Y-115055000D01*
X131528000Y-115062000D01*
X131519000Y-115068000D01*
X131501000Y-115078000D01*
X131491000Y-115083000D01*
X131482000Y-115087000D01*
X131452000Y-115096000D01*
X131441000Y-115098000D01*
X131431000Y-115099000D01*
X131420000Y-115100000D01*
X128410000Y-115100000D01*
X128410000Y-113500000D01*
X131420000Y-113500000D01*
X131431000Y-113501000D01*
G36*
X131431000Y-126201000D02*
G01*
X131441000Y-126202000D01*
X131452000Y-126204000D01*
X131482000Y-126213000D01*
X131491000Y-126217000D01*
X131501000Y-126222000D01*
X131519000Y-126232000D01*
X131528000Y-126238000D01*
X131536000Y-126245000D01*
X131544000Y-126251000D01*
X131551000Y-126259000D01*
X131559000Y-126266000D01*
X131565000Y-126274000D01*
X131572000Y-126282000D01*
X131578000Y-126291000D01*
X131588000Y-126309000D01*
X131593000Y-126319000D01*
X131597000Y-126328000D01*
X131606000Y-126358000D01*
X131608000Y-126369000D01*
X131609000Y-126379000D01*
X131610000Y-126390000D01*
X131610000Y-127610000D01*
X131609000Y-127621000D01*
X131608000Y-127631000D01*
X131606000Y-127642000D01*
X131597000Y-127672000D01*
X131593000Y-127681000D01*
X131588000Y-127691000D01*
X131578000Y-127709000D01*
X131572000Y-127718000D01*
X131565000Y-127726000D01*
X131559000Y-127734000D01*
X131551000Y-127741000D01*
X131544000Y-127749000D01*
X131536000Y-127755000D01*
X131528000Y-127762000D01*
X131519000Y-127768000D01*
X131501000Y-127778000D01*
X131491000Y-127783000D01*
X131482000Y-127787000D01*
X131452000Y-127796000D01*
X131441000Y-127798000D01*
X131431000Y-127799000D01*
X131420000Y-127800000D01*
X128410000Y-127800000D01*
X128410000Y-126200000D01*
X131420000Y-126200000D01*
X131431000Y-126201000D01*
G37*
X131431000Y-126201000D02*
X131441000Y-126202000D01*
X131452000Y-126204000D01*
X131482000Y-126213000D01*
X131491000Y-126217000D01*
X131501000Y-126222000D01*
X131519000Y-126232000D01*
X131528000Y-126238000D01*
X131536000Y-126245000D01*
X131544000Y-126251000D01*
X131551000Y-126259000D01*
X131559000Y-126266000D01*
X131565000Y-126274000D01*
X131572000Y-126282000D01*
X131578000Y-126291000D01*
X131588000Y-126309000D01*
X131593000Y-126319000D01*
X131597000Y-126328000D01*
X131606000Y-126358000D01*
X131608000Y-126369000D01*
X131609000Y-126379000D01*
X131610000Y-126390000D01*
X131610000Y-127610000D01*
X131609000Y-127621000D01*
X131608000Y-127631000D01*
X131606000Y-127642000D01*
X131597000Y-127672000D01*
X131593000Y-127681000D01*
X131588000Y-127691000D01*
X131578000Y-127709000D01*
X131572000Y-127718000D01*
X131565000Y-127726000D01*
X131559000Y-127734000D01*
X131551000Y-127741000D01*
X131544000Y-127749000D01*
X131536000Y-127755000D01*
X131528000Y-127762000D01*
X131519000Y-127768000D01*
X131501000Y-127778000D01*
X131491000Y-127783000D01*
X131482000Y-127787000D01*
X131452000Y-127796000D01*
X131441000Y-127798000D01*
X131431000Y-127799000D01*
X131420000Y-127800000D01*
X128410000Y-127800000D01*
X128410000Y-126200000D01*
X131420000Y-126200000D01*
X131431000Y-126201000D01*
%TD*%
D11*
%TO.C,R19*%
X144830800Y-77985500D03*
X144830800Y-79560500D03*
%TD*%
D12*
%TO.C,Q2*%
X137225000Y-76073000D03*
X137225000Y-77343000D03*
X137225000Y-74803000D03*
X137225000Y-78613000D03*
X142175000Y-78613000D03*
X142175000Y-76073000D03*
X142175000Y-74803000D03*
X142175000Y-77343000D03*
%TD*%
D11*
%TO.C,R8*%
X98783099Y-126492000D03*
X98783099Y-128067000D03*
%TD*%
D13*
%TO.C,R1*%
X98389399Y-119761000D03*
X103748799Y-119761000D03*
%TD*%
D11*
%TO.C,C3*%
X93703099Y-118592500D03*
X93703099Y-120167500D03*
%TD*%
%TO.C,R12*%
X159766000Y-104876500D03*
X159766000Y-106451500D03*
%TD*%
%TO.C,C10*%
X118294000Y-105638500D03*
X118294000Y-107213500D03*
%TD*%
D14*
%TO.C,R7*%
X170561000Y-132867500D03*
X170561000Y-131292500D03*
%TD*%
D11*
%TO.C,R20*%
X144830800Y-81218900D03*
X144830800Y-82793900D03*
%TD*%
D15*
%TO.C,D5*%
X137250000Y-86030000D03*
X137250000Y-89230000D03*
X142150000Y-89230000D03*
X142150000Y-86030000D03*
%TD*%
D16*
%TO.C,BT1*%
X180187000Y-109220000D03*
X163787000Y-109220000D03*
%TD*%
D17*
%TO.C,J5*%
X183912000Y-138268000D03*
X185912000Y-138268000D03*
D18*
X181562000Y-144018000D03*
X188262000Y-144018000D03*
%TD*%
D17*
%TO.C,J2*%
X157242000Y-138268000D03*
X159242000Y-138268000D03*
D18*
X154892000Y-144018000D03*
X161592000Y-144018000D03*
%TD*%
D19*
%TO.C,C7*%
X193522500Y-129032000D03*
X195097500Y-129032000D03*
%TD*%
D14*
%TO.C,R5*%
X160401000Y-132867500D03*
X160401000Y-131292500D03*
%TD*%
D20*
%TO.C,Q3*%
X149794000Y-74742800D03*
X147894000Y-74742800D03*
X148844000Y-76742800D03*
%TD*%
D11*
%TO.C,R11*%
X158242000Y-104876500D03*
X158242000Y-106451500D03*
%TD*%
D20*
%TO.C,Q1*%
X96431099Y-128540000D03*
X94531099Y-128540000D03*
X95481099Y-130540000D03*
%TD*%
D14*
%TO.C,R15*%
X126492000Y-113309500D03*
X126492000Y-111734500D03*
%TD*%
D21*
%TO.C,U2*%
X155321000Y-127984000D03*
X157861000Y-127984000D03*
X160401000Y-127984000D03*
X162941000Y-127984000D03*
X165481000Y-127984000D03*
X168021000Y-127984000D03*
X170561000Y-127984000D03*
X173101000Y-127984000D03*
X173101000Y-118904000D03*
X170561000Y-118904000D03*
X168021000Y-118904000D03*
X165481000Y-118904000D03*
X162941000Y-118904000D03*
X160401000Y-118904000D03*
X157861000Y-118904000D03*
X155321000Y-118904000D03*
%TD*%
D22*
%TO.C,C2*%
X93703099Y-123698000D03*
X93703099Y-121823000D03*
%TD*%
D23*
%TO.C,U6*%
X122796000Y-103956000D03*
X122796000Y-104756000D03*
X122796000Y-105556000D03*
X122796000Y-106356000D03*
X120396000Y-106356000D03*
X120396000Y-105556000D03*
X120396000Y-104756000D03*
X120396000Y-103956000D03*
%TD*%
D24*
%TO.C,U3*%
X95280300Y-105222000D03*
X95280300Y-106172000D03*
X95280300Y-107122000D03*
X97480300Y-107122000D03*
X97480300Y-105222000D03*
%TD*%
D19*
%TO.C,C6*%
X184764500Y-129032000D03*
X186339500Y-129032000D03*
%TD*%
D14*
%TO.C,R17*%
X147828000Y-80035500D03*
X147828000Y-78460500D03*
%TD*%
D25*
%TO.C,D3*%
X94488000Y-109982000D03*
X98272600Y-109982000D03*
%TD*%
D17*
%TO.C,J4*%
X175022000Y-138268000D03*
X177022000Y-138268000D03*
D18*
X172672000Y-144018000D03*
X179372000Y-144018000D03*
%TD*%
D26*
%TO.C,U4*%
X181114000Y-122467000D03*
X194314000Y-122467000D03*
D27*
X187789000Y-127242000D03*
D26*
X182114000Y-118667000D03*
D27*
X191589000Y-114042000D03*
X190539000Y-113042000D03*
X186739000Y-114042000D03*
X188639000Y-114042000D03*
X192439000Y-127242000D03*
D26*
X194314000Y-117817000D03*
X181114000Y-115917000D03*
D27*
X188639000Y-113042000D03*
D26*
X181114000Y-120567000D03*
X195314000Y-116767000D03*
D27*
X189689000Y-114042000D03*
D26*
X195314000Y-119717000D03*
X181114000Y-119717000D03*
D27*
X192439000Y-114042000D03*
X187789000Y-114042000D03*
D26*
X194314000Y-121617000D03*
X195314000Y-115917000D03*
X181114000Y-116767000D03*
D27*
X186739000Y-113042000D03*
X190539000Y-126242000D03*
X187789000Y-126242000D03*
X190539000Y-127242000D03*
X191589000Y-127242000D03*
D26*
X181114000Y-123517000D03*
D27*
X189689000Y-127242000D03*
D26*
X194314000Y-124367000D03*
X194314000Y-115917000D03*
X194314000Y-119717000D03*
X181114000Y-117817000D03*
X195314000Y-118667000D03*
X182114000Y-124367000D03*
D27*
X184839000Y-126242000D03*
D26*
X181114000Y-121617000D03*
X181114000Y-118667000D03*
D27*
X183989000Y-126242000D03*
X192439000Y-126242000D03*
D26*
X182114000Y-115917000D03*
D27*
X189689000Y-126242000D03*
D26*
X194314000Y-120567000D03*
D27*
X185889000Y-114042000D03*
X184839000Y-114042000D03*
D26*
X195314000Y-120567000D03*
D27*
X185889000Y-126242000D03*
D26*
X194314000Y-118667000D03*
D27*
X186739000Y-126242000D03*
D26*
X182114000Y-116767000D03*
X182114000Y-123517000D03*
D27*
X185889000Y-127242000D03*
X191589000Y-113042000D03*
X183989000Y-114042000D03*
D26*
X182114000Y-122467000D03*
D27*
X186739000Y-127242000D03*
D26*
X182114000Y-120567000D03*
D27*
X189689000Y-113042000D03*
X190539000Y-114042000D03*
X187789000Y-113042000D03*
X188639000Y-127242000D03*
D26*
X195314000Y-122467000D03*
X182114000Y-119717000D03*
X195314000Y-123517000D03*
X194314000Y-123517000D03*
D27*
X184839000Y-113042000D03*
D26*
X181114000Y-124367000D03*
X195314000Y-117817000D03*
D27*
X185889000Y-113042000D03*
X188639000Y-126242000D03*
X184839000Y-127242000D03*
D26*
X195314000Y-121617000D03*
D27*
X191589000Y-126242000D03*
D26*
X182114000Y-117817000D03*
X182114000Y-121617000D03*
D27*
X192439000Y-113042000D03*
X183989000Y-127242000D03*
D26*
X194314000Y-116767000D03*
D27*
X183989000Y-113042000D03*
D26*
X195314000Y-124367000D03*
%TD*%
D11*
%TO.C,R9*%
X155194000Y-104876500D03*
X155194000Y-106451500D03*
%TD*%
%TO.C,R16*%
X149860000Y-78460500D03*
X149860000Y-80035500D03*
%TD*%
D28*
%TO.C,C4*%
X92697300Y-105234500D03*
X92697300Y-107109500D03*
%TD*%
D17*
%TO.C,J3*%
X166132000Y-138268000D03*
X168132000Y-138268000D03*
D18*
X163782000Y-144018000D03*
X170482000Y-144018000D03*
%TD*%
D14*
%TO.C,R4*%
X155321000Y-132867500D03*
X155321000Y-131292500D03*
%TD*%
%TO.C,R13*%
X144272000Y-88417500D03*
X144272000Y-86842500D03*
%TD*%
D11*
%TO.C,R18*%
X144830800Y-74752100D03*
X144830800Y-76327100D03*
%TD*%
D25*
%TO.C,D1*%
X102961399Y-123317000D03*
X99176799Y-123317000D03*
%TD*%
D19*
%TO.C,R3*%
X138912500Y-80582000D03*
X140487500Y-80582000D03*
%TD*%
D11*
%TO.C,R14*%
X126492000Y-107645000D03*
X126492000Y-109220000D03*
%TD*%
D29*
%TO.C,R2*%
X140487500Y-82106000D03*
X138912500Y-82106000D03*
%TD*%
D11*
%TO.C,C9*%
X124898000Y-103073000D03*
X124898000Y-104648000D03*
%TD*%
D30*
%TO.C,D4*%
X93881099Y-126492000D03*
D31*
X97072099Y-126492000D03*
%TD*%
D25*
%TO.C,D2*%
X94488000Y-113538000D03*
X98272600Y-113538000D03*
%TD*%
D11*
%TO.C,C8*%
X135128000Y-86817000D03*
X135128000Y-88392000D03*
%TD*%
%TO.C,R10*%
X156718000Y-104876500D03*
X156718000Y-106451500D03*
%TD*%
D28*
%TO.C,C5*%
X100063300Y-105234500D03*
X100063300Y-107109500D03*
%TD*%
D14*
%TO.C,R6*%
X165481000Y-132867500D03*
X165481000Y-131292500D03*
%TD*%
M02*
