%TF.GenerationSoftware,KiCad,Pcbnew,(6.0.7)*%
%TF.CreationDate,2024-01-30T15:32:42-06:00*%
%TF.ProjectId,Cutdown,43757464-6f77-46e2-9e6b-696361645f70,1.0.0*%
%TF.SameCoordinates,Original*%
%TF.FileFunction,Soldermask,Top*%
%TF.FilePolarity,Negative*%
%FSLAX46Y46*%
G04 Gerber Fmt 4.6, Leading zero omitted, Abs format (unit mm)*
G04 Created by KiCad (PCBNEW (6.0.7)) date 2024-01-30 15:32:42*
%MOMM*%
%LPD*%
G01*
G04 APERTURE LIST*
G04 Aperture macros list*
%AMRoundRect*
0 Rectangle with rounded corners*
0 $1 Rounding radius*
0 $2 $3 $4 $5 $6 $7 $8 $9 X,Y pos of 4 corners*
0 Add a 4 corners polygon primitive as box body*
4,1,4,$2,$3,$4,$5,$6,$7,$8,$9,$2,$3,0*
0 Add four circle primitives for the rounded corners*
1,1,$1+$1,$2,$3*
1,1,$1+$1,$4,$5*
1,1,$1+$1,$6,$7*
1,1,$1+$1,$8,$9*
0 Add four rect primitives between the rounded corners*
20,1,$1+$1,$2,$3,$4,$5,0*
20,1,$1+$1,$4,$5,$6,$7,0*
20,1,$1+$1,$6,$7,$8,$9,0*
20,1,$1+$1,$8,$9,$2,$3,0*%
%AMFreePoly0*
4,1,22,0.550000,-0.750000,0.000000,-0.750000,0.000000,-0.745033,-0.079941,-0.743568,-0.215256,-0.701293,-0.333266,-0.622738,-0.424486,-0.514219,-0.481581,-0.384460,-0.499164,-0.250000,-0.500000,-0.250000,-0.500000,0.250000,-0.499164,0.250000,-0.499963,0.256109,-0.478152,0.396186,-0.417904,0.524511,-0.324060,0.630769,-0.204165,0.706417,-0.067858,0.745374,0.000000,0.744959,0.000000,0.750000,
0.550000,0.750000,0.550000,-0.750000,0.550000,-0.750000,$1*%
%AMFreePoly1*
4,1,20,0.000000,0.744959,0.073905,0.744508,0.209726,0.703889,0.328688,0.626782,0.421226,0.519385,0.479903,0.390333,0.500000,0.250000,0.500000,-0.250000,0.499851,-0.262216,0.476331,-0.402017,0.414519,-0.529596,0.319384,-0.634700,0.198574,-0.708877,0.061801,-0.746166,0.000000,-0.745033,0.000000,-0.750000,-0.550000,-0.750000,-0.550000,0.750000,0.000000,0.750000,0.000000,0.744959,
0.000000,0.744959,$1*%
G04 Aperture macros list end*
%ADD10C,0.010000*%
%ADD11RoundRect,0.218750X-0.256250X0.218750X-0.256250X-0.218750X0.256250X-0.218750X0.256250X0.218750X0*%
%ADD12C,2.600000*%
%ADD13RoundRect,0.249900X-0.800100X-0.800100X0.800100X-0.800100X0.800100X0.800100X-0.800100X0.800100X0*%
%ADD14C,2.100000*%
%ADD15RoundRect,0.150000X-0.825000X-0.150000X0.825000X-0.150000X0.825000X0.150000X-0.825000X0.150000X0*%
%ADD16C,1.498600*%
%ADD17C,2.200000*%
%ADD18R,1.752600X2.616200*%
%ADD19C,3.810000*%
%ADD20RoundRect,0.218750X0.256250X-0.218750X0.256250X0.218750X-0.256250X0.218750X-0.256250X-0.218750X0*%
%ADD21R,1.500000X1.000000*%
%ADD22C,1.050000*%
%ADD23C,1.300000*%
%ADD24R,4.500000X2.300000*%
%ADD25R,1.000000X3.500000*%
%ADD26R,1.500000X3.400000*%
%ADD27RoundRect,0.218750X-0.218750X-0.256250X0.218750X-0.256250X0.218750X0.256250X-0.218750X0.256250X0*%
%ADD28R,0.800000X0.900000*%
%ADD29C,2.000000*%
%ADD30RoundRect,0.338300X0.458700X-0.808700X0.458700X0.808700X-0.458700X0.808700X-0.458700X-0.808700X0*%
%ADD31RoundRect,0.243750X0.456250X-0.243750X0.456250X0.243750X-0.456250X0.243750X-0.456250X-0.243750X0*%
%ADD32RoundRect,0.102000X-0.200000X-0.200000X0.200000X-0.200000X0.200000X0.200000X-0.200000X0.200000X0*%
%ADD33R,1.060000X0.650000*%
%ADD34R,2.184400X1.701800*%
%ADD35RoundRect,0.000001X0.900000X0.750000X-0.900000X0.750000X-0.900000X-0.750000X0.900000X-0.750000X0*%
%ADD36RoundRect,0.000001X0.750000X0.900000X-0.750000X0.900000X-0.750000X-0.900000X0.750000X-0.900000X0*%
%ADD37FreePoly0,0.000000*%
%ADD38R,1.000000X1.500000*%
%ADD39FreePoly1,0.000000*%
%ADD40R,2.500000X2.500000*%
%ADD41C,2.500000*%
%ADD42RoundRect,0.243750X-0.456250X0.243750X-0.456250X-0.243750X0.456250X-0.243750X0.456250X0.243750X0*%
%ADD43RoundRect,0.218750X0.218750X0.256250X-0.218750X0.256250X-0.218750X-0.256250X0.218750X-0.256250X0*%
%ADD44R,0.900000X1.700000*%
%ADD45R,0.882000X1.700000*%
G04 APERTURE END LIST*
%TO.C,U5*%
G36*
X151090000Y-102500000D02*
G01*
X147974000Y-102500000D01*
X147959000Y-102498000D01*
X147943000Y-102496000D01*
X147928000Y-102493000D01*
X147912000Y-102490000D01*
X147882000Y-102480000D01*
X147868000Y-102474000D01*
X147840000Y-102460000D01*
X147827000Y-102452000D01*
X147814000Y-102443000D01*
X147801000Y-102433000D01*
X147789000Y-102423000D01*
X147767000Y-102401000D01*
X147757000Y-102389000D01*
X147747000Y-102376000D01*
X147738000Y-102363000D01*
X147730000Y-102350000D01*
X147716000Y-102322000D01*
X147710000Y-102308000D01*
X147700000Y-102278000D01*
X147697000Y-102262000D01*
X147694000Y-102247000D01*
X147692000Y-102231000D01*
X147690000Y-102216000D01*
X147690000Y-100984000D01*
X147692000Y-100969000D01*
X147694000Y-100953000D01*
X147697000Y-100938000D01*
X147700000Y-100922000D01*
X147710000Y-100892000D01*
X147716000Y-100878000D01*
X147730000Y-100850000D01*
X147738000Y-100837000D01*
X147747000Y-100824000D01*
X147757000Y-100811000D01*
X147767000Y-100799000D01*
X147789000Y-100777000D01*
X147801000Y-100767000D01*
X147814000Y-100757000D01*
X147827000Y-100748000D01*
X147840000Y-100740000D01*
X147868000Y-100726000D01*
X147882000Y-100720000D01*
X147912000Y-100710000D01*
X147928000Y-100707000D01*
X147943000Y-100704000D01*
X147959000Y-100702000D01*
X147974000Y-100700000D01*
X151090000Y-100700000D01*
X151090000Y-102500000D01*
G37*
D10*
X151090000Y-102500000D02*
X147974000Y-102500000D01*
X147959000Y-102498000D01*
X147943000Y-102496000D01*
X147928000Y-102493000D01*
X147912000Y-102490000D01*
X147882000Y-102480000D01*
X147868000Y-102474000D01*
X147840000Y-102460000D01*
X147827000Y-102452000D01*
X147814000Y-102443000D01*
X147801000Y-102433000D01*
X147789000Y-102423000D01*
X147767000Y-102401000D01*
X147757000Y-102389000D01*
X147747000Y-102376000D01*
X147738000Y-102363000D01*
X147730000Y-102350000D01*
X147716000Y-102322000D01*
X147710000Y-102308000D01*
X147700000Y-102278000D01*
X147697000Y-102262000D01*
X147694000Y-102247000D01*
X147692000Y-102231000D01*
X147690000Y-102216000D01*
X147690000Y-100984000D01*
X147692000Y-100969000D01*
X147694000Y-100953000D01*
X147697000Y-100938000D01*
X147700000Y-100922000D01*
X147710000Y-100892000D01*
X147716000Y-100878000D01*
X147730000Y-100850000D01*
X147738000Y-100837000D01*
X147747000Y-100824000D01*
X147757000Y-100811000D01*
X147767000Y-100799000D01*
X147789000Y-100777000D01*
X147801000Y-100767000D01*
X147814000Y-100757000D01*
X147827000Y-100748000D01*
X147840000Y-100740000D01*
X147868000Y-100726000D01*
X147882000Y-100720000D01*
X147912000Y-100710000D01*
X147928000Y-100707000D01*
X147943000Y-100704000D01*
X147959000Y-100702000D01*
X147974000Y-100700000D01*
X151090000Y-100700000D01*
X151090000Y-102500000D01*
G36*
X151090000Y-135520000D02*
G01*
X148590000Y-135520000D01*
X148543000Y-135519000D01*
X148496000Y-135515000D01*
X148449000Y-135509000D01*
X148403000Y-135500000D01*
X148357000Y-135489000D01*
X148312000Y-135476000D01*
X148267000Y-135460000D01*
X148224000Y-135442000D01*
X148181000Y-135422000D01*
X148140000Y-135399000D01*
X148100000Y-135375000D01*
X148061000Y-135348000D01*
X148024000Y-135319000D01*
X147988000Y-135289000D01*
X147954000Y-135256000D01*
X147921000Y-135222000D01*
X147891000Y-135186000D01*
X147862000Y-135149000D01*
X147835000Y-135110000D01*
X147811000Y-135070000D01*
X147788000Y-135029000D01*
X147768000Y-134986000D01*
X147750000Y-134943000D01*
X147734000Y-134898000D01*
X147721000Y-134853000D01*
X147710000Y-134807000D01*
X147701000Y-134761000D01*
X147695000Y-134714000D01*
X147691000Y-134667000D01*
X147690000Y-134620000D01*
X147691000Y-134573000D01*
X147695000Y-134526000D01*
X147701000Y-134479000D01*
X147710000Y-134433000D01*
X147721000Y-134387000D01*
X147734000Y-134342000D01*
X147750000Y-134297000D01*
X147768000Y-134254000D01*
X147788000Y-134211000D01*
X147811000Y-134170000D01*
X147835000Y-134130000D01*
X147862000Y-134091000D01*
X147891000Y-134054000D01*
X147921000Y-134018000D01*
X147954000Y-133984000D01*
X147988000Y-133951000D01*
X148024000Y-133921000D01*
X148061000Y-133892000D01*
X148100000Y-133865000D01*
X148140000Y-133841000D01*
X148181000Y-133818000D01*
X148224000Y-133798000D01*
X148267000Y-133780000D01*
X148312000Y-133764000D01*
X148357000Y-133751000D01*
X148403000Y-133740000D01*
X148449000Y-133731000D01*
X148496000Y-133725000D01*
X148543000Y-133721000D01*
X148590000Y-133720000D01*
X151090000Y-133720000D01*
X151090000Y-135520000D01*
G37*
X151090000Y-135520000D02*
X148590000Y-135520000D01*
X148543000Y-135519000D01*
X148496000Y-135515000D01*
X148449000Y-135509000D01*
X148403000Y-135500000D01*
X148357000Y-135489000D01*
X148312000Y-135476000D01*
X148267000Y-135460000D01*
X148224000Y-135442000D01*
X148181000Y-135422000D01*
X148140000Y-135399000D01*
X148100000Y-135375000D01*
X148061000Y-135348000D01*
X148024000Y-135319000D01*
X147988000Y-135289000D01*
X147954000Y-135256000D01*
X147921000Y-135222000D01*
X147891000Y-135186000D01*
X147862000Y-135149000D01*
X147835000Y-135110000D01*
X147811000Y-135070000D01*
X147788000Y-135029000D01*
X147768000Y-134986000D01*
X147750000Y-134943000D01*
X147734000Y-134898000D01*
X147721000Y-134853000D01*
X147710000Y-134807000D01*
X147701000Y-134761000D01*
X147695000Y-134714000D01*
X147691000Y-134667000D01*
X147690000Y-134620000D01*
X147691000Y-134573000D01*
X147695000Y-134526000D01*
X147701000Y-134479000D01*
X147710000Y-134433000D01*
X147721000Y-134387000D01*
X147734000Y-134342000D01*
X147750000Y-134297000D01*
X147768000Y-134254000D01*
X147788000Y-134211000D01*
X147811000Y-134170000D01*
X147835000Y-134130000D01*
X147862000Y-134091000D01*
X147891000Y-134054000D01*
X147921000Y-134018000D01*
X147954000Y-133984000D01*
X147988000Y-133951000D01*
X148024000Y-133921000D01*
X148061000Y-133892000D01*
X148100000Y-133865000D01*
X148140000Y-133841000D01*
X148181000Y-133818000D01*
X148224000Y-133798000D01*
X148267000Y-133780000D01*
X148312000Y-133764000D01*
X148357000Y-133751000D01*
X148403000Y-133740000D01*
X148449000Y-133731000D01*
X148496000Y-133725000D01*
X148543000Y-133721000D01*
X148590000Y-133720000D01*
X151090000Y-133720000D01*
X151090000Y-135520000D01*
G36*
X151090000Y-125360000D02*
G01*
X148590000Y-125360000D01*
X148543000Y-125359000D01*
X148496000Y-125355000D01*
X148449000Y-125349000D01*
X148403000Y-125340000D01*
X148357000Y-125329000D01*
X148312000Y-125316000D01*
X148267000Y-125300000D01*
X148224000Y-125282000D01*
X148181000Y-125262000D01*
X148140000Y-125239000D01*
X148100000Y-125215000D01*
X148061000Y-125188000D01*
X148024000Y-125159000D01*
X147988000Y-125129000D01*
X147954000Y-125096000D01*
X147921000Y-125062000D01*
X147891000Y-125026000D01*
X147862000Y-124989000D01*
X147835000Y-124950000D01*
X147811000Y-124910000D01*
X147788000Y-124869000D01*
X147768000Y-124826000D01*
X147750000Y-124783000D01*
X147734000Y-124738000D01*
X147721000Y-124693000D01*
X147710000Y-124647000D01*
X147701000Y-124601000D01*
X147695000Y-124554000D01*
X147691000Y-124507000D01*
X147690000Y-124460000D01*
X147691000Y-124413000D01*
X147695000Y-124366000D01*
X147701000Y-124319000D01*
X147710000Y-124273000D01*
X147721000Y-124227000D01*
X147734000Y-124182000D01*
X147750000Y-124137000D01*
X147768000Y-124094000D01*
X147788000Y-124051000D01*
X147811000Y-124010000D01*
X147835000Y-123970000D01*
X147862000Y-123931000D01*
X147891000Y-123894000D01*
X147921000Y-123858000D01*
X147954000Y-123824000D01*
X147988000Y-123791000D01*
X148024000Y-123761000D01*
X148061000Y-123732000D01*
X148100000Y-123705000D01*
X148140000Y-123681000D01*
X148181000Y-123658000D01*
X148224000Y-123638000D01*
X148267000Y-123620000D01*
X148312000Y-123604000D01*
X148357000Y-123591000D01*
X148403000Y-123580000D01*
X148449000Y-123571000D01*
X148496000Y-123565000D01*
X148543000Y-123561000D01*
X148590000Y-123560000D01*
X151090000Y-123560000D01*
X151090000Y-125360000D01*
G37*
X151090000Y-125360000D02*
X148590000Y-125360000D01*
X148543000Y-125359000D01*
X148496000Y-125355000D01*
X148449000Y-125349000D01*
X148403000Y-125340000D01*
X148357000Y-125329000D01*
X148312000Y-125316000D01*
X148267000Y-125300000D01*
X148224000Y-125282000D01*
X148181000Y-125262000D01*
X148140000Y-125239000D01*
X148100000Y-125215000D01*
X148061000Y-125188000D01*
X148024000Y-125159000D01*
X147988000Y-125129000D01*
X147954000Y-125096000D01*
X147921000Y-125062000D01*
X147891000Y-125026000D01*
X147862000Y-124989000D01*
X147835000Y-124950000D01*
X147811000Y-124910000D01*
X147788000Y-124869000D01*
X147768000Y-124826000D01*
X147750000Y-124783000D01*
X147734000Y-124738000D01*
X147721000Y-124693000D01*
X147710000Y-124647000D01*
X147701000Y-124601000D01*
X147695000Y-124554000D01*
X147691000Y-124507000D01*
X147690000Y-124460000D01*
X147691000Y-124413000D01*
X147695000Y-124366000D01*
X147701000Y-124319000D01*
X147710000Y-124273000D01*
X147721000Y-124227000D01*
X147734000Y-124182000D01*
X147750000Y-124137000D01*
X147768000Y-124094000D01*
X147788000Y-124051000D01*
X147811000Y-124010000D01*
X147835000Y-123970000D01*
X147862000Y-123931000D01*
X147891000Y-123894000D01*
X147921000Y-123858000D01*
X147954000Y-123824000D01*
X147988000Y-123791000D01*
X148024000Y-123761000D01*
X148061000Y-123732000D01*
X148100000Y-123705000D01*
X148140000Y-123681000D01*
X148181000Y-123658000D01*
X148224000Y-123638000D01*
X148267000Y-123620000D01*
X148312000Y-123604000D01*
X148357000Y-123591000D01*
X148403000Y-123580000D01*
X148449000Y-123571000D01*
X148496000Y-123565000D01*
X148543000Y-123561000D01*
X148590000Y-123560000D01*
X151090000Y-123560000D01*
X151090000Y-125360000D01*
G36*
X131441000Y-126102000D02*
G01*
X131457000Y-126104000D01*
X131472000Y-126107000D01*
X131488000Y-126110000D01*
X131518000Y-126120000D01*
X131532000Y-126126000D01*
X131560000Y-126140000D01*
X131573000Y-126148000D01*
X131586000Y-126157000D01*
X131599000Y-126167000D01*
X131611000Y-126177000D01*
X131633000Y-126199000D01*
X131643000Y-126211000D01*
X131653000Y-126224000D01*
X131662000Y-126237000D01*
X131670000Y-126250000D01*
X131684000Y-126278000D01*
X131690000Y-126292000D01*
X131700000Y-126322000D01*
X131703000Y-126338000D01*
X131706000Y-126353000D01*
X131708000Y-126369000D01*
X131710000Y-126384000D01*
X131710000Y-127616000D01*
X131708000Y-127631000D01*
X131706000Y-127647000D01*
X131703000Y-127662000D01*
X131700000Y-127678000D01*
X131690000Y-127708000D01*
X131684000Y-127722000D01*
X131670000Y-127750000D01*
X131662000Y-127763000D01*
X131653000Y-127776000D01*
X131643000Y-127789000D01*
X131633000Y-127801000D01*
X131611000Y-127823000D01*
X131599000Y-127833000D01*
X131586000Y-127843000D01*
X131573000Y-127852000D01*
X131560000Y-127860000D01*
X131532000Y-127874000D01*
X131518000Y-127880000D01*
X131488000Y-127890000D01*
X131472000Y-127893000D01*
X131457000Y-127896000D01*
X131441000Y-127898000D01*
X131426000Y-127900000D01*
X128310000Y-127900000D01*
X128310000Y-126100000D01*
X131426000Y-126100000D01*
X131441000Y-126102000D01*
G37*
X131441000Y-126102000D02*
X131457000Y-126104000D01*
X131472000Y-126107000D01*
X131488000Y-126110000D01*
X131518000Y-126120000D01*
X131532000Y-126126000D01*
X131560000Y-126140000D01*
X131573000Y-126148000D01*
X131586000Y-126157000D01*
X131599000Y-126167000D01*
X131611000Y-126177000D01*
X131633000Y-126199000D01*
X131643000Y-126211000D01*
X131653000Y-126224000D01*
X131662000Y-126237000D01*
X131670000Y-126250000D01*
X131684000Y-126278000D01*
X131690000Y-126292000D01*
X131700000Y-126322000D01*
X131703000Y-126338000D01*
X131706000Y-126353000D01*
X131708000Y-126369000D01*
X131710000Y-126384000D01*
X131710000Y-127616000D01*
X131708000Y-127631000D01*
X131706000Y-127647000D01*
X131703000Y-127662000D01*
X131700000Y-127678000D01*
X131690000Y-127708000D01*
X131684000Y-127722000D01*
X131670000Y-127750000D01*
X131662000Y-127763000D01*
X131653000Y-127776000D01*
X131643000Y-127789000D01*
X131633000Y-127801000D01*
X131611000Y-127823000D01*
X131599000Y-127833000D01*
X131586000Y-127843000D01*
X131573000Y-127852000D01*
X131560000Y-127860000D01*
X131532000Y-127874000D01*
X131518000Y-127880000D01*
X131488000Y-127890000D01*
X131472000Y-127893000D01*
X131457000Y-127896000D01*
X131441000Y-127898000D01*
X131426000Y-127900000D01*
X128310000Y-127900000D01*
X128310000Y-126100000D01*
X131426000Y-126100000D01*
X131441000Y-126102000D01*
G36*
X151090000Y-138060000D02*
G01*
X148590000Y-138060000D01*
X148543000Y-138059000D01*
X148496000Y-138055000D01*
X148449000Y-138049000D01*
X148403000Y-138040000D01*
X148357000Y-138029000D01*
X148312000Y-138016000D01*
X148267000Y-138000000D01*
X148224000Y-137982000D01*
X148181000Y-137962000D01*
X148140000Y-137939000D01*
X148100000Y-137915000D01*
X148061000Y-137888000D01*
X148024000Y-137859000D01*
X147988000Y-137829000D01*
X147954000Y-137796000D01*
X147921000Y-137762000D01*
X147891000Y-137726000D01*
X147862000Y-137689000D01*
X147835000Y-137650000D01*
X147811000Y-137610000D01*
X147788000Y-137569000D01*
X147768000Y-137526000D01*
X147750000Y-137483000D01*
X147734000Y-137438000D01*
X147721000Y-137393000D01*
X147710000Y-137347000D01*
X147701000Y-137301000D01*
X147695000Y-137254000D01*
X147691000Y-137207000D01*
X147690000Y-137160000D01*
X147691000Y-137113000D01*
X147695000Y-137066000D01*
X147701000Y-137019000D01*
X147710000Y-136973000D01*
X147721000Y-136927000D01*
X147734000Y-136882000D01*
X147750000Y-136837000D01*
X147768000Y-136794000D01*
X147788000Y-136751000D01*
X147811000Y-136710000D01*
X147835000Y-136670000D01*
X147862000Y-136631000D01*
X147891000Y-136594000D01*
X147921000Y-136558000D01*
X147954000Y-136524000D01*
X147988000Y-136491000D01*
X148024000Y-136461000D01*
X148061000Y-136432000D01*
X148100000Y-136405000D01*
X148140000Y-136381000D01*
X148181000Y-136358000D01*
X148224000Y-136338000D01*
X148267000Y-136320000D01*
X148312000Y-136304000D01*
X148357000Y-136291000D01*
X148403000Y-136280000D01*
X148449000Y-136271000D01*
X148496000Y-136265000D01*
X148543000Y-136261000D01*
X148590000Y-136260000D01*
X151090000Y-136260000D01*
X151090000Y-138060000D01*
G37*
X151090000Y-138060000D02*
X148590000Y-138060000D01*
X148543000Y-138059000D01*
X148496000Y-138055000D01*
X148449000Y-138049000D01*
X148403000Y-138040000D01*
X148357000Y-138029000D01*
X148312000Y-138016000D01*
X148267000Y-138000000D01*
X148224000Y-137982000D01*
X148181000Y-137962000D01*
X148140000Y-137939000D01*
X148100000Y-137915000D01*
X148061000Y-137888000D01*
X148024000Y-137859000D01*
X147988000Y-137829000D01*
X147954000Y-137796000D01*
X147921000Y-137762000D01*
X147891000Y-137726000D01*
X147862000Y-137689000D01*
X147835000Y-137650000D01*
X147811000Y-137610000D01*
X147788000Y-137569000D01*
X147768000Y-137526000D01*
X147750000Y-137483000D01*
X147734000Y-137438000D01*
X147721000Y-137393000D01*
X147710000Y-137347000D01*
X147701000Y-137301000D01*
X147695000Y-137254000D01*
X147691000Y-137207000D01*
X147690000Y-137160000D01*
X147691000Y-137113000D01*
X147695000Y-137066000D01*
X147701000Y-137019000D01*
X147710000Y-136973000D01*
X147721000Y-136927000D01*
X147734000Y-136882000D01*
X147750000Y-136837000D01*
X147768000Y-136794000D01*
X147788000Y-136751000D01*
X147811000Y-136710000D01*
X147835000Y-136670000D01*
X147862000Y-136631000D01*
X147891000Y-136594000D01*
X147921000Y-136558000D01*
X147954000Y-136524000D01*
X147988000Y-136491000D01*
X148024000Y-136461000D01*
X148061000Y-136432000D01*
X148100000Y-136405000D01*
X148140000Y-136381000D01*
X148181000Y-136358000D01*
X148224000Y-136338000D01*
X148267000Y-136320000D01*
X148312000Y-136304000D01*
X148357000Y-136291000D01*
X148403000Y-136280000D01*
X148449000Y-136271000D01*
X148496000Y-136265000D01*
X148543000Y-136261000D01*
X148590000Y-136260000D01*
X151090000Y-136260000D01*
X151090000Y-138060000D01*
G36*
X130857000Y-141341000D02*
G01*
X130904000Y-141345000D01*
X130951000Y-141351000D01*
X130997000Y-141360000D01*
X131043000Y-141371000D01*
X131088000Y-141384000D01*
X131133000Y-141400000D01*
X131176000Y-141418000D01*
X131219000Y-141438000D01*
X131260000Y-141461000D01*
X131300000Y-141485000D01*
X131339000Y-141512000D01*
X131376000Y-141541000D01*
X131412000Y-141571000D01*
X131446000Y-141604000D01*
X131479000Y-141638000D01*
X131509000Y-141674000D01*
X131538000Y-141711000D01*
X131565000Y-141750000D01*
X131589000Y-141790000D01*
X131612000Y-141831000D01*
X131632000Y-141874000D01*
X131650000Y-141917000D01*
X131666000Y-141962000D01*
X131679000Y-142007000D01*
X131690000Y-142053000D01*
X131699000Y-142099000D01*
X131705000Y-142146000D01*
X131709000Y-142193000D01*
X131710000Y-142240000D01*
X131709000Y-142287000D01*
X131705000Y-142334000D01*
X131699000Y-142381000D01*
X131690000Y-142427000D01*
X131679000Y-142473000D01*
X131666000Y-142518000D01*
X131650000Y-142563000D01*
X131632000Y-142606000D01*
X131612000Y-142649000D01*
X131589000Y-142690000D01*
X131565000Y-142730000D01*
X131538000Y-142769000D01*
X131509000Y-142806000D01*
X131479000Y-142842000D01*
X131446000Y-142876000D01*
X131412000Y-142909000D01*
X131376000Y-142939000D01*
X131339000Y-142968000D01*
X131300000Y-142995000D01*
X131260000Y-143019000D01*
X131219000Y-143042000D01*
X131176000Y-143062000D01*
X131133000Y-143080000D01*
X131088000Y-143096000D01*
X131043000Y-143109000D01*
X130997000Y-143120000D01*
X130951000Y-143129000D01*
X130904000Y-143135000D01*
X130857000Y-143139000D01*
X130810000Y-143140000D01*
X128310000Y-143140000D01*
X128310000Y-141340000D01*
X130810000Y-141340000D01*
X130857000Y-141341000D01*
G37*
X130857000Y-141341000D02*
X130904000Y-141345000D01*
X130951000Y-141351000D01*
X130997000Y-141360000D01*
X131043000Y-141371000D01*
X131088000Y-141384000D01*
X131133000Y-141400000D01*
X131176000Y-141418000D01*
X131219000Y-141438000D01*
X131260000Y-141461000D01*
X131300000Y-141485000D01*
X131339000Y-141512000D01*
X131376000Y-141541000D01*
X131412000Y-141571000D01*
X131446000Y-141604000D01*
X131479000Y-141638000D01*
X131509000Y-141674000D01*
X131538000Y-141711000D01*
X131565000Y-141750000D01*
X131589000Y-141790000D01*
X131612000Y-141831000D01*
X131632000Y-141874000D01*
X131650000Y-141917000D01*
X131666000Y-141962000D01*
X131679000Y-142007000D01*
X131690000Y-142053000D01*
X131699000Y-142099000D01*
X131705000Y-142146000D01*
X131709000Y-142193000D01*
X131710000Y-142240000D01*
X131709000Y-142287000D01*
X131705000Y-142334000D01*
X131699000Y-142381000D01*
X131690000Y-142427000D01*
X131679000Y-142473000D01*
X131666000Y-142518000D01*
X131650000Y-142563000D01*
X131632000Y-142606000D01*
X131612000Y-142649000D01*
X131589000Y-142690000D01*
X131565000Y-142730000D01*
X131538000Y-142769000D01*
X131509000Y-142806000D01*
X131479000Y-142842000D01*
X131446000Y-142876000D01*
X131412000Y-142909000D01*
X131376000Y-142939000D01*
X131339000Y-142968000D01*
X131300000Y-142995000D01*
X131260000Y-143019000D01*
X131219000Y-143042000D01*
X131176000Y-143062000D01*
X131133000Y-143080000D01*
X131088000Y-143096000D01*
X131043000Y-143109000D01*
X130997000Y-143120000D01*
X130951000Y-143129000D01*
X130904000Y-143135000D01*
X130857000Y-143139000D01*
X130810000Y-143140000D01*
X128310000Y-143140000D01*
X128310000Y-141340000D01*
X130810000Y-141340000D01*
X130857000Y-141341000D01*
G36*
X151090000Y-107580000D02*
G01*
X148590000Y-107580000D01*
X148543000Y-107579000D01*
X148496000Y-107575000D01*
X148449000Y-107569000D01*
X148403000Y-107560000D01*
X148357000Y-107549000D01*
X148312000Y-107536000D01*
X148267000Y-107520000D01*
X148224000Y-107502000D01*
X148181000Y-107482000D01*
X148140000Y-107459000D01*
X148100000Y-107435000D01*
X148061000Y-107408000D01*
X148024000Y-107379000D01*
X147988000Y-107349000D01*
X147954000Y-107316000D01*
X147921000Y-107282000D01*
X147891000Y-107246000D01*
X147862000Y-107209000D01*
X147835000Y-107170000D01*
X147811000Y-107130000D01*
X147788000Y-107089000D01*
X147768000Y-107046000D01*
X147750000Y-107003000D01*
X147734000Y-106958000D01*
X147721000Y-106913000D01*
X147710000Y-106867000D01*
X147701000Y-106821000D01*
X147695000Y-106774000D01*
X147691000Y-106727000D01*
X147690000Y-106680000D01*
X147691000Y-106633000D01*
X147695000Y-106586000D01*
X147701000Y-106539000D01*
X147710000Y-106493000D01*
X147721000Y-106447000D01*
X147734000Y-106402000D01*
X147750000Y-106357000D01*
X147768000Y-106314000D01*
X147788000Y-106271000D01*
X147811000Y-106230000D01*
X147835000Y-106190000D01*
X147862000Y-106151000D01*
X147891000Y-106114000D01*
X147921000Y-106078000D01*
X147954000Y-106044000D01*
X147988000Y-106011000D01*
X148024000Y-105981000D01*
X148061000Y-105952000D01*
X148100000Y-105925000D01*
X148140000Y-105901000D01*
X148181000Y-105878000D01*
X148224000Y-105858000D01*
X148267000Y-105840000D01*
X148312000Y-105824000D01*
X148357000Y-105811000D01*
X148403000Y-105800000D01*
X148449000Y-105791000D01*
X148496000Y-105785000D01*
X148543000Y-105781000D01*
X148590000Y-105780000D01*
X151090000Y-105780000D01*
X151090000Y-107580000D01*
G37*
X151090000Y-107580000D02*
X148590000Y-107580000D01*
X148543000Y-107579000D01*
X148496000Y-107575000D01*
X148449000Y-107569000D01*
X148403000Y-107560000D01*
X148357000Y-107549000D01*
X148312000Y-107536000D01*
X148267000Y-107520000D01*
X148224000Y-107502000D01*
X148181000Y-107482000D01*
X148140000Y-107459000D01*
X148100000Y-107435000D01*
X148061000Y-107408000D01*
X148024000Y-107379000D01*
X147988000Y-107349000D01*
X147954000Y-107316000D01*
X147921000Y-107282000D01*
X147891000Y-107246000D01*
X147862000Y-107209000D01*
X147835000Y-107170000D01*
X147811000Y-107130000D01*
X147788000Y-107089000D01*
X147768000Y-107046000D01*
X147750000Y-107003000D01*
X147734000Y-106958000D01*
X147721000Y-106913000D01*
X147710000Y-106867000D01*
X147701000Y-106821000D01*
X147695000Y-106774000D01*
X147691000Y-106727000D01*
X147690000Y-106680000D01*
X147691000Y-106633000D01*
X147695000Y-106586000D01*
X147701000Y-106539000D01*
X147710000Y-106493000D01*
X147721000Y-106447000D01*
X147734000Y-106402000D01*
X147750000Y-106357000D01*
X147768000Y-106314000D01*
X147788000Y-106271000D01*
X147811000Y-106230000D01*
X147835000Y-106190000D01*
X147862000Y-106151000D01*
X147891000Y-106114000D01*
X147921000Y-106078000D01*
X147954000Y-106044000D01*
X147988000Y-106011000D01*
X148024000Y-105981000D01*
X148061000Y-105952000D01*
X148100000Y-105925000D01*
X148140000Y-105901000D01*
X148181000Y-105878000D01*
X148224000Y-105858000D01*
X148267000Y-105840000D01*
X148312000Y-105824000D01*
X148357000Y-105811000D01*
X148403000Y-105800000D01*
X148449000Y-105791000D01*
X148496000Y-105785000D01*
X148543000Y-105781000D01*
X148590000Y-105780000D01*
X151090000Y-105780000D01*
X151090000Y-107580000D01*
G36*
X151090000Y-145680000D02*
G01*
X148590000Y-145680000D01*
X148543000Y-145679000D01*
X148496000Y-145675000D01*
X148449000Y-145669000D01*
X148403000Y-145660000D01*
X148357000Y-145649000D01*
X148312000Y-145636000D01*
X148267000Y-145620000D01*
X148224000Y-145602000D01*
X148181000Y-145582000D01*
X148140000Y-145559000D01*
X148100000Y-145535000D01*
X148061000Y-145508000D01*
X148024000Y-145479000D01*
X147988000Y-145449000D01*
X147954000Y-145416000D01*
X147921000Y-145382000D01*
X147891000Y-145346000D01*
X147862000Y-145309000D01*
X147835000Y-145270000D01*
X147811000Y-145230000D01*
X147788000Y-145189000D01*
X147768000Y-145146000D01*
X147750000Y-145103000D01*
X147734000Y-145058000D01*
X147721000Y-145013000D01*
X147710000Y-144967000D01*
X147701000Y-144921000D01*
X147695000Y-144874000D01*
X147691000Y-144827000D01*
X147690000Y-144780000D01*
X147691000Y-144733000D01*
X147695000Y-144686000D01*
X147701000Y-144639000D01*
X147710000Y-144593000D01*
X147721000Y-144547000D01*
X147734000Y-144502000D01*
X147750000Y-144457000D01*
X147768000Y-144414000D01*
X147788000Y-144371000D01*
X147811000Y-144330000D01*
X147835000Y-144290000D01*
X147862000Y-144251000D01*
X147891000Y-144214000D01*
X147921000Y-144178000D01*
X147954000Y-144144000D01*
X147988000Y-144111000D01*
X148024000Y-144081000D01*
X148061000Y-144052000D01*
X148100000Y-144025000D01*
X148140000Y-144001000D01*
X148181000Y-143978000D01*
X148224000Y-143958000D01*
X148267000Y-143940000D01*
X148312000Y-143924000D01*
X148357000Y-143911000D01*
X148403000Y-143900000D01*
X148449000Y-143891000D01*
X148496000Y-143885000D01*
X148543000Y-143881000D01*
X148590000Y-143880000D01*
X151090000Y-143880000D01*
X151090000Y-145680000D01*
G37*
X151090000Y-145680000D02*
X148590000Y-145680000D01*
X148543000Y-145679000D01*
X148496000Y-145675000D01*
X148449000Y-145669000D01*
X148403000Y-145660000D01*
X148357000Y-145649000D01*
X148312000Y-145636000D01*
X148267000Y-145620000D01*
X148224000Y-145602000D01*
X148181000Y-145582000D01*
X148140000Y-145559000D01*
X148100000Y-145535000D01*
X148061000Y-145508000D01*
X148024000Y-145479000D01*
X147988000Y-145449000D01*
X147954000Y-145416000D01*
X147921000Y-145382000D01*
X147891000Y-145346000D01*
X147862000Y-145309000D01*
X147835000Y-145270000D01*
X147811000Y-145230000D01*
X147788000Y-145189000D01*
X147768000Y-145146000D01*
X147750000Y-145103000D01*
X147734000Y-145058000D01*
X147721000Y-145013000D01*
X147710000Y-144967000D01*
X147701000Y-144921000D01*
X147695000Y-144874000D01*
X147691000Y-144827000D01*
X147690000Y-144780000D01*
X147691000Y-144733000D01*
X147695000Y-144686000D01*
X147701000Y-144639000D01*
X147710000Y-144593000D01*
X147721000Y-144547000D01*
X147734000Y-144502000D01*
X147750000Y-144457000D01*
X147768000Y-144414000D01*
X147788000Y-144371000D01*
X147811000Y-144330000D01*
X147835000Y-144290000D01*
X147862000Y-144251000D01*
X147891000Y-144214000D01*
X147921000Y-144178000D01*
X147954000Y-144144000D01*
X147988000Y-144111000D01*
X148024000Y-144081000D01*
X148061000Y-144052000D01*
X148100000Y-144025000D01*
X148140000Y-144001000D01*
X148181000Y-143978000D01*
X148224000Y-143958000D01*
X148267000Y-143940000D01*
X148312000Y-143924000D01*
X148357000Y-143911000D01*
X148403000Y-143900000D01*
X148449000Y-143891000D01*
X148496000Y-143885000D01*
X148543000Y-143881000D01*
X148590000Y-143880000D01*
X151090000Y-143880000D01*
X151090000Y-145680000D01*
G36*
X131441000Y-100702000D02*
G01*
X131457000Y-100704000D01*
X131472000Y-100707000D01*
X131488000Y-100710000D01*
X131518000Y-100720000D01*
X131532000Y-100726000D01*
X131560000Y-100740000D01*
X131573000Y-100748000D01*
X131586000Y-100757000D01*
X131599000Y-100767000D01*
X131611000Y-100777000D01*
X131633000Y-100799000D01*
X131643000Y-100811000D01*
X131653000Y-100824000D01*
X131662000Y-100837000D01*
X131670000Y-100850000D01*
X131684000Y-100878000D01*
X131690000Y-100892000D01*
X131700000Y-100922000D01*
X131703000Y-100938000D01*
X131706000Y-100953000D01*
X131708000Y-100969000D01*
X131710000Y-100984000D01*
X131710000Y-102216000D01*
X131708000Y-102231000D01*
X131706000Y-102247000D01*
X131703000Y-102262000D01*
X131700000Y-102278000D01*
X131690000Y-102308000D01*
X131684000Y-102322000D01*
X131670000Y-102350000D01*
X131662000Y-102363000D01*
X131653000Y-102376000D01*
X131643000Y-102389000D01*
X131633000Y-102401000D01*
X131611000Y-102423000D01*
X131599000Y-102433000D01*
X131586000Y-102443000D01*
X131573000Y-102452000D01*
X131560000Y-102460000D01*
X131532000Y-102474000D01*
X131518000Y-102480000D01*
X131488000Y-102490000D01*
X131472000Y-102493000D01*
X131457000Y-102496000D01*
X131441000Y-102498000D01*
X131426000Y-102500000D01*
X128310000Y-102500000D01*
X128310000Y-100700000D01*
X131426000Y-100700000D01*
X131441000Y-100702000D01*
G37*
X131441000Y-100702000D02*
X131457000Y-100704000D01*
X131472000Y-100707000D01*
X131488000Y-100710000D01*
X131518000Y-100720000D01*
X131532000Y-100726000D01*
X131560000Y-100740000D01*
X131573000Y-100748000D01*
X131586000Y-100757000D01*
X131599000Y-100767000D01*
X131611000Y-100777000D01*
X131633000Y-100799000D01*
X131643000Y-100811000D01*
X131653000Y-100824000D01*
X131662000Y-100837000D01*
X131670000Y-100850000D01*
X131684000Y-100878000D01*
X131690000Y-100892000D01*
X131700000Y-100922000D01*
X131703000Y-100938000D01*
X131706000Y-100953000D01*
X131708000Y-100969000D01*
X131710000Y-100984000D01*
X131710000Y-102216000D01*
X131708000Y-102231000D01*
X131706000Y-102247000D01*
X131703000Y-102262000D01*
X131700000Y-102278000D01*
X131690000Y-102308000D01*
X131684000Y-102322000D01*
X131670000Y-102350000D01*
X131662000Y-102363000D01*
X131653000Y-102376000D01*
X131643000Y-102389000D01*
X131633000Y-102401000D01*
X131611000Y-102423000D01*
X131599000Y-102433000D01*
X131586000Y-102443000D01*
X131573000Y-102452000D01*
X131560000Y-102460000D01*
X131532000Y-102474000D01*
X131518000Y-102480000D01*
X131488000Y-102490000D01*
X131472000Y-102493000D01*
X131457000Y-102496000D01*
X131441000Y-102498000D01*
X131426000Y-102500000D01*
X128310000Y-102500000D01*
X128310000Y-100700000D01*
X131426000Y-100700000D01*
X131441000Y-100702000D01*
G36*
X130857000Y-123561000D02*
G01*
X130904000Y-123565000D01*
X130951000Y-123571000D01*
X130997000Y-123580000D01*
X131043000Y-123591000D01*
X131088000Y-123604000D01*
X131133000Y-123620000D01*
X131176000Y-123638000D01*
X131219000Y-123658000D01*
X131260000Y-123681000D01*
X131300000Y-123705000D01*
X131339000Y-123732000D01*
X131376000Y-123761000D01*
X131412000Y-123791000D01*
X131446000Y-123824000D01*
X131479000Y-123858000D01*
X131509000Y-123894000D01*
X131538000Y-123931000D01*
X131565000Y-123970000D01*
X131589000Y-124010000D01*
X131612000Y-124051000D01*
X131632000Y-124094000D01*
X131650000Y-124137000D01*
X131666000Y-124182000D01*
X131679000Y-124227000D01*
X131690000Y-124273000D01*
X131699000Y-124319000D01*
X131705000Y-124366000D01*
X131709000Y-124413000D01*
X131710000Y-124460000D01*
X131709000Y-124507000D01*
X131705000Y-124554000D01*
X131699000Y-124601000D01*
X131690000Y-124647000D01*
X131679000Y-124693000D01*
X131666000Y-124738000D01*
X131650000Y-124783000D01*
X131632000Y-124826000D01*
X131612000Y-124869000D01*
X131589000Y-124910000D01*
X131565000Y-124950000D01*
X131538000Y-124989000D01*
X131509000Y-125026000D01*
X131479000Y-125062000D01*
X131446000Y-125096000D01*
X131412000Y-125129000D01*
X131376000Y-125159000D01*
X131339000Y-125188000D01*
X131300000Y-125215000D01*
X131260000Y-125239000D01*
X131219000Y-125262000D01*
X131176000Y-125282000D01*
X131133000Y-125300000D01*
X131088000Y-125316000D01*
X131043000Y-125329000D01*
X130997000Y-125340000D01*
X130951000Y-125349000D01*
X130904000Y-125355000D01*
X130857000Y-125359000D01*
X130810000Y-125360000D01*
X128310000Y-125360000D01*
X128310000Y-123560000D01*
X130810000Y-123560000D01*
X130857000Y-123561000D01*
G37*
X130857000Y-123561000D02*
X130904000Y-123565000D01*
X130951000Y-123571000D01*
X130997000Y-123580000D01*
X131043000Y-123591000D01*
X131088000Y-123604000D01*
X131133000Y-123620000D01*
X131176000Y-123638000D01*
X131219000Y-123658000D01*
X131260000Y-123681000D01*
X131300000Y-123705000D01*
X131339000Y-123732000D01*
X131376000Y-123761000D01*
X131412000Y-123791000D01*
X131446000Y-123824000D01*
X131479000Y-123858000D01*
X131509000Y-123894000D01*
X131538000Y-123931000D01*
X131565000Y-123970000D01*
X131589000Y-124010000D01*
X131612000Y-124051000D01*
X131632000Y-124094000D01*
X131650000Y-124137000D01*
X131666000Y-124182000D01*
X131679000Y-124227000D01*
X131690000Y-124273000D01*
X131699000Y-124319000D01*
X131705000Y-124366000D01*
X131709000Y-124413000D01*
X131710000Y-124460000D01*
X131709000Y-124507000D01*
X131705000Y-124554000D01*
X131699000Y-124601000D01*
X131690000Y-124647000D01*
X131679000Y-124693000D01*
X131666000Y-124738000D01*
X131650000Y-124783000D01*
X131632000Y-124826000D01*
X131612000Y-124869000D01*
X131589000Y-124910000D01*
X131565000Y-124950000D01*
X131538000Y-124989000D01*
X131509000Y-125026000D01*
X131479000Y-125062000D01*
X131446000Y-125096000D01*
X131412000Y-125129000D01*
X131376000Y-125159000D01*
X131339000Y-125188000D01*
X131300000Y-125215000D01*
X131260000Y-125239000D01*
X131219000Y-125262000D01*
X131176000Y-125282000D01*
X131133000Y-125300000D01*
X131088000Y-125316000D01*
X131043000Y-125329000D01*
X130997000Y-125340000D01*
X130951000Y-125349000D01*
X130904000Y-125355000D01*
X130857000Y-125359000D01*
X130810000Y-125360000D01*
X128310000Y-125360000D01*
X128310000Y-123560000D01*
X130810000Y-123560000D01*
X130857000Y-123561000D01*
G36*
X130857000Y-108321000D02*
G01*
X130904000Y-108325000D01*
X130951000Y-108331000D01*
X130997000Y-108340000D01*
X131043000Y-108351000D01*
X131088000Y-108364000D01*
X131133000Y-108380000D01*
X131176000Y-108398000D01*
X131219000Y-108418000D01*
X131260000Y-108441000D01*
X131300000Y-108465000D01*
X131339000Y-108492000D01*
X131376000Y-108521000D01*
X131412000Y-108551000D01*
X131446000Y-108584000D01*
X131479000Y-108618000D01*
X131509000Y-108654000D01*
X131538000Y-108691000D01*
X131565000Y-108730000D01*
X131589000Y-108770000D01*
X131612000Y-108811000D01*
X131632000Y-108854000D01*
X131650000Y-108897000D01*
X131666000Y-108942000D01*
X131679000Y-108987000D01*
X131690000Y-109033000D01*
X131699000Y-109079000D01*
X131705000Y-109126000D01*
X131709000Y-109173000D01*
X131710000Y-109220000D01*
X131709000Y-109267000D01*
X131705000Y-109314000D01*
X131699000Y-109361000D01*
X131690000Y-109407000D01*
X131679000Y-109453000D01*
X131666000Y-109498000D01*
X131650000Y-109543000D01*
X131632000Y-109586000D01*
X131612000Y-109629000D01*
X131589000Y-109670000D01*
X131565000Y-109710000D01*
X131538000Y-109749000D01*
X131509000Y-109786000D01*
X131479000Y-109822000D01*
X131446000Y-109856000D01*
X131412000Y-109889000D01*
X131376000Y-109919000D01*
X131339000Y-109948000D01*
X131300000Y-109975000D01*
X131260000Y-109999000D01*
X131219000Y-110022000D01*
X131176000Y-110042000D01*
X131133000Y-110060000D01*
X131088000Y-110076000D01*
X131043000Y-110089000D01*
X130997000Y-110100000D01*
X130951000Y-110109000D01*
X130904000Y-110115000D01*
X130857000Y-110119000D01*
X130810000Y-110120000D01*
X128310000Y-110120000D01*
X128310000Y-108320000D01*
X130810000Y-108320000D01*
X130857000Y-108321000D01*
G37*
X130857000Y-108321000D02*
X130904000Y-108325000D01*
X130951000Y-108331000D01*
X130997000Y-108340000D01*
X131043000Y-108351000D01*
X131088000Y-108364000D01*
X131133000Y-108380000D01*
X131176000Y-108398000D01*
X131219000Y-108418000D01*
X131260000Y-108441000D01*
X131300000Y-108465000D01*
X131339000Y-108492000D01*
X131376000Y-108521000D01*
X131412000Y-108551000D01*
X131446000Y-108584000D01*
X131479000Y-108618000D01*
X131509000Y-108654000D01*
X131538000Y-108691000D01*
X131565000Y-108730000D01*
X131589000Y-108770000D01*
X131612000Y-108811000D01*
X131632000Y-108854000D01*
X131650000Y-108897000D01*
X131666000Y-108942000D01*
X131679000Y-108987000D01*
X131690000Y-109033000D01*
X131699000Y-109079000D01*
X131705000Y-109126000D01*
X131709000Y-109173000D01*
X131710000Y-109220000D01*
X131709000Y-109267000D01*
X131705000Y-109314000D01*
X131699000Y-109361000D01*
X131690000Y-109407000D01*
X131679000Y-109453000D01*
X131666000Y-109498000D01*
X131650000Y-109543000D01*
X131632000Y-109586000D01*
X131612000Y-109629000D01*
X131589000Y-109670000D01*
X131565000Y-109710000D01*
X131538000Y-109749000D01*
X131509000Y-109786000D01*
X131479000Y-109822000D01*
X131446000Y-109856000D01*
X131412000Y-109889000D01*
X131376000Y-109919000D01*
X131339000Y-109948000D01*
X131300000Y-109975000D01*
X131260000Y-109999000D01*
X131219000Y-110022000D01*
X131176000Y-110042000D01*
X131133000Y-110060000D01*
X131088000Y-110076000D01*
X131043000Y-110089000D01*
X130997000Y-110100000D01*
X130951000Y-110109000D01*
X130904000Y-110115000D01*
X130857000Y-110119000D01*
X130810000Y-110120000D01*
X128310000Y-110120000D01*
X128310000Y-108320000D01*
X130810000Y-108320000D01*
X130857000Y-108321000D01*
G36*
X130857000Y-136261000D02*
G01*
X130904000Y-136265000D01*
X130951000Y-136271000D01*
X130997000Y-136280000D01*
X131043000Y-136291000D01*
X131088000Y-136304000D01*
X131133000Y-136320000D01*
X131176000Y-136338000D01*
X131219000Y-136358000D01*
X131260000Y-136381000D01*
X131300000Y-136405000D01*
X131339000Y-136432000D01*
X131376000Y-136461000D01*
X131412000Y-136491000D01*
X131446000Y-136524000D01*
X131479000Y-136558000D01*
X131509000Y-136594000D01*
X131538000Y-136631000D01*
X131565000Y-136670000D01*
X131589000Y-136710000D01*
X131612000Y-136751000D01*
X131632000Y-136794000D01*
X131650000Y-136837000D01*
X131666000Y-136882000D01*
X131679000Y-136927000D01*
X131690000Y-136973000D01*
X131699000Y-137019000D01*
X131705000Y-137066000D01*
X131709000Y-137113000D01*
X131710000Y-137160000D01*
X131709000Y-137207000D01*
X131705000Y-137254000D01*
X131699000Y-137301000D01*
X131690000Y-137347000D01*
X131679000Y-137393000D01*
X131666000Y-137438000D01*
X131650000Y-137483000D01*
X131632000Y-137526000D01*
X131612000Y-137569000D01*
X131589000Y-137610000D01*
X131565000Y-137650000D01*
X131538000Y-137689000D01*
X131509000Y-137726000D01*
X131479000Y-137762000D01*
X131446000Y-137796000D01*
X131412000Y-137829000D01*
X131376000Y-137859000D01*
X131339000Y-137888000D01*
X131300000Y-137915000D01*
X131260000Y-137939000D01*
X131219000Y-137962000D01*
X131176000Y-137982000D01*
X131133000Y-138000000D01*
X131088000Y-138016000D01*
X131043000Y-138029000D01*
X130997000Y-138040000D01*
X130951000Y-138049000D01*
X130904000Y-138055000D01*
X130857000Y-138059000D01*
X130810000Y-138060000D01*
X128310000Y-138060000D01*
X128310000Y-136260000D01*
X130810000Y-136260000D01*
X130857000Y-136261000D01*
G37*
X130857000Y-136261000D02*
X130904000Y-136265000D01*
X130951000Y-136271000D01*
X130997000Y-136280000D01*
X131043000Y-136291000D01*
X131088000Y-136304000D01*
X131133000Y-136320000D01*
X131176000Y-136338000D01*
X131219000Y-136358000D01*
X131260000Y-136381000D01*
X131300000Y-136405000D01*
X131339000Y-136432000D01*
X131376000Y-136461000D01*
X131412000Y-136491000D01*
X131446000Y-136524000D01*
X131479000Y-136558000D01*
X131509000Y-136594000D01*
X131538000Y-136631000D01*
X131565000Y-136670000D01*
X131589000Y-136710000D01*
X131612000Y-136751000D01*
X131632000Y-136794000D01*
X131650000Y-136837000D01*
X131666000Y-136882000D01*
X131679000Y-136927000D01*
X131690000Y-136973000D01*
X131699000Y-137019000D01*
X131705000Y-137066000D01*
X131709000Y-137113000D01*
X131710000Y-137160000D01*
X131709000Y-137207000D01*
X131705000Y-137254000D01*
X131699000Y-137301000D01*
X131690000Y-137347000D01*
X131679000Y-137393000D01*
X131666000Y-137438000D01*
X131650000Y-137483000D01*
X131632000Y-137526000D01*
X131612000Y-137569000D01*
X131589000Y-137610000D01*
X131565000Y-137650000D01*
X131538000Y-137689000D01*
X131509000Y-137726000D01*
X131479000Y-137762000D01*
X131446000Y-137796000D01*
X131412000Y-137829000D01*
X131376000Y-137859000D01*
X131339000Y-137888000D01*
X131300000Y-137915000D01*
X131260000Y-137939000D01*
X131219000Y-137962000D01*
X131176000Y-137982000D01*
X131133000Y-138000000D01*
X131088000Y-138016000D01*
X131043000Y-138029000D01*
X130997000Y-138040000D01*
X130951000Y-138049000D01*
X130904000Y-138055000D01*
X130857000Y-138059000D01*
X130810000Y-138060000D01*
X128310000Y-138060000D01*
X128310000Y-136260000D01*
X130810000Y-136260000D01*
X130857000Y-136261000D01*
G36*
X131441000Y-138802000D02*
G01*
X131457000Y-138804000D01*
X131472000Y-138807000D01*
X131488000Y-138810000D01*
X131518000Y-138820000D01*
X131532000Y-138826000D01*
X131560000Y-138840000D01*
X131573000Y-138848000D01*
X131586000Y-138857000D01*
X131599000Y-138867000D01*
X131611000Y-138877000D01*
X131633000Y-138899000D01*
X131643000Y-138911000D01*
X131653000Y-138924000D01*
X131662000Y-138937000D01*
X131670000Y-138950000D01*
X131684000Y-138978000D01*
X131690000Y-138992000D01*
X131700000Y-139022000D01*
X131703000Y-139038000D01*
X131706000Y-139053000D01*
X131708000Y-139069000D01*
X131710000Y-139084000D01*
X131710000Y-140316000D01*
X131708000Y-140331000D01*
X131706000Y-140347000D01*
X131703000Y-140362000D01*
X131700000Y-140378000D01*
X131690000Y-140408000D01*
X131684000Y-140422000D01*
X131670000Y-140450000D01*
X131662000Y-140463000D01*
X131653000Y-140476000D01*
X131643000Y-140489000D01*
X131633000Y-140501000D01*
X131611000Y-140523000D01*
X131599000Y-140533000D01*
X131586000Y-140543000D01*
X131573000Y-140552000D01*
X131560000Y-140560000D01*
X131532000Y-140574000D01*
X131518000Y-140580000D01*
X131488000Y-140590000D01*
X131472000Y-140593000D01*
X131457000Y-140596000D01*
X131441000Y-140598000D01*
X131426000Y-140600000D01*
X128310000Y-140600000D01*
X128310000Y-138800000D01*
X131426000Y-138800000D01*
X131441000Y-138802000D01*
G37*
X131441000Y-138802000D02*
X131457000Y-138804000D01*
X131472000Y-138807000D01*
X131488000Y-138810000D01*
X131518000Y-138820000D01*
X131532000Y-138826000D01*
X131560000Y-138840000D01*
X131573000Y-138848000D01*
X131586000Y-138857000D01*
X131599000Y-138867000D01*
X131611000Y-138877000D01*
X131633000Y-138899000D01*
X131643000Y-138911000D01*
X131653000Y-138924000D01*
X131662000Y-138937000D01*
X131670000Y-138950000D01*
X131684000Y-138978000D01*
X131690000Y-138992000D01*
X131700000Y-139022000D01*
X131703000Y-139038000D01*
X131706000Y-139053000D01*
X131708000Y-139069000D01*
X131710000Y-139084000D01*
X131710000Y-140316000D01*
X131708000Y-140331000D01*
X131706000Y-140347000D01*
X131703000Y-140362000D01*
X131700000Y-140378000D01*
X131690000Y-140408000D01*
X131684000Y-140422000D01*
X131670000Y-140450000D01*
X131662000Y-140463000D01*
X131653000Y-140476000D01*
X131643000Y-140489000D01*
X131633000Y-140501000D01*
X131611000Y-140523000D01*
X131599000Y-140533000D01*
X131586000Y-140543000D01*
X131573000Y-140552000D01*
X131560000Y-140560000D01*
X131532000Y-140574000D01*
X131518000Y-140580000D01*
X131488000Y-140590000D01*
X131472000Y-140593000D01*
X131457000Y-140596000D01*
X131441000Y-140598000D01*
X131426000Y-140600000D01*
X128310000Y-140600000D01*
X128310000Y-138800000D01*
X131426000Y-138800000D01*
X131441000Y-138802000D01*
G36*
X130857000Y-115941000D02*
G01*
X130904000Y-115945000D01*
X130951000Y-115951000D01*
X130997000Y-115960000D01*
X131043000Y-115971000D01*
X131088000Y-115984000D01*
X131133000Y-116000000D01*
X131176000Y-116018000D01*
X131219000Y-116038000D01*
X131260000Y-116061000D01*
X131300000Y-116085000D01*
X131339000Y-116112000D01*
X131376000Y-116141000D01*
X131412000Y-116171000D01*
X131446000Y-116204000D01*
X131479000Y-116238000D01*
X131509000Y-116274000D01*
X131538000Y-116311000D01*
X131565000Y-116350000D01*
X131589000Y-116390000D01*
X131612000Y-116431000D01*
X131632000Y-116474000D01*
X131650000Y-116517000D01*
X131666000Y-116562000D01*
X131679000Y-116607000D01*
X131690000Y-116653000D01*
X131699000Y-116699000D01*
X131705000Y-116746000D01*
X131709000Y-116793000D01*
X131710000Y-116840000D01*
X131709000Y-116887000D01*
X131705000Y-116934000D01*
X131699000Y-116981000D01*
X131690000Y-117027000D01*
X131679000Y-117073000D01*
X131666000Y-117118000D01*
X131650000Y-117163000D01*
X131632000Y-117206000D01*
X131612000Y-117249000D01*
X131589000Y-117290000D01*
X131565000Y-117330000D01*
X131538000Y-117369000D01*
X131509000Y-117406000D01*
X131479000Y-117442000D01*
X131446000Y-117476000D01*
X131412000Y-117509000D01*
X131376000Y-117539000D01*
X131339000Y-117568000D01*
X131300000Y-117595000D01*
X131260000Y-117619000D01*
X131219000Y-117642000D01*
X131176000Y-117662000D01*
X131133000Y-117680000D01*
X131088000Y-117696000D01*
X131043000Y-117709000D01*
X130997000Y-117720000D01*
X130951000Y-117729000D01*
X130904000Y-117735000D01*
X130857000Y-117739000D01*
X130810000Y-117740000D01*
X128310000Y-117740000D01*
X128310000Y-115940000D01*
X130810000Y-115940000D01*
X130857000Y-115941000D01*
G37*
X130857000Y-115941000D02*
X130904000Y-115945000D01*
X130951000Y-115951000D01*
X130997000Y-115960000D01*
X131043000Y-115971000D01*
X131088000Y-115984000D01*
X131133000Y-116000000D01*
X131176000Y-116018000D01*
X131219000Y-116038000D01*
X131260000Y-116061000D01*
X131300000Y-116085000D01*
X131339000Y-116112000D01*
X131376000Y-116141000D01*
X131412000Y-116171000D01*
X131446000Y-116204000D01*
X131479000Y-116238000D01*
X131509000Y-116274000D01*
X131538000Y-116311000D01*
X131565000Y-116350000D01*
X131589000Y-116390000D01*
X131612000Y-116431000D01*
X131632000Y-116474000D01*
X131650000Y-116517000D01*
X131666000Y-116562000D01*
X131679000Y-116607000D01*
X131690000Y-116653000D01*
X131699000Y-116699000D01*
X131705000Y-116746000D01*
X131709000Y-116793000D01*
X131710000Y-116840000D01*
X131709000Y-116887000D01*
X131705000Y-116934000D01*
X131699000Y-116981000D01*
X131690000Y-117027000D01*
X131679000Y-117073000D01*
X131666000Y-117118000D01*
X131650000Y-117163000D01*
X131632000Y-117206000D01*
X131612000Y-117249000D01*
X131589000Y-117290000D01*
X131565000Y-117330000D01*
X131538000Y-117369000D01*
X131509000Y-117406000D01*
X131479000Y-117442000D01*
X131446000Y-117476000D01*
X131412000Y-117509000D01*
X131376000Y-117539000D01*
X131339000Y-117568000D01*
X131300000Y-117595000D01*
X131260000Y-117619000D01*
X131219000Y-117642000D01*
X131176000Y-117662000D01*
X131133000Y-117680000D01*
X131088000Y-117696000D01*
X131043000Y-117709000D01*
X130997000Y-117720000D01*
X130951000Y-117729000D01*
X130904000Y-117735000D01*
X130857000Y-117739000D01*
X130810000Y-117740000D01*
X128310000Y-117740000D01*
X128310000Y-115940000D01*
X130810000Y-115940000D01*
X130857000Y-115941000D01*
G36*
X131441000Y-113402000D02*
G01*
X131457000Y-113404000D01*
X131472000Y-113407000D01*
X131488000Y-113410000D01*
X131518000Y-113420000D01*
X131532000Y-113426000D01*
X131560000Y-113440000D01*
X131573000Y-113448000D01*
X131586000Y-113457000D01*
X131599000Y-113467000D01*
X131611000Y-113477000D01*
X131633000Y-113499000D01*
X131643000Y-113511000D01*
X131653000Y-113524000D01*
X131662000Y-113537000D01*
X131670000Y-113550000D01*
X131684000Y-113578000D01*
X131690000Y-113592000D01*
X131700000Y-113622000D01*
X131703000Y-113638000D01*
X131706000Y-113653000D01*
X131708000Y-113669000D01*
X131710000Y-113684000D01*
X131710000Y-114916000D01*
X131708000Y-114931000D01*
X131706000Y-114947000D01*
X131703000Y-114962000D01*
X131700000Y-114978000D01*
X131690000Y-115008000D01*
X131684000Y-115022000D01*
X131670000Y-115050000D01*
X131662000Y-115063000D01*
X131653000Y-115076000D01*
X131643000Y-115089000D01*
X131633000Y-115101000D01*
X131611000Y-115123000D01*
X131599000Y-115133000D01*
X131586000Y-115143000D01*
X131573000Y-115152000D01*
X131560000Y-115160000D01*
X131532000Y-115174000D01*
X131518000Y-115180000D01*
X131488000Y-115190000D01*
X131472000Y-115193000D01*
X131457000Y-115196000D01*
X131441000Y-115198000D01*
X131426000Y-115200000D01*
X128310000Y-115200000D01*
X128310000Y-113400000D01*
X131426000Y-113400000D01*
X131441000Y-113402000D01*
G37*
X131441000Y-113402000D02*
X131457000Y-113404000D01*
X131472000Y-113407000D01*
X131488000Y-113410000D01*
X131518000Y-113420000D01*
X131532000Y-113426000D01*
X131560000Y-113440000D01*
X131573000Y-113448000D01*
X131586000Y-113457000D01*
X131599000Y-113467000D01*
X131611000Y-113477000D01*
X131633000Y-113499000D01*
X131643000Y-113511000D01*
X131653000Y-113524000D01*
X131662000Y-113537000D01*
X131670000Y-113550000D01*
X131684000Y-113578000D01*
X131690000Y-113592000D01*
X131700000Y-113622000D01*
X131703000Y-113638000D01*
X131706000Y-113653000D01*
X131708000Y-113669000D01*
X131710000Y-113684000D01*
X131710000Y-114916000D01*
X131708000Y-114931000D01*
X131706000Y-114947000D01*
X131703000Y-114962000D01*
X131700000Y-114978000D01*
X131690000Y-115008000D01*
X131684000Y-115022000D01*
X131670000Y-115050000D01*
X131662000Y-115063000D01*
X131653000Y-115076000D01*
X131643000Y-115089000D01*
X131633000Y-115101000D01*
X131611000Y-115123000D01*
X131599000Y-115133000D01*
X131586000Y-115143000D01*
X131573000Y-115152000D01*
X131560000Y-115160000D01*
X131532000Y-115174000D01*
X131518000Y-115180000D01*
X131488000Y-115190000D01*
X131472000Y-115193000D01*
X131457000Y-115196000D01*
X131441000Y-115198000D01*
X131426000Y-115200000D01*
X128310000Y-115200000D01*
X128310000Y-113400000D01*
X131426000Y-113400000D01*
X131441000Y-113402000D01*
G36*
X130857000Y-105781000D02*
G01*
X130904000Y-105785000D01*
X130951000Y-105791000D01*
X130997000Y-105800000D01*
X131043000Y-105811000D01*
X131088000Y-105824000D01*
X131133000Y-105840000D01*
X131176000Y-105858000D01*
X131219000Y-105878000D01*
X131260000Y-105901000D01*
X131300000Y-105925000D01*
X131339000Y-105952000D01*
X131376000Y-105981000D01*
X131412000Y-106011000D01*
X131446000Y-106044000D01*
X131479000Y-106078000D01*
X131509000Y-106114000D01*
X131538000Y-106151000D01*
X131565000Y-106190000D01*
X131589000Y-106230000D01*
X131612000Y-106271000D01*
X131632000Y-106314000D01*
X131650000Y-106357000D01*
X131666000Y-106402000D01*
X131679000Y-106447000D01*
X131690000Y-106493000D01*
X131699000Y-106539000D01*
X131705000Y-106586000D01*
X131709000Y-106633000D01*
X131710000Y-106680000D01*
X131709000Y-106727000D01*
X131705000Y-106774000D01*
X131699000Y-106821000D01*
X131690000Y-106867000D01*
X131679000Y-106913000D01*
X131666000Y-106958000D01*
X131650000Y-107003000D01*
X131632000Y-107046000D01*
X131612000Y-107089000D01*
X131589000Y-107130000D01*
X131565000Y-107170000D01*
X131538000Y-107209000D01*
X131509000Y-107246000D01*
X131479000Y-107282000D01*
X131446000Y-107316000D01*
X131412000Y-107349000D01*
X131376000Y-107379000D01*
X131339000Y-107408000D01*
X131300000Y-107435000D01*
X131260000Y-107459000D01*
X131219000Y-107482000D01*
X131176000Y-107502000D01*
X131133000Y-107520000D01*
X131088000Y-107536000D01*
X131043000Y-107549000D01*
X130997000Y-107560000D01*
X130951000Y-107569000D01*
X130904000Y-107575000D01*
X130857000Y-107579000D01*
X130810000Y-107580000D01*
X128310000Y-107580000D01*
X128310000Y-105780000D01*
X130810000Y-105780000D01*
X130857000Y-105781000D01*
G37*
X130857000Y-105781000D02*
X130904000Y-105785000D01*
X130951000Y-105791000D01*
X130997000Y-105800000D01*
X131043000Y-105811000D01*
X131088000Y-105824000D01*
X131133000Y-105840000D01*
X131176000Y-105858000D01*
X131219000Y-105878000D01*
X131260000Y-105901000D01*
X131300000Y-105925000D01*
X131339000Y-105952000D01*
X131376000Y-105981000D01*
X131412000Y-106011000D01*
X131446000Y-106044000D01*
X131479000Y-106078000D01*
X131509000Y-106114000D01*
X131538000Y-106151000D01*
X131565000Y-106190000D01*
X131589000Y-106230000D01*
X131612000Y-106271000D01*
X131632000Y-106314000D01*
X131650000Y-106357000D01*
X131666000Y-106402000D01*
X131679000Y-106447000D01*
X131690000Y-106493000D01*
X131699000Y-106539000D01*
X131705000Y-106586000D01*
X131709000Y-106633000D01*
X131710000Y-106680000D01*
X131709000Y-106727000D01*
X131705000Y-106774000D01*
X131699000Y-106821000D01*
X131690000Y-106867000D01*
X131679000Y-106913000D01*
X131666000Y-106958000D01*
X131650000Y-107003000D01*
X131632000Y-107046000D01*
X131612000Y-107089000D01*
X131589000Y-107130000D01*
X131565000Y-107170000D01*
X131538000Y-107209000D01*
X131509000Y-107246000D01*
X131479000Y-107282000D01*
X131446000Y-107316000D01*
X131412000Y-107349000D01*
X131376000Y-107379000D01*
X131339000Y-107408000D01*
X131300000Y-107435000D01*
X131260000Y-107459000D01*
X131219000Y-107482000D01*
X131176000Y-107502000D01*
X131133000Y-107520000D01*
X131088000Y-107536000D01*
X131043000Y-107549000D01*
X130997000Y-107560000D01*
X130951000Y-107569000D01*
X130904000Y-107575000D01*
X130857000Y-107579000D01*
X130810000Y-107580000D01*
X128310000Y-107580000D01*
X128310000Y-105780000D01*
X130810000Y-105780000D01*
X130857000Y-105781000D01*
G36*
X151090000Y-143140000D02*
G01*
X148590000Y-143140000D01*
X148543000Y-143139000D01*
X148496000Y-143135000D01*
X148449000Y-143129000D01*
X148403000Y-143120000D01*
X148357000Y-143109000D01*
X148312000Y-143096000D01*
X148267000Y-143080000D01*
X148224000Y-143062000D01*
X148181000Y-143042000D01*
X148140000Y-143019000D01*
X148100000Y-142995000D01*
X148061000Y-142968000D01*
X148024000Y-142939000D01*
X147988000Y-142909000D01*
X147954000Y-142876000D01*
X147921000Y-142842000D01*
X147891000Y-142806000D01*
X147862000Y-142769000D01*
X147835000Y-142730000D01*
X147811000Y-142690000D01*
X147788000Y-142649000D01*
X147768000Y-142606000D01*
X147750000Y-142563000D01*
X147734000Y-142518000D01*
X147721000Y-142473000D01*
X147710000Y-142427000D01*
X147701000Y-142381000D01*
X147695000Y-142334000D01*
X147691000Y-142287000D01*
X147690000Y-142240000D01*
X147691000Y-142193000D01*
X147695000Y-142146000D01*
X147701000Y-142099000D01*
X147710000Y-142053000D01*
X147721000Y-142007000D01*
X147734000Y-141962000D01*
X147750000Y-141917000D01*
X147768000Y-141874000D01*
X147788000Y-141831000D01*
X147811000Y-141790000D01*
X147835000Y-141750000D01*
X147862000Y-141711000D01*
X147891000Y-141674000D01*
X147921000Y-141638000D01*
X147954000Y-141604000D01*
X147988000Y-141571000D01*
X148024000Y-141541000D01*
X148061000Y-141512000D01*
X148100000Y-141485000D01*
X148140000Y-141461000D01*
X148181000Y-141438000D01*
X148224000Y-141418000D01*
X148267000Y-141400000D01*
X148312000Y-141384000D01*
X148357000Y-141371000D01*
X148403000Y-141360000D01*
X148449000Y-141351000D01*
X148496000Y-141345000D01*
X148543000Y-141341000D01*
X148590000Y-141340000D01*
X151090000Y-141340000D01*
X151090000Y-143140000D01*
G37*
X151090000Y-143140000D02*
X148590000Y-143140000D01*
X148543000Y-143139000D01*
X148496000Y-143135000D01*
X148449000Y-143129000D01*
X148403000Y-143120000D01*
X148357000Y-143109000D01*
X148312000Y-143096000D01*
X148267000Y-143080000D01*
X148224000Y-143062000D01*
X148181000Y-143042000D01*
X148140000Y-143019000D01*
X148100000Y-142995000D01*
X148061000Y-142968000D01*
X148024000Y-142939000D01*
X147988000Y-142909000D01*
X147954000Y-142876000D01*
X147921000Y-142842000D01*
X147891000Y-142806000D01*
X147862000Y-142769000D01*
X147835000Y-142730000D01*
X147811000Y-142690000D01*
X147788000Y-142649000D01*
X147768000Y-142606000D01*
X147750000Y-142563000D01*
X147734000Y-142518000D01*
X147721000Y-142473000D01*
X147710000Y-142427000D01*
X147701000Y-142381000D01*
X147695000Y-142334000D01*
X147691000Y-142287000D01*
X147690000Y-142240000D01*
X147691000Y-142193000D01*
X147695000Y-142146000D01*
X147701000Y-142099000D01*
X147710000Y-142053000D01*
X147721000Y-142007000D01*
X147734000Y-141962000D01*
X147750000Y-141917000D01*
X147768000Y-141874000D01*
X147788000Y-141831000D01*
X147811000Y-141790000D01*
X147835000Y-141750000D01*
X147862000Y-141711000D01*
X147891000Y-141674000D01*
X147921000Y-141638000D01*
X147954000Y-141604000D01*
X147988000Y-141571000D01*
X148024000Y-141541000D01*
X148061000Y-141512000D01*
X148100000Y-141485000D01*
X148140000Y-141461000D01*
X148181000Y-141438000D01*
X148224000Y-141418000D01*
X148267000Y-141400000D01*
X148312000Y-141384000D01*
X148357000Y-141371000D01*
X148403000Y-141360000D01*
X148449000Y-141351000D01*
X148496000Y-141345000D01*
X148543000Y-141341000D01*
X148590000Y-141340000D01*
X151090000Y-141340000D01*
X151090000Y-143140000D01*
G36*
X151090000Y-132980000D02*
G01*
X148590000Y-132980000D01*
X148543000Y-132979000D01*
X148496000Y-132975000D01*
X148449000Y-132969000D01*
X148403000Y-132960000D01*
X148357000Y-132949000D01*
X148312000Y-132936000D01*
X148267000Y-132920000D01*
X148224000Y-132902000D01*
X148181000Y-132882000D01*
X148140000Y-132859000D01*
X148100000Y-132835000D01*
X148061000Y-132808000D01*
X148024000Y-132779000D01*
X147988000Y-132749000D01*
X147954000Y-132716000D01*
X147921000Y-132682000D01*
X147891000Y-132646000D01*
X147862000Y-132609000D01*
X147835000Y-132570000D01*
X147811000Y-132530000D01*
X147788000Y-132489000D01*
X147768000Y-132446000D01*
X147750000Y-132403000D01*
X147734000Y-132358000D01*
X147721000Y-132313000D01*
X147710000Y-132267000D01*
X147701000Y-132221000D01*
X147695000Y-132174000D01*
X147691000Y-132127000D01*
X147690000Y-132080000D01*
X147691000Y-132033000D01*
X147695000Y-131986000D01*
X147701000Y-131939000D01*
X147710000Y-131893000D01*
X147721000Y-131847000D01*
X147734000Y-131802000D01*
X147750000Y-131757000D01*
X147768000Y-131714000D01*
X147788000Y-131671000D01*
X147811000Y-131630000D01*
X147835000Y-131590000D01*
X147862000Y-131551000D01*
X147891000Y-131514000D01*
X147921000Y-131478000D01*
X147954000Y-131444000D01*
X147988000Y-131411000D01*
X148024000Y-131381000D01*
X148061000Y-131352000D01*
X148100000Y-131325000D01*
X148140000Y-131301000D01*
X148181000Y-131278000D01*
X148224000Y-131258000D01*
X148267000Y-131240000D01*
X148312000Y-131224000D01*
X148357000Y-131211000D01*
X148403000Y-131200000D01*
X148449000Y-131191000D01*
X148496000Y-131185000D01*
X148543000Y-131181000D01*
X148590000Y-131180000D01*
X151090000Y-131180000D01*
X151090000Y-132980000D01*
G37*
X151090000Y-132980000D02*
X148590000Y-132980000D01*
X148543000Y-132979000D01*
X148496000Y-132975000D01*
X148449000Y-132969000D01*
X148403000Y-132960000D01*
X148357000Y-132949000D01*
X148312000Y-132936000D01*
X148267000Y-132920000D01*
X148224000Y-132902000D01*
X148181000Y-132882000D01*
X148140000Y-132859000D01*
X148100000Y-132835000D01*
X148061000Y-132808000D01*
X148024000Y-132779000D01*
X147988000Y-132749000D01*
X147954000Y-132716000D01*
X147921000Y-132682000D01*
X147891000Y-132646000D01*
X147862000Y-132609000D01*
X147835000Y-132570000D01*
X147811000Y-132530000D01*
X147788000Y-132489000D01*
X147768000Y-132446000D01*
X147750000Y-132403000D01*
X147734000Y-132358000D01*
X147721000Y-132313000D01*
X147710000Y-132267000D01*
X147701000Y-132221000D01*
X147695000Y-132174000D01*
X147691000Y-132127000D01*
X147690000Y-132080000D01*
X147691000Y-132033000D01*
X147695000Y-131986000D01*
X147701000Y-131939000D01*
X147710000Y-131893000D01*
X147721000Y-131847000D01*
X147734000Y-131802000D01*
X147750000Y-131757000D01*
X147768000Y-131714000D01*
X147788000Y-131671000D01*
X147811000Y-131630000D01*
X147835000Y-131590000D01*
X147862000Y-131551000D01*
X147891000Y-131514000D01*
X147921000Y-131478000D01*
X147954000Y-131444000D01*
X147988000Y-131411000D01*
X148024000Y-131381000D01*
X148061000Y-131352000D01*
X148100000Y-131325000D01*
X148140000Y-131301000D01*
X148181000Y-131278000D01*
X148224000Y-131258000D01*
X148267000Y-131240000D01*
X148312000Y-131224000D01*
X148357000Y-131211000D01*
X148403000Y-131200000D01*
X148449000Y-131191000D01*
X148496000Y-131185000D01*
X148543000Y-131181000D01*
X148590000Y-131180000D01*
X151090000Y-131180000D01*
X151090000Y-132980000D01*
G36*
X130857000Y-118481000D02*
G01*
X130904000Y-118485000D01*
X130951000Y-118491000D01*
X130997000Y-118500000D01*
X131043000Y-118511000D01*
X131088000Y-118524000D01*
X131133000Y-118540000D01*
X131176000Y-118558000D01*
X131219000Y-118578000D01*
X131260000Y-118601000D01*
X131300000Y-118625000D01*
X131339000Y-118652000D01*
X131376000Y-118681000D01*
X131412000Y-118711000D01*
X131446000Y-118744000D01*
X131479000Y-118778000D01*
X131509000Y-118814000D01*
X131538000Y-118851000D01*
X131565000Y-118890000D01*
X131589000Y-118930000D01*
X131612000Y-118971000D01*
X131632000Y-119014000D01*
X131650000Y-119057000D01*
X131666000Y-119102000D01*
X131679000Y-119147000D01*
X131690000Y-119193000D01*
X131699000Y-119239000D01*
X131705000Y-119286000D01*
X131709000Y-119333000D01*
X131710000Y-119380000D01*
X131709000Y-119427000D01*
X131705000Y-119474000D01*
X131699000Y-119521000D01*
X131690000Y-119567000D01*
X131679000Y-119613000D01*
X131666000Y-119658000D01*
X131650000Y-119703000D01*
X131632000Y-119746000D01*
X131612000Y-119789000D01*
X131589000Y-119830000D01*
X131565000Y-119870000D01*
X131538000Y-119909000D01*
X131509000Y-119946000D01*
X131479000Y-119982000D01*
X131446000Y-120016000D01*
X131412000Y-120049000D01*
X131376000Y-120079000D01*
X131339000Y-120108000D01*
X131300000Y-120135000D01*
X131260000Y-120159000D01*
X131219000Y-120182000D01*
X131176000Y-120202000D01*
X131133000Y-120220000D01*
X131088000Y-120236000D01*
X131043000Y-120249000D01*
X130997000Y-120260000D01*
X130951000Y-120269000D01*
X130904000Y-120275000D01*
X130857000Y-120279000D01*
X130810000Y-120280000D01*
X128310000Y-120280000D01*
X128310000Y-118480000D01*
X130810000Y-118480000D01*
X130857000Y-118481000D01*
G37*
X130857000Y-118481000D02*
X130904000Y-118485000D01*
X130951000Y-118491000D01*
X130997000Y-118500000D01*
X131043000Y-118511000D01*
X131088000Y-118524000D01*
X131133000Y-118540000D01*
X131176000Y-118558000D01*
X131219000Y-118578000D01*
X131260000Y-118601000D01*
X131300000Y-118625000D01*
X131339000Y-118652000D01*
X131376000Y-118681000D01*
X131412000Y-118711000D01*
X131446000Y-118744000D01*
X131479000Y-118778000D01*
X131509000Y-118814000D01*
X131538000Y-118851000D01*
X131565000Y-118890000D01*
X131589000Y-118930000D01*
X131612000Y-118971000D01*
X131632000Y-119014000D01*
X131650000Y-119057000D01*
X131666000Y-119102000D01*
X131679000Y-119147000D01*
X131690000Y-119193000D01*
X131699000Y-119239000D01*
X131705000Y-119286000D01*
X131709000Y-119333000D01*
X131710000Y-119380000D01*
X131709000Y-119427000D01*
X131705000Y-119474000D01*
X131699000Y-119521000D01*
X131690000Y-119567000D01*
X131679000Y-119613000D01*
X131666000Y-119658000D01*
X131650000Y-119703000D01*
X131632000Y-119746000D01*
X131612000Y-119789000D01*
X131589000Y-119830000D01*
X131565000Y-119870000D01*
X131538000Y-119909000D01*
X131509000Y-119946000D01*
X131479000Y-119982000D01*
X131446000Y-120016000D01*
X131412000Y-120049000D01*
X131376000Y-120079000D01*
X131339000Y-120108000D01*
X131300000Y-120135000D01*
X131260000Y-120159000D01*
X131219000Y-120182000D01*
X131176000Y-120202000D01*
X131133000Y-120220000D01*
X131088000Y-120236000D01*
X131043000Y-120249000D01*
X130997000Y-120260000D01*
X130951000Y-120269000D01*
X130904000Y-120275000D01*
X130857000Y-120279000D01*
X130810000Y-120280000D01*
X128310000Y-120280000D01*
X128310000Y-118480000D01*
X130810000Y-118480000D01*
X130857000Y-118481000D01*
G36*
X151090000Y-140600000D02*
G01*
X147974000Y-140600000D01*
X147959000Y-140598000D01*
X147943000Y-140596000D01*
X147928000Y-140593000D01*
X147912000Y-140590000D01*
X147882000Y-140580000D01*
X147868000Y-140574000D01*
X147840000Y-140560000D01*
X147827000Y-140552000D01*
X147814000Y-140543000D01*
X147801000Y-140533000D01*
X147789000Y-140523000D01*
X147767000Y-140501000D01*
X147757000Y-140489000D01*
X147747000Y-140476000D01*
X147738000Y-140463000D01*
X147730000Y-140450000D01*
X147716000Y-140422000D01*
X147710000Y-140408000D01*
X147700000Y-140378000D01*
X147697000Y-140362000D01*
X147694000Y-140347000D01*
X147692000Y-140331000D01*
X147690000Y-140316000D01*
X147690000Y-139084000D01*
X147692000Y-139069000D01*
X147694000Y-139053000D01*
X147697000Y-139038000D01*
X147700000Y-139022000D01*
X147710000Y-138992000D01*
X147716000Y-138978000D01*
X147730000Y-138950000D01*
X147738000Y-138937000D01*
X147747000Y-138924000D01*
X147757000Y-138911000D01*
X147767000Y-138899000D01*
X147789000Y-138877000D01*
X147801000Y-138867000D01*
X147814000Y-138857000D01*
X147827000Y-138848000D01*
X147840000Y-138840000D01*
X147868000Y-138826000D01*
X147882000Y-138820000D01*
X147912000Y-138810000D01*
X147928000Y-138807000D01*
X147943000Y-138804000D01*
X147959000Y-138802000D01*
X147974000Y-138800000D01*
X151090000Y-138800000D01*
X151090000Y-140600000D01*
G37*
X151090000Y-140600000D02*
X147974000Y-140600000D01*
X147959000Y-140598000D01*
X147943000Y-140596000D01*
X147928000Y-140593000D01*
X147912000Y-140590000D01*
X147882000Y-140580000D01*
X147868000Y-140574000D01*
X147840000Y-140560000D01*
X147827000Y-140552000D01*
X147814000Y-140543000D01*
X147801000Y-140533000D01*
X147789000Y-140523000D01*
X147767000Y-140501000D01*
X147757000Y-140489000D01*
X147747000Y-140476000D01*
X147738000Y-140463000D01*
X147730000Y-140450000D01*
X147716000Y-140422000D01*
X147710000Y-140408000D01*
X147700000Y-140378000D01*
X147697000Y-140362000D01*
X147694000Y-140347000D01*
X147692000Y-140331000D01*
X147690000Y-140316000D01*
X147690000Y-139084000D01*
X147692000Y-139069000D01*
X147694000Y-139053000D01*
X147697000Y-139038000D01*
X147700000Y-139022000D01*
X147710000Y-138992000D01*
X147716000Y-138978000D01*
X147730000Y-138950000D01*
X147738000Y-138937000D01*
X147747000Y-138924000D01*
X147757000Y-138911000D01*
X147767000Y-138899000D01*
X147789000Y-138877000D01*
X147801000Y-138867000D01*
X147814000Y-138857000D01*
X147827000Y-138848000D01*
X147840000Y-138840000D01*
X147868000Y-138826000D01*
X147882000Y-138820000D01*
X147912000Y-138810000D01*
X147928000Y-138807000D01*
X147943000Y-138804000D01*
X147959000Y-138802000D01*
X147974000Y-138800000D01*
X151090000Y-138800000D01*
X151090000Y-140600000D01*
G36*
X151090000Y-122820000D02*
G01*
X148590000Y-122820000D01*
X148543000Y-122819000D01*
X148496000Y-122815000D01*
X148449000Y-122809000D01*
X148403000Y-122800000D01*
X148357000Y-122789000D01*
X148312000Y-122776000D01*
X148267000Y-122760000D01*
X148224000Y-122742000D01*
X148181000Y-122722000D01*
X148140000Y-122699000D01*
X148100000Y-122675000D01*
X148061000Y-122648000D01*
X148024000Y-122619000D01*
X147988000Y-122589000D01*
X147954000Y-122556000D01*
X147921000Y-122522000D01*
X147891000Y-122486000D01*
X147862000Y-122449000D01*
X147835000Y-122410000D01*
X147811000Y-122370000D01*
X147788000Y-122329000D01*
X147768000Y-122286000D01*
X147750000Y-122243000D01*
X147734000Y-122198000D01*
X147721000Y-122153000D01*
X147710000Y-122107000D01*
X147701000Y-122061000D01*
X147695000Y-122014000D01*
X147691000Y-121967000D01*
X147690000Y-121920000D01*
X147691000Y-121873000D01*
X147695000Y-121826000D01*
X147701000Y-121779000D01*
X147710000Y-121733000D01*
X147721000Y-121687000D01*
X147734000Y-121642000D01*
X147750000Y-121597000D01*
X147768000Y-121554000D01*
X147788000Y-121511000D01*
X147811000Y-121470000D01*
X147835000Y-121430000D01*
X147862000Y-121391000D01*
X147891000Y-121354000D01*
X147921000Y-121318000D01*
X147954000Y-121284000D01*
X147988000Y-121251000D01*
X148024000Y-121221000D01*
X148061000Y-121192000D01*
X148100000Y-121165000D01*
X148140000Y-121141000D01*
X148181000Y-121118000D01*
X148224000Y-121098000D01*
X148267000Y-121080000D01*
X148312000Y-121064000D01*
X148357000Y-121051000D01*
X148403000Y-121040000D01*
X148449000Y-121031000D01*
X148496000Y-121025000D01*
X148543000Y-121021000D01*
X148590000Y-121020000D01*
X151090000Y-121020000D01*
X151090000Y-122820000D01*
G37*
X151090000Y-122820000D02*
X148590000Y-122820000D01*
X148543000Y-122819000D01*
X148496000Y-122815000D01*
X148449000Y-122809000D01*
X148403000Y-122800000D01*
X148357000Y-122789000D01*
X148312000Y-122776000D01*
X148267000Y-122760000D01*
X148224000Y-122742000D01*
X148181000Y-122722000D01*
X148140000Y-122699000D01*
X148100000Y-122675000D01*
X148061000Y-122648000D01*
X148024000Y-122619000D01*
X147988000Y-122589000D01*
X147954000Y-122556000D01*
X147921000Y-122522000D01*
X147891000Y-122486000D01*
X147862000Y-122449000D01*
X147835000Y-122410000D01*
X147811000Y-122370000D01*
X147788000Y-122329000D01*
X147768000Y-122286000D01*
X147750000Y-122243000D01*
X147734000Y-122198000D01*
X147721000Y-122153000D01*
X147710000Y-122107000D01*
X147701000Y-122061000D01*
X147695000Y-122014000D01*
X147691000Y-121967000D01*
X147690000Y-121920000D01*
X147691000Y-121873000D01*
X147695000Y-121826000D01*
X147701000Y-121779000D01*
X147710000Y-121733000D01*
X147721000Y-121687000D01*
X147734000Y-121642000D01*
X147750000Y-121597000D01*
X147768000Y-121554000D01*
X147788000Y-121511000D01*
X147811000Y-121470000D01*
X147835000Y-121430000D01*
X147862000Y-121391000D01*
X147891000Y-121354000D01*
X147921000Y-121318000D01*
X147954000Y-121284000D01*
X147988000Y-121251000D01*
X148024000Y-121221000D01*
X148061000Y-121192000D01*
X148100000Y-121165000D01*
X148140000Y-121141000D01*
X148181000Y-121118000D01*
X148224000Y-121098000D01*
X148267000Y-121080000D01*
X148312000Y-121064000D01*
X148357000Y-121051000D01*
X148403000Y-121040000D01*
X148449000Y-121031000D01*
X148496000Y-121025000D01*
X148543000Y-121021000D01*
X148590000Y-121020000D01*
X151090000Y-121020000D01*
X151090000Y-122820000D01*
G36*
X130857000Y-131181000D02*
G01*
X130904000Y-131185000D01*
X130951000Y-131191000D01*
X130997000Y-131200000D01*
X131043000Y-131211000D01*
X131088000Y-131224000D01*
X131133000Y-131240000D01*
X131176000Y-131258000D01*
X131219000Y-131278000D01*
X131260000Y-131301000D01*
X131300000Y-131325000D01*
X131339000Y-131352000D01*
X131376000Y-131381000D01*
X131412000Y-131411000D01*
X131446000Y-131444000D01*
X131479000Y-131478000D01*
X131509000Y-131514000D01*
X131538000Y-131551000D01*
X131565000Y-131590000D01*
X131589000Y-131630000D01*
X131612000Y-131671000D01*
X131632000Y-131714000D01*
X131650000Y-131757000D01*
X131666000Y-131802000D01*
X131679000Y-131847000D01*
X131690000Y-131893000D01*
X131699000Y-131939000D01*
X131705000Y-131986000D01*
X131709000Y-132033000D01*
X131710000Y-132080000D01*
X131709000Y-132127000D01*
X131705000Y-132174000D01*
X131699000Y-132221000D01*
X131690000Y-132267000D01*
X131679000Y-132313000D01*
X131666000Y-132358000D01*
X131650000Y-132403000D01*
X131632000Y-132446000D01*
X131612000Y-132489000D01*
X131589000Y-132530000D01*
X131565000Y-132570000D01*
X131538000Y-132609000D01*
X131509000Y-132646000D01*
X131479000Y-132682000D01*
X131446000Y-132716000D01*
X131412000Y-132749000D01*
X131376000Y-132779000D01*
X131339000Y-132808000D01*
X131300000Y-132835000D01*
X131260000Y-132859000D01*
X131219000Y-132882000D01*
X131176000Y-132902000D01*
X131133000Y-132920000D01*
X131088000Y-132936000D01*
X131043000Y-132949000D01*
X130997000Y-132960000D01*
X130951000Y-132969000D01*
X130904000Y-132975000D01*
X130857000Y-132979000D01*
X130810000Y-132980000D01*
X128310000Y-132980000D01*
X128310000Y-131180000D01*
X130810000Y-131180000D01*
X130857000Y-131181000D01*
G37*
X130857000Y-131181000D02*
X130904000Y-131185000D01*
X130951000Y-131191000D01*
X130997000Y-131200000D01*
X131043000Y-131211000D01*
X131088000Y-131224000D01*
X131133000Y-131240000D01*
X131176000Y-131258000D01*
X131219000Y-131278000D01*
X131260000Y-131301000D01*
X131300000Y-131325000D01*
X131339000Y-131352000D01*
X131376000Y-131381000D01*
X131412000Y-131411000D01*
X131446000Y-131444000D01*
X131479000Y-131478000D01*
X131509000Y-131514000D01*
X131538000Y-131551000D01*
X131565000Y-131590000D01*
X131589000Y-131630000D01*
X131612000Y-131671000D01*
X131632000Y-131714000D01*
X131650000Y-131757000D01*
X131666000Y-131802000D01*
X131679000Y-131847000D01*
X131690000Y-131893000D01*
X131699000Y-131939000D01*
X131705000Y-131986000D01*
X131709000Y-132033000D01*
X131710000Y-132080000D01*
X131709000Y-132127000D01*
X131705000Y-132174000D01*
X131699000Y-132221000D01*
X131690000Y-132267000D01*
X131679000Y-132313000D01*
X131666000Y-132358000D01*
X131650000Y-132403000D01*
X131632000Y-132446000D01*
X131612000Y-132489000D01*
X131589000Y-132530000D01*
X131565000Y-132570000D01*
X131538000Y-132609000D01*
X131509000Y-132646000D01*
X131479000Y-132682000D01*
X131446000Y-132716000D01*
X131412000Y-132749000D01*
X131376000Y-132779000D01*
X131339000Y-132808000D01*
X131300000Y-132835000D01*
X131260000Y-132859000D01*
X131219000Y-132882000D01*
X131176000Y-132902000D01*
X131133000Y-132920000D01*
X131088000Y-132936000D01*
X131043000Y-132949000D01*
X130997000Y-132960000D01*
X130951000Y-132969000D01*
X130904000Y-132975000D01*
X130857000Y-132979000D01*
X130810000Y-132980000D01*
X128310000Y-132980000D01*
X128310000Y-131180000D01*
X130810000Y-131180000D01*
X130857000Y-131181000D01*
G36*
X151090000Y-117740000D02*
G01*
X148590000Y-117740000D01*
X148543000Y-117739000D01*
X148496000Y-117735000D01*
X148449000Y-117729000D01*
X148403000Y-117720000D01*
X148357000Y-117709000D01*
X148312000Y-117696000D01*
X148267000Y-117680000D01*
X148224000Y-117662000D01*
X148181000Y-117642000D01*
X148140000Y-117619000D01*
X148100000Y-117595000D01*
X148061000Y-117568000D01*
X148024000Y-117539000D01*
X147988000Y-117509000D01*
X147954000Y-117476000D01*
X147921000Y-117442000D01*
X147891000Y-117406000D01*
X147862000Y-117369000D01*
X147835000Y-117330000D01*
X147811000Y-117290000D01*
X147788000Y-117249000D01*
X147768000Y-117206000D01*
X147750000Y-117163000D01*
X147734000Y-117118000D01*
X147721000Y-117073000D01*
X147710000Y-117027000D01*
X147701000Y-116981000D01*
X147695000Y-116934000D01*
X147691000Y-116887000D01*
X147690000Y-116840000D01*
X147691000Y-116793000D01*
X147695000Y-116746000D01*
X147701000Y-116699000D01*
X147710000Y-116653000D01*
X147721000Y-116607000D01*
X147734000Y-116562000D01*
X147750000Y-116517000D01*
X147768000Y-116474000D01*
X147788000Y-116431000D01*
X147811000Y-116390000D01*
X147835000Y-116350000D01*
X147862000Y-116311000D01*
X147891000Y-116274000D01*
X147921000Y-116238000D01*
X147954000Y-116204000D01*
X147988000Y-116171000D01*
X148024000Y-116141000D01*
X148061000Y-116112000D01*
X148100000Y-116085000D01*
X148140000Y-116061000D01*
X148181000Y-116038000D01*
X148224000Y-116018000D01*
X148267000Y-116000000D01*
X148312000Y-115984000D01*
X148357000Y-115971000D01*
X148403000Y-115960000D01*
X148449000Y-115951000D01*
X148496000Y-115945000D01*
X148543000Y-115941000D01*
X148590000Y-115940000D01*
X151090000Y-115940000D01*
X151090000Y-117740000D01*
G37*
X151090000Y-117740000D02*
X148590000Y-117740000D01*
X148543000Y-117739000D01*
X148496000Y-117735000D01*
X148449000Y-117729000D01*
X148403000Y-117720000D01*
X148357000Y-117709000D01*
X148312000Y-117696000D01*
X148267000Y-117680000D01*
X148224000Y-117662000D01*
X148181000Y-117642000D01*
X148140000Y-117619000D01*
X148100000Y-117595000D01*
X148061000Y-117568000D01*
X148024000Y-117539000D01*
X147988000Y-117509000D01*
X147954000Y-117476000D01*
X147921000Y-117442000D01*
X147891000Y-117406000D01*
X147862000Y-117369000D01*
X147835000Y-117330000D01*
X147811000Y-117290000D01*
X147788000Y-117249000D01*
X147768000Y-117206000D01*
X147750000Y-117163000D01*
X147734000Y-117118000D01*
X147721000Y-117073000D01*
X147710000Y-117027000D01*
X147701000Y-116981000D01*
X147695000Y-116934000D01*
X147691000Y-116887000D01*
X147690000Y-116840000D01*
X147691000Y-116793000D01*
X147695000Y-116746000D01*
X147701000Y-116699000D01*
X147710000Y-116653000D01*
X147721000Y-116607000D01*
X147734000Y-116562000D01*
X147750000Y-116517000D01*
X147768000Y-116474000D01*
X147788000Y-116431000D01*
X147811000Y-116390000D01*
X147835000Y-116350000D01*
X147862000Y-116311000D01*
X147891000Y-116274000D01*
X147921000Y-116238000D01*
X147954000Y-116204000D01*
X147988000Y-116171000D01*
X148024000Y-116141000D01*
X148061000Y-116112000D01*
X148100000Y-116085000D01*
X148140000Y-116061000D01*
X148181000Y-116038000D01*
X148224000Y-116018000D01*
X148267000Y-116000000D01*
X148312000Y-115984000D01*
X148357000Y-115971000D01*
X148403000Y-115960000D01*
X148449000Y-115951000D01*
X148496000Y-115945000D01*
X148543000Y-115941000D01*
X148590000Y-115940000D01*
X151090000Y-115940000D01*
X151090000Y-117740000D01*
G36*
X151090000Y-130440000D02*
G01*
X148590000Y-130440000D01*
X148543000Y-130439000D01*
X148496000Y-130435000D01*
X148449000Y-130429000D01*
X148403000Y-130420000D01*
X148357000Y-130409000D01*
X148312000Y-130396000D01*
X148267000Y-130380000D01*
X148224000Y-130362000D01*
X148181000Y-130342000D01*
X148140000Y-130319000D01*
X148100000Y-130295000D01*
X148061000Y-130268000D01*
X148024000Y-130239000D01*
X147988000Y-130209000D01*
X147954000Y-130176000D01*
X147921000Y-130142000D01*
X147891000Y-130106000D01*
X147862000Y-130069000D01*
X147835000Y-130030000D01*
X147811000Y-129990000D01*
X147788000Y-129949000D01*
X147768000Y-129906000D01*
X147750000Y-129863000D01*
X147734000Y-129818000D01*
X147721000Y-129773000D01*
X147710000Y-129727000D01*
X147701000Y-129681000D01*
X147695000Y-129634000D01*
X147691000Y-129587000D01*
X147690000Y-129540000D01*
X147691000Y-129493000D01*
X147695000Y-129446000D01*
X147701000Y-129399000D01*
X147710000Y-129353000D01*
X147721000Y-129307000D01*
X147734000Y-129262000D01*
X147750000Y-129217000D01*
X147768000Y-129174000D01*
X147788000Y-129131000D01*
X147811000Y-129090000D01*
X147835000Y-129050000D01*
X147862000Y-129011000D01*
X147891000Y-128974000D01*
X147921000Y-128938000D01*
X147954000Y-128904000D01*
X147988000Y-128871000D01*
X148024000Y-128841000D01*
X148061000Y-128812000D01*
X148100000Y-128785000D01*
X148140000Y-128761000D01*
X148181000Y-128738000D01*
X148224000Y-128718000D01*
X148267000Y-128700000D01*
X148312000Y-128684000D01*
X148357000Y-128671000D01*
X148403000Y-128660000D01*
X148449000Y-128651000D01*
X148496000Y-128645000D01*
X148543000Y-128641000D01*
X148590000Y-128640000D01*
X151090000Y-128640000D01*
X151090000Y-130440000D01*
G37*
X151090000Y-130440000D02*
X148590000Y-130440000D01*
X148543000Y-130439000D01*
X148496000Y-130435000D01*
X148449000Y-130429000D01*
X148403000Y-130420000D01*
X148357000Y-130409000D01*
X148312000Y-130396000D01*
X148267000Y-130380000D01*
X148224000Y-130362000D01*
X148181000Y-130342000D01*
X148140000Y-130319000D01*
X148100000Y-130295000D01*
X148061000Y-130268000D01*
X148024000Y-130239000D01*
X147988000Y-130209000D01*
X147954000Y-130176000D01*
X147921000Y-130142000D01*
X147891000Y-130106000D01*
X147862000Y-130069000D01*
X147835000Y-130030000D01*
X147811000Y-129990000D01*
X147788000Y-129949000D01*
X147768000Y-129906000D01*
X147750000Y-129863000D01*
X147734000Y-129818000D01*
X147721000Y-129773000D01*
X147710000Y-129727000D01*
X147701000Y-129681000D01*
X147695000Y-129634000D01*
X147691000Y-129587000D01*
X147690000Y-129540000D01*
X147691000Y-129493000D01*
X147695000Y-129446000D01*
X147701000Y-129399000D01*
X147710000Y-129353000D01*
X147721000Y-129307000D01*
X147734000Y-129262000D01*
X147750000Y-129217000D01*
X147768000Y-129174000D01*
X147788000Y-129131000D01*
X147811000Y-129090000D01*
X147835000Y-129050000D01*
X147862000Y-129011000D01*
X147891000Y-128974000D01*
X147921000Y-128938000D01*
X147954000Y-128904000D01*
X147988000Y-128871000D01*
X148024000Y-128841000D01*
X148061000Y-128812000D01*
X148100000Y-128785000D01*
X148140000Y-128761000D01*
X148181000Y-128738000D01*
X148224000Y-128718000D01*
X148267000Y-128700000D01*
X148312000Y-128684000D01*
X148357000Y-128671000D01*
X148403000Y-128660000D01*
X148449000Y-128651000D01*
X148496000Y-128645000D01*
X148543000Y-128641000D01*
X148590000Y-128640000D01*
X151090000Y-128640000D01*
X151090000Y-130440000D01*
G36*
X130857000Y-98161000D02*
G01*
X130904000Y-98165000D01*
X130951000Y-98171000D01*
X130997000Y-98180000D01*
X131043000Y-98191000D01*
X131088000Y-98204000D01*
X131133000Y-98220000D01*
X131176000Y-98238000D01*
X131219000Y-98258000D01*
X131260000Y-98281000D01*
X131300000Y-98305000D01*
X131339000Y-98332000D01*
X131376000Y-98361000D01*
X131412000Y-98391000D01*
X131446000Y-98424000D01*
X131479000Y-98458000D01*
X131509000Y-98494000D01*
X131538000Y-98531000D01*
X131565000Y-98570000D01*
X131589000Y-98610000D01*
X131612000Y-98651000D01*
X131632000Y-98694000D01*
X131650000Y-98737000D01*
X131666000Y-98782000D01*
X131679000Y-98827000D01*
X131690000Y-98873000D01*
X131699000Y-98919000D01*
X131705000Y-98966000D01*
X131709000Y-99013000D01*
X131710000Y-99060000D01*
X131709000Y-99107000D01*
X131705000Y-99154000D01*
X131699000Y-99201000D01*
X131690000Y-99247000D01*
X131679000Y-99293000D01*
X131666000Y-99338000D01*
X131650000Y-99383000D01*
X131632000Y-99426000D01*
X131612000Y-99469000D01*
X131589000Y-99510000D01*
X131565000Y-99550000D01*
X131538000Y-99589000D01*
X131509000Y-99626000D01*
X131479000Y-99662000D01*
X131446000Y-99696000D01*
X131412000Y-99729000D01*
X131376000Y-99759000D01*
X131339000Y-99788000D01*
X131300000Y-99815000D01*
X131260000Y-99839000D01*
X131219000Y-99862000D01*
X131176000Y-99882000D01*
X131133000Y-99900000D01*
X131088000Y-99916000D01*
X131043000Y-99929000D01*
X130997000Y-99940000D01*
X130951000Y-99949000D01*
X130904000Y-99955000D01*
X130857000Y-99959000D01*
X130810000Y-99960000D01*
X128310000Y-99960000D01*
X128310000Y-98160000D01*
X130810000Y-98160000D01*
X130857000Y-98161000D01*
G37*
X130857000Y-98161000D02*
X130904000Y-98165000D01*
X130951000Y-98171000D01*
X130997000Y-98180000D01*
X131043000Y-98191000D01*
X131088000Y-98204000D01*
X131133000Y-98220000D01*
X131176000Y-98238000D01*
X131219000Y-98258000D01*
X131260000Y-98281000D01*
X131300000Y-98305000D01*
X131339000Y-98332000D01*
X131376000Y-98361000D01*
X131412000Y-98391000D01*
X131446000Y-98424000D01*
X131479000Y-98458000D01*
X131509000Y-98494000D01*
X131538000Y-98531000D01*
X131565000Y-98570000D01*
X131589000Y-98610000D01*
X131612000Y-98651000D01*
X131632000Y-98694000D01*
X131650000Y-98737000D01*
X131666000Y-98782000D01*
X131679000Y-98827000D01*
X131690000Y-98873000D01*
X131699000Y-98919000D01*
X131705000Y-98966000D01*
X131709000Y-99013000D01*
X131710000Y-99060000D01*
X131709000Y-99107000D01*
X131705000Y-99154000D01*
X131699000Y-99201000D01*
X131690000Y-99247000D01*
X131679000Y-99293000D01*
X131666000Y-99338000D01*
X131650000Y-99383000D01*
X131632000Y-99426000D01*
X131612000Y-99469000D01*
X131589000Y-99510000D01*
X131565000Y-99550000D01*
X131538000Y-99589000D01*
X131509000Y-99626000D01*
X131479000Y-99662000D01*
X131446000Y-99696000D01*
X131412000Y-99729000D01*
X131376000Y-99759000D01*
X131339000Y-99788000D01*
X131300000Y-99815000D01*
X131260000Y-99839000D01*
X131219000Y-99862000D01*
X131176000Y-99882000D01*
X131133000Y-99900000D01*
X131088000Y-99916000D01*
X131043000Y-99929000D01*
X130997000Y-99940000D01*
X130951000Y-99949000D01*
X130904000Y-99955000D01*
X130857000Y-99959000D01*
X130810000Y-99960000D01*
X128310000Y-99960000D01*
X128310000Y-98160000D01*
X130810000Y-98160000D01*
X130857000Y-98161000D01*
G36*
X151090000Y-110120000D02*
G01*
X148590000Y-110120000D01*
X148543000Y-110119000D01*
X148496000Y-110115000D01*
X148449000Y-110109000D01*
X148403000Y-110100000D01*
X148357000Y-110089000D01*
X148312000Y-110076000D01*
X148267000Y-110060000D01*
X148224000Y-110042000D01*
X148181000Y-110022000D01*
X148140000Y-109999000D01*
X148100000Y-109975000D01*
X148061000Y-109948000D01*
X148024000Y-109919000D01*
X147988000Y-109889000D01*
X147954000Y-109856000D01*
X147921000Y-109822000D01*
X147891000Y-109786000D01*
X147862000Y-109749000D01*
X147835000Y-109710000D01*
X147811000Y-109670000D01*
X147788000Y-109629000D01*
X147768000Y-109586000D01*
X147750000Y-109543000D01*
X147734000Y-109498000D01*
X147721000Y-109453000D01*
X147710000Y-109407000D01*
X147701000Y-109361000D01*
X147695000Y-109314000D01*
X147691000Y-109267000D01*
X147690000Y-109220000D01*
X147691000Y-109173000D01*
X147695000Y-109126000D01*
X147701000Y-109079000D01*
X147710000Y-109033000D01*
X147721000Y-108987000D01*
X147734000Y-108942000D01*
X147750000Y-108897000D01*
X147768000Y-108854000D01*
X147788000Y-108811000D01*
X147811000Y-108770000D01*
X147835000Y-108730000D01*
X147862000Y-108691000D01*
X147891000Y-108654000D01*
X147921000Y-108618000D01*
X147954000Y-108584000D01*
X147988000Y-108551000D01*
X148024000Y-108521000D01*
X148061000Y-108492000D01*
X148100000Y-108465000D01*
X148140000Y-108441000D01*
X148181000Y-108418000D01*
X148224000Y-108398000D01*
X148267000Y-108380000D01*
X148312000Y-108364000D01*
X148357000Y-108351000D01*
X148403000Y-108340000D01*
X148449000Y-108331000D01*
X148496000Y-108325000D01*
X148543000Y-108321000D01*
X148590000Y-108320000D01*
X151090000Y-108320000D01*
X151090000Y-110120000D01*
G37*
X151090000Y-110120000D02*
X148590000Y-110120000D01*
X148543000Y-110119000D01*
X148496000Y-110115000D01*
X148449000Y-110109000D01*
X148403000Y-110100000D01*
X148357000Y-110089000D01*
X148312000Y-110076000D01*
X148267000Y-110060000D01*
X148224000Y-110042000D01*
X148181000Y-110022000D01*
X148140000Y-109999000D01*
X148100000Y-109975000D01*
X148061000Y-109948000D01*
X148024000Y-109919000D01*
X147988000Y-109889000D01*
X147954000Y-109856000D01*
X147921000Y-109822000D01*
X147891000Y-109786000D01*
X147862000Y-109749000D01*
X147835000Y-109710000D01*
X147811000Y-109670000D01*
X147788000Y-109629000D01*
X147768000Y-109586000D01*
X147750000Y-109543000D01*
X147734000Y-109498000D01*
X147721000Y-109453000D01*
X147710000Y-109407000D01*
X147701000Y-109361000D01*
X147695000Y-109314000D01*
X147691000Y-109267000D01*
X147690000Y-109220000D01*
X147691000Y-109173000D01*
X147695000Y-109126000D01*
X147701000Y-109079000D01*
X147710000Y-109033000D01*
X147721000Y-108987000D01*
X147734000Y-108942000D01*
X147750000Y-108897000D01*
X147768000Y-108854000D01*
X147788000Y-108811000D01*
X147811000Y-108770000D01*
X147835000Y-108730000D01*
X147862000Y-108691000D01*
X147891000Y-108654000D01*
X147921000Y-108618000D01*
X147954000Y-108584000D01*
X147988000Y-108551000D01*
X148024000Y-108521000D01*
X148061000Y-108492000D01*
X148100000Y-108465000D01*
X148140000Y-108441000D01*
X148181000Y-108418000D01*
X148224000Y-108398000D01*
X148267000Y-108380000D01*
X148312000Y-108364000D01*
X148357000Y-108351000D01*
X148403000Y-108340000D01*
X148449000Y-108331000D01*
X148496000Y-108325000D01*
X148543000Y-108321000D01*
X148590000Y-108320000D01*
X151090000Y-108320000D01*
X151090000Y-110120000D01*
G36*
X151090000Y-105040000D02*
G01*
X148590000Y-105040000D01*
X148543000Y-105039000D01*
X148496000Y-105035000D01*
X148449000Y-105029000D01*
X148403000Y-105020000D01*
X148357000Y-105009000D01*
X148312000Y-104996000D01*
X148267000Y-104980000D01*
X148224000Y-104962000D01*
X148181000Y-104942000D01*
X148140000Y-104919000D01*
X148100000Y-104895000D01*
X148061000Y-104868000D01*
X148024000Y-104839000D01*
X147988000Y-104809000D01*
X147954000Y-104776000D01*
X147921000Y-104742000D01*
X147891000Y-104706000D01*
X147862000Y-104669000D01*
X147835000Y-104630000D01*
X147811000Y-104590000D01*
X147788000Y-104549000D01*
X147768000Y-104506000D01*
X147750000Y-104463000D01*
X147734000Y-104418000D01*
X147721000Y-104373000D01*
X147710000Y-104327000D01*
X147701000Y-104281000D01*
X147695000Y-104234000D01*
X147691000Y-104187000D01*
X147690000Y-104140000D01*
X147691000Y-104093000D01*
X147695000Y-104046000D01*
X147701000Y-103999000D01*
X147710000Y-103953000D01*
X147721000Y-103907000D01*
X147734000Y-103862000D01*
X147750000Y-103817000D01*
X147768000Y-103774000D01*
X147788000Y-103731000D01*
X147811000Y-103690000D01*
X147835000Y-103650000D01*
X147862000Y-103611000D01*
X147891000Y-103574000D01*
X147921000Y-103538000D01*
X147954000Y-103504000D01*
X147988000Y-103471000D01*
X148024000Y-103441000D01*
X148061000Y-103412000D01*
X148100000Y-103385000D01*
X148140000Y-103361000D01*
X148181000Y-103338000D01*
X148224000Y-103318000D01*
X148267000Y-103300000D01*
X148312000Y-103284000D01*
X148357000Y-103271000D01*
X148403000Y-103260000D01*
X148449000Y-103251000D01*
X148496000Y-103245000D01*
X148543000Y-103241000D01*
X148590000Y-103240000D01*
X151090000Y-103240000D01*
X151090000Y-105040000D01*
G37*
X151090000Y-105040000D02*
X148590000Y-105040000D01*
X148543000Y-105039000D01*
X148496000Y-105035000D01*
X148449000Y-105029000D01*
X148403000Y-105020000D01*
X148357000Y-105009000D01*
X148312000Y-104996000D01*
X148267000Y-104980000D01*
X148224000Y-104962000D01*
X148181000Y-104942000D01*
X148140000Y-104919000D01*
X148100000Y-104895000D01*
X148061000Y-104868000D01*
X148024000Y-104839000D01*
X147988000Y-104809000D01*
X147954000Y-104776000D01*
X147921000Y-104742000D01*
X147891000Y-104706000D01*
X147862000Y-104669000D01*
X147835000Y-104630000D01*
X147811000Y-104590000D01*
X147788000Y-104549000D01*
X147768000Y-104506000D01*
X147750000Y-104463000D01*
X147734000Y-104418000D01*
X147721000Y-104373000D01*
X147710000Y-104327000D01*
X147701000Y-104281000D01*
X147695000Y-104234000D01*
X147691000Y-104187000D01*
X147690000Y-104140000D01*
X147691000Y-104093000D01*
X147695000Y-104046000D01*
X147701000Y-103999000D01*
X147710000Y-103953000D01*
X147721000Y-103907000D01*
X147734000Y-103862000D01*
X147750000Y-103817000D01*
X147768000Y-103774000D01*
X147788000Y-103731000D01*
X147811000Y-103690000D01*
X147835000Y-103650000D01*
X147862000Y-103611000D01*
X147891000Y-103574000D01*
X147921000Y-103538000D01*
X147954000Y-103504000D01*
X147988000Y-103471000D01*
X148024000Y-103441000D01*
X148061000Y-103412000D01*
X148100000Y-103385000D01*
X148140000Y-103361000D01*
X148181000Y-103338000D01*
X148224000Y-103318000D01*
X148267000Y-103300000D01*
X148312000Y-103284000D01*
X148357000Y-103271000D01*
X148403000Y-103260000D01*
X148449000Y-103251000D01*
X148496000Y-103245000D01*
X148543000Y-103241000D01*
X148590000Y-103240000D01*
X151090000Y-103240000D01*
X151090000Y-105040000D01*
G36*
X130857000Y-128641000D02*
G01*
X130904000Y-128645000D01*
X130951000Y-128651000D01*
X130997000Y-128660000D01*
X131043000Y-128671000D01*
X131088000Y-128684000D01*
X131133000Y-128700000D01*
X131176000Y-128718000D01*
X131219000Y-128738000D01*
X131260000Y-128761000D01*
X131300000Y-128785000D01*
X131339000Y-128812000D01*
X131376000Y-128841000D01*
X131412000Y-128871000D01*
X131446000Y-128904000D01*
X131479000Y-128938000D01*
X131509000Y-128974000D01*
X131538000Y-129011000D01*
X131565000Y-129050000D01*
X131589000Y-129090000D01*
X131612000Y-129131000D01*
X131632000Y-129174000D01*
X131650000Y-129217000D01*
X131666000Y-129262000D01*
X131679000Y-129307000D01*
X131690000Y-129353000D01*
X131699000Y-129399000D01*
X131705000Y-129446000D01*
X131709000Y-129493000D01*
X131710000Y-129540000D01*
X131709000Y-129587000D01*
X131705000Y-129634000D01*
X131699000Y-129681000D01*
X131690000Y-129727000D01*
X131679000Y-129773000D01*
X131666000Y-129818000D01*
X131650000Y-129863000D01*
X131632000Y-129906000D01*
X131612000Y-129949000D01*
X131589000Y-129990000D01*
X131565000Y-130030000D01*
X131538000Y-130069000D01*
X131509000Y-130106000D01*
X131479000Y-130142000D01*
X131446000Y-130176000D01*
X131412000Y-130209000D01*
X131376000Y-130239000D01*
X131339000Y-130268000D01*
X131300000Y-130295000D01*
X131260000Y-130319000D01*
X131219000Y-130342000D01*
X131176000Y-130362000D01*
X131133000Y-130380000D01*
X131088000Y-130396000D01*
X131043000Y-130409000D01*
X130997000Y-130420000D01*
X130951000Y-130429000D01*
X130904000Y-130435000D01*
X130857000Y-130439000D01*
X130810000Y-130440000D01*
X128310000Y-130440000D01*
X128310000Y-128640000D01*
X130810000Y-128640000D01*
X130857000Y-128641000D01*
G37*
X130857000Y-128641000D02*
X130904000Y-128645000D01*
X130951000Y-128651000D01*
X130997000Y-128660000D01*
X131043000Y-128671000D01*
X131088000Y-128684000D01*
X131133000Y-128700000D01*
X131176000Y-128718000D01*
X131219000Y-128738000D01*
X131260000Y-128761000D01*
X131300000Y-128785000D01*
X131339000Y-128812000D01*
X131376000Y-128841000D01*
X131412000Y-128871000D01*
X131446000Y-128904000D01*
X131479000Y-128938000D01*
X131509000Y-128974000D01*
X131538000Y-129011000D01*
X131565000Y-129050000D01*
X131589000Y-129090000D01*
X131612000Y-129131000D01*
X131632000Y-129174000D01*
X131650000Y-129217000D01*
X131666000Y-129262000D01*
X131679000Y-129307000D01*
X131690000Y-129353000D01*
X131699000Y-129399000D01*
X131705000Y-129446000D01*
X131709000Y-129493000D01*
X131710000Y-129540000D01*
X131709000Y-129587000D01*
X131705000Y-129634000D01*
X131699000Y-129681000D01*
X131690000Y-129727000D01*
X131679000Y-129773000D01*
X131666000Y-129818000D01*
X131650000Y-129863000D01*
X131632000Y-129906000D01*
X131612000Y-129949000D01*
X131589000Y-129990000D01*
X131565000Y-130030000D01*
X131538000Y-130069000D01*
X131509000Y-130106000D01*
X131479000Y-130142000D01*
X131446000Y-130176000D01*
X131412000Y-130209000D01*
X131376000Y-130239000D01*
X131339000Y-130268000D01*
X131300000Y-130295000D01*
X131260000Y-130319000D01*
X131219000Y-130342000D01*
X131176000Y-130362000D01*
X131133000Y-130380000D01*
X131088000Y-130396000D01*
X131043000Y-130409000D01*
X130997000Y-130420000D01*
X130951000Y-130429000D01*
X130904000Y-130435000D01*
X130857000Y-130439000D01*
X130810000Y-130440000D01*
X128310000Y-130440000D01*
X128310000Y-128640000D01*
X130810000Y-128640000D01*
X130857000Y-128641000D01*
G36*
X151090000Y-120280000D02*
G01*
X148590000Y-120280000D01*
X148543000Y-120279000D01*
X148496000Y-120275000D01*
X148449000Y-120269000D01*
X148403000Y-120260000D01*
X148357000Y-120249000D01*
X148312000Y-120236000D01*
X148267000Y-120220000D01*
X148224000Y-120202000D01*
X148181000Y-120182000D01*
X148140000Y-120159000D01*
X148100000Y-120135000D01*
X148061000Y-120108000D01*
X148024000Y-120079000D01*
X147988000Y-120049000D01*
X147954000Y-120016000D01*
X147921000Y-119982000D01*
X147891000Y-119946000D01*
X147862000Y-119909000D01*
X147835000Y-119870000D01*
X147811000Y-119830000D01*
X147788000Y-119789000D01*
X147768000Y-119746000D01*
X147750000Y-119703000D01*
X147734000Y-119658000D01*
X147721000Y-119613000D01*
X147710000Y-119567000D01*
X147701000Y-119521000D01*
X147695000Y-119474000D01*
X147691000Y-119427000D01*
X147690000Y-119380000D01*
X147691000Y-119333000D01*
X147695000Y-119286000D01*
X147701000Y-119239000D01*
X147710000Y-119193000D01*
X147721000Y-119147000D01*
X147734000Y-119102000D01*
X147750000Y-119057000D01*
X147768000Y-119014000D01*
X147788000Y-118971000D01*
X147811000Y-118930000D01*
X147835000Y-118890000D01*
X147862000Y-118851000D01*
X147891000Y-118814000D01*
X147921000Y-118778000D01*
X147954000Y-118744000D01*
X147988000Y-118711000D01*
X148024000Y-118681000D01*
X148061000Y-118652000D01*
X148100000Y-118625000D01*
X148140000Y-118601000D01*
X148181000Y-118578000D01*
X148224000Y-118558000D01*
X148267000Y-118540000D01*
X148312000Y-118524000D01*
X148357000Y-118511000D01*
X148403000Y-118500000D01*
X148449000Y-118491000D01*
X148496000Y-118485000D01*
X148543000Y-118481000D01*
X148590000Y-118480000D01*
X151090000Y-118480000D01*
X151090000Y-120280000D01*
G37*
X151090000Y-120280000D02*
X148590000Y-120280000D01*
X148543000Y-120279000D01*
X148496000Y-120275000D01*
X148449000Y-120269000D01*
X148403000Y-120260000D01*
X148357000Y-120249000D01*
X148312000Y-120236000D01*
X148267000Y-120220000D01*
X148224000Y-120202000D01*
X148181000Y-120182000D01*
X148140000Y-120159000D01*
X148100000Y-120135000D01*
X148061000Y-120108000D01*
X148024000Y-120079000D01*
X147988000Y-120049000D01*
X147954000Y-120016000D01*
X147921000Y-119982000D01*
X147891000Y-119946000D01*
X147862000Y-119909000D01*
X147835000Y-119870000D01*
X147811000Y-119830000D01*
X147788000Y-119789000D01*
X147768000Y-119746000D01*
X147750000Y-119703000D01*
X147734000Y-119658000D01*
X147721000Y-119613000D01*
X147710000Y-119567000D01*
X147701000Y-119521000D01*
X147695000Y-119474000D01*
X147691000Y-119427000D01*
X147690000Y-119380000D01*
X147691000Y-119333000D01*
X147695000Y-119286000D01*
X147701000Y-119239000D01*
X147710000Y-119193000D01*
X147721000Y-119147000D01*
X147734000Y-119102000D01*
X147750000Y-119057000D01*
X147768000Y-119014000D01*
X147788000Y-118971000D01*
X147811000Y-118930000D01*
X147835000Y-118890000D01*
X147862000Y-118851000D01*
X147891000Y-118814000D01*
X147921000Y-118778000D01*
X147954000Y-118744000D01*
X147988000Y-118711000D01*
X148024000Y-118681000D01*
X148061000Y-118652000D01*
X148100000Y-118625000D01*
X148140000Y-118601000D01*
X148181000Y-118578000D01*
X148224000Y-118558000D01*
X148267000Y-118540000D01*
X148312000Y-118524000D01*
X148357000Y-118511000D01*
X148403000Y-118500000D01*
X148449000Y-118491000D01*
X148496000Y-118485000D01*
X148543000Y-118481000D01*
X148590000Y-118480000D01*
X151090000Y-118480000D01*
X151090000Y-120280000D01*
G36*
X151090000Y-112660000D02*
G01*
X148590000Y-112660000D01*
X148543000Y-112659000D01*
X148496000Y-112655000D01*
X148449000Y-112649000D01*
X148403000Y-112640000D01*
X148357000Y-112629000D01*
X148312000Y-112616000D01*
X148267000Y-112600000D01*
X148224000Y-112582000D01*
X148181000Y-112562000D01*
X148140000Y-112539000D01*
X148100000Y-112515000D01*
X148061000Y-112488000D01*
X148024000Y-112459000D01*
X147988000Y-112429000D01*
X147954000Y-112396000D01*
X147921000Y-112362000D01*
X147891000Y-112326000D01*
X147862000Y-112289000D01*
X147835000Y-112250000D01*
X147811000Y-112210000D01*
X147788000Y-112169000D01*
X147768000Y-112126000D01*
X147750000Y-112083000D01*
X147734000Y-112038000D01*
X147721000Y-111993000D01*
X147710000Y-111947000D01*
X147701000Y-111901000D01*
X147695000Y-111854000D01*
X147691000Y-111807000D01*
X147690000Y-111760000D01*
X147691000Y-111713000D01*
X147695000Y-111666000D01*
X147701000Y-111619000D01*
X147710000Y-111573000D01*
X147721000Y-111527000D01*
X147734000Y-111482000D01*
X147750000Y-111437000D01*
X147768000Y-111394000D01*
X147788000Y-111351000D01*
X147811000Y-111310000D01*
X147835000Y-111270000D01*
X147862000Y-111231000D01*
X147891000Y-111194000D01*
X147921000Y-111158000D01*
X147954000Y-111124000D01*
X147988000Y-111091000D01*
X148024000Y-111061000D01*
X148061000Y-111032000D01*
X148100000Y-111005000D01*
X148140000Y-110981000D01*
X148181000Y-110958000D01*
X148224000Y-110938000D01*
X148267000Y-110920000D01*
X148312000Y-110904000D01*
X148357000Y-110891000D01*
X148403000Y-110880000D01*
X148449000Y-110871000D01*
X148496000Y-110865000D01*
X148543000Y-110861000D01*
X148590000Y-110860000D01*
X151090000Y-110860000D01*
X151090000Y-112660000D01*
G37*
X151090000Y-112660000D02*
X148590000Y-112660000D01*
X148543000Y-112659000D01*
X148496000Y-112655000D01*
X148449000Y-112649000D01*
X148403000Y-112640000D01*
X148357000Y-112629000D01*
X148312000Y-112616000D01*
X148267000Y-112600000D01*
X148224000Y-112582000D01*
X148181000Y-112562000D01*
X148140000Y-112539000D01*
X148100000Y-112515000D01*
X148061000Y-112488000D01*
X148024000Y-112459000D01*
X147988000Y-112429000D01*
X147954000Y-112396000D01*
X147921000Y-112362000D01*
X147891000Y-112326000D01*
X147862000Y-112289000D01*
X147835000Y-112250000D01*
X147811000Y-112210000D01*
X147788000Y-112169000D01*
X147768000Y-112126000D01*
X147750000Y-112083000D01*
X147734000Y-112038000D01*
X147721000Y-111993000D01*
X147710000Y-111947000D01*
X147701000Y-111901000D01*
X147695000Y-111854000D01*
X147691000Y-111807000D01*
X147690000Y-111760000D01*
X147691000Y-111713000D01*
X147695000Y-111666000D01*
X147701000Y-111619000D01*
X147710000Y-111573000D01*
X147721000Y-111527000D01*
X147734000Y-111482000D01*
X147750000Y-111437000D01*
X147768000Y-111394000D01*
X147788000Y-111351000D01*
X147811000Y-111310000D01*
X147835000Y-111270000D01*
X147862000Y-111231000D01*
X147891000Y-111194000D01*
X147921000Y-111158000D01*
X147954000Y-111124000D01*
X147988000Y-111091000D01*
X148024000Y-111061000D01*
X148061000Y-111032000D01*
X148100000Y-111005000D01*
X148140000Y-110981000D01*
X148181000Y-110958000D01*
X148224000Y-110938000D01*
X148267000Y-110920000D01*
X148312000Y-110904000D01*
X148357000Y-110891000D01*
X148403000Y-110880000D01*
X148449000Y-110871000D01*
X148496000Y-110865000D01*
X148543000Y-110861000D01*
X148590000Y-110860000D01*
X151090000Y-110860000D01*
X151090000Y-112660000D01*
G36*
X130857000Y-103241000D02*
G01*
X130904000Y-103245000D01*
X130951000Y-103251000D01*
X130997000Y-103260000D01*
X131043000Y-103271000D01*
X131088000Y-103284000D01*
X131133000Y-103300000D01*
X131176000Y-103318000D01*
X131219000Y-103338000D01*
X131260000Y-103361000D01*
X131300000Y-103385000D01*
X131339000Y-103412000D01*
X131376000Y-103441000D01*
X131412000Y-103471000D01*
X131446000Y-103504000D01*
X131479000Y-103538000D01*
X131509000Y-103574000D01*
X131538000Y-103611000D01*
X131565000Y-103650000D01*
X131589000Y-103690000D01*
X131612000Y-103731000D01*
X131632000Y-103774000D01*
X131650000Y-103817000D01*
X131666000Y-103862000D01*
X131679000Y-103907000D01*
X131690000Y-103953000D01*
X131699000Y-103999000D01*
X131705000Y-104046000D01*
X131709000Y-104093000D01*
X131710000Y-104140000D01*
X131709000Y-104187000D01*
X131705000Y-104234000D01*
X131699000Y-104281000D01*
X131690000Y-104327000D01*
X131679000Y-104373000D01*
X131666000Y-104418000D01*
X131650000Y-104463000D01*
X131632000Y-104506000D01*
X131612000Y-104549000D01*
X131589000Y-104590000D01*
X131565000Y-104630000D01*
X131538000Y-104669000D01*
X131509000Y-104706000D01*
X131479000Y-104742000D01*
X131446000Y-104776000D01*
X131412000Y-104809000D01*
X131376000Y-104839000D01*
X131339000Y-104868000D01*
X131300000Y-104895000D01*
X131260000Y-104919000D01*
X131219000Y-104942000D01*
X131176000Y-104962000D01*
X131133000Y-104980000D01*
X131088000Y-104996000D01*
X131043000Y-105009000D01*
X130997000Y-105020000D01*
X130951000Y-105029000D01*
X130904000Y-105035000D01*
X130857000Y-105039000D01*
X130810000Y-105040000D01*
X128310000Y-105040000D01*
X128310000Y-103240000D01*
X130810000Y-103240000D01*
X130857000Y-103241000D01*
G37*
X130857000Y-103241000D02*
X130904000Y-103245000D01*
X130951000Y-103251000D01*
X130997000Y-103260000D01*
X131043000Y-103271000D01*
X131088000Y-103284000D01*
X131133000Y-103300000D01*
X131176000Y-103318000D01*
X131219000Y-103338000D01*
X131260000Y-103361000D01*
X131300000Y-103385000D01*
X131339000Y-103412000D01*
X131376000Y-103441000D01*
X131412000Y-103471000D01*
X131446000Y-103504000D01*
X131479000Y-103538000D01*
X131509000Y-103574000D01*
X131538000Y-103611000D01*
X131565000Y-103650000D01*
X131589000Y-103690000D01*
X131612000Y-103731000D01*
X131632000Y-103774000D01*
X131650000Y-103817000D01*
X131666000Y-103862000D01*
X131679000Y-103907000D01*
X131690000Y-103953000D01*
X131699000Y-103999000D01*
X131705000Y-104046000D01*
X131709000Y-104093000D01*
X131710000Y-104140000D01*
X131709000Y-104187000D01*
X131705000Y-104234000D01*
X131699000Y-104281000D01*
X131690000Y-104327000D01*
X131679000Y-104373000D01*
X131666000Y-104418000D01*
X131650000Y-104463000D01*
X131632000Y-104506000D01*
X131612000Y-104549000D01*
X131589000Y-104590000D01*
X131565000Y-104630000D01*
X131538000Y-104669000D01*
X131509000Y-104706000D01*
X131479000Y-104742000D01*
X131446000Y-104776000D01*
X131412000Y-104809000D01*
X131376000Y-104839000D01*
X131339000Y-104868000D01*
X131300000Y-104895000D01*
X131260000Y-104919000D01*
X131219000Y-104942000D01*
X131176000Y-104962000D01*
X131133000Y-104980000D01*
X131088000Y-104996000D01*
X131043000Y-105009000D01*
X130997000Y-105020000D01*
X130951000Y-105029000D01*
X130904000Y-105035000D01*
X130857000Y-105039000D01*
X130810000Y-105040000D01*
X128310000Y-105040000D01*
X128310000Y-103240000D01*
X130810000Y-103240000D01*
X130857000Y-103241000D01*
G36*
X130857000Y-133721000D02*
G01*
X130904000Y-133725000D01*
X130951000Y-133731000D01*
X130997000Y-133740000D01*
X131043000Y-133751000D01*
X131088000Y-133764000D01*
X131133000Y-133780000D01*
X131176000Y-133798000D01*
X131219000Y-133818000D01*
X131260000Y-133841000D01*
X131300000Y-133865000D01*
X131339000Y-133892000D01*
X131376000Y-133921000D01*
X131412000Y-133951000D01*
X131446000Y-133984000D01*
X131479000Y-134018000D01*
X131509000Y-134054000D01*
X131538000Y-134091000D01*
X131565000Y-134130000D01*
X131589000Y-134170000D01*
X131612000Y-134211000D01*
X131632000Y-134254000D01*
X131650000Y-134297000D01*
X131666000Y-134342000D01*
X131679000Y-134387000D01*
X131690000Y-134433000D01*
X131699000Y-134479000D01*
X131705000Y-134526000D01*
X131709000Y-134573000D01*
X131710000Y-134620000D01*
X131709000Y-134667000D01*
X131705000Y-134714000D01*
X131699000Y-134761000D01*
X131690000Y-134807000D01*
X131679000Y-134853000D01*
X131666000Y-134898000D01*
X131650000Y-134943000D01*
X131632000Y-134986000D01*
X131612000Y-135029000D01*
X131589000Y-135070000D01*
X131565000Y-135110000D01*
X131538000Y-135149000D01*
X131509000Y-135186000D01*
X131479000Y-135222000D01*
X131446000Y-135256000D01*
X131412000Y-135289000D01*
X131376000Y-135319000D01*
X131339000Y-135348000D01*
X131300000Y-135375000D01*
X131260000Y-135399000D01*
X131219000Y-135422000D01*
X131176000Y-135442000D01*
X131133000Y-135460000D01*
X131088000Y-135476000D01*
X131043000Y-135489000D01*
X130997000Y-135500000D01*
X130951000Y-135509000D01*
X130904000Y-135515000D01*
X130857000Y-135519000D01*
X130810000Y-135520000D01*
X128310000Y-135520000D01*
X128310000Y-133720000D01*
X130810000Y-133720000D01*
X130857000Y-133721000D01*
G37*
X130857000Y-133721000D02*
X130904000Y-133725000D01*
X130951000Y-133731000D01*
X130997000Y-133740000D01*
X131043000Y-133751000D01*
X131088000Y-133764000D01*
X131133000Y-133780000D01*
X131176000Y-133798000D01*
X131219000Y-133818000D01*
X131260000Y-133841000D01*
X131300000Y-133865000D01*
X131339000Y-133892000D01*
X131376000Y-133921000D01*
X131412000Y-133951000D01*
X131446000Y-133984000D01*
X131479000Y-134018000D01*
X131509000Y-134054000D01*
X131538000Y-134091000D01*
X131565000Y-134130000D01*
X131589000Y-134170000D01*
X131612000Y-134211000D01*
X131632000Y-134254000D01*
X131650000Y-134297000D01*
X131666000Y-134342000D01*
X131679000Y-134387000D01*
X131690000Y-134433000D01*
X131699000Y-134479000D01*
X131705000Y-134526000D01*
X131709000Y-134573000D01*
X131710000Y-134620000D01*
X131709000Y-134667000D01*
X131705000Y-134714000D01*
X131699000Y-134761000D01*
X131690000Y-134807000D01*
X131679000Y-134853000D01*
X131666000Y-134898000D01*
X131650000Y-134943000D01*
X131632000Y-134986000D01*
X131612000Y-135029000D01*
X131589000Y-135070000D01*
X131565000Y-135110000D01*
X131538000Y-135149000D01*
X131509000Y-135186000D01*
X131479000Y-135222000D01*
X131446000Y-135256000D01*
X131412000Y-135289000D01*
X131376000Y-135319000D01*
X131339000Y-135348000D01*
X131300000Y-135375000D01*
X131260000Y-135399000D01*
X131219000Y-135422000D01*
X131176000Y-135442000D01*
X131133000Y-135460000D01*
X131088000Y-135476000D01*
X131043000Y-135489000D01*
X130997000Y-135500000D01*
X130951000Y-135509000D01*
X130904000Y-135515000D01*
X130857000Y-135519000D01*
X130810000Y-135520000D01*
X128310000Y-135520000D01*
X128310000Y-133720000D01*
X130810000Y-133720000D01*
X130857000Y-133721000D01*
G36*
X151090000Y-115200000D02*
G01*
X147974000Y-115200000D01*
X147959000Y-115198000D01*
X147943000Y-115196000D01*
X147928000Y-115193000D01*
X147912000Y-115190000D01*
X147882000Y-115180000D01*
X147868000Y-115174000D01*
X147840000Y-115160000D01*
X147827000Y-115152000D01*
X147814000Y-115143000D01*
X147801000Y-115133000D01*
X147789000Y-115123000D01*
X147767000Y-115101000D01*
X147757000Y-115089000D01*
X147747000Y-115076000D01*
X147738000Y-115063000D01*
X147730000Y-115050000D01*
X147716000Y-115022000D01*
X147710000Y-115008000D01*
X147700000Y-114978000D01*
X147697000Y-114962000D01*
X147694000Y-114947000D01*
X147692000Y-114931000D01*
X147690000Y-114916000D01*
X147690000Y-113684000D01*
X147692000Y-113669000D01*
X147694000Y-113653000D01*
X147697000Y-113638000D01*
X147700000Y-113622000D01*
X147710000Y-113592000D01*
X147716000Y-113578000D01*
X147730000Y-113550000D01*
X147738000Y-113537000D01*
X147747000Y-113524000D01*
X147757000Y-113511000D01*
X147767000Y-113499000D01*
X147789000Y-113477000D01*
X147801000Y-113467000D01*
X147814000Y-113457000D01*
X147827000Y-113448000D01*
X147840000Y-113440000D01*
X147868000Y-113426000D01*
X147882000Y-113420000D01*
X147912000Y-113410000D01*
X147928000Y-113407000D01*
X147943000Y-113404000D01*
X147959000Y-113402000D01*
X147974000Y-113400000D01*
X151090000Y-113400000D01*
X151090000Y-115200000D01*
G37*
X151090000Y-115200000D02*
X147974000Y-115200000D01*
X147959000Y-115198000D01*
X147943000Y-115196000D01*
X147928000Y-115193000D01*
X147912000Y-115190000D01*
X147882000Y-115180000D01*
X147868000Y-115174000D01*
X147840000Y-115160000D01*
X147827000Y-115152000D01*
X147814000Y-115143000D01*
X147801000Y-115133000D01*
X147789000Y-115123000D01*
X147767000Y-115101000D01*
X147757000Y-115089000D01*
X147747000Y-115076000D01*
X147738000Y-115063000D01*
X147730000Y-115050000D01*
X147716000Y-115022000D01*
X147710000Y-115008000D01*
X147700000Y-114978000D01*
X147697000Y-114962000D01*
X147694000Y-114947000D01*
X147692000Y-114931000D01*
X147690000Y-114916000D01*
X147690000Y-113684000D01*
X147692000Y-113669000D01*
X147694000Y-113653000D01*
X147697000Y-113638000D01*
X147700000Y-113622000D01*
X147710000Y-113592000D01*
X147716000Y-113578000D01*
X147730000Y-113550000D01*
X147738000Y-113537000D01*
X147747000Y-113524000D01*
X147757000Y-113511000D01*
X147767000Y-113499000D01*
X147789000Y-113477000D01*
X147801000Y-113467000D01*
X147814000Y-113457000D01*
X147827000Y-113448000D01*
X147840000Y-113440000D01*
X147868000Y-113426000D01*
X147882000Y-113420000D01*
X147912000Y-113410000D01*
X147928000Y-113407000D01*
X147943000Y-113404000D01*
X147959000Y-113402000D01*
X147974000Y-113400000D01*
X151090000Y-113400000D01*
X151090000Y-115200000D01*
G36*
X151090000Y-127900000D02*
G01*
X147974000Y-127900000D01*
X147959000Y-127898000D01*
X147943000Y-127896000D01*
X147928000Y-127893000D01*
X147912000Y-127890000D01*
X147882000Y-127880000D01*
X147868000Y-127874000D01*
X147840000Y-127860000D01*
X147827000Y-127852000D01*
X147814000Y-127843000D01*
X147801000Y-127833000D01*
X147789000Y-127823000D01*
X147767000Y-127801000D01*
X147757000Y-127789000D01*
X147747000Y-127776000D01*
X147738000Y-127763000D01*
X147730000Y-127750000D01*
X147716000Y-127722000D01*
X147710000Y-127708000D01*
X147700000Y-127678000D01*
X147697000Y-127662000D01*
X147694000Y-127647000D01*
X147692000Y-127631000D01*
X147690000Y-127616000D01*
X147690000Y-126384000D01*
X147692000Y-126369000D01*
X147694000Y-126353000D01*
X147697000Y-126338000D01*
X147700000Y-126322000D01*
X147710000Y-126292000D01*
X147716000Y-126278000D01*
X147730000Y-126250000D01*
X147738000Y-126237000D01*
X147747000Y-126224000D01*
X147757000Y-126211000D01*
X147767000Y-126199000D01*
X147789000Y-126177000D01*
X147801000Y-126167000D01*
X147814000Y-126157000D01*
X147827000Y-126148000D01*
X147840000Y-126140000D01*
X147868000Y-126126000D01*
X147882000Y-126120000D01*
X147912000Y-126110000D01*
X147928000Y-126107000D01*
X147943000Y-126104000D01*
X147959000Y-126102000D01*
X147974000Y-126100000D01*
X151090000Y-126100000D01*
X151090000Y-127900000D01*
G37*
X151090000Y-127900000D02*
X147974000Y-127900000D01*
X147959000Y-127898000D01*
X147943000Y-127896000D01*
X147928000Y-127893000D01*
X147912000Y-127890000D01*
X147882000Y-127880000D01*
X147868000Y-127874000D01*
X147840000Y-127860000D01*
X147827000Y-127852000D01*
X147814000Y-127843000D01*
X147801000Y-127833000D01*
X147789000Y-127823000D01*
X147767000Y-127801000D01*
X147757000Y-127789000D01*
X147747000Y-127776000D01*
X147738000Y-127763000D01*
X147730000Y-127750000D01*
X147716000Y-127722000D01*
X147710000Y-127708000D01*
X147700000Y-127678000D01*
X147697000Y-127662000D01*
X147694000Y-127647000D01*
X147692000Y-127631000D01*
X147690000Y-127616000D01*
X147690000Y-126384000D01*
X147692000Y-126369000D01*
X147694000Y-126353000D01*
X147697000Y-126338000D01*
X147700000Y-126322000D01*
X147710000Y-126292000D01*
X147716000Y-126278000D01*
X147730000Y-126250000D01*
X147738000Y-126237000D01*
X147747000Y-126224000D01*
X147757000Y-126211000D01*
X147767000Y-126199000D01*
X147789000Y-126177000D01*
X147801000Y-126167000D01*
X147814000Y-126157000D01*
X147827000Y-126148000D01*
X147840000Y-126140000D01*
X147868000Y-126126000D01*
X147882000Y-126120000D01*
X147912000Y-126110000D01*
X147928000Y-126107000D01*
X147943000Y-126104000D01*
X147959000Y-126102000D01*
X147974000Y-126100000D01*
X151090000Y-126100000D01*
X151090000Y-127900000D01*
G36*
X130857000Y-143881000D02*
G01*
X130904000Y-143885000D01*
X130951000Y-143891000D01*
X130997000Y-143900000D01*
X131043000Y-143911000D01*
X131088000Y-143924000D01*
X131133000Y-143940000D01*
X131176000Y-143958000D01*
X131219000Y-143978000D01*
X131260000Y-144001000D01*
X131300000Y-144025000D01*
X131339000Y-144052000D01*
X131376000Y-144081000D01*
X131412000Y-144111000D01*
X131446000Y-144144000D01*
X131479000Y-144178000D01*
X131509000Y-144214000D01*
X131538000Y-144251000D01*
X131565000Y-144290000D01*
X131589000Y-144330000D01*
X131612000Y-144371000D01*
X131632000Y-144414000D01*
X131650000Y-144457000D01*
X131666000Y-144502000D01*
X131679000Y-144547000D01*
X131690000Y-144593000D01*
X131699000Y-144639000D01*
X131705000Y-144686000D01*
X131709000Y-144733000D01*
X131710000Y-144780000D01*
X131709000Y-144827000D01*
X131705000Y-144874000D01*
X131699000Y-144921000D01*
X131690000Y-144967000D01*
X131679000Y-145013000D01*
X131666000Y-145058000D01*
X131650000Y-145103000D01*
X131632000Y-145146000D01*
X131612000Y-145189000D01*
X131589000Y-145230000D01*
X131565000Y-145270000D01*
X131538000Y-145309000D01*
X131509000Y-145346000D01*
X131479000Y-145382000D01*
X131446000Y-145416000D01*
X131412000Y-145449000D01*
X131376000Y-145479000D01*
X131339000Y-145508000D01*
X131300000Y-145535000D01*
X131260000Y-145559000D01*
X131219000Y-145582000D01*
X131176000Y-145602000D01*
X131133000Y-145620000D01*
X131088000Y-145636000D01*
X131043000Y-145649000D01*
X130997000Y-145660000D01*
X130951000Y-145669000D01*
X130904000Y-145675000D01*
X130857000Y-145679000D01*
X130810000Y-145680000D01*
X128310000Y-145680000D01*
X128310000Y-143880000D01*
X130810000Y-143880000D01*
X130857000Y-143881000D01*
G37*
X130857000Y-143881000D02*
X130904000Y-143885000D01*
X130951000Y-143891000D01*
X130997000Y-143900000D01*
X131043000Y-143911000D01*
X131088000Y-143924000D01*
X131133000Y-143940000D01*
X131176000Y-143958000D01*
X131219000Y-143978000D01*
X131260000Y-144001000D01*
X131300000Y-144025000D01*
X131339000Y-144052000D01*
X131376000Y-144081000D01*
X131412000Y-144111000D01*
X131446000Y-144144000D01*
X131479000Y-144178000D01*
X131509000Y-144214000D01*
X131538000Y-144251000D01*
X131565000Y-144290000D01*
X131589000Y-144330000D01*
X131612000Y-144371000D01*
X131632000Y-144414000D01*
X131650000Y-144457000D01*
X131666000Y-144502000D01*
X131679000Y-144547000D01*
X131690000Y-144593000D01*
X131699000Y-144639000D01*
X131705000Y-144686000D01*
X131709000Y-144733000D01*
X131710000Y-144780000D01*
X131709000Y-144827000D01*
X131705000Y-144874000D01*
X131699000Y-144921000D01*
X131690000Y-144967000D01*
X131679000Y-145013000D01*
X131666000Y-145058000D01*
X131650000Y-145103000D01*
X131632000Y-145146000D01*
X131612000Y-145189000D01*
X131589000Y-145230000D01*
X131565000Y-145270000D01*
X131538000Y-145309000D01*
X131509000Y-145346000D01*
X131479000Y-145382000D01*
X131446000Y-145416000D01*
X131412000Y-145449000D01*
X131376000Y-145479000D01*
X131339000Y-145508000D01*
X131300000Y-145535000D01*
X131260000Y-145559000D01*
X131219000Y-145582000D01*
X131176000Y-145602000D01*
X131133000Y-145620000D01*
X131088000Y-145636000D01*
X131043000Y-145649000D01*
X130997000Y-145660000D01*
X130951000Y-145669000D01*
X130904000Y-145675000D01*
X130857000Y-145679000D01*
X130810000Y-145680000D01*
X128310000Y-145680000D01*
X128310000Y-143880000D01*
X130810000Y-143880000D01*
X130857000Y-143881000D01*
G36*
X130857000Y-110861000D02*
G01*
X130904000Y-110865000D01*
X130951000Y-110871000D01*
X130997000Y-110880000D01*
X131043000Y-110891000D01*
X131088000Y-110904000D01*
X131133000Y-110920000D01*
X131176000Y-110938000D01*
X131219000Y-110958000D01*
X131260000Y-110981000D01*
X131300000Y-111005000D01*
X131339000Y-111032000D01*
X131376000Y-111061000D01*
X131412000Y-111091000D01*
X131446000Y-111124000D01*
X131479000Y-111158000D01*
X131509000Y-111194000D01*
X131538000Y-111231000D01*
X131565000Y-111270000D01*
X131589000Y-111310000D01*
X131612000Y-111351000D01*
X131632000Y-111394000D01*
X131650000Y-111437000D01*
X131666000Y-111482000D01*
X131679000Y-111527000D01*
X131690000Y-111573000D01*
X131699000Y-111619000D01*
X131705000Y-111666000D01*
X131709000Y-111713000D01*
X131710000Y-111760000D01*
X131709000Y-111807000D01*
X131705000Y-111854000D01*
X131699000Y-111901000D01*
X131690000Y-111947000D01*
X131679000Y-111993000D01*
X131666000Y-112038000D01*
X131650000Y-112083000D01*
X131632000Y-112126000D01*
X131612000Y-112169000D01*
X131589000Y-112210000D01*
X131565000Y-112250000D01*
X131538000Y-112289000D01*
X131509000Y-112326000D01*
X131479000Y-112362000D01*
X131446000Y-112396000D01*
X131412000Y-112429000D01*
X131376000Y-112459000D01*
X131339000Y-112488000D01*
X131300000Y-112515000D01*
X131260000Y-112539000D01*
X131219000Y-112562000D01*
X131176000Y-112582000D01*
X131133000Y-112600000D01*
X131088000Y-112616000D01*
X131043000Y-112629000D01*
X130997000Y-112640000D01*
X130951000Y-112649000D01*
X130904000Y-112655000D01*
X130857000Y-112659000D01*
X130810000Y-112660000D01*
X128310000Y-112660000D01*
X128310000Y-110860000D01*
X130810000Y-110860000D01*
X130857000Y-110861000D01*
G37*
X130857000Y-110861000D02*
X130904000Y-110865000D01*
X130951000Y-110871000D01*
X130997000Y-110880000D01*
X131043000Y-110891000D01*
X131088000Y-110904000D01*
X131133000Y-110920000D01*
X131176000Y-110938000D01*
X131219000Y-110958000D01*
X131260000Y-110981000D01*
X131300000Y-111005000D01*
X131339000Y-111032000D01*
X131376000Y-111061000D01*
X131412000Y-111091000D01*
X131446000Y-111124000D01*
X131479000Y-111158000D01*
X131509000Y-111194000D01*
X131538000Y-111231000D01*
X131565000Y-111270000D01*
X131589000Y-111310000D01*
X131612000Y-111351000D01*
X131632000Y-111394000D01*
X131650000Y-111437000D01*
X131666000Y-111482000D01*
X131679000Y-111527000D01*
X131690000Y-111573000D01*
X131699000Y-111619000D01*
X131705000Y-111666000D01*
X131709000Y-111713000D01*
X131710000Y-111760000D01*
X131709000Y-111807000D01*
X131705000Y-111854000D01*
X131699000Y-111901000D01*
X131690000Y-111947000D01*
X131679000Y-111993000D01*
X131666000Y-112038000D01*
X131650000Y-112083000D01*
X131632000Y-112126000D01*
X131612000Y-112169000D01*
X131589000Y-112210000D01*
X131565000Y-112250000D01*
X131538000Y-112289000D01*
X131509000Y-112326000D01*
X131479000Y-112362000D01*
X131446000Y-112396000D01*
X131412000Y-112429000D01*
X131376000Y-112459000D01*
X131339000Y-112488000D01*
X131300000Y-112515000D01*
X131260000Y-112539000D01*
X131219000Y-112562000D01*
X131176000Y-112582000D01*
X131133000Y-112600000D01*
X131088000Y-112616000D01*
X131043000Y-112629000D01*
X130997000Y-112640000D01*
X130951000Y-112649000D01*
X130904000Y-112655000D01*
X130857000Y-112659000D01*
X130810000Y-112660000D01*
X128310000Y-112660000D01*
X128310000Y-110860000D01*
X130810000Y-110860000D01*
X130857000Y-110861000D01*
G36*
X130857000Y-95621000D02*
G01*
X130904000Y-95625000D01*
X130951000Y-95631000D01*
X130997000Y-95640000D01*
X131043000Y-95651000D01*
X131088000Y-95664000D01*
X131133000Y-95680000D01*
X131176000Y-95698000D01*
X131219000Y-95718000D01*
X131260000Y-95741000D01*
X131300000Y-95765000D01*
X131339000Y-95792000D01*
X131376000Y-95821000D01*
X131412000Y-95851000D01*
X131446000Y-95884000D01*
X131479000Y-95918000D01*
X131509000Y-95954000D01*
X131538000Y-95991000D01*
X131565000Y-96030000D01*
X131589000Y-96070000D01*
X131612000Y-96111000D01*
X131632000Y-96154000D01*
X131650000Y-96197000D01*
X131666000Y-96242000D01*
X131679000Y-96287000D01*
X131690000Y-96333000D01*
X131699000Y-96379000D01*
X131705000Y-96426000D01*
X131709000Y-96473000D01*
X131710000Y-96520000D01*
X131709000Y-96567000D01*
X131705000Y-96614000D01*
X131699000Y-96661000D01*
X131690000Y-96707000D01*
X131679000Y-96753000D01*
X131666000Y-96798000D01*
X131650000Y-96843000D01*
X131632000Y-96886000D01*
X131612000Y-96929000D01*
X131589000Y-96970000D01*
X131565000Y-97010000D01*
X131538000Y-97049000D01*
X131509000Y-97086000D01*
X131479000Y-97122000D01*
X131446000Y-97156000D01*
X131412000Y-97189000D01*
X131376000Y-97219000D01*
X131339000Y-97248000D01*
X131300000Y-97275000D01*
X131260000Y-97299000D01*
X131219000Y-97322000D01*
X131176000Y-97342000D01*
X131133000Y-97360000D01*
X131088000Y-97376000D01*
X131043000Y-97389000D01*
X130997000Y-97400000D01*
X130951000Y-97409000D01*
X130904000Y-97415000D01*
X130857000Y-97419000D01*
X130810000Y-97420000D01*
X128310000Y-97420000D01*
X128310000Y-95620000D01*
X130810000Y-95620000D01*
X130857000Y-95621000D01*
G37*
X130857000Y-95621000D02*
X130904000Y-95625000D01*
X130951000Y-95631000D01*
X130997000Y-95640000D01*
X131043000Y-95651000D01*
X131088000Y-95664000D01*
X131133000Y-95680000D01*
X131176000Y-95698000D01*
X131219000Y-95718000D01*
X131260000Y-95741000D01*
X131300000Y-95765000D01*
X131339000Y-95792000D01*
X131376000Y-95821000D01*
X131412000Y-95851000D01*
X131446000Y-95884000D01*
X131479000Y-95918000D01*
X131509000Y-95954000D01*
X131538000Y-95991000D01*
X131565000Y-96030000D01*
X131589000Y-96070000D01*
X131612000Y-96111000D01*
X131632000Y-96154000D01*
X131650000Y-96197000D01*
X131666000Y-96242000D01*
X131679000Y-96287000D01*
X131690000Y-96333000D01*
X131699000Y-96379000D01*
X131705000Y-96426000D01*
X131709000Y-96473000D01*
X131710000Y-96520000D01*
X131709000Y-96567000D01*
X131705000Y-96614000D01*
X131699000Y-96661000D01*
X131690000Y-96707000D01*
X131679000Y-96753000D01*
X131666000Y-96798000D01*
X131650000Y-96843000D01*
X131632000Y-96886000D01*
X131612000Y-96929000D01*
X131589000Y-96970000D01*
X131565000Y-97010000D01*
X131538000Y-97049000D01*
X131509000Y-97086000D01*
X131479000Y-97122000D01*
X131446000Y-97156000D01*
X131412000Y-97189000D01*
X131376000Y-97219000D01*
X131339000Y-97248000D01*
X131300000Y-97275000D01*
X131260000Y-97299000D01*
X131219000Y-97322000D01*
X131176000Y-97342000D01*
X131133000Y-97360000D01*
X131088000Y-97376000D01*
X131043000Y-97389000D01*
X130997000Y-97400000D01*
X130951000Y-97409000D01*
X130904000Y-97415000D01*
X130857000Y-97419000D01*
X130810000Y-97420000D01*
X128310000Y-97420000D01*
X128310000Y-95620000D01*
X130810000Y-95620000D01*
X130857000Y-95621000D01*
G36*
X151090000Y-97420000D02*
G01*
X148590000Y-97420000D01*
X148543000Y-97419000D01*
X148496000Y-97415000D01*
X148449000Y-97409000D01*
X148403000Y-97400000D01*
X148357000Y-97389000D01*
X148312000Y-97376000D01*
X148267000Y-97360000D01*
X148224000Y-97342000D01*
X148181000Y-97322000D01*
X148140000Y-97299000D01*
X148100000Y-97275000D01*
X148061000Y-97248000D01*
X148024000Y-97219000D01*
X147988000Y-97189000D01*
X147954000Y-97156000D01*
X147921000Y-97122000D01*
X147891000Y-97086000D01*
X147862000Y-97049000D01*
X147835000Y-97010000D01*
X147811000Y-96970000D01*
X147788000Y-96929000D01*
X147768000Y-96886000D01*
X147750000Y-96843000D01*
X147734000Y-96798000D01*
X147721000Y-96753000D01*
X147710000Y-96707000D01*
X147701000Y-96661000D01*
X147695000Y-96614000D01*
X147691000Y-96567000D01*
X147690000Y-96520000D01*
X147691000Y-96473000D01*
X147695000Y-96426000D01*
X147701000Y-96379000D01*
X147710000Y-96333000D01*
X147721000Y-96287000D01*
X147734000Y-96242000D01*
X147750000Y-96197000D01*
X147768000Y-96154000D01*
X147788000Y-96111000D01*
X147811000Y-96070000D01*
X147835000Y-96030000D01*
X147862000Y-95991000D01*
X147891000Y-95954000D01*
X147921000Y-95918000D01*
X147954000Y-95884000D01*
X147988000Y-95851000D01*
X148024000Y-95821000D01*
X148061000Y-95792000D01*
X148100000Y-95765000D01*
X148140000Y-95741000D01*
X148181000Y-95718000D01*
X148224000Y-95698000D01*
X148267000Y-95680000D01*
X148312000Y-95664000D01*
X148357000Y-95651000D01*
X148403000Y-95640000D01*
X148449000Y-95631000D01*
X148496000Y-95625000D01*
X148543000Y-95621000D01*
X148590000Y-95620000D01*
X151090000Y-95620000D01*
X151090000Y-97420000D01*
G37*
X151090000Y-97420000D02*
X148590000Y-97420000D01*
X148543000Y-97419000D01*
X148496000Y-97415000D01*
X148449000Y-97409000D01*
X148403000Y-97400000D01*
X148357000Y-97389000D01*
X148312000Y-97376000D01*
X148267000Y-97360000D01*
X148224000Y-97342000D01*
X148181000Y-97322000D01*
X148140000Y-97299000D01*
X148100000Y-97275000D01*
X148061000Y-97248000D01*
X148024000Y-97219000D01*
X147988000Y-97189000D01*
X147954000Y-97156000D01*
X147921000Y-97122000D01*
X147891000Y-97086000D01*
X147862000Y-97049000D01*
X147835000Y-97010000D01*
X147811000Y-96970000D01*
X147788000Y-96929000D01*
X147768000Y-96886000D01*
X147750000Y-96843000D01*
X147734000Y-96798000D01*
X147721000Y-96753000D01*
X147710000Y-96707000D01*
X147701000Y-96661000D01*
X147695000Y-96614000D01*
X147691000Y-96567000D01*
X147690000Y-96520000D01*
X147691000Y-96473000D01*
X147695000Y-96426000D01*
X147701000Y-96379000D01*
X147710000Y-96333000D01*
X147721000Y-96287000D01*
X147734000Y-96242000D01*
X147750000Y-96197000D01*
X147768000Y-96154000D01*
X147788000Y-96111000D01*
X147811000Y-96070000D01*
X147835000Y-96030000D01*
X147862000Y-95991000D01*
X147891000Y-95954000D01*
X147921000Y-95918000D01*
X147954000Y-95884000D01*
X147988000Y-95851000D01*
X148024000Y-95821000D01*
X148061000Y-95792000D01*
X148100000Y-95765000D01*
X148140000Y-95741000D01*
X148181000Y-95718000D01*
X148224000Y-95698000D01*
X148267000Y-95680000D01*
X148312000Y-95664000D01*
X148357000Y-95651000D01*
X148403000Y-95640000D01*
X148449000Y-95631000D01*
X148496000Y-95625000D01*
X148543000Y-95621000D01*
X148590000Y-95620000D01*
X151090000Y-95620000D01*
X151090000Y-97420000D01*
G36*
X130857000Y-121021000D02*
G01*
X130904000Y-121025000D01*
X130951000Y-121031000D01*
X130997000Y-121040000D01*
X131043000Y-121051000D01*
X131088000Y-121064000D01*
X131133000Y-121080000D01*
X131176000Y-121098000D01*
X131219000Y-121118000D01*
X131260000Y-121141000D01*
X131300000Y-121165000D01*
X131339000Y-121192000D01*
X131376000Y-121221000D01*
X131412000Y-121251000D01*
X131446000Y-121284000D01*
X131479000Y-121318000D01*
X131509000Y-121354000D01*
X131538000Y-121391000D01*
X131565000Y-121430000D01*
X131589000Y-121470000D01*
X131612000Y-121511000D01*
X131632000Y-121554000D01*
X131650000Y-121597000D01*
X131666000Y-121642000D01*
X131679000Y-121687000D01*
X131690000Y-121733000D01*
X131699000Y-121779000D01*
X131705000Y-121826000D01*
X131709000Y-121873000D01*
X131710000Y-121920000D01*
X131709000Y-121967000D01*
X131705000Y-122014000D01*
X131699000Y-122061000D01*
X131690000Y-122107000D01*
X131679000Y-122153000D01*
X131666000Y-122198000D01*
X131650000Y-122243000D01*
X131632000Y-122286000D01*
X131612000Y-122329000D01*
X131589000Y-122370000D01*
X131565000Y-122410000D01*
X131538000Y-122449000D01*
X131509000Y-122486000D01*
X131479000Y-122522000D01*
X131446000Y-122556000D01*
X131412000Y-122589000D01*
X131376000Y-122619000D01*
X131339000Y-122648000D01*
X131300000Y-122675000D01*
X131260000Y-122699000D01*
X131219000Y-122722000D01*
X131176000Y-122742000D01*
X131133000Y-122760000D01*
X131088000Y-122776000D01*
X131043000Y-122789000D01*
X130997000Y-122800000D01*
X130951000Y-122809000D01*
X130904000Y-122815000D01*
X130857000Y-122819000D01*
X130810000Y-122820000D01*
X128310000Y-122820000D01*
X128310000Y-121020000D01*
X130810000Y-121020000D01*
X130857000Y-121021000D01*
G37*
X130857000Y-121021000D02*
X130904000Y-121025000D01*
X130951000Y-121031000D01*
X130997000Y-121040000D01*
X131043000Y-121051000D01*
X131088000Y-121064000D01*
X131133000Y-121080000D01*
X131176000Y-121098000D01*
X131219000Y-121118000D01*
X131260000Y-121141000D01*
X131300000Y-121165000D01*
X131339000Y-121192000D01*
X131376000Y-121221000D01*
X131412000Y-121251000D01*
X131446000Y-121284000D01*
X131479000Y-121318000D01*
X131509000Y-121354000D01*
X131538000Y-121391000D01*
X131565000Y-121430000D01*
X131589000Y-121470000D01*
X131612000Y-121511000D01*
X131632000Y-121554000D01*
X131650000Y-121597000D01*
X131666000Y-121642000D01*
X131679000Y-121687000D01*
X131690000Y-121733000D01*
X131699000Y-121779000D01*
X131705000Y-121826000D01*
X131709000Y-121873000D01*
X131710000Y-121920000D01*
X131709000Y-121967000D01*
X131705000Y-122014000D01*
X131699000Y-122061000D01*
X131690000Y-122107000D01*
X131679000Y-122153000D01*
X131666000Y-122198000D01*
X131650000Y-122243000D01*
X131632000Y-122286000D01*
X131612000Y-122329000D01*
X131589000Y-122370000D01*
X131565000Y-122410000D01*
X131538000Y-122449000D01*
X131509000Y-122486000D01*
X131479000Y-122522000D01*
X131446000Y-122556000D01*
X131412000Y-122589000D01*
X131376000Y-122619000D01*
X131339000Y-122648000D01*
X131300000Y-122675000D01*
X131260000Y-122699000D01*
X131219000Y-122722000D01*
X131176000Y-122742000D01*
X131133000Y-122760000D01*
X131088000Y-122776000D01*
X131043000Y-122789000D01*
X130997000Y-122800000D01*
X130951000Y-122809000D01*
X130904000Y-122815000D01*
X130857000Y-122819000D01*
X130810000Y-122820000D01*
X128310000Y-122820000D01*
X128310000Y-121020000D01*
X130810000Y-121020000D01*
X130857000Y-121021000D01*
G36*
X151090000Y-99960000D02*
G01*
X148590000Y-99960000D01*
X148543000Y-99959000D01*
X148496000Y-99955000D01*
X148449000Y-99949000D01*
X148403000Y-99940000D01*
X148357000Y-99929000D01*
X148312000Y-99916000D01*
X148267000Y-99900000D01*
X148224000Y-99882000D01*
X148181000Y-99862000D01*
X148140000Y-99839000D01*
X148100000Y-99815000D01*
X148061000Y-99788000D01*
X148024000Y-99759000D01*
X147988000Y-99729000D01*
X147954000Y-99696000D01*
X147921000Y-99662000D01*
X147891000Y-99626000D01*
X147862000Y-99589000D01*
X147835000Y-99550000D01*
X147811000Y-99510000D01*
X147788000Y-99469000D01*
X147768000Y-99426000D01*
X147750000Y-99383000D01*
X147734000Y-99338000D01*
X147721000Y-99293000D01*
X147710000Y-99247000D01*
X147701000Y-99201000D01*
X147695000Y-99154000D01*
X147691000Y-99107000D01*
X147690000Y-99060000D01*
X147691000Y-99013000D01*
X147695000Y-98966000D01*
X147701000Y-98919000D01*
X147710000Y-98873000D01*
X147721000Y-98827000D01*
X147734000Y-98782000D01*
X147750000Y-98737000D01*
X147768000Y-98694000D01*
X147788000Y-98651000D01*
X147811000Y-98610000D01*
X147835000Y-98570000D01*
X147862000Y-98531000D01*
X147891000Y-98494000D01*
X147921000Y-98458000D01*
X147954000Y-98424000D01*
X147988000Y-98391000D01*
X148024000Y-98361000D01*
X148061000Y-98332000D01*
X148100000Y-98305000D01*
X148140000Y-98281000D01*
X148181000Y-98258000D01*
X148224000Y-98238000D01*
X148267000Y-98220000D01*
X148312000Y-98204000D01*
X148357000Y-98191000D01*
X148403000Y-98180000D01*
X148449000Y-98171000D01*
X148496000Y-98165000D01*
X148543000Y-98161000D01*
X148590000Y-98160000D01*
X151090000Y-98160000D01*
X151090000Y-99960000D01*
G37*
X151090000Y-99960000D02*
X148590000Y-99960000D01*
X148543000Y-99959000D01*
X148496000Y-99955000D01*
X148449000Y-99949000D01*
X148403000Y-99940000D01*
X148357000Y-99929000D01*
X148312000Y-99916000D01*
X148267000Y-99900000D01*
X148224000Y-99882000D01*
X148181000Y-99862000D01*
X148140000Y-99839000D01*
X148100000Y-99815000D01*
X148061000Y-99788000D01*
X148024000Y-99759000D01*
X147988000Y-99729000D01*
X147954000Y-99696000D01*
X147921000Y-99662000D01*
X147891000Y-99626000D01*
X147862000Y-99589000D01*
X147835000Y-99550000D01*
X147811000Y-99510000D01*
X147788000Y-99469000D01*
X147768000Y-99426000D01*
X147750000Y-99383000D01*
X147734000Y-99338000D01*
X147721000Y-99293000D01*
X147710000Y-99247000D01*
X147701000Y-99201000D01*
X147695000Y-99154000D01*
X147691000Y-99107000D01*
X147690000Y-99060000D01*
X147691000Y-99013000D01*
X147695000Y-98966000D01*
X147701000Y-98919000D01*
X147710000Y-98873000D01*
X147721000Y-98827000D01*
X147734000Y-98782000D01*
X147750000Y-98737000D01*
X147768000Y-98694000D01*
X147788000Y-98651000D01*
X147811000Y-98610000D01*
X147835000Y-98570000D01*
X147862000Y-98531000D01*
X147891000Y-98494000D01*
X147921000Y-98458000D01*
X147954000Y-98424000D01*
X147988000Y-98391000D01*
X148024000Y-98361000D01*
X148061000Y-98332000D01*
X148100000Y-98305000D01*
X148140000Y-98281000D01*
X148181000Y-98258000D01*
X148224000Y-98238000D01*
X148267000Y-98220000D01*
X148312000Y-98204000D01*
X148357000Y-98191000D01*
X148403000Y-98180000D01*
X148449000Y-98171000D01*
X148496000Y-98165000D01*
X148543000Y-98161000D01*
X148590000Y-98160000D01*
X151090000Y-98160000D01*
X151090000Y-99960000D01*
%TD*%
D11*
%TO.C,R19*%
X144830800Y-77985500D03*
X144830800Y-79560500D03*
%TD*%
D12*
%TO.C,J1*%
X95544000Y-144171000D03*
X91508000Y-144171000D03*
D13*
X95544000Y-134471000D03*
D14*
X91508000Y-134471000D03*
%TD*%
D15*
%TO.C,Q2*%
X137225000Y-76073000D03*
X137225000Y-77343000D03*
X137225000Y-74803000D03*
X137225000Y-78613000D03*
X142175000Y-78613000D03*
X142175000Y-76073000D03*
X142175000Y-74803000D03*
X142175000Y-77343000D03*
%TD*%
D11*
%TO.C,R8*%
X98783099Y-126492000D03*
X98783099Y-128067000D03*
%TD*%
D16*
%TO.C,U1*%
X88877099Y-123609100D03*
X88877099Y-121069100D03*
X88877099Y-118529100D03*
%TD*%
D17*
%TO.C,C1*%
X110205000Y-119759000D03*
X122205000Y-119759000D03*
%TD*%
D18*
%TO.C,R1*%
X98389399Y-119761000D03*
X103748799Y-119761000D03*
%TD*%
D19*
%TO.C,H4*%
X193675000Y-142875000D03*
%TD*%
D11*
%TO.C,C3*%
X93703099Y-118592500D03*
X93703099Y-120167500D03*
%TD*%
D19*
%TO.C,H3*%
X193675000Y-104775000D03*
%TD*%
D11*
%TO.C,R12*%
X159766000Y-104876500D03*
X159766000Y-106451500D03*
%TD*%
%TO.C,C10*%
X118294000Y-105638500D03*
X118294000Y-107213500D03*
%TD*%
D20*
%TO.C,R7*%
X170561000Y-132867500D03*
X170561000Y-131292500D03*
%TD*%
D11*
%TO.C,R20*%
X144830800Y-81218900D03*
X144830800Y-82793900D03*
%TD*%
D21*
%TO.C,D5*%
X137250000Y-86030000D03*
X137250000Y-89230000D03*
X142150000Y-89230000D03*
X142150000Y-86030000D03*
%TD*%
D22*
%TO.C,BT1*%
X168487000Y-109220000D03*
D23*
X175937000Y-109220000D03*
D24*
X180187000Y-109220000D03*
X163787000Y-109220000D03*
%TD*%
D25*
%TO.C,J5*%
X183912000Y-138268000D03*
X185912000Y-138268000D03*
D26*
X181562000Y-144018000D03*
X188262000Y-144018000D03*
%TD*%
D25*
%TO.C,J2*%
X157242000Y-138268000D03*
X159242000Y-138268000D03*
D26*
X154892000Y-144018000D03*
X161592000Y-144018000D03*
%TD*%
D19*
%TO.C,H1*%
X149225000Y-66675000D03*
%TD*%
D27*
%TO.C,C7*%
X193522500Y-129032000D03*
X195097500Y-129032000D03*
%TD*%
D20*
%TO.C,R5*%
X160401000Y-132867500D03*
X160401000Y-131292500D03*
%TD*%
D28*
%TO.C,Q3*%
X149794000Y-74742800D03*
X147894000Y-74742800D03*
X148844000Y-76742800D03*
%TD*%
D11*
%TO.C,R11*%
X158242000Y-104876500D03*
X158242000Y-106451500D03*
%TD*%
D29*
%TO.C,FID1*%
X85725000Y-109093000D03*
%TD*%
D28*
%TO.C,Q1*%
X96431099Y-128540000D03*
X94531099Y-128540000D03*
X95481099Y-130540000D03*
%TD*%
D20*
%TO.C,R15*%
X126492000Y-113309500D03*
X126492000Y-111734500D03*
%TD*%
D30*
%TO.C,U2*%
X155321000Y-127984000D03*
X157861000Y-127984000D03*
X160401000Y-127984000D03*
X162941000Y-127984000D03*
X165481000Y-127984000D03*
X168021000Y-127984000D03*
X170561000Y-127984000D03*
X173101000Y-127984000D03*
X173101000Y-118904000D03*
X170561000Y-118904000D03*
X168021000Y-118904000D03*
X165481000Y-118904000D03*
X162941000Y-118904000D03*
X160401000Y-118904000D03*
X157861000Y-118904000D03*
X155321000Y-118904000D03*
%TD*%
D31*
%TO.C,C2*%
X93703099Y-123698000D03*
X93703099Y-121823000D03*
%TD*%
D19*
%TO.C,H2*%
X130175000Y-66675000D03*
%TD*%
D32*
%TO.C,U6*%
X122796000Y-103956000D03*
X122796000Y-104756000D03*
X122796000Y-105556000D03*
X122796000Y-106356000D03*
X120396000Y-106356000D03*
X120396000Y-105556000D03*
X120396000Y-104756000D03*
X120396000Y-103956000D03*
%TD*%
D33*
%TO.C,U3*%
X95280300Y-105222000D03*
X95280300Y-106172000D03*
X95280300Y-107122000D03*
X97480300Y-107122000D03*
X97480300Y-105222000D03*
%TD*%
D27*
%TO.C,C6*%
X184764500Y-129032000D03*
X186339500Y-129032000D03*
%TD*%
D20*
%TO.C,R17*%
X147828000Y-80035500D03*
X147828000Y-78460500D03*
%TD*%
D34*
%TO.C,D3*%
X94488000Y-109982000D03*
X98272600Y-109982000D03*
%TD*%
D25*
%TO.C,J4*%
X175022000Y-138268000D03*
X177022000Y-138268000D03*
D26*
X172672000Y-144018000D03*
X179372000Y-144018000D03*
%TD*%
D35*
%TO.C,U4*%
X194814000Y-123942000D03*
X194814000Y-122042000D03*
X194814000Y-120142000D03*
X194814000Y-118242000D03*
X194814000Y-116342000D03*
D36*
X192014000Y-113542000D03*
X190114000Y-113542000D03*
X188214000Y-113542000D03*
X186314000Y-113542000D03*
X184414000Y-113542000D03*
D35*
X181614000Y-116342000D03*
X181614000Y-118242000D03*
X181614000Y-120142000D03*
X181614000Y-122042000D03*
X181614000Y-123942000D03*
D36*
X184414000Y-126742000D03*
X186314000Y-126742000D03*
X188214000Y-126742000D03*
X190114000Y-126742000D03*
X192014000Y-126742000D03*
%TD*%
D11*
%TO.C,R9*%
X155194000Y-104876500D03*
X155194000Y-106451500D03*
%TD*%
%TO.C,R16*%
X149860000Y-78460500D03*
X149860000Y-80035500D03*
%TD*%
D37*
%TO.C,JP2*%
X175992000Y-127508000D03*
D38*
X177292000Y-127508000D03*
D39*
X178592000Y-127508000D03*
%TD*%
D29*
%TO.C,FID2*%
X193675000Y-138557000D03*
%TD*%
D40*
%TO.C,J7*%
X141450000Y-71576000D03*
D41*
X137950000Y-71576000D03*
%TD*%
D42*
%TO.C,C4*%
X92697300Y-105234500D03*
X92697300Y-107109500D03*
%TD*%
D25*
%TO.C,J3*%
X166132000Y-138268000D03*
X168132000Y-138268000D03*
D26*
X163782000Y-144018000D03*
X170482000Y-144018000D03*
%TD*%
D20*
%TO.C,R4*%
X155321000Y-132867500D03*
X155321000Y-131292500D03*
%TD*%
D19*
%TO.C,H5*%
X85725000Y-142875000D03*
%TD*%
D20*
%TO.C,R13*%
X144272000Y-88417500D03*
X144272000Y-86842500D03*
%TD*%
D19*
%TO.C,H6*%
X85725000Y-104775000D03*
%TD*%
D11*
%TO.C,R18*%
X144830800Y-74752100D03*
X144830800Y-76327100D03*
%TD*%
D34*
%TO.C,D1*%
X102961399Y-123317000D03*
X99176799Y-123317000D03*
%TD*%
D37*
%TO.C,JP1*%
X175992000Y-130810000D03*
D38*
X177292000Y-130810000D03*
D39*
X178592000Y-130810000D03*
%TD*%
D27*
%TO.C,R3*%
X138912500Y-80582000D03*
X140487500Y-80582000D03*
%TD*%
D11*
%TO.C,R14*%
X126492000Y-107645000D03*
X126492000Y-109220000D03*
%TD*%
D43*
%TO.C,R2*%
X140487500Y-82106000D03*
X138912500Y-82106000D03*
%TD*%
D11*
%TO.C,C9*%
X124898000Y-103073000D03*
X124898000Y-104648000D03*
%TD*%
D44*
%TO.C,D4*%
X93881099Y-126492000D03*
D45*
X97072099Y-126492000D03*
%TD*%
D34*
%TO.C,D2*%
X94488000Y-113538000D03*
X98272600Y-113538000D03*
%TD*%
D11*
%TO.C,C8*%
X135128000Y-86817000D03*
X135128000Y-88392000D03*
%TD*%
%TO.C,R10*%
X156718000Y-104876500D03*
X156718000Y-106451500D03*
%TD*%
D42*
%TO.C,C5*%
X100063300Y-105234500D03*
X100063300Y-107109500D03*
%TD*%
D12*
%TO.C,J6*%
X99636000Y-144171000D03*
X103672000Y-144171000D03*
D13*
X103672000Y-134471000D03*
D14*
X99636000Y-134471000D03*
%TD*%
D20*
%TO.C,R6*%
X165481000Y-132867500D03*
X165481000Y-131292500D03*
%TD*%
M02*
