%TF.GenerationSoftware,KiCad,Pcbnew,8.0.1-rc1*%
%TF.CreationDate,2024-06-07T10:26:59-05:00*%
%TF.ProjectId,Cutdown,43757464-6f77-46e2-9e6b-696361645f70,2.0.0*%
%TF.SameCoordinates,Original*%
%TF.FileFunction,Copper,L2,Bot*%
%TF.FilePolarity,Positive*%
%FSLAX46Y46*%
G04 Gerber Fmt 4.6, Leading zero omitted, Abs format (unit mm)*
G04 Created by KiCad (PCBNEW 8.0.1-rc1) date 2024-06-07 10:26:59*
%MOMM*%
%LPD*%
G01*
G04 APERTURE LIST*
G04 Aperture macros list*
%AMRoundRect*
0 Rectangle with rounded corners*
0 $1 Rounding radius*
0 $2 $3 $4 $5 $6 $7 $8 $9 X,Y pos of 4 corners*
0 Add a 4 corners polygon primitive as box body*
4,1,4,$2,$3,$4,$5,$6,$7,$8,$9,$2,$3,0*
0 Add four circle primitives for the rounded corners*
1,1,$1+$1,$2,$3*
1,1,$1+$1,$4,$5*
1,1,$1+$1,$6,$7*
1,1,$1+$1,$8,$9*
0 Add four rect primitives between the rounded corners*
20,1,$1+$1,$2,$3,$4,$5,0*
20,1,$1+$1,$4,$5,$6,$7,0*
20,1,$1+$1,$6,$7,$8,$9,0*
20,1,$1+$1,$8,$9,$2,$3,0*%
G04 Aperture macros list end*
%TA.AperFunction,ComponentPad*%
%ADD10C,2.200000*%
%TD*%
%TA.AperFunction,ComponentPad*%
%ADD11RoundRect,0.302260X-0.967740X-0.967740X0.967740X-0.967740X0.967740X0.967740X-0.967740X0.967740X0*%
%TD*%
%TA.AperFunction,ComponentPad*%
%ADD12C,2.540000*%
%TD*%
%TA.AperFunction,ComponentPad*%
%ADD13C,1.498600*%
%TD*%
%TA.AperFunction,WasherPad*%
%ADD14C,3.810000*%
%TD*%
%TA.AperFunction,ComponentPad*%
%ADD15RoundRect,0.249900X0.800100X0.800100X-0.800100X0.800100X-0.800100X-0.800100X0.800100X-0.800100X0*%
%TD*%
%TA.AperFunction,ComponentPad*%
%ADD16C,2.100000*%
%TD*%
%TA.AperFunction,ViaPad*%
%ADD17C,0.508000*%
%TD*%
%TA.AperFunction,Conductor*%
%ADD18C,0.508000*%
%TD*%
G04 APERTURE END LIST*
D10*
%TO.P,C1,1*%
%TO.N,Net-(D3-A)*%
X88996000Y-137539000D03*
%TO.P,C1,2*%
%TO.N,GND*%
X100996000Y-137539000D03*
%TD*%
D11*
%TO.P,J1,1,Pin_1*%
%TO.N,GND*%
X83538000Y-160772800D03*
D12*
%TO.P,J1,2,Pin_2*%
%TO.N,+9V*%
X79502000Y-160772800D03*
%TD*%
D13*
%TO.P,U1,1,VIN*%
%TO.N,+BATT*%
X68549500Y-153416000D03*
%TO.P,U1,2,GND*%
%TO.N,GND*%
X68549500Y-150876000D03*
%TO.P,U1,3,VOUT*%
%TO.N,+5V*%
X68549500Y-148336000D03*
%TD*%
D11*
%TO.P,J6,1,Pin_1*%
%TO.N,Net-(J6-Pin_1)*%
X75283000Y-160772800D03*
D12*
%TO.P,J6,2,Pin_2*%
%TO.N,+9V*%
X71247000Y-160772800D03*
%TD*%
D14*
%TO.P,H3,*%
%TO.N,*%
X66040000Y-168910000D03*
%TD*%
%TO.P,H4,*%
%TO.N,*%
X101600000Y-168910000D03*
%TD*%
%TO.P,H1,*%
%TO.N,*%
X66040000Y-34290000D03*
%TD*%
D15*
%TO.P,J7,1,Pin_1*%
%TO.N,GND*%
X79429900Y-42100000D03*
D16*
%TO.P,J7,2,Pin_2*%
%TO.N,+5V*%
X83465900Y-42100000D03*
%TO.P,J7,3,Pin_3*%
%TO.N,Servo*%
X87529900Y-42100000D03*
%TD*%
D14*
%TO.P,H2,*%
%TO.N,*%
X101600000Y-34290000D03*
%TD*%
D17*
%TO.N,GND*%
X64770000Y-134620000D03*
X64770000Y-125222000D03*
%TO.N,+5V*%
X67691000Y-40741600D03*
X67691000Y-112649000D03*
%TO.N,+3V3*%
X95250000Y-115316000D03*
X87376000Y-129159000D03*
X87376000Y-126111000D03*
X65024000Y-101981000D03*
X100330000Y-82550000D03*
X102108000Y-76606400D03*
X88239600Y-103378000D03*
X96520000Y-49530000D03*
X66294000Y-141274800D03*
X100330000Y-80010000D03*
X98806000Y-71526400D03*
%TO.N,Servo*%
X83439000Y-92710000D03*
%TO.N,EXT1*%
X86614000Y-80010000D03*
X87503000Y-124587000D03*
%TO.N,EXT2*%
X85979000Y-82550000D03*
X87376000Y-127635000D03*
%TO.N,GPS_PPS*%
X87299800Y-100584000D03*
X87249000Y-53848000D03*
%TO.N,GPS_TX*%
X76962000Y-98044000D03*
X76835000Y-46990000D03*
%TO.N,GPS_RX*%
X77622400Y-97383600D03*
X77622400Y-49530000D03*
%TO.N,LED*%
X90551000Y-56515000D03*
X90551000Y-39751000D03*
%TO.N,SDA*%
X65786000Y-100965000D03*
X65786000Y-83820000D03*
%TO.N,RX*%
X64160400Y-62230000D03*
X64389000Y-106299000D03*
%TO.N,SCL*%
X65125600Y-99949000D03*
X65151000Y-81407000D03*
%TO.N,TX*%
X65024000Y-59690000D03*
X63500000Y-106426000D03*
%TD*%
D18*
%TO.N,GND*%
X64770000Y-134620000D02*
X64770000Y-134112000D01*
X64770000Y-134112000D02*
X64770000Y-125222000D01*
%TO.N,+5V*%
X67691000Y-40741600D02*
X67691000Y-112649000D01*
X68549500Y-148336000D02*
X67691000Y-147477500D01*
X67691000Y-147477500D02*
X67691000Y-112649000D01*
%TO.N,Servo*%
X83465900Y-46164000D02*
X87529900Y-42100000D01*
X83439000Y-92710000D02*
X83465900Y-92683100D01*
X83465900Y-92683100D02*
X83465900Y-46164000D01*
%TO.N,EXT1*%
X86639400Y-123723400D02*
X87503000Y-124587000D01*
X86614000Y-80010000D02*
X86639400Y-80035400D01*
X86639400Y-80035400D02*
X86639400Y-123723400D01*
%TO.N,EXT2*%
X85979000Y-126238000D02*
X87376000Y-127635000D01*
X85979000Y-82550000D02*
X85979000Y-126238000D01*
%TO.N,GPS_PPS*%
X87299800Y-53898800D02*
X87249000Y-53848000D01*
X87299800Y-100584000D02*
X87299800Y-53898800D01*
%TO.N,GPS_TX*%
X76962000Y-47117000D02*
X76962000Y-98044000D01*
X76835000Y-46990000D02*
X76962000Y-47117000D01*
%TO.N,GPS_RX*%
X77622400Y-49530000D02*
X77622400Y-49885600D01*
X77622400Y-49885600D02*
X77622400Y-97383600D01*
%TO.N,LED*%
X90551000Y-39751000D02*
X90551000Y-56515000D01*
%TO.N,SDA*%
X65786000Y-84201000D02*
X65786000Y-100965000D01*
X65786000Y-83820000D02*
X65786000Y-84201000D01*
%TO.N,RX*%
X64160400Y-106070400D02*
X64389000Y-106299000D01*
X64160400Y-62230000D02*
X64160400Y-106070400D01*
%TO.N,SCL*%
X65125600Y-99949000D02*
X65125600Y-81432400D01*
X65125600Y-81432400D02*
X65151000Y-81407000D01*
%TO.N,TX*%
X63500000Y-61214000D02*
X63500000Y-106426000D01*
X65024000Y-59690000D02*
X63500000Y-61214000D01*
%TD*%
%TA.AperFunction,Conductor*%
%TO.N,+3V3*%
G36*
X78595002Y-30881185D02*
G01*
X78640757Y-30933989D01*
X78650701Y-31003147D01*
X78621676Y-31066703D01*
X78600848Y-31085818D01*
X78419823Y-31217339D01*
X78419818Y-31217343D01*
X78247243Y-31389918D01*
X78247239Y-31389923D01*
X78103796Y-31587357D01*
X77992997Y-31804812D01*
X77917578Y-32036927D01*
X77879400Y-32277973D01*
X77879400Y-32522026D01*
X77904312Y-32679317D01*
X77917579Y-32763076D01*
X77992996Y-32995185D01*
X78059134Y-33124989D01*
X78103796Y-33212642D01*
X78247239Y-33410076D01*
X78247243Y-33410081D01*
X78419818Y-33582656D01*
X78419823Y-33582660D01*
X78565631Y-33688595D01*
X78617261Y-33726106D01*
X78834715Y-33836904D01*
X79066824Y-33912321D01*
X79307873Y-33950500D01*
X79307874Y-33950500D01*
X79551926Y-33950500D01*
X79551927Y-33950500D01*
X79792976Y-33912321D01*
X80025085Y-33836904D01*
X80242539Y-33726106D01*
X80439983Y-33582655D01*
X80612555Y-33410083D01*
X80756006Y-33212639D01*
X80866804Y-32995185D01*
X80942221Y-32763076D01*
X80980400Y-32522027D01*
X80980400Y-32277973D01*
X80942221Y-32036924D01*
X80866804Y-31804815D01*
X80756006Y-31587361D01*
X80651075Y-31442935D01*
X80612560Y-31389923D01*
X80612556Y-31389918D01*
X80439981Y-31217343D01*
X80439976Y-31217339D01*
X80258952Y-31085818D01*
X80216286Y-31030488D01*
X80210307Y-30960875D01*
X80242912Y-30899080D01*
X80303751Y-30864723D01*
X80331837Y-30861500D01*
X82563963Y-30861500D01*
X82631002Y-30881185D01*
X82676757Y-30933989D01*
X82686701Y-31003147D01*
X82657676Y-31066703D01*
X82636848Y-31085818D01*
X82455823Y-31217339D01*
X82455818Y-31217343D01*
X82283243Y-31389918D01*
X82283239Y-31389923D01*
X82139796Y-31587357D01*
X82028997Y-31804812D01*
X81953578Y-32036927D01*
X81915400Y-32277973D01*
X81915400Y-32522026D01*
X81940312Y-32679317D01*
X81953579Y-32763076D01*
X82028996Y-32995185D01*
X82095134Y-33124989D01*
X82139796Y-33212642D01*
X82283239Y-33410076D01*
X82283243Y-33410081D01*
X82455818Y-33582656D01*
X82455823Y-33582660D01*
X82601631Y-33688595D01*
X82653261Y-33726106D01*
X82870715Y-33836904D01*
X83102824Y-33912321D01*
X83343873Y-33950500D01*
X83343874Y-33950500D01*
X83587926Y-33950500D01*
X83587927Y-33950500D01*
X83828976Y-33912321D01*
X84061085Y-33836904D01*
X84278539Y-33726106D01*
X84475983Y-33582655D01*
X84648555Y-33410083D01*
X84792006Y-33212639D01*
X84902804Y-32995185D01*
X84978221Y-32763076D01*
X85016400Y-32522027D01*
X85016400Y-32277973D01*
X84978221Y-32036924D01*
X84902804Y-31804815D01*
X84792006Y-31587361D01*
X84687075Y-31442935D01*
X84648560Y-31389923D01*
X84648556Y-31389918D01*
X84475981Y-31217343D01*
X84475976Y-31217339D01*
X84294952Y-31085818D01*
X84252286Y-31030488D01*
X84246307Y-30960875D01*
X84278912Y-30899080D01*
X84339751Y-30864723D01*
X84367837Y-30861500D01*
X86627963Y-30861500D01*
X86695002Y-30881185D01*
X86740757Y-30933989D01*
X86750701Y-31003147D01*
X86721676Y-31066703D01*
X86700848Y-31085818D01*
X86519823Y-31217339D01*
X86519818Y-31217343D01*
X86347243Y-31389918D01*
X86347239Y-31389923D01*
X86203796Y-31587357D01*
X86092997Y-31804812D01*
X86017578Y-32036927D01*
X85979400Y-32277973D01*
X85979400Y-32522026D01*
X86004312Y-32679317D01*
X86017579Y-32763076D01*
X86092996Y-32995185D01*
X86159134Y-33124989D01*
X86203796Y-33212642D01*
X86347239Y-33410076D01*
X86347243Y-33410081D01*
X86519818Y-33582656D01*
X86519823Y-33582660D01*
X86665631Y-33688595D01*
X86717261Y-33726106D01*
X86934715Y-33836904D01*
X87166824Y-33912321D01*
X87407873Y-33950500D01*
X87407874Y-33950500D01*
X87651926Y-33950500D01*
X87651927Y-33950500D01*
X87892976Y-33912321D01*
X88125085Y-33836904D01*
X88342539Y-33726106D01*
X88539983Y-33582655D01*
X88712555Y-33410083D01*
X88856006Y-33212639D01*
X88966804Y-32995185D01*
X89042221Y-32763076D01*
X89080400Y-32522027D01*
X89080400Y-32277973D01*
X89042221Y-32036924D01*
X88966804Y-31804815D01*
X88856006Y-31587361D01*
X88751075Y-31442935D01*
X88712560Y-31389923D01*
X88712556Y-31389918D01*
X88539981Y-31217343D01*
X88539976Y-31217339D01*
X88358952Y-31085818D01*
X88316286Y-31030488D01*
X88310307Y-30960875D01*
X88342912Y-30899080D01*
X88403751Y-30864723D01*
X88431837Y-30861500D01*
X101545149Y-30861500D01*
X101596949Y-30861500D01*
X101603032Y-30861648D01*
X101929970Y-30877710D01*
X101942078Y-30878902D01*
X102262851Y-30926485D01*
X102274765Y-30928855D01*
X102589339Y-31007651D01*
X102600966Y-31011178D01*
X102906309Y-31120432D01*
X102917521Y-31125076D01*
X103210694Y-31263736D01*
X103221402Y-31269460D01*
X103499556Y-31436179D01*
X103509648Y-31442922D01*
X103770142Y-31636118D01*
X103779522Y-31643817D01*
X104019810Y-31861600D01*
X104028399Y-31870189D01*
X104238392Y-32101882D01*
X104246177Y-32110471D01*
X104253883Y-32119860D01*
X104447074Y-32380346D01*
X104453823Y-32390448D01*
X104600149Y-32634579D01*
X104620532Y-32668585D01*
X104626269Y-32679317D01*
X104764920Y-32972471D01*
X104769571Y-32983700D01*
X104851487Y-33212639D01*
X104878816Y-33289018D01*
X104882348Y-33300662D01*
X104961141Y-33615221D01*
X104963515Y-33627156D01*
X105011096Y-33947919D01*
X105012289Y-33960030D01*
X105028350Y-34286965D01*
X105028499Y-34293049D01*
X105028499Y-168906947D01*
X105028350Y-168913032D01*
X105012288Y-169239968D01*
X105011095Y-169252078D01*
X104963514Y-169572842D01*
X104961140Y-169584777D01*
X104882347Y-169899336D01*
X104878815Y-169910980D01*
X104769573Y-170216291D01*
X104764919Y-170227527D01*
X104626268Y-170520681D01*
X104620531Y-170531413D01*
X104453827Y-170809542D01*
X104447067Y-170819660D01*
X104253891Y-171080128D01*
X104246171Y-171089534D01*
X104028406Y-171329801D01*
X104019801Y-171338406D01*
X103779534Y-171556171D01*
X103770128Y-171563891D01*
X103509660Y-171757067D01*
X103499542Y-171763827D01*
X103221413Y-171930531D01*
X103210681Y-171936268D01*
X102917527Y-172074919D01*
X102906291Y-172079573D01*
X102756146Y-172133296D01*
X102600980Y-172188815D01*
X102589336Y-172192347D01*
X102274777Y-172271140D01*
X102262842Y-172273514D01*
X101942078Y-172321095D01*
X101929968Y-172322288D01*
X101621240Y-172337455D01*
X101603031Y-172338350D01*
X101596948Y-172338499D01*
X84572289Y-172338499D01*
X84505250Y-172318814D01*
X84459495Y-172266010D01*
X84449551Y-172196852D01*
X84478576Y-172133296D01*
X84510290Y-172107112D01*
X84596679Y-172057235D01*
X84596681Y-172057234D01*
X84754325Y-171936269D01*
X84794436Y-171905491D01*
X84970691Y-171729236D01*
X85122432Y-171531484D01*
X85247063Y-171315616D01*
X85342451Y-171085329D01*
X85406965Y-170844560D01*
X85439500Y-170597431D01*
X85439500Y-170348169D01*
X85406965Y-170101040D01*
X85342451Y-169860271D01*
X85247063Y-169629984D01*
X85220963Y-169584778D01*
X85122432Y-169414116D01*
X84970692Y-169216365D01*
X84970686Y-169216358D01*
X84794441Y-169040113D01*
X84794434Y-169040107D01*
X84624882Y-168910005D01*
X99181728Y-168910005D01*
X99200795Y-169213079D01*
X99200796Y-169213086D01*
X99257703Y-169511404D01*
X99351548Y-169800226D01*
X99351550Y-169800231D01*
X99480850Y-170075007D01*
X99480856Y-170075018D01*
X99643575Y-170331423D01*
X99643578Y-170331427D01*
X99837152Y-170565417D01*
X99837154Y-170565419D01*
X100058533Y-170773309D01*
X100058543Y-170773317D01*
X100304213Y-170951807D01*
X100304219Y-170951810D01*
X100304225Y-170951815D01*
X100570350Y-171098118D01*
X100570351Y-171098118D01*
X100570356Y-171098121D01*
X100570359Y-171098122D01*
X100840125Y-171204929D01*
X100852713Y-171209913D01*
X101146861Y-171285438D01*
X101210066Y-171293422D01*
X101448143Y-171323499D01*
X101448152Y-171323499D01*
X101448155Y-171323500D01*
X101448157Y-171323500D01*
X101751843Y-171323500D01*
X101751845Y-171323500D01*
X101751848Y-171323499D01*
X101751856Y-171323499D01*
X101931639Y-171300786D01*
X102053139Y-171285438D01*
X102347287Y-171209913D01*
X102629640Y-171098122D01*
X102629643Y-171098121D01*
X102629644Y-171098120D01*
X102629650Y-171098118D01*
X102895775Y-170951815D01*
X103141465Y-170773311D01*
X103362844Y-170565421D01*
X103556423Y-170331425D01*
X103719148Y-170075011D01*
X103848452Y-169800225D01*
X103942298Y-169511400D01*
X103999203Y-169213090D01*
X104010086Y-169040109D01*
X104018272Y-168910005D01*
X104018272Y-168909994D01*
X103999204Y-168606920D01*
X103999203Y-168606913D01*
X103999203Y-168606910D01*
X103942298Y-168308600D01*
X103848452Y-168019775D01*
X103719148Y-167744989D01*
X103556423Y-167488575D01*
X103556421Y-167488572D01*
X103362847Y-167254582D01*
X103362845Y-167254580D01*
X103141466Y-167046690D01*
X103141456Y-167046682D01*
X102895786Y-166868192D01*
X102895768Y-166868181D01*
X102629643Y-166721878D01*
X102629640Y-166721877D01*
X102347291Y-166610088D01*
X102319270Y-166602893D01*
X102053139Y-166534562D01*
X102053136Y-166534561D01*
X102053129Y-166534560D01*
X101751856Y-166496500D01*
X101751845Y-166496500D01*
X101448155Y-166496500D01*
X101448143Y-166496500D01*
X101146870Y-166534560D01*
X101146861Y-166534562D01*
X100852708Y-166610088D01*
X100570359Y-166721877D01*
X100570356Y-166721878D01*
X100304231Y-166868181D01*
X100304213Y-166868192D01*
X100058543Y-167046682D01*
X100058533Y-167046690D01*
X99837154Y-167254580D01*
X99837152Y-167254582D01*
X99643578Y-167488572D01*
X99643575Y-167488576D01*
X99480856Y-167744981D01*
X99480850Y-167744992D01*
X99351550Y-168019768D01*
X99351548Y-168019773D01*
X99257703Y-168308595D01*
X99200796Y-168606913D01*
X99200795Y-168606920D01*
X99181728Y-168909994D01*
X99181728Y-168910005D01*
X84624882Y-168910005D01*
X84596683Y-168888367D01*
X84380819Y-168763738D01*
X84380804Y-168763731D01*
X84150529Y-168668349D01*
X83909756Y-168603834D01*
X83662641Y-168571301D01*
X83662636Y-168571300D01*
X83662631Y-168571300D01*
X83413369Y-168571300D01*
X83413363Y-168571300D01*
X83413358Y-168571301D01*
X83166243Y-168603834D01*
X82925470Y-168668349D01*
X82695195Y-168763731D01*
X82695180Y-168763738D01*
X82479316Y-168888367D01*
X82281565Y-169040107D01*
X82281558Y-169040113D01*
X82105313Y-169216358D01*
X82105307Y-169216365D01*
X81953567Y-169414116D01*
X81828938Y-169629980D01*
X81828931Y-169629995D01*
X81733549Y-169860270D01*
X81669034Y-170101043D01*
X81642939Y-170299258D01*
X81614673Y-170363155D01*
X81556348Y-170401626D01*
X81486483Y-170402457D01*
X81427260Y-170365385D01*
X81397481Y-170302179D01*
X81397061Y-170299258D01*
X81370965Y-170101043D01*
X81370965Y-170101040D01*
X81306451Y-169860271D01*
X81211063Y-169629984D01*
X81184963Y-169584778D01*
X81086432Y-169414116D01*
X80934692Y-169216365D01*
X80934686Y-169216358D01*
X80758441Y-169040113D01*
X80758434Y-169040107D01*
X80560683Y-168888367D01*
X80344819Y-168763738D01*
X80344804Y-168763731D01*
X80114529Y-168668349D01*
X79873756Y-168603834D01*
X79626641Y-168571301D01*
X79626636Y-168571300D01*
X79626631Y-168571300D01*
X79377369Y-168571300D01*
X79377363Y-168571300D01*
X79377358Y-168571301D01*
X79130243Y-168603834D01*
X78889470Y-168668349D01*
X78659195Y-168763731D01*
X78659180Y-168763738D01*
X78443316Y-168888367D01*
X78245565Y-169040107D01*
X78245558Y-169040113D01*
X78069313Y-169216358D01*
X78069307Y-169216365D01*
X77917567Y-169414116D01*
X77792938Y-169629980D01*
X77792931Y-169629995D01*
X77697549Y-169860270D01*
X77633034Y-170101043D01*
X77600501Y-170348158D01*
X77600500Y-170348175D01*
X77600500Y-170597424D01*
X77600501Y-170597441D01*
X77633034Y-170844556D01*
X77697549Y-171085329D01*
X77792931Y-171315604D01*
X77792938Y-171315619D01*
X77917567Y-171531483D01*
X78069307Y-171729234D01*
X78069313Y-171729241D01*
X78245558Y-171905486D01*
X78245565Y-171905492D01*
X78443318Y-172057234D01*
X78443320Y-172057235D01*
X78529710Y-172107112D01*
X78577926Y-172157678D01*
X78591150Y-172226285D01*
X78565182Y-172291150D01*
X78508268Y-172331679D01*
X78467711Y-172338499D01*
X76317289Y-172338499D01*
X76250250Y-172318814D01*
X76204495Y-172266010D01*
X76194551Y-172196852D01*
X76223576Y-172133296D01*
X76255290Y-172107112D01*
X76341679Y-172057235D01*
X76341681Y-172057234D01*
X76499325Y-171936269D01*
X76539436Y-171905491D01*
X76715691Y-171729236D01*
X76867432Y-171531484D01*
X76992063Y-171315616D01*
X77087451Y-171085329D01*
X77151965Y-170844560D01*
X77184500Y-170597431D01*
X77184500Y-170348169D01*
X77151965Y-170101040D01*
X77087451Y-169860271D01*
X76992063Y-169629984D01*
X76965963Y-169584778D01*
X76867432Y-169414116D01*
X76715692Y-169216365D01*
X76715686Y-169216358D01*
X76539441Y-169040113D01*
X76539434Y-169040107D01*
X76341683Y-168888367D01*
X76125819Y-168763738D01*
X76125804Y-168763731D01*
X75895529Y-168668349D01*
X75654756Y-168603834D01*
X75407641Y-168571301D01*
X75407636Y-168571300D01*
X75407631Y-168571300D01*
X75158369Y-168571300D01*
X75158363Y-168571300D01*
X75158358Y-168571301D01*
X74911243Y-168603834D01*
X74670470Y-168668349D01*
X74440195Y-168763731D01*
X74440180Y-168763738D01*
X74224316Y-168888367D01*
X74026565Y-169040107D01*
X74026558Y-169040113D01*
X73850313Y-169216358D01*
X73850307Y-169216365D01*
X73698567Y-169414116D01*
X73573938Y-169629980D01*
X73573931Y-169629995D01*
X73478549Y-169860270D01*
X73414034Y-170101043D01*
X73387939Y-170299258D01*
X73359673Y-170363155D01*
X73301348Y-170401626D01*
X73231483Y-170402457D01*
X73172260Y-170365385D01*
X73142481Y-170302179D01*
X73142061Y-170299258D01*
X73115965Y-170101043D01*
X73115965Y-170101040D01*
X73051451Y-169860271D01*
X72956063Y-169629984D01*
X72929963Y-169584778D01*
X72831432Y-169414116D01*
X72679692Y-169216365D01*
X72679686Y-169216358D01*
X72503441Y-169040113D01*
X72503434Y-169040107D01*
X72305683Y-168888367D01*
X72089819Y-168763738D01*
X72089804Y-168763731D01*
X71859529Y-168668349D01*
X71618756Y-168603834D01*
X71371641Y-168571301D01*
X71371636Y-168571300D01*
X71371631Y-168571300D01*
X71122369Y-168571300D01*
X71122363Y-168571300D01*
X71122358Y-168571301D01*
X70875243Y-168603834D01*
X70634470Y-168668349D01*
X70404195Y-168763731D01*
X70404180Y-168763738D01*
X70188316Y-168888367D01*
X69990565Y-169040107D01*
X69990558Y-169040113D01*
X69814313Y-169216358D01*
X69814307Y-169216365D01*
X69662567Y-169414116D01*
X69537938Y-169629980D01*
X69537931Y-169629995D01*
X69442549Y-169860270D01*
X69378034Y-170101043D01*
X69345501Y-170348158D01*
X69345500Y-170348175D01*
X69345500Y-170597424D01*
X69345501Y-170597441D01*
X69378034Y-170844556D01*
X69442549Y-171085329D01*
X69537931Y-171315604D01*
X69537938Y-171315619D01*
X69662567Y-171531483D01*
X69814307Y-171729234D01*
X69814313Y-171729241D01*
X69990558Y-171905486D01*
X69990565Y-171905492D01*
X70188318Y-172057234D01*
X70188320Y-172057235D01*
X70274710Y-172107112D01*
X70322926Y-172157678D01*
X70336150Y-172226285D01*
X70310182Y-172291150D01*
X70253268Y-172331679D01*
X70212711Y-172338499D01*
X66043050Y-172338499D01*
X66036966Y-172338350D01*
X65710030Y-172322289D01*
X65697919Y-172321096D01*
X65377156Y-172273515D01*
X65365221Y-172271141D01*
X65050662Y-172192348D01*
X65039018Y-172188816D01*
X64733700Y-172079571D01*
X64722471Y-172074920D01*
X64429317Y-171936269D01*
X64418590Y-171930534D01*
X64140448Y-171763823D01*
X64130346Y-171757074D01*
X63869860Y-171563883D01*
X63860471Y-171556177D01*
X63620189Y-171338399D01*
X63611600Y-171329810D01*
X63393817Y-171089522D01*
X63386118Y-171080142D01*
X63192922Y-170819648D01*
X63186175Y-170809550D01*
X63019460Y-170531402D01*
X63013736Y-170520694D01*
X62875076Y-170227521D01*
X62870432Y-170216309D01*
X62761178Y-169910966D01*
X62757651Y-169899337D01*
X62750470Y-169870670D01*
X62678855Y-169584765D01*
X62676484Y-169572843D01*
X62667370Y-169511404D01*
X62628902Y-169252078D01*
X62627710Y-169239968D01*
X62626550Y-169216365D01*
X62611649Y-168913032D01*
X62611575Y-168910005D01*
X63621728Y-168910005D01*
X63640795Y-169213079D01*
X63640796Y-169213086D01*
X63697703Y-169511404D01*
X63791548Y-169800226D01*
X63791550Y-169800231D01*
X63920850Y-170075007D01*
X63920856Y-170075018D01*
X64083575Y-170331423D01*
X64083578Y-170331427D01*
X64277152Y-170565417D01*
X64277154Y-170565419D01*
X64498533Y-170773309D01*
X64498543Y-170773317D01*
X64744213Y-170951807D01*
X64744219Y-170951810D01*
X64744225Y-170951815D01*
X65010350Y-171098118D01*
X65010351Y-171098118D01*
X65010356Y-171098121D01*
X65010359Y-171098122D01*
X65280125Y-171204929D01*
X65292713Y-171209913D01*
X65586861Y-171285438D01*
X65650066Y-171293422D01*
X65888143Y-171323499D01*
X65888152Y-171323499D01*
X65888155Y-171323500D01*
X65888157Y-171323500D01*
X66191843Y-171323500D01*
X66191845Y-171323500D01*
X66191848Y-171323499D01*
X66191856Y-171323499D01*
X66371639Y-171300786D01*
X66493139Y-171285438D01*
X66787287Y-171209913D01*
X67069640Y-171098122D01*
X67069643Y-171098121D01*
X67069644Y-171098120D01*
X67069650Y-171098118D01*
X67335775Y-170951815D01*
X67581465Y-170773311D01*
X67802844Y-170565421D01*
X67996423Y-170331425D01*
X68159148Y-170075011D01*
X68288452Y-169800225D01*
X68382298Y-169511400D01*
X68439203Y-169213090D01*
X68450086Y-169040109D01*
X68458272Y-168910005D01*
X68458272Y-168909994D01*
X68439204Y-168606920D01*
X68439203Y-168606913D01*
X68439203Y-168606910D01*
X68382298Y-168308600D01*
X68288452Y-168019775D01*
X68159148Y-167744989D01*
X67996423Y-167488575D01*
X67996421Y-167488572D01*
X67802847Y-167254582D01*
X67802845Y-167254580D01*
X67581466Y-167046690D01*
X67581456Y-167046682D01*
X67335786Y-166868192D01*
X67335768Y-166868181D01*
X67069643Y-166721878D01*
X67069640Y-166721877D01*
X66787291Y-166610088D01*
X66759270Y-166602893D01*
X66493139Y-166534562D01*
X66493136Y-166534561D01*
X66493129Y-166534560D01*
X66191856Y-166496500D01*
X66191845Y-166496500D01*
X65888155Y-166496500D01*
X65888143Y-166496500D01*
X65586870Y-166534560D01*
X65586861Y-166534562D01*
X65292708Y-166610088D01*
X65010359Y-166721877D01*
X65010356Y-166721878D01*
X64744231Y-166868181D01*
X64744213Y-166868192D01*
X64498543Y-167046682D01*
X64498533Y-167046690D01*
X64277154Y-167254580D01*
X64277152Y-167254582D01*
X64083578Y-167488572D01*
X64083575Y-167488576D01*
X63920856Y-167744981D01*
X63920850Y-167744992D01*
X63791550Y-168019768D01*
X63791548Y-168019773D01*
X63697703Y-168308595D01*
X63640796Y-168606913D01*
X63640795Y-168606920D01*
X63621728Y-168909994D01*
X63621728Y-168910005D01*
X62611575Y-168910005D01*
X62611500Y-168906948D01*
X62611500Y-160772804D01*
X69463513Y-160772804D01*
X69483432Y-161038612D01*
X69483433Y-161038615D01*
X69542748Y-161298492D01*
X69640134Y-161546626D01*
X69773414Y-161777474D01*
X69888741Y-161922089D01*
X69939615Y-161985883D01*
X70124074Y-162157035D01*
X70135014Y-162167186D01*
X70355257Y-162317345D01*
X70595415Y-162432999D01*
X70595416Y-162432999D01*
X70595419Y-162433001D01*
X70850137Y-162511571D01*
X71113720Y-162551300D01*
X71113721Y-162551300D01*
X71380279Y-162551300D01*
X71380280Y-162551300D01*
X71643863Y-162511571D01*
X71898581Y-162433001D01*
X72138744Y-162317345D01*
X72358986Y-162167186D01*
X72554388Y-161985879D01*
X72713726Y-161786076D01*
X73504500Y-161786076D01*
X73519824Y-161922089D01*
X73542146Y-161985879D01*
X73580169Y-162094541D01*
X73677372Y-162249239D01*
X73806561Y-162378428D01*
X73961259Y-162475631D01*
X74133707Y-162535974D01*
X74133710Y-162535975D01*
X74236813Y-162547591D01*
X74269724Y-162551299D01*
X74269727Y-162551300D01*
X74269730Y-162551300D01*
X76296273Y-162551300D01*
X76296274Y-162551299D01*
X76346733Y-162545614D01*
X76432289Y-162535975D01*
X76432291Y-162535974D01*
X76432293Y-162535974D01*
X76604741Y-162475631D01*
X76759439Y-162378428D01*
X76888628Y-162249239D01*
X76985831Y-162094541D01*
X77046174Y-161922093D01*
X77046174Y-161922091D01*
X77046175Y-161922089D01*
X77061499Y-161786076D01*
X77061500Y-161786072D01*
X77061500Y-160772804D01*
X77718513Y-160772804D01*
X77738432Y-161038612D01*
X77738433Y-161038615D01*
X77797748Y-161298492D01*
X77895134Y-161546626D01*
X78028414Y-161777474D01*
X78143741Y-161922089D01*
X78194615Y-161985883D01*
X78379074Y-162157035D01*
X78390014Y-162167186D01*
X78610257Y-162317345D01*
X78850415Y-162432999D01*
X78850416Y-162432999D01*
X78850419Y-162433001D01*
X79105137Y-162511571D01*
X79368720Y-162551300D01*
X79368721Y-162551300D01*
X79635279Y-162551300D01*
X79635280Y-162551300D01*
X79898863Y-162511571D01*
X80153581Y-162433001D01*
X80393744Y-162317345D01*
X80613986Y-162167186D01*
X80809388Y-161985879D01*
X80968726Y-161786076D01*
X81759500Y-161786076D01*
X81774824Y-161922089D01*
X81797146Y-161985879D01*
X81835169Y-162094541D01*
X81932372Y-162249239D01*
X82061561Y-162378428D01*
X82216259Y-162475631D01*
X82388707Y-162535974D01*
X82388710Y-162535975D01*
X82491813Y-162547591D01*
X82524724Y-162551299D01*
X82524727Y-162551300D01*
X82524730Y-162551300D01*
X84551273Y-162551300D01*
X84551274Y-162551299D01*
X84601733Y-162545614D01*
X84687289Y-162535975D01*
X84687291Y-162535974D01*
X84687293Y-162535974D01*
X84859741Y-162475631D01*
X85014439Y-162378428D01*
X85143628Y-162249239D01*
X85240831Y-162094541D01*
X85301174Y-161922093D01*
X85301174Y-161922091D01*
X85301175Y-161922089D01*
X85316499Y-161786076D01*
X85316500Y-161786072D01*
X85316500Y-159759527D01*
X85316499Y-159759523D01*
X85301175Y-159623510D01*
X85240831Y-159451060D01*
X85240829Y-159451056D01*
X85143627Y-159296360D01*
X85014439Y-159167172D01*
X84859743Y-159069970D01*
X84859739Y-159069968D01*
X84687289Y-159009624D01*
X84551276Y-158994300D01*
X84551270Y-158994300D01*
X82524730Y-158994300D01*
X82524723Y-158994300D01*
X82388710Y-159009624D01*
X82216260Y-159069968D01*
X82216256Y-159069970D01*
X82061560Y-159167172D01*
X81932372Y-159296360D01*
X81835170Y-159451056D01*
X81835168Y-159451060D01*
X81774824Y-159623510D01*
X81759500Y-159759523D01*
X81759500Y-161786076D01*
X80968726Y-161786076D01*
X80975586Y-161777474D01*
X81108866Y-161546626D01*
X81206252Y-161298492D01*
X81265567Y-161038615D01*
X81285487Y-160772800D01*
X81265567Y-160506985D01*
X81206252Y-160247108D01*
X81108866Y-159998974D01*
X80975586Y-159768126D01*
X80809388Y-159559721D01*
X80809387Y-159559720D01*
X80809384Y-159559716D01*
X80613986Y-159378414D01*
X80393744Y-159228255D01*
X80393740Y-159228253D01*
X80393737Y-159228251D01*
X80393736Y-159228250D01*
X80153583Y-159112600D01*
X80153585Y-159112600D01*
X79898871Y-159034031D01*
X79898867Y-159034030D01*
X79898863Y-159034029D01*
X79772074Y-159014918D01*
X79635285Y-158994300D01*
X79635280Y-158994300D01*
X79368720Y-158994300D01*
X79368714Y-158994300D01*
X79204566Y-159019042D01*
X79105137Y-159034029D01*
X79105134Y-159034030D01*
X79105128Y-159034031D01*
X78850415Y-159112600D01*
X78610265Y-159228250D01*
X78610263Y-159228251D01*
X78390013Y-159378414D01*
X78194615Y-159559716D01*
X78028414Y-159768126D01*
X77895134Y-159998973D01*
X77797750Y-160247102D01*
X77797745Y-160247119D01*
X77738432Y-160506987D01*
X77718513Y-160772795D01*
X77718513Y-160772804D01*
X77061500Y-160772804D01*
X77061500Y-159759527D01*
X77061499Y-159759523D01*
X77046175Y-159623510D01*
X76985831Y-159451060D01*
X76985829Y-159451056D01*
X76888627Y-159296360D01*
X76759439Y-159167172D01*
X76604743Y-159069970D01*
X76604739Y-159069968D01*
X76432289Y-159009624D01*
X76296276Y-158994300D01*
X76296270Y-158994300D01*
X74269730Y-158994300D01*
X74269723Y-158994300D01*
X74133710Y-159009624D01*
X73961260Y-159069968D01*
X73961256Y-159069970D01*
X73806560Y-159167172D01*
X73677372Y-159296360D01*
X73580170Y-159451056D01*
X73580168Y-159451060D01*
X73519824Y-159623510D01*
X73504500Y-159759523D01*
X73504500Y-161786076D01*
X72713726Y-161786076D01*
X72720586Y-161777474D01*
X72853866Y-161546626D01*
X72951252Y-161298492D01*
X73010567Y-161038615D01*
X73030487Y-160772800D01*
X73010567Y-160506985D01*
X72951252Y-160247108D01*
X72853866Y-159998974D01*
X72720586Y-159768126D01*
X72554388Y-159559721D01*
X72554387Y-159559720D01*
X72554384Y-159559716D01*
X72358986Y-159378414D01*
X72138744Y-159228255D01*
X72138740Y-159228253D01*
X72138737Y-159228251D01*
X72138736Y-159228250D01*
X71898583Y-159112600D01*
X71898585Y-159112600D01*
X71643871Y-159034031D01*
X71643867Y-159034030D01*
X71643863Y-159034029D01*
X71517074Y-159014918D01*
X71380285Y-158994300D01*
X71380280Y-158994300D01*
X71113720Y-158994300D01*
X71113714Y-158994300D01*
X70949566Y-159019042D01*
X70850137Y-159034029D01*
X70850134Y-159034030D01*
X70850128Y-159034031D01*
X70595415Y-159112600D01*
X70355265Y-159228250D01*
X70355263Y-159228251D01*
X70135013Y-159378414D01*
X69939615Y-159559716D01*
X69773414Y-159768126D01*
X69640134Y-159998973D01*
X69542750Y-160247102D01*
X69542745Y-160247119D01*
X69483432Y-160506987D01*
X69463513Y-160772795D01*
X69463513Y-160772804D01*
X62611500Y-160772804D01*
X62611500Y-134620001D01*
X64002675Y-134620001D01*
X64006720Y-134655899D01*
X64007500Y-134669784D01*
X64007500Y-134695101D01*
X64014868Y-134732140D01*
X64016471Y-134742450D01*
X64021911Y-134790739D01*
X64021912Y-134790742D01*
X64029725Y-134813072D01*
X64034297Y-134829823D01*
X64036801Y-134842407D01*
X64036803Y-134842414D01*
X64056019Y-134888805D01*
X64058500Y-134895304D01*
X64078663Y-134952929D01*
X64078664Y-134952930D01*
X64084590Y-134962362D01*
X64084595Y-134962369D01*
X64094156Y-134980874D01*
X64094283Y-134981181D01*
X64094283Y-134981182D01*
X64129074Y-135033249D01*
X64130966Y-135036168D01*
X64170081Y-135098419D01*
X64291580Y-135219918D01*
X64291583Y-135219920D01*
X64353814Y-135259022D01*
X64356724Y-135260908D01*
X64408821Y-135295718D01*
X64409116Y-135295840D01*
X64427628Y-135305403D01*
X64437070Y-135311336D01*
X64437072Y-135311337D01*
X64475296Y-135324711D01*
X64494701Y-135331501D01*
X64501198Y-135333982D01*
X64547578Y-135353194D01*
X64547582Y-135353195D01*
X64547587Y-135353197D01*
X64560174Y-135355700D01*
X64576917Y-135360271D01*
X64599254Y-135368087D01*
X64647559Y-135373528D01*
X64657840Y-135375127D01*
X64694900Y-135382500D01*
X64720215Y-135382500D01*
X64734099Y-135383280D01*
X64769998Y-135387325D01*
X64770000Y-135387325D01*
X64770002Y-135387325D01*
X64805901Y-135383280D01*
X64819785Y-135382500D01*
X64845103Y-135382500D01*
X64874642Y-135376622D01*
X64882139Y-135375131D01*
X64892439Y-135373528D01*
X64940746Y-135368087D01*
X64963080Y-135360271D01*
X64979831Y-135355699D01*
X64992413Y-135353197D01*
X65038825Y-135333971D01*
X65045292Y-135331503D01*
X65069732Y-135322951D01*
X65102928Y-135311337D01*
X65112362Y-135305409D01*
X65130895Y-135295835D01*
X65131179Y-135295718D01*
X65183322Y-135260875D01*
X65186153Y-135259042D01*
X65248418Y-135219920D01*
X65248421Y-135219918D01*
X65369918Y-135098421D01*
X65369920Y-135098418D01*
X65409042Y-135036153D01*
X65410875Y-135033322D01*
X65445718Y-134981179D01*
X65445835Y-134980895D01*
X65455409Y-134962362D01*
X65461337Y-134952928D01*
X65481501Y-134895299D01*
X65483971Y-134888825D01*
X65503197Y-134842413D01*
X65505699Y-134829831D01*
X65510274Y-134813072D01*
X65518087Y-134790746D01*
X65523528Y-134742439D01*
X65525132Y-134732136D01*
X65532500Y-134695103D01*
X65532500Y-134669784D01*
X65533280Y-134655899D01*
X65537325Y-134620001D01*
X65537325Y-134619998D01*
X65533280Y-134584098D01*
X65532500Y-134570214D01*
X65532500Y-125271784D01*
X65533280Y-125257899D01*
X65537325Y-125222001D01*
X65537325Y-125221998D01*
X65533280Y-125186098D01*
X65532500Y-125172214D01*
X65532500Y-125146901D01*
X65532499Y-125146896D01*
X65525127Y-125109840D01*
X65523528Y-125099559D01*
X65518087Y-125051254D01*
X65510271Y-125028917D01*
X65505700Y-125012174D01*
X65503197Y-124999587D01*
X65503195Y-124999582D01*
X65503194Y-124999578D01*
X65483982Y-124953198D01*
X65481500Y-124946697D01*
X65461337Y-124889072D01*
X65461334Y-124889067D01*
X65455400Y-124879622D01*
X65445840Y-124861116D01*
X65445718Y-124860821D01*
X65410908Y-124808724D01*
X65409022Y-124805814D01*
X65369919Y-124743581D01*
X65248419Y-124622081D01*
X65248417Y-124622080D01*
X65186168Y-124582966D01*
X65183249Y-124581074D01*
X65131181Y-124546283D01*
X65131174Y-124546280D01*
X65130870Y-124546154D01*
X65112372Y-124536596D01*
X65107441Y-124533498D01*
X65102929Y-124530663D01*
X65067836Y-124518384D01*
X65045290Y-124510494D01*
X65038805Y-124508019D01*
X64992414Y-124488803D01*
X64992407Y-124488801D01*
X64979823Y-124486297D01*
X64963072Y-124481725D01*
X64940746Y-124473913D01*
X64940744Y-124473912D01*
X64940742Y-124473912D01*
X64940739Y-124473911D01*
X64892450Y-124468471D01*
X64882145Y-124466868D01*
X64862114Y-124462884D01*
X64845101Y-124459500D01*
X64845100Y-124459500D01*
X64819785Y-124459500D01*
X64805901Y-124458720D01*
X64770002Y-124454675D01*
X64769998Y-124454675D01*
X64734099Y-124458720D01*
X64720215Y-124459500D01*
X64694896Y-124459500D01*
X64657856Y-124466868D01*
X64647548Y-124468471D01*
X64599260Y-124473911D01*
X64599255Y-124473912D01*
X64576917Y-124481728D01*
X64560165Y-124486300D01*
X64547588Y-124488802D01*
X64547587Y-124488802D01*
X64501202Y-124508015D01*
X64494709Y-124510494D01*
X64437067Y-124530664D01*
X64427622Y-124536599D01*
X64409130Y-124546154D01*
X64408825Y-124546280D01*
X64408823Y-124546280D01*
X64408821Y-124546282D01*
X64356750Y-124581074D01*
X64356731Y-124581087D01*
X64353831Y-124582966D01*
X64347411Y-124587000D01*
X64291581Y-124622080D01*
X64170080Y-124743581D01*
X64130977Y-124805814D01*
X64129091Y-124808723D01*
X64094282Y-124860821D01*
X64094280Y-124860823D01*
X64094280Y-124860825D01*
X64094154Y-124861130D01*
X64084599Y-124879622D01*
X64078664Y-124889067D01*
X64058494Y-124946709D01*
X64056015Y-124953202D01*
X64036802Y-124999587D01*
X64036802Y-124999588D01*
X64034300Y-125012165D01*
X64029728Y-125028917D01*
X64021912Y-125051255D01*
X64021911Y-125051260D01*
X64016471Y-125099548D01*
X64014868Y-125109856D01*
X64007500Y-125146896D01*
X64007500Y-125172214D01*
X64006720Y-125186098D01*
X64002675Y-125221998D01*
X64002675Y-125222001D01*
X64006720Y-125257899D01*
X64007500Y-125271784D01*
X64007500Y-134570214D01*
X64006720Y-134584098D01*
X64002675Y-134619998D01*
X64002675Y-134620001D01*
X62611500Y-134620001D01*
X62611500Y-112649001D01*
X66923675Y-112649001D01*
X66927720Y-112684899D01*
X66928500Y-112698784D01*
X66928500Y-147552601D01*
X66957045Y-147696098D01*
X66957047Y-147696120D01*
X66957049Y-147696120D01*
X66957802Y-147699913D01*
X67015280Y-147838677D01*
X67057004Y-147901122D01*
X67098727Y-147963565D01*
X67260833Y-148125671D01*
X67294317Y-148186993D01*
X67296679Y-148224158D01*
X67286895Y-148335997D01*
X67286895Y-148336000D01*
X67306076Y-148555244D01*
X67306078Y-148555254D01*
X67363036Y-148767828D01*
X67363038Y-148767832D01*
X67363039Y-148767836D01*
X67456052Y-148967303D01*
X67456054Y-148967307D01*
X67582288Y-149147588D01*
X67737911Y-149303211D01*
X67918192Y-149429445D01*
X67918194Y-149429446D01*
X67918197Y-149429448D01*
X68055810Y-149493618D01*
X68108249Y-149539790D01*
X68127401Y-149606984D01*
X68107185Y-149673865D01*
X68055810Y-149718382D01*
X67918199Y-149782551D01*
X67918197Y-149782552D01*
X67737910Y-149908789D01*
X67582289Y-150064410D01*
X67456052Y-150244697D01*
X67456051Y-150244699D01*
X67363040Y-150444162D01*
X67363036Y-150444171D01*
X67306078Y-150656745D01*
X67306076Y-150656755D01*
X67286895Y-150875999D01*
X67286895Y-150876000D01*
X67306076Y-151095244D01*
X67306078Y-151095254D01*
X67363036Y-151307828D01*
X67363038Y-151307832D01*
X67363039Y-151307836D01*
X67456052Y-151507303D01*
X67456054Y-151507307D01*
X67582288Y-151687588D01*
X67737911Y-151843211D01*
X67918192Y-151969445D01*
X67918194Y-151969446D01*
X67918197Y-151969448D01*
X68055810Y-152033618D01*
X68108249Y-152079790D01*
X68127401Y-152146984D01*
X68107185Y-152213865D01*
X68055810Y-152258382D01*
X67918199Y-152322551D01*
X67918197Y-152322552D01*
X67737910Y-152448789D01*
X67582289Y-152604410D01*
X67456052Y-152784697D01*
X67456051Y-152784699D01*
X67363040Y-152984162D01*
X67363036Y-152984171D01*
X67306078Y-153196745D01*
X67306076Y-153196755D01*
X67286895Y-153415999D01*
X67286895Y-153416000D01*
X67306076Y-153635244D01*
X67306078Y-153635254D01*
X67363036Y-153847828D01*
X67363038Y-153847832D01*
X67363039Y-153847836D01*
X67456052Y-154047303D01*
X67456054Y-154047307D01*
X67582288Y-154227588D01*
X67737911Y-154383211D01*
X67918192Y-154509445D01*
X67918194Y-154509446D01*
X67918197Y-154509448D01*
X68117664Y-154602461D01*
X68330251Y-154659423D01*
X68505650Y-154674768D01*
X68549499Y-154678605D01*
X68549500Y-154678605D01*
X68549501Y-154678605D01*
X68586041Y-154675408D01*
X68768749Y-154659423D01*
X68981336Y-154602461D01*
X69180803Y-154509448D01*
X69361087Y-154383212D01*
X69516712Y-154227587D01*
X69642948Y-154047303D01*
X69735961Y-153847836D01*
X69792923Y-153635249D01*
X69812105Y-153416000D01*
X69792923Y-153196751D01*
X69735961Y-152984164D01*
X69642948Y-152784698D01*
X69516712Y-152604413D01*
X69516710Y-152604410D01*
X69361088Y-152448788D01*
X69180807Y-152322554D01*
X69180803Y-152322552D01*
X69180801Y-152322551D01*
X69043187Y-152258381D01*
X68990750Y-152212210D01*
X68971598Y-152145016D01*
X68991814Y-152078135D01*
X69043187Y-152033619D01*
X69180803Y-151969448D01*
X69361087Y-151843212D01*
X69516712Y-151687587D01*
X69642948Y-151507303D01*
X69735961Y-151307836D01*
X69792923Y-151095249D01*
X69812105Y-150876000D01*
X69792923Y-150656751D01*
X69735961Y-150444164D01*
X69642948Y-150244698D01*
X69516712Y-150064413D01*
X69516710Y-150064410D01*
X69361088Y-149908788D01*
X69180807Y-149782554D01*
X69180803Y-149782552D01*
X69180801Y-149782551D01*
X69043187Y-149718381D01*
X68990750Y-149672210D01*
X68971598Y-149605016D01*
X68991814Y-149538135D01*
X69043187Y-149493619D01*
X69180803Y-149429448D01*
X69361087Y-149303212D01*
X69516712Y-149147587D01*
X69642948Y-148967303D01*
X69735961Y-148767836D01*
X69792923Y-148555249D01*
X69812105Y-148336000D01*
X69792923Y-148116751D01*
X69735961Y-147904164D01*
X69642948Y-147704698D01*
X69516712Y-147524413D01*
X69516710Y-147524410D01*
X69361088Y-147368788D01*
X69180807Y-147242554D01*
X69180803Y-147242552D01*
X68981336Y-147149539D01*
X68981332Y-147149538D01*
X68981328Y-147149536D01*
X68768754Y-147092578D01*
X68768744Y-147092576D01*
X68566692Y-147074899D01*
X68501624Y-147049446D01*
X68460645Y-146992856D01*
X68453500Y-146951371D01*
X68453500Y-137539000D01*
X87382526Y-137539000D01*
X87402391Y-137791406D01*
X87461495Y-138037593D01*
X87558383Y-138271502D01*
X87690668Y-138487370D01*
X87690669Y-138487372D01*
X87690670Y-138487374D01*
X87690672Y-138487376D01*
X87855102Y-138679898D01*
X88047624Y-138844328D01*
X88047626Y-138844329D01*
X88047627Y-138844330D01*
X88047629Y-138844331D01*
X88263497Y-138976616D01*
X88497406Y-139073504D01*
X88497407Y-139073504D01*
X88497409Y-139073505D01*
X88743597Y-139132609D01*
X88996000Y-139152474D01*
X89248403Y-139132609D01*
X89494591Y-139073505D01*
X89728502Y-138976616D01*
X89944376Y-138844328D01*
X90136898Y-138679898D01*
X90301328Y-138487376D01*
X90433616Y-138271502D01*
X90530505Y-138037591D01*
X90589609Y-137791403D01*
X90609474Y-137539000D01*
X99382526Y-137539000D01*
X99402391Y-137791406D01*
X99461495Y-138037593D01*
X99558383Y-138271502D01*
X99690668Y-138487370D01*
X99690669Y-138487372D01*
X99690670Y-138487374D01*
X99690672Y-138487376D01*
X99855102Y-138679898D01*
X100047624Y-138844328D01*
X100047626Y-138844329D01*
X100047627Y-138844330D01*
X100047629Y-138844331D01*
X100263497Y-138976616D01*
X100497406Y-139073504D01*
X100497407Y-139073504D01*
X100497409Y-139073505D01*
X100743597Y-139132609D01*
X100996000Y-139152474D01*
X101248403Y-139132609D01*
X101494591Y-139073505D01*
X101728502Y-138976616D01*
X101944376Y-138844328D01*
X102136898Y-138679898D01*
X102301328Y-138487376D01*
X102433616Y-138271502D01*
X102530505Y-138037591D01*
X102589609Y-137791403D01*
X102609474Y-137539000D01*
X102589609Y-137286597D01*
X102530505Y-137040409D01*
X102433616Y-136806498D01*
X102433616Y-136806497D01*
X102301331Y-136590629D01*
X102301330Y-136590627D01*
X102301329Y-136590626D01*
X102301328Y-136590624D01*
X102136898Y-136398102D01*
X101944376Y-136233672D01*
X101944374Y-136233670D01*
X101944372Y-136233669D01*
X101944370Y-136233668D01*
X101728502Y-136101383D01*
X101494593Y-136004495D01*
X101248406Y-135945391D01*
X100996000Y-135925526D01*
X100743593Y-135945391D01*
X100497406Y-136004495D01*
X100263497Y-136101383D01*
X100047629Y-136233668D01*
X100047627Y-136233669D01*
X99855102Y-136398102D01*
X99690669Y-136590627D01*
X99690668Y-136590629D01*
X99558383Y-136806497D01*
X99461495Y-137040406D01*
X99402391Y-137286593D01*
X99382526Y-137539000D01*
X90609474Y-137539000D01*
X90589609Y-137286597D01*
X90530505Y-137040409D01*
X90433616Y-136806498D01*
X90433616Y-136806497D01*
X90301331Y-136590629D01*
X90301330Y-136590627D01*
X90301329Y-136590626D01*
X90301328Y-136590624D01*
X90136898Y-136398102D01*
X89944376Y-136233672D01*
X89944374Y-136233670D01*
X89944372Y-136233669D01*
X89944370Y-136233668D01*
X89728502Y-136101383D01*
X89494593Y-136004495D01*
X89248406Y-135945391D01*
X88996000Y-135925526D01*
X88743593Y-135945391D01*
X88497406Y-136004495D01*
X88263497Y-136101383D01*
X88047629Y-136233668D01*
X88047627Y-136233669D01*
X87855102Y-136398102D01*
X87690669Y-136590627D01*
X87690668Y-136590629D01*
X87558383Y-136806497D01*
X87461495Y-137040406D01*
X87402391Y-137286593D01*
X87382526Y-137539000D01*
X68453500Y-137539000D01*
X68453500Y-128900384D01*
X96379500Y-128900384D01*
X96409300Y-129050197D01*
X96409302Y-129050205D01*
X96467759Y-129191334D01*
X96467764Y-129191343D01*
X96552629Y-129318351D01*
X96552632Y-129318355D01*
X96660644Y-129426367D01*
X96660648Y-129426370D01*
X96787656Y-129511235D01*
X96787662Y-129511238D01*
X96787663Y-129511239D01*
X96928795Y-129569698D01*
X97078615Y-129599499D01*
X97078619Y-129599500D01*
X97078620Y-129599500D01*
X97231381Y-129599500D01*
X97231382Y-129599499D01*
X97381205Y-129569698D01*
X97522337Y-129511239D01*
X97649352Y-129426370D01*
X97757370Y-129318352D01*
X97842239Y-129191337D01*
X97900698Y-129050205D01*
X97930500Y-128900380D01*
X97930500Y-128747620D01*
X97900698Y-128597795D01*
X97842239Y-128456663D01*
X97842238Y-128456662D01*
X97842235Y-128456656D01*
X97757370Y-128329648D01*
X97757367Y-128329644D01*
X97649355Y-128221632D01*
X97649351Y-128221629D01*
X97522343Y-128136764D01*
X97522334Y-128136759D01*
X97381205Y-128078302D01*
X97381197Y-128078300D01*
X97231384Y-128048500D01*
X97231380Y-128048500D01*
X97078620Y-128048500D01*
X97078615Y-128048500D01*
X96928802Y-128078300D01*
X96928794Y-128078302D01*
X96787665Y-128136759D01*
X96787656Y-128136764D01*
X96660648Y-128221629D01*
X96660644Y-128221632D01*
X96552632Y-128329644D01*
X96552629Y-128329648D01*
X96467764Y-128456656D01*
X96467759Y-128456665D01*
X96409302Y-128597794D01*
X96409300Y-128597802D01*
X96379500Y-128747615D01*
X96379500Y-128900384D01*
X68453500Y-128900384D01*
X68453500Y-112698784D01*
X68454280Y-112684899D01*
X68458325Y-112649001D01*
X68458325Y-112648998D01*
X68454280Y-112613098D01*
X68453500Y-112599214D01*
X68453500Y-46990001D01*
X76067675Y-46990001D01*
X76071721Y-47025908D01*
X76072501Y-47039793D01*
X76072501Y-47065098D01*
X76079869Y-47102143D01*
X76081471Y-47112450D01*
X76086911Y-47160742D01*
X76094725Y-47183072D01*
X76099300Y-47199831D01*
X76101802Y-47212410D01*
X76101803Y-47212413D01*
X76121019Y-47258804D01*
X76123490Y-47265278D01*
X76143664Y-47322930D01*
X76149593Y-47332366D01*
X76159158Y-47350879D01*
X76159281Y-47351177D01*
X76159284Y-47351182D01*
X76178603Y-47380096D01*
X76199480Y-47446774D01*
X76199500Y-47448985D01*
X76199500Y-97994214D01*
X76198720Y-98008098D01*
X76194675Y-98043998D01*
X76194675Y-98044001D01*
X76198720Y-98079899D01*
X76199500Y-98093784D01*
X76199500Y-98119101D01*
X76206868Y-98156140D01*
X76208471Y-98166450D01*
X76213911Y-98214739D01*
X76213912Y-98214742D01*
X76221725Y-98237072D01*
X76226297Y-98253823D01*
X76228801Y-98266407D01*
X76228803Y-98266414D01*
X76248019Y-98312805D01*
X76250500Y-98319304D01*
X76270663Y-98376929D01*
X76270664Y-98376930D01*
X76276590Y-98386362D01*
X76276595Y-98386369D01*
X76286156Y-98404874D01*
X76286283Y-98405181D01*
X76286283Y-98405182D01*
X76321074Y-98457249D01*
X76322966Y-98460168D01*
X76362081Y-98522419D01*
X76483580Y-98643918D01*
X76483583Y-98643920D01*
X76545814Y-98683022D01*
X76548724Y-98684908D01*
X76600821Y-98719718D01*
X76601116Y-98719840D01*
X76619628Y-98729403D01*
X76629070Y-98735336D01*
X76629072Y-98735337D01*
X76667296Y-98748711D01*
X76686701Y-98755501D01*
X76693198Y-98757982D01*
X76739578Y-98777194D01*
X76739582Y-98777195D01*
X76739587Y-98777197D01*
X76752174Y-98779700D01*
X76768917Y-98784271D01*
X76791254Y-98792087D01*
X76839559Y-98797528D01*
X76849840Y-98799127D01*
X76886900Y-98806500D01*
X76912215Y-98806500D01*
X76926099Y-98807280D01*
X76961998Y-98811325D01*
X76962000Y-98811325D01*
X76962002Y-98811325D01*
X76997901Y-98807280D01*
X77011785Y-98806500D01*
X77037103Y-98806500D01*
X77066642Y-98800622D01*
X77074139Y-98799131D01*
X77084439Y-98797528D01*
X77132746Y-98792087D01*
X77155080Y-98784271D01*
X77171831Y-98779699D01*
X77184413Y-98777197D01*
X77230825Y-98757971D01*
X77237292Y-98755503D01*
X77261732Y-98746951D01*
X77294928Y-98735337D01*
X77304362Y-98729409D01*
X77322895Y-98719835D01*
X77323179Y-98719718D01*
X77375322Y-98684875D01*
X77378153Y-98683042D01*
X77440418Y-98643920D01*
X77440421Y-98643918D01*
X77561918Y-98522421D01*
X77561920Y-98522418D01*
X77601042Y-98460153D01*
X77602875Y-98457322D01*
X77637718Y-98405179D01*
X77637835Y-98404895D01*
X77647409Y-98386362D01*
X77653337Y-98376928D01*
X77673501Y-98319299D01*
X77675971Y-98312825D01*
X77695197Y-98266413D01*
X77697699Y-98253831D01*
X77702269Y-98237085D01*
X77710087Y-98214746D01*
X77710087Y-98214739D01*
X77711894Y-98209578D01*
X77752617Y-98152803D01*
X77787978Y-98133494D01*
X77793139Y-98131687D01*
X77793146Y-98131687D01*
X77815485Y-98123869D01*
X77832231Y-98119299D01*
X77844813Y-98116797D01*
X77891225Y-98097571D01*
X77897692Y-98095103D01*
X77922132Y-98086551D01*
X77955328Y-98074937D01*
X77964762Y-98069009D01*
X77983295Y-98059435D01*
X77983579Y-98059318D01*
X78035722Y-98024475D01*
X78038553Y-98022642D01*
X78100818Y-97983520D01*
X78100821Y-97983518D01*
X78222318Y-97862021D01*
X78222320Y-97862018D01*
X78261442Y-97799753D01*
X78263275Y-97796922D01*
X78298118Y-97744779D01*
X78298235Y-97744495D01*
X78307809Y-97725962D01*
X78313737Y-97716528D01*
X78333901Y-97658899D01*
X78336371Y-97652425D01*
X78355597Y-97606013D01*
X78358099Y-97593431D01*
X78362671Y-97576680D01*
X78370487Y-97554346D01*
X78375928Y-97506039D01*
X78377532Y-97495736D01*
X78384900Y-97458703D01*
X78384900Y-97433384D01*
X78385680Y-97419499D01*
X78389725Y-97383601D01*
X78389725Y-97383598D01*
X78385680Y-97347698D01*
X78384900Y-97333814D01*
X78384900Y-92710001D01*
X82671675Y-92710001D01*
X82675721Y-92745908D01*
X82676501Y-92759793D01*
X82676501Y-92785098D01*
X82683869Y-92822143D01*
X82685471Y-92832450D01*
X82690911Y-92880742D01*
X82698725Y-92903072D01*
X82703300Y-92919831D01*
X82705802Y-92932410D01*
X82705803Y-92932413D01*
X82725019Y-92978804D01*
X82727490Y-92985278D01*
X82747664Y-93042930D01*
X82753593Y-93052366D01*
X82763156Y-93070876D01*
X82763282Y-93071179D01*
X82798101Y-93123291D01*
X82799977Y-93126186D01*
X82839077Y-93188414D01*
X82839079Y-93188417D01*
X82839081Y-93188419D01*
X82960581Y-93309919D01*
X83022836Y-93349036D01*
X83025725Y-93350909D01*
X83057661Y-93372248D01*
X83077813Y-93385713D01*
X83077823Y-93385719D01*
X83078120Y-93385842D01*
X83096635Y-93395408D01*
X83106069Y-93401336D01*
X83163697Y-93421500D01*
X83170182Y-93423975D01*
X83216587Y-93443197D01*
X83229157Y-93445696D01*
X83245927Y-93450274D01*
X83268257Y-93458088D01*
X83316561Y-93463530D01*
X83326862Y-93465131D01*
X83363900Y-93472499D01*
X83389206Y-93472499D01*
X83403090Y-93473279D01*
X83438998Y-93477325D01*
X83439000Y-93477325D01*
X83439002Y-93477325D01*
X83474910Y-93473279D01*
X83488794Y-93472499D01*
X83514102Y-93472499D01*
X83525473Y-93470236D01*
X83551144Y-93465129D01*
X83561420Y-93463531D01*
X83609746Y-93458087D01*
X83632073Y-93450273D01*
X83648832Y-93445698D01*
X83661413Y-93443197D01*
X83707837Y-93423966D01*
X83714260Y-93421514D01*
X83771930Y-93401336D01*
X83781364Y-93395407D01*
X83799895Y-93385835D01*
X83800179Y-93385718D01*
X83852298Y-93350892D01*
X83855163Y-93349036D01*
X83917419Y-93309919D01*
X84038919Y-93188419D01*
X84038919Y-93188417D01*
X84049127Y-93178210D01*
X84049128Y-93178207D01*
X84058172Y-93169165D01*
X84141618Y-93044279D01*
X84199097Y-92905513D01*
X84208686Y-92857304D01*
X84228400Y-92758202D01*
X84228400Y-82550001D01*
X85211675Y-82550001D01*
X85215720Y-82585899D01*
X85216500Y-82599784D01*
X85216500Y-126313100D01*
X85216500Y-126313102D01*
X85216499Y-126313102D01*
X85245801Y-126460407D01*
X85245803Y-126460413D01*
X85303281Y-126599177D01*
X85386730Y-126724069D01*
X85386731Y-126724070D01*
X86771740Y-128109077D01*
X86771750Y-128109088D01*
X86776080Y-128113418D01*
X86776081Y-128113419D01*
X86897581Y-128234919D01*
X86897583Y-128234920D01*
X86897584Y-128234921D01*
X86959814Y-128274022D01*
X86962724Y-128275908D01*
X87014821Y-128310718D01*
X87015116Y-128310840D01*
X87033628Y-128320403D01*
X87043070Y-128326336D01*
X87043072Y-128326337D01*
X87100697Y-128346500D01*
X87107182Y-128348975D01*
X87153587Y-128368197D01*
X87166157Y-128370696D01*
X87182927Y-128375274D01*
X87205257Y-128383088D01*
X87253561Y-128388530D01*
X87263862Y-128390131D01*
X87300900Y-128397499D01*
X87326206Y-128397499D01*
X87340090Y-128398279D01*
X87375998Y-128402325D01*
X87376000Y-128402325D01*
X87376002Y-128402325D01*
X87411910Y-128398279D01*
X87425794Y-128397499D01*
X87451102Y-128397499D01*
X87480684Y-128391613D01*
X87488128Y-128390132D01*
X87498431Y-128388529D01*
X87546746Y-128383087D01*
X87569075Y-128375272D01*
X87585843Y-128370696D01*
X87591219Y-128369627D01*
X87598403Y-128368199D01*
X87598405Y-128368198D01*
X87598412Y-128368197D01*
X87644795Y-128348984D01*
X87651297Y-128346502D01*
X87708928Y-128326337D01*
X87718362Y-128320409D01*
X87736895Y-128310835D01*
X87737179Y-128310718D01*
X87789322Y-128275875D01*
X87792153Y-128274042D01*
X87854418Y-128234920D01*
X87854421Y-128234918D01*
X87975918Y-128113421D01*
X87975920Y-128113418D01*
X88015042Y-128051153D01*
X88016875Y-128048322D01*
X88051718Y-127996179D01*
X88051835Y-127995895D01*
X88061409Y-127977362D01*
X88067337Y-127967928D01*
X88087502Y-127910297D01*
X88089984Y-127903795D01*
X88109195Y-127857417D01*
X88109195Y-127857416D01*
X88109197Y-127857412D01*
X88111696Y-127844843D01*
X88116272Y-127828075D01*
X88124087Y-127805746D01*
X88129529Y-127757431D01*
X88131133Y-127747125D01*
X88138499Y-127710102D01*
X88138499Y-127684793D01*
X88139279Y-127670908D01*
X88143325Y-127635001D01*
X88143325Y-127634998D01*
X88139279Y-127599090D01*
X88138499Y-127585206D01*
X88138499Y-127559900D01*
X88131133Y-127522873D01*
X88129530Y-127512561D01*
X88124088Y-127464257D01*
X88116274Y-127441927D01*
X88111696Y-127425154D01*
X88109198Y-127412592D01*
X88109197Y-127412591D01*
X88109197Y-127412587D01*
X88089975Y-127366182D01*
X88087500Y-127359697D01*
X88067337Y-127302072D01*
X88067336Y-127302070D01*
X88061403Y-127292628D01*
X88051840Y-127274116D01*
X88051718Y-127273821D01*
X88016908Y-127221724D01*
X88015022Y-127218814D01*
X87975921Y-127156584D01*
X87975920Y-127156583D01*
X87975919Y-127156581D01*
X87854419Y-127035081D01*
X87854418Y-127035080D01*
X87850088Y-127030750D01*
X87850077Y-127030740D01*
X86777819Y-125958481D01*
X86744334Y-125897158D01*
X86741500Y-125870800D01*
X86741500Y-125203200D01*
X86761185Y-125136161D01*
X86813989Y-125090406D01*
X86883147Y-125080462D01*
X86946703Y-125109487D01*
X86953181Y-125115519D01*
X87024581Y-125186919D01*
X87086836Y-125226036D01*
X87089725Y-125227909D01*
X87121661Y-125249248D01*
X87141813Y-125262713D01*
X87141823Y-125262719D01*
X87142120Y-125262842D01*
X87160635Y-125272408D01*
X87170069Y-125278336D01*
X87210216Y-125292383D01*
X87227701Y-125298501D01*
X87234198Y-125300982D01*
X87280578Y-125320194D01*
X87280582Y-125320195D01*
X87280587Y-125320197D01*
X87293174Y-125322700D01*
X87309917Y-125327271D01*
X87332254Y-125335087D01*
X87380559Y-125340528D01*
X87390840Y-125342127D01*
X87427900Y-125349500D01*
X87453215Y-125349500D01*
X87467099Y-125350280D01*
X87502998Y-125354325D01*
X87503000Y-125354325D01*
X87503002Y-125354325D01*
X87538901Y-125350280D01*
X87552785Y-125349500D01*
X87578103Y-125349500D01*
X87607642Y-125343622D01*
X87615139Y-125342131D01*
X87625439Y-125340528D01*
X87673746Y-125335087D01*
X87696080Y-125327271D01*
X87712831Y-125322699D01*
X87725413Y-125320197D01*
X87771825Y-125300971D01*
X87778292Y-125298503D01*
X87802732Y-125289951D01*
X87835928Y-125278337D01*
X87845362Y-125272409D01*
X87863895Y-125262835D01*
X87864179Y-125262718D01*
X87916298Y-125227892D01*
X87919163Y-125226036D01*
X87981419Y-125186919D01*
X88102919Y-125065419D01*
X88142053Y-125003135D01*
X88143892Y-125000298D01*
X88178718Y-124948179D01*
X88178835Y-124947895D01*
X88188409Y-124929362D01*
X88194337Y-124919928D01*
X88214501Y-124862299D01*
X88216971Y-124855825D01*
X88236197Y-124809413D01*
X88238699Y-124796831D01*
X88243271Y-124780080D01*
X88251087Y-124757746D01*
X88256528Y-124709439D01*
X88258132Y-124699136D01*
X88265500Y-124662103D01*
X88265500Y-124636784D01*
X88266280Y-124622899D01*
X88266373Y-124622080D01*
X88270325Y-124587000D01*
X88269870Y-124582966D01*
X88266280Y-124551098D01*
X88265500Y-124537214D01*
X88265500Y-124511901D01*
X88260905Y-124488803D01*
X88258127Y-124474840D01*
X88256528Y-124464559D01*
X88251087Y-124416254D01*
X88243271Y-124393917D01*
X88238700Y-124377174D01*
X88236197Y-124364587D01*
X88236195Y-124364582D01*
X88236194Y-124364578D01*
X88216982Y-124318198D01*
X88214500Y-124311697D01*
X88194336Y-124254069D01*
X88188408Y-124244635D01*
X88178842Y-124226120D01*
X88178719Y-124225823D01*
X88178713Y-124225813D01*
X88165248Y-124205661D01*
X88143911Y-124173728D01*
X88142036Y-124170836D01*
X88102918Y-124108580D01*
X87438219Y-123443881D01*
X87404734Y-123382558D01*
X87401900Y-123356200D01*
X87401900Y-121462695D01*
X96254500Y-121462695D01*
X96289103Y-121636658D01*
X96289106Y-121636667D01*
X96356983Y-121800540D01*
X96356990Y-121800553D01*
X96455535Y-121948034D01*
X96455538Y-121948038D01*
X96580961Y-122073461D01*
X96580965Y-122073464D01*
X96728446Y-122172009D01*
X96728459Y-122172016D01*
X96851363Y-122222923D01*
X96892334Y-122239894D01*
X96892336Y-122239894D01*
X96892341Y-122239896D01*
X97066304Y-122274499D01*
X97066307Y-122274500D01*
X97066309Y-122274500D01*
X97243693Y-122274500D01*
X97243694Y-122274499D01*
X97301682Y-122262964D01*
X97417658Y-122239896D01*
X97417661Y-122239894D01*
X97417666Y-122239894D01*
X97581547Y-122172013D01*
X97729035Y-122073464D01*
X97854464Y-121948035D01*
X97953013Y-121800547D01*
X98020894Y-121636666D01*
X98055500Y-121462691D01*
X98055500Y-121285309D01*
X98055500Y-121285306D01*
X98055499Y-121285304D01*
X98020896Y-121111341D01*
X98020893Y-121111332D01*
X97953016Y-120947459D01*
X97953009Y-120947446D01*
X97854464Y-120799965D01*
X97854461Y-120799961D01*
X97729038Y-120674538D01*
X97729034Y-120674535D01*
X97581553Y-120575990D01*
X97581540Y-120575983D01*
X97417667Y-120508106D01*
X97417658Y-120508103D01*
X97243694Y-120473500D01*
X97243691Y-120473500D01*
X97066309Y-120473500D01*
X97066306Y-120473500D01*
X96892341Y-120508103D01*
X96892332Y-120508106D01*
X96728459Y-120575983D01*
X96728446Y-120575990D01*
X96580965Y-120674535D01*
X96580961Y-120674538D01*
X96455538Y-120799961D01*
X96455535Y-120799965D01*
X96356990Y-120947446D01*
X96356983Y-120947459D01*
X96289106Y-121111332D01*
X96289103Y-121111341D01*
X96254500Y-121285304D01*
X96254500Y-121462695D01*
X87401900Y-121462695D01*
X87401900Y-101444089D01*
X87421585Y-101377050D01*
X87474389Y-101331295D01*
X87484915Y-101327058D01*
X87492881Y-101324271D01*
X87509631Y-101319699D01*
X87522213Y-101317197D01*
X87568625Y-101297971D01*
X87575092Y-101295503D01*
X87599532Y-101286951D01*
X87632728Y-101275337D01*
X87642162Y-101269409D01*
X87660695Y-101259835D01*
X87660979Y-101259718D01*
X87713122Y-101224875D01*
X87715953Y-101223042D01*
X87778218Y-101183920D01*
X87778221Y-101183918D01*
X87899718Y-101062421D01*
X87899720Y-101062418D01*
X87934022Y-101007824D01*
X87938851Y-101000137D01*
X87940675Y-100997322D01*
X87975518Y-100945179D01*
X87975635Y-100944895D01*
X87985209Y-100926362D01*
X87991137Y-100916928D01*
X88011301Y-100859299D01*
X88013771Y-100852825D01*
X88032997Y-100806413D01*
X88035499Y-100793831D01*
X88040071Y-100777080D01*
X88047887Y-100754746D01*
X88053328Y-100706439D01*
X88054932Y-100696136D01*
X88062300Y-100659103D01*
X88062300Y-100633784D01*
X88063080Y-100619899D01*
X88067125Y-100584001D01*
X88067125Y-100583998D01*
X88063080Y-100548098D01*
X88062300Y-100534214D01*
X88062300Y-56515001D01*
X89783675Y-56515001D01*
X89787720Y-56550899D01*
X89788500Y-56564784D01*
X89788500Y-56590101D01*
X89795868Y-56627140D01*
X89797471Y-56637450D01*
X89802911Y-56685739D01*
X89802912Y-56685742D01*
X89810725Y-56708072D01*
X89815297Y-56724823D01*
X89817801Y-56737407D01*
X89817803Y-56737414D01*
X89837019Y-56783805D01*
X89839500Y-56790304D01*
X89859663Y-56847929D01*
X89859664Y-56847930D01*
X89865590Y-56857362D01*
X89865595Y-56857369D01*
X89875156Y-56875874D01*
X89875283Y-56876181D01*
X89875283Y-56876182D01*
X89910074Y-56928249D01*
X89911966Y-56931168D01*
X89951081Y-56993419D01*
X90072580Y-57114918D01*
X90072583Y-57114920D01*
X90134814Y-57154022D01*
X90137724Y-57155908D01*
X90189821Y-57190718D01*
X90190116Y-57190840D01*
X90208628Y-57200403D01*
X90218070Y-57206336D01*
X90218072Y-57206337D01*
X90256296Y-57219711D01*
X90275701Y-57226501D01*
X90282198Y-57228982D01*
X90328578Y-57248194D01*
X90328582Y-57248195D01*
X90328587Y-57248197D01*
X90341174Y-57250700D01*
X90357917Y-57255271D01*
X90380254Y-57263087D01*
X90428559Y-57268528D01*
X90438840Y-57270127D01*
X90475900Y-57277500D01*
X90501215Y-57277500D01*
X90515099Y-57278280D01*
X90550998Y-57282325D01*
X90551000Y-57282325D01*
X90551002Y-57282325D01*
X90586901Y-57278280D01*
X90600785Y-57277500D01*
X90626103Y-57277500D01*
X90655642Y-57271622D01*
X90663139Y-57270131D01*
X90673439Y-57268528D01*
X90721746Y-57263087D01*
X90744080Y-57255271D01*
X90760831Y-57250699D01*
X90773413Y-57248197D01*
X90819825Y-57228971D01*
X90826292Y-57226503D01*
X90850732Y-57217951D01*
X90883928Y-57206337D01*
X90893362Y-57200409D01*
X90911895Y-57190835D01*
X90912179Y-57190718D01*
X90964322Y-57155875D01*
X90967153Y-57154042D01*
X91029418Y-57114920D01*
X91029421Y-57114918D01*
X91150918Y-56993421D01*
X91150920Y-56993418D01*
X91190042Y-56931153D01*
X91191875Y-56928322D01*
X91226718Y-56876179D01*
X91226835Y-56875895D01*
X91236409Y-56857362D01*
X91242337Y-56847928D01*
X91262501Y-56790299D01*
X91264971Y-56783825D01*
X91284197Y-56737413D01*
X91286699Y-56724831D01*
X91291274Y-56708072D01*
X91299087Y-56685746D01*
X91304528Y-56637439D01*
X91306132Y-56627136D01*
X91313500Y-56590103D01*
X91313500Y-56564784D01*
X91314280Y-56550899D01*
X91318325Y-56515001D01*
X91318325Y-56514998D01*
X91314280Y-56479098D01*
X91313500Y-56465214D01*
X91313500Y-39800784D01*
X91314280Y-39786899D01*
X91318325Y-39751001D01*
X91318325Y-39750998D01*
X91314280Y-39715098D01*
X91313500Y-39701214D01*
X91313500Y-39675901D01*
X91313499Y-39675896D01*
X91306127Y-39638840D01*
X91304528Y-39628559D01*
X91299087Y-39580254D01*
X91291271Y-39557917D01*
X91286700Y-39541174D01*
X91284197Y-39528587D01*
X91284195Y-39528582D01*
X91284194Y-39528578D01*
X91264982Y-39482198D01*
X91262500Y-39475697D01*
X91242337Y-39418072D01*
X91242334Y-39418067D01*
X91236400Y-39408622D01*
X91226840Y-39390116D01*
X91226718Y-39389821D01*
X91191908Y-39337724D01*
X91190022Y-39334814D01*
X91150920Y-39272583D01*
X91150918Y-39272580D01*
X91029419Y-39151081D01*
X90967168Y-39111966D01*
X90964249Y-39110074D01*
X90912181Y-39075283D01*
X90912174Y-39075280D01*
X90911870Y-39075154D01*
X90893372Y-39065596D01*
X90888441Y-39062498D01*
X90883929Y-39059663D01*
X90848836Y-39047384D01*
X90826290Y-39039494D01*
X90819805Y-39037019D01*
X90773414Y-39017803D01*
X90773407Y-39017801D01*
X90760823Y-39015297D01*
X90744072Y-39010725D01*
X90721746Y-39002913D01*
X90721744Y-39002912D01*
X90721742Y-39002912D01*
X90721739Y-39002911D01*
X90673450Y-38997471D01*
X90663145Y-38995868D01*
X90643114Y-38991884D01*
X90626101Y-38988500D01*
X90626100Y-38988500D01*
X90600785Y-38988500D01*
X90586901Y-38987720D01*
X90551002Y-38983675D01*
X90550998Y-38983675D01*
X90515099Y-38987720D01*
X90501215Y-38988500D01*
X90475896Y-38988500D01*
X90438856Y-38995868D01*
X90428548Y-38997471D01*
X90380260Y-39002911D01*
X90380255Y-39002912D01*
X90357917Y-39010728D01*
X90341165Y-39015300D01*
X90328588Y-39017802D01*
X90328587Y-39017802D01*
X90282202Y-39037015D01*
X90275709Y-39039494D01*
X90218067Y-39059664D01*
X90208622Y-39065599D01*
X90190130Y-39075154D01*
X90189825Y-39075280D01*
X90189823Y-39075280D01*
X90189821Y-39075282D01*
X90137750Y-39110074D01*
X90137731Y-39110087D01*
X90134814Y-39111977D01*
X90072581Y-39151080D01*
X89951080Y-39272581D01*
X89911977Y-39334814D01*
X89910091Y-39337723D01*
X89875282Y-39389821D01*
X89875280Y-39389823D01*
X89875280Y-39389825D01*
X89875154Y-39390130D01*
X89865599Y-39408622D01*
X89859664Y-39418067D01*
X89839494Y-39475709D01*
X89837015Y-39482202D01*
X89817802Y-39528587D01*
X89817802Y-39528588D01*
X89815300Y-39541165D01*
X89810728Y-39557917D01*
X89802912Y-39580255D01*
X89802911Y-39580260D01*
X89797471Y-39628548D01*
X89795868Y-39638856D01*
X89788500Y-39675896D01*
X89788500Y-39701214D01*
X89787720Y-39715098D01*
X89783675Y-39750998D01*
X89783675Y-39751001D01*
X89787720Y-39786899D01*
X89788500Y-39800784D01*
X89788500Y-56465214D01*
X89787720Y-56479098D01*
X89783675Y-56514998D01*
X89783675Y-56515001D01*
X88062300Y-56515001D01*
X88062300Y-53823697D01*
X88032998Y-53676392D01*
X88032997Y-53676391D01*
X88032997Y-53676387D01*
X87975518Y-53537621D01*
X87941575Y-53486821D01*
X87941575Y-53486820D01*
X87892072Y-53412734D01*
X87848916Y-53369578D01*
X87735065Y-53255727D01*
X87727419Y-53248081D01*
X87727417Y-53248079D01*
X87727414Y-53248077D01*
X87665186Y-53208977D01*
X87662291Y-53207101D01*
X87610179Y-53172282D01*
X87609876Y-53172156D01*
X87591366Y-53162593D01*
X87581930Y-53156664D01*
X87524278Y-53136490D01*
X87517810Y-53134021D01*
X87471413Y-53114803D01*
X87471410Y-53114802D01*
X87458831Y-53112300D01*
X87442072Y-53107725D01*
X87419741Y-53099911D01*
X87419742Y-53099911D01*
X87371450Y-53094471D01*
X87361143Y-53092869D01*
X87360504Y-53092742D01*
X87324100Y-53085501D01*
X87324099Y-53085501D01*
X87298794Y-53085501D01*
X87284910Y-53084721D01*
X87249002Y-53080675D01*
X87248998Y-53080675D01*
X87213090Y-53084721D01*
X87199206Y-53085501D01*
X87173900Y-53085501D01*
X87136854Y-53092869D01*
X87126549Y-53094471D01*
X87078259Y-53099911D01*
X87078253Y-53099913D01*
X87055920Y-53107727D01*
X87039164Y-53112301D01*
X87026589Y-53114802D01*
X87026585Y-53114803D01*
X86980202Y-53134015D01*
X86973709Y-53136494D01*
X86916067Y-53156664D01*
X86906622Y-53162599D01*
X86888130Y-53172154D01*
X86887821Y-53172282D01*
X86887814Y-53172285D01*
X86835736Y-53207082D01*
X86832821Y-53208971D01*
X86770585Y-53248078D01*
X86770578Y-53248083D01*
X86649083Y-53369578D01*
X86649078Y-53369585D01*
X86609971Y-53431821D01*
X86608082Y-53434736D01*
X86573285Y-53486814D01*
X86573282Y-53486821D01*
X86573154Y-53487130D01*
X86563599Y-53505622D01*
X86557664Y-53515067D01*
X86537494Y-53572709D01*
X86535015Y-53579202D01*
X86515803Y-53625585D01*
X86515802Y-53625589D01*
X86513301Y-53638164D01*
X86508727Y-53654920D01*
X86500913Y-53677253D01*
X86500911Y-53677259D01*
X86495471Y-53725549D01*
X86493869Y-53735854D01*
X86486501Y-53772899D01*
X86486501Y-53798206D01*
X86485721Y-53812090D01*
X86481675Y-53847998D01*
X86481675Y-53848001D01*
X86485721Y-53883908D01*
X86486501Y-53897793D01*
X86486501Y-53923098D01*
X86493869Y-53960143D01*
X86495471Y-53970450D01*
X86500911Y-54018742D01*
X86508725Y-54041072D01*
X86513300Y-54057831D01*
X86515802Y-54070410D01*
X86515803Y-54070413D01*
X86527861Y-54099523D01*
X86537300Y-54146976D01*
X86537300Y-79141560D01*
X86517615Y-79208599D01*
X86464811Y-79254354D01*
X86449766Y-79259448D01*
X86449824Y-79259614D01*
X86420920Y-79269727D01*
X86404164Y-79274301D01*
X86391589Y-79276802D01*
X86391585Y-79276803D01*
X86345202Y-79296015D01*
X86338709Y-79298494D01*
X86281067Y-79318664D01*
X86271622Y-79324599D01*
X86253130Y-79334154D01*
X86252821Y-79334282D01*
X86252814Y-79334285D01*
X86200736Y-79369082D01*
X86197821Y-79370971D01*
X86135585Y-79410078D01*
X86135578Y-79410083D01*
X86014083Y-79531578D01*
X86014078Y-79531585D01*
X85974971Y-79593821D01*
X85973082Y-79596736D01*
X85938285Y-79648814D01*
X85938282Y-79648821D01*
X85938154Y-79649130D01*
X85928599Y-79667622D01*
X85922664Y-79677067D01*
X85902494Y-79734709D01*
X85900015Y-79741202D01*
X85880803Y-79787585D01*
X85880802Y-79787589D01*
X85878301Y-79800164D01*
X85873727Y-79816920D01*
X85865913Y-79839253D01*
X85865911Y-79839259D01*
X85860471Y-79887549D01*
X85858869Y-79897854D01*
X85851501Y-79934899D01*
X85851501Y-79960206D01*
X85850721Y-79974090D01*
X85846675Y-80009998D01*
X85846675Y-80010001D01*
X85850721Y-80045908D01*
X85851501Y-80059793D01*
X85851501Y-80085098D01*
X85858869Y-80122143D01*
X85860471Y-80132450D01*
X85865911Y-80180742D01*
X85869941Y-80192257D01*
X85876900Y-80233212D01*
X85876900Y-81689909D01*
X85857215Y-81756948D01*
X85804411Y-81802703D01*
X85793848Y-81806953D01*
X85785916Y-81809728D01*
X85769165Y-81814300D01*
X85756588Y-81816802D01*
X85756587Y-81816802D01*
X85710202Y-81836015D01*
X85703709Y-81838494D01*
X85646067Y-81858664D01*
X85636622Y-81864599D01*
X85618130Y-81874154D01*
X85617825Y-81874280D01*
X85617823Y-81874280D01*
X85617821Y-81874282D01*
X85565731Y-81909087D01*
X85562814Y-81910977D01*
X85500581Y-81950080D01*
X85379080Y-82071581D01*
X85339977Y-82133814D01*
X85338091Y-82136723D01*
X85303282Y-82188821D01*
X85303280Y-82188823D01*
X85303280Y-82188825D01*
X85303154Y-82189130D01*
X85293599Y-82207622D01*
X85287664Y-82217067D01*
X85267494Y-82274709D01*
X85265015Y-82281202D01*
X85245802Y-82327587D01*
X85245802Y-82327588D01*
X85243300Y-82340165D01*
X85238728Y-82356917D01*
X85230912Y-82379255D01*
X85230911Y-82379260D01*
X85225471Y-82427548D01*
X85223868Y-82437856D01*
X85216500Y-82474896D01*
X85216500Y-82500214D01*
X85215720Y-82514098D01*
X85211675Y-82549998D01*
X85211675Y-82550001D01*
X84228400Y-82550001D01*
X84228400Y-46531199D01*
X84248085Y-46464160D01*
X84264714Y-46443523D01*
X87057881Y-43650355D01*
X87119204Y-43616871D01*
X87174508Y-43617462D01*
X87285343Y-43644072D01*
X87529900Y-43663319D01*
X87774457Y-43644072D01*
X88012992Y-43586805D01*
X88208338Y-43505889D01*
X88239630Y-43492928D01*
X88239632Y-43492927D01*
X88448796Y-43364752D01*
X88635333Y-43205433D01*
X88794652Y-43018896D01*
X88922827Y-42809732D01*
X89016705Y-42583092D01*
X89073972Y-42344557D01*
X89093219Y-42100000D01*
X89073972Y-41855443D01*
X89016705Y-41616908D01*
X88967082Y-41497108D01*
X88922828Y-41390269D01*
X88794653Y-41181106D01*
X88794652Y-41181104D01*
X88635333Y-40994567D01*
X88448796Y-40835248D01*
X88434209Y-40826309D01*
X88239630Y-40707071D01*
X88012987Y-40613193D01*
X87774453Y-40555927D01*
X87774454Y-40555927D01*
X87529900Y-40536681D01*
X87285345Y-40555927D01*
X87046812Y-40613193D01*
X86820169Y-40707071D01*
X86611006Y-40835246D01*
X86424467Y-40994567D01*
X86265146Y-41181106D01*
X86136971Y-41390269D01*
X86043093Y-41616912D01*
X85985827Y-41855445D01*
X85966581Y-42100000D01*
X85985827Y-42344554D01*
X86012436Y-42455389D01*
X86008945Y-42525172D01*
X85979543Y-42572017D01*
X82873630Y-45677930D01*
X82790181Y-45802822D01*
X82732703Y-45941586D01*
X82732701Y-45941592D01*
X82703400Y-46088897D01*
X82703400Y-92482498D01*
X82696442Y-92523451D01*
X82690913Y-92539251D01*
X82690911Y-92539259D01*
X82685471Y-92587549D01*
X82683869Y-92597854D01*
X82676501Y-92634899D01*
X82676501Y-92660206D01*
X82675721Y-92674090D01*
X82671675Y-92709998D01*
X82671675Y-92710001D01*
X78384900Y-92710001D01*
X78384900Y-49579784D01*
X78385680Y-49565899D01*
X78389725Y-49530001D01*
X78389725Y-49529998D01*
X78385680Y-49494098D01*
X78384900Y-49480214D01*
X78384900Y-49454901D01*
X78384900Y-49454900D01*
X78377527Y-49417840D01*
X78375928Y-49407559D01*
X78370487Y-49359254D01*
X78362671Y-49336917D01*
X78358100Y-49320174D01*
X78355597Y-49307587D01*
X78355595Y-49307582D01*
X78355594Y-49307578D01*
X78336382Y-49261198D01*
X78333900Y-49254697D01*
X78313737Y-49197072D01*
X78313736Y-49197070D01*
X78307803Y-49187628D01*
X78298240Y-49169116D01*
X78298118Y-49168821D01*
X78263308Y-49116724D01*
X78261422Y-49113814D01*
X78222320Y-49051583D01*
X78222318Y-49051580D01*
X78100819Y-48930081D01*
X78038568Y-48890966D01*
X78035649Y-48889074D01*
X77983581Y-48854283D01*
X77983579Y-48854282D01*
X77983270Y-48854154D01*
X77964772Y-48844596D01*
X77959841Y-48841498D01*
X77955329Y-48838663D01*
X77920236Y-48826384D01*
X77897690Y-48818494D01*
X77891205Y-48816019D01*
X77844814Y-48796803D01*
X77844807Y-48796801D01*
X77832223Y-48794297D01*
X77815466Y-48789722D01*
X77807542Y-48786949D01*
X77750767Y-48746226D01*
X77725022Y-48681272D01*
X77724500Y-48669909D01*
X77724500Y-47041897D01*
X77695198Y-46894592D01*
X77695197Y-46894591D01*
X77695197Y-46894587D01*
X77637718Y-46755821D01*
X77595408Y-46692499D01*
X77595408Y-46692498D01*
X77554271Y-46630932D01*
X77554268Y-46630929D01*
X77321065Y-46397727D01*
X77313417Y-46390079D01*
X77313414Y-46390077D01*
X77251186Y-46350977D01*
X77248291Y-46349101D01*
X77196179Y-46314282D01*
X77195876Y-46314156D01*
X77177366Y-46304593D01*
X77167930Y-46298664D01*
X77110278Y-46278490D01*
X77103810Y-46276021D01*
X77057413Y-46256803D01*
X77057410Y-46256802D01*
X77044831Y-46254300D01*
X77028072Y-46249725D01*
X77005741Y-46241911D01*
X77005742Y-46241911D01*
X76957450Y-46236471D01*
X76947143Y-46234869D01*
X76946504Y-46234742D01*
X76910100Y-46227501D01*
X76910099Y-46227501D01*
X76884794Y-46227501D01*
X76870910Y-46226721D01*
X76835002Y-46222675D01*
X76834998Y-46222675D01*
X76799090Y-46226721D01*
X76785206Y-46227501D01*
X76759900Y-46227501D01*
X76722854Y-46234869D01*
X76712549Y-46236471D01*
X76664259Y-46241911D01*
X76664253Y-46241913D01*
X76641920Y-46249727D01*
X76625164Y-46254301D01*
X76612589Y-46256802D01*
X76612585Y-46256803D01*
X76566202Y-46276015D01*
X76559709Y-46278494D01*
X76502067Y-46298664D01*
X76492622Y-46304599D01*
X76474130Y-46314154D01*
X76473821Y-46314282D01*
X76473814Y-46314285D01*
X76421736Y-46349082D01*
X76418821Y-46350971D01*
X76356585Y-46390078D01*
X76356578Y-46390083D01*
X76235083Y-46511578D01*
X76235078Y-46511585D01*
X76195971Y-46573821D01*
X76194082Y-46576736D01*
X76159285Y-46628814D01*
X76159282Y-46628821D01*
X76159154Y-46629130D01*
X76149599Y-46647622D01*
X76143664Y-46657067D01*
X76123494Y-46714709D01*
X76121015Y-46721202D01*
X76101803Y-46767585D01*
X76101802Y-46767589D01*
X76099301Y-46780164D01*
X76094727Y-46796920D01*
X76086913Y-46819253D01*
X76086911Y-46819259D01*
X76081471Y-46867549D01*
X76079869Y-46877854D01*
X76072501Y-46914899D01*
X76072501Y-46940206D01*
X76071721Y-46954090D01*
X76067675Y-46989998D01*
X76067675Y-46990001D01*
X68453500Y-46990001D01*
X68453500Y-42950643D01*
X77871400Y-42950643D01*
X77878374Y-43018896D01*
X77882012Y-43054506D01*
X77937777Y-43222796D01*
X78030849Y-43373689D01*
X78156211Y-43499051D01*
X78307104Y-43592123D01*
X78475394Y-43647888D01*
X78579264Y-43658500D01*
X78579269Y-43658500D01*
X80280531Y-43658500D01*
X80280536Y-43658500D01*
X80384406Y-43647888D01*
X80552696Y-43592123D01*
X80703589Y-43499051D01*
X80828951Y-43373689D01*
X80922023Y-43222796D01*
X80977788Y-43054506D01*
X80988400Y-42950636D01*
X80988400Y-42100000D01*
X81902581Y-42100000D01*
X81921827Y-42344554D01*
X81979093Y-42583087D01*
X82072971Y-42809730D01*
X82201146Y-43018893D01*
X82201148Y-43018896D01*
X82360467Y-43205433D01*
X82547004Y-43364752D01*
X82547006Y-43364753D01*
X82756169Y-43492928D01*
X82863008Y-43537182D01*
X82982808Y-43586805D01*
X83221343Y-43644072D01*
X83465900Y-43663319D01*
X83710457Y-43644072D01*
X83948992Y-43586805D01*
X84144338Y-43505889D01*
X84175630Y-43492928D01*
X84175632Y-43492927D01*
X84384796Y-43364752D01*
X84571333Y-43205433D01*
X84730652Y-43018896D01*
X84858827Y-42809732D01*
X84952705Y-42583092D01*
X85009972Y-42344557D01*
X85029219Y-42100000D01*
X85009972Y-41855443D01*
X84952705Y-41616908D01*
X84903082Y-41497108D01*
X84858828Y-41390269D01*
X84730653Y-41181106D01*
X84730652Y-41181104D01*
X84571333Y-40994567D01*
X84384796Y-40835248D01*
X84370209Y-40826309D01*
X84175630Y-40707071D01*
X83948987Y-40613193D01*
X83710453Y-40555927D01*
X83710454Y-40555927D01*
X83465900Y-40536681D01*
X83221345Y-40555927D01*
X82982812Y-40613193D01*
X82756169Y-40707071D01*
X82547006Y-40835246D01*
X82360467Y-40994567D01*
X82201146Y-41181106D01*
X82072971Y-41390269D01*
X81979093Y-41616912D01*
X81921827Y-41855445D01*
X81902581Y-42100000D01*
X80988400Y-42100000D01*
X80988400Y-41249364D01*
X80977788Y-41145494D01*
X80922023Y-40977204D01*
X80828951Y-40826311D01*
X80703589Y-40700949D01*
X80570969Y-40619148D01*
X80552698Y-40607878D01*
X80552693Y-40607876D01*
X80384406Y-40552112D01*
X80280543Y-40541500D01*
X80280536Y-40541500D01*
X78579264Y-40541500D01*
X78579256Y-40541500D01*
X78475393Y-40552112D01*
X78307106Y-40607876D01*
X78307101Y-40607878D01*
X78156209Y-40700950D01*
X78030850Y-40826309D01*
X77937778Y-40977201D01*
X77937776Y-40977206D01*
X77882012Y-41145493D01*
X77871400Y-41249356D01*
X77871400Y-42950643D01*
X68453500Y-42950643D01*
X68453500Y-40791384D01*
X68454280Y-40777499D01*
X68458325Y-40741601D01*
X68458325Y-40741598D01*
X68454280Y-40705698D01*
X68453500Y-40691814D01*
X68453500Y-40666501D01*
X68453499Y-40666496D01*
X68446127Y-40629440D01*
X68444528Y-40619159D01*
X68439087Y-40570854D01*
X68431271Y-40548517D01*
X68426700Y-40531774D01*
X68424197Y-40519187D01*
X68424195Y-40519182D01*
X68424194Y-40519178D01*
X68404982Y-40472798D01*
X68402500Y-40466297D01*
X68382337Y-40408672D01*
X68382334Y-40408667D01*
X68376400Y-40399222D01*
X68366840Y-40380716D01*
X68366718Y-40380421D01*
X68331908Y-40328324D01*
X68330022Y-40325414D01*
X68290920Y-40263183D01*
X68290918Y-40263180D01*
X68169419Y-40141681D01*
X68107168Y-40102566D01*
X68104249Y-40100674D01*
X68052181Y-40065883D01*
X68052174Y-40065880D01*
X68051870Y-40065754D01*
X68033372Y-40056196D01*
X68028441Y-40053098D01*
X68023929Y-40050263D01*
X67988836Y-40037984D01*
X67966290Y-40030094D01*
X67959805Y-40027619D01*
X67913414Y-40008403D01*
X67913407Y-40008401D01*
X67900823Y-40005897D01*
X67884072Y-40001325D01*
X67861746Y-39993513D01*
X67861744Y-39993512D01*
X67861742Y-39993512D01*
X67861739Y-39993511D01*
X67813450Y-39988071D01*
X67803145Y-39986468D01*
X67783114Y-39982484D01*
X67766101Y-39979100D01*
X67766100Y-39979100D01*
X67740785Y-39979100D01*
X67726901Y-39978320D01*
X67691002Y-39974275D01*
X67690998Y-39974275D01*
X67655099Y-39978320D01*
X67641215Y-39979100D01*
X67615896Y-39979100D01*
X67578856Y-39986468D01*
X67568548Y-39988071D01*
X67520260Y-39993511D01*
X67520255Y-39993512D01*
X67497917Y-40001328D01*
X67481165Y-40005900D01*
X67468588Y-40008402D01*
X67468587Y-40008402D01*
X67422202Y-40027615D01*
X67415709Y-40030094D01*
X67358067Y-40050264D01*
X67348622Y-40056199D01*
X67330130Y-40065754D01*
X67329825Y-40065880D01*
X67329823Y-40065880D01*
X67329821Y-40065882D01*
X67277750Y-40100674D01*
X67277731Y-40100687D01*
X67274814Y-40102577D01*
X67212581Y-40141680D01*
X67091080Y-40263181D01*
X67051977Y-40325414D01*
X67050091Y-40328323D01*
X67015282Y-40380421D01*
X67015280Y-40380423D01*
X67015280Y-40380425D01*
X67015154Y-40380730D01*
X67005599Y-40399222D01*
X66999664Y-40408667D01*
X66979494Y-40466309D01*
X66977015Y-40472802D01*
X66957802Y-40519187D01*
X66957802Y-40519188D01*
X66955300Y-40531765D01*
X66950728Y-40548517D01*
X66942912Y-40570855D01*
X66942911Y-40570860D01*
X66937471Y-40619148D01*
X66935868Y-40629456D01*
X66928500Y-40666496D01*
X66928500Y-40691814D01*
X66927720Y-40705698D01*
X66923675Y-40741598D01*
X66923675Y-40741601D01*
X66927720Y-40777499D01*
X66928500Y-40791384D01*
X66928500Y-112599214D01*
X66927720Y-112613098D01*
X66923675Y-112648998D01*
X66923675Y-112649001D01*
X62611500Y-112649001D01*
X62611500Y-106877501D01*
X62631185Y-106810462D01*
X62683989Y-106764707D01*
X62753147Y-106754763D01*
X62816703Y-106783788D01*
X62838600Y-106808608D01*
X62859075Y-106839250D01*
X62860966Y-106842168D01*
X62900081Y-106904419D01*
X63021581Y-107025919D01*
X63083814Y-107065022D01*
X63086724Y-107066908D01*
X63138821Y-107101718D01*
X63139116Y-107101840D01*
X63157628Y-107111403D01*
X63167070Y-107117336D01*
X63167072Y-107117337D01*
X63205296Y-107130711D01*
X63224701Y-107137501D01*
X63231198Y-107139982D01*
X63277578Y-107159194D01*
X63277582Y-107159195D01*
X63277587Y-107159197D01*
X63290174Y-107161700D01*
X63306917Y-107166271D01*
X63329254Y-107174087D01*
X63377559Y-107179528D01*
X63387840Y-107181127D01*
X63424900Y-107188500D01*
X63450215Y-107188500D01*
X63464099Y-107189280D01*
X63499998Y-107193325D01*
X63500000Y-107193325D01*
X63500002Y-107193325D01*
X63535901Y-107189280D01*
X63549785Y-107188500D01*
X63575103Y-107188500D01*
X63604642Y-107182622D01*
X63612139Y-107181131D01*
X63622439Y-107179528D01*
X63670746Y-107174087D01*
X63693080Y-107166271D01*
X63709831Y-107161699D01*
X63722413Y-107159197D01*
X63768825Y-107139971D01*
X63775292Y-107137503D01*
X63799732Y-107128951D01*
X63832928Y-107117337D01*
X63842362Y-107111409D01*
X63860895Y-107101835D01*
X63861179Y-107101718D01*
X63913309Y-107066884D01*
X63916105Y-107065072D01*
X63978419Y-107025919D01*
X63978421Y-107025916D01*
X63978427Y-107025913D01*
X63979532Y-107025032D01*
X63980381Y-107024685D01*
X63984316Y-107022213D01*
X63984748Y-107022902D01*
X64044218Y-106998623D01*
X64097794Y-107004936D01*
X64113694Y-107010499D01*
X64120182Y-107012975D01*
X64166587Y-107032197D01*
X64179157Y-107034696D01*
X64195927Y-107039274D01*
X64218257Y-107047088D01*
X64266561Y-107052530D01*
X64276862Y-107054131D01*
X64313900Y-107061499D01*
X64339206Y-107061499D01*
X64353090Y-107062279D01*
X64388998Y-107066325D01*
X64389000Y-107066325D01*
X64389002Y-107066325D01*
X64424910Y-107062279D01*
X64438794Y-107061499D01*
X64464102Y-107061499D01*
X64475473Y-107059236D01*
X64501144Y-107054129D01*
X64511420Y-107052531D01*
X64559746Y-107047087D01*
X64582073Y-107039273D01*
X64598832Y-107034698D01*
X64611413Y-107032197D01*
X64657837Y-107012966D01*
X64664260Y-107010514D01*
X64721930Y-106990336D01*
X64731364Y-106984407D01*
X64749895Y-106974835D01*
X64750179Y-106974718D01*
X64802322Y-106939875D01*
X64805153Y-106938042D01*
X64867418Y-106898920D01*
X64867421Y-106898918D01*
X64988918Y-106777421D01*
X64988920Y-106777418D01*
X65028042Y-106715153D01*
X65029875Y-106712322D01*
X65064718Y-106660179D01*
X65064835Y-106659895D01*
X65074409Y-106641362D01*
X65080336Y-106631930D01*
X65100514Y-106574260D01*
X65102966Y-106567837D01*
X65122197Y-106521413D01*
X65124698Y-106508832D01*
X65129273Y-106492073D01*
X65137087Y-106469746D01*
X65142531Y-106421420D01*
X65144129Y-106411144D01*
X65151499Y-106374100D01*
X65151499Y-106348793D01*
X65152279Y-106334908D01*
X65156325Y-106299001D01*
X65156325Y-106298998D01*
X65152279Y-106263090D01*
X65151499Y-106249206D01*
X65151499Y-106223900D01*
X65144133Y-106186873D01*
X65142530Y-106176561D01*
X65137088Y-106128257D01*
X65129274Y-106105927D01*
X65124696Y-106089154D01*
X65122198Y-106076592D01*
X65122197Y-106076591D01*
X65122197Y-106076587D01*
X65102975Y-106030182D01*
X65100500Y-106023697D01*
X65080337Y-105966072D01*
X65080336Y-105966070D01*
X65074403Y-105956628D01*
X65064840Y-105938116D01*
X65064718Y-105937821D01*
X65029908Y-105885724D01*
X65028022Y-105882814D01*
X64988920Y-105820583D01*
X64988918Y-105820580D01*
X64959219Y-105790881D01*
X64925734Y-105729558D01*
X64922900Y-105703200D01*
X64922900Y-101454982D01*
X64942585Y-101387943D01*
X64995389Y-101342188D01*
X65064547Y-101332244D01*
X65128103Y-101361269D01*
X65151894Y-101389010D01*
X65186081Y-101443419D01*
X65307580Y-101564918D01*
X65307583Y-101564920D01*
X65369814Y-101604022D01*
X65372724Y-101605908D01*
X65424821Y-101640718D01*
X65425116Y-101640840D01*
X65443628Y-101650403D01*
X65453070Y-101656336D01*
X65453072Y-101656337D01*
X65491296Y-101669711D01*
X65510701Y-101676501D01*
X65517198Y-101678982D01*
X65563578Y-101698194D01*
X65563582Y-101698195D01*
X65563587Y-101698197D01*
X65576174Y-101700700D01*
X65592917Y-101705271D01*
X65615254Y-101713087D01*
X65663559Y-101718528D01*
X65673840Y-101720127D01*
X65710900Y-101727500D01*
X65736215Y-101727500D01*
X65750099Y-101728280D01*
X65785998Y-101732325D01*
X65786000Y-101732325D01*
X65786002Y-101732325D01*
X65821901Y-101728280D01*
X65835785Y-101727500D01*
X65861103Y-101727500D01*
X65890642Y-101721622D01*
X65898139Y-101720131D01*
X65908439Y-101718528D01*
X65956746Y-101713087D01*
X65979080Y-101705271D01*
X65995831Y-101700699D01*
X66008413Y-101698197D01*
X66054825Y-101678971D01*
X66061292Y-101676503D01*
X66085732Y-101667951D01*
X66118928Y-101656337D01*
X66128362Y-101650409D01*
X66146895Y-101640835D01*
X66147179Y-101640718D01*
X66199322Y-101605875D01*
X66202153Y-101604042D01*
X66264418Y-101564920D01*
X66264421Y-101564918D01*
X66385918Y-101443421D01*
X66385920Y-101443418D01*
X66407566Y-101408966D01*
X66425051Y-101381137D01*
X66426875Y-101378322D01*
X66461718Y-101326179D01*
X66461835Y-101325895D01*
X66471409Y-101307362D01*
X66477303Y-101297983D01*
X66477336Y-101297930D01*
X66497503Y-101240292D01*
X66499971Y-101233825D01*
X66519197Y-101187413D01*
X66521699Y-101174831D01*
X66526271Y-101158080D01*
X66534087Y-101135746D01*
X66539528Y-101087439D01*
X66541132Y-101077136D01*
X66548500Y-101040103D01*
X66548500Y-101014784D01*
X66549280Y-101000899D01*
X66553325Y-100965001D01*
X66553325Y-100964998D01*
X66549280Y-100929098D01*
X66548500Y-100915214D01*
X66548500Y-83869784D01*
X66549280Y-83855899D01*
X66553325Y-83820001D01*
X66553325Y-83819998D01*
X66549280Y-83784098D01*
X66548500Y-83770214D01*
X66548500Y-83744901D01*
X66548500Y-83744900D01*
X66541127Y-83707840D01*
X66539528Y-83697559D01*
X66534087Y-83649254D01*
X66526271Y-83626917D01*
X66521700Y-83610174D01*
X66519197Y-83597587D01*
X66519195Y-83597582D01*
X66519194Y-83597578D01*
X66499982Y-83551198D01*
X66497500Y-83544697D01*
X66477337Y-83487072D01*
X66477336Y-83487070D01*
X66471403Y-83477628D01*
X66461840Y-83459116D01*
X66461718Y-83458821D01*
X66426908Y-83406724D01*
X66425022Y-83403814D01*
X66385920Y-83341583D01*
X66385918Y-83341580D01*
X66264419Y-83220081D01*
X66202168Y-83180966D01*
X66199249Y-83179074D01*
X66147181Y-83144283D01*
X66147179Y-83144282D01*
X66146870Y-83144154D01*
X66128372Y-83134596D01*
X66123441Y-83131498D01*
X66118929Y-83128663D01*
X66083836Y-83116384D01*
X66061290Y-83108494D01*
X66054805Y-83106019D01*
X66008414Y-83086803D01*
X66008407Y-83086801D01*
X65995823Y-83084297D01*
X65979066Y-83079722D01*
X65971142Y-83076949D01*
X65914367Y-83036226D01*
X65888622Y-82971272D01*
X65888100Y-82959909D01*
X65888100Y-81630212D01*
X65895060Y-81589253D01*
X65899086Y-81577748D01*
X65899087Y-81577746D01*
X65904531Y-81529420D01*
X65906129Y-81519144D01*
X65913499Y-81482100D01*
X65913499Y-81456793D01*
X65914279Y-81442908D01*
X65918325Y-81407001D01*
X65918325Y-81406998D01*
X65914279Y-81371090D01*
X65913499Y-81357206D01*
X65913499Y-81331900D01*
X65906133Y-81294873D01*
X65904530Y-81284561D01*
X65899088Y-81236257D01*
X65891274Y-81213927D01*
X65886696Y-81197154D01*
X65884198Y-81184592D01*
X65884197Y-81184591D01*
X65884197Y-81184587D01*
X65864975Y-81138182D01*
X65862500Y-81131697D01*
X65842336Y-81074069D01*
X65836408Y-81064635D01*
X65826842Y-81046120D01*
X65826719Y-81045823D01*
X65826713Y-81045813D01*
X65813248Y-81025661D01*
X65791911Y-80993728D01*
X65790036Y-80990836D01*
X65750918Y-80928580D01*
X65629417Y-80807079D01*
X65629414Y-80807077D01*
X65567186Y-80767977D01*
X65564291Y-80766101D01*
X65512179Y-80731282D01*
X65511876Y-80731156D01*
X65493366Y-80721593D01*
X65483930Y-80715664D01*
X65426278Y-80695490D01*
X65419810Y-80693021D01*
X65373413Y-80673803D01*
X65373410Y-80673802D01*
X65360831Y-80671300D01*
X65344072Y-80666725D01*
X65321741Y-80658911D01*
X65321742Y-80658911D01*
X65273450Y-80653471D01*
X65263143Y-80651869D01*
X65262504Y-80651742D01*
X65226100Y-80644501D01*
X65226099Y-80644501D01*
X65200794Y-80644501D01*
X65186910Y-80643721D01*
X65151002Y-80639675D01*
X65150998Y-80639675D01*
X65115090Y-80643721D01*
X65101206Y-80644501D01*
X65075900Y-80644501D01*
X65071088Y-80645458D01*
X65001497Y-80639229D01*
X64946321Y-80596364D01*
X64923078Y-80530474D01*
X64922900Y-80523840D01*
X64922900Y-62279784D01*
X64923680Y-62265899D01*
X64927725Y-62230001D01*
X64927725Y-62229998D01*
X64923680Y-62194098D01*
X64922900Y-62180214D01*
X64922900Y-62154901D01*
X64922900Y-62154900D01*
X64915527Y-62117840D01*
X64913928Y-62107559D01*
X64908487Y-62059254D01*
X64900671Y-62036917D01*
X64896100Y-62020174D01*
X64893597Y-62007587D01*
X64893595Y-62007582D01*
X64893594Y-62007578D01*
X64874382Y-61961198D01*
X64871900Y-61954697D01*
X64851737Y-61897072D01*
X64851736Y-61897070D01*
X64845803Y-61887628D01*
X64836240Y-61869116D01*
X64836118Y-61868821D01*
X64801308Y-61816724D01*
X64799422Y-61813814D01*
X64760320Y-61751583D01*
X64760318Y-61751580D01*
X64638819Y-61630081D01*
X64576568Y-61590966D01*
X64573649Y-61589074D01*
X64521581Y-61554283D01*
X64521579Y-61554282D01*
X64521270Y-61554154D01*
X64502772Y-61544596D01*
X64493330Y-61538664D01*
X64493329Y-61538663D01*
X64493328Y-61538663D01*
X64489031Y-61536594D01*
X64437169Y-61489774D01*
X64418853Y-61422347D01*
X64439898Y-61355722D01*
X64455140Y-61337196D01*
X65616272Y-60176066D01*
X65623919Y-60168419D01*
X65663055Y-60106132D01*
X65664894Y-60103295D01*
X65699718Y-60051179D01*
X65699835Y-60050895D01*
X65709409Y-60032362D01*
X65715336Y-60022930D01*
X65735514Y-59965260D01*
X65737966Y-59958837D01*
X65757197Y-59912413D01*
X65759698Y-59899832D01*
X65764273Y-59883073D01*
X65772087Y-59860746D01*
X65777531Y-59812420D01*
X65779129Y-59802144D01*
X65786499Y-59765100D01*
X65786499Y-59739793D01*
X65787279Y-59725908D01*
X65791325Y-59690001D01*
X65791325Y-59689998D01*
X65787279Y-59654090D01*
X65786499Y-59640206D01*
X65786499Y-59614901D01*
X65779130Y-59577858D01*
X65777528Y-59567557D01*
X65772087Y-59519254D01*
X65764272Y-59496921D01*
X65759699Y-59480170D01*
X65757197Y-59467588D01*
X65737972Y-59421176D01*
X65735518Y-59414746D01*
X65715336Y-59357070D01*
X65709404Y-59347630D01*
X65699838Y-59329112D01*
X65699718Y-59328822D01*
X65664919Y-59276741D01*
X65663034Y-59273832D01*
X65623919Y-59211581D01*
X65502421Y-59090083D01*
X65502419Y-59090081D01*
X65440158Y-59050959D01*
X65437242Y-59049069D01*
X65385178Y-59014282D01*
X65385179Y-59014282D01*
X65384876Y-59014157D01*
X65366371Y-59004596D01*
X65356930Y-58998664D01*
X65299281Y-58978491D01*
X65292789Y-58976012D01*
X65246410Y-58956802D01*
X65246405Y-58956801D01*
X65233837Y-58954301D01*
X65217075Y-58949726D01*
X65194743Y-58941912D01*
X65146440Y-58936470D01*
X65136131Y-58934867D01*
X65099101Y-58927501D01*
X65099099Y-58927501D01*
X65073794Y-58927501D01*
X65059910Y-58926721D01*
X65024002Y-58922675D01*
X65023998Y-58922675D01*
X64988090Y-58926721D01*
X64974206Y-58927501D01*
X64948900Y-58927501D01*
X64911854Y-58934869D01*
X64901549Y-58936471D01*
X64853259Y-58941911D01*
X64853253Y-58941913D01*
X64830920Y-58949727D01*
X64814164Y-58954301D01*
X64801589Y-58956802D01*
X64801585Y-58956803D01*
X64755202Y-58976015D01*
X64748709Y-58978494D01*
X64691067Y-58998664D01*
X64681622Y-59004599D01*
X64663130Y-59014154D01*
X64662821Y-59014282D01*
X64662814Y-59014285D01*
X64610739Y-59049080D01*
X64607824Y-59050969D01*
X64545585Y-59090077D01*
X64545578Y-59090083D01*
X64537934Y-59097728D01*
X62907731Y-60727929D01*
X62907725Y-60727936D01*
X62838602Y-60831388D01*
X62784990Y-60876194D01*
X62715665Y-60884901D01*
X62652638Y-60854747D01*
X62615918Y-60795304D01*
X62611500Y-60762498D01*
X62611500Y-34293051D01*
X62611575Y-34290005D01*
X63621728Y-34290005D01*
X63640795Y-34593079D01*
X63640796Y-34593086D01*
X63697703Y-34891404D01*
X63791548Y-35180226D01*
X63791550Y-35180231D01*
X63920850Y-35455007D01*
X63920856Y-35455018D01*
X64083575Y-35711423D01*
X64083578Y-35711427D01*
X64277152Y-35945417D01*
X64277154Y-35945419D01*
X64498533Y-36153309D01*
X64498543Y-36153317D01*
X64744213Y-36331807D01*
X64744219Y-36331810D01*
X64744225Y-36331815D01*
X65010350Y-36478118D01*
X65010351Y-36478118D01*
X65010356Y-36478121D01*
X65010359Y-36478122D01*
X65280125Y-36584929D01*
X65292713Y-36589913D01*
X65586861Y-36665438D01*
X65650066Y-36673422D01*
X65888143Y-36703499D01*
X65888152Y-36703499D01*
X65888155Y-36703500D01*
X65888157Y-36703500D01*
X66191843Y-36703500D01*
X66191845Y-36703500D01*
X66191848Y-36703499D01*
X66191856Y-36703499D01*
X66371639Y-36680786D01*
X66493139Y-36665438D01*
X66787287Y-36589913D01*
X67069640Y-36478122D01*
X67069643Y-36478121D01*
X67069644Y-36478120D01*
X67069650Y-36478118D01*
X67335775Y-36331815D01*
X67581465Y-36153311D01*
X67802844Y-35945421D01*
X67996423Y-35711425D01*
X68159148Y-35455011D01*
X68288452Y-35180225D01*
X68382298Y-34891400D01*
X68439203Y-34593090D01*
X68458272Y-34290005D01*
X99181728Y-34290005D01*
X99200795Y-34593079D01*
X99200796Y-34593086D01*
X99257703Y-34891404D01*
X99351548Y-35180226D01*
X99351550Y-35180231D01*
X99480850Y-35455007D01*
X99480856Y-35455018D01*
X99643575Y-35711423D01*
X99643578Y-35711427D01*
X99837152Y-35945417D01*
X99837154Y-35945419D01*
X100058533Y-36153309D01*
X100058543Y-36153317D01*
X100304213Y-36331807D01*
X100304219Y-36331810D01*
X100304225Y-36331815D01*
X100570350Y-36478118D01*
X100570351Y-36478118D01*
X100570356Y-36478121D01*
X100570359Y-36478122D01*
X100840125Y-36584929D01*
X100852713Y-36589913D01*
X101146861Y-36665438D01*
X101210066Y-36673422D01*
X101448143Y-36703499D01*
X101448152Y-36703499D01*
X101448155Y-36703500D01*
X101448157Y-36703500D01*
X101751843Y-36703500D01*
X101751845Y-36703500D01*
X101751848Y-36703499D01*
X101751856Y-36703499D01*
X101931639Y-36680786D01*
X102053139Y-36665438D01*
X102347287Y-36589913D01*
X102629640Y-36478122D01*
X102629643Y-36478121D01*
X102629644Y-36478120D01*
X102629650Y-36478118D01*
X102895775Y-36331815D01*
X103141465Y-36153311D01*
X103362844Y-35945421D01*
X103556423Y-35711425D01*
X103719148Y-35455011D01*
X103848452Y-35180225D01*
X103942298Y-34891400D01*
X103999203Y-34593090D01*
X104018272Y-34290000D01*
X104018081Y-34286967D01*
X103999204Y-33986920D01*
X103999203Y-33986913D01*
X103999203Y-33986910D01*
X103942298Y-33688600D01*
X103848452Y-33399775D01*
X103719148Y-33124989D01*
X103719143Y-33124981D01*
X103556424Y-32868576D01*
X103556421Y-32868572D01*
X103362847Y-32634582D01*
X103362845Y-32634580D01*
X103141466Y-32426690D01*
X103141456Y-32426682D01*
X102895786Y-32248192D01*
X102895768Y-32248181D01*
X102629643Y-32101878D01*
X102629640Y-32101877D01*
X102347291Y-31990088D01*
X102319270Y-31982893D01*
X102053139Y-31914562D01*
X102053136Y-31914561D01*
X102053129Y-31914560D01*
X101751856Y-31876500D01*
X101751845Y-31876500D01*
X101448155Y-31876500D01*
X101448143Y-31876500D01*
X101146870Y-31914560D01*
X101146861Y-31914562D01*
X100852708Y-31990088D01*
X100570359Y-32101877D01*
X100570356Y-32101878D01*
X100304231Y-32248181D01*
X100304213Y-32248192D01*
X100058543Y-32426682D01*
X100058533Y-32426690D01*
X99837154Y-32634580D01*
X99837152Y-32634582D01*
X99643578Y-32868572D01*
X99643575Y-32868576D01*
X99480856Y-33124981D01*
X99480850Y-33124992D01*
X99351550Y-33399768D01*
X99351548Y-33399773D01*
X99257703Y-33688595D01*
X99200796Y-33986913D01*
X99200795Y-33986920D01*
X99181728Y-34289994D01*
X99181728Y-34290005D01*
X68458272Y-34290005D01*
X68458272Y-34290000D01*
X68458081Y-34286967D01*
X68439204Y-33986920D01*
X68439203Y-33986913D01*
X68439203Y-33986910D01*
X68382298Y-33688600D01*
X68288452Y-33399775D01*
X68159148Y-33124989D01*
X68159143Y-33124981D01*
X67996424Y-32868576D01*
X67996421Y-32868572D01*
X67802847Y-32634582D01*
X67802845Y-32634580D01*
X67581466Y-32426690D01*
X67581456Y-32426682D01*
X67335786Y-32248192D01*
X67335768Y-32248181D01*
X67069643Y-32101878D01*
X67069640Y-32101877D01*
X66787291Y-31990088D01*
X66759270Y-31982893D01*
X66493139Y-31914562D01*
X66493136Y-31914561D01*
X66493129Y-31914560D01*
X66191856Y-31876500D01*
X66191845Y-31876500D01*
X65888155Y-31876500D01*
X65888143Y-31876500D01*
X65586870Y-31914560D01*
X65586861Y-31914562D01*
X65292708Y-31990088D01*
X65010359Y-32101877D01*
X65010356Y-32101878D01*
X64744231Y-32248181D01*
X64744213Y-32248192D01*
X64498543Y-32426682D01*
X64498533Y-32426690D01*
X64277154Y-32634580D01*
X64277152Y-32634582D01*
X64083578Y-32868572D01*
X64083575Y-32868576D01*
X63920856Y-33124981D01*
X63920850Y-33124992D01*
X63791550Y-33399768D01*
X63791548Y-33399773D01*
X63697703Y-33688595D01*
X63640796Y-33986913D01*
X63640795Y-33986920D01*
X63621728Y-34289994D01*
X63621728Y-34290005D01*
X62611575Y-34290005D01*
X62611649Y-34286967D01*
X62626389Y-33986920D01*
X62627710Y-33960027D01*
X62628903Y-33947920D01*
X62645371Y-33836902D01*
X62676486Y-33627144D01*
X62678854Y-33615237D01*
X62757653Y-33300654D01*
X62761176Y-33289039D01*
X62870434Y-32983682D01*
X62875073Y-32972485D01*
X63013740Y-32679297D01*
X63019456Y-32668605D01*
X63186185Y-32390433D01*
X63192915Y-32380360D01*
X63386126Y-32119847D01*
X63393808Y-32110487D01*
X63611609Y-31870179D01*
X63620179Y-31861609D01*
X63860487Y-31643808D01*
X63869847Y-31636126D01*
X64130360Y-31442915D01*
X64140433Y-31436185D01*
X64418605Y-31269456D01*
X64429297Y-31263740D01*
X64722485Y-31125073D01*
X64733682Y-31120434D01*
X65039039Y-31011176D01*
X65050654Y-31007653D01*
X65365237Y-30928854D01*
X65377144Y-30926486D01*
X65697923Y-30878902D01*
X65710027Y-30877710D01*
X66036967Y-30861648D01*
X66043051Y-30861500D01*
X66094851Y-30861500D01*
X78527963Y-30861500D01*
X78595002Y-30881185D01*
G37*
%TD.AperFunction*%
%TD*%
M02*
